<?xml version="1.0" encoding="utf-8"?>
<!-- Generator: Adobe Illustrator 19.1.0, SVG Export Plug-In . SVG Version: 6.00 Build 0)  -->
<svg version="1.1" id="Layer_1" xmlns="http://www.w3.org/2000/svg" xmlns:xlink="http://www.w3.org/1999/xlink" x="0px" y="0px"
	 viewBox="16.8 277.3 382.4 251.2" style="enable-background:new 16.8 277.3 382.4 251.2;" xml:space="preserve">
<style type="text/css">
	.st0{fill:#979FEF;}
	.st1{fill:#F1F2F2;}
	.st2{fill:#EBECED;}
	.st3{fill:#D7D8D9;}
	.st4{fill:#D1D2D4;}
	.st5{fill:#3333CC;}
	.st6{fill:#FFFFFF;}
	.st7{fill:#DEECF1;}
	.st8{fill:#8EBAC5;}
	.st9{fill:#F7D5A0;}
	.st10{fill:#FFAB3B;}
	.st11{fill:#FF643B;}
	.st12{fill:#94352B;}
	.st13{fill:#E6E6E6;}
	.st14{fill:#4545FF;}
	.st15{fill:#FFD3CF;}
	.st16{fill:#FF5B4A;}
	.st17{fill:#5555FF;}
	.st18{fill:#F5B9B5;}
	.st19{fill:#0E2C40;}
	.st20{fill:#F5C068;}
	.st21{fill:#BF3B2D;}
	.st22{fill:#0B2636;}
	.st23{fill:#154A66;}
	.st24{fill:#FF4F3B;}
	.st25{fill:#D1D3D4;}
	.st26{fill:#FFCFC7;}
	.st27{fill:#E6E7E8;}
	.st28{fill:#5353DA;}
	.st29{fill:#FFA899;}
	.st30{fill:#0E3144;}
	.st31{fill:#10364D;}
</style>
<path class="st0" d="M339.3,484.3c39.3-15.3,67.5-49,58.1-96.9c-5.1-25.9-22-29.1-44.4-72.4c-10.7-20.7-29.7-37.7-65.4-25.6
	c-40,13.6-50.2,34.4-88.4,31.9c-38.2-2.5-56.1-22.9-92.1-27.5c-24.3-3.1-53.3,12.4-56.2,43.5c-2.9,31.1,12.2,50.1,9.2,67
	c-3.1,16.9-50.4,52.6,15.1,82.7c65.5,30.1,135.7-10,135.7-10l96.3,15.6L339.3,484.3z"/>
<path class="st0" d="M103.3,460.6c-1.1,0-60,1.6-82.5,12.5c-15.4,7.4,18.5,15.6,18.5,15.6s-38.7,17.6,9.4,22.2
	c57.7,5.4,162.6-1.6,162.6-1.6s33.3,13.3,125.7,10.4c88.8-2.8,59.2-28.2,38.1-31c0,0,9.8-21.2-45.5-26.4l-125.2,9.2l-111.7-4.8
	L103.3,460.6z"/>
<path class="st1" d="M165.7,288.8c-3.7,6-6,19.5,22.8,23.2c28.8,3.7,44.1-7.6,43.6-16.8C231.3,281.2,179.4,266.3,165.7,288.8z"/>
<path class="st2" d="M208.6,402.5h-53.4v25.9h53.4V402.5z"/>
<path class="st3" d="M176.4,413.1l-19.3,13.8l22.2-12l-1.5-1.8H176.4z"/>
<path class="st3" d="M184.1,414.7l22.9,12.5l-20.4-14.1l-2,1.2L184.1,414.7z"/>
<path class="st4" d="M155.2,402.5l27.5,16.2l25.8-16.2H155.2z"/>
<path class="st5" d="M361.7,502.8H60c-1.8,0-3.3-1.5-3.3-3.3v-5.9H365v5.9C365,501.3,363.5,502.8,361.7,502.8z"/>
<path class="st5" d="M161.6,440.4h-39.5v16.8h39.5V440.4z"/>
<path class="st5" d="M299.6,440.4h-39.5v16.8h39.5V440.4z"/>
<path class="st5" d="M99.2,446.5h223.3c5.5,0,10-4.5,10-10V319.7c0-5.5-4.5-10-10-10H99.2c-5.5,0-10,4.5-10,10v116.8
	C89.2,442.1,93.7,446.5,99.2,446.5z"/>
<path class="st5" d="M60,497.3h301.7c2.7,0,4.3-3.1,2.6-5.3l-30.8-38.8c-0.6-0.8-1.6-1.2-2.6-1.2H90.8c-1,0-1.9,0.4-2.6,1.2
	L57.5,492C55.7,494.1,57.3,497.3,60,497.3z"/>
<path class="st6" d="M318.4,317.7H103.3v120.9h215.1V317.7z"/>
<path class="st1" d="M38.8,377c-10.2,0.7-18.6,16.7-19.4,28.8c-0.8,12.1,5.4,22.1,15.2,20.7c9.8-1.3,20.6-19.4,19.4-29.3
	C52.8,387.3,48,376.3,38.8,377z"/>
<path class="st7" d="M94.2,457.2l-17,20.2l268.4,0.7l-17.1-20.9H94.2z"/>
<path class="st7" d="M169.6,481.9l-5,11.7l92.6,0.3l-5.6-12H169.6z"/>
<path class="st8" d="M103.3,330l215-2.2v-10.2h-215V330z"/>
<path class="st6" d="M290.9,325.2c1.3,0,2.3-1,2.3-2.3c0-1.2-1-2.3-2.3-2.3s-2.3,1-2.3,2.3C288.6,324.2,289.6,325.2,290.9,325.2z"/>
<path class="st6" d="M300.9,325.2c1.3,0,2.3-1,2.3-2.3c0-1.2-1-2.3-2.3-2.3s-2.3,1-2.3,2.3C298.6,324.2,299.6,325.2,300.9,325.2z"/>
<path class="st6" d="M310.9,325.2c1.3,0,2.3-1,2.3-2.3c0-1.2-1-2.3-2.3-2.3s-2.3,1-2.3,2.3C308.6,324.2,309.7,325.2,310.9,325.2z"/>
<path class="st9" d="M348.2,343.2h-71.5v43.2h71.5V343.2z"/>
<path class="st10" d="M282.4,381.9h60v-30.6c0,0-4.3-1.1-8.9,5.4c-2.9,4.2-8.2,12.1-12.8,10.7c-4.6-1.3-7.3-5-13.3-3.3
	c-6.8,1.9-10.3,11.9-17.7,12C284.5,376.3,282.4,381.9,282.4,381.9z"/>
<path class="st11" d="M318.4,400.8c-9.4,1.9-14.3,17-10.9,33.7c3.4,16.7,13.8,28.7,23.2,26.7c9.4-1.9,14.3-17,10.9-33.7
	C338.2,410.9,327.8,398.9,318.4,400.8z"/>
<path class="st12" d="M323,400.1c0,0-4,0.6-4.1,0.6c0,0-0.3,1.3-0.3,1.3l5.5-0.5L323,400.1z"/>
<path class="st12" d="M333.6,460.9l-3.8,0.4l-0.8-1.3c0,0,2.4-0.4,2.5-0.4c0.1,0,2.3,1,2.3,1L333.6,460.9z"/>
<path class="st6" d="M322.3,400.3c-9.4,1.9-14.3,17-10.9,33.7c3.4,16.7,13.8,28.7,23.3,26.8c9.4-1.9,14.3-17,10.9-33.7
	C342.1,410.3,331.7,398.3,322.3,400.3z"/>
<path class="st10" d="M324.7,450.4c-3.6-4.4-6.3-10.6-7.7-17.5c-1.5-7.1-1.3-14.4,0.5-19.9c1.5-4.5,3.8-7.4,6.5-7.9
	c0.2,0,0.4-0.1,0.7-0.1c2.7-0.2,5.9,1.8,8.9,5.5c3.6,4.4,6.3,10.6,7.7,17.5c1.5,7.1,1.3,14.4-0.5,19.9c-1.5,4.5-3.8,7.4-6.5,7.9
	c-0.2,0-0.4,0.1-0.7,0.1C330.9,456.1,327.7,454.1,324.7,450.4z M333.3,451.1c0.7-0.1,1.8-1.4,2.9-4.7c1.5-4.7,1.7-11,0.4-17.4
	c-1.2-6.1-3.6-11.6-6.7-15.4c-2.6-3.1-4.5-3.7-4.9-3.7c-0.4,0.1-1.8,1.4-2.9,4.7c-1.5,4.7-1.7,11-0.4,17.4
	c1.2,6.1,3.6,11.6,6.7,15.4C331.1,450.5,332.7,451.2,333.3,451.1z"/>
<path class="st10" d="M331.4,438.8c0,0,0.1,0,0.1,0c0.6-0.1,1.3-1,1.7-2.3c0.6-1.9,0.7-4.3,0.2-6.8c-0.5-2.4-1.4-4.5-2.6-6
	c-1-1.3-2-1.7-2.5-1.7c0,0-0.1,0-0.1,0c-0.6,0.1-1.3,1-1.7,2.3c-0.6,1.9-0.7,4.3-0.2,6.8c0.5,2.4,1.4,4.5,2.6,6
	C329.9,438.4,330.9,438.8,331.4,438.8z"/>
<path class="st11" d="M351.2,386.5c0,0-4.4,8.2-6.2,10.7c0,0,1.7,6.1,2,7.7l5.7-11.1C352.8,393.8,352.1,388.7,351.2,386.5z"/>
<path class="st11" d="M351.4,404.1l-4.4,0.8l5.7-11.1l6-1.8L351.4,404.1z"/>
<path class="st13" d="M330.4,431.2c0.2,0,0.4-0.1,0.5-0.3c9.1-10.4,22.8-37,22.9-37.3c0.2-0.4,0-0.8-0.3-1c-0.4-0.2-0.8,0-1,0.3
	c-0.1,0.3-13.7,26.7-22.7,37c-0.3,0.3-0.2,0.8,0.1,1.1C330,431.1,330.2,431.2,330.4,431.2z"/>
<path class="st14" d="M113.4,289.8c9.5,2.7,19,42.2,9.9,51.4c-9.1,9.2-83.9,1.7-87.8-8.2c-3.9-9.9,4.2-41.7,14.9-44.6
	C61,285.5,95.7,284.7,113.4,289.8z"/>
<path class="st14" d="M74.7,333.4l1.5,28.2l-15.6-21.7l14.9-7.8L74.7,333.4z"/>
<path class="st6" d="M73,307.3H49.2c-0.4,0-0.8-0.3-0.8-0.8s0.3-0.8,0.8-0.8H73c0.4,0,0.8,0.3,0.8,0.8
	C73.8,306.9,73.4,307.3,73,307.3z"/>
<path class="st6" d="M83.7,307.3h-5.9c-0.4,0-0.8-0.3-0.8-0.8s0.3-0.8,0.8-0.8h5.9c0.4,0,0.8,0.3,0.8,0.8S84.1,307.3,83.7,307.3z"/>
<path class="st6" d="M93.6,313.9H64.1c-0.4,0-0.8-0.3-0.8-0.8c0-0.4,0.3-0.8,0.8-0.8h29.5c0.4,0,0.8,0.3,0.8,0.8
	C94.4,313.6,94,313.9,93.6,313.9z"/>
<path class="st6" d="M59.4,313.9H49.2c-0.4,0-0.8-0.3-0.8-0.8c0-0.4,0.3-0.8,0.8-0.8h10.2c0.4,0,0.8,0.3,0.8,0.8
	C60.2,313.6,59.9,313.9,59.4,313.9z"/>
<path class="st6" d="M112.6,320.6H93c-0.4,0-0.8-0.3-0.8-0.8s0.3-0.8,0.8-0.8h19.6c0.4,0,0.8,0.3,0.8,0.8
	C113.4,320.2,113.1,320.6,112.6,320.6z"/>
<path class="st6" d="M88,320.6H75.3c-0.4,0-0.8-0.3-0.8-0.8s0.3-0.8,0.8-0.8H88c0.4,0,0.8,0.3,0.8,0.8
	C88.8,320.2,88.4,320.6,88,320.6z"/>
<path class="st6" d="M70.3,320.6h-21c-0.4,0-0.8-0.3-0.8-0.8s0.3-0.8,0.8-0.8h21c0.4,0,0.8,0.3,0.8,0.8S70.7,320.6,70.3,320.6z"/>
<path class="st6" d="M80.3,327.2l-23,0c-0.4,0-0.8-0.3-0.8-0.8s0.3-0.8,0.8-0.8l23,0c0.4,0,0.8,0.3,0.8,0.8S80.8,327.2,80.3,327.2z"
	/>
<path class="st6" d="M52,327.2h-2.7c-0.4,0-0.8-0.3-0.8-0.8s0.3-0.8,0.8-0.8H52c0.4,0,0.8,0.3,0.8,0.8S52.4,327.2,52,327.2z"/>
<path class="st6" d="M112.6,307.3H88.9c-0.4,0-0.8-0.3-0.8-0.8s0.3-0.8,0.8-0.8h23.8c0.4,0,0.8,0.3,0.8,0.8
	C113.4,306.9,113,307.3,112.6,307.3z"/>
<path class="st15" d="M288.6,433.6l-1.2,8.9c0,0,2.9,3.1,2.6,9.4c-0.3,6.4-6.5,26.8-6.5,26.8h-1.8c0,0,0.1-35.2-1.2-46.7
	c-1.3-11.5,5.5,0.3,5.5,0.3L288.6,433.6z"/>
<path class="st15" d="M277.1,433.6l-1.2,8.9c0,0,2.9,3.1,2.6,9.4c-0.3,6.4-6.5,26.8-6.5,26.8h-1.8c0,0,0.1-35.2-1.2-46.7
	s5.5,0.3,5.5,0.3L277.1,433.6z"/>
<path class="st16" d="M272,478.7c0,0,1,0.9,0.9,2.6c-0.1,1.6-1,4.6-1,4.6h-0.4c0,0,0-1.9-0.2-3.7c0,0-1,2.1-1.5,3.7H265
	c0,0,0.5-1.4,2.6-1.9c0,0,0.3-3.1,2.5-5.3L272,478.7L272,478.7z"/>
<path class="st15" d="M267.6,484c0,0,0.3-3.1,2.5-5.3c0.8-0.6,1.4-0.6,1.8,0C272,478.7,269.7,484,267.6,484z"/>
<path class="st16" d="M283.4,478.7c0,0,1,0.9,0.9,2.6c-0.1,1.6-1,4.6-1,4.6h-0.4c0,0,0-1.9-0.2-3.7c0,0-1,2.1-1.5,3.7h-4.7
	c0,0,0.5-1.4,2.6-1.9c0,0,0.3-3.1,2.5-5.3L283.4,478.7L283.4,478.7z"/>
<path class="st15" d="M279,484c0,0,0.3-3.1,2.5-5.3c0.6-0.6,1.2-0.6,1.8,0C283.4,478.7,281,484,279,484z"/>
<path class="st17" d="M279.1,401.9l1.9,2.5c0,0,15.2,1.5,9.7,32.7h-23.3c0,0-2-21.5,3-32l7.3-3.5L279.1,401.9z"/>
<path class="st0" d="M274.5,381.6l-0.9-0.4l-4.6,1.6l-5,6.8c0,0-0.6,3.8,4.2,5.5l2.2,10.1l10.6-0.7l3.8-12.9l2.9-6.7l-5.8-3.1
	L274.5,381.6z"/>
<path class="st0" d="M270,383.9l-1.1-1.1c0,0-9.7,7-12.5,8.9c0,0,3.9,9.7,13.8,12.8l2.4-1.3l-3.2-2.5c0,0-4.1-4.6-5.4-7l3.1-2.1
	c0,0,3-3.3,3.1-3.5C270.3,387.9,270,383.9,270,383.9z"/>
<path class="st15" d="M283.5,403.6l-3.5-1.6l-3.2,2.1c0,0-1.3,3.6-0.9,3.9c0.4,0.3,0.6-0.2,0.6-0.2s-0.4,0.7-0.1,0.9
	c0.3,0.2,0.8-0.7,0.8-0.7s-0.3,0.9,0.1,0.9s0.5-1,0.5-1s0.3,1,0.6,0.5c0.3-0.4,1.4-1,1.6-3c0,0,1.7,0.7,3.6-0.1L283.5,403.6z"/>
<path class="st6" d="M274.3,381.1l-0.7,0l-2.2,10.9l5.5-9.8l0.7-1.3L274.3,381.1z"/>
<path class="st15" d="M274.3,374.4l-0.7,6.8c0,0-0.3,2.6,4.3,0.8c4.6-1.8,4.4-3.8,4.4-3.8l-4.8-4.8L274.3,374.4z"/>
<path class="st18" d="M278.7,374.6l-0.7,1.7c0,0-1.2,1.5-4.1,2.2l0.4-4.2l3-0.9l0.1,0L278.7,374.6z"/>
<path class="st15" d="M271.6,358.3c0,0-3.5,2.9-4.2,11.2l2.1,0.3c0,0-1.2,4.8,2.9,6.4c4.1,1.6,9.8-2.8,9.8-2.8l0.9-9.2l-7.9-5.1
	L271.6,358.3z"/>
<path class="st0" d="M294.1,387.4l7,6.2c0,0-3.5,9.6-17.5,11.9l-0.3-2.2c0,0,4.2-3,6.7-8l-9.5-4.6L294.1,387.4z"/>
<path class="st19" d="M269,362.4c0,0-2.5-2.1-1.6-6c0.8-3.9,2.6-5.4,7.7-3.7c5.1,1.7,8.1-0.5,13.2,4.5c5.1,4.9,2.1,9.8,2.7,14.1
	c0.6,4.3,6,5.4,8.5,13.4c1.9,5.9-1.6,6.2-0.3,9.6c1.2,3.4-0.8,6.7-4,7c-3.1,0.4-5.9-1.6-7.5-4.6c-1.7-3-2.4-6.2-7.1-8.7
	c-4.7-2.5-4.6-7.9-2.5-12.1c2-4.2,0-7.4,0-7.4l-1-1.8c0,0-5.2-0.6-7.3-5.7L269,362.4z"/>
<path class="st15" d="M277,366.6c0,0,1.1-2.4,2.5-0.9c1.5,1.4,0.3,5.5-2.2,5.1c-2.5-0.3-1.1-2.2-1.1-2.2L277,366.6z"/>
<path class="st15" d="M268.7,404.4c-0.4,1.4-1.1,2.5,1,3.2c2,0.7,0.5-1.1,0.5-1.1s1.6,1.4,1.9,0.9c0.3-0.6-1.8-2-1.8-2
	s2.4,1,2.4,0.3c0-0.7-2.6-1.7-2.6-1.7s2.2,0.6,2.1,0.1C272,403.4,269.7,400.7,268.7,404.4z"/>
<path class="st5" d="M267.1,431.6c3.9,2.7,8.9,4.6,14.1,2.3c11.8-5,3.8-27.8,3.8-27.8c4,2.9,9.2,10.6,5.7,31h-23.3
	C267.4,437.1,267.2,434.9,267.1,431.6z"/>
<path class="st18" d="M288.1,437.1l-0.2,1.7c-2.1-0.4-4.9-0.5-7,1.4c-0.1-1.1-0.1-2.1-0.2-3.1H288.1z"/>
<path class="st18" d="M269.3,437.1h7.4l-0.2,1.1c-1.6-0.3-4.7-0.3-7,2.7C269.4,439.6,269.4,438.3,269.3,437.1z"/>
<path class="st6" d="M274,404.8l-2.4-12.8l-0.3,0.1l2.4,12.8L274,404.8z"/>
<path class="st6" d="M285.1,437.1l-0.3-0.1c2.4-12,1.7-19.9,0.7-24.4c-1.1-4.9-2.7-7-2.7-7l0.2-0.2c0.1,0.1,1.7,2.1,2.8,7.1
	C286.8,417.2,287.5,425.1,285.1,437.1z"/>
<path class="st11" d="M252.9,295.9c-8.6-0.6-16.1,6-16.7,14.6c-0.3,4.3,1.2,8.2,3.8,11.2c1.7,2.4,5.1,7.4,5.2,11.5l13,0.8
	c0.3-1.9,0.3-6.6,4.4-11.2c2.8-2.6,4.6-6.3,4.9-10.4C268.1,303.9,261.6,296.4,252.9,295.9z"/>
<path class="st6" d="M248.8,335.3c-0.8-2.6-8-25.8-5.3-29.7c0.8-1.2,1.6-1,2.1-0.8c1.2,0.6,2.2,2.8,2.8,5.4c0.8-1.2,1.9-2,3.4-2
	c0.3,0,0.6,0,0.9,0.1c0.2-0.4,0.4-0.8,0.7-1.1c0.9-1.2,2-1.8,3.2-1.7c1.5,0.2,2.5,1.9,2.7,5.2c0.1-0.1,0.2-0.2,0.4-0.3
	c0.9-0.6,1.7-0.6,2.2,0c2.6,2.7-5.6,21.6-7.3,25.4l-0.8-0.4c3.8-8.5,9.1-22.6,7.5-24.4c-0.2-0.2-0.6-0.2-1.1,0.1
	c-0.3,0.2-0.6,0.4-0.8,0.7c0,2.9-0.5,7.2-1.7,7.4c-0.3,0.1-0.7,0-1-0.8c-0.9-2.3,0.3-5.2,1.8-7c0-1.2-0.2-2.3-0.5-3.3
	c-0.3-1.1-0.8-1.8-1.5-1.8c-0.9-0.1-1.7,0.4-2.4,1.3c-0.2,0.3-0.4,0.6-0.5,0.9c1,0.5,1.7,1.6,1.9,3.1c0.5,2.9-0.6,6.9-2,7.3
	c-0.3,0.1-0.9,0.2-1.4-0.9c-1.1-2.3-0.9-6.2,0.2-9.1c-0.1,0-0.3,0-0.5,0c-1.3,0-2.4,0.9-3.1,2.5c0,0,0,0,0,0c0.4,2.5,0.5,5.2,0,6.8
	c-0.1,0.4-0.4,1.3-1.1,1.2c-1-0.2-0.9-3.1-0.9-4c0.1-1.4,0.4-2.9,0.9-4.1c-0.6-2.8-1.6-5.4-2.5-5.9c-0.1-0.1-0.4-0.2-0.9,0.5
	c-2,3,3.2,21.9,5.4,28.9L248.8,335.3z M248,313.5c-0.4,1.9-0.4,3.9-0.2,4.8c0,0,0-0.1,0.1-0.2C248.2,316.9,248.2,315.2,248,313.5z
	 M253.2,309.3c-1,2.6-1.1,6.4-0.2,8.4c0.1,0.3,0.2,0.4,0.3,0.4c0.5,0,1.6-2.7,1.4-5.5C254.6,311.3,254.3,309.9,253.2,309.3z
	 M258.3,313c-0.9,1.5-1.5,3.6-0.9,5.1c0,0,0,0,0,0.1C257.8,317.4,258.2,315.3,258.3,313z"/>
<path class="st19" d="M245,332.5c0,0-0.9,9,0.9,11.3c1.5,1.8,9.1,2.7,11.1,0.4c1.8-2,1.7-10.8,1.7-10.8L245,332.5z"/>
<path class="st6" d="M245.3,343.8l-0.2-0.8l9.5-2.1l-10.8-1.9l11-2.1l-10.5-2l0.2-0.8l14.9,2.9l-10.9,2.1l10.4,1.9L245.3,343.8z"/>
<path class="st7" d="M213.3,344.7h-86.8v38.8h86.8V344.7z"/>
<path class="st9" d="M193.3,377.6c7.1,0,12.8-5.7,12.8-12.8s-5.7-12.8-12.8-12.8c-7.1,0-12.8,5.7-12.8,12.8S186.2,377.6,193.3,377.6
	z"/>
<path class="st10" d="M182.7,372.1l2.1-3.5l6.3-4.4l2.1,0.6l-2.9,12.5C187.2,376.6,184.5,374.7,182.7,372.1z"/>
<path class="st20" d="M187.9,353.1l5.4,11.7l-9.7,8.4c-2-2.3-3.2-5.2-3.2-8.4C180.4,359.6,183.5,355.2,187.9,353.1z"/>
<path class="st10" d="M173.5,351.7h-39.3v0.6h39.3V351.7z"/>
<path class="st10" d="M173.5,355.4h-39.3v0.6h39.3V355.4z"/>
<path class="st10" d="M173.5,359.2h-39.3v0.6h39.3V359.2z"/>
<path class="st10" d="M166.1,371.9h-31.9v0.6h31.9V371.9z"/>
<path class="st10" d="M157.8,363h-23.6v0.6h23.6V363z"/>
<path class="st10" d="M157.8,376.4h-23.6v0.6h23.6V376.4z"/>
<path class="st9" d="M247.4,403.5c-8.4,0-15.2,6.8-15.2,15.2s6.8,15.2,15.2,15.2c8.4,0,15.2-6.8,15.2-15.2S255.7,403.5,247.4,403.5z
	 M247.4,426.2c-4.1,0-7.5-3.4-7.5-7.5c0-4.1,3.4-7.5,7.5-7.5c4.1,0,7.5,3.3,7.5,7.5C254.8,422.9,251.5,426.2,247.4,426.2z"/>
<path class="st20" d="M254.8,418.7c0,3.7-2.6,6.7-6.1,7.3l1.5,7.6c7-1.3,12.3-7.5,12.3-14.9l-7.8-1.2
	C254.8,417.9,254.8,418.3,254.8,418.7z"/>
<path class="st10" d="M256.7,406.8l-4.8,6.1c1.7,1.4,2.9,3.5,2.9,5.9c0,0.9-0.2,1.8-0.5,2.6l7.2,2.7c0.6-1.6,0.9-3.4,0.9-5.3
	C262.5,413.9,260.3,409.6,256.7,406.8z"/>
<path class="st9" d="M363,346.7l0.1-3.5l-8.2,0.2l0.3,3.4l-3.4,0.1l1.4,23.4l13-0.1l0.6-23.5L363,346.7z"/>
<path class="st6" d="M364.6,361.8l0.2-6.2l-10.5,0.5l0.4,5.5L364.6,361.8z"/>
<path class="st6" d="M364.8,354.7l0.2-6.3l-11.3,0l0.5,6.2L364.8,354.7z"/>
<path class="st6" d="M354.8,363l0.5,6l9.2-0.3l0.1-5.4L354.8,363z"/>
<path class="st9" d="M188,421.1h-66.1v20.5H188V421.1z"/>
<path class="st6" d="M149.9,425.1H129v0.7h20.9V425.1z"/>
<path class="st6" d="M136.8,429.1H129v0.7h7.8V429.1z"/>
<path class="st6" d="M161.9,433.1H129v0.7h32.9V433.1z"/>
<path class="st6" d="M138.9,437.1H129v0.7h9.9V437.1z"/>
<path class="st6" d="M148.1,437.1h-6.2v0.7h6.2V437.1z"/>
<path class="st6" d="M159.7,425.1h-6.6v0.7h6.6V425.1z"/>
<path class="st6" d="M168.3,429.1h-28.1v0.7h28.1V429.1z"/>
<path class="st9" d="M260.4,371.7l2.9,0.2l-0.6-7.3l-1.9,0.1c-0.4-1.6-1.3-2.9-2.3-4l1.9-2l-4.7-3.1l-1,2.4
	c-0.7-0.3-1.3-0.5-1.9-0.6c-0.9-0.2-2.4-0.4-4-0.3l-0.3-4.2l-7.8,2.5l2.6,3.4c-1,0.7-2,1.6-2.9,2.8l-3.4-1l-1.5,7.3l2.8,0.5
	c0,0.9,0.2,1.9,0.5,2.7l-2.3,0.8l2.7,4.9l2-1.6c0.8,0.9,1.6,1.6,2.5,2.2l-2,3l7.7,2.9l0.9-4c0.9-0.1,1.8-0.3,2.6-0.5l0.9,2.5
	l7.3-4.3l-2.3-2.1C259.5,373.9,260,372.9,260.4,371.7z M245.2,366.9c1.3-4.1,5.1-3.7,6.4-3.4c1.4,0.3,4.1,1.9,3.8,4.9
	c-0.3,3.6-2.5,4.8-5,5.1C247.8,373.8,244,370.5,245.2,366.9z"/>
<path class="st9" d="M234,374.4l1.5-1l-2.9-3.5l-0.9,0.7c-0.8-0.6-1.7-1-2.6-1.2l0.2-1.7l-3.4,0.1l0.3,1.6c-0.4,0.1-0.8,0.2-1.2,0.4
	c-0.5,0.2-1.3,0.6-2.1,1.3l-1.7-2l-3,4.1l2.5,0.8c-0.3,0.7-0.4,1.5-0.4,2.4l-2.1,0.7l1.8,4.2l1.6-0.8c0.3,0.5,0.8,0.9,1.2,1.2
	l-0.9,1.2l3.1,1.5l0.4-1.5c0.7,0.2,1.4,0.2,2.1,0.2l0.1,2.2l5-1.3l-1-2.3c0.4-0.4,0.8-0.8,1.1-1.2l1.3,0.9l2.1-4.8l-1.9-0.2
	C234.3,375.9,234.2,375.2,234,374.4z M224.6,377.5c-0.8-2.5,1.2-3.7,2-4c0.8-0.4,2.7-0.5,3.7,1.1c1.1,1.9,0.5,3.3-0.7,4.4
	C228.4,380,225.4,379.8,224.6,377.5z"/>
<path class="st9" d="M246.7,387.4l1-1l-2.8-2.2l-0.6,0.7c-0.7-0.4-1.4-0.5-2.2-0.5l-0.1-1.3l-2.6,0.7l0.5,1.1
	c-0.3,0.1-0.6,0.3-0.8,0.5c-0.4,0.2-0.9,0.7-1.4,1.3l-1.6-1.3l-1.7,3.6l2,0.2c-0.1,0.6-0.1,1.2,0.1,1.9l-1.5,0.9l2.1,2.9l1.1-0.9
	c0.3,0.3,0.7,0.5,1.1,0.7l-0.5,1.1l2.6,0.6l0.1-1.2c0.6,0,1.1,0,1.6-0.2l0.4,1.7l3.6-1.8l-1.1-1.6c0.2-0.3,0.5-0.7,0.7-1.1l1.2,0.5
	l0.9-4l-1.5,0.1C247.2,388.5,247,387.9,246.7,387.4z M240,391.2c-1-1.8,0.3-3,0.9-3.4c0.6-0.4,2-0.8,3,0.2c1.2,1.3,0.9,2.5,0.2,3.4
	C243.3,392.5,241,392.8,240,391.2z"/>
<path class="st21" d="M155.1,394.1l-2.4-4.6l-10.4,5.5l2.4,4.6L155.1,394.1z"/>
<path class="st11" d="M147.3,404.6l-7.7-14.6l-87.1,45.7l7.7,14.6L147.3,404.6z"/>
<path class="st11" d="M171.7,413.2L171.7,413.2c-11.3-6-19.7-16-23.5-28.2c-3.8-12.2-2.6-25.2,3.4-36.5
	c12.3-23.4,41.3-32.4,64.7-20.1c23.4,12.3,32.4,41.3,20.1,64.7C224.1,416.5,195.1,425.5,171.7,413.2z M211.8,337
	c-18.7-9.8-41.9-2.6-51.7,16.1c-4.8,9-5.7,19.4-2.7,29.2c3,9.8,9.7,17.8,18.7,22.5l-2.2,4.3l2.2-4.3c18.7,9.8,41.9,2.6,51.7-16.1
	C237.7,370,230.5,346.8,211.8,337z"/>
<path class="st22" d="M86.9,485.9c0,0,0.4-1.6,1.7-2.8H90c0,0,4-0.4,6.9,2.8H86.9z"/>
<path class="st15" d="M118.7,479l0.7,0.6l0.9,4.2h1.7l-0.8-5.2h-1.7L118.7,479z"/>
<path class="st14" d="M111.8,414.7l-0.6,1.1c0,0,8.6,32.9,11,65.6h-3.4c0,0-14.6-47.3-17.4-54.6c-2.8-7.3,5.2-7.2,5.2-7.2l-1.2-6.2
	L111.8,414.7z"/>
<path class="st23" d="M105.6,439.6l2.1-17.5l-4.7,9.5C103.8,433.8,104.7,436.5,105.6,439.6z"/>
<path class="st15" d="M88.9,480l-0.3,3.1H90l0.5-3.5L88.9,480z"/>
<path class="st14" d="M96.9,415.4l-2.2,2.5c0,0-5.9,25.4-6.6,63.6h2.6c0,0,13.7-51.1,19-61.7l-3.6-4.3H96.9z"/>
<path class="st14" d="M102.2,380.4c0,0-2.8-0.5-3.3-0.6c-0.5-0.1-3.4,0.1-3.4,0.1s-19.8,6.7-28.5,25.8c0,0,5.3,10.1,25.8,12.1
	l0.1-1.7c0,0-9.2-5.7-11.2-12.9c0,0,1.7-3.2,6.7-6.2c0.8-0.5,3.7-3.5,3.7-3.5l3.6-6.4l-1-4.3L102.2,380.4z"/>
<path class="st14" d="M86,393.9l2.4,3.2c0,0,6.6,12.1,5.5,20.9c0,0,11.2-0.9,18.6-1.8c0,0,0.1-19.5,2.4-29.2c0,0-4.8-3.4-9.8-4.9
	l-1.3,4.9l-6,3.3l-5.5-1.3l-4.2,3.1L86,393.9z"/>
<path class="st6" d="M96.5,379l-1.1,0.9c0,0,6.4,12.5,10.1,21.8c0,0-1.2-15.4-3.4-21.3l-3.9-1.7h-1L96.5,379z"/>
<path class="st24" d="M97.5,380.5l-2-0.6l5.8,5.4l1.1-5.2l-3.8,0.3L97.5,380.5z"/>
<path class="st24" d="M104.2,389.6l-3.4-6.2l0.4,8.4c1.5,3.3,3.1,6.8,4.3,10C105.6,401.7,105.1,395.6,104.2,389.6z"/>
<path class="st5" d="M102.1,379.9l5.4,2.7l-2.7,2.1l4,2.6l-3.2,14.5C105.6,401.7,103.3,384.9,102.1,379.9z"/>
<path class="st15" d="M92.9,416.1l3.4-1.6l3.1,2.1c0,0,1.3,3.5,0.9,3.8c-0.4,0.3-0.6-0.2-0.6-0.2s0.3,0.7,0.1,0.9
	c-0.2,0.2-0.8-0.6-0.8-0.6s0.3,0.9-0.1,0.9c-0.3,0-0.5-1-0.5-1s-0.3,1-0.6,0.5c-0.3-0.5-1.4-1-1.6-3c0,0-1.7,0.7-3.5-0.1L92.9,416.1
	z"/>
<path class="st15" d="M101.5,375.1l0.7,5.4c0,0,0.3,1.4-1.8,1.7c-2.2,0.3-4.9-2.2-4.9-2.2l0.5-7.8l4.1-0.3v0.7L101.5,375.1z"/>
<path class="st18" d="M95.7,375.4c1,1.4,3,3.2,6.3,3.8l-0.5-3.8c-1.1-0.6-2-1-2-1l-3.7-2L95.7,375.4z"/>
<path class="st15" d="M104.1,359.7c0,0,3.7,1.5,4.7,9.5l-2.3,0.5c0,0,0.3,5.4-2.4,6.5s-6.7,0.6-9.3-5.1c-2.6-5.7,1.9-9.6,2.2-9.7
	c0.3-0.1,5.5-1.7,5.5-1.7L104.1,359.7L104.1,359.7z"/>
<path class="st19" d="M106.5,362.2c0,0,3-1.5,3-4.5c0-3-1.2-3.7-2.5-3.2c-1.3,0.6-2,1.8-5.7,1.6c-3.7-0.2-9.9-1.4-12.4,4.1
	c-2.5,5.5,1.2,9.4,2.6,10.3c1.4,0.9,1.6,5.2,4,5.3c2.4,0.1,3.1-3.1,2.4-5.8l0.9-2l-0.2-0.7c0,0,3-0.5,4.2-2.5
	c1.2-2.1,1.1-3.3,2.4-4.2C105.2,360.5,106.3,361.7,106.5,362.2z"/>
<path class="st15" d="M98.6,367.3c0,0,0-0.1-0.1-0.2c-0.2-0.4-0.7-1.3-1.9-0.8c-1.6,0.7-0.6,5.6,2.4,4.6c3-1,0.4-2.7,0.4-2.7
	L98.6,367.3z"/>
<path class="st5" d="M95.5,379.6l-6.3,2.8l4.7,3.6l-2.9,5l14.6,10.7C103.2,395.7,99.5,387.9,95.5,379.6z"/>
<path class="st22" d="M118.4,485.9c0,0,0.4-1.6,1.7-2.8h1.4c0,0,4-0.4,6.9,2.8H118.4z"/>
<path class="st14" d="M111.8,392.6l3.1-5.6c6,4.2,11.7,9.9,11.7,9.9l-9.3,4.9l-6-2.9l-0.2-4L111.8,392.6z"/>
<path class="st15" d="M133.2,407.3c-0.1,0.5,1.3,2.5,1.3,2.5s-3-2.1-3.4-1.6c-0.3,0.5,2.4,2.7,2.4,2.7s-3.6-2.2-3.9-1.6
	c-0.4,0.6,2.9,2.4,2.9,2.4s-3-0.8-3.3-0.4c-0.3,0.4,1.8,1.3,3.9,1.7c2.1,0.4,3.6-2.4,3.3-3.2C136.2,408.9,133.5,406,133.2,407.3z"/>
<path class="st25" d="M219,422.3h-21.6v0.8H219V422.3z"/>
<path class="st25" d="M227.7,425.8h-30.4v0.8h30.4V425.8z"/>
<path class="st25" d="M224.9,429.3h-27.5v0.8h27.5V429.3z"/>
<path class="st25" d="M205.3,432.8h-8v0.8h8V432.8z"/>
<path class="st9" d="M168.8,513.2l-0.7,1.4l3.3,1.4c0,0,2.6-2.7,3.3-3.3l-2.3-1.8l-2.8,2L168.8,513.2z"/>
<path class="st26" d="M168.8,513.2l-0.7,1.4l3.3,1.4c0,0,2.6-2.7,3.3-3.3l-2.3-1.8l-2.8,2L168.8,513.2z"/>
<path class="st27" d="M165.7,515.3c0,0,1.2-1.1,2.8-1.5c0,0,2,1.8,3,2.2c0,0-0.4,1.9,0.1,4.4c0.5,2.5,1.6,7.4,1.3,7.6
	c-0.2,0.2-0.8,0.6-1.5,0.5C171.4,528.5,166.4,523.2,165.7,515.3z"/>
<path class="st5" d="M172.1,528.4c-2.1-2-5.3-10.7-6-13.5c-0.3,0.2-0.5,0.4-0.5,0.4c0.7,7.9,5.7,13.2,5.7,13.2
	C171.6,528.5,171.9,528.5,172.1,528.4z"/>
<path class="st10" d="M155.4,479.4c0,0-13.6,9.8-12.3,16.6c1.3,6.8,10.5,14.4,25.7,17.1l2.1-3.4c0,0-14.5-10-12.5-14.6
	c2-4.6,8.5-7.7,10.5-7.9c1.9-0.1,9.5,3.9,9.8,5.8c0.3,1.9-6.8,16.5-6.8,16.5l0.2,3.6l3.9-0.7c0,0,17.1-17.9,16.4-22.5
	c-0.7-4.7-12.9-11.2-12.9-11.2l-13.5-0.5L155.4,479.4z"/>
<path class="st26" d="M169.9,512.3l0.7-1.6c0,0,5.7,1.5,5.5,1.8c-0.2,0.3-2.5,2.5-2.5,2.5L169.9,512.3z"/>
<path class="st27" d="M178.2,511.9c0,0-1.6-0.5-3.2-0.1c0,0-1.1,2.5-1.7,3.2c0,0,1.2,1.5,1.9,4c0.7,2.5,1.8,7.3,2.1,7.4
	c0.3,0.1,1,0.1,1.6-0.2C178.9,526.2,181,519.4,178.2,511.9z"/>
<path class="st5" d="M177.3,511.7c1.7,5.2,1.4,12.4,0.8,14.8c0.2,0,0.5-0.1,0.8-0.3c0,0,2.2-6.9-0.6-14.3
	C178.2,511.9,177.9,511.8,177.3,511.7z"/>
<path class="st6" d="M169.5,512.6c-0.9-0.4-21.4-9.1-22.9-15.6c-1.5-6.5,9.8-16.3,10.3-16.7l0.2,0.2c-0.1,0.1-11.7,10.1-10.2,16.5
	c1.5,6.4,22.5,15.3,22.7,15.4L169.5,512.6z"/>
<path class="st6" d="M173.9,511.8l-0.1-0.2c2.2-1.2,16.1-19.3,16.1-21.7c0-2.4-9.8-9.2-10.5-9.7l0.1-0.2c0.1,0.1,10.7,7.2,10.7,9.9
	S176.3,510.4,173.9,511.8z"/>
<path class="st16" d="M167.8,513.7c0,0,4,1.4,4.2,1.4c0.2-0.1,2.7-2.8,2.8-4.1l-4.1-2.2C170.6,508.7,168.1,513.3,167.8,513.7z"/>
<path class="st17" d="M178.2,449.1c0.4,0.1,3.3,1.5,4.6,2.5l0.2,17l-3.1,4.5l2.6,3.6c0,0,0.2,2.6-0.3,3.4c-0.5,0.9-24.6,1.4-27.7,0
	c0,0-0.5-0.9,1.7-6.9l-0.3-2.1l1.3-7.5l-4.2-2.9l0.9-9.6c0,0,2.6-2,7.2-3s11.9,0.9,11.9,0.9L178.2,449.1L178.2,449.1z"/>
<path class="st28" d="M162.4,475.5c0,0-1.2-1.9-0.4-4.4c0,0-5.7,0.4-5.4-1.5c0.3-1.9,1.3-2.5,1.2-5.1c-0.1-2.6-1.9-12-3.9-13.3
	c0,0-10.8,9.1-10.7,18.5C143.3,479.1,153,479.2,162.4,475.5z"/>
<path class="st9" d="M175.5,472.5c-0.5,0-1.9-0.4-1.9-0.4s-0.1-1.7-1.9-3.3c-1.8-1.6-4.3-0.8-4.3-0.8l0.8,3.4l2.4,3.2l4.4,0.6
	l1.6-0.6L175.5,472.5z"/>
<path class="st29" d="M175.5,472.5c-0.5,0-1.9-0.4-1.9-0.4s-0.1-1.7-1.9-3.3c-1.8-1.6-4.3-0.8-4.3-0.8l0.8,3.4l2.4,3.2l4.4,0.6
	l1.6-0.6L175.5,472.5z"/>
<path class="st30" d="M163.6,476.8c0.5,1,7.1,0.8,7.3,0.2c0.2-0.6,2-9.5,1.3-10.1c-0.7-0.6-8.1-0.8-8.6-0.4
	C163.1,467,163.3,476.1,163.6,476.8z"/>
<path class="st26" d="M161.2,471.7l0.9-0.6c0,0,0-2.2,1.3-2.8v2.6c0,0,4-1.7,6.3-1.8c2.2-0.1,2.1,1.7-0.2,2c0,0,2.5-0.7,2.7,0.6
	c0.2,1.3-3.2,1-3.2,1s2.6,0.4,2.5,1.2c-0.1,0.9-2.8,0.4-2.8,0.4s2.3,1.3,1.9,1.8c-0.4,0.5-2.2-0.1-3.4-0.5c-1.1-0.3-4.5-0.2-5.3-0.4
	C160.9,474.9,161.2,471.7,161.2,471.7z"/>
<path class="st28" d="M182.7,451.6c0,0,6.7,4.7,8.5,14.5s-6.3,14.1-17.3,9.4c0,0,0.5-2.5,0.4-3.6c0,0,5.7-1.6,6.5-2.8
	C181.6,467.8,177.4,457.2,182.7,451.6z"/>
<path class="st6" d="M163.1,462.3c-2-4.5,0.2-10.4,0.3-10.6l0.5,0.2c0,0.1-2.2,6-0.3,10.2L163.1,462.3z"/>
<path class="st6" d="M176.2,461.9l-0.5-0.1c1.2-4.2-1.2-10-1.2-10.1l0.5-0.2C175.1,451.8,177.5,457.6,176.2,461.9z"/>
<path class="st31" d="M174.8,462.6c0.1-0.6,0.8-0.9,1.2-0.8s0.7,0.5,0.6,0.9c-0.1,0.4-0.3,0.7-1,0.7
	C174.9,463.5,174.7,462.9,174.8,462.6z"/>
<path class="st31" d="M162.7,462.8c0.1-0.6,0.8-0.9,1.2-0.8c0.4,0.1,0.7,0.5,0.6,0.9c-0.1,0.4-0.3,0.7-1,0.7
	C162.8,463.7,162.6,463.1,162.7,462.8z"/>
<path class="st14" d="M171.4,443.9c1.4-0.4,8.3,1.5,8.9,5.2c0.6,3.7-8.8,5.2-10.3,5.2c0,0-13.7,1.1-13.9-4.1
	c-0.2-5.1,8.6-6.9,8.6-6.9l4.5,1.2L171.4,443.9z"/>
<path class="st5" d="M175.3,444.3c0,0,2.1,7.1-4.6,9.7c0,0-13.4-3.5-7.5-8.9C169.1,439.6,175.3,444.3,175.3,444.3z"/>
<path class="st26" d="M164.5,438.4c-0.8,1-1.6,5.5-0.1,9c1.5,3.5,7,5.2,9.6,0.4c2.6-4.9,0.3-9.4,0.3-9.4H164.5z"/>
<path class="st26" d="M174.6,443.9c0.1-0.2,0.6-1.3,1.4-0.9c0.8,0.4-0.4,3.6-1.5,3.3l-0.5-1.5L174.6,443.9z"/>
<path class="st26" d="M164.2,443.9c-0.1-0.2-0.6-1.3-1.4-0.9c-0.8,0.4,0.5,3.6,1.5,3.3l0.4-1.5L164.2,443.9z"/>
<path class="st19" d="M164,439.4c0,0,4.4,4.1,10.9,2.1c4.5-1.4-1.1-10.5-9.3-6.6c0,0-0.8-0.4-2.2,1c-1.7,1.7-2,5.2,0.1,7.4
	C163.5,442,163.7,440.6,164,439.4z"/>
</svg>
