<?xml version="1.0" encoding="utf-8"?>
<!-- Generator: Adobe Illustrator 19.1.0, SVG Export Plug-In . SVG Version: 6.00 Build 0)  -->
<svg version="1.1" id="Layer_1" xmlns="http://www.w3.org/2000/svg" xmlns:xlink="http://www.w3.org/1999/xlink" x="0px" y="0px"
	 viewBox="-10 116 591 562" style="enable-background:new -10 116 591 562;" xml:space="preserve">
<style type="text/css">
	.st0{fill:#F1F2F2;}
	.st1{fill:#F7D5A0;}
	.st2{fill:#115C71;}
	.st3{fill:#001618;}
	.st4{fill:#3C6D8A;}
	.st5{fill:#495BFF;}
	.st6{fill:#3333CC;}
	.st7{fill:#FF903B;}
	.st8{fill:#061F26;}
	.st9{fill:#D1D3D4;}
	.st10{fill:#979FEF;}
	.st11{fill:#FFAB3B;}
	.st12{fill:#FFFFFF;}
	.st13{fill:#7984EB;}
	.st14{fill:#F8FAFC;}
	.st15{fill:#96BDD4;}
	.st16{fill:#28495C;}
	.st17{fill:#1E3745;}
	.st18{fill:#0C3D4B;}
	.st19{fill:#FFDDB1;}
	.st20{fill:#78CEFF;}
	.st21{fill:#DEDEDE;}
	.st22{fill:#4545FF;}
	.st23{fill:#5C5CFF;}
	.st24{fill:#177A96;}
	.st25{fill:#FFEED8;}
	.st26{fill:#FF643B;}
	.st27{fill:#F0CA4D;}
	.st28{fill:#4F8DB3;}
	.st29{fill:#5091B8;}
	.st30{fill:#324D5C;}
	.st31{fill:#BABABA;}
	.st32{fill:#77C4D3;}
	.st33{fill:#333745;}
	.st34{fill:#48494F;}
	.st35{fill:#1A1C23;}
	.st36{fill:#FF773B;}
</style>
<path class="st0" d="M284.7,678c162.6,0,294.4-22.2,294.4-49.7c0-27.4-131.8-49.7-294.4-49.7c-162.6,0-294.4,22.2-294.4,49.7
	C-9.7,655.8,122.1,678,284.7,678z"/>
<path class="st1" d="M556.2,612.1l1.4,3.3l-2.1,1.8h-1.3l-2-3.4L556.2,612.1z"/>
<path class="st1" d="M556.2,612.1l1.4,3.3l-2.1,1.8h-1.3l-2-3.4L556.2,612.1z"/>
<path class="st2" d="M557.6,615.4c0,0,2.1,0.9,2.9,5.1c0,0-3.3,3-8.8,5.1c-5.6,2.1-10.4,1.2-10.4,0.3c0-1,0.3-2.5,5.8-4.3
	c5.4-1.7,6.6-3.5,7.2-4.6C554.3,617.2,556,617.1,557.6,615.4z"/>
<path class="st3" d="M557.6,615.4c0,0,2.1,0.9,2.9,5.1c0,0-3.3,3-8.8,5.1c-5.6,2.1-10.4,1.2-10.4,0.3c0-1,0.3-2.5,5.8-4.3
	c5.4-1.7,6.6-3.5,7.2-4.6C554.3,617.2,556,617.1,557.6,615.4z"/>
<path class="st1" d="M510.3,617.6l-1.8,4.2l-3.6-1.7l2.1-5.4L510.3,617.6z"/>
<path class="st4" d="M544.6,543.1c0,4.7,0.9,51.9,13.6,69.1c0,0-2.6,2.8-6.8,4c0,0-23.1-41.6-23.1-57.7
	C528.3,542.5,544.6,543.1,544.6,543.1z"/>
<path class="st5" d="M544.6,543.1c0,4.7,0.9,51.9,13.6,69.1c0,0-2.6,2.8-6.8,4c0,0-23.1-41.6-23.1-57.7
	C528.3,542.5,544.6,543.1,544.6,543.1z"/>
<path class="st3" d="M505.2,619.2c0,0,2.2,1.3,3.8,1.2c0,0,0.5,3.1-1.5,5.4c0,0-7.9,2.1-18.4-2.7c0,0-0.6-3.3,2.5-3.8
	C494.7,618.7,499.4,622.4,505.2,619.2z"/>
<path class="st6" d="M545.6,532c0.9,1.6,2.6,12.9-3.6,23.8c-6.2,10.9-22.4,23.8-22.8,26c-0.5,2.2-6.7,31.8-7.9,35.9
	c0,0-5.1,0.4-7.5-2.3c0,0,3.7-26.3,4.5-38.2c0,0,15.6-34.6,18.8-41.3C530.2,529.2,545.6,532,545.6,532z"/>
<path class="st1" d="M490.4,525.2c0,0-2.3,1.6-9.4,1.8c-7.1,0.3-1.2,12,13.7,2C509.5,519,490.4,525.2,490.4,525.2z"/>
<path class="st1" d="M487.4,524.1c-1.1,0.3-7.1-0.3-11-2.5c-4-2.1-9.9,4.1,2.8,6.8C491.8,531.2,487.4,524.1,487.4,524.1z"/>
<path class="st7" d="M526.7,484.4c0,0,1,5.1,3.7,7.2c2.8,2.1,16.8,3.3,16.1,43.1c0,0-18.7,12.3-24.4,11c0,0-3.3-12.7-4-22.1
	c0,0-14.7,5.8-24.1,6.7l-3.5-5c0,0-0.5,1-3.2,1.9c0,0-1.4-2.7-2.1-3.2c0,0,29.6-15.6,39.4-28.2c0,0-1.7-4.2-3.4-6.4
	c-1.6-2.3,4.9-4.8,4.9-4.8L526.7,484.4z"/>
<path class="st1" d="M530.3,491.4c-2.7-2.2-3.6-7-3.6-7l-0.7,0.1c0,0-6.6,2.5-4.9,4.8c1.6,2.3,3.4,6.4,3.4,6.4
	C526.3,496.6,528.8,495.1,530.3,491.4z"/>
<path class="st1" d="M522.6,491.8c1.7-1,3.6-3,4.6-5.6c-0.3-1.1-0.5-1.9-0.5-1.9l-0.7,0.1c0,0-0.9,0.3-2,0.9l-0.5,1.1l-2.1,3.3
	C521.9,490.4,522.3,491.1,522.6,491.8z"/>
<path class="st1" d="M511.7,469.6c0,1.4-2.1,8-1,15.9l2.3-0.8c0,0,7.9,17.5,14.5-2.6c6.6-20.1-11.4-13.7-11.4-13.7L511.7,469.6z"/>
<path class="st8" d="M516.1,465.6c-1.4,0.4-7.6-4.3-9.6-0.5c-2.1,3.8-1.2,12.8,9.1,9.3c10.3-3.4,11,10.6,11.4,9.7
	c0,0,4.3-0.1,3.6-9.5C529.9,465,524.8,463,516.1,465.6z"/>
<path class="st1" d="M522.6,477.9c1.3-1.4,2.3-3.1,4.1-1.2c1.9,1.9-0.9,5.6-2.3,4.8C523,480.6,522.6,477.9,522.6,477.9z"/>
<path class="st0" d="M364.4,166.2c0,0-11,0.8-10.2,9.4c0.8,8.6,14.7,6.7,23.9,6.7c9.2,0,62.5,3.5,73.7-2.6
	c9.5-5.1,8.4-19.6-15.9-20.8c-1.4-0.1,13.7-23.7-25.2-29.6c-27.2-4.2-30.7,15.8-30.7,15.8s-14.5-1.8-19.5,9.1
	C356.8,162.4,364.4,166.2,364.4,166.2z"/>
<path class="st0" d="M256.2,217.3c0,0,25.2,2.3,23.5,25.5c-1.7,23.3-33.7,18.2-54.9,18.2s-143.6,9.5-169.4-7
	c-21.7-14-19.5-53.1,36.6-56.3c3.4-0.2-31.4-64.1,58-80.3c62.6-11.3,70.4,42.8,70.4,42.8s33.3-4.7,44.7,24.6
	C273.7,206.9,256.2,217.3,256.2,217.3z"/>
<path class="st9" d="M81.4,281.2c0,0-9,0.8-8.4,9.1c0.6,8.3,12,6.5,19.6,6.5c7.5,0,51.1,3.4,60.3-2.5c7.8-5,6.9-18.9-13-20
	c-1.2-0.1,11.2-22.8-20.6-28.5c-22.3-4-25,15.2-25,15.2s-11.9-1.7-15.9,8.7C75.2,277.5,81.4,281.2,81.4,281.2z"/>
<path class="st0" d="M556.5,320.5c0,0,25.2,2.3,23.5,25.5c-1.7,23.3-33.8,18.2-54.9,18.2c-21.2,0-143.6,9.5-169.4-7
	c-21.7-14-19.5-53.1,36.6-56.3c3.4-0.2-6.7-63.2,57.9-76.9c57.1-12.1,70.6,39.5,70.6,39.5s31.6-9.3,42.6,14.8
	C575,303.7,556.5,320.5,556.5,320.5z"/>
<path class="st9" d="M545.2,374.1c0,0,9.9,0.9,9.2,9.9c-0.7,9.1-13.2,7.1-21.5,7.1c-8.3,0-56.2,3.8-66.3-2.7
	c-8.5-5.5-7.6-20.8,14.3-22c1.3-0.1-12.3-25,22.7-31.4c24.5-4.5,27.6,16.7,27.6,16.7s13-1.9,17.5,9.6
	C552.1,370.1,545.2,374.1,545.2,374.1z"/>
<path class="st10" d="M109.9,378c-0.1-0.1-0.2-0.1-0.3-0.2c-0.8-0.4-1.7-0.5-2.5-0.2c0,0-0.1,0-0.3,0.1c-0.1,0.1-0.3,0.1-0.6,0.3
	c-0.5,0.2-1.2,0.5-1.9,0.8c-0.3,0.1-0.7,0.3-1,0.4c-0.3,0.1-0.6,0.3-0.9,0.4c-0.5,0.2-0.8,0.4-0.8,0.4s-0.1-0.1-0.1-0.2
	c-0.1-0.1-0.1-0.1-0.2-0.2c-0.1-0.1-0.1-0.2-0.3-0.3c-0.1-0.1-0.2-0.2-0.3-0.3c-0.1-0.1-0.2-0.3-0.3-0.4c-0.1-0.1-0.1-0.1-0.2-0.2
	l-0.1-0.1l-0.1-0.1c-0.1-0.1-0.3-0.3-0.4-0.4c-0.1-0.1-0.1-0.1-0.2-0.2c-0.1-0.1-0.1-0.1-0.2-0.2c-0.1-0.1-0.3-0.3-0.4-0.4
	c-0.3-0.3-0.5-0.5-0.7-0.7c-0.4-0.4-0.7-0.6-0.7-0.6s-0.3-0.2-0.7-0.6c-0.2-0.2-0.5-0.3-0.8-0.6c-0.1-0.1-0.3-0.2-0.4-0.3
	c-0.1-0.1-0.1-0.1-0.2-0.1c-0.1,0-0.1-0.1-0.1-0.1l-0.1-0.1c-0.1-0.1-0.3-0.2-0.5-0.3c-0.1-0.1-0.1-0.1-0.2-0.1
	c-0.1-0.1-0.1-0.1-0.2-0.1c-0.3-0.2-0.5-0.4-0.8-0.5c-0.2-0.1-0.4-0.3-0.5-0.3c-0.1-0.1-0.2-0.1-0.2-0.1s0.1-0.3,0.3-0.9
	c0.1-0.3,0.1-0.6,0.3-1c0.1-0.1,0.1-0.3,0.1-0.5c0.1-0.2,0.1-0.3,0.1-0.5c0.2-0.8,0.3-1.4,0.5-2c0.1-0.5,0.2-0.9,0.2-0.9
	c0.1-0.4,0.1-0.8,0-1.2c-0.1-0.2-0.1-0.4-0.2-0.6c-0.1-0.2-0.2-0.4-0.3-0.6c-0.5-0.8-1.4-1.5-2.5-2c0,0-0.1-0.1-0.3-0.1
	c-0.2-0.1-0.5-0.2-0.8-0.3c-0.3-0.1-0.7-0.3-1.1-0.4c-0.2-0.1-0.4-0.1-0.6-0.2c-0.2-0.1-0.4-0.1-0.6-0.2c-0.4-0.1-0.9-0.3-1.3-0.4
	c-0.2-0.1-0.4-0.1-0.6-0.1c-0.2-0.1-0.3-0.1-0.5-0.1c-0.3-0.1-0.6-0.1-0.8-0.2c-0.2-0.1-0.3-0.1-0.3-0.1c-0.5-0.1-1.2-0.2-1.6-0.2
	c-0.1,0-0.3,0-0.4,0c-0.1,0-0.1,0-0.2,0c-0.1,0-0.1,0-0.2,0c-0.3,0.1-0.5,0.1-0.7,0.2c-0.9,0.3-1.6,0.9-1.9,1.6c0,0-0.1,0.3-0.4,0.9
	c-0.2,0.5-0.5,1.2-0.8,1.9c-0.3,0.7-0.5,1.4-0.8,1.9c-0.1,0.3-0.2,0.5-0.2,0.6c-0.1,0.1-0.1,0.3-0.1,0.3s-0.1,0-0.3,0
	c-0.1,0-0.2,0-0.3,0c-0.1,0-0.3,0-0.4,0c-0.5,0-1.3-0.1-2.1-0.1c-0.4,0-0.8,0-1.1,0c-0.2,0-0.3,0-0.5,0c-0.1,0-0.3,0-0.5,0
	c-0.3,0-0.5,0-0.7,0.1c-0.1,0-0.3,0-0.3,0s-0.3,0-0.9,0.1c-0.1,0-0.3,0-0.4,0.1c-0.1,0-0.1,0-0.3,0c-0.1,0-0.1,0-0.3,0
	c-0.2,0-0.3,0.1-0.5,0.1c-0.1,0-0.2,0-0.3,0.1c-0.1,0-0.2,0-0.3,0.1c-0.2,0-0.3,0.1-0.5,0.1c-0.2,0-0.3,0.1-0.5,0.1
	c-0.3,0.1-0.7,0.1-1,0.2c-0.3,0.1-0.5,0.1-0.7,0.1c-0.1,0.1-0.3,0.1-0.3,0.1s-0.2-0.3-0.4-0.8c-0.3-0.5-0.6-1.2-1-1.8
	c-0.4-0.7-0.8-1.3-1.1-1.8c-0.3-0.5-0.5-0.8-0.5-0.8c-0.2-0.3-0.5-0.6-0.9-0.8c-0.3-0.2-0.8-0.3-1.2-0.5c-0.2-0.1-0.5-0.1-0.8-0.1
	c-0.1,0-0.3,0-0.4,0s-0.3,0-0.4,0c-0.3,0-0.5,0.1-0.8,0.1c-0.3,0.1-0.5,0.1-0.8,0.3c0,0,0,0-0.1,0s-0.1,0.1-0.2,0.1
	c-0.2,0.1-0.5,0.2-0.8,0.3c-0.3,0.1-0.7,0.3-1.1,0.5c-0.2,0.1-0.4,0.2-0.6,0.3c-0.2,0.1-0.4,0.2-0.6,0.3c-0.4,0.2-0.8,0.4-1.2,0.6
	c-0.2,0.1-0.3,0.2-0.5,0.3c-0.1,0.1-0.3,0.2-0.5,0.3c-0.3,0.1-0.5,0.3-0.7,0.4c-0.1,0.1-0.3,0.1-0.3,0.1c-0.3,0.1-0.5,0.3-0.7,0.5
	c-0.2,0.2-0.4,0.3-0.6,0.5c-0.2,0.2-0.3,0.4-0.5,0.6c-0.1,0.1-0.1,0.2-0.2,0.3s-0.1,0.2-0.2,0.3c-0.4,0.8-0.5,1.7-0.2,2.5
	c0,0,0,0.1,0.1,0.3c0.1,0.1,0.1,0.3,0.3,0.6c0.2,0.5,0.5,1.2,0.8,1.9c0.1,0.3,0.3,0.7,0.4,1c0.1,0.3,0.3,0.6,0.4,0.9
	c0.2,0.5,0.4,0.8,0.4,0.8s-0.1,0.1-0.2,0.1c-0.1,0.1-0.1,0.1-0.2,0.2c-0.1,0.1-0.2,0.1-0.3,0.3c-0.1,0.1-0.2,0.2-0.3,0.3
	c-0.1,0.1-0.3,0.2-0.4,0.3c-0.1,0.1-0.1,0.1-0.2,0.2l-0.1,0.1l-0.1,0.1c-0.1,0.1-0.3,0.3-0.4,0.4c-0.1,0.1-0.1,0.1-0.2,0.2
	c-0.1,0.1-0.1,0.1-0.2,0.2c-0.1,0.1-0.3,0.3-0.4,0.4c-0.3,0.3-0.5,0.5-0.7,0.7c-0.4,0.4-0.6,0.7-0.6,0.7s-0.2,0.3-0.6,0.7
	c-0.2,0.2-0.3,0.5-0.6,0.8c-0.1,0.1-0.2,0.3-0.3,0.4c-0.1,0.1-0.1,0.1-0.1,0.2c0,0.1-0.1,0.1-0.1,0.1l-0.1,0.1
	c-0.1,0.1-0.2,0.3-0.3,0.5c-0.1,0.1-0.1,0.1-0.1,0.2c-0.1,0.1-0.1,0.1-0.1,0.2c-0.2,0.3-0.4,0.5-0.5,0.8c-0.1,0.2-0.3,0.4-0.3,0.5
	c-0.1,0.1-0.1,0.2-0.1,0.2s-0.3-0.1-0.9-0.3c-0.3-0.1-0.6-0.1-1-0.3c-0.1-0.1-0.3-0.1-0.5-0.1c-0.2-0.1-0.3-0.1-0.5-0.1
	c-0.8-0.2-1.4-0.3-2-0.5c-0.5-0.1-0.9-0.2-0.9-0.2c-0.4-0.1-0.8-0.1-1.2,0c-0.2,0.1-0.4,0.1-0.6,0.2c-0.2,0.1-0.4,0.2-0.6,0.3
	c-0.8,0.5-1.5,1.4-2,2.5c0,0-0.1,0.1-0.1,0.3c-0.1,0.2-0.2,0.5-0.3,0.8c-0.1,0.3-0.3,0.7-0.4,1.1c-0.1,0.2-0.1,0.4-0.2,0.6
	c-0.1,0.2-0.1,0.4-0.2,0.6c-0.1,0.4-0.3,0.9-0.4,1.3c-0.1,0.2-0.1,0.4-0.1,0.6c-0.1,0.2-0.1,0.3-0.1,0.5c-0.1,0.3-0.1,0.6-0.2,0.8
	c-0.1,0.2-0.1,0.3-0.1,0.3c-0.1,0.5-0.2,1.2-0.2,1.6c0,0.1,0,0.3,0,0.4c0,0.1,0,0.1,0,0.2c0,0.1,0,0.1,0,0.2
	c0.1,0.3,0.1,0.5,0.2,0.7c0.3,0.9,0.9,1.6,1.6,1.9c0,0,0.3,0.1,0.9,0.4c0.5,0.2,1.2,0.5,1.9,0.8c0.7,0.3,1.4,0.5,1.9,0.8
	c0.3,0.1,0.5,0.2,0.6,0.2c0.1,0.1,0.3,0.1,0.3,0.1s0,0.1,0,0.3c0,0.1,0,0.2,0,0.3c0,0.1,0,0.3,0,0.4c0,0.5-0.1,1.3-0.1,2.1
	c0,0.4,0,0.8,0,1.1c0,0.2,0,0.3,0,0.5c0,0.1,0,0.3,0,0.5c0,0.3,0,0.5,0.1,0.7c0,0.1,0,0.3,0,0.3s0,0.3,0.1,0.9c0,0.1,0,0.3,0.1,0.4
	c0,0.1,0,0.1,0,0.3c0,0.1,0,0.1,0,0.3c0,0.2,0.1,0.3,0.1,0.5c0,0.1,0,0.2,0.1,0.3c0,0.1,0,0.2,0.1,0.3c0,0.2,0.1,0.3,0.1,0.5
	s0.1,0.3,0.1,0.5c0.1,0.3,0.1,0.7,0.2,1c0.1,0.3,0.1,0.5,0.1,0.7c0.1,0.1,0.1,0.3,0.1,0.3s-0.3,0.2-0.8,0.4c-0.5,0.3-1.2,0.6-1.8,1
	c-0.7,0.4-1.3,0.8-1.8,1.1c-0.5,0.3-0.8,0.5-0.8,0.5c-0.3,0.2-0.6,0.5-0.8,0.9c-0.2,0.3-0.3,0.8-0.5,1.2c-0.1,0.2-0.1,0.5-0.1,0.8
	c0,0.1,0,0.3,0,0.4c0,0.1,0,0.3,0,0.4c0,0.3,0.1,0.5,0.1,0.8c0.1,0.3,0.1,0.5,0.3,0.8c0,0,0,0,0,0.1c0,0.1,0.1,0.1,0.1,0.2
	c0.1,0.2,0.2,0.5,0.3,0.8c0.1,0.3,0.3,0.7,0.5,1.1c0.1,0.2,0.2,0.4,0.3,0.6c0.1,0.2,0.2,0.4,0.3,0.6c0.2,0.4,0.4,0.8,0.6,1.2
	c0.1,0.2,0.2,0.3,0.3,0.5c0.1,0.1,0.2,0.3,0.3,0.5c0.1,0.3,0.3,0.5,0.4,0.7c0.1,0.1,0.1,0.3,0.1,0.3c0.1,0.3,0.3,0.5,0.5,0.7
	c0.2,0.2,0.3,0.4,0.5,0.6c0.2,0.2,0.4,0.3,0.6,0.5c0.1,0.1,0.2,0.1,0.3,0.2c0.1,0.1,0.2,0.1,0.3,0.2c0.8,0.4,1.7,0.5,2.5,0.2
	c0,0,0.1,0,0.3-0.1c0.1-0.1,0.3-0.1,0.6-0.3c0.5-0.2,1.2-0.5,1.9-0.8c0.3-0.1,0.7-0.3,1-0.4c0.3-0.1,0.6-0.3,0.9-0.4
	c0.5-0.2,0.8-0.4,0.8-0.4s0.1,0.1,0.1,0.2c0.1,0.1,0.1,0.1,0.2,0.2c0.1,0.1,0.1,0.2,0.3,0.3c0.1,0.1,0.2,0.2,0.3,0.3
	c0.1,0.1,0.2,0.3,0.3,0.4c0.1,0.1,0.1,0.1,0.2,0.2l0.1,0.1l0.1,0.1c0.1,0.1,0.3,0.3,0.4,0.4c0.1,0.1,0.1,0.1,0.2,0.2
	c0.1,0.1,0.1,0.1,0.2,0.2c0.1,0.1,0.3,0.3,0.4,0.4c0.3,0.3,0.5,0.5,0.7,0.7c0.4,0.4,0.7,0.6,0.7,0.6s0.3,0.2,0.7,0.6
	c0.2,0.2,0.5,0.3,0.8,0.6c0.1,0.1,0.3,0.2,0.4,0.3c0.1,0.1,0.1,0.1,0.2,0.1s0.1,0.1,0.1,0.1l0.1,0.1c0.1,0.1,0.3,0.2,0.5,0.3
	c0.1,0.1,0.1,0.1,0.2,0.1c0.1,0.1,0.1,0.1,0.2,0.1c0.3,0.2,0.5,0.4,0.8,0.5c0.2,0.1,0.4,0.3,0.5,0.3c0.1,0.1,0.2,0.1,0.2,0.1
	s-0.1,0.3-0.3,0.9c-0.1,0.3-0.1,0.6-0.3,1c-0.1,0.1-0.1,0.3-0.1,0.5c-0.1,0.2-0.1,0.3-0.1,0.5c-0.2,0.8-0.3,1.4-0.5,2
	c-0.1,0.5-0.2,0.9-0.2,0.9c-0.1,0.4-0.1,0.8,0,1.2c0.1,0.2,0.1,0.4,0.2,0.6s0.2,0.4,0.3,0.6c0.5,0.8,1.4,1.5,2.5,2
	c0,0,0.1,0.1,0.3,0.1c0.2,0.1,0.5,0.2,0.8,0.3c0.3,0.1,0.7,0.3,1.1,0.4c0.2,0.1,0.4,0.1,0.6,0.2s0.4,0.1,0.6,0.2
	c0.4,0.1,0.9,0.3,1.3,0.4c0.2,0.1,0.4,0.1,0.6,0.1c0.2,0.1,0.3,0.1,0.5,0.1c0.3,0.1,0.6,0.1,0.8,0.2c0.2,0.1,0.3,0.1,0.3,0.1
	c0.5,0.1,1.2,0.2,1.6,0.2c0.1,0,0.3,0,0.4,0c0.1,0,0.1,0,0.2,0c0.1,0,0.1,0,0.2,0c0.3-0.1,0.5-0.1,0.7-0.2c0.9-0.3,1.6-0.9,1.9-1.6
	c0,0,0.1-0.3,0.4-0.9c0.2-0.5,0.5-1.2,0.8-1.9c0.3-0.7,0.5-1.4,0.8-1.9c0.1-0.3,0.2-0.5,0.2-0.6c0.1-0.1,0.1-0.3,0.1-0.3
	s0.1,0,0.3,0c0.1,0,0.2,0,0.3,0c0.1,0,0.3,0,0.4,0c0.5,0,1.3,0.1,2.1,0.1c0.4,0,0.8,0,1.1,0c0.2,0,0.3,0,0.5,0c0.1,0,0.3,0,0.5,0
	c0.3,0,0.5,0,0.7-0.1c0.1,0,0.3,0,0.3,0s0.3,0,0.9-0.1c0.1,0,0.3,0,0.4-0.1c0.1,0,0.1,0,0.3,0c0.1,0,0.1,0,0.3,0
	c0.2,0,0.3-0.1,0.5-0.1c0.1,0,0.2,0,0.3-0.1c0.1,0,0.2,0,0.3-0.1c0.2,0,0.3-0.1,0.5-0.1c0.2,0,0.3-0.1,0.5-0.1
	c0.3-0.1,0.7-0.1,1-0.2c0.3-0.1,0.5-0.1,0.7-0.1c0.1-0.1,0.3-0.1,0.3-0.1s0.2,0.3,0.4,0.8c0.3,0.5,0.6,1.2,1,1.8
	c0.4,0.7,0.8,1.3,1.1,1.8c0.3,0.5,0.5,0.8,0.5,0.8c0.2,0.3,0.5,0.6,0.9,0.8c0.3,0.2,0.8,0.3,1.2,0.5c0.2,0.1,0.5,0.1,0.8,0.1
	c0.1,0,0.3,0,0.4,0c0.1,0,0.3,0,0.4,0c0.3,0,0.5-0.1,0.8-0.1s0.5-0.1,0.8-0.3c0,0,0,0,0.1,0c0.1,0,0.1-0.1,0.2-0.1
	c0.2-0.1,0.5-0.2,0.8-0.3c0.3-0.1,0.7-0.3,1.1-0.5c0.2-0.1,0.4-0.2,0.6-0.3c0.2-0.1,0.4-0.2,0.6-0.3c0.4-0.2,0.8-0.4,1.2-0.6
	c0.2-0.1,0.3-0.2,0.5-0.3c0.1-0.1,0.3-0.2,0.5-0.3c0.3-0.1,0.5-0.3,0.7-0.4c0.1-0.1,0.3-0.1,0.3-0.1c0.3-0.1,0.5-0.3,0.7-0.5
	c0.2-0.2,0.4-0.3,0.6-0.5c0.2-0.2,0.3-0.4,0.5-0.6c0.1-0.1,0.1-0.2,0.2-0.3c0.1-0.1,0.1-0.2,0.2-0.3c0.4-0.8,0.5-1.7,0.2-2.5
	c0,0,0-0.1-0.1-0.3c-0.1-0.1-0.1-0.3-0.3-0.6c-0.2-0.5-0.5-1.2-0.8-1.9c-0.1-0.3-0.3-0.7-0.4-1c-0.1-0.3-0.3-0.6-0.4-0.9
	c-0.2-0.5-0.4-0.8-0.4-0.8s0.1-0.1,0.2-0.1c0.1-0.1,0.1-0.1,0.2-0.2c0.1-0.1,0.2-0.1,0.3-0.3c0.1-0.1,0.2-0.2,0.3-0.3
	c0.1-0.1,0.3-0.2,0.4-0.3c0.1-0.1,0.1-0.1,0.2-0.2l0.1-0.1l0.1-0.1c0.1-0.1,0.3-0.3,0.4-0.4c0.1-0.1,0.1-0.1,0.2-0.2
	c0.1-0.1,0.1-0.1,0.2-0.2c0.1-0.1,0.3-0.3,0.4-0.4c0.3-0.3,0.5-0.5,0.7-0.7c0.4-0.4,0.6-0.7,0.6-0.7s0.2-0.3,0.6-0.7
	c0.2-0.2,0.3-0.5,0.6-0.8c0.1-0.1,0.2-0.3,0.3-0.4c0.1-0.1,0.1-0.1,0.1-0.2c0-0.1,0.1-0.1,0.1-0.1l0.1-0.1c0.1-0.1,0.2-0.3,0.3-0.5
	c0.1-0.1,0.1-0.1,0.1-0.2c0.1-0.1,0.1-0.1,0.1-0.2c0.2-0.3,0.4-0.5,0.5-0.8c0.1-0.2,0.3-0.4,0.3-0.5s0.1-0.2,0.1-0.2
	s0.3,0.1,0.9,0.3c0.3,0.1,0.6,0.1,1,0.3c0.1,0.1,0.3,0.1,0.5,0.1c0.2,0.1,0.3,0.1,0.5,0.1c0.8,0.2,1.4,0.3,2,0.5
	c0.5,0.1,0.9,0.2,0.9,0.2c0.4,0.1,0.8,0.1,1.2,0c0.2-0.1,0.4-0.1,0.6-0.2c0.2-0.1,0.4-0.2,0.6-0.3c0.8-0.5,1.5-1.4,2-2.5
	c0,0,0.1-0.1,0.1-0.3c0.1-0.2,0.2-0.5,0.3-0.8c0.1-0.3,0.3-0.7,0.4-1.1c0.1-0.2,0.1-0.4,0.2-0.6c0.1-0.2,0.1-0.4,0.2-0.6
	c0.1-0.4,0.3-0.9,0.4-1.3c0.1-0.2,0.1-0.4,0.1-0.6c0.1-0.2,0.1-0.3,0.1-0.5c0.1-0.3,0.1-0.6,0.2-0.8c0.1-0.2,0.1-0.3,0.1-0.3
	c0.1-0.5,0.2-1.2,0.2-1.6c0-0.1,0-0.3,0-0.4c0-0.1,0-0.1,0-0.2c0-0.1,0-0.1,0-0.2c-0.1-0.3-0.1-0.5-0.2-0.7
	c-0.3-0.9-0.9-1.6-1.6-1.9c0,0-0.3-0.1-0.9-0.4c-0.5-0.2-1.2-0.5-1.9-0.8c-0.7-0.3-1.4-0.5-1.9-0.8c-0.3-0.1-0.5-0.2-0.6-0.2
	c-0.1-0.1-0.3-0.1-0.3-0.1s0-0.1,0-0.3c0-0.1,0-0.2,0-0.3c0-0.1,0-0.3,0-0.4c0-0.5,0.1-1.3,0.1-2.1c0-0.4,0-0.8,0-1.1
	c0-0.2,0-0.3,0-0.5c0-0.1,0-0.3,0-0.5c0-0.3,0-0.5-0.1-0.7c0-0.1,0-0.3,0-0.3s0-0.3-0.1-0.9c0-0.1,0-0.3-0.1-0.4c0-0.1,0-0.1,0-0.3
	c0-0.1,0-0.1,0-0.3c0-0.2-0.1-0.3-0.1-0.5c0-0.1,0-0.2-0.1-0.3c0-0.1,0-0.2-0.1-0.3c0-0.2-0.1-0.3-0.1-0.5c0-0.2-0.1-0.3-0.1-0.5
	c-0.1-0.3-0.1-0.7-0.2-1c-0.1-0.3-0.1-0.5-0.1-0.7c-0.1-0.1-0.1-0.3-0.1-0.3s0.3-0.2,0.8-0.4c0.5-0.3,1.2-0.6,1.8-1
	c0.7-0.4,1.3-0.8,1.8-1.1c0.5-0.3,0.8-0.5,0.8-0.5c0.3-0.2,0.6-0.5,0.8-0.9c0.2-0.3,0.3-0.8,0.5-1.2c0.1-0.2,0.1-0.5,0.1-0.8
	c0-0.1,0-0.3,0-0.4s0-0.3,0-0.4c0-0.3-0.1-0.5-0.1-0.8c-0.1-0.3-0.1-0.5-0.3-0.8c0,0,0,0,0-0.1c0-0.1-0.1-0.1-0.1-0.2
	c-0.1-0.2-0.2-0.5-0.3-0.8c-0.1-0.3-0.3-0.7-0.5-1.1c-0.1-0.2-0.2-0.4-0.3-0.6c-0.1-0.2-0.2-0.4-0.3-0.6c-0.2-0.4-0.4-0.8-0.6-1.2
	c-0.1-0.2-0.2-0.3-0.3-0.5c-0.1-0.1-0.2-0.3-0.3-0.5c-0.1-0.3-0.3-0.5-0.4-0.7c-0.1-0.1-0.1-0.3-0.1-0.3c-0.1-0.3-0.3-0.5-0.5-0.7
	c-0.2-0.2-0.3-0.4-0.5-0.6s-0.4-0.3-0.6-0.5C110.1,378.2,110,378.1,109.9,378z M97.3,401.8c0,0.1,0,0.3,0,0.6c0,0.5,0.1,1.2,0,2.1
	c0,0.1,0,0.2,0,0.3c0,0.1,0,0.1,0,0.2c0,0.1,0,0.1,0,0.2c0,0.1,0,0.2,0,0.3s0,0.3-0.1,0.3c0,0.3-0.1,0.5-0.1,0.8
	c0,0.1-0.1,0.3-0.1,0.4c0,0.1,0,0.1,0,0.2s0,0.1-0.1,0.2c-0.2,1.1-0.5,2.3-0.8,3.4s-0.8,2.2-1.3,3.2c-0.5,1-1,1.9-1.5,2.6
	c-0.3,0.3-0.5,0.7-0.7,1c-0.1,0.1-0.2,0.3-0.3,0.4s-0.2,0.2-0.3,0.3c-0.1,0.1-0.1,0.1-0.1,0.1c-0.1,0.1-0.1,0.1-0.1,0.1
	c-0.1,0.1-0.1,0.1-0.1,0.2c-0.1,0.1-0.1,0.1-0.1,0.1s-0.1,0.1-0.1,0.1c-0.1,0.1-0.1,0.1-0.1,0.2c0,0.1-0.1,0.1-0.1,0.1
	c-0.1,0.1-0.1,0.1-0.1,0.1s-0.2,0.2-0.3,0.3c-0.1,0.1-0.2,0.2-0.3,0.3c-0.3,0.3-0.5,0.5-0.9,0.8c-0.6,0.6-1.4,1.2-2.3,1.9
	c-0.9,0.6-1.9,1.2-2.9,1.8c-1,0.5-2.1,1-3.2,1.3c-0.1,0-0.1,0.1-0.2,0.1c-0.1,0-0.1,0.1-0.2,0.1c-0.1,0.1-0.3,0.1-0.4,0.1
	c-0.3,0.1-0.5,0.1-0.8,0.2c-0.1,0-0.3,0.1-0.3,0.1c-0.1,0-0.2,0.1-0.3,0.1c-0.1,0-0.1,0-0.2,0.1c-0.1,0-0.1,0-0.1,0.1
	c-0.1,0-0.2,0.1-0.3,0.1c-0.9,0.2-1.6,0.3-2.1,0.3c-0.3,0-0.5,0.1-0.6,0.1s-0.2,0-0.2,0s-0.1,0-0.2,0s-0.3,0-0.6,0
	c-0.5,0-1.2,0.1-2.1,0c-0.1,0-0.2,0-0.3,0c-0.1,0-0.1,0-0.2,0c-0.1,0-0.1,0-0.2,0c-0.1,0-0.2,0-0.3,0s-0.3,0-0.3-0.1
	c-0.3,0-0.5-0.1-0.8-0.1c-0.1,0-0.3-0.1-0.4-0.1c-0.1,0-0.1,0-0.2,0c-0.1,0-0.1,0-0.2-0.1c-1.1-0.2-2.3-0.5-3.4-0.8
	c-1.1-0.3-2.2-0.8-3.2-1.3c-1-0.5-1.9-1-2.6-1.5c-0.3-0.3-0.7-0.5-1-0.7c-0.1-0.1-0.3-0.2-0.4-0.3c-0.1-0.1-0.2-0.2-0.3-0.3
	c-0.1-0.1-0.1-0.1-0.1-0.1c-0.1-0.1-0.1-0.1-0.1-0.1c-0.1-0.1-0.1-0.1-0.2-0.1c-0.1-0.1-0.1-0.1-0.1-0.1s-0.1-0.1-0.1-0.1
	c-0.1-0.1-0.1-0.1-0.2-0.1c-0.1,0-0.1-0.1-0.1-0.1c-0.1-0.1-0.1-0.1-0.1-0.1c-0.1-0.1-0.2-0.2-0.3-0.3c-0.1-0.1-0.2-0.2-0.3-0.3
	c-0.3-0.3-0.5-0.5-0.8-0.9c-0.6-0.6-1.2-1.4-1.9-2.3c-0.6-0.9-1.2-1.9-1.8-3c-0.5-1-1-2.1-1.3-3.2c0-0.1-0.1-0.1-0.1-0.2
	s-0.1-0.1-0.1-0.2c-0.1-0.1-0.1-0.3-0.1-0.4c-0.1-0.3-0.1-0.5-0.2-0.8c0-0.1-0.1-0.3-0.1-0.3c0-0.1-0.1-0.2-0.1-0.3
	c0-0.1,0-0.1-0.1-0.2c0-0.1,0-0.1-0.1-0.1c0-0.1-0.1-0.2-0.1-0.3c-0.2-0.9-0.3-1.6-0.3-2.1c0-0.3-0.1-0.5-0.1-0.6s0-0.2,0-0.2
	s0-0.1,0-0.2c0-0.1,0-0.3,0-0.6c0-0.5-0.1-1.2,0-2.1c0-0.1,0-0.2,0-0.3c0-0.1,0-0.1,0-0.2s0-0.1,0-0.2c0-0.1,0-0.2,0-0.3
	s0-0.3,0.1-0.3c0-0.3,0.1-0.5,0.1-0.8c0-0.1,0.1-0.3,0.1-0.4c0-0.1,0-0.1,0-0.2c0-0.1,0-0.1,0.1-0.2c0.2-1.1,0.5-2.3,0.8-3.4
	c0.3-1.1,0.8-2.2,1.3-3.2c0.5-1,1-1.9,1.5-2.6c0.3-0.3,0.5-0.7,0.7-1c0.1-0.1,0.2-0.3,0.3-0.4c0.1-0.1,0.2-0.2,0.3-0.3
	c0.1-0.1,0.1-0.1,0.1-0.1c0.1-0.1,0.1-0.1,0.1-0.1c0.1-0.1,0.1-0.1,0.1-0.2c0.1-0.1,0.1-0.1,0.1-0.1s0.1-0.1,0.1-0.1
	c0.1-0.1,0.1-0.1,0.1-0.2c0-0.1,0.1-0.1,0.1-0.1c0.1-0.1,0.1-0.1,0.1-0.1c0.1-0.1,0.2-0.2,0.3-0.3c0.1-0.1,0.2-0.2,0.3-0.3
	c0.3-0.3,0.5-0.5,0.9-0.8c0.6-0.6,1.4-1.2,2.3-1.9s1.9-1.2,2.9-1.8c1-0.5,2.1-1,3.2-1.3c0.1,0,0.1-0.1,0.2-0.1
	c0.1,0,0.1-0.1,0.2-0.1c0.1-0.1,0.3-0.1,0.4-0.1c0.3-0.1,0.5-0.1,0.8-0.2c0.1,0,0.3-0.1,0.3-0.1c0.1,0,0.2-0.1,0.3-0.1
	c0.1,0,0.1,0,0.2-0.1c0.1,0,0.1,0,0.1-0.1c0.1,0,0.2-0.1,0.3-0.1c0.9-0.2,1.6-0.3,2.1-0.3c0.3,0,0.5-0.1,0.6-0.1s0.2,0,0.2,0
	s0.1,0,0.2,0s0.3,0,0.6,0c0.5,0,1.2-0.1,2.1,0c0.1,0,0.2,0,0.3,0c0.1,0,0.1,0,0.2,0c0.1,0,0.1,0,0.2,0c0.1,0,0.2,0,0.3,0
	s0.3,0,0.3,0.1c0.3,0,0.5,0.1,0.8,0.1c0.1,0,0.3,0.1,0.4,0.1c0.1,0,0.1,0,0.2,0c0.1,0,0.1,0,0.2,0.1c1.1,0.2,2.3,0.5,3.4,0.8
	c1.1,0.3,2.2,0.8,3.2,1.3c1,0.5,1.9,1,2.6,1.5c0.3,0.3,0.7,0.5,1,0.7c0.1,0.1,0.3,0.2,0.4,0.3c0.1,0.1,0.2,0.2,0.3,0.3
	c0.1,0.1,0.1,0.1,0.1,0.1c0.1,0.1,0.1,0.1,0.1,0.1c0.1,0.1,0.1,0.1,0.2,0.1c0.1,0.1,0.1,0.1,0.1,0.1s0.1,0.1,0.1,0.1
	c0.1,0.1,0.1,0.1,0.2,0.1c0.1,0,0.1,0.1,0.1,0.1c0.1,0.1,0.1,0.1,0.1,0.1c0.1,0.1,0.2,0.2,0.3,0.3c0.1,0.1,0.2,0.2,0.3,0.3
	c0.3,0.3,0.5,0.5,0.8,0.9c0.6,0.6,1.2,1.4,1.9,2.3c0.6,0.9,1.2,1.9,1.8,3c0.5,1,1,2.1,1.3,3.2c0,0.1,0.1,0.1,0.1,0.2
	c0,0.1,0.1,0.1,0.1,0.2c0.1,0.1,0.1,0.3,0.1,0.4c0.1,0.3,0.1,0.5,0.2,0.8c0,0.1,0.1,0.3,0.1,0.3c0,0.1,0.1,0.2,0.1,0.3
	c0,0.1,0,0.1,0.1,0.2c0,0.1,0,0.1,0.1,0.1c0,0.1,0.1,0.2,0.1,0.3c0.2,0.9,0.3,1.6,0.3,2.1c0,0.3,0.1,0.5,0.1,0.6s0,0.2,0,0.2
	S97.3,401.7,97.3,401.8z"/>
<path class="st10" d="M49,447.2L49,447.2c-0.3-0.3-0.5-0.4-0.7-0.4c0,0,0,0-0.1,0s-0.1,0-0.2,0c-0.1,0-0.4,0-0.6,0
	c-0.1,0-0.2,0-0.3,0s-0.2,0-0.3,0c-0.1,0-0.3,0-0.3,0s0,0,0-0.1v-0.1c0,0,0-0.1-0.1-0.1c0-0.1,0-0.1-0.1-0.1c0-0.1-0.1-0.1-0.1-0.1
	v-0.1c0,0,0,0,0-0.1c0,0,0,0,0-0.1c0-0.1-0.1-0.1-0.1-0.1v-0.1c0,0,0-0.1-0.1-0.1c0-0.1-0.1-0.1-0.1-0.1c-0.1-0.1-0.1-0.2-0.1-0.3
	c-0.1-0.1-0.1-0.3-0.1-0.3s-0.1-0.1-0.1-0.2c-0.1-0.1-0.1-0.1-0.1-0.2c0-0.1-0.1-0.1-0.1-0.1c0,0,0-0.1-0.1-0.1
	c0-0.1-0.1-0.1-0.1-0.1c0,0,0-0.1-0.1-0.1c0,0,0-0.1-0.1-0.1c-0.1-0.1-0.1-0.1-0.1-0.2c-0.1-0.1-0.1-0.1-0.1-0.1
	c0-0.1-0.1-0.1-0.1-0.1s0.1-0.1,0.1-0.2c0.1-0.1,0.1-0.1,0.1-0.2c0-0.1,0.1-0.1,0.1-0.1s0.1-0.1,0.1-0.1c0.1-0.2,0.3-0.3,0.3-0.5
	c0.1-0.1,0.1-0.2,0.1-0.2c0.1-0.1,0.1-0.2,0.1-0.3c0-0.1,0-0.1,0-0.2s0-0.1,0-0.2c-0.1-0.3-0.2-0.5-0.5-0.8c0,0,0,0-0.1-0.1
	s-0.1-0.1-0.2-0.1c-0.1-0.1-0.1-0.1-0.3-0.2c-0.1-0.1-0.1-0.1-0.1-0.1c-0.1-0.1-0.1-0.1-0.1-0.1c-0.1-0.1-0.2-0.1-0.3-0.3
	c-0.1-0.1-0.1-0.1-0.1-0.1c-0.1,0-0.1-0.1-0.1-0.1c-0.1-0.1-0.1-0.1-0.2-0.1s-0.1-0.1-0.1-0.1c-0.1-0.1-0.3-0.1-0.4-0.2
	c-0.1,0-0.1,0-0.1,0h-0.1h-0.1c-0.1,0-0.1,0-0.2,0c-0.3,0-0.5,0.1-0.7,0.2c0,0-0.1,0.1-0.2,0.2c-0.1,0.1-0.3,0.3-0.4,0.4
	c-0.1,0.1-0.3,0.3-0.4,0.5c-0.1,0.1-0.1,0.1-0.1,0.1c0,0.1-0.1,0.1-0.1,0.1s0,0-0.1,0c0,0-0.1,0-0.1-0.1c0,0-0.1,0-0.1-0.1
	c-0.1-0.1-0.3-0.1-0.5-0.2c-0.1-0.1-0.2-0.1-0.3-0.1c-0.1,0-0.1,0-0.1-0.1c-0.1,0-0.1,0-0.1-0.1c-0.1,0-0.1-0.1-0.2-0.1
	s-0.1,0-0.1,0s-0.1,0-0.3-0.1c-0.1,0-0.1,0-0.1,0h-0.1h-0.1c-0.1,0-0.1,0-0.1-0.1h-0.1h-0.1c-0.1,0-0.1,0-0.1,0c-0.1,0-0.1,0-0.1,0
	c-0.1,0-0.2,0-0.3-0.1c-0.1,0-0.1,0-0.2,0s-0.1,0-0.1,0s0-0.1-0.1-0.3c0-0.1-0.1-0.4-0.1-0.6c-0.1-0.2-0.1-0.4-0.1-0.6
	c0-0.1-0.1-0.3-0.1-0.3c0-0.1-0.1-0.2-0.1-0.3c-0.1-0.1-0.2-0.2-0.3-0.3c-0.1-0.1-0.1-0.1-0.2-0.1c-0.1,0-0.1,0-0.1-0.1
	c-0.1,0-0.1,0-0.1,0s-0.1,0-0.2-0.1c-0.1,0-0.1,0-0.3,0h-0.1c-0.1,0-0.1,0-0.3,0c-0.1,0-0.2,0-0.3,0c-0.1,0-0.1,0-0.2,0
	s-0.1,0-0.2,0c-0.1,0-0.3,0-0.4,0.1c-0.1,0-0.1,0-0.2,0s-0.1,0-0.1,0c-0.1,0-0.2,0-0.2,0.1c-0.1,0-0.1,0-0.1,0
	c-0.1,0-0.1,0.1-0.3,0.1c-0.1,0-0.1,0.1-0.2,0.1c-0.1,0.1-0.1,0.1-0.2,0.1l-0.1,0.1l-0.1,0.1c-0.2,0.2-0.3,0.4-0.3,0.6
	c0,0,0,0,0,0.1c0,0.1,0,0.1,0,0.2c0,0.1,0,0.4,0,0.6c0,0.1,0,0.2,0,0.3c0,0.1,0,0.2,0,0.3c0,0.1,0,0.3,0,0.3s0,0-0.1,0h-0.1
	c0,0-0.1,0-0.1,0.1c-0.1,0-0.1,0-0.1,0.1c-0.1,0-0.1,0.1-0.1,0.1H32c0,0,0,0-0.1,0c0,0,0,0-0.1,0c-0.1,0-0.1,0.1-0.1,0.1h-0.1
	c0,0-0.1,0-0.1,0.1c-0.1,0-0.1,0.1-0.1,0.1c-0.1,0.1-0.2,0.1-0.3,0.1c-0.1,0.1-0.3,0.1-0.3,0.1s-0.1,0.1-0.2,0.1
	c-0.1,0.1-0.1,0.1-0.2,0.1c-0.1,0-0.1,0.1-0.1,0.1c0,0-0.1,0-0.1,0.1c-0.1,0-0.1,0.1-0.1,0.1c0,0-0.1,0-0.1,0.1c0,0-0.1,0-0.1,0.1
	c-0.1,0.1-0.1,0.1-0.2,0.1c-0.1,0.1-0.1,0.1-0.1,0.1c-0.1,0-0.1,0.1-0.1,0.1s-0.1-0.1-0.2-0.1c-0.1-0.1-0.1-0.1-0.2-0.1
	s-0.1-0.1-0.1-0.1c-0.1,0-0.1-0.1-0.1-0.1c-0.2-0.1-0.3-0.3-0.5-0.3s-0.2-0.1-0.2-0.1c-0.1-0.1-0.2-0.1-0.3-0.1c-0.1,0-0.1,0-0.2,0
	s-0.1,0-0.2,0c-0.3,0.1-0.5,0.2-0.8,0.5c0,0,0,0-0.1,0.1c-0.1,0.1-0.1,0.1-0.1,0.2c-0.1,0.1-0.1,0.1-0.2,0.3
	c-0.1,0.1-0.1,0.1-0.1,0.1c-0.1,0.1-0.1,0.1-0.1,0.1c-0.1,0.1-0.1,0.2-0.3,0.3c-0.1,0.1-0.1,0.1-0.1,0.1c0,0.1-0.1,0.1-0.1,0.1
	c-0.1,0.1-0.1,0.1-0.1,0.2c0,0.1-0.1,0.1-0.1,0.1c-0.1,0.1-0.1,0.3-0.2,0.4c0,0.1,0,0.1,0,0.1v0.1v0.1c0,0.1,0,0.1,0,0.2
	c0,0.3,0.1,0.5,0.2,0.7c0,0,0.1,0.1,0.2,0.2s0.3,0.3,0.4,0.4c0.1,0.1,0.3,0.3,0.5,0.4c0.1,0.1,0.1,0.1,0.1,0.1
	c0.1,0,0.1,0.1,0.1,0.1s0,0,0,0.1c0,0,0,0.1-0.1,0.1c0,0,0,0.1-0.1,0.1c-0.1,0.1-0.1,0.3-0.2,0.5c-0.1,0.1-0.1,0.2-0.1,0.3
	c0,0.1,0,0.1-0.1,0.1c0,0.1,0,0.1-0.1,0.1c0,0.1-0.1,0.1-0.1,0.2c0,0.1,0,0.1,0,0.1s0,0.1-0.1,0.3c0,0.1,0,0.1,0,0.1v0.1v0.1
	c0,0.1,0,0.1-0.1,0.1v0.1v0.1c0,0.1,0,0.1,0,0.1c0,0.1,0,0.1,0,0.1c0,0.1,0,0.2-0.1,0.3c0,0.1,0,0.1,0,0.2c0,0.1,0,0.1,0,0.1
	s-0.1,0-0.3,0.1c-0.1,0-0.4,0.1-0.6,0.1c-0.2,0.1-0.4,0.1-0.6,0.1c-0.1,0-0.3,0.1-0.3,0.1c-0.1,0-0.2,0.1-0.3,0.1
	c-0.1,0.1-0.2,0.2-0.3,0.3c-0.1,0.1-0.1,0.1-0.1,0.2c0,0,0,0.1-0.1,0.1c0,0.1,0,0.1,0,0.1s0,0.1-0.1,0.2c0,0.1,0,0.1,0,0.3v0.1
	c0,0.1,0,0.1,0,0.3c0,0.1,0,0.2,0,0.3c0,0.1,0,0.1,0,0.2s0,0.1,0,0.2c0,0.1,0,0.3,0.1,0.4c0,0.1,0,0.1,0,0.2c0,0.1,0,0.1,0,0.1
	c0,0.1,0,0.2,0.1,0.2c0,0.1,0,0.1,0,0.1c0,0.1,0.1,0.1,0.1,0.3c0,0.1,0.1,0.1,0.1,0.2c0.1,0.1,0.1,0.1,0.1,0.2l0.1,0.1l0.1,0.1
	c0.2,0.2,0.4,0.3,0.6,0.3c0,0,0,0,0.1,0s0.1,0,0.2,0c0.1,0,0.4,0,0.6,0c0.1,0,0.2,0,0.3,0c0.1,0,0.2,0,0.3,0c0.1,0,0.3,0,0.3,0
	s0,0,0,0.1v0.1c0,0,0,0.1,0.1,0.1c0,0.1,0,0.1,0.1,0.1c0,0.1,0.1,0.1,0.1,0.1v0.1c0,0,0,0,0,0.1c0,0,0,0,0,0.1
	c0,0.1,0.1,0.1,0.1,0.1v0.1c0,0,0,0.1,0.1,0.1c0,0.1,0.1,0.1,0.1,0.1c0.1,0.1,0.1,0.2,0.1,0.3c0.1,0.1,0.1,0.3,0.1,0.3
	s0.1,0.1,0.1,0.2c0.1,0.1,0.1,0.1,0.1,0.2c0,0.1,0.1,0.1,0.1,0.1c0,0,0,0.1,0.1,0.1c0,0.1,0.1,0.1,0.1,0.1c0,0,0,0.1,0.1,0.1
	c0,0,0,0.1,0.1,0.1c0.1,0.1,0.1,0.1,0.1,0.2c0.1,0.1,0.1,0.1,0.1,0.1c0,0.1,0.1,0.1,0.1,0.1s-0.1,0.1-0.1,0.2
	c-0.1,0.1-0.1,0.1-0.1,0.2c0,0.1-0.1,0.1-0.1,0.1s-0.1,0.1-0.1,0.1c-0.1,0.2-0.3,0.3-0.3,0.5c-0.1,0.1-0.1,0.2-0.1,0.2
	c-0.1,0.1-0.1,0.2-0.1,0.3c0,0.1,0,0.1,0,0.2s0,0.1,0,0.2c0.1,0.3,0.2,0.5,0.5,0.8c0,0,0,0,0.1,0.1c0.1,0.1,0.1,0.1,0.2,0.1
	c0.1,0.1,0.1,0.1,0.3,0.2c0.1,0.1,0.1,0.1,0.1,0.1c0.1,0.1,0.1,0.1,0.1,0.1c0.1,0.1,0.2,0.1,0.3,0.3c0.1,0.1,0.1,0.1,0.1,0.1
	c0.1,0,0.1,0.1,0.1,0.1c0.1,0.1,0.1,0.1,0.2,0.1s0.1,0.1,0.1,0.1c0.1,0.1,0.3,0.1,0.4,0.2c0.1,0,0.1,0,0.1,0h0.1h0.1
	c0.1,0,0.1,0,0.2,0c0.3,0,0.5-0.1,0.7-0.2c0,0,0.1-0.1,0.2-0.2c0.1-0.1,0.3-0.3,0.4-0.4c0.1-0.1,0.3-0.3,0.4-0.5
	c0.1-0.1,0.1-0.1,0.1-0.1c0-0.1,0.1-0.1,0.1-0.1s0,0,0.1,0c0,0,0.1,0,0.1,0.1c0,0,0.1,0,0.1,0.1c0.1,0.1,0.3,0.1,0.5,0.2
	c0.1,0.1,0.2,0.1,0.3,0.1c0.1,0,0.1,0,0.1,0.1c0.1,0,0.1,0,0.1,0.1c0.1,0,0.1,0.1,0.2,0.1s0.1,0,0.1,0s0.1,0,0.3,0.1
	c0.1,0,0.1,0,0.1,0h0.1h0.1c0.1,0,0.1,0,0.1,0.1h0.1h0.1c0.1,0,0.1,0,0.1,0c0.1,0,0.1,0,0.1,0c0.1,0,0.2,0,0.3,0.1
	c0.1,0,0.1,0,0.2,0s0.1,0,0.1,0s0,0.1,0.1,0.3c0,0.1,0.1,0.4,0.1,0.6c0.1,0.2,0.1,0.4,0.1,0.6c0,0.1,0.1,0.3,0.1,0.3
	c0,0.1,0.1,0.2,0.1,0.3c0.1,0.1,0.2,0.2,0.3,0.3c0.1,0.1,0.1,0.1,0.2,0.1s0.1,0,0.1,0.1c0.1,0,0.1,0,0.1,0s0.1,0,0.2,0.1
	c0.1,0,0.1,0,0.3,0h0.1c0.1,0,0.1,0,0.3,0c0.1,0,0.2,0,0.3,0c0.1,0,0.1,0,0.2,0s0.1,0,0.2,0c0.1,0,0.3,0,0.4-0.1c0.1,0,0.1,0,0.2,0
	c0.1,0,0.1,0,0.1,0c0.1,0,0.2,0,0.2-0.1c0.1,0,0.1,0,0.1,0c0.1,0,0.1-0.1,0.3-0.1c0.1,0,0.1-0.1,0.2-0.1c0.1-0.1,0.1-0.1,0.2-0.1
	l0.1-0.1l0.1-0.1c0.2-0.2,0.3-0.4,0.3-0.6c0,0,0,0,0-0.1c0-0.1,0-0.1,0-0.2c0-0.1,0-0.4,0-0.6c0-0.1,0-0.2,0-0.3c0-0.1,0-0.2,0-0.3
	c0-0.1,0-0.3,0-0.3s0,0,0.1,0h0.1c0,0,0.1,0,0.1-0.1c0.1,0,0.1,0,0.1-0.1c0.1,0,0.1-0.1,0.1-0.1h0.1c0,0,0,0,0.1,0c0,0,0,0,0.1,0
	s0.1-0.1,0.1-0.1h0.1c0,0,0.1,0,0.1-0.1c0.1,0,0.1-0.1,0.1-0.1c0.1-0.1,0.2-0.1,0.3-0.1c0.1-0.1,0.3-0.1,0.3-0.1s0.1-0.1,0.2-0.1
	c0.1-0.1,0.1-0.1,0.2-0.1c0.1,0,0.1-0.1,0.1-0.1c0,0,0.1,0,0.1-0.1c0.1,0,0.1-0.1,0.1-0.1c0,0,0.1,0,0.1-0.1c0,0,0.1,0,0.1-0.1
	c0.1-0.1,0.1-0.1,0.2-0.1c0.1-0.1,0.1-0.1,0.1-0.1C43,459,43,459,43,459s0.1,0.1,0.2,0.1c0.1,0.1,0.1,0.1,0.2,0.1s0.1,0.1,0.1,0.1
	s0.1,0.1,0.1,0.1c0.2,0.1,0.3,0.3,0.5,0.3c0.1,0.1,0.2,0.1,0.2,0.1c0.1,0.1,0.2,0.1,0.3,0.1c0.1,0,0.1,0,0.2,0c0.1,0,0.1,0,0.2,0
	c0.3-0.1,0.5-0.2,0.8-0.5c0,0,0,0,0.1-0.1c0.1-0.1,0.1-0.1,0.1-0.2c0.1-0.1,0.1-0.1,0.2-0.3c0.1-0.1,0.1-0.1,0.1-0.1
	c0.1-0.1,0.1-0.1,0.1-0.1c0.1-0.1,0.1-0.2,0.3-0.3c0.1-0.1,0.1-0.1,0.1-0.1c0-0.1,0.1-0.1,0.1-0.1c0.1-0.1,0.1-0.1,0.1-0.2
	c0-0.1,0.1-0.1,0.1-0.1c0.1-0.1,0.1-0.3,0.2-0.4c0-0.1,0-0.1,0-0.1v-0.1v-0.1c0-0.1,0-0.1,0-0.2c0-0.3-0.1-0.5-0.2-0.7
	c0,0-0.1-0.1-0.2-0.2c-0.1-0.1-0.3-0.3-0.4-0.4c-0.1-0.1-0.3-0.3-0.5-0.4c-0.1-0.1-0.1-0.1-0.1-0.1c-0.1,0-0.1-0.1-0.1-0.1
	s0,0,0-0.1c0,0,0-0.1,0.1-0.1c0,0,0-0.1,0.1-0.1c0.1-0.1,0.1-0.3,0.2-0.5c0.1-0.1,0.1-0.2,0.1-0.3c0-0.1,0-0.1,0.1-0.1
	c0-0.1,0-0.1,0.1-0.1c0-0.1,0.1-0.1,0.1-0.2c0-0.1,0-0.1,0-0.1s0-0.1,0.1-0.3c0-0.1,0-0.1,0-0.1v-0.1v-0.1c0-0.1,0-0.1,0.1-0.1v-0.1
	v-0.1c0-0.1,0-0.1,0-0.1c0-0.1,0-0.1,0-0.1c0-0.1,0-0.2,0.1-0.3c0-0.1,0-0.1,0-0.2c0-0.1,0-0.1,0-0.1s0.1,0,0.3-0.1
	c0.1,0,0.4-0.1,0.6-0.1c0.2-0.1,0.4-0.1,0.6-0.1c0.1,0,0.3-0.1,0.3-0.1c0.1,0,0.2-0.1,0.3-0.1c0.1-0.1,0.2-0.2,0.3-0.3
	s0.1-0.1,0.1-0.2c0-0.1,0-0.1,0.1-0.1c0-0.1,0-0.1,0-0.1c0-0.1,0-0.1,0.1-0.2c0-0.1,0-0.1,0-0.3V450c0-0.1,0-0.1,0-0.3
	c0-0.1,0-0.2,0-0.3c0-0.1,0-0.1,0-0.2s0-0.1,0-0.2c0-0.1,0-0.3-0.1-0.4c0-0.1,0-0.1,0-0.2c0-0.1,0-0.1,0-0.1c0-0.1,0-0.2-0.1-0.2
	c0-0.1,0-0.1,0-0.1c0-0.1-0.1-0.1-0.1-0.3c0-0.1-0.1-0.1-0.1-0.2C49.1,447.4,49.1,447.3,49,447.2L49,447.2z M43.1,452.4
	c0,0.1,0,0.1-0.1,0.1c-0.1,0.1-0.1,0.3-0.2,0.5c0,0,0,0.1-0.1,0.1c0,0,0,0,0,0.1c0,0,0,0,0,0.1c0,0,0,0.1-0.1,0.1c0,0,0,0.1-0.1,0.1
	c0,0.1-0.1,0.1-0.1,0.2l-0.1,0.1v0.1c0,0,0,0,0,0.1c-0.1,0.3-0.3,0.5-0.5,0.8c-0.2,0.3-0.5,0.5-0.7,0.8c-0.2,0.2-0.5,0.4-0.7,0.5
	c-0.1,0.1-0.2,0.1-0.3,0.2c-0.1,0-0.1,0.1-0.1,0.1s-0.1,0.1-0.1,0.1c0,0,0,0-0.1,0c0,0,0,0-0.1,0c0,0-0.1,0-0.1,0.1
	c-0.1,0-0.1,0-0.1,0s0,0-0.1,0c0,0-0.1,0-0.1,0.1c0,0,0,0-0.1,0c0,0,0,0-0.1,0c0,0-0.1,0.1-0.1,0.1s-0.1,0.1-0.1,0.1
	c-0.1,0.1-0.2,0.1-0.3,0.1c-0.2,0.1-0.5,0.2-0.8,0.3c-0.3,0.1-0.6,0.1-1,0.2c-0.3,0.1-0.7,0.1-1,0.1h-0.1h-0.1c-0.1,0-0.1,0-0.1,0
	s-0.1,0-0.2,0s-0.1,0-0.1,0s-0.1,0-0.1,0c0,0,0,0-0.1,0c0,0,0,0-0.1,0H35c-0.3-0.1-0.5-0.1-0.6-0.1c-0.1,0-0.1-0.1-0.1-0.1
	c-0.1,0-0.1,0-0.1,0s0,0-0.1,0s-0.1,0-0.1-0.1c-0.1-0.1-0.3-0.1-0.5-0.2c0,0-0.1,0-0.1-0.1c0,0,0,0-0.1,0c0,0,0,0-0.1,0
	c0,0-0.1,0-0.1-0.1c0,0-0.1,0-0.1-0.1c-0.1,0-0.1-0.1-0.2-0.1l-0.1-0.1h-0.1h-0.1c-0.3-0.1-0.5-0.3-0.8-0.5
	c-0.3-0.2-0.5-0.5-0.8-0.7c-0.2-0.2-0.4-0.5-0.5-0.7c-0.1-0.1-0.1-0.2-0.2-0.3c0-0.1-0.1-0.1-0.1-0.1c0-0.1-0.1-0.1-0.1-0.1
	c0,0,0,0,0-0.1c0,0,0,0,0-0.1c0,0,0-0.1-0.1-0.1c0-0.1,0-0.1,0-0.1s0,0,0-0.1c0,0,0-0.1-0.1-0.1c0,0,0,0,0-0.1c0,0,0,0,0-0.1
	c0,0-0.1-0.1-0.1-0.1c0-0.1-0.1-0.1-0.1-0.1c-0.1-0.1-0.1-0.2-0.1-0.3c-0.1-0.2-0.2-0.5-0.3-0.8c-0.1-0.3-0.1-0.6-0.2-1
	c-0.1-0.3-0.1-0.7-0.1-1v-0.1v-0.1c0-0.1,0-0.1,0-0.1c0-0.1,0-0.1,0-0.2c0-0.1,0-0.1,0-0.1c0-0.1,0-0.1,0-0.1c0,0,0,0,0-0.1
	c0,0,0,0,0-0.1V449c0.1-0.3,0.1-0.5,0.1-0.6c0-0.1,0.1-0.1,0.1-0.1c0-0.1,0-0.1,0-0.1s0,0,0-0.1c0-0.1,0-0.1,0.1-0.1
	c0.1-0.1,0.1-0.3,0.2-0.5c0,0,0-0.1,0.1-0.1c0,0,0,0,0-0.1c0,0,0,0,0-0.1c0,0,0-0.1,0.1-0.1c0,0,0-0.1,0.1-0.1
	c0-0.1,0.1-0.1,0.1-0.2l0.1-0.1v-0.1c0,0,0,0,0-0.1c0.1-0.3,0.3-0.5,0.5-0.8c0.2-0.3,0.5-0.5,0.7-0.8s0.5-0.4,0.7-0.5
	c0.1-0.1,0.2-0.1,0.3-0.2c0.1,0,0.1-0.1,0.1-0.1s0.1-0.1,0.1-0.1c0,0,0,0,0.1,0c0,0,0,0,0.1,0c0,0,0.1,0,0.1-0.1c0.1,0,0.1,0,0.1,0
	s0,0,0.1,0c0,0,0.1,0,0.1-0.1c0,0,0,0,0.1,0c0,0,0,0,0.1,0c0,0,0.1-0.1,0.1-0.1s0.1-0.1,0.1-0.1c0.1-0.1,0.2-0.1,0.3-0.1
	c0.2-0.1,0.5-0.2,0.8-0.3c0.3-0.1,0.6-0.1,1-0.2c0.3-0.1,0.7-0.1,1-0.1h0.1h0.1c0.1,0,0.1,0,0.1,0s0.1,0,0.2,0s0.1,0,0.1,0
	s0.1,0,0.1,0c0,0,0,0,0.1,0c0,0,0,0,0.1,0h0.1c0.3,0.1,0.5,0.1,0.6,0.1c0.1,0,0.1,0.1,0.1,0.1c0.1,0,0.1,0,0.1,0s0,0,0.1,0
	c0.1,0,0.1,0,0.1,0.1c0.1,0.1,0.3,0.1,0.5,0.2c0,0,0.1,0,0.1,0.1c0,0,0,0,0.1,0c0,0,0,0,0.1,0c0,0,0.1,0,0.1,0.1c0,0,0.1,0,0.1,0.1
	c0.1,0,0.1,0.1,0.2,0.1l0.1,0.1h0.1c0,0,0,0,0.1,0c0.3,0.1,0.5,0.3,0.8,0.5c0.3,0.2,0.5,0.5,0.8,0.7c0.2,0.2,0.4,0.5,0.5,0.7
	c0.1,0.1,0.1,0.2,0.2,0.3c0,0.1,0.1,0.1,0.1,0.1s0.1,0.1,0.1,0.1c0,0,0,0,0,0.1c0,0,0,0,0,0.1c0,0,0,0.1,0.1,0.1c0,0.1,0,0.1,0,0.1
	s0,0,0,0.1c0,0,0,0.1,0.1,0.1c0,0,0,0,0,0.1c0,0,0,0,0,0.1c0,0,0.1,0.1,0.1,0.1c0,0.1,0.1,0.1,0.1,0.1c0.1,0.1,0.1,0.2,0.1,0.3
	c0.1,0.2,0.2,0.5,0.3,0.8c0.1,0.3,0.1,0.6,0.2,1c0.1,0.3,0.1,0.7,0.1,1v0.1v0.1c0,0.1,0,0.1,0,0.1c0,0.1,0,0.1,0,0.2s0,0.1,0,0.1
	c0,0.1,0,0.1,0,0.1c0,0,0,0,0,0.1c0,0,0,0,0,0.1v0.1c-0.1,0.3-0.1,0.5-0.1,0.6c0,0.1-0.1,0.1-0.1,0.1
	C43.1,452.3,43.1,452.3,43.1,452.4C43.1,452.3,43.1,452.3,43.1,452.4z"/>
<path class="st10" d="M98.1,462.1c-0.1-0.1-0.1-0.1-0.1-0.1c-0.3-0.3-0.7-0.5-1-0.5c0,0-0.1,0-0.1,0c-0.1,0-0.2,0-0.3,0
	c-0.3,0-0.6,0-1,0c-0.2,0-0.3,0-0.5,0c-0.1,0-0.3,0-0.5,0c-0.3,0-0.4,0.1-0.4,0.1s0-0.1-0.1-0.1c0-0.1,0-0.1-0.1-0.1
	c0-0.1-0.1-0.1-0.1-0.1c0-0.1-0.1-0.1-0.1-0.2c0-0.1-0.1-0.1-0.1-0.2c0-0.1,0-0.1-0.1-0.1v-0.1v-0.1c-0.1-0.1-0.1-0.1-0.1-0.3
	c0-0.1-0.1-0.1-0.1-0.1c0-0.1-0.1-0.1-0.1-0.1c-0.1-0.1-0.1-0.1-0.1-0.2c-0.1-0.1-0.1-0.3-0.2-0.4c-0.1-0.2-0.2-0.4-0.2-0.4
	s-0.1-0.1-0.2-0.4c-0.1-0.1-0.1-0.3-0.2-0.4c-0.1-0.1-0.1-0.1-0.1-0.2c0-0.1-0.1-0.1-0.1-0.1c0,0,0-0.1-0.1-0.1l-0.1-0.1
	c-0.1-0.1-0.1-0.1-0.1-0.2c0-0.1-0.1-0.1-0.1-0.1l-0.1-0.1c-0.1-0.1-0.2-0.3-0.3-0.3c-0.1-0.1-0.1-0.2-0.2-0.3
	c-0.1-0.1-0.1-0.1-0.1-0.1s0.1-0.1,0.3-0.3c0.1-0.1,0.2-0.2,0.3-0.3c0.1-0.1,0.1-0.1,0.1-0.2c0.1-0.1,0.1-0.1,0.1-0.2
	c0.2-0.3,0.4-0.5,0.5-0.8c0.1-0.2,0.3-0.3,0.3-0.3c0.1-0.1,0.1-0.3,0.2-0.5c0-0.1,0-0.2,0-0.3c0-0.1,0-0.2-0.1-0.3
	c-0.1-0.4-0.4-0.9-0.8-1.3c0,0-0.1-0.1-0.1-0.1c-0.1-0.1-0.1-0.1-0.3-0.3c-0.1-0.1-0.3-0.2-0.4-0.3c-0.1-0.1-0.1-0.1-0.2-0.2
	c-0.1-0.1-0.1-0.1-0.3-0.2c-0.1-0.1-0.3-0.3-0.5-0.4c-0.1-0.1-0.1-0.1-0.2-0.2c-0.1-0.1-0.1-0.1-0.2-0.1c-0.1-0.1-0.3-0.1-0.3-0.2
	c-0.1-0.1-0.1-0.1-0.1-0.1c-0.2-0.1-0.5-0.3-0.7-0.3c-0.1,0-0.1-0.1-0.2-0.1h-0.1h-0.1c-0.1,0-0.2,0-0.3-0.1c-0.5,0-0.8,0.1-1.1,0.4
	c0,0-0.1,0.1-0.3,0.3c-0.2,0.2-0.4,0.5-0.7,0.7c-0.2,0.3-0.5,0.5-0.6,0.8c-0.1,0.1-0.1,0.2-0.2,0.3c-0.1,0.1-0.1,0.1-0.1,0.1
	s-0.1,0-0.1-0.1c-0.1,0-0.1-0.1-0.1-0.1c-0.1,0-0.1-0.1-0.1-0.1c-0.3-0.1-0.5-0.3-0.9-0.3c-0.1-0.1-0.3-0.1-0.5-0.2
	c-0.1,0-0.1-0.1-0.2-0.1c-0.1,0-0.1-0.1-0.2-0.1c-0.1-0.1-0.2-0.1-0.3-0.1c-0.1,0-0.1-0.1-0.1-0.1s-0.1-0.1-0.4-0.1
	c-0.1,0-0.1,0-0.2-0.1c-0.1,0-0.1,0-0.1,0c-0.1,0-0.1,0-0.1,0c-0.1,0-0.1-0.1-0.3-0.1c-0.1,0-0.1,0-0.1,0c-0.1,0-0.1,0-0.1,0
	c-0.1,0-0.1-0.1-0.3-0.1c-0.1,0-0.1,0-0.3-0.1c-0.1,0-0.3-0.1-0.4-0.1c-0.1,0-0.2,0-0.3-0.1c-0.1,0-0.1,0-0.1,0s0-0.2-0.1-0.4
	c-0.1-0.3-0.1-0.6-0.1-1c-0.1-0.3-0.1-0.7-0.2-1c-0.1-0.3-0.1-0.4-0.1-0.4c-0.1-0.2-0.1-0.3-0.3-0.5c-0.1-0.1-0.3-0.3-0.5-0.4
	c-0.1-0.1-0.2-0.1-0.3-0.1c-0.1,0-0.1-0.1-0.1-0.1c-0.1,0-0.1-0.1-0.2-0.1c-0.1,0-0.3-0.1-0.4-0.1s-0.3,0-0.4,0c0,0,0,0-0.1,0
	c0,0-0.1,0-0.1,0c-0.1,0-0.2,0-0.4,0c-0.1,0-0.3,0-0.5,0.1c-0.1,0-0.2,0-0.3,0c-0.1,0-0.2,0-0.3,0c-0.2,0-0.4,0.1-0.6,0.1
	c-0.1,0-0.2,0-0.3,0.1c-0.1,0-0.2,0-0.3,0.1c-0.1,0-0.3,0.1-0.4,0.1c-0.1,0-0.1,0-0.1,0c-0.1,0-0.3,0.1-0.4,0.1
	c-0.1,0.1-0.3,0.1-0.3,0.1c-0.1,0.1-0.2,0.1-0.3,0.2c-0.1,0-0.1,0.1-0.1,0.1c-0.1,0.1-0.1,0.1-0.1,0.1c-0.3,0.3-0.5,0.7-0.5,1
	c0,0,0,0.1,0,0.1c0,0.1,0,0.2,0,0.3c0,0.3,0,0.6,0,1c0,0.2,0,0.3,0,0.5c0,0.1,0,0.3,0,0.5c0,0.3,0.1,0.4,0.1,0.4s-0.1,0-0.1,0.1
	c-0.1,0-0.1,0-0.1,0.1c-0.1,0-0.1,0.1-0.1,0.1c-0.1,0-0.1,0.1-0.2,0.1c-0.1,0-0.1,0.1-0.2,0.1c-0.1,0-0.1,0-0.1,0.1h-0.1h-0.1
	c-0.1,0.1-0.1,0.1-0.3,0.1c-0.1,0-0.1,0.1-0.1,0.1c-0.1,0-0.1,0.1-0.1,0.1c-0.1,0.1-0.1,0.1-0.2,0.1c-0.1,0.1-0.3,0.1-0.4,0.2
	c-0.2,0.1-0.4,0.2-0.4,0.2s-0.1,0.1-0.4,0.2c-0.1,0.1-0.3,0.1-0.4,0.2c-0.1,0.1-0.1,0.1-0.2,0.1c-0.1,0-0.1,0.1-0.1,0.1
	c0,0-0.1,0-0.1,0.1l-0.1,0.1c-0.1,0.1-0.1,0.1-0.2,0.1c-0.1,0-0.1,0.1-0.1,0.1l-0.1,0.1c-0.1,0.1-0.3,0.2-0.3,0.3
	c-0.1,0.1-0.2,0.1-0.3,0.2c-0.1,0.1-0.1,0.1-0.1,0.1s-0.1-0.1-0.3-0.3c-0.1-0.1-0.2-0.2-0.3-0.3c-0.1-0.1-0.1-0.1-0.2-0.1
	c-0.1-0.1-0.1-0.1-0.2-0.1c-0.3-0.2-0.5-0.4-0.8-0.5c-0.2-0.1-0.3-0.3-0.3-0.3c-0.1-0.1-0.3-0.1-0.5-0.2c-0.1,0-0.2,0-0.3,0
	c-0.1,0-0.2,0-0.3,0.1c-0.4,0.1-0.9,0.4-1.3,0.8c0,0-0.1,0.1-0.1,0.1c-0.1,0.1-0.1,0.1-0.3,0.3c-0.1,0.1-0.2,0.3-0.3,0.4
	c-0.1,0.1-0.1,0.1-0.2,0.2c-0.1,0.1-0.1,0.1-0.2,0.3c-0.1,0.1-0.3,0.3-0.4,0.5c-0.1,0.1-0.1,0.1-0.2,0.2c-0.1,0.1-0.1,0.1-0.1,0.2
	c-0.1,0.1-0.1,0.3-0.2,0.3c-0.1,0.1-0.1,0.1-0.1,0.1c-0.1,0.2-0.3,0.5-0.3,0.7c0,0.1-0.1,0.1-0.1,0.2v0.1v0.1c0,0.1,0,0.2-0.1,0.3
	c0,0.5,0.1,0.8,0.4,1.1c0,0,0.1,0.1,0.3,0.3c0.2,0.2,0.5,0.4,0.7,0.7c0.3,0.2,0.5,0.5,0.8,0.6c0.1,0.1,0.2,0.1,0.3,0.2
	c0.1,0.1,0.1,0.1,0.1,0.1s0,0.1-0.1,0.1c0,0.1-0.1,0.1-0.1,0.1c0,0.1-0.1,0.1-0.1,0.1c-0.1,0.3-0.3,0.5-0.3,0.9
	c-0.1,0.1-0.1,0.3-0.2,0.5c0,0.1-0.1,0.1-0.1,0.2c0,0.1-0.1,0.1-0.1,0.2c-0.1,0.1-0.1,0.2-0.1,0.3c0,0.1-0.1,0.1-0.1,0.1
	s-0.1,0.1-0.1,0.4c0,0.1,0,0.1-0.1,0.2c0,0.1,0,0.1,0,0.1c0,0.1,0,0.1,0,0.1c0,0.1-0.1,0.1-0.1,0.3c0,0.1,0,0.1,0,0.1
	c0,0.1,0,0.1,0,0.1s-0.1,0.1-0.1,0.3c0,0.1,0,0.1-0.1,0.3c0,0.1-0.1,0.3-0.1,0.4c0,0.1,0,0.2-0.1,0.3c0,0.1,0,0.1,0,0.1
	s-0.2,0-0.4,0.1c-0.3,0.1-0.6,0.1-1,0.1c-0.3,0.1-0.7,0.1-1,0.2c-0.3,0.1-0.4,0.1-0.4,0.1c-0.2,0.1-0.3,0.1-0.5,0.3
	c-0.1,0.1-0.3,0.3-0.4,0.5c-0.1,0.1-0.1,0.2-0.1,0.3c0,0.1-0.1,0.1-0.1,0.1c0,0.1-0.1,0.1-0.1,0.2c0,0.1-0.1,0.3-0.1,0.4
	c0,0.1,0,0.3,0,0.4c0,0,0,0,0,0.1c0,0,0,0.1,0,0.1c0,0.1,0,0.2,0,0.4c0,0.1,0,0.3,0.1,0.5c0,0.1,0,0.2,0,0.3c0,0.1,0,0.2,0,0.3
	c0,0.2,0.1,0.4,0.1,0.6c0,0.1,0,0.2,0.1,0.3c0,0.1,0,0.2,0.1,0.3c0,0.1,0.1,0.3,0.1,0.4c0,0.1,0,0.1,0,0.1c0,0.1,0.1,0.3,0.1,0.4
	c0.1,0.1,0.1,0.3,0.1,0.3c0.1,0.1,0.1,0.2,0.2,0.3c0,0.1,0.1,0.1,0.1,0.1c0.1,0.1,0.1,0.1,0.1,0.1c0.3,0.3,0.7,0.5,1,0.5
	c0,0,0.1,0,0.1,0s0.2,0,0.3,0c0.3,0,0.6,0,1,0c0.2,0,0.3,0,0.5,0c0.2,0,0.3,0,0.5,0c0.3,0,0.4-0.1,0.4-0.1s0,0.1,0.1,0.1
	c0,0.1,0,0.1,0.1,0.1c0,0.1,0.1,0.1,0.1,0.1c0,0.1,0.1,0.1,0.1,0.2c0,0.1,0.1,0.1,0.1,0.2c0,0.1,0,0.1,0.1,0.1v0.1v0.1
	c0.1,0.1,0.1,0.1,0.1,0.3c0,0.1,0.1,0.1,0.1,0.1c0,0.1,0.1,0.1,0.1,0.1c0.1,0.1,0.1,0.1,0.1,0.2c0.1,0.1,0.1,0.3,0.2,0.4
	c0.1,0.2,0.2,0.4,0.2,0.4s0.1,0.1,0.2,0.4c0.1,0.1,0.1,0.3,0.2,0.4c0.1,0.1,0.1,0.1,0.1,0.2c0,0.1,0.1,0.1,0.1,0.1
	c0,0,0,0.1,0.1,0.1l0.1,0.1c0.1,0.1,0.1,0.1,0.1,0.2c0,0.1,0.1,0.1,0.1,0.1l0.1,0.1c0.1,0.1,0.2,0.3,0.3,0.3
	c0.1,0.1,0.1,0.2,0.2,0.3c0.1,0.1,0.1,0.1,0.1,0.1s-0.1,0.1-0.3,0.3c-0.1,0.1-0.2,0.2-0.3,0.3c-0.1,0.1-0.1,0.1-0.1,0.2
	c-0.1,0.1-0.1,0.1-0.1,0.2c-0.2,0.3-0.4,0.5-0.5,0.8c-0.1,0.2-0.3,0.3-0.3,0.3c-0.1,0.1-0.1,0.3-0.2,0.5c0,0.1,0,0.2,0,0.3
	c0,0.1,0,0.2,0.1,0.3c0.1,0.4,0.4,0.9,0.8,1.3c0,0,0.1,0.1,0.1,0.1c0.1,0.1,0.1,0.1,0.3,0.3c0.1,0.1,0.3,0.2,0.4,0.3
	c0.1,0.1,0.1,0.1,0.2,0.2c0.1,0.1,0.1,0.1,0.3,0.2c0.1,0.1,0.3,0.3,0.5,0.4c0.1,0.1,0.1,0.1,0.2,0.2c0.1,0.1,0.1,0.1,0.2,0.1
	c0.1,0.1,0.3,0.1,0.3,0.2c0.1,0.1,0.1,0.1,0.1,0.1c0.2,0.1,0.5,0.3,0.7,0.3c0.1,0,0.1,0.1,0.2,0.1h0.1h0.1c0.1,0,0.2,0,0.3,0.1
	c0.5,0,0.8-0.1,1.1-0.4c0,0,0.1-0.1,0.3-0.3c0.2-0.2,0.4-0.5,0.7-0.7c0.2-0.3,0.5-0.5,0.6-0.8c0.1-0.1,0.1-0.2,0.2-0.3
	c0.1-0.1,0.1-0.1,0.1-0.1s0.1,0,0.1,0.1c0.1,0,0.1,0.1,0.1,0.1c0.1,0,0.1,0.1,0.1,0.1c0.3,0.1,0.5,0.3,0.9,0.3
	c0.1,0.1,0.3,0.1,0.5,0.2c0.1,0,0.1,0.1,0.2,0.1c0.1,0,0.1,0.1,0.2,0.1c0.1,0.1,0.2,0.1,0.3,0.1c0.1,0,0.1,0.1,0.1,0.1
	s0.1,0.1,0.4,0.1c0.1,0,0.1,0,0.2,0.1c0.1,0,0.1,0,0.1,0c0.1,0,0.1,0,0.1,0c0.1,0,0.1,0.1,0.3,0.1c0.1,0,0.1,0,0.1,0
	c0.1,0,0.1,0,0.1,0c0.1,0,0.1,0,0.3,0.1c0.1,0,0.1,0,0.3,0.1c0.1,0,0.3,0.1,0.4,0.1c0.1,0,0.2,0,0.3,0.1c0.1,0,0.1,0,0.1,0
	s0,0.2,0.1,0.4c0.1,0.3,0.1,0.6,0.1,1c0.1,0.3,0.1,0.7,0.2,1c0.1,0.3,0.1,0.4,0.1,0.4c0.1,0.2,0.1,0.3,0.3,0.5s0.3,0.3,0.5,0.4
	c0.1,0.1,0.2,0.1,0.3,0.1c0.1,0,0.1,0.1,0.1,0.1c0.1,0,0.1,0.1,0.2,0.1c0.1,0,0.3,0.1,0.4,0.1c0.1,0,0.3,0,0.4,0c0,0,0,0,0.1,0
	c0,0,0.1,0,0.1,0c0.1,0,0.2,0,0.4,0c0.1,0,0.3,0,0.5-0.1c0.1,0,0.2,0,0.3,0c0.1,0,0.2,0,0.3,0c0.2,0,0.4-0.1,0.6-0.1
	c0.1,0,0.2,0,0.3-0.1c0.1,0,0.2,0,0.3-0.1c0.1,0,0.3-0.1,0.4-0.1c0.1,0,0.1,0,0.1,0c0.1,0,0.3-0.1,0.4-0.1c0.1-0.1,0.3-0.1,0.3-0.1
	c0.1-0.1,0.2-0.1,0.3-0.2c0.1,0,0.1-0.1,0.1-0.1c0.1-0.1,0.1-0.1,0.1-0.1c0.3-0.3,0.5-0.7,0.5-1c0,0,0-0.1,0-0.1c0-0.1,0-0.2,0-0.3
	c0-0.3,0-0.6,0-1c0-0.2,0-0.3,0-0.5c0-0.1,0-0.3,0-0.5c0-0.3-0.1-0.4-0.1-0.4s0.1,0,0.1-0.1c0.1,0,0.1,0,0.1-0.1
	c0.1,0,0.1-0.1,0.1-0.1c0.1,0,0.1-0.1,0.2-0.1c0.1,0,0.1-0.1,0.2-0.1c0.1,0,0.1,0,0.1-0.1h0.1h0.1c0.1-0.1,0.1-0.1,0.3-0.1
	c0.1,0,0.1-0.1,0.1-0.1c0.1,0,0.1-0.1,0.1-0.1c0.1-0.1,0.1-0.1,0.2-0.1c0.1-0.1,0.3-0.1,0.4-0.2c0.2-0.1,0.4-0.2,0.4-0.2
	s0.1-0.1,0.4-0.2c0.1-0.1,0.3-0.1,0.4-0.2c0.1-0.1,0.1-0.1,0.2-0.1c0.1,0,0.1-0.1,0.1-0.1c0,0,0.1,0,0.1-0.1l0.1-0.1
	c0.1-0.1,0.1-0.1,0.2-0.1c0.1,0,0.1-0.1,0.1-0.1l0.1-0.1c0.1-0.1,0.3-0.2,0.3-0.3c0.1-0.1,0.2-0.1,0.3-0.2c0.1-0.1,0.1-0.1,0.1-0.1
	s0.1,0.1,0.3,0.3c0.1,0.1,0.2,0.2,0.3,0.3c0.1,0.1,0.1,0.1,0.2,0.1c0.1,0.1,0.1,0.1,0.2,0.1c0.3,0.2,0.5,0.4,0.8,0.5
	c0.2,0.1,0.3,0.3,0.3,0.3c0.1,0.1,0.3,0.1,0.5,0.2c0.1,0,0.2,0,0.3,0c0.1,0,0.2,0,0.3-0.1c0.4-0.1,0.9-0.4,1.3-0.8
	c0,0,0.1-0.1,0.1-0.1c0.1-0.1,0.1-0.1,0.3-0.3c0.1-0.1,0.2-0.3,0.3-0.4c0.1-0.1,0.1-0.1,0.2-0.2c0.1-0.1,0.1-0.1,0.2-0.3
	c0.1-0.1,0.3-0.3,0.4-0.5c0.1-0.1,0.1-0.1,0.2-0.2c0.1-0.1,0.1-0.1,0.1-0.2c0.1-0.1,0.1-0.3,0.2-0.3c0.1-0.1,0.1-0.1,0.1-0.1
	c0.1-0.2,0.3-0.5,0.3-0.7c0-0.1,0.1-0.1,0.1-0.2v-0.1v-0.1c0-0.1,0-0.2,0.1-0.3c0-0.5-0.1-0.8-0.4-1.1c0,0-0.1-0.1-0.3-0.3
	s-0.5-0.4-0.7-0.7c-0.3-0.2-0.5-0.5-0.8-0.6c-0.1-0.1-0.2-0.1-0.3-0.2c-0.1-0.1-0.1-0.1-0.1-0.1s0-0.1,0.1-0.1
	c0-0.1,0.1-0.1,0.1-0.1s0.1-0.1,0.1-0.1c0.1-0.3,0.3-0.5,0.3-0.9c0.1-0.1,0.1-0.3,0.2-0.5c0-0.1,0.1-0.1,0.1-0.2
	c0-0.1,0.1-0.1,0.1-0.2c0.1-0.1,0.1-0.2,0.1-0.3c0-0.1,0.1-0.1,0.1-0.1s0.1-0.1,0.1-0.4c0-0.1,0-0.1,0.1-0.2c0-0.1,0-0.1,0-0.1
	c0-0.1,0-0.1,0-0.1c0-0.1,0.1-0.1,0.1-0.3c0-0.1,0-0.1,0-0.1c0-0.1,0-0.1,0-0.1c0-0.1,0.1-0.1,0.1-0.3c0-0.1,0-0.1,0.1-0.3
	c0-0.1,0.1-0.3,0.1-0.4c0-0.1,0-0.2,0.1-0.3c0-0.1,0-0.1,0-0.1s0.2,0,0.4-0.1c0.3-0.1,0.6-0.1,1-0.1c0.3-0.1,0.7-0.1,1-0.2
	c0.3-0.1,0.4-0.1,0.4-0.1c0.2-0.1,0.3-0.1,0.5-0.3c0.1-0.1,0.3-0.3,0.4-0.5c0.1-0.1,0.1-0.2,0.1-0.3c0-0.1,0.1-0.1,0.1-0.1
	c0-0.1,0.1-0.1,0.1-0.2c0-0.1,0.1-0.3,0.1-0.4s0-0.3,0-0.4c0,0,0,0,0-0.1c0,0,0-0.1,0-0.1c0-0.1,0-0.2,0-0.4c0-0.1,0-0.3-0.1-0.5
	c0-0.1,0-0.2,0-0.3c0-0.1,0-0.2,0-0.3c0-0.2-0.1-0.4-0.1-0.6c0-0.1,0-0.2-0.1-0.3c0-0.1,0-0.2-0.1-0.3c0-0.1-0.1-0.3-0.1-0.4
	c0-0.1,0-0.1,0-0.1c0-0.1-0.1-0.3-0.1-0.4c-0.1-0.1-0.1-0.3-0.1-0.3c-0.1-0.1-0.1-0.2-0.2-0.3C98.2,462.1,98.2,462.1,98.1,462.1z
	 M88.7,470.5c0,0.1-0.1,0.1-0.1,0.3c-0.1,0.2-0.2,0.5-0.3,1c0,0.1-0.1,0.1-0.1,0.1v0.1c0,0,0,0.1-0.1,0.1c0,0.1-0.1,0.1-0.1,0.1
	c0,0.1-0.1,0.1-0.1,0.1c-0.1,0.1-0.1,0.2-0.1,0.3c0,0.1-0.1,0.1-0.1,0.1s0,0.1-0.1,0.1c0,0,0,0.1-0.1,0.1c-0.3,0.5-0.5,0.9-0.9,1.3
	c-0.3,0.4-0.8,0.8-1.1,1.2c-0.4,0.3-0.8,0.7-1.1,0.9c-0.1,0.1-0.3,0.2-0.5,0.3c-0.1,0.1-0.1,0.1-0.2,0.1c-0.1,0.1-0.1,0.1-0.2,0.1
	c0,0-0.1,0-0.1,0.1c0,0-0.1,0-0.1,0.1c-0.1,0-0.1,0.1-0.1,0.1c-0.1,0-0.1,0.1-0.1,0.1s0,0-0.1,0.1c0,0-0.1,0.1-0.1,0.1
	c0,0-0.1,0-0.1,0.1c0,0-0.1,0-0.1,0.1c-0.1,0-0.1,0.1-0.2,0.1c-0.1,0-0.1,0.1-0.2,0.1c-0.1,0.1-0.3,0.1-0.5,0.2
	c-0.4,0.1-0.8,0.3-1.4,0.4c-0.5,0.1-1,0.2-1.6,0.3c-0.5,0.1-1.1,0.1-1.6,0.1h-0.1h-0.1c-0.1,0-0.1,0-0.2,0c-0.1,0-0.3,0-0.3,0
	c-0.1,0-0.1,0-0.2,0c-0.1,0-0.1,0-0.1,0h-0.1h-0.1c-0.1,0-0.1,0-0.1,0c-0.4-0.1-0.8-0.1-1-0.2c-0.1,0-0.2-0.1-0.3-0.1
	c-0.1,0-0.1,0-0.1,0s0,0-0.1,0c-0.1,0-0.1-0.1-0.3-0.1c-0.2-0.1-0.5-0.2-1-0.3c-0.1,0-0.1-0.1-0.1-0.1h-0.1c0,0-0.1,0-0.1-0.1
	c-0.1,0-0.1-0.1-0.1-0.1c-0.1,0-0.1-0.1-0.1-0.1c-0.1-0.1-0.2-0.1-0.3-0.1c-0.1,0-0.1-0.1-0.1-0.1s-0.1,0-0.1-0.1c0,0-0.1,0-0.1-0.1
	c-0.5-0.3-0.9-0.5-1.3-0.9c-0.4-0.3-0.8-0.8-1.2-1.1c-0.3-0.4-0.7-0.8-0.9-1.1c-0.1-0.1-0.2-0.3-0.3-0.5c-0.1-0.1-0.1-0.1-0.1-0.2
	c-0.1-0.1-0.1-0.1-0.1-0.2c0,0,0-0.1-0.1-0.1c0,0,0-0.1-0.1-0.1c0-0.1-0.1-0.1-0.1-0.1c0-0.1-0.1-0.1-0.1-0.1s0,0-0.1-0.1
	c0,0-0.1-0.1-0.1-0.1c0,0,0-0.1-0.1-0.1c0,0,0-0.1-0.1-0.1c0-0.1-0.1-0.1-0.1-0.2s-0.1-0.1-0.1-0.2c-0.1-0.1-0.1-0.3-0.2-0.5
	c-0.1-0.4-0.3-0.8-0.4-1.4c-0.1-0.5-0.2-1-0.3-1.6c-0.1-0.5-0.1-1.1-0.1-1.6v-0.1v-0.1c0-0.1,0-0.1,0-0.2c0-0.1,0-0.3,0-0.3
	c0-0.1,0-0.1,0-0.2c0-0.1,0-0.1,0-0.1v-0.1v-0.1c0-0.1,0-0.1,0-0.1c0.1-0.4,0.1-0.8,0.2-1c0-0.1,0.1-0.2,0.1-0.3c0-0.1,0-0.1,0-0.1
	s0,0,0-0.1s0.1-0.1,0.1-0.3c0.1-0.2,0.2-0.5,0.3-1c0-0.1,0.1-0.1,0.1-0.1v-0.1c0,0,0-0.1,0.1-0.1c0-0.1,0.1-0.1,0.1-0.1
	c0-0.1,0.1-0.1,0.1-0.1c0.1-0.1,0.1-0.2,0.1-0.3c0-0.1,0.1-0.1,0.1-0.1s0-0.1,0.1-0.1c0,0,0-0.1,0.1-0.1c0.3-0.5,0.5-0.9,0.9-1.3
	c0.3-0.4,0.8-0.8,1.1-1.2c0.4-0.3,0.8-0.7,1.1-0.9c0.1-0.1,0.3-0.2,0.5-0.3c0.1-0.1,0.1-0.1,0.2-0.1c0.1-0.1,0.1-0.1,0.2-0.1
	c0,0,0.1,0,0.1-0.1c0,0,0.1,0,0.1-0.1c0.1,0,0.1-0.1,0.1-0.1s0.1-0.1,0.1-0.1s0,0,0.1-0.1c0,0,0.1-0.1,0.1-0.1c0,0,0.1,0,0.1-0.1
	c0,0,0.1,0,0.1-0.1c0.1,0,0.1-0.1,0.2-0.1c0.1,0,0.1-0.1,0.2-0.1c0.1-0.1,0.3-0.1,0.5-0.2c0.4-0.1,0.8-0.3,1.4-0.4
	c0.5-0.1,1-0.2,1.6-0.3c0.5-0.1,1.1-0.1,1.6-0.1h0.1h0.1c0.1,0,0.1,0,0.2,0c0.1,0,0.3,0,0.3,0s0.1,0,0.2,0c0.1,0,0.1,0,0.1,0h0.1
	h0.1c0.1,0,0.1,0,0.1,0c0.4,0.1,0.8,0.1,1,0.2c0.1,0,0.2,0.1,0.3,0.1c0.1,0,0.1,0,0.1,0s0,0,0.1,0c0.1,0,0.1,0.1,0.3,0.1
	c0.2,0.1,0.5,0.2,1,0.3c0.1,0,0.1,0.1,0.1,0.1h0.1c0,0,0.1,0,0.1,0.1c0.1,0,0.1,0.1,0.1,0.1c0.1,0,0.1,0.1,0.1,0.1
	c0.1,0.1,0.2,0.1,0.3,0.1c0.1,0,0.1,0.1,0.1,0.1s0.1,0,0.1,0.1c0,0,0.1,0,0.1,0.1c0.5,0.3,0.9,0.5,1.3,0.9c0.4,0.3,0.8,0.8,1.2,1.1
	c0.3,0.4,0.7,0.8,0.9,1.1c0.1,0.1,0.2,0.3,0.3,0.5c0.1,0.1,0.1,0.1,0.1,0.2c0.1,0.1,0.1,0.1,0.1,0.2c0,0,0,0.1,0.1,0.1
	c0,0,0,0.1,0.1,0.1c0,0.1,0.1,0.1,0.1,0.1c0,0.1,0.1,0.1,0.1,0.1s0,0,0.1,0.1c0,0,0.1,0.1,0.1,0.1c0,0,0,0.1,0.1,0.1
	c0,0,0,0.1,0.1,0.1c0,0.1,0.1,0.1,0.1,0.2s0.1,0.1,0.1,0.2c0.1,0.1,0.1,0.3,0.2,0.5c0.1,0.4,0.3,0.8,0.4,1.4c0.1,0.5,0.2,1,0.3,1.6
	c0.1,0.5,0.1,1.1,0.1,1.6v0.1v0.1c0,0.1,0,0.1,0,0.2c0,0.1,0,0.3,0,0.3c0,0.1,0,0.1,0,0.2c0,0.1,0,0.1,0,0.1v0.1v0.1
	c0,0.1,0,0.1,0,0.1c-0.1,0.4-0.1,0.8-0.2,1c0,0.1-0.1,0.2-0.1,0.3C88.7,470.4,88.7,470.4,88.7,470.5
	C88.7,470.4,88.7,470.4,88.7,470.5z"/>
<path class="st10" d="M523.7,441.8c0.1,0,0.1,0,0.1,0c0.4,0,0.8-0.1,1-0.4c0,0,0,0,0.1-0.1c0.1-0.1,0.1-0.1,0.2-0.2
	c0.1-0.2,0.4-0.5,0.6-0.8c0.1-0.1,0.2-0.3,0.3-0.4c0.1-0.1,0.2-0.3,0.3-0.3c0.1-0.2,0.3-0.3,0.3-0.3s0.1,0,0.1,0.1
	c0.1,0,0.1,0,0.1,0.1c0.1,0,0.1,0.1,0.1,0.1c0.1,0,0.1,0.1,0.2,0.1c0.1,0,0.1,0.1,0.2,0.1c0.1,0,0.1,0,0.1,0.1h0.1h0.1
	c0.1,0,0.1,0.1,0.3,0.1c0.1,0,0.1,0,0.1,0.1c0.1,0,0.1,0,0.1,0.1c0.1,0,0.1,0.1,0.2,0.1c0.1,0.1,0.3,0.1,0.4,0.1
	c0.3,0.1,0.4,0.1,0.4,0.1s0.1,0.1,0.4,0.1c0.1,0,0.3,0.1,0.4,0.1c0.1,0,0.1,0,0.2,0.1c0.1,0,0.1,0,0.1,0h0.1h0.1c0.1,0,0.1,0,0.3,0
	c0.1,0,0.1,0,0.1,0c0.1,0,0.1,0,0.1,0c0.1,0,0.3,0,0.4,0.1c0.1,0,0.2,0,0.3,0c0.1,0,0.1,0,0.1,0s0,0.1,0.1,0.4
	c0,0.1,0.1,0.3,0.1,0.4c0,0.1,0.1,0.1,0.1,0.3c0,0.1,0.1,0.1,0.1,0.3c0.1,0.3,0.1,0.7,0.2,0.9c0.1,0.3,0.1,0.4,0.1,0.4
	c0.1,0.1,0.1,0.3,0.3,0.5c0.1,0.1,0.1,0.1,0.2,0.2c0.1,0.1,0.1,0.1,0.3,0.1c0.4,0.2,0.9,0.3,1.4,0.3c0,0,0.1,0,0.1,0
	c0.1,0,0.2,0,0.3-0.1c0.1,0,0.3-0.1,0.5-0.1c0.1,0,0.2,0,0.3-0.1c0.1,0,0.2,0,0.3-0.1c0.2,0,0.4-0.1,0.6-0.1c0.1,0,0.2-0.1,0.3-0.1
	c0.1,0,0.1-0.1,0.3-0.1c0.1-0.1,0.3-0.1,0.3-0.1c0.1,0,0.1,0,0.1,0c0.3-0.1,0.5-0.1,0.7-0.3c0.1,0,0.1-0.1,0.1-0.1s0.1,0,0.1-0.1
	l0.1-0.1c0.1-0.1,0.2-0.1,0.3-0.2c0.3-0.3,0.5-0.7,0.4-1c0,0,0-0.1,0-0.4c0-0.3-0.1-0.6-0.1-1c-0.1-0.3-0.1-0.7-0.1-1
	c0-0.1,0-0.2-0.1-0.3c0-0.1,0-0.1,0-0.1s0.1,0,0.1-0.1c0.1,0,0.1,0,0.1-0.1c0.1,0,0.1-0.1,0.1-0.1c0.2-0.1,0.5-0.3,0.8-0.4
	c0.1-0.1,0.3-0.1,0.5-0.3c0.1-0.1,0.1-0.1,0.2-0.1c0.1-0.1,0.1-0.1,0.2-0.1c0.1-0.1,0.2-0.1,0.3-0.1c0.1-0.1,0.1-0.1,0.1-0.1
	s0.1-0.1,0.3-0.2c0.1-0.1,0.1-0.1,0.1-0.1l0.1-0.1l0.1-0.1c0.1-0.1,0.1-0.1,0.2-0.1l0.1-0.1l0.1-0.1c0.1-0.1,0.1-0.1,0.2-0.1
	c0.1-0.1,0.1-0.1,0.2-0.1c0.1-0.1,0.2-0.2,0.3-0.3c0.1-0.1,0.2-0.1,0.2-0.2c0.1-0.1,0.1-0.1,0.1-0.1s0.1,0.1,0.3,0.2
	c0.2,0.1,0.5,0.3,0.8,0.5c0.3,0.2,0.6,0.3,0.8,0.5c0.2,0.1,0.3,0.2,0.3,0.2c0.1,0.1,0.3,0.1,0.5,0.1c0.2,0,0.4,0,0.6-0.1
	c0.1,0,0.2-0.1,0.3-0.1c0.1,0,0.1-0.1,0.1-0.1c0.1,0,0.1-0.1,0.1-0.1c0.1-0.1,0.2-0.1,0.3-0.2c0.1-0.1,0.2-0.2,0.3-0.3l0.1-0.1
	c0.1-0.1,0.1-0.1,0.2-0.3c0.1-0.1,0.2-0.3,0.3-0.4c0.1-0.1,0.1-0.1,0.2-0.3c0.1-0.1,0.1-0.1,0.2-0.3c0.1-0.1,0.2-0.3,0.3-0.5
	c0.1-0.1,0.1-0.1,0.1-0.2c0.1-0.1,0.1-0.1,0.1-0.2c0.1-0.1,0.1-0.3,0.2-0.3c0.1-0.1,0.1-0.1,0.1-0.1c0.1-0.1,0.1-0.2,0.2-0.3
	c0.1-0.1,0.1-0.2,0.1-0.3c0-0.1,0.1-0.2,0.1-0.3c0-0.1,0-0.1,0-0.1c0-0.1,0-0.1,0-0.1c0-0.4-0.1-0.8-0.4-1c0,0,0,0-0.1-0.1
	c-0.1-0.1-0.1-0.1-0.2-0.2c-0.2-0.1-0.5-0.4-0.8-0.6c-0.1-0.1-0.3-0.2-0.4-0.3c-0.1-0.1-0.3-0.2-0.3-0.3c-0.2-0.1-0.3-0.3-0.3-0.3
	s0-0.1,0.1-0.1c0-0.1,0-0.1,0.1-0.1c0-0.1,0.1-0.1,0.1-0.1c0-0.1,0.1-0.1,0.1-0.2c0-0.1,0.1-0.1,0.1-0.2c0-0.1,0-0.1,0.1-0.1v-0.1
	V429c0-0.1,0.1-0.1,0.1-0.3c0-0.1,0-0.1,0.1-0.1c0-0.1,0-0.1,0.1-0.1c0-0.1,0.1-0.1,0.1-0.2c0.1-0.1,0.1-0.3,0.1-0.4
	c0.1-0.3,0.1-0.4,0.1-0.4s0.1-0.1,0.1-0.4c0-0.1,0.1-0.3,0.1-0.4c0-0.1,0-0.1,0.1-0.2c0-0.1,0-0.1,0-0.1v-0.1v-0.1
	c0-0.1,0-0.1,0-0.3c0-0.1,0-0.1,0-0.1c0-0.1,0-0.1,0-0.1c0-0.1,0-0.3,0.1-0.4c0-0.1,0-0.2,0-0.3c0-0.1,0-0.1,0-0.1s0.1,0,0.4-0.1
	c0.1,0,0.3-0.1,0.4-0.1c0.1,0,0.1-0.1,0.3-0.1c0.1,0,0.1-0.1,0.3-0.1c0.3-0.1,0.7-0.1,0.9-0.2c0.3-0.1,0.4-0.1,0.4-0.1
	c0.1-0.1,0.3-0.1,0.5-0.3c0.1-0.1,0.1-0.1,0.2-0.2c0.1-0.1,0.1-0.1,0.1-0.3c0.2-0.4,0.3-0.9,0.3-1.4c0,0,0-0.1,0-0.1
	c0-0.1,0-0.2-0.1-0.3c0-0.1-0.1-0.3-0.1-0.5c0-0.1,0-0.2-0.1-0.3c0-0.1,0-0.2-0.1-0.3c0-0.2-0.1-0.4-0.1-0.6c0-0.1-0.1-0.2-0.1-0.3
	c0-0.1-0.1-0.1-0.1-0.3c-0.1-0.1-0.1-0.3-0.1-0.3c0-0.1,0-0.1,0-0.1c-0.1-0.3-0.1-0.5-0.3-0.7c0-0.1-0.1-0.1-0.1-0.1s0-0.1-0.1-0.1
	l-0.1-0.1c-0.1-0.1-0.1-0.2-0.2-0.3c-0.3-0.3-0.7-0.5-1-0.4c0,0-0.1,0-0.4,0c-0.3,0-0.6,0.1-1,0.1c-0.3,0.1-0.7,0.1-1,0.1
	c-0.1,0-0.2,0-0.3,0.1c-0.1,0-0.1,0-0.1,0s0-0.1-0.1-0.1c0-0.1,0-0.1-0.1-0.1c0-0.1-0.1-0.1-0.1-0.1c-0.1-0.2-0.3-0.5-0.4-0.8
	c-0.1-0.1-0.1-0.3-0.3-0.4c-0.1-0.1-0.1-0.1-0.1-0.2c-0.1-0.1-0.1-0.1-0.1-0.2c-0.1-0.1-0.1-0.2-0.1-0.3c-0.1-0.1-0.1-0.1-0.1-0.1
	s-0.1-0.1-0.2-0.3c-0.1-0.1-0.1-0.1-0.1-0.1l-0.1-0.1l-0.1-0.1c-0.1-0.1-0.1-0.1-0.1-0.2l-0.1-0.1L546,414c-0.1-0.1-0.1-0.1-0.1-0.2
	c-0.1-0.1-0.1-0.1-0.1-0.2c-0.1-0.1-0.2-0.2-0.3-0.3c-0.1-0.1-0.1-0.2-0.2-0.2c-0.1-0.1-0.1-0.1-0.1-0.1s0.1-0.1,0.2-0.3
	c0.1-0.2,0.3-0.5,0.5-0.8c0.2-0.3,0.3-0.6,0.5-0.8c0.1-0.2,0.2-0.3,0.2-0.3c0.1-0.1,0.1-0.3,0.1-0.5s0-0.4-0.1-0.6
	c0-0.1-0.1-0.2-0.1-0.3c0-0.1-0.1-0.1-0.1-0.1c0-0.1-0.1-0.1-0.1-0.1c-0.1-0.1-0.1-0.2-0.2-0.3c-0.1-0.1-0.2-0.2-0.3-0.3l-0.1-0.1
	c-0.1-0.1-0.1-0.1-0.3-0.2c-0.1-0.1-0.3-0.2-0.4-0.3c-0.1-0.1-0.1-0.1-0.3-0.2c-0.1-0.1-0.1-0.1-0.3-0.2c-0.1-0.1-0.3-0.2-0.5-0.3
	c-0.1-0.1-0.1-0.1-0.2-0.1c-0.1-0.1-0.1-0.1-0.2-0.1c-0.1-0.1-0.3-0.1-0.3-0.2c-0.1-0.1-0.1-0.1-0.1-0.1c-0.1-0.1-0.2-0.1-0.3-0.2
	c-0.1-0.1-0.2-0.1-0.3-0.1c-0.1,0-0.2-0.1-0.3-0.1c-0.1,0-0.1,0-0.1,0c-0.1,0-0.1,0-0.1,0c-0.4,0-0.8,0.1-1,0.4c0,0,0,0-0.1,0.1
	c-0.1,0.1-0.1,0.1-0.2,0.2c-0.1,0.2-0.4,0.5-0.6,0.8c-0.1,0.1-0.2,0.3-0.3,0.4c-0.1,0.1-0.2,0.3-0.3,0.3c-0.1,0.2-0.3,0.3-0.3,0.3
	s-0.1,0-0.1-0.1c-0.1,0-0.1,0-0.1-0.1c-0.1,0-0.1-0.1-0.1-0.1s-0.1-0.1-0.2-0.1c-0.1,0-0.1-0.1-0.2-0.1c-0.1,0-0.1,0-0.1-0.1h-0.1
	H538c-0.1,0-0.1-0.1-0.3-0.1c-0.1,0-0.1,0-0.1-0.1c-0.1,0-0.1,0-0.1-0.1c-0.1,0-0.1-0.1-0.2-0.1c-0.1-0.1-0.3-0.1-0.4-0.1
	c-0.3-0.1-0.4-0.1-0.4-0.1s-0.1-0.1-0.4-0.1c-0.1,0-0.3-0.1-0.4-0.1c-0.1,0-0.1,0-0.2-0.1c-0.1,0-0.1,0-0.1,0h-0.1h-0.1
	c-0.1,0-0.1,0-0.3,0c-0.1,0-0.1,0-0.1,0c-0.1,0-0.1,0-0.1,0c-0.1,0-0.3,0-0.4-0.1c-0.1,0-0.2,0-0.3,0c-0.1,0-0.1,0-0.1,0
	s0-0.1-0.1-0.4c0-0.1-0.1-0.3-0.1-0.4c0-0.1-0.1-0.1-0.1-0.3c0-0.1-0.1-0.1-0.1-0.3c-0.1-0.3-0.1-0.7-0.2-0.9
	c-0.1-0.3-0.1-0.4-0.1-0.4c-0.1-0.1-0.1-0.3-0.3-0.5c-0.1-0.1-0.1-0.1-0.2-0.2c-0.1-0.1-0.1-0.1-0.3-0.1c-0.4-0.2-0.9-0.3-1.4-0.3
	c0,0-0.1,0-0.1,0c-0.1,0-0.2,0-0.3,0.1c-0.1,0-0.3,0.1-0.5,0.1c-0.1,0-0.2,0-0.3,0.1c-0.1,0-0.2,0-0.3,0.1c-0.2,0-0.4,0.1-0.6,0.1
	c-0.1,0-0.2,0.1-0.3,0.1c-0.1,0-0.1,0.1-0.3,0.1c-0.1,0.1-0.3,0.1-0.3,0.1c-0.1,0-0.1,0-0.1,0c-0.3,0.1-0.5,0.1-0.7,0.3
	c-0.1,0-0.1,0.1-0.1,0.1s-0.1,0-0.1,0.1l-0.1,0.1c-0.1,0.1-0.2,0.1-0.3,0.2c-0.3,0.3-0.5,0.7-0.4,1c0,0,0,0.1,0,0.4
	c0,0.3,0.1,0.6,0.1,1c0.1,0.3,0.1,0.7,0.1,1c0,0.1,0,0.2,0.1,0.3c0,0.1,0,0.1,0,0.1s-0.1,0-0.1,0.1c-0.1,0-0.1,0-0.1,0.1
	c-0.1,0-0.1,0.1-0.1,0.1c-0.2,0.1-0.5,0.3-0.8,0.4c-0.1,0.1-0.3,0.1-0.5,0.3c-0.1,0.1-0.1,0.1-0.2,0.1c-0.1,0.1-0.1,0.1-0.2,0.1
	c-0.1,0.1-0.2,0.1-0.3,0.1c-0.1,0.1-0.1,0.1-0.1,0.1s-0.1,0.1-0.3,0.2c-0.1,0.1-0.1,0.1-0.1,0.1l-0.1,0.1l-0.1,0.1
	c-0.1,0.1-0.1,0.1-0.2,0.1l-0.1,0.1l-0.1,0.1c-0.1,0.1-0.1,0.1-0.2,0.1c-0.1,0.1-0.1,0.1-0.2,0.1c-0.1,0.1-0.2,0.2-0.3,0.3
	c-0.1,0.1-0.2,0.1-0.2,0.2c-0.1,0.1-0.1,0.1-0.1,0.1s-0.1-0.1-0.3-0.2c-0.2-0.1-0.5-0.3-0.8-0.5c-0.3-0.2-0.6-0.3-0.8-0.5
	c-0.2-0.1-0.3-0.2-0.3-0.2c-0.1-0.1-0.3-0.1-0.5-0.1s-0.4,0-0.6,0.1c-0.1,0-0.2,0.1-0.3,0.1c-0.1,0-0.1,0.1-0.1,0.1
	c-0.1,0-0.1,0.1-0.1,0.1c-0.1,0.1-0.2,0.1-0.3,0.2c-0.1,0.1-0.2,0.2-0.3,0.3l-0.1,0.1c-0.1,0.1-0.1,0.1-0.2,0.3
	c-0.1,0.1-0.2,0.3-0.3,0.4c-0.1,0.1-0.1,0.1-0.2,0.3c-0.1,0.1-0.1,0.1-0.2,0.3c-0.1,0.1-0.2,0.3-0.3,0.5c-0.1,0.1-0.1,0.1-0.1,0.2
	c-0.1,0.1-0.1,0.1-0.1,0.2c-0.1,0.1-0.1,0.3-0.2,0.3c-0.1,0.1-0.1,0.1-0.1,0.1c-0.1,0.1-0.1,0.2-0.2,0.3c-0.1,0.1-0.1,0.2-0.1,0.3
	c0,0.1-0.1,0.2-0.1,0.3c0,0.1,0,0.1,0,0.1c0,0.1,0,0.1,0,0.1c0,0.4,0.1,0.8,0.4,1c0,0,0,0,0.1,0.1c0.1,0.1,0.1,0.1,0.2,0.2
	c0.2,0.1,0.5,0.4,0.8,0.6c0.1,0.1,0.3,0.2,0.4,0.3c0.1,0.1,0.3,0.2,0.3,0.3c0.2,0.1,0.3,0.3,0.3,0.3s0,0.1-0.1,0.1
	c0,0.1,0,0.1-0.1,0.1c0,0.1-0.1,0.1-0.1,0.1c0,0.1-0.1,0.1-0.1,0.2c0,0.1-0.1,0.1-0.1,0.2c0,0.1,0,0.1-0.1,0.1v0.1v0.1
	c0,0.1-0.1,0.1-0.1,0.3c0,0.1,0,0.1-0.1,0.1c0,0.1,0,0.1-0.1,0.1c0,0.1-0.1,0.1-0.1,0.2c-0.1,0.1-0.1,0.3-0.1,0.4
	c-0.1,0.3-0.1,0.4-0.1,0.4s-0.1,0.1-0.1,0.4c0,0.1-0.1,0.3-0.1,0.4c0,0.1,0,0.1-0.1,0.2c0,0.1,0,0.1,0,0.1v0.1v0.1
	c0,0.1,0,0.1,0,0.3c0,0.1,0,0.1,0,0.1c0,0.1,0,0.1,0,0.1c0,0.1,0,0.3-0.1,0.4c0,0.1,0,0.2,0,0.3c0,0.1,0,0.1,0,0.1s-0.1,0-0.4,0.1
	c-0.1,0-0.3,0.1-0.4,0.1c-0.1,0-0.1,0.1-0.3,0.1c-0.1,0-0.1,0.1-0.3,0.1c-0.3,0.1-0.7,0.1-0.9,0.2c-0.3,0.1-0.4,0.1-0.4,0.1
	c-0.1,0.1-0.3,0.1-0.5,0.3c-0.1,0.1-0.1,0.1-0.2,0.2c-0.1,0.1-0.1,0.1-0.1,0.3c-0.2,0.4-0.3,0.9-0.3,1.4c0,0,0,0.1,0,0.1
	c0,0.1,0,0.2,0.1,0.3c0,0.1,0.1,0.3,0.1,0.5c0,0.1,0,0.2,0.1,0.3c0,0.1,0,0.2,0.1,0.3c0,0.2,0.1,0.4,0.1,0.6c0,0.1,0.1,0.2,0.1,0.3
	c0,0.1,0.1,0.1,0.1,0.3c0.1,0.1,0.1,0.3,0.1,0.3c0,0.1,0,0.1,0,0.1c0.1,0.3,0.1,0.5,0.3,0.7c0,0.1,0.1,0.1,0.1,0.1s0,0.1,0.1,0.1
	l0.1,0.1c0.1,0.1,0.1,0.2,0.2,0.3c0.3,0.3,0.7,0.5,1,0.4c0,0,0.1,0,0.4,0c0.3,0,0.6-0.1,1-0.1c0.3-0.1,0.7-0.1,1-0.1
	c0.1,0,0.2,0,0.3-0.1c0.1,0,0.1,0,0.1,0s0,0.1,0.1,0.1c0,0.1,0,0.1,0.1,0.1c0,0.1,0.1,0.1,0.1,0.1c0.1,0.2,0.3,0.5,0.4,0.8
	c0.1,0.1,0.1,0.3,0.3,0.5c0.1,0.1,0.1,0.1,0.1,0.2c0.1,0.1,0.1,0.1,0.1,0.2c0.1,0.1,0.1,0.2,0.1,0.3c0.1,0.1,0.1,0.1,0.1,0.1
	s0.1,0.1,0.2,0.3c0.1,0.1,0.1,0.1,0.1,0.1l0.1,0.1l0.1,0.1c0.1,0.1,0.1,0.1,0.1,0.2l0.1,0.1l0.1,0.1c0.1,0.1,0.1,0.1,0.1,0.2
	c0.1,0.1,0.1,0.1,0.1,0.2c0.1,0.1,0.2,0.2,0.3,0.3c0.1,0.1,0.1,0.2,0.2,0.2c0.1,0.1,0.1,0.1,0.1,0.1s-0.1,0.1-0.2,0.3
	c-0.1,0.2-0.3,0.5-0.5,0.8c-0.2,0.3-0.3,0.6-0.5,0.8c-0.1,0.2-0.2,0.3-0.2,0.3c-0.1,0.1-0.1,0.3-0.1,0.5s0,0.4,0.1,0.6
	c0,0.1,0.1,0.2,0.1,0.3c0,0.1,0.1,0.1,0.1,0.1c0,0.1,0.1,0.1,0.1,0.1c0.1,0.1,0.1,0.2,0.2,0.3c0.1,0.1,0.2,0.2,0.3,0.3l0.1,0.1
	c0.1,0.1,0.1,0.1,0.3,0.2c0.1,0.1,0.3,0.2,0.4,0.3c0.1,0.1,0.1,0.1,0.3,0.2c0.1,0.1,0.1,0.1,0.3,0.2c0.1,0.1,0.3,0.2,0.5,0.3
	c0.1,0.1,0.1,0.1,0.2,0.1c0.1,0.1,0.1,0.1,0.2,0.1c0.1,0.1,0.3,0.1,0.3,0.2c0.1,0.1,0.1,0.1,0.1,0.1c0.1,0.1,0.2,0.1,0.3,0.2
	c0.1,0.1,0.2,0.1,0.3,0.1c0.1,0,0.2,0.1,0.3,0.1C523.6,441.8,523.7,441.8,523.7,441.8z M523.7,429.6c0-0.1-0.1-0.1-0.1-0.2
	c-0.1-0.2-0.3-0.5-0.5-0.8c0-0.1-0.1-0.1-0.1-0.1v-0.1v-0.1c0-0.1-0.1-0.1-0.1-0.1c0-0.1-0.1-0.1-0.1-0.1c-0.1-0.1-0.1-0.2-0.1-0.3
	c0-0.1-0.1-0.1-0.1-0.2v-0.1v-0.1c-0.1-0.5-0.3-1-0.3-1.5c-0.1-0.5-0.1-1-0.1-1.6c0-0.5,0-1,0.1-1.4c0-0.2,0.1-0.4,0.1-0.5
	c0-0.1,0-0.1,0.1-0.2c0-0.1,0-0.1,0.1-0.2v-0.1v-0.1c0-0.1,0-0.1,0-0.1c0-0.1,0-0.1,0-0.1s0,0,0-0.1c0,0,0-0.1,0-0.1v-0.1v-0.1
	c0-0.1,0-0.1,0.1-0.2c0-0.1,0.1-0.1,0.1-0.2c0.1-0.1,0.1-0.3,0.1-0.5c0.1-0.3,0.3-0.8,0.5-1.2c0.2-0.4,0.5-0.9,0.8-1.3
	c0.3-0.4,0.6-0.8,1-1.2l0.1-0.1l0.1-0.1c0.1-0.1,0.1-0.1,0.1-0.1c0.1-0.1,0.1-0.1,0.3-0.3c0.1-0.1,0.1-0.1,0.1-0.1
	c0.1-0.1,0.1-0.1,0.1-0.1l0.1-0.1c0,0,0.1,0,0.1-0.1c0.1,0,0.1-0.1,0.1-0.1c0.3-0.3,0.5-0.5,0.8-0.5c0.1-0.1,0.2-0.1,0.2-0.1
	c0.1,0,0.1-0.1,0.1-0.1s0,0,0.1-0.1c0.1,0,0.1-0.1,0.2-0.1c0.2-0.1,0.5-0.3,0.8-0.5c0.1,0,0.1-0.1,0.1-0.1h0.1h0.1
	c0.1,0,0.1-0.1,0.1-0.1c0.1,0,0.1-0.1,0.1-0.1c0.1-0.1,0.2-0.1,0.3-0.1c0.1,0,0.1-0.1,0.2-0.1h0.1h0.1c0.5-0.1,1-0.3,1.5-0.3
	c0.5-0.1,1-0.1,1.6-0.1c0.5,0,1,0,1.4,0.1c0.2,0,0.4,0.1,0.5,0.1c0.1,0,0.1,0,0.2,0.1c0.1,0,0.1,0,0.2,0.1h0.1h0.1
	c0.1,0,0.1,0,0.1,0c0.1,0,0.1,0,0.1,0s0,0,0.1,0c0,0,0.1,0,0.1,0h0.1h0.1c0.1,0,0.1,0,0.2,0.1c0.1,0,0.1,0.1,0.2,0.1
	c0.1,0.1,0.3,0.1,0.5,0.1c0.3,0.1,0.8,0.3,1.2,0.5c0.4,0.2,0.9,0.5,1.3,0.8c0.4,0.3,0.8,0.6,1.2,1l0.1,0.1l0.1,0.1
	c0.1,0.1,0.1,0.1,0.1,0.1c0.1,0.1,0.1,0.1,0.3,0.3c0.1,0.1,0.1,0.1,0.1,0.1c0.1,0.1,0.1,0.1,0.1,0.1l0.1,0.1c0,0,0,0.1,0.1,0.1
	c0,0.1,0.1,0.1,0.1,0.1c0.3,0.3,0.5,0.5,0.5,0.8c0.1,0.1,0.1,0.2,0.1,0.2c0,0.1,0.1,0.1,0.1,0.1s0,0,0.1,0.1c0,0.1,0.1,0.1,0.1,0.2
	c0.1,0.2,0.3,0.5,0.5,0.8c0,0.1,0.1,0.1,0.1,0.1v0.1v0.1c0,0.1,0.1,0.1,0.1,0.1s0.1,0.1,0.1,0.1c0.1,0.1,0.1,0.2,0.1,0.3
	c0,0.1,0.1,0.1,0.1,0.2v0.1v0.1c0.1,0.5,0.3,1,0.3,1.5c0.1,0.5,0.1,1,0.1,1.6c0,0.5,0,1-0.1,1.4c0,0.2-0.1,0.4-0.1,0.5
	c0,0.1,0,0.1-0.1,0.2c0,0.1,0,0.1-0.1,0.2v0.1v0.1c0,0.1,0,0.1,0,0.1c0,0.1,0,0.1,0,0.1s0,0,0,0.1c0,0,0,0.1,0,0.1v0.1v0.1
	c0,0.1,0,0.1-0.1,0.2c0,0.1-0.1,0.1-0.1,0.2c-0.1,0.1-0.1,0.3-0.1,0.5c-0.1,0.3-0.3,0.8-0.5,1.2c-0.2,0.4-0.5,0.9-0.8,1.3
	c-0.3,0.4-0.6,0.8-1,1.2l-0.1,0.1l-0.1,0.1c-0.1,0.1-0.1,0.1-0.1,0.1c-0.1,0.1-0.1,0.1-0.3,0.3c-0.1,0.1-0.1,0.1-0.1,0.1
	c-0.1,0.1-0.1,0.1-0.1,0.1l-0.1,0.1c0,0-0.1,0-0.1,0.1c-0.1,0-0.1,0.1-0.1,0.1c-0.3,0.3-0.5,0.5-0.8,0.5c-0.1,0.1-0.2,0.1-0.2,0.1
	c-0.1,0-0.1,0.1-0.1,0.1s0,0-0.1,0.1c-0.1,0-0.1,0.1-0.2,0.1c-0.2,0.1-0.5,0.3-0.8,0.5c-0.1,0-0.1,0.1-0.1,0.1h-0.1h-0.1
	c-0.1,0-0.1,0.1-0.1,0.1c-0.1,0-0.1,0.1-0.1,0.1c-0.1,0.1-0.2,0.1-0.3,0.1c-0.1,0-0.1,0.1-0.2,0.1h-0.1h-0.1c-0.5,0.1-1,0.3-1.5,0.3
	c-0.5,0.1-1,0.1-1.6,0.1c-0.5,0-1,0-1.4-0.1c-0.2,0-0.4-0.1-0.5-0.1c-0.1,0-0.1,0-0.2-0.1c-0.1,0-0.1,0-0.2-0.1h-0.1h-0.1
	c-0.1,0-0.1,0-0.1,0c-0.1,0-0.1,0-0.1,0s0,0-0.1,0c0,0-0.1,0-0.1,0h-0.1h-0.1c-0.1,0-0.1,0-0.2-0.1c-0.1,0-0.1-0.1-0.2-0.1
	c-0.1-0.1-0.3-0.1-0.5-0.1c-0.3-0.1-0.8-0.3-1.2-0.5c-0.4-0.2-0.9-0.5-1.3-0.8c-0.4-0.3-0.8-0.6-1.2-1l-0.1-0.1l-0.1-0.1
	c-0.1-0.1-0.1-0.1-0.1-0.1c-0.1-0.1-0.1-0.1-0.3-0.3c-0.1-0.1-0.1-0.1-0.1-0.1c-0.1-0.1-0.1-0.1-0.1-0.1l-0.1-0.1c0,0,0-0.1-0.1-0.1
	c0-0.1-0.1-0.1-0.1-0.1c-0.3-0.3-0.5-0.5-0.5-0.8c-0.1-0.1-0.1-0.2-0.1-0.2C523.9,429.7,523.8,429.7,523.7,429.6
	C523.8,429.7,523.7,429.7,523.7,429.6z"/>
<path class="st10" d="M456.8,457.4c0.1,0,0.1,0.1,0.3,0.1c0.7,0.2,1.3,0.2,1.8-0.1c0,0,0.1-0.1,0.1-0.1c0.1-0.1,0.3-0.1,0.4-0.3
	c0.3-0.2,0.8-0.5,1.3-0.8c0.2-0.1,0.5-0.3,0.7-0.4c0.2-0.1,0.4-0.3,0.6-0.4c0.3-0.2,0.5-0.4,0.5-0.4s0.1,0.1,0.1,0.1
	c0.1,0.1,0.1,0.1,0.1,0.1c0.1,0.1,0.1,0.1,0.2,0.2c0.1,0.1,0.1,0.1,0.3,0.2c0.1,0.1,0.2,0.1,0.3,0.2s0.1,0.1,0.1,0.1l0.1,0.1
	l0.1,0.1c0.1,0.1,0.2,0.1,0.3,0.3c0.1,0.1,0.1,0.1,0.1,0.1c0.1,0.1,0.1,0.1,0.1,0.1c0.1,0.1,0.2,0.1,0.3,0.2
	c0.2,0.1,0.4,0.3,0.6,0.4c0.3,0.2,0.6,0.4,0.6,0.4s0.2,0.1,0.5,0.3c0.2,0.1,0.4,0.2,0.6,0.3c0.1,0.1,0.2,0.1,0.3,0.2
	c0.1,0,0.1,0.1,0.2,0.1c0,0,0.1,0,0.1,0.1l0.1,0.1c0.1,0.1,0.3,0.1,0.3,0.2c0.1,0,0.1,0.1,0.2,0.1c0.1,0,0.1,0.1,0.2,0.1
	c0.2,0.1,0.4,0.2,0.6,0.3c0.2,0.1,0.3,0.1,0.5,0.2c0.1,0.1,0.2,0.1,0.2,0.1s-0.1,0.3-0.1,0.7c0,0.2-0.1,0.5-0.1,0.7
	c0,0.1,0,0.3-0.1,0.4c0,0.1,0,0.3-0.1,0.4c-0.1,0.5-0.1,1.1-0.1,1.5c0,0.4-0.1,0.7-0.1,0.7c0,0.3,0.1,0.5,0.1,0.9
	c0.1,0.1,0.1,0.3,0.2,0.4c0.1,0.1,0.2,0.3,0.3,0.4c0.5,0.5,1.2,1,2.1,1.2c0,0,0.1,0,0.2,0.1c0.1,0.1,0.3,0.1,0.6,0.1
	c0.3,0.1,0.5,0.1,0.8,0.2c0.1,0,0.3,0.1,0.5,0.1s0.3,0.1,0.5,0.1c0.3,0.1,0.7,0.1,1,0.1c0.1,0,0.3,0.1,0.5,0.1c0.1,0,0.3,0,0.4,0.1
	c0.3,0,0.5,0.1,0.6,0.1c0.1,0,0.2,0,0.2,0c0.4,0,0.8,0,1.2-0.1c0.1,0,0.2-0.1,0.3-0.1c0.1,0,0.1,0,0.1-0.1c0.1,0,0.1,0,0.1-0.1
	c0.2-0.1,0.3-0.1,0.5-0.2c0.6-0.3,1-0.8,1.2-1.4c0,0,0.1-0.3,0.2-0.7c0.1-0.4,0.2-1,0.3-1.5c0.1-0.5,0.3-1.1,0.3-1.5
	c0.1-0.2,0.1-0.3,0.1-0.5s0.1-0.2,0.1-0.2s0.1,0,0.2,0c0.1,0,0.1,0,0.2,0c0.1,0,0.2,0,0.3,0c0.4-0.1,1-0.1,1.5-0.2
	c0.3-0.1,0.5-0.1,0.8-0.1c0.1,0,0.3-0.1,0.3-0.1c0.1,0,0.2-0.1,0.3-0.1c0.2-0.1,0.3-0.1,0.5-0.1c0.1,0,0.2-0.1,0.2-0.1
	s0.3-0.1,0.7-0.1c0.1,0,0.2-0.1,0.3-0.1c0.1,0,0.1,0,0.2-0.1c0.1,0,0.1,0,0.2-0.1c0.1-0.1,0.3-0.1,0.4-0.1c0.1,0,0.1-0.1,0.2-0.1
	s0.1-0.1,0.2-0.1c0.1-0.1,0.3-0.1,0.4-0.1c0.1-0.1,0.3-0.1,0.3-0.1c0.3-0.1,0.5-0.1,0.7-0.2c0.2-0.1,0.3-0.1,0.5-0.2
	c0.1-0.1,0.2-0.1,0.2-0.1s0.1,0.2,0.4,0.5c0.3,0.3,0.6,0.8,1,1.2c0.3,0.4,0.7,0.9,1,1.2c0.3,0.3,0.5,0.5,0.5,0.5
	c0.2,0.2,0.4,0.4,0.7,0.5c0.3,0.1,0.6,0.2,1,0.2c0.2,0,0.3,0,0.5,0c0.1,0,0.2,0,0.3-0.1c0.1,0,0.2-0.1,0.3-0.1
	c0.2-0.1,0.4-0.1,0.5-0.2c0.2-0.1,0.4-0.2,0.5-0.3c0,0,0,0,0.1,0c0,0,0.1-0.1,0.1-0.1c0.1-0.1,0.3-0.2,0.5-0.3
	c0.2-0.1,0.5-0.3,0.8-0.5c0.1-0.1,0.3-0.2,0.4-0.3c0.1-0.1,0.3-0.2,0.4-0.3c0.3-0.2,0.5-0.4,0.8-0.6c0.1-0.1,0.3-0.2,0.3-0.3
	c0.1-0.1,0.2-0.2,0.3-0.3c0.2-0.1,0.3-0.3,0.5-0.4c0.1-0.1,0.2-0.1,0.2-0.1c0.1-0.1,0.3-0.3,0.5-0.4c0.1-0.1,0.3-0.3,0.4-0.5
	c0.1-0.1,0.2-0.3,0.3-0.5c0.1-0.1,0.1-0.1,0.1-0.3c0-0.1,0.1-0.1,0.1-0.3c0.2-0.7,0.2-1.3-0.1-1.8c0,0-0.1-0.1-0.1-0.1
	c-0.1-0.1-0.1-0.3-0.3-0.4c-0.2-0.3-0.5-0.8-0.8-1.3c-0.1-0.2-0.3-0.5-0.4-0.7s-0.3-0.4-0.4-0.6c-0.2-0.3-0.4-0.5-0.4-0.5
	s0.1-0.1,0.1-0.1c0.1-0.1,0.1-0.1,0.1-0.1c0.1-0.1,0.1-0.1,0.2-0.2c0.1-0.1,0.1-0.1,0.2-0.3c0.1-0.1,0.1-0.2,0.2-0.3
	c0.1-0.1,0.1-0.1,0.1-0.1l0.1-0.1l0.1-0.1c0.1-0.1,0.1-0.2,0.3-0.3c0.1-0.1,0.1-0.1,0.1-0.1c0.1-0.1,0.1-0.1,0.1-0.1
	c0.1-0.1,0.1-0.2,0.2-0.3c0.1-0.2,0.3-0.4,0.4-0.6c0.2-0.3,0.4-0.6,0.4-0.6s0.1-0.2,0.3-0.5c0.1-0.2,0.2-0.4,0.3-0.6
	c0.1-0.1,0.1-0.2,0.2-0.3c0-0.1,0.1-0.1,0.1-0.2c0,0,0-0.1,0.1-0.1l0.1-0.1c0.1-0.1,0.1-0.3,0.2-0.3c0-0.1,0.1-0.1,0.1-0.2
	c0-0.1,0.1-0.1,0.1-0.2c0.1-0.2,0.2-0.4,0.3-0.6c0.1-0.2,0.1-0.3,0.2-0.5c0.1-0.1,0.1-0.2,0.1-0.2s0.3,0.1,0.7,0.1
	c0.2,0,0.5,0.1,0.7,0.1c0.1,0,0.3,0,0.4,0.1c0.1,0,0.3,0,0.4,0.1c0.5,0.1,1.1,0.1,1.5,0.1c0.4,0,0.7,0.1,0.7,0.1
	c0.3,0,0.5-0.1,0.9-0.1c0.1-0.1,0.3-0.1,0.4-0.2c0.1-0.1,0.3-0.2,0.4-0.3c0.5-0.5,1-1.2,1.2-2.1c0,0,0-0.1,0.1-0.2
	c0.1-0.1,0.1-0.3,0.1-0.6c0.1-0.3,0.1-0.5,0.2-0.8c0-0.1,0.1-0.3,0.1-0.5s0.1-0.3,0.1-0.5c0.1-0.3,0.1-0.7,0.1-1
	c0-0.1,0.1-0.3,0.1-0.5c0-0.1,0-0.3,0.1-0.4c0-0.3,0.1-0.5,0.1-0.6s0-0.2,0-0.2c0-0.4,0-0.8-0.1-1.2c0-0.1-0.1-0.2-0.1-0.3
	c0-0.1,0-0.1-0.1-0.1c0-0.1,0-0.1-0.1-0.1c-0.1-0.2-0.1-0.3-0.2-0.5c-0.3-0.6-0.8-1-1.4-1.2c0,0-0.3-0.1-0.7-0.2
	c-0.4-0.1-1-0.2-1.5-0.3c-0.5-0.1-1.1-0.3-1.5-0.3c-0.2-0.1-0.3-0.1-0.5-0.1c-0.1,0-0.2-0.1-0.2-0.1s0-0.1,0-0.2c0-0.1,0-0.1,0-0.2
	c0-0.1,0-0.2,0-0.3c-0.1-0.4-0.1-1-0.2-1.5c-0.1-0.3-0.1-0.5-0.1-0.8c0-0.1-0.1-0.3-0.1-0.3c0-0.1-0.1-0.2-0.1-0.3
	c-0.1-0.2-0.1-0.3-0.1-0.5c0-0.1-0.1-0.2-0.1-0.2s-0.1-0.3-0.1-0.7c0-0.1-0.1-0.2-0.1-0.3c0-0.1,0-0.1-0.1-0.2c0-0.1,0-0.1-0.1-0.2
	c-0.1-0.1-0.1-0.3-0.1-0.4c0-0.1-0.1-0.1-0.1-0.2c0-0.1-0.1-0.1-0.1-0.2c-0.1-0.1-0.1-0.3-0.1-0.4c-0.1-0.1-0.1-0.3-0.1-0.3
	c-0.1-0.3-0.1-0.5-0.3-0.7c-0.1-0.2-0.1-0.3-0.2-0.5c-0.1-0.1-0.1-0.2-0.1-0.2s0.2-0.1,0.5-0.4c0.3-0.3,0.8-0.6,1.2-1
	c0.4-0.3,0.9-0.7,1.2-1c0.3-0.3,0.5-0.5,0.5-0.5c0.2-0.2,0.4-0.4,0.5-0.7c0.1-0.3,0.2-0.6,0.2-1c0-0.2,0-0.3,0-0.5
	c0-0.1,0-0.2-0.1-0.3c0-0.1-0.1-0.2-0.1-0.3c-0.1-0.2-0.1-0.4-0.2-0.5c-0.1-0.2-0.2-0.4-0.3-0.5c0,0,0,0,0-0.1c0,0-0.1-0.1-0.1-0.1
	c-0.1-0.1-0.2-0.3-0.3-0.5c-0.1-0.2-0.3-0.5-0.5-0.8c-0.1-0.1-0.2-0.3-0.3-0.4c-0.1-0.1-0.2-0.3-0.3-0.4c-0.2-0.3-0.4-0.5-0.6-0.8
	c-0.1-0.1-0.2-0.3-0.3-0.3c-0.1-0.1-0.2-0.2-0.3-0.3c-0.1-0.2-0.3-0.3-0.4-0.5c-0.1-0.1-0.1-0.2-0.1-0.2c-0.1-0.1-0.3-0.3-0.4-0.5
	c-0.1-0.1-0.3-0.3-0.5-0.4c-0.1-0.1-0.3-0.2-0.5-0.3c-0.1-0.1-0.1-0.1-0.3-0.1c-0.1,0-0.1-0.1-0.3-0.1c-0.7-0.2-1.3-0.2-1.8,0.1
	c0,0-0.1,0.1-0.1,0.1c-0.1,0.1-0.3,0.1-0.4,0.3c-0.3,0.2-0.8,0.5-1.3,0.8c-0.2,0.1-0.5,0.3-0.7,0.4c-0.2,0.1-0.4,0.3-0.6,0.4
	c-0.3,0.2-0.5,0.4-0.5,0.4s-0.1-0.1-0.1-0.1c-0.1-0.1-0.1-0.1-0.1-0.1c-0.1-0.1-0.1-0.1-0.2-0.2c-0.1-0.1-0.1-0.1-0.3-0.2
	c-0.1-0.1-0.2-0.1-0.3-0.2c-0.1-0.1-0.1-0.1-0.1-0.1l-0.1-0.1L497,413c-0.1-0.1-0.2-0.1-0.3-0.3c-0.1-0.1-0.1-0.1-0.1-0.1
	c-0.1-0.1-0.1-0.1-0.1-0.1c-0.1-0.1-0.2-0.1-0.3-0.2c-0.2-0.1-0.4-0.3-0.6-0.4c-0.3-0.2-0.6-0.4-0.6-0.4s-0.2-0.1-0.5-0.3
	c-0.2-0.1-0.4-0.2-0.6-0.3c-0.1-0.1-0.2-0.1-0.3-0.2c-0.1,0-0.1-0.1-0.2-0.1c0,0-0.1,0-0.1-0.1l-0.1-0.1c-0.1-0.1-0.3-0.1-0.3-0.2
	c-0.1,0-0.1-0.1-0.2-0.1s-0.1-0.1-0.2-0.1c-0.2-0.1-0.4-0.2-0.6-0.3c-0.2-0.1-0.3-0.1-0.5-0.2c-0.1-0.1-0.2-0.1-0.2-0.1
	s0.1-0.3,0.1-0.7c0-0.2,0.1-0.5,0.1-0.7c0-0.1,0-0.3,0.1-0.4c0-0.1,0-0.3,0.1-0.4c0.1-0.5,0.1-1.1,0.1-1.5c0-0.4,0.1-0.7,0.1-0.7
	c0-0.3-0.1-0.5-0.1-0.9c-0.1-0.1-0.1-0.3-0.2-0.4c-0.1-0.1-0.2-0.3-0.3-0.4c-0.5-0.5-1.2-1-2.1-1.2c0,0-0.1,0-0.2-0.1
	c-0.1-0.1-0.3-0.1-0.6-0.1c-0.3-0.1-0.5-0.1-0.8-0.2c-0.1,0-0.3-0.1-0.5-0.1c-0.1,0-0.3-0.1-0.5-0.1c-0.3-0.1-0.7-0.1-1-0.1
	c-0.1,0-0.3-0.1-0.5-0.1c-0.1,0-0.3,0-0.4-0.1c-0.3,0-0.5-0.1-0.6-0.1s-0.2,0-0.2,0c-0.4,0-0.8,0-1.2,0.1c-0.1,0-0.2,0.1-0.3,0.1
	s-0.1,0-0.1,0.1c-0.1,0-0.1,0-0.1,0.1c-0.2,0.1-0.3,0.1-0.5,0.2c-0.6,0.3-1,0.8-1.2,1.4c0,0-0.1,0.3-0.2,0.7c-0.1,0.4-0.2,1-0.3,1.5
	c-0.1,0.5-0.3,1.1-0.3,1.5c-0.1,0.2-0.1,0.3-0.1,0.5c0,0.1-0.1,0.2-0.1,0.2s-0.1,0-0.2,0c-0.1,0-0.1,0-0.2,0c-0.1,0-0.2,0-0.3,0
	c-0.4,0.1-1,0.1-1.5,0.2c-0.3,0.1-0.5,0.1-0.8,0.1c-0.1,0-0.3,0.1-0.3,0.1c-0.1,0-0.2,0.1-0.3,0.1c-0.2,0.1-0.3,0.1-0.5,0.1
	c-0.1,0-0.2,0.1-0.2,0.1s-0.3,0.1-0.7,0.1c-0.1,0-0.2,0.1-0.3,0.1c-0.1,0-0.1,0-0.2,0.1c-0.1,0-0.1,0-0.2,0.1
	c-0.1,0.1-0.3,0.1-0.4,0.1c-0.1,0-0.1,0.1-0.2,0.1c-0.1,0-0.1,0.1-0.2,0.1c-0.1,0.1-0.3,0.1-0.4,0.1c-0.1,0.1-0.3,0.1-0.3,0.1
	c-0.3,0.1-0.5,0.1-0.7,0.2c-0.2,0.1-0.3,0.1-0.5,0.2c-0.1,0.1-0.2,0.1-0.2,0.1s-0.1-0.2-0.4-0.5c-0.3-0.3-0.6-0.8-1-1.2
	c-0.3-0.4-0.7-0.9-1-1.2c-0.3-0.3-0.5-0.5-0.5-0.5c-0.2-0.2-0.4-0.4-0.7-0.5c-0.3-0.1-0.6-0.2-1-0.2c-0.2,0-0.3,0-0.5,0
	c-0.1,0-0.2,0-0.3,0.1c-0.1,0-0.2,0.1-0.3,0.1c-0.2,0.1-0.4,0.1-0.5,0.2c-0.2,0.1-0.4,0.2-0.5,0.3c0,0,0,0-0.1,0
	c0,0-0.1,0.1-0.1,0.1c-0.1,0.1-0.3,0.2-0.5,0.3c-0.2,0.1-0.5,0.3-0.8,0.5c-0.1,0.1-0.3,0.2-0.4,0.3c-0.1,0.1-0.3,0.2-0.4,0.3
	c-0.3,0.2-0.5,0.4-0.8,0.6c-0.1,0.1-0.3,0.2-0.3,0.3c-0.1,0.1-0.2,0.2-0.3,0.3c-0.2,0.1-0.3,0.3-0.5,0.4c-0.1,0.1-0.2,0.1-0.2,0.1
	c-0.1,0.1-0.3,0.3-0.5,0.4c-0.1,0.1-0.3,0.3-0.4,0.5s-0.2,0.3-0.3,0.5c-0.1,0.1-0.1,0.1-0.1,0.3c0,0.1-0.1,0.1-0.1,0.3
	c-0.2,0.7-0.2,1.3,0.1,1.8c0,0,0.1,0.1,0.1,0.1c0.1,0.1,0.1,0.3,0.3,0.4c0.2,0.3,0.5,0.8,0.8,1.3c0.1,0.2,0.3,0.5,0.4,0.7
	c0.1,0.2,0.3,0.4,0.4,0.6c0.2,0.3,0.4,0.5,0.4,0.5s-0.1,0.1-0.1,0.1c-0.1,0.1-0.1,0.1-0.1,0.1c-0.1,0.1-0.1,0.1-0.2,0.2
	c-0.1,0.1-0.1,0.1-0.2,0.3c-0.1,0.1-0.1,0.2-0.2,0.3c-0.1,0.1-0.1,0.1-0.1,0.1l-0.1,0.1l-0.1,0.1c-0.1,0.1-0.1,0.2-0.3,0.3
	c-0.1,0.1-0.1,0.1-0.1,0.1c-0.1,0.1-0.1,0.1-0.1,0.1c-0.1,0.1-0.1,0.2-0.2,0.3c-0.1,0.2-0.3,0.4-0.4,0.6c-0.2,0.3-0.4,0.6-0.4,0.6
	s-0.1,0.2-0.3,0.5c-0.1,0.2-0.2,0.4-0.3,0.6c-0.1,0.1-0.1,0.2-0.2,0.3c0,0.1-0.1,0.1-0.1,0.2c0,0,0,0.1-0.1,0.1l-0.1,0.1
	c-0.1,0.1-0.1,0.3-0.2,0.3c0,0.1-0.1,0.1-0.1,0.2s-0.1,0.1-0.1,0.2c-0.1,0.2-0.2,0.4-0.3,0.6c-0.1,0.2-0.1,0.3-0.2,0.5
	c-0.1,0.1-0.1,0.2-0.1,0.2s-0.3-0.1-0.7-0.1c-0.2,0-0.5-0.1-0.7-0.1c-0.1,0-0.3,0-0.4-0.1c-0.1,0-0.3,0-0.4-0.1
	c-0.5-0.1-1.1-0.1-1.5-0.1c-0.4,0-0.7-0.1-0.7-0.1c-0.3,0-0.5,0.1-0.9,0.1c-0.1,0.1-0.3,0.1-0.4,0.2c-0.1,0.1-0.3,0.2-0.4,0.3
	c-0.5,0.5-1,1.2-1.2,2.1c0,0,0,0.1-0.1,0.2c-0.1,0.1-0.1,0.3-0.1,0.6c-0.1,0.3-0.1,0.5-0.2,0.8c0,0.1-0.1,0.3-0.1,0.5
	c0,0.1-0.1,0.3-0.1,0.5c-0.1,0.3-0.1,0.7-0.1,1c0,0.1-0.1,0.3-0.1,0.5c0,0.1,0,0.3-0.1,0.4c0,0.3-0.1,0.5-0.1,0.6c0,0.1,0,0.2,0,0.2
	c0,0.4,0,0.8,0.1,1.2c0,0.1,0.1,0.2,0.1,0.3c0,0.1,0,0.1,0.1,0.1c0,0.1,0,0.1,0.1,0.1c0.1,0.2,0.1,0.3,0.2,0.5
	c0.3,0.6,0.8,1,1.4,1.2c0,0,0.3,0.1,0.7,0.2c0.4,0.1,1,0.2,1.5,0.3c0.5,0.1,1.1,0.3,1.5,0.3c0.2,0.1,0.3,0.1,0.5,0.1
	s0.2,0.1,0.2,0.1s0,0.1,0,0.2c0,0.1,0,0.1,0,0.2s0,0.2,0,0.3c0.1,0.4,0.1,1,0.2,1.5c0.1,0.3,0.1,0.5,0.1,0.8c0,0.1,0.1,0.3,0.1,0.3
	c0,0.1,0.1,0.2,0.1,0.3c0.1,0.2,0.1,0.3,0.1,0.5c0,0.1,0.1,0.2,0.1,0.2s0.1,0.3,0.1,0.7c0,0.1,0.1,0.2,0.1,0.3c0,0.1,0,0.1,0.1,0.2
	c0,0.1,0,0.1,0.1,0.2c0.1,0.1,0.1,0.3,0.1,0.4c0,0.1,0.1,0.1,0.1,0.2c0,0.1,0.1,0.1,0.1,0.2c0.1,0.1,0.1,0.3,0.1,0.4
	c0.1,0.1,0.1,0.3,0.1,0.3c0.1,0.3,0.1,0.5,0.3,0.7c0.1,0.2,0.1,0.3,0.2,0.5s0.1,0.2,0.1,0.2s-0.2,0.1-0.5,0.4
	c-0.3,0.3-0.8,0.6-1.2,1c-0.4,0.3-0.9,0.7-1.2,1c-0.3,0.3-0.5,0.5-0.5,0.5c-0.2,0.2-0.4,0.4-0.5,0.7c-0.1,0.3-0.2,0.6-0.2,1
	c0,0.2,0,0.3,0,0.5c0,0.1,0,0.2,0.1,0.3c0,0.1,0.1,0.2,0.1,0.3c0.1,0.2,0.1,0.4,0.2,0.5c0.1,0.2,0.2,0.4,0.3,0.5c0,0,0,0,0,0.1
	c0,0,0.1,0.1,0.1,0.1c0.1,0.1,0.2,0.3,0.3,0.5c0.1,0.2,0.3,0.5,0.5,0.8c0.1,0.1,0.2,0.3,0.3,0.4c0.1,0.1,0.2,0.3,0.3,0.4
	c0.2,0.3,0.4,0.5,0.6,0.8c0.1,0.1,0.2,0.3,0.3,0.3c0.1,0.1,0.2,0.2,0.3,0.3c0.1,0.2,0.3,0.3,0.4,0.5c0.1,0.1,0.1,0.2,0.1,0.2
	c0.1,0.1,0.3,0.3,0.4,0.5c0.1,0.1,0.3,0.3,0.5,0.4c0.1,0.1,0.3,0.2,0.5,0.3C456.6,457.3,456.7,457.4,456.8,457.4z M463.3,438.7
	c0-0.1-0.1-0.3-0.1-0.4c-0.1-0.3-0.1-0.9-0.2-1.6c0-0.1,0-0.1,0-0.3c0-0.1,0-0.1,0-0.1c0-0.1,0-0.1,0-0.1c0-0.1,0-0.2,0-0.3
	s0-0.2,0-0.3c0-0.2,0-0.3,0-0.5c0-0.1,0-0.2,0-0.3c0-0.1,0-0.1,0-0.1c0-0.1,0-0.1,0-0.1c0-0.8,0.1-1.6,0.2-2.5
	c0.1-0.8,0.3-1.7,0.6-2.5c0.3-0.8,0.5-1.4,0.8-2.1c0.1-0.3,0.3-0.5,0.4-0.8c0.1-0.1,0.1-0.2,0.2-0.3c0.1-0.1,0.1-0.2,0.1-0.3
	c0-0.1,0.1-0.1,0.1-0.1c0-0.1,0.1-0.1,0.1-0.1c0.1-0.1,0.1-0.1,0.1-0.1c0.1-0.1,0.1-0.1,0.1-0.1s0-0.1,0.1-0.1
	c0-0.1,0.1-0.1,0.1-0.1l0.1-0.1c0-0.1,0.1-0.1,0.1-0.1c0.1-0.1,0.1-0.1,0.2-0.3c0.1-0.1,0.1-0.2,0.2-0.3c0.1-0.2,0.3-0.5,0.5-0.7
	c0.4-0.5,0.9-1.1,1.5-1.6c0.6-0.5,1.2-1.1,1.9-1.6c0.7-0.5,1.4-1,2.2-1.3c0.1,0,0.1-0.1,0.1-0.1c0.1,0,0.1-0.1,0.1-0.1
	c0.1-0.1,0.2-0.1,0.3-0.1c0.2-0.1,0.3-0.1,0.5-0.2c0.1-0.1,0.1-0.1,0.3-0.1c0.1,0,0.1-0.1,0.3-0.1c0.1,0,0.1,0,0.1-0.1
	c0.1,0,0.1,0,0.1-0.1c0.1,0,0.1-0.1,0.2-0.1c0.6-0.2,1.2-0.3,1.5-0.5c0.2-0.1,0.3-0.1,0.4-0.1c0.1,0,0.1-0.1,0.1-0.1s0.1,0,0.1,0
	s0.3-0.1,0.4-0.1c0.3-0.1,0.9-0.1,1.6-0.2c0.1,0,0.1,0,0.3,0c0.1,0,0.1,0,0.1,0s0.1,0,0.1,0c0.1,0,0.2,0,0.3,0c0.1,0,0.2,0,0.3,0
	c0.2,0,0.3,0,0.5,0c0.1,0,0.2,0,0.3,0s0.1,0,0.1,0c0.1,0,0.1,0,0.1,0c0.8,0,1.6,0.1,2.5,0.2c0.8,0.1,1.7,0.3,2.5,0.6
	c0.8,0.3,1.4,0.5,2.1,0.8c0.3,0.1,0.5,0.3,0.8,0.4c0.1,0.1,0.2,0.1,0.3,0.2c0.1,0.1,0.2,0.1,0.3,0.1c0.1,0,0.1,0.1,0.1,0.1
	c0.1,0,0.1,0.1,0.1,0.1c0.1,0.1,0.1,0.1,0.1,0.1c0.1,0.1,0.1,0.1,0.1,0.1s0.1,0,0.1,0.1c0.1,0,0.1,0.1,0.1,0.1l0.1,0.1
	c0.1,0,0.1,0.1,0.1,0.1c0.1,0.1,0.1,0.1,0.3,0.2c0.1,0.1,0.2,0.1,0.3,0.2c0.2,0.1,0.5,0.3,0.7,0.5c0.5,0.4,1.1,0.9,1.6,1.5
	c0.5,0.6,1.1,1.2,1.6,1.9c0.5,0.7,1,1.4,1.3,2.2c0,0.1,0.1,0.1,0.1,0.1c0,0.1,0.1,0.1,0.1,0.1c0.1,0.1,0.1,0.2,0.1,0.3
	c0.1,0.2,0.1,0.3,0.2,0.5c0.1,0.1,0.1,0.1,0.1,0.3c0,0.1,0.1,0.1,0.1,0.3c0,0.1,0,0.1,0.1,0.1c0,0.1,0,0.1,0.1,0.1
	c0,0.1,0.1,0.1,0.1,0.2c0.2,0.6,0.3,1.2,0.5,1.5c0.1,0.2,0.1,0.3,0.1,0.4c0,0.1,0.1,0.1,0.1,0.1s0,0.1,0,0.1c0,0.1,0.1,0.3,0.1,0.4
	c0.1,0.3,0.1,0.9,0.2,1.6c0,0.1,0,0.1,0,0.3c0,0.1,0,0.1,0,0.1c0,0.1,0,0.1,0,0.1c0,0.1,0,0.2,0,0.3c0,0.1,0,0.2,0,0.3
	c0,0.2,0,0.3,0,0.5c0,0.1,0,0.2,0,0.3c0,0.1,0,0.1,0,0.1c0,0.1,0,0.1,0,0.1c0,0.8-0.1,1.6-0.2,2.5c-0.1,0.8-0.3,1.7-0.6,2.5
	c-0.3,0.8-0.5,1.4-0.8,2.1c-0.1,0.3-0.3,0.5-0.4,0.8c-0.1,0.1-0.1,0.2-0.2,0.3c-0.1,0.1-0.1,0.2-0.1,0.3s-0.1,0.1-0.1,0.1
	c0,0.1-0.1,0.1-0.1,0.1c-0.1,0.1-0.1,0.1-0.1,0.1c-0.1,0.1-0.1,0.1-0.1,0.1s0,0.1-0.1,0.1c0,0.1-0.1,0.1-0.1,0.1l-0.1,0.1
	c0,0.1-0.1,0.1-0.1,0.1c-0.1,0.1-0.1,0.1-0.2,0.3c-0.1,0.1-0.1,0.2-0.2,0.3c-0.1,0.2-0.3,0.5-0.5,0.7c-0.4,0.5-0.9,1.1-1.5,1.6
	c-0.6,0.5-1.2,1.1-1.9,1.6c-0.7,0.5-1.4,1-2.2,1.3c-0.1,0-0.1,0.1-0.1,0.1c-0.1,0-0.1,0.1-0.1,0.1c-0.1,0.1-0.2,0.1-0.3,0.1
	c-0.2,0.1-0.3,0.1-0.5,0.2c-0.1,0.1-0.1,0.1-0.3,0.1c-0.1,0-0.1,0.1-0.3,0.1c-0.1,0-0.1,0-0.1,0.1c-0.1,0-0.1,0-0.1,0.1
	c-0.1,0-0.1,0.1-0.2,0.1c-0.6,0.2-1.2,0.3-1.5,0.5c-0.2,0.1-0.3,0.1-0.4,0.1c-0.1,0-0.1,0.1-0.1,0.1s-0.1,0-0.1,0
	c-0.1,0-0.3,0.1-0.4,0.1c-0.3,0.1-0.9,0.1-1.6,0.2c-0.1,0-0.1,0-0.3,0c-0.1,0-0.1,0-0.1,0c-0.1,0-0.1,0-0.1,0s-0.2,0-0.3,0
	c-0.1,0-0.2,0-0.3,0c-0.2,0-0.3,0-0.5,0c-0.1,0-0.2,0-0.3,0s-0.1,0-0.1,0c-0.1,0-0.1,0-0.1,0c-0.8,0-1.6-0.1-2.5-0.2
	c-0.8-0.1-1.7-0.3-2.5-0.6c-0.8-0.3-1.4-0.5-2.1-0.8c-0.3-0.1-0.5-0.3-0.8-0.4c-0.1-0.1-0.2-0.1-0.3-0.2c-0.1-0.1-0.2-0.1-0.3-0.1
	c-0.1,0-0.1-0.1-0.1-0.1c-0.1,0-0.1-0.1-0.1-0.1c-0.1-0.1-0.1-0.1-0.1-0.1c-0.1-0.1-0.1-0.1-0.1-0.1s-0.1,0-0.1-0.1
	c-0.1,0-0.1-0.1-0.1-0.1l-0.1-0.1c-0.1,0-0.1-0.1-0.1-0.1c-0.1-0.1-0.1-0.1-0.3-0.2c-0.1-0.1-0.2-0.1-0.3-0.2
	c-0.2-0.1-0.5-0.3-0.7-0.5c-0.5-0.4-1.1-0.9-1.6-1.5c-0.5-0.6-1.1-1.2-1.6-1.9c-0.5-0.7-1-1.4-1.3-2.2c0-0.1-0.1-0.1-0.1-0.1
	c0-0.1-0.1-0.1-0.1-0.1c-0.1-0.1-0.1-0.2-0.1-0.3c-0.1-0.2-0.1-0.3-0.2-0.5c-0.1-0.1-0.1-0.1-0.1-0.3c0-0.1-0.1-0.1-0.1-0.3
	c0-0.1,0-0.1-0.1-0.1c0-0.1,0-0.1-0.1-0.1c0-0.1-0.1-0.1-0.1-0.2c-0.2-0.6-0.3-1.2-0.5-1.5c-0.1-0.2-0.1-0.3-0.1-0.4
	c0-0.1-0.1-0.1-0.1-0.1S463.3,438.7,463.3,438.7z"/>
<path class="st11" d="M147,607c-3.6-1-4.1-394.5,5.3-397.6c9.4-3.1,270.5-7.3,277.1-2.8c6.6,4.5,11.5,399.2,9,401.1
	C435.7,609.6,153.7,608.9,147,607z"/>
<path class="st10" d="M395.3,195.6c-2.7-1.4-204.4-0.7-210.1,2.5c-5.2,2.9-3,342-3.4,424.6c56.3,0.6,165.4,0.3,221.2-0.6
	C402.4,562.5,397.8,196.9,395.3,195.6z"/>
<path class="st12" d="M204.9,244.1c3.4,0.1,54.9-1.2,54.4,1.8s2.9,93.4-0.5,92.9c-3.4-0.5-54.5,0.3-54.5,0.3L204.9,244.1z"/>
<path class="st13" d="M272.9,245c0,0,102.9,3.3,102.9,3.4c0,0.1-1,30-1,30s-99.9-4.1-101.3-3.3C272.2,275.9,270.7,247,272.9,245z"/>
<path class="st14" d="M270.7,284.2l103.7,3.4l-0.5,16.1c0,0-102.1-2.9-102.1-3.3C271.9,299.9,270.7,284.2,270.7,284.2z"/>
<path class="st13" d="M272.4,310.9c2.9,0.1,101.3,3.3,101.3,3.3l-0.7,20.6l-101.4,1.4L272.4,310.9z"/>
<path class="st14" d="M206.3,357.3c9.3,1.2,166.2-9,166.1-4.3c-0.1,4.7,3.7,28-0.9,27c-4.6-1-167.4,5.4-166.1,3.2
	C206.8,381,206.3,357.3,206.3,357.3z"/>
<path class="st13" d="M208.4,396.7c5.9,0.6,164.6,2.3,164.6,2.3l-0.7,21.1c0,0-138.6-4.5-161.2-1L208.4,396.7z"/>
<path class="st14" d="M210.3,428.4c1.7,0.1,161.7,0.2,161.7,0.2l2.1,16.5l-164.8,2.3L210.3,428.4z"/>
<path class="st13" d="M209,455.8c1.2,0.1,90.1-1.7,90.1-1.7l-0.6,19c0,0-89.3,14.8-89,11C209.8,480.3,209,455.8,209,455.8z"/>
<path class="st14" d="M210.8,498.3c3.3-0.2,88.9-9.2,88.9-9.2l1,29.6c0,0-89.5,11.7-89.4,10.4C211.3,527.6,210.8,498.3,210.8,498.3z
	"/>
<path class="st13" d="M211.7,542.6c11.3-0.8,87.1-12.5,87.2-10.6c0.1,1.9,1,28.4,1,28.4l-87.7,0.3L211.7,542.6z"/>
<path class="st11" d="M369.7,231.6c4.2,0,7.6-3.4,7.6-7.6c0-4.2-3.4-7.6-7.6-7.6c-4.2,0-7.6,3.4-7.6,7.6
	C362.1,228.2,365.5,231.6,369.7,231.6z"/>
<path class="st11" d="M346.1,230.9c4.2,0,7.6-3.4,7.6-7.6c0-4.2-3.4-7.6-7.6-7.6c-4.2,0-7.6,3.4-7.6,7.6
	C338.4,227.5,341.9,230.9,346.1,230.9z"/>
<path class="st11" d="M322.5,230.1c4.2,0,7.6-3.4,7.6-7.6s-3.4-7.6-7.6-7.6c-4.2,0-7.6,3.4-7.6,7.6S318.3,230.1,322.5,230.1z"/>
<path class="st11" d="M228.3,306.1c1.4,2.1,8.8,2.7,11.1,0.8c2.3-1.9-0.1-4.5,3.8-10.4c3.8-5.8,7.8-4.4,8.8-16.4
	c1-12-12.4-16.1-17.8-16.3c-5.3-0.2-17.4,3.7-17.9,17.1c-0.3,9.7,6.4,10.4,9.3,15.2C228.8,300.9,226.7,303.7,228.3,306.1z"/>
<path class="st15" d="M227.8,307.5c0,0.2,7.5,2.5,12.3,0.6c0,0,1,10.5-3.4,11.4c-4.3,0.9-8.4-0.1-8.7-2.1
	C227.7,315.3,227.8,307.5,227.8,307.5z"/>
<path class="st12" d="M241.4,282.7c-1.2,0.4-2.5,3.6-3.6,6.7c-1.4-0.1-2.3-0.8-2.9-1.7c3.7-3.7,4.3-10.4,3.4-13.4
	c-0.5-1.7-1.3-1.9-1.8-1.9c-2.3,0.2-3.9,5.4-3.8,9.9c0,2.1,0.4,3.8,1,5.1c-0.4,0.3-0.8,0.6-1.3,0.9c-0.1,0.1-0.2,0.1-0.3,0.1
	c-0.3-4.7-1-8.6-2.5-10c-0.5-0.4-1-0.6-1.5-0.6c-0.9,0.1-1.5,0.7-1.9,1.6c-0.8,2.5,0.9,7.3,3.1,9.2c0.6,0.5,1.2,0.8,1.8,0.8
	c0.3,6.4,0.1,14.1-0.1,18.1c0.1,0.1,0.3,0.1,0.5,0.1h0.5c0.1-0.6,0.6-10.2,0.2-18.3c0.2-0.1,0.5-0.1,0.7-0.3c0.5-0.3,1-0.5,1.4-0.9
	c0.8,1.2,1.9,1.9,3.4,2c-0.2,0.8-0.4,1.4-0.6,2.1c-0.8,2.8-2.3,10-1.5,15.6c0.3,0,0.7-0.1,1-0.1c-0.6-3.9-0.1-9.5,1.4-15.4
	c0.2-0.8,0.5-1.6,0.7-2.4c1.7-0.4,2.9-2.7,3.3-3.4c0.7-1.4,1.2-3.2,0.6-4C242.4,282.8,242.1,282.5,241.4,282.7z M230.1,288
	c-2-1.6-3.5-6-2.8-8.2c0.3-0.9,0.8-1,1-1c0.1,0,0.1,0,0.1,0c0.2,0,0.4,0.1,0.7,0.3c1.2,1.2,1.9,4.9,2.1,9.4
	C230.8,288.5,230.4,288.3,230.1,288z M234.5,286.8c-0.7-1.5-0.8-3.4-0.8-4.5c-0.1-4.5,1.6-8.8,2.9-9c0.2,0,0.5,0.3,0.8,1.2
	C238.2,277.3,237.7,283.4,234.5,286.8z M240.9,286.9c-0.5,0.8-1.2,1.7-1.9,2.2c1.1-3.4,2.2-5.3,2.7-5.4h0.1
	C241.9,283.9,241.8,285.2,240.9,286.9z"/>
<path class="st16" d="M235.2,313.5c-5.5-0.2-8.8-2-9.1-2.1c-0.2-0.1-0.3-0.4-0.2-0.7c0.1-0.2,0.4-0.3,0.7-0.2c0.1,0,5.6,3,13.9,1.6
	c0.3-0.1,0.5,0.1,0.5,0.4c0.1,0.3-0.1,0.5-0.4,0.5C238.7,313.5,236.8,313.5,235.2,313.5z"/>
<path class="st16" d="M235.6,317c-5.2-0.1-8.6-1.3-8.8-1.4c-0.3-0.1-0.4-0.3-0.3-0.6c0.1-0.3,0.3-0.4,0.6-0.3
	c0.1,0,5.6,1.9,13.4,1.2c0.3,0,0.5,0.2,0.5,0.4c0,0.3-0.2,0.5-0.4,0.5C238.8,317,237.1,317,235.6,317z"/>
<path class="st6" d="M344.5,535c15.7,0,28.4-12.7,28.4-28.4c0-15.7-12.7-28.4-28.4-28.4c-15.7,0-28.4,12.7-28.4,28.4
	C316.1,522.3,328.8,535,344.5,535z"/>
<path class="st12" d="M372.3,501c-9.4,1.5-27.7,4.4-27.9,5.6c-0.1,1,7,16.9,11.2,26.1C367.9,527.4,375,514.3,372.3,501z"/>
<path class="st11" d="M316.9,513.3c1,4.3,3.1,8.2,5.8,11.4l21.8-18.1L318,496.4C316,501.6,315.5,507.4,316.9,513.3z"/>
<path class="st13" d="M351.2,534.2c3.6-0.9,6.9-2.5,9.8-4.5l-16.5-23c0,0-13.8,10.1-22.9,16.7C328.2,532.3,339.7,536.9,351.2,534.2z
	"/>
<path class="st17" d="M121.5,646.8c-0.2,0-0.4,0-0.5-0.1c-0.9-0.3-1.3-1.3-1-2.1c26.9-74.6,96.6-270.1,96.8-278.1
	c0-0.3-0.3-0.6-0.8-1c-7.4-5.4-46-3.6-55.2-1.1c-2.1,1.6-11.5,19-51.9,140.9C86.5,572.9,65.2,640.4,65,641.1
	c-0.3,0.9-1.2,1.4-2.1,1.1c-0.9-0.3-1.4-1.2-1.1-2.1c0.2-0.7,21.9-69.5,44.6-137.8c46.1-139,51.2-140.5,53.3-141.1
	c8.7-2.5,49.1-5.1,58.2,1.6c1.7,1.2,2.1,2.7,2.1,3.6c0.3,8.8-87.1,251.6-97,279.3C122.8,646.4,122.2,646.8,121.5,646.8z"/>
<path class="st18" d="M270.7,646.5c-0.8,0-1.4-0.5-1.6-1.2l-68.6-227.7c-0.3-0.9,0.2-1.9,1.1-2.1c0.9-0.3,1.9,0.2,2.1,1.1
	l68.6,227.7c0.3,0.9-0.2,1.9-1.1,2.1C271.1,646.4,270.9,646.5,270.7,646.5z"/>
<path class="st6" d="M221.8,468.4h-105c-1.9,0-3.4-1.5-3.4-3.4s1.5-3.4,3.4-3.4h105c1.9,0,3.4,1.5,3.4,3.4S223.6,468.4,221.8,468.4z
	"/>
<path class="st6" d="M173.5,506l-68.6-0.2c-1.9,0-3.4-1.5-3.4-3.4c0-1.9,1.5-3.4,3.4-3.4l68.6,0.2c1.9,0,3.4,1.5,3.4,3.4
	S175.4,506,173.5,506z"/>
<path class="st6" d="M162,539l-68.6-0.2c-1.9,0-3.4-1.5-3.4-3.4c0-1.9,1.5-3.4,3.4-3.4l68.6,0.2c1.9,0,3.4,1.5,3.4,3.4
	S163.9,539,162,539z"/>
<path class="st6" d="M150.5,571.9l-68.6-0.2c-1.9,0-3.4-1.5-3.4-3.4c0-1.9,1.5-3.4,3.4-3.4l68.6,0.2c1.9,0,3.4,1.5,3.4,3.4
	C153.8,570.4,152.3,571.9,150.5,571.9z"/>
<path class="st6" d="M139,604.9l-68.6-0.2c-1.9,0-3.4-1.5-3.4-3.4c0-1.9,1.5-3.4,3.4-3.4l68.6,0.2c1.9,0,3.4,1.5,3.4,3.4
	C142.3,603.4,140.8,604.9,139,604.9z"/>
<path class="st11" d="M390.2,475.2l-6-34.6l36.4,10.6c0,0,118.2,151.8,119.6,155.2c1.3,3.4-24.3,27.9-33,23
	C498.5,624.4,390.2,475.2,390.2,475.2z"/>
<path class="st19" d="M390.6,442.4l-5.3,4.8l4.8,28c0,0,4.7,6.4,12.1,16.7l29-26.8c-6.7-8.6-10.8-13.9-10.8-13.9L390.6,442.4z"/>
<path class="st6" d="M401,445.4l-16.8-4.9l2.9,16.5L401,445.4z"/>
<path class="st20" d="M405.3,458.5l-0.8,16.3l-14,0.8c5.6,7.8,72.9,100.3,102.9,138l33-25.8c-31.4-41.2-105.8-136.7-105.8-136.7
	l-2.7,9.7L405.3,458.5z"/>
<path class="st6" d="M405.3,458.5l-0.8,16.3l-14,0.8c5.6,7.8,72.9,100.3,102.9,138l33-25.8c-31.4-41.2-105.8-136.7-105.8-136.7
	l-2.7,9.7L405.3,458.5z"/>
<path class="st10" d="M518.4,594l2.3-2l-56.4-76.6l-45.1-59.3l-1.3,4.6l-12.6-2.3l-0.8,16.4l101.7,128.7L518.4,594z"/>
<path class="st20" d="M417.9,460.8l103.5,136c3.4-3.6,6.7-6.2,6.3-7.2c-1.3-3.4-107.1-138.4-107.1-138.4L417.9,460.8z"/>
<path class="st21" d="M417.9,460.8l103.5,136c3.4-3.6,6.7-6.2,6.3-7.2c-1.3-3.4-107.1-138.4-107.1-138.4L417.9,460.8z"/>
<path class="st13" d="M530.9,593.7c-2.1-2.7-4.5-5.8-7.1-9.3c-7.8,6.2-23.3,18.5-33.9,24.8c2.7,3.4,5.1,6.4,7.3,9.1
	C505.8,613.2,520.6,603.1,530.9,593.7z"/>
<path class="st8" d="M225.9,598.2c-4.5-13.1,13.4-10.4,11.5-20.4c-2-9.9-8.2-18,0-26.3c8-8.2,12.3-2.3,17.7-5
	c5.3-2.7,10.6-7.6,19.4-1.2c13.7,9.9-4.3,28-3.1,32.6c1.2,4.6,16.2,3.9,19.8,16c3.6,12.1-12.8,16.9-12.8,16.9L247.1,599L225.9,598.2
	z"/>
<path class="st1" d="M249.9,576c0.1,1.6,1.3,6.8,0.1,9c-1.2,2.2-7.3,3.6-7.3,3.6l6.7,8.2l13.6-0.3l5.1-6.5l-2.6-2.3
	c0,0-6.7,1-5.5-12.1C261.3,562.6,249.9,576,249.9,576z"/>
<path class="st22" d="M245.5,587c0,0-10.6,2.9-20.9,12.4c-10.3,9.5-21.3,37.7,12.8,21.5l2.4-4.5l0.4-5.6l26.3,4.9l5.1,9
	c0,0,18.8-4.9,20.2-12.9c1.4-8-22-23.7-26.1-24.6c0,0-3.4,6.5-10.2,6.9C248.5,594.3,245.5,587,245.5,587z"/>
<path class="st22" d="M271.6,624.6l1.4,8l-14.6,8l-13.4-0.3l-10.9-4.9c0,0,4.3-4.9,5.7-13.2C241.3,614,271.6,624.6,271.6,624.6z"/>
<path class="st10" d="M240.2,645.3c0,0-4,2.3-2.6,6.2c1.4,4,12.1,2.7,16.1-6.7C257.8,635.4,240.2,645.3,240.2,645.3z"/>
<path class="st13" d="M253.2,646h-1.1c0,0-4.9,5.8-8.1,6.6c-2.8,0.7-5.7-0.9-6.7-3.1c-0.1,0.6,0,1.4,0.3,2.1
	C239,655.4,248.8,654.4,253.2,646z"/>
<path class="st11" d="M233.7,601.4c0,0,43.1-0.4,43.4,0c0.3,0.9-3,28.3-3.2,28.4c-0.1,0.1-37,0.4-37.2,0.2
	C236,629.6,233.3,601.8,233.7,601.4z"/>
<path class="st11" d="M233.7,601.4c0,0,43.1-0.4,43.4,0c0.3,0.9-3,28.3-3.2,28.4c-0.1,0.1-37,0.4-37.2,0.2
	C236,629.6,233.3,601.8,233.7,601.4z"/>
<path class="st1" d="M250,576.9c0.1,1.1,0.4,2.7,0.5,4.3c3,0.9,6.7,1.1,9.9,0.9c-0.3-1.6-0.4-3.7-0.1-6.4c0.1-0.8,0.1-1.4,0.1-2.1
	l-9.2,2.2L250,576.9z"/>
<path class="st1" d="M247,555.7c-0.5,0.5-3.6,3.5-3.8,10.2c-0.1,6.7,4.4,15,12,14.5c7.6-0.5,12.5-9.2,11.5-19.6
	c-1-10.4-9.2-7.8-9.2-7.8L247,555.7z"/>
<path class="st1" d="M265.3,566.3c0,0,0.1-0.1,0.4-0.1c0.6-0.1,2-0.3,3.3,0.1c1.8,0.5-1.6,7.2-4.1,4.7
	C262.4,568.4,265.3,566.3,265.3,566.3z"/>
<path class="st1" d="M244.7,565.8c0,0-0.1-0.1-0.4-0.1c-0.6-0.1-2-0.4-3.3-0.1c-1.8,0.5,1.3,7.2,3.9,4.8
	C247.5,568.1,244.7,565.8,244.7,565.8z"/>
<path class="st6" d="M290.4,646.9c0,0,20.8-6.6,12.8-18.2c-8.1-11.7-49.5,9.7-49.5,9.7l14.3,8.8l14.3,0.8L290.4,646.9z"/>
<path class="st1" d="M259.5,640.1l4.6,1.6v4.9l-5.8-1.6L259.5,640.1z"/>
<path class="st23" d="M260.3,639.8c0,0-20.4-11.3-35.1-11.5c-14.7-0.1-16.6,6.5-17.4,10c-0.8,3.5,4.4,10.8,19,10.3
	c14.5-0.6,32.4-3.2,32.4-3.2L260.3,639.8z"/>
<path class="st10" d="M263.1,641.2c0,0,0.1,2.6-0.8,4.7c0,0,7.5,5.8,14.8,6.3s11.7-9.2,2.1-10.8
	C269.6,639.8,263.1,641.2,263.1,641.2z"/>
<path class="st13" d="M279.7,641.6c0.4,0.1,5.4,1.9,2.7,6.9c-1.5,3-5.2,3.5-8,3.4c0.9,0.2,1.8,0.3,2.7,0.4
	C284.4,652.8,288.6,643.5,279.7,641.6z"/>
<path class="st12" d="M254.3,618.4c1.5,0,2.7-1.2,2.7-2.7c0-1.5-1.2-2.7-2.7-2.7c-1.5,0-2.7,1.2-2.7,2.7
	C251.7,617.2,252.9,618.4,254.3,618.4z"/>
<path class="st8" d="M244.3,552.8c0.2,0.3,10.4,15.1,22.4,13.2c11.9-1.9-1.7-18.9-1.7-18.9l-9.9,3L244.3,552.8z"/>
<path class="st11" d="M81.5,159.5c-0.3-0.1-0.4-0.5-0.2-0.8c0.1-0.3,0.5-0.4,0.8-0.2c1.3,0.8,2.7,1.4,4.3,1.9
	c0.3,0.1,0.5,0.4,0.4,0.8c-0.1,0.3-0.4,0.5-0.8,0.4c-0.7-0.2-1.4-0.5-2-0.7C83.2,160.4,82.3,159.9,81.5,159.5z M89.6,161.7
	c0.1-0.3,0.3-0.5,0.7-0.5c1.5,0.2,3.1,0.3,4.7,0.3c0.3,0,0.6,0.3,0.6,0.6s-0.3,0.6-0.6,0.6c-1.7,0-3.4-0.1-4.9-0.3
	c-0.1,0-0.1,0-0.1-0.1C89.6,162.2,89.5,161.9,89.6,161.7z M78.2,157c-1.2-1.1-2.3-2.4-3.2-3.8c-0.2-0.3-0.1-0.7,0.2-0.8
	c0.3-0.2,0.7-0.1,0.8,0.2c0.8,1.4,1.8,2.5,2.9,3.6c0.3,0.2,0.3,0.6,0,0.8c-0.2,0.2-0.4,0.2-0.7,0.1C78.3,157.1,78.3,157.1,78.2,157z
	 M98.3,162c0-0.3,0.2-0.6,0.5-0.7c2.8-0.3,4.7-0.8,4.7-0.8c0.3-0.1,0.6,0.1,0.8,0.4c0.1,0.3-0.1,0.6-0.4,0.8c-0.1,0-2,0.5-4.9,0.8
	c-0.1,0-0.2,0-0.3-0.1C98.6,162.4,98.4,162.2,98.3,162z M73.2,149.4c-0.2-0.5-0.4-1.2-0.5-1.8c-0.2-0.7-0.3-1.4-0.5-2
	c-0.8-0.4-1.6-0.9-2.4-1.4c-0.3-0.2-0.3-0.5-0.1-0.8c0.2-0.3,0.5-0.3,0.8-0.1c0.5,0.4,1.1,0.8,1.6,1c0.1-0.1,0.2-0.2,0.4-0.3
	c0.3-0.1,0.6,0.2,0.7,0.5c0,0.1,0.1,0.2,0.1,0.3c0.4,0.2,0.9,0.4,1.3,0.5c0.3,0.1,0.5,0.5,0.3,0.8c-0.1,0.3-0.5,0.5-0.8,0.3
	c-0.2-0.1-0.4-0.1-0.6-0.2c0.1,0.3,0.2,0.7,0.3,1c0.1,0.6,0.3,1.2,0.5,1.7c0.1,0.3-0.1,0.7-0.3,0.8c-0.1,0.1-0.3,0.1-0.4,0
	C73.4,149.7,73.3,149.6,73.2,149.4z M77.7,146.7c0-0.3,0.3-0.5,0.7-0.5c1.6,0.1,3.1,0,4.6-0.3c0.3-0.1,0.6,0.1,0.8,0.4
	c0.1,0.3-0.1,0.7-0.4,0.8c-1.6,0.4-3.3,0.5-5,0.4c-0.1,0-0.1,0-0.2-0.1C77.8,147.3,77.7,147,77.7,146.7z M66.7,141.5
	c-1.1-1.1-2.2-2.3-3.2-3.8c-0.2-0.3-0.1-0.6,0.1-0.8c0.3-0.2,0.6-0.1,0.8,0.1c1,1.3,2,2.5,3.1,3.6c0.2,0.2,0.2,0.6,0,0.8
	c-0.2,0.2-0.4,0.2-0.7,0.1C66.7,141.6,66.7,141.6,66.7,141.5z M71.8,140.5c0.1-1.7,0.4-3.3,1-4.7l0.1-0.1c0.1-0.3,0.5-0.5,0.8-0.3
	c0.3,0.1,0.5,0.5,0.3,0.8l-0.1,0.1c-0.5,1.3-0.8,2.7-1,4.4c0,0.3-0.3,0.6-0.6,0.5c-0.1,0-0.1,0-0.2-0.1
	C71.9,141,71.8,140.7,71.8,140.5z M86.3,145.1c-0.2-0.3-0.1-0.7,0.2-0.8c1.3-0.8,2.4-2,3.2-3.2c0.2-0.3,0.5-0.3,0.8-0.2
	c0.3,0.2,0.3,0.5,0.2,0.8c-0.9,1.4-2.1,2.7-3.6,3.6c-0.2,0.1-0.4,0.1-0.5,0.1S86.3,145.3,86.3,145.1z M61.2,134.4
	c-0.6-1.1-1.2-2.3-1.9-3.6c-0.1-0.3,0-0.7,0.3-0.8c0.3-0.1,0.7,0,0.8,0.3c0.5,1.2,1.2,2.4,1.8,3.5c0.1,0.3,0.1,0.7-0.2,0.8
	c-0.1,0.1-0.3,0.1-0.5,0.1C61.4,134.6,61.3,134.4,61.2,134.4z M75.2,132.9c-0.3-0.2-0.3-0.6,0-0.8c1.2-1.2,2.6-2.2,4.2-2.8
	c0.3-0.1,0.7,0,0.8,0.3c0.1,0.3,0,0.7-0.3,0.8c-1.4,0.5-2.7,1.4-3.8,2.5c-0.2,0.2-0.4,0.2-0.7,0.1C75.4,133,75.3,133,75.2,132.9z
	 M90.9,137.5c0.1-1,0.1-2-0.1-2.9c-0.1-0.5-0.2-1-0.4-1.4c-0.1-0.3,0-0.7,0.3-0.8c0.3-0.1,0.7,0,0.8,0.3c0.3,0.5,0.4,1.1,0.5,1.7
	c0.2,1.1,0.2,2.3,0.1,3.4c-0.1,0.3-0.3,0.5-0.7,0.5c-0.1,0-0.1,0-0.1-0.1C91,138.1,90.9,137.8,90.9,137.5z M82.9,129.1
	c0-0.3,0.3-0.6,0.6-0.6c1.8-0.1,3.6,0.3,4.9,1.1c0.3,0.1,0.4,0.5,0.3,0.8c-0.1,0.3-0.5,0.4-0.8,0.3c-1.2-0.7-2.7-1-4.4-1
	c-0.1,0-0.1,0-0.3-0.1C83.1,129.5,82.9,129.3,82.9,129.1z"/>
<path class="st11" d="M113.9,168.3c0-1-0.7-6.8-0.6-7.3c0.1-0.5,18,3.2,18,3.2l25.2,15.6l3.4,2.5l-16.1-3.3c0,0-18.2-5-19-5.1
	C124.1,173.8,113.9,168.3,113.9,168.3z"/>
<path class="st11" d="M113.9,168.3c0-1-0.7-6.8-0.6-7.3c0.1-0.5,18,3.2,18,3.2l25.2,15.6l3.4,2.5l-16.1-3.3c0,0-18.2-5-19-5.1
	C124.1,173.8,113.9,168.3,113.9,168.3z"/>
<path class="st11" d="M96,176.7c0,0,13.3-11.9,14.5-11.9c1.1-0.1,48.3,17.2,49.3,17.5C160.8,182.7,96,176.7,96,176.7z"/>
<path class="st1" d="M113.2,161c-0.4-0.3,5.6-14.3,6.8-14.2s42.2,36.4,39.8,35.5S113.9,161.5,113.2,161z"/>
<path class="st24" d="M158.5,300c0,0-13.2-7.8-11.9-22.8c0,0,9.4-14-0.1-16.7c-7.8-2.1-7.1,6-16.7,6.5c-12.6,0.8-18.3,6.2-15.4,14
	c2.2,5.6,6.2,8.9-7.8,21.3c-10.8,9.5-4,24.8,6.2,26.1c10.3,1.3,19.3-21.3,19.3-21.3l18.6,0.9l7.8-7.4L158.5,300L158.5,300z"/>
<path class="st24" d="M123.4,283.4c0,0,1.3,2.3,5.5,0c4.2-2.3,8.9-6.8,11.6-15.7l-15.2,1.6l-2.9,12.1L123.4,283.4z"/>
<path class="st1" d="M162.8,294.7c0.3-0.2,19.9-14.3,26.1-25.4c0,0,2.8-10.7,4.5-11.4c1.6-0.7,2.1,0.8,1.4,3
	c-0.8,2.3-0.8,5.1-0.8,5.1l-1.5,5.8c0,0-17.3,30.7-28.4,36.2L162.8,294.7z"/>
<path class="st25" d="M198.9,258.3l5.1-1.6l-2.4,5l-9.5,10l-3.4-3.4L198.9,258.3z"/>
<path class="st6" d="M202.9,258.9l1.1-2.3l-2.3,0.8C201.9,257.8,202.4,258.3,202.9,258.9z"/>
<path class="st6" d="M201.6,261.6l-0.8-0.5l0.1-1.2l-1.4-0.1l-0.5-1.5h-0.1l-10.2,10l3.4,3.4L201.6,261.6z"/>
<path class="st1" d="M200,263.6c-0.6-1.1-2.9-1.1-4.8,1.6c-1.9,2.7-2.2,4.6,0,5.1C197.5,270.8,202.1,267.6,200,263.6z"/>
<path class="st1" d="M130.2,386.7c0,1.5-3.8,10.7-1.6,21.5c1.4,6.9,8,31.6,7.8,37.6c0,0-2.1,4.7,0.7,14.3h2.6c0,0-0.8-5,0.1-5.3
	c0.8-0.3,2.5,5.4,2.5,5.4l13.9,0.1c0,0,1.2-2.3,0-2.9c-1.2-0.8-10.5-2.6-13.4-13c-2.9-10.4-2.6-43.6,2.1-57.3
	c4.7-13.7-5.5-8.6-5.5-8.6L130.2,386.7z"/>
<path class="st1" d="M144.9,386.9c0,1.5-3.8,10.7-1.6,21.5c1.4,6.9,8,31.6,7.8,37.6c0,0-2.1,4.7,0.7,14.3h2.6c0,0-0.8-5,0.1-5.3
	c0.8-0.3,2.5,5.3,2.5,5.3l13.9,0.1c0,0,1.2-2.3,0-2.9c-1.2-0.8-10.5-2.6-13.4-13s-0.6-41.7,1.6-57.4c0.4-3.1-4.9-8.5-4.9-8.5
	L144.9,386.9z"/>
<path class="st1" d="M144.9,386.9c0,1.5-3.8,10.7-1.6,21.5c1.4,6.9,8,31.6,7.8,37.6c0,0-2.1,4.7,0.7,14.3h2.6c0,0-0.8-5,0.1-5.3
	c0.8-0.3,2.5,5.3,2.5,5.3l13.9,0.1c0,0,1.2-2.3,0-2.9c-1.2-0.8-10.5-2.6-13.4-13s-0.6-41.7,1.6-57.4c0.4-3.1-4.9-8.5-4.9-8.5
	L144.9,386.9z"/>
<path class="st24" d="M158.5,300c0,0-13.2-7.8-11.9-22.8c0,0,9.4-14-0.1-16.7c-7.8-2.1-7.1,6-16.7,6.5c-12.6,0.8-18.3,6.2-15.4,14
	c2.2,5.6,6.2,8.9-7.8,21.3c-10.8,9.5-4,24.8,6.2,26.1c10.3,1.3,19.3-21.3,19.3-21.3l18.6,0.9l7.8-7.4L158.5,300L158.5,300z"/>
<path class="st3" d="M158.5,300c0,0-13.2-7.8-11.9-22.8c0,0,9.4-14-0.1-16.7c-7.8-2.1-7.1,6-16.7,6.5c-12.6,0.8-18.3,6.2-15.4,14
	c2.2,5.6,6.2,8.9-7.8,21.3c-10.8,9.5-4,24.8,6.2,26.1c10.3,1.3,19.3-21.3,19.3-21.3l18.6,0.9l7.8-7.4L158.5,300L158.5,300z"/>
<path class="st1" d="M133.8,294.2c1.1,0.5,2.9,5.2,2.1,6.5c-0.9,1.3-1.3,1.5-6,3.8c-4.7,2.3,10,5.1,11.7,5.3c1.7,0.2,10.5-3,10.5-3
	l-1.8-6.4c0,0-6.1,1.9-8.4-6.7C139.6,285.1,133.8,294.2,133.8,294.2z"/>
<path class="st26" d="M132,302.8c0,0-9.4,3.8-16.5,13.4c-7.1,9.5-14.3,23.9-8.3,26.8c6,2.8,17.4-3.6,22.6-7.5l-0.9-4.3
	c0,0-11,5.6-10.7,2.3c0.3-3.4,6.9-9.5,13.2-12.1l9,20.5c0,0,9.5,2.5,15,0.4c0,0-0.3-11.9,3.1-16.3c3.4-4.4,5.1-9.3,1.9-14l5.5-4
	c0,0-2.9-9.9-2.1-13.8c0,0-8.3,4.8-13.4,6c0,0,1,5.4-4.8,6.9C139.7,308.7,134.2,305.4,132,302.8z"/>
<path class="st6" d="M132.7,335.9c0.1,3.1-7.5,9.9-8.7,19.6c-1.6,13.5,5,31.3,4.3,35.3c0,0,17.4,4.7,31.4-2.3c0,0,0.5-33.8-4.4-46.3
	C150.5,329.6,132.7,335.9,132.7,335.9z"/>
<path class="st27" d="M131.9,316c-0.4-2.3-1.4-3.9-0.3-4.3c1.2-0.4,10.9-0.6,11.2,0c0.3,0.6,0.9,5.1,0.9,5.1L131.9,316z"/>
<path class="st28" d="M131.9,316c-0.4-2.3-1.4-3.9-0.3-4.3c1.2-0.4,10.9-0.6,11.2,0c0.3,0.6,0.9,5.1,0.9,5.1L131.9,316z"/>
<path class="st29" d="M131.9,316c-0.4-2.3-1.4-3.9-0.3-4.3c1.2-0.4,10.9-0.6,11.2,0c0.3,0.6,0.9,5.1,0.9,5.1L131.9,316z"/>
<path class="st12" d="M130.6,330c-0.9-1.8-5.2-14.1-3.7-14.3c1.5-0.2,21.5-1.4,21.6-0.6c0.1,0.8,7.2,32.7,5.6,33.4
	c-1.6,0.8-18.7,2-19.5,0.8C134,348.2,130.6,330,130.6,330z"/>
<path class="st30" d="M170.8,457.4c-0.5-0.3-2.4-0.8-4.7-2.1c-1.1,0.8-2.7,1.4-4.6,1.2c-3.8-0.7-8.4-7.5-10.6-10
	c-0.5,1.5-1.4,6,0.9,13.7h2.6c0,0-0.8-5,0.1-5.3c0.8-0.3,2.5,5.4,2.5,5.4l13.9,0.1C170.8,460.4,172,458.1,170.8,457.4z"/>
<path class="st31" d="M170.8,457.4c-0.5-0.3-2.4-0.8-4.7-2.1c-1.1,0.8-2.7,1.4-4.6,1.2c-3.8-0.7-8.4-7.5-10.6-10
	c-0.5,1.5-1.4,6,0.9,13.7h2.6c0,0-0.8-5,0.1-5.3c0.8-0.3,2.5,5.4,2.5,5.4l13.9,0.1C170.8,460.4,172,458.1,170.8,457.4z"/>
<path class="st3" d="M156.1,457.3c-0.5-0.3-2.4-0.8-4.7-2.1c-1.1,0.8-2.7,1.4-4.6,1.2c-3.8-0.7-8.4-7.5-10.6-10
	c-0.5,1.5-1.4,6,0.9,13.7h2.6c0,0-0.8-5,0.1-5.3c0.8-0.3,2.5,5.4,2.5,5.4l13.9,0.1C156.1,460.2,157.3,458,156.1,457.3z"/>
<path class="st1" d="M118.2,333.4c0.1-2,2.6-5,5.9-7.7c-3.7-2.7-10.2-7.4-10-7.6c-6.6,9.5-12.6,22.2-6.9,24.9
	c6,2.8,17.4-3.6,22.6-7.5l-0.9-4.3C128.9,331.2,117.9,336.7,118.2,333.4z"/>
<path class="st1" d="M130.3,328.4c-1.4,0.3-2.7,3-1.8,6.9c0.9,4,4.1,4.7,5.3,2.9c1.2-1.7,1.3-4.7,0.2-7.4
	C132.9,328.1,131.3,328.1,130.3,328.4z"/>
<path class="st1" d="M141.8,293.6c-0.4-1.5-0.9-2.4-1.4-2.9l-3,1.2l-3,2.9c0.5,0.8,1.2,2.1,1.4,3.4c1.3,0.3,3.8,0.5,7.3-1.3
	C142.7,295.9,142.2,294.9,141.8,293.6z"/>
<path class="st1" d="M126.8,288.1c0,0,4.7,9,10.3,9c4.9,0,8.4-3.4,8-10.8s-2.3-13.7-6-15.2c-3.8-1.6-10.1,2.7-10.1,2.7l-4,10.8
	c0,0-2.7-1.2-2.7,1.7C122.4,289.2,126.3,289.6,126.8,288.1z"/>
<path class="st24" d="M123.4,283.4c0,0,1.3,2.3,5.5,0c4.2-2.3,8.9-6.8,11.6-15.7l-15.2,1.6l-2.9,12.1L123.4,283.4z"/>
<path class="st3" d="M123.4,283.4c0,0,1.3,2.3,5.5,0c4.2-2.3,8.9-6.8,11.6-15.7l-15.2,1.6l-2.9,12.1L123.4,283.4z"/>
<path class="st6" d="M461.6,317.6c-1,0.5-2.1,1-3.2,1.4c-0.5,0.2-1.1-0.1-1.3-0.5c-0.2-0.5,0.1-1.1,0.5-1.3c2.5-1,4.9-2.3,7-3.8
	c0.5-0.3,1.1-0.2,1.4,0.3c0.3,0.5,0.2,1.1-0.3,1.4C464.5,316,463.1,316.8,461.6,317.6z M452,321.1c-0.1,0.1-0.1,0.1-0.2,0.1
	c-2.6,0.6-5.4,1-8.2,1.3c-0.5,0.1-1-0.3-1.1-0.9c-0.1-0.5,0.3-1,0.9-1.1c2.7-0.3,5.4-0.7,8-1.3c0.5-0.1,1.1,0.2,1.2,0.8
	C452.7,320.4,452.4,320.9,452,321.1z M470.8,310.7c-0.3,0.2-0.8,0.1-1.2-0.1c-0.4-0.4-0.5-1-0.1-1.4c1.7-1.9,3.2-4.1,4.4-6.5
	c0.3-0.5,0.9-0.7,1.4-0.5c0.5,0.3,0.7,0.9,0.5,1.4c-1.3,2.5-2.9,4.9-4.7,7C471,310.6,470.9,310.7,470.8,310.7z M437.1,322.7
	c-0.1,0.1-0.3,0.1-0.5,0.1c-4.9-0.1-8.2-0.5-8.3-0.6c-0.5-0.1-1-0.6-0.8-1.2c0.1-0.5,0.6-1,1.2-0.8c0,0,3.3,0.5,8,0.5
	c0.5,0,1,0.5,1,1C437.6,322.2,437.4,322.5,437.1,322.7z M477.8,297.6c-0.2,0.1-0.5,0.1-0.8,0.1c-0.5-0.1-0.9-0.7-0.8-1.2
	c0.3-1,0.5-1.9,0.7-3c0.1-0.6,0.2-1.2,0.3-1.9c-0.3,0.1-0.6,0.3-1,0.5c-0.5,0.2-1.1,0-1.4-0.5c-0.2-0.5,0-1.2,0.5-1.4
	c0.7-0.3,1.4-0.7,2.1-1.1c0-0.2,0-0.4,0.1-0.6c0.1-0.5,0.5-1,1.1-1c0.3,0,0.5,0.1,0.8,0.4c0.9-0.6,1.8-1.3,2.7-2
	c0.4-0.3,1.1-0.3,1.4,0.1c0.3,0.4,0.3,1.1-0.1,1.4c-1.2,1-2.5,2-3.9,2.8c-0.1,1.1-0.3,2.3-0.5,3.4c-0.2,1-0.4,2.1-0.7,3.1
	C478.2,297.2,478,297.5,477.8,297.6z M469.9,294.1c-0.1,0.1-0.2,0.1-0.3,0.1c-2.9,0.5-5.7,0.5-8.5,0.1c-0.5-0.1-1-0.6-0.8-1.2
	c0.1-0.5,0.6-1,1.2-0.8c2.5,0.4,5.1,0.4,7.8-0.1c0.5-0.1,1.1,0.3,1.2,0.8C470.5,293.5,470.2,293.9,469.9,294.1z M488.1,282.9
	c-0.3,0.2-0.8,0.1-1.1-0.1c-0.4-0.3-0.5-1-0.1-1.4c1.6-1.9,3.2-4.1,4.7-6.5c0.3-0.5,0.9-0.6,1.4-0.3c0.5,0.3,0.6,0.9,0.3,1.4
	c-1.5,2.5-3.2,4.7-4.9,6.8C488.3,282.8,488.1,282.9,488.1,282.9z M478.9,282.7c-0.1,0.1-0.2,0.1-0.3,0.1c-0.5,0.1-1.1-0.3-1.2-0.9
	c-0.3-2.7-1.1-5.1-2.2-7.2l-0.1-0.2c-0.3-0.5-0.1-1.1,0.4-1.4c0.5-0.3,1.1-0.1,1.4,0.4l0.1,0.2c1.2,2.3,2,5,2.4,7.9
	C479.5,282.1,479.3,282.5,478.9,282.7z M455.3,292c-0.3,0.1-0.6,0.1-1,0c-2.6-1.4-4.8-3.3-6.4-5.6c-0.3-0.5-0.2-1.1,0.2-1.4
	c0.5-0.3,1.1-0.2,1.4,0.2c1.5,2,3.5,3.8,5.8,5c0.5,0.3,0.7,0.9,0.4,1.4C455.7,291.7,455.5,291.9,455.3,292z M496,270.3
	c-0.3,0.1-0.6,0.1-0.9,0c-0.5-0.2-0.8-0.8-0.5-1.4c0.9-1.9,1.7-4,2.5-6.1c0.2-0.5,0.8-0.8,1.3-0.6c0.5,0.2,0.8,0.8,0.6,1.3
	c-0.8,2.2-1.6,4.3-2.6,6.3C496.4,270,496.1,270.2,496,270.3z M472.3,269.6c-0.3,0.2-0.8,0.1-1.2-0.1c-1.9-1.7-4.2-2.9-6.7-3.7
	c-0.5-0.1-0.8-0.8-0.7-1.3c0.1-0.5,0.8-0.8,1.3-0.7c2.8,0.8,5.4,2.3,7.5,4.1c0.4,0.3,0.5,1,0.1,1.4
	C472.5,269.5,472.4,269.6,472.3,269.6z M446.3,280.5c-0.1,0.1-0.1,0.1-0.2,0.1c-0.5,0.1-1.1-0.2-1.2-0.8c-0.4-1.9-0.5-3.7-0.4-5.7
	c0.1-1,0.3-2.1,0.7-3c0.2-0.5,0.8-0.8,1.3-0.6c0.5,0.2,0.8,0.8,0.6,1.3c-0.3,0.8-0.5,1.6-0.5,2.5c-0.1,1.7,0,3.4,0.3,5
	C447,279.9,446.8,280.3,446.3,280.5z M458.5,264.9c-0.1,0.1-0.3,0.1-0.4,0.1c-2.7,0.1-5.3,1-7.2,2.3c-0.5,0.3-1.1,0.2-1.4-0.3
	c-0.3-0.5-0.2-1.1,0.3-1.4c2.3-1.5,5.1-2.4,8.2-2.5c0.5,0,1,0.4,1.1,1C459.1,264.4,458.8,264.8,458.5,264.9z"/>
<path class="st6" d="M412.4,334.7c-0.1-1.7,0.2-11.5,0.1-12.4c-0.2-0.9-29.9,7.9-29.9,7.9L342.3,360l-5.4,4.8l26.6-7.9
	c0,0,30.1-11,31.3-11.3C396,345.3,412.4,334.7,412.4,334.7z"/>
<path class="st6" d="M412.4,334.7c-0.1-1.7,0.2-11.5,0.1-12.4c-0.2-0.9-29.9,7.9-29.9,7.9L342.3,360l-5.4,4.8l26.6-7.9
	c0,0,30.1-11,31.3-11.3C396,345.3,412.4,334.7,412.4,334.7z"/>
<path class="st6" d="M443.7,346.3c0,0-24.1-18.1-26.1-18c-1.9,0.1-79,35.9-80.7,36.6C335.1,365.4,443.7,346.3,443.7,346.3z"/>
<path class="st6" d="M412.4,322.3c0.6-0.6-11.5-23.3-13.4-23c-1.9,0.3-66,67.3-62.1,65.6C340.8,363.1,411.4,323.2,412.4,322.3z"/>
<path class="st6" d="M412.4,322.3c0.6-0.6-11.5-23.3-13.4-23c-1.9,0.3-66,67.3-62.1,65.6C340.8,363.1,411.4,323.2,412.4,322.3z"/>
<path class="st1" d="M392.6,628.3c-3.4-0.2-5.6-0.8-6.9-1.4c0.1,0,0.1-0.1,0.1-0.1c-1.4-2.6,2.3-40.8,2.3-41.9
	c0-1.1,3.8-19.8,3.8-34.6s-6.2-25.3-6.2-25.3h-3.2l-9.4,34.4c0,0,0.3,5.1,3,21.1c2.6,16,6.9,45.9,7.1,46.5c0,1,1,5,1.4,5.4
	c0.4,0.4,18.7,0,18.7,0S404,629.1,392.6,628.3z"/>
<path class="st1" d="M392.6,628.3c-3.4-0.2-5.6-0.8-6.9-1.4c0.1,0,0.1-0.1,0.1-0.1c-1.4-2.6,2.3-40.8,2.3-41.9
	c0-1.1,3.8-19.8,3.8-34.6s-6.2-25.3-6.2-25.3h-3.2l-9.4,34.4c0,0,0.3,5.1,3,21.1c2.6,16,6.9,45.9,7.1,46.5c0,1,1,5,1.4,5.4
	c0.4,0.4,18.7,0,18.7,0S404,629.1,392.6,628.3z"/>
<path class="st8" d="M354.9,487.6c2.4-18.5,8.6-17.4,9.9-23c1.3-5.6,3.7-9.1,11.1-7.7c0,0,1.8-3.4,6.2-3.4c4.5,0,6.1,3.2,7.3,8.3
	c1.2,5.1,5.3,2.8,4.7,8.6c-0.6,5.8-4.8,8.6-3.9,9.8c8.3,10.5-2.1,18.4-2.1,18.4s-4.5-1.7-4.5-1.6c0,0.1-14.4-4.3-14.4-4.3l-2.9,18.2
	C366.4,510.8,352.5,506.1,354.9,487.6z"/>
<path class="st1" d="M373.6,477.7c-0.1,0.3-1.1,10.2-1.9,11.1c5.2,3.6,9.8,4.9,7.6-2.3c0,0-0.6-6.9-0.4-8.5
	C379.3,476.5,373.6,477.7,373.6,477.7z"/>
<path class="st1" d="M417.9,520.7c0.8,1.3,10.2,6.4,12.5,2.7c2.3-3.7-10.8-5.5-12.9-4.9C415.3,519.1,417.9,520.7,417.9,520.7z"/>
<path class="st1" d="M413.4,509.3c0.6-0.1,14.1,3.2,10.2,8c-3.8,4.7-11.6-6.5-11.6-6.5L413.4,509.3z"/>
<path class="st1" d="M379.5,628.3c-2.6-0.1-4.5-0.5-5.8-1c0,0-3.6-8.6,0.1-26.2c3.8-17.6,9.5-57.8,9.5-57.8s1.2-6.7,1.2-7.3
	c0-0.6-6.9-8.8-6.9-8.8l-8-3.1c-2.5,4.2-8.8,10.9-7.8,30.6c1,19.7,3.6,27.2,3.8,29.8c0,0-4.8,13.2,4.7,44.4c0.3,1.5,0.8,3.3,1.1,3.6
	c0.4,0.4,18.7,0,18.7,0S390.9,629.1,379.5,628.3z"/>
<path class="st1" d="M373.6,477.7c0,0.1-0.1,1.2-0.3,2.5c2.3,1.1,3.9,1.5,5.7,1.1c-0.1-1.5-0.1-2.7,0-3.3c0-0.1,0-0.1,0-0.2
	c-0.6-0.2-1.2-0.4-1.7-0.6C375.7,477.3,373.6,477.7,373.6,477.7z"/>
<path class="st1" d="M375.4,463.1c-2,1-9.3,14-0.2,17c9.1,3.1,13.5-16.3,7.2-17.5C376.1,461.4,375.4,463.1,375.4,463.1z"/>
<path class="st8" d="M374.2,458.6c-1.4,3.8-1.6,13.7,10.7,15l1.9-9.6L374.2,458.6z"/>
<path class="st32" d="M369.4,523.4c-0.8,2.5-8.2,9-8.4,23.5c-0.3,14.5,0.8,24,0.8,24s18.9,3.9,30.2-1.1c0,0,7.7-27.2-5.4-43.4
	L369.4,523.4z"/>
<path class="st33" d="M369.4,523.4c-0.8,2.5-8.2,9-8.4,23.5c-0.3,14.5,0.8,24,0.8,24s18.9,3.9,30.2-1.1c0,0,7.7-27.2-5.4-43.4
	L369.4,523.4z"/>
<path class="st6" d="M369.4,523.4c-0.8,2.5-8.2,9-8.4,23.5c-0.3,14.5,0.8,24,0.8,24s18.9,3.9,30.2-1.1c0,0,7.7-27.2-5.4-43.4
	L369.4,523.4z"/>
<path class="st34" d="M396.1,628.7c-2.3,1-5.7,1.4-10.4,0.8l-1.6,0.8l-0.2,0.1c0.3,1,0.5,1.9,0.8,2.1c0.4,0.4,18.7,0,18.7,0
	S403.8,629.8,396.1,628.7z"/>
<path class="st35" d="M382.8,628.7c-1.8,1.1-9.3,1-12.3,0.5c0.3,1.4,0.8,3.1,1,3.4c0.4,0.4,18.7,0,18.7,0S390.8,629.8,382.8,628.7z"
	/>
<path class="st1" d="M372.2,470.4c0-0.2,0.7-1.9-0.9-2.1s-1.4,4.7,0.5,4C373.8,471.5,372.2,470.4,372.2,470.4z"/>
<path class="st36" d="M379.4,486.6c0,0,32.2,20.7,34.8,22.2l-0.9,4.8c0,0-17.4-8-23.7-11.3c0,0-0.2,2.7-1.4,3.6
	c0,0,29.1,11.7,32.2,12.4l-0.9,4.1c0,0-28.2-6.2-34.7-8.9c0,0,2,12.2,1.8,12.9c-0.6,1.8-13,1.6-19,0.1c0,0-1.7-15.2-3.2-27.2
	c-1.6-11.9,8.2-13.3,8.2-13.3S381.5,495.4,379.4,486.6z"/>
</svg>
