<?xml version="1.0" encoding="utf-8"?>
<!-- Generator: Adobe Illustrator 19.1.0, SVG Export Plug-In . SVG Version: 6.00 Build 0)  -->
<svg version="1.1" id="Layer_1" xmlns="http://www.w3.org/2000/svg" xmlns:xlink="http://www.w3.org/1999/xlink" x="0px" y="0px"
	 width="432px" height="792px" viewBox="0 0 432 792" style="enable-background:new 0 0 432 792;" xml:space="preserve">
<style type="text/css">
	.st0{fill:#3333CC;}
	.st1{fill:#28A964;}
	.st2{fill:#E63950;}
	.st3{fill:#DEECF1;}
	.st4{fill:#C6E2E7;}
	.st5{fill:#A8D3D8;}
	.st6{fill:#8EBAC5;}
	.st7{fill:#FFAB3B;}
	.st8{fill:#FF9F00;}
	.st9{clip-path:url(#SVGID_2_);}
	.st10{fill:#FF7816;}
	.st11{fill:#FDBF6D;}
	.st12{fill:#4545FF;}
	.st13{fill:#697C86;}
	.st14{fill:#465A61;}
	.st15{fill:#FFCEBF;}
	.st16{fill:#FFA78F;}
	.st17{fill:#F7D5A0;}
	.st18{clip-path:url(#SVGID_4_);}
	.st19{fill:#979FEF;}
	.st20{fill:#8F8FF9;}
	.st21{fill:#7984EB;}
	.st22{fill:#4141F4;}
	.st23{fill:#F5C068;}
	.st24{fill:#F7C77D;}
	.st25{fill:#F8B957;}
	.st26{clip-path:url(#SVGID_6_);}
	.st27{fill:#6B77E8;}
	.st28{fill:#5252EB;}
	.st29{fill:#3A3AC9;}
	.st30{fill:#392E6E;}
	.st31{fill:#463B85;}
	.st32{fill:#54469D;}
	.st33{clip-path:url(#SVGID_8_);}
</style>
<g id="_x31_9">
	<g>
		<path class="st0" d="M217.1,52h-5.3c-1,0-1.8-0.9-1.8-2s0.8-2,1.8-2h5.3c1,0,1.8,0.9,1.8,2S218,52,217.1,52z"/>
		<path class="st0" d="M227.6,52h-5.3c-1,0-1.8-0.9-1.8-2s0.8-2,1.8-2h5.3c1,0,1.8,0.9,1.8,2S228.6,52,227.6,52z"/>
		<path class="st0" d="M238.2,52h-5.3c-1,0-1.8-0.9-1.8-2s0.8-2,1.8-2h5.3c1,0,1.8,0.9,1.8,2S239.2,52,238.2,52z"/>
	</g>
</g>
<g id="_x31_8">
	<path class="st1" d="M200.1,64c-0.7,0-1.3-0.3-1.8-0.7l-3.6-3.5c-1-1-1-2.6,0-3.6s2.6-1,3.6,0l1.4,1.4l5.6-8.4
		c0.8-1.2,2.4-1.5,3.5-0.7c1.2,0.7,1.6,2.3,0.8,3.5l-7.4,10.9c-0.4,0.6-1.1,1-1.9,1.1C200.3,64,200.2,64,200.1,64z"/>
</g>
<g id="_x31_7">
	<path class="st2" d="M189.8,56l3.4-3.4c1-1,1-2.7,0-3.8c-1-1-2.7-1-3.8,0l-3.4,3.4l-3.4-3.4c-1-1-2.7-1-3.8,0c-1,1-1,2.7,0,3.8
		l3.4,3.4l-3.4,3.4c-1,1-1,2.7,0,3.8c0.5,0.5,1.2,0.8,1.9,0.8c0.7,0,1.4-0.3,1.9-0.8l3.4-3.4l3.4,3.4c0.5,0.5,1.2,0.8,1.9,0.8
		c0.7,0,1.4-0.3,1.9-0.8c1-1,1-2.7,0-3.8L189.8,56z"/>
</g>
<g id="_x31_6_1_">
	<path class="st3" d="M192,175.7v45.5c0,1-0.8,1.8-1.8,1.8h-43.7c-1,0-1.8-0.8-1.8-1.8v-58.4c0-1,0.8-1.8,1.8-1.8h31L192,175.7z"/>
	<path class="st4" d="M192,175.7v45.5c0,1-0.8,1.8-1.8,1.8h-21.8v-62h9.1L192,175.7z"/>
	<path class="st5" d="M177.5,173.8V161h1.8c0.5,0,0.9,0.2,1.3,0.5l10.9,11c0.3,0.3,0.5,0.8,0.5,1.3v1.8h-12.7
		C178.3,175.7,177.5,174.8,177.5,173.8z"/>
	<path class="st5" d="M173.8,173.8c0,1-0.8,1.8-1.8,1.8h-18.3c-1,0-1.8-0.8-1.8-1.8c0-1,0.8-1.8,1.8-1.8H172
		C173,172,173.8,172.8,173.8,173.8z"/>
	<path class="st5" d="M184.7,181.2c0,1-0.8,1.8-1.8,1.8h-29.2c-1,0-1.8-0.8-1.8-1.8c0-1,0.8-1.8,1.8-1.8h29.2
		C183.9,179.4,184.7,180.2,184.7,181.2z"/>
	<path class="st5" d="M184.7,188.5c0,1-0.8,1.8-1.8,1.8h-29.2c-1,0-1.8-0.8-1.8-1.8c0-1,0.8-1.8,1.8-1.8h29.2
		C183.9,186.7,184.7,187.5,184.7,188.5z"/>
	<path class="st6" d="M172,175.7h-3.6V172h3.6c1,0,1.8,0.8,1.8,1.8C173.8,174.9,173,175.7,172,175.7z"/>
	<path class="st6" d="M184.7,188.5c0,1-0.8,1.8-1.8,1.8h-14.5v-3.6h14.5C183.9,186.7,184.7,187.5,184.7,188.5z"/>
	<path class="st6" d="M182.9,183h-14.5v-3.6h14.5c1,0,1.8,0.8,1.8,1.8C184.7,182.2,183.9,183,182.9,183z"/>
	<path class="st7" d="M154.3,197.6c-2.1-4.4-6.5-7.3-11.5-7.3c-7,0-12.8,5.7-12.8,12.7c0,7,5.8,12.7,12.8,12.7
		c4.9,0,9.4-2.9,11.5-7.3h21.3v-10.9H154.3z M139.2,204.8c-1,0-1.8-0.8-1.8-1.8c0-1,0.8-1.8,1.8-1.8s1.8,0.8,1.8,1.8
		C141,204,140.2,204.8,139.2,204.8z"/>
	<path class="st8" d="M168.4,197.6h7.3v10.9h-7.3V197.6z"/>
	<path class="st0" d="M175.7,212.1c-1,0-1.8-0.8-1.8-1.8v-14.5c0-1,0.8-1.8,1.8-1.8c1,0,1.8,0.8,1.8,1.8v14.5
		C177.5,211.3,176.7,212.1,175.7,212.1z"/>
</g>
<g id="_x31_5_1_">
	<defs>
		<rect id="SVGID_1_" x="62" y="161" width="62" height="62"/>
	</defs>
	<clipPath id="SVGID_2_">
		<use xlink:href="#SVGID_1_"  style="overflow:visible;"/>
	</clipPath>
	<g class="st9">
		<path class="st10" d="M118.6,161h-5.2l-3.7,3.6h9c1,0,1.8,0.8,1.8,1.8v2.8c0,3.7-1.3,7.3-3.5,10.1c-2,2.4-4.6,4.3-7.5,5.2
			l-2.6,0.9c-1,0.3-1.5,1.3-1.1,2.3c0.3,0.8,1,1.2,1.7,1.2c0.2,0,0.4,0,0.6-0.1l2.6-0.9c3.6-1.2,6.8-3.4,9.2-6.4
			c2.8-3.5,4.3-7.9,4.3-12.4v-2.8C124,163.4,121.6,161,118.6,161z"/>
		<path class="st8" d="M79.3,185.4l-2.6-0.9c-3-1-5.6-2.8-7.5-5.2c-2.3-2.9-3.5-6.4-3.5-10.1v-2.8c0-1,0.8-1.8,1.8-1.8h9.4l-4.2-3.6
			h-5.2c-3,0-5.4,2.4-5.4,5.4v2.8c0,4.5,1.5,8.9,4.3,12.4c2.4,3,5.6,5.2,9.2,6.4l2.6,0.9c0.2,0.1,0.4,0.1,0.6,0.1
			c0.8,0,1.5-0.5,1.7-1.2C80.7,186.8,80.2,185.7,79.3,185.4z"/>
		<path class="st11" d="M98.6,196.5v2.7c0,1,0.8,1.8,1.8,1.8c3,0,5.4,2.4,5.4,5.4v3.6c0,1-0.8,1.8-1.8,1.8H82c-1,0-1.8-0.8-1.8-1.8
			v-3.6c0-3,2.4-5.4,5.4-5.4c1,0,1.8-0.8,1.8-1.8v-2.7c-6.8-2.1-11.7-8.1-12.5-15.2L72.7,161h40.6l-2.3,20.3
			C110.3,188.4,105.3,194.3,98.6,196.5z"/>
		<path class="st7" d="M104,211.9H93V161h20.3l-2.3,20.3c-0.8,7.1-5.7,13-12.5,15.2v2.7c0,1,0.8,1.8,1.8,1.8c3,0,5.4,2.4,5.4,5.4
			v3.6C105.8,211.1,105,211.9,104,211.9z"/>
		<path class="st8" d="M102,174.7c-0.2-0.7-0.8-1.2-1.5-1.3l-4.1-0.6l-1.8-3.6c-0.3-0.6-1-0.9-1.6-0.9c-0.7,0-1.3,0.3-1.6,0.9
			l-1.8,3.6l-4.1,0.6c-0.7,0.1-1.3,0.6-1.5,1.3c-0.2,0.7,0,1.4,0.5,1.9l2.9,2.8l-0.7,3.9c-0.1,0.7,0.1,1.3,0.7,1.8
			c0.5,0.4,1.3,0.5,1.9,0.1l3.7-1.9l3.7,1.9c0.6,0.3,1.3,0.3,1.9-0.1c0.6-0.4,0.8-1.1,0.7-1.8l-0.7-3.9l2.9-2.8
			C102,176.1,102.2,175.3,102,174.7z"/>
		<path class="st12" d="M109.5,210v11H76.5v-11c0-1,0.8-1.8,1.8-1.8h29.3C108.7,208.2,109.5,209,109.5,210z"/>
		<path class="st10" d="M96.7,185.2l-3.7-1.9v-15c0.7,0,1.3,0.3,1.6,0.9l1.8,3.6l4.1,0.6c0.7,0.1,1.3,0.6,1.5,1.3
			c0.2,0.7,0,1.4-0.5,1.9l-2.9,2.8l0.7,3.9c0.1,0.7-0.1,1.3-0.7,1.8C98,185.4,97.3,185.5,96.7,185.2z"/>
		<path class="st0" d="M109.5,210v11H93v-12.8h14.7C108.7,208.2,109.5,209,109.5,210z"/>
		<path class="st13" d="M113.1,221.2c0,1-0.8,1.8-1.8,1.8H74.7c-1,0-1.8-0.8-1.8-1.8c0-1,0.8-1.8,1.8-1.8h36.6
			C112.3,219.4,113.1,220.2,113.1,221.2z"/>
		<path class="st14" d="M113.1,221.2c0,1-0.8,1.8-1.8,1.8H93v-3.6h18.3C112.3,219.4,113.1,220.2,113.1,221.2z"/>
	</g>
</g>
<g id="_x31_4_1_">
	<path class="st12" d="M58.4,186.6v34.5H3.6v-34.5c0-3,2.4-5.4,5.4-5.4h43.8C55.9,181.1,58.4,183.6,58.4,186.6z"/>
	<path class="st0" d="M58.4,186.6v34.5H31v-40h21.9C55.9,181.1,58.4,183.6,58.4,186.6z"/>
	<path class="st3" d="M54.7,186.6v34.5H7.3v-34.5c0-1,0.8-1.8,1.8-1.8h43.8C53.9,184.8,54.7,185.6,54.7,186.6z"/>
	<path class="st4" d="M54.7,186.6v34.5H31v-36.3h21.9C53.9,184.8,54.7,185.6,54.7,186.6z"/>
	<path class="st5" d="M47.5,208.4c0,1-0.8,1.8-1.8,1.8H16.3c-1,0-1.8-0.8-1.8-1.8c0-1,0.8-1.8,1.8-1.8h29.3
		C46.7,206.6,47.5,207.4,47.5,208.4z"/>
	<path class="st6" d="M45.7,210.2H31v-3.6h14.7c1,0,1.8,0.8,1.8,1.8C47.5,209.4,46.7,210.2,45.7,210.2z"/>
	<path class="st12" d="M62,215.8c0,3-2.4,5.4-5.4,5.4H5.4c-3,0-5.4-2.4-5.4-5.4c0-1,0.8-1.8,1.8-1.8h58.4
		C61.2,214,62,214.8,62,215.8z"/>
	<path class="st0" d="M62,215.8c0,3-2.4,5.4-5.4,5.4H31V214h29.2C61.2,214,62,214.8,62,215.8z"/>
	<path class="st15" d="M49.3,199.3c0,0.2,0,0.4-0.1,0.6l-1.8,9.1c-0.2,0.7-0.9,1.2-1.7,1.2c-0.8,0-1.5-0.5-1.7-1.2l-1.8-9.1
		c-0.1-0.2-0.1-0.4-0.1-0.6l3.6-3.6L49.3,199.3z"/>
	<path class="st16" d="M45.7,195.7l3.6,3.6c0,0.2,0,0.4-0.1,0.6l-1.8,9.1c-0.2,0.7-0.9,1.2-1.7,1.2V195.7z"/>
	<path class="st12" d="M49.3,164.6v5.4l-3.6,3.6L42,170v-5.4c0-1,0.8-1.8,1.8-1.8h3.6C48.5,162.7,49.3,163.5,49.3,164.6z"/>
	<path class="st0" d="M49.3,164.6v5.4l-3.6,3.6v-10.9h1.8C48.5,162.7,49.3,163.5,49.3,164.6z"/>
	<path class="st17" d="M42,170h7.3v29.3H42V170z"/>
	<path class="st7" d="M45.7,170h3.6v29.3h-3.6V170z"/>
</g>
<g id="_x31_3">
	<g>
		<g>
			<g>
				<defs>
					<rect id="SVGID_3_" x="370" width="48" height="48"/>
				</defs>
				<clipPath id="SVGID_4_">
					<use xlink:href="#SVGID_3_"  style="overflow:visible;"/>
				</clipPath>
				<g class="st18">
					<path class="st3" d="M403.8,1.5v45.2c0,0.8-0.6,1.4-1.4,1.4h-31.1c-0.8,0-1.4-0.6-1.4-1.4V11.5l11.4-11.4h21.1
						C403.2,0.1,403.8,0.7,403.8,1.5z"/>
					<path class="st4" d="M403.8,1.5v45.2c0,0.8-0.6,1.4-1.4,1.4H387v-48h15.5C403.2,0.1,403.8,0.7,403.8,1.5z"/>
					<path class="st19" d="M416.7,46.8c-1.7,1.7-4.3,1.7-6,0l-10-10c-0.5-0.5-0.5-1.4,0-2l2-2l2-2c0.5-0.5,1.4-0.5,2,0l10,10
						C418.3,42.5,418.3,45.2,416.7,46.8z"/>
					<path class="st20" d="M416.7,46.8c-1.7,1.7-4.3,1.7-6,0l-10-10c-0.5-0.5-0.5-1.4,0-2l2-2L416.7,46.8z"/>
					<path class="st12" d="M404.9,13.2c-6-6-15.8-6-21.9,0c-6,6-6,15.8,0,21.9c6,6,15.8,6,21.9,0S411,19.3,404.9,13.2z"/>
					<path class="st0" d="M404.9,35.1c-6,6-15.8,6-21.9,0c-6-6-6-15.8,0-21.9L404.9,35.1z"/>
					<path class="st3" d="M402.9,15.2c-4.9-4.9-12.9-4.9-17.9,0c-4.9,4.9-4.9,12.9,0,17.9c4.9,4.9,12.9,4.9,17.9,0
						S407.9,20.2,402.9,15.2z"/>
					<path class="st4" d="M402.9,33.1C398,38,390,38,385,33.1c-4.9-4.9-4.9-12.9,0-17.9L402.9,33.1z"/>
					<path class="st5" d="M381.3,10.1v-10h-1.4c-0.4,0-0.7,0.1-1,0.4l-8.6,8.6c-0.3,0.3-0.4,0.6-0.4,1v1.4h10
						C380.7,11.5,381.3,10.9,381.3,10.1z"/>
					<path class="st20" d="M401,18.6c0,0.8-0.6,1.4-1.4,1.4h-11.2c-0.8,0-1.4-0.6-1.4-1.4c0-0.4,0.2-0.7,0.4-1
						c0.3-0.2,0.6-0.4,1-0.4h11.2C400.4,17.2,401,17.8,401,18.6z"/>
					<path class="st20" d="M401,24.2c0,0.8-0.6,1.4-1.4,1.4h-11.2c-0.8,0-1.4-0.6-1.4-1.4s0.6-1.4,1.4-1.4h11.2
						C400.4,22.8,401,23.4,401,24.2z"/>
					<path class="st20" d="M401,29.8c0,0.4-0.2,0.7-0.4,1c-0.3,0.2-0.6,0.4-1,0.4h-11.2c-0.8,0-1.4-0.6-1.4-1.4s0.6-1.4,1.4-1.4
						h11.2C400.4,28.4,401,29,401,29.8z"/>
					<path class="st21" d="M387,18.6c0-0.4,0.2-0.7,0.4-1l2.4,2.4h-1.4C387.6,20,387,19.3,387,18.6z"/>
					<path class="st21" d="M387,24.2c0-0.8,0.6-1.4,1.4-1.4h4.2l2.8,2.8h-7C387.6,25.6,387,25,387,24.2z"/>
					<path class="st21" d="M400.6,30.8c-0.3,0.2-0.6,0.4-1,0.4h-11.2c-0.8,0-1.4-0.6-1.4-1.4s0.6-1.4,1.4-1.4h9.8L400.6,30.8z"/>
				</g>
			</g>
		</g>
	</g>
</g>
<g id="_x31_2">
	<path class="st19" d="M346,0c-13.2,0-24,10.8-24,24s10.8,24,24,24s24-10.8,24-24S359.2,0,346,0z"/>
	<path class="st20" d="M370,24c0,13.2-10.8,24-24,24V0C359.2,0,370,10.8,370,24z"/>
	<path class="st3" d="M346,2.8c-11.6,0-21.2,9.5-21.2,21.2s9.5,21.1,21.2,21.1s21.2-9.5,21.2-21.1S357.6,2.8,346,2.8z"/>
	<path class="st4" d="M367.2,24c0,11.6-9.5,21.1-21.2,21.1V2.8C357.6,2.8,367.2,12.4,367.2,24z"/>
	<path class="st12" d="M355.8,11.3h-19.7c-0.8,0-1.4,0.6-1.4,1.4v5.6c0,0.6,0.3,1.1,0.9,1.3c0.5,0.2,1.1,0.1,1.5-0.3l2.4-2.4h3.6
		v17.7l-2.4,2.4c-0.4,0.4-0.5,1-0.3,1.5s0.7,0.9,1.3,0.9h8.4c0.6,0,1.1-0.3,1.3-0.9c0.2-0.5,0.1-1.1-0.3-1.5l-2.4-2.4V17h3.6
		l2.4,2.4c0.4,0.4,1,0.5,1.5,0.3s0.9-0.7,0.9-1.3v-5.6C357.3,12,356.6,11.3,355.8,11.3z"/>
	<path class="st0" d="M357.3,12.8v5.6c0,0.6-0.3,1.1-0.9,1.3c-0.5,0.2-1.1,0.1-1.5-0.3l-2.4-2.4h-3.6v17.7l2.4,2.4
		c0.4,0.4,0.5,1,0.3,1.5s-0.7,0.9-1.3,0.9H346V11.3h9.8C356.6,11.3,357.3,12,357.3,12.8z"/>
</g>
<g id="_x31_1">
	<path class="st15" d="M302.2,25.4l-4.2,2.8l-4.2-2.8c0-0.1,0-0.3,0.1-0.5l2.8-8.4c0.2-0.6,0.8-0.9,1.3-0.9s1.1,0.3,1.3,0.9l2.8,8.4
		C302.2,25.1,302.2,25.3,302.2,25.4z"/>
	<path class="st16" d="M302.2,25.4l-4.2,2.8V15.6c0.6,0,1.1,0.3,1.3,0.9l2.8,8.4C302.2,25.1,302.2,25.3,302.2,25.4z"/>
	<path class="st17" d="M302.2,25.4v13.8c0,0.8-0.6,1.4-1.4,1.4h-5.6c-0.8,0-1.4-0.6-1.4-1.4V25.4H302.2z"/>
	<path class="st7" d="M302.2,25.4v13.8c0,0.8-0.6,1.4-1.4,1.4H298V25.4H302.2z"/>
	<path class="st19" d="M321,19.9l-4.2-1.4c-0.4-1.3-0.9-2.7-1.6-3.9l1.9-3.9c0.3-0.5,0.2-1.2-0.3-1.6l-4-4c-0.4-0.4-1.1-0.5-1.6-0.3
		l-3.9,1.9c-1.2-0.7-2.6-1.2-3.9-1.6L302.1,1c-0.2-0.6-0.7-1-1.3-1h-5.6c-0.6,0-1.2,0.4-1.3,1l-1.4,4.2c-1.3,0.4-2.7,0.9-3.9,1.6
		l-3.9-1.9c-0.5-0.3-1.2-0.2-1.6,0.3l-4,4c-0.4,0.4-0.5,1.1-0.3,1.6l1.9,3.9c-0.7,1.2-1.2,2.6-1.6,3.9l-4.2,1.4
		c-0.6,0.2-1,0.7-1,1.3v5.6c0,0.6,0.4,1.2,1,1.3l4.2,1.4c0.4,1.3,0.9,2.7,1.6,3.9l-1.9,3.9c-0.3,0.5-0.2,1.2,0.3,1.6l4,4
		c0.4,0.4,1.1,0.5,1.6,0.3l3.9-1.9c1.2,0.7,2.6,1.2,3.9,1.6l1.4,4.2c0.2,0.6,0.7,1,1.3,1h5.6c0.6,0,1.2-0.4,1.3-1l1.4-4.2
		c1.3-0.4,2.7-0.9,3.9-1.6l3.9,1.9c0.5,0.3,1.2,0.2,1.6-0.3l4-4c0.4-0.4,0.5-1.1,0.3-1.6l-1.9-3.9c0.7-1.2,1.2-2.6,1.6-3.9l4.2-1.4
		c0.6-0.2,1-0.7,1-1.3v-5.6C322,20.6,321.6,20,321,19.9z M298,38.1c-7.8,0-14.1-6.3-14.1-14.1S290.2,9.9,298,9.9s14.1,6.3,14.1,14.1
		S305.8,38.1,298,38.1z"/>
	<path class="st20" d="M322,21.2v5.6c0,0.6-0.4,1.2-1,1.3l-4.2,1.4c-0.4,1.3-0.9,2.7-1.6,3.9l1.9,3.9c0.3,0.5,0.2,1.2-0.3,1.6l-4,4
		c-0.4,0.4-1.1,0.5-1.6,0.3l-3.9-1.9c-1.2,0.7-2.6,1.2-3.9,1.6l-1.4,4.2c-0.2,0.6-0.7,1-1.3,1H298v-9.9c7.8,0,14.1-6.3,14.1-14.1
		S305.8,10,298,10V0h2.8c0.6,0,1.2,0.4,1.3,1l1.4,4.2c1.3,0.4,2.7,0.9,3.9,1.6l3.9-1.9c0.5-0.3,1.2-0.2,1.6,0.3l4,4
		c0.4,0.4,0.5,1.1,0.3,1.6l-1.9,3.9c0.7,1.2,1.2,2.6,1.6,3.9l4.2,1.4C321.6,20,322,20.6,322,21.2z"/>
</g>
<g id="_x31_0">
	<path class="st3" d="M271.2,11.3v21.1c0,0.8-0.6,1.4-1.4,1.4h-30.9c-0.8,0-1.4-0.6-1.4-1.4v-31c0-0.8,0.6-1.4,1.4-1.4H260
		L271.2,11.3z"/>
	<path class="st4" d="M271.2,11.3v21.1c0,0.8-0.6,1.4-1.4,1.4h-15.5V0h5.6L271.2,11.3z"/>
	<path class="st6" d="M270.8,8.9l-8.4-8.5c-0.3-0.3-0.6-0.4-1-0.4H260v9.9c0,0.8,0.6,1.4,1.4,1.4h9.8V9.9
		C271.2,9.6,271,9.2,270.8,8.9z"/>
	<path class="st22" d="M272.6,30.6l-18.3-16.3L249,9.6c-0.8-0.7-1.8-1.1-2.8-1.1h-7.4c-2.3,0-4.2,1.9-4.2,4.2v31
		c0,2.3,1.9,4.2,4.2,4.2h30.9c2.3,0,4.2-1.9,4.2-4.2v-10C274,32.5,273.5,31.3,272.6,30.6z"/>
	<path class="st17" d="M250.1,42.4h-8.4c-0.8,0-1.4-0.6-1.4-1.4v-5.7c0-0.8,0.6-1.4,1.4-1.4h8.4c0.8,0,1.4,0.6,1.4,1.4V41
		C251.5,41.7,250.9,42.4,250.1,42.4z"/>
	<path class="st17" d="M250.1,25.4h-8.4c-0.8,0-1.4-0.6-1.4-1.4s0.6-1.4,1.4-1.4h8.4c0.8,0,1.4,0.6,1.4,1.4S250.9,25.4,250.1,25.4z"
		/>
	<path class="st17" d="M250.1,31h-8.4c-0.8,0-1.4-0.6-1.4-1.4s0.6-1.4,1.4-1.4h8.4c0.8,0,1.4,0.6,1.4,1.4S250.9,31,250.1,31z"/>
	<path class="st0" d="M274,33.7v10.1c0,2.3-1.9,4.2-4.2,4.2h-15.5V14.3l18.3,16.3C273.5,31.3,274,32.5,274,33.7z"/>
	<path class="st3" d="M269.5,38.2c0,3.7-3,6.8-6.8,6.8s-6.8-3-6.8-6.8c0-3.7,3-6.8,6.8-6.8c2.2,0,4.3,1.1,5.5,2.9
		c0.3,0.4,0.2,1-0.2,1.3c-0.4,0.3-1,0.2-1.4-0.2c-0.9-1.3-2.4-2-3.9-2c-2.7,0-4.8,2.2-4.8,4.8c0,2.7,2.2,4.8,4.8,4.8
		c2.3,0,4.3-1.7,4.7-3.9h-2.8c-0.5,0-1-0.4-1-1c0-0.5,0.4-1,1-1h3.9C269.1,37.2,269.5,37.6,269.5,38.2z"/>
	<path class="st4" d="M262.8,33.3v-1.9c2.2,0,4.3,1.1,5.5,2.9c0.3,0.4,0.2,1-0.2,1.3c-0.4,0.3-1,0.2-1.4-0.2
		C265.8,34.1,264.3,33.3,262.8,33.3z"/>
	<path class="st4" d="M269.5,38.2c0,3.7-3,6.8-6.8,6.8v-2c2.3,0,4.3-1.7,4.7-3.9h-2.8c-0.5,0-1-0.4-1-1c0-0.5,0.4-1,1-1h3.9
		C269.1,37.2,269.5,37.6,269.5,38.2z"/>
</g>
<g id="_x39_">
	<path class="st6" d="M186.4,25.5v14.1h-7c-0.8,0-1.4-0.6-1.4-1.4V25.5c0-1.5,1.3-2.8,2.8-2.8S186.4,24,186.4,25.5z"/>
	<path class="st4" d="M194.9,22.7v21.1c0,2.3-4.7,4.2-7,4.2s-4.2-1.9-4.2-4.2V25.5c0-1.5-1.3-2.8-2.8-2.8H194.9z"/>
	<path class="st3" d="M223.2,2.8V41c0,3.9-3.2,7-7.1,7h-28.2c2.3,0,4.2-1.9,4.2-4.2V4.2c0-2.4,1.9-4.2,4.2-4.2
		c1.8,0,6.2,1.2,6.8,2.8H223.2z"/>
	<path class="st4" d="M223.2,2.8V41c0,3.9-3.2,7-7.1,7h-8.4V2.8H223.2z"/>
	<path class="st0" d="M201.9,39.6c-0.8,0-1.4-0.6-1.4-1.4v-5.6c0-0.8,0.6-1.4,1.4-1.4c0.8,0,1.4,0.6,1.4,1.4v5.6
		C203.3,38.9,202.7,39.6,201.9,39.6z"/>
	<path class="st4" d="M226,4.2c0,0.8-0.6,1.4-1.4,1.4h-24.1V4.2c0-2.3-1.9-4.2-4.2-4.2h25.5C224.1,0,226,1.9,226,4.2z"/>
	<path class="st5" d="M226,4.2c0,0.8-0.6,1.4-1.4,1.4h-17V0h14.2C224.1,0,226,1.9,226,4.2z"/>
	<path class="st12" d="M217,11.7c-0.3-0.3-0.8-0.4-1.2-0.3c-3.1,0.6-5.8,2-8.2,3.9c-4.3,3.5-7.1,8.8-7.1,14.7v2.5
		c0,0.9,0.8,1.5,1.7,1.4c1.9-0.4,3.8-1,5.4-1.9c1.8-1,3.5-2.3,4.9-3.8c0.3-0.4,0.5-0.9,0.3-1.4l-0.4-1.2h1.3c0.5,0,1-0.3,1.2-0.7
		c1.6-2.9,2.5-6.1,2.5-9.4V13C217.5,12.4,217.3,12,217,11.7z"/>
	<path class="st0" d="M217.5,12.8v2.5c0,3.3-0.9,6.6-2.5,9.4c-0.3,0.4-0.7,0.7-1.2,0.7h-1.4l0.4,1.2c0.2,0.5,0.1,1-0.3,1.4
		c-1.4,1.5-3.1,2.8-4.9,3.8V15.3c2.3-1.9,5.1-3.2,8.2-3.9c0.4-0.1,0.8,0,1.2,0.3C217.3,12,217.5,12.4,217.5,12.8z"/>
</g>
<g id="_x38_">
	<path class="st23" d="M432,127.3v8.4l-2.9,3.5h-16.2l-2-3.5v-8.4l5-4.6c-0.2-0.2,2.4,0,5.5,0.3c4.2,0.4,9.2,1,9.2,1L432,127.3z"/>
	<path class="st7" d="M432,127.3v8.4l-2.9,3.5h-7.6v-16.3c4.2,0.4,9.2,1,9.2,1L432,127.3z"/>
	<path class="st19" d="M423.4,91.1v8.4c0,1.2-0.9,2.1-2.1,2.1s-2.1-0.9-2.1-2.1v-3.3L397.5,118c-0.4,0.4-0.9,0.6-1.5,0.6
		s-1.1-0.2-1.5-0.6l-7-6.9l-15.4,15.4c-0.4,0.4-0.9,0.6-1.5,0.6s-1.1-0.2-1.5-0.6c-0.8-0.8-0.8-2.2,0-3l16.9-16.9
		c0.8-0.8,2.2-0.8,3,0l7,6.9l20.2-20.3h-3.3c-1.2,0-2.1-0.9-2.1-2.1s0.9-2.1,2.1-2.1h8.4C422.5,89,423.4,89.9,423.4,91.1z"/>
	<path class="st23" d="M381.1,146.2v6.3c0,0-7.6,4-8.1,4c-0.2,0-1.3,0-2.5,0.1c-1.8,0-3.8,0-3.8,0l-6.7-4.1v-6.3
		c0-1.2,0.9-2.1,2.1-2.1H379C380.2,144.1,381.1,145.1,381.1,146.2z"/>
	<path class="st23" d="M406.5,144.1v8.4l-3.2,4.5H390l-4.6-4.5v-8.4l3.7-2.2h13.5L406.5,144.1z"/>
	<path class="st23" d="M432,144.1v8.4l-2.4,3.3H415l-4.1-3.3v-8.4l2.8-2.6h14.8L432,144.1z"/>
	<path class="st0" d="M423.4,91.1v8.4c0,1.2-0.9,2.1-2.1,2.1s-2.1-0.9-2.1-2.1v-3.3L397.5,118c-0.4,0.4-0.9,0.6-1.5,0.6v-5.1
		l20.2-20.3h-3.3c-1.2,0-2.1-0.9-2.1-2.1s0.9-2.1,2.1-2.1h8.4C422.5,89,423.4,89.9,423.4,91.1z"/>
	<path class="st7" d="M406.5,144.1v8.4l-3.2,4.5H396v-15.1h6.7L406.5,144.1z"/>
	<path class="st7" d="M428.5,141.5l3.5,2.6v8.4l-2.4,3.3h-8.2v-14.3H428.5z"/>
	<path class="st7" d="M381.1,146.2v6.3c0,0-7.6,4-8.1,4c-0.2,0-1.3,0-2.5,0.1v-12.5h8.4C380.2,144.1,381.1,145.1,381.1,146.2z"/>
	<path class="st17" d="M432,152.6v6.3c0,1.2-0.9,2.1-2.1,2.1H413c-1.2,0-2.1-0.9-2.1-2.1v-6.3H432z"/>
	<path class="st17" d="M406.5,152.6v6.3c0,1.2-0.9,2.1-2.1,2.1h-16.9c-1.2,0-2.1-0.9-2.1-2.1v-6.3H406.5z"/>
	<path class="st17" d="M381.1,152.6v6.3c0,1.2-0.9,2.1-2.1,2.1h-16.9c-1.2,0-2.1-0.9-2.1-2.1v-6.3H381.1z"/>
	<path class="st24" d="M396,152.6h10.5v6.3c0,1.2-0.9,2.1-2.1,2.1H396V152.6z"/>
	<path class="st24" d="M421.5,152.6H432v6.3c0,1.2-0.9,2.1-2.1,2.1h-8.4V152.6z"/>
	<path class="st24" d="M381.1,152.6v6.3c0,1.2-0.9,2.1-2.1,2.1h-8.4v-8.4L381.1,152.6L381.1,152.6z"/>
	<path class="st25" d="M410.9,135.7H432v8.4h-21.1V135.7z"/>
	<path class="st25" d="M406.5,137.8v6.3h-21.1v-6.3c0-1.2,0.9-2.1,2.1-2.1h16.9C405.6,135.7,406.5,136.6,406.5,137.8z"/>
	<path class="st24" d="M406.5,137.8v6.3H396v-8.4h8.4C405.6,135.7,406.5,136.6,406.5,137.8z"/>
	<path class="st24" d="M421.5,135.7H432v8.4h-10.5V135.7z"/>
	<path class="st25" d="M432,118.8v8.4h-21.1v-8.4c0-1.2,0.9-2.1,2.1-2.1h16.9C431.1,116.7,432,117.6,432,118.8z"/>
	<path class="st24" d="M432,118.8v8.4h-10.5v-10.5h8.4C431.1,116.7,432,117.6,432,118.8z"/>
</g>
<g id="_x37__1_">
	<g>
		<g>
			<g>
				<defs>
					<rect id="SVGID_5_" x="288" y="89" width="72" height="72"/>
				</defs>
				<clipPath id="SVGID_6_">
					<use xlink:href="#SVGID_5_"  style="overflow:visible;"/>
				</clipPath>
				<g class="st26">
					<path class="st19" d="M357.9,101.8h-55c-1.2,0-2.1,0.9-2.1,2.1v8.4c0,1.2,0.9,2.1,2.1,2.1h55c1.2,0,2.1-0.9,2.1-2.1v-8.4
						C360,102.7,359.1,101.8,357.9,101.8z"/>
					<path class="st3" d="M305,154.8v4.1c0,1.2-0.9,2.1-2.1,2.1s-2.1-0.9-2.1-2.1v-4.1H305z"/>
					<path class="st3" d="M296.6,154.8v4.1c0,1.2-0.9,2.1-2.1,2.1s-2.1-0.9-2.1-2.1v-4.1H296.6z"/>
					<path class="st3" d="M313.5,154.8v4.1c0,1.2-0.9,2.1-2.1,2.1s-2.1-0.9-2.1-2.1v-4.1H313.5z"/>
					<path class="st3" d="M321.9,154.8v4.1c0,1.2-0.9,2.1-2.1,2.1s-2.1-0.9-2.1-2.1v-4.1H321.9z"/>
					<path class="st3" d="M330.3,154.8v4.1c0,1.2-0.9,2.1-2.1,2.1s-2.1-0.9-2.1-2.1v-4.1H330.3z"/>
					<path class="st3" d="M338.8,154.8v4.1c0,1.2-0.9,2.1-2.1,2.1s-2.1-0.9-2.1-2.1v-4.1H338.8z"/>
					<path class="st3" d="M347.3,154.8v4.1c0,1.2-0.9,2.1-2.1,2.1s-2.1-0.9-2.1-2.1v-4.1H347.3z"/>
					<path class="st3" d="M294.1,144v4.2h-4c-1.2,0-2.1-0.9-2.1-2.1c0-1.2,0.9-2.1,2.1-2.1L294.1,144L294.1,144z"/>
					<path class="st3" d="M294.1,152.4v4.2h-4c-1.2,0-2.1-0.9-2.1-2.1c0-1.2,0.9-2.1,2.1-2.1L294.1,152.4L294.1,152.4z"/>
					<path class="st3" d="M294.1,135.5v4.2h-4c-1.2,0-2.1-0.9-2.1-2.1c0-1.2,0.9-2.1,2.1-2.1L294.1,135.5L294.1,135.5z"/>
					<path class="st3" d="M294.1,127.1v4.2h-4c-1.2,0-2.1-0.9-2.1-2.1c0-1.2,0.9-2.1,2.1-2.1H294.1z"/>
					<path class="st3" d="M294.1,118.7v4.2h-4c-1.2,0-2.1-0.9-2.1-2.1s0.9-2.1,2.1-2.1H294.1z"/>
					<path class="st3" d="M294.1,110.2v4.2h-4c-1.2,0-2.1-0.9-2.1-2.1s0.9-2.1,2.1-2.1H294.1z"/>
					<path class="st3" d="M294.1,101.8v4.2h-4c-1.2,0-2.1-0.9-2.1-2.1s0.9-2.1,2.1-2.1H294.1z"/>
					<path class="st3" d="M294.1,93.4v4.2h-4c-1.2,0-2.1-0.9-2.1-2.1s0.9-2.1,2.1-2.1H294.1z"/>
					<path class="st17" d="M345.2,118.7h-42.3c-1.2,0-2.1,0.9-2.1,2.1v8.4c0,1.2,0.9,2.1,2.1,2.1h42.3c1.2,0,2.1-0.9,2.1-2.1v-8.4
						C347.3,119.6,346.4,118.7,345.2,118.7z"/>
					<path class="st5" d="M332.4,135.5h-29.5c-1.2,0-2.1,0.9-2.1,2.1v8.4c0,1.2,0.9,2.1,2.1,2.1h29.5c1.2,0,2.1-0.9,2.1-2.1v-8.4
						C334.5,136.5,333.6,135.5,332.4,135.5z"/>
					<path class="st6" d="M332.4,148.2h-2.1v-12.7h2.1c1.2,0,2.1,0.9,2.1,2.1v8.4C334.5,147.3,333.6,148.2,332.4,148.2z"/>
					<path class="st7" d="M345.2,131.3h-14.9v-12.7h14.9c1.2,0,2.1,0.9,2.1,2.1v8.4C347.3,130.4,346.4,131.3,345.2,131.3z"/>
					<path class="st0" d="M360,103.9v8.4c0,1.2-0.9,2.1-2.1,2.1h-27.6v-12.7h27.6C359.1,101.8,360,102.7,360,103.9z"/>
					<path class="st3" d="M357.9,152.4h-61.3V91.1c0-1.2-0.9-2.1-2.1-2.1s-2.1,0.9-2.1,2.1v65.5h65.5c1.2,0,2.1-0.9,2.1-2.1
						C360,153.3,359.1,152.4,357.9,152.4z"/>
					<path class="st3" d="M355.8,154.8v4.1c0,1.2-0.9,2.1-2.1,2.1s-2.1-0.9-2.1-2.1v-4.1H355.8z"/>
					<path class="st4" d="M360,154.5c0,1.2-0.9,2.1-2.1,2.1h-27.6v-4.2h27.6C359.1,152.4,360,153.3,360,154.5z"/>
				</g>
			</g>
		</g>
	</g>
</g>
<g id="_x36__1_">
	<path class="st3" d="M288,106v52.9c0,1.2-0.9,2.1-2.1,2.1H235c-1.2,0-2.1-0.9-2.1-2.1V91.1c0-1.2,0.9-2.1,2.1-2.1h36.1L288,106z"/>
	<path class="st4" d="M288,106v52.9c0,1.2-0.9,2.1-2.1,2.1h-25.3V89h10.5L288,106z"/>
	<path class="st5" d="M271.1,103.9V89h2.1c0.6,0,1.1,0.2,1.5,0.6l12.7,12.8c0.4,0.4,0.6,0.9,0.6,1.5v2.1h-14.8
		C272.1,106,271.1,105.1,271.1,103.9z"/>
	<path d="M235,139.8c-1.2,0-2.1-0.9-2.1-2.1v-16.9c0-1.2,0.9-2.1,2.1-2.1c1.2,0,2.1,0.9,2.1,2.1v16.9
		C237.1,138.8,236.1,139.8,235,139.8z"/>
	<path class="st19" d="M279.6,129.2c0,1.2-0.9,2.1-2.1,2.1h-4.2c-1.2,0-2.1-0.9-2.1-2.1c0-1.2,0.9-2.1,2.1-2.1h4.2
		C278.6,127.1,279.6,128,279.6,129.2z"/>
	<path class="st19" d="M268,121.8c-0.8-0.8-0.8-2.2,0-3l3-3c0.8-0.8,2.2-0.8,3,0s0.8,2.2,0,3l-3,3
		C270.2,122.6,268.9,122.6,268,121.8z"/>
	<path class="st19" d="M271,142.6l-3-3c-0.8-0.8-0.8-2.2,0-3s2.2-0.8,3,0l3,3c0.8,0.8,0.8,2.2,0,3
		C273.2,143.5,271.8,143.5,271,142.6z"/>
	<path class="st19" d="M262.7,112.3v33.8c0,0.7-0.4,1.4-1,1.8c-0.6,0.4-1.4,0.4-2,0.1l-13.5-6.7c-2-1-4.4-1.6-6.7-1.6h-6.6
		l-3.8-10.5l-0.4-1.1l4.2-9.5h6.6c2.3,0,4.7-0.5,6.7-1.6l13.5-6.7c0.6-0.3,1.4-0.3,2,0.1C262.3,111,262.7,111.6,262.7,112.3z"/>
	<path class="st0" d="M228.7,156.6c-2.3,0-4.2-1.9-4.2-4.2v-16.9h8.4v16.9C232.9,154.8,231,156.6,228.7,156.6z"/>
	<path class="st19" d="M279.6,129.2c0,1.2-0.9,2.1-2.1,2.1h-4.2c-1.2,0-2.1-0.9-2.1-2.1H279.6z"/>
	<path class="st27" d="M262.7,129.2v16.9c0,0.7-0.4,1.4-1,1.8c-0.6,0.4-1.4,0.4-2,0.1l-13.5-6.7c-2-1-4.4-1.6-6.7-1.6h-6.6
		l-3.8-10.5H262.7z"/>
	<path class="st20" d="M232.9,118.7v21.1h-10.5c-3.5,0-6.3-2.8-6.3-6.3v-2.1l4.2-2.1l-4.2-2.1V125c0-3.5,2.8-6.3,6.3-6.3H232.9z"/>
	<path class="st12" d="M220.2,129.2h12.7v10.5h-10.5c-3.5,0-6.3-2.8-6.3-6.3v-2.1L220.2,129.2z"/>
	<path class="st28" d="M224.4,129.2c0,1.2-0.9,2.1-2.1,2.1H216v-4.2h6.3C223.5,127.1,224.4,128,224.4,129.2z"/>
	<path class="st29" d="M216,129.2h8.4c0,1.2-0.9,2.1-2.1,2.1H216V129.2z"/>
</g>
<g id="_x35__1_">
	<path class="st3" d="M216,105.9v48.8c0,3.5-2.8,6.3-6.3,6.3h-59.3c-3.5,0-6.3-2.8-6.3-6.3v-48.8l4.4-4.2h63.7L216,105.9z"/>
	<path class="st4" d="M216,105.9v48.8c0,3.5-2.8,6.3-6.3,6.3H180v-59.3h32.1L216,105.9z"/>
	<path class="st17" d="M216,95.3v10.5h-72V95.3c0-3.5,2.8-6.3,6.3-6.3h59.3C213.2,89,216,91.8,216,95.3z"/>
	<path class="st7" d="M216,95.3v10.5h-36V89h29.7C213.2,89,216,91.8,216,95.3z"/>
	<path class="st3" d="M156.7,97.4c0,1.2-0.9,2.1-2.1,2.1c-1.2,0-2.1-0.9-2.1-2.1s0.9-2.1,2.1-2.1C155.7,95.3,156.7,96.3,156.7,97.4z
		"/>
	<path class="st3" d="M165.1,97.4c0,1.2-0.9,2.1-2.1,2.1c-1.2,0-2.1-0.9-2.1-2.1s0.9-2.1,2.1-2.1C164.1,95.3,165.1,96.3,165.1,97.4z
		"/>
	<path class="st3" d="M173.7,97.4c0,1.2-0.9,2.1-2.1,2.1c-1.2,0-2.1-0.9-2.1-2.1s0.9-2.1,2.1-2.1C172.7,95.3,173.7,96.3,173.7,97.4z
		"/>
	<path class="st4" d="M205.5,99.5h-21.2c-1.2,0-2.1-0.9-2.1-2.1s0.9-2.1,2.1-2.1h21.2c1.2,0,2.1,0.9,2.1,2.1S206.6,99.5,205.5,99.5z
		"/>
	<path class="st5" d="M180,152.6h-25.5c-1.2,0-2.1-0.9-2.1-2.1c0-1.2,0.9-2.1,2.1-2.1H180c1.2,0,2.1,0.9,2.1,2.1
		C182.1,151.6,181.2,152.6,180,152.6z"/>
	<path class="st30" d="M182.1,146.2v4.2c0,1.2-0.9,2.1-2.1,2.1s-2.1-0.9-2.1-2.1v-4.2c0-1.2,0.9-2.1,2.1-2.1
		S182.1,145.1,182.1,146.2z"/>
	<path class="st31" d="M182.1,146.2v4.2c0,1.2-0.9,2.1-2.1,2.1v-8.4C181.2,144.1,182.1,145.1,182.1,146.2z"/>
	<path class="st32" d="M202.6,115.1c-0.5-0.4-1.1-0.5-1.8-0.4c-4.6,0.9-8.9,3-12.4,5.8c-3.7,3-6.6,6.9-8.4,11.3
		c-1.4,3.3-2.1,6.9-2.1,10.7v3.8c0,1.2,0.9,2.1,2.1,2.1c0.1,0,0.3,0,0.4,0c2.8-0.5,5.5-1.6,8-2.9c2.7-1.5,5.2-3.4,7.3-5.7
		c0.5-0.5,0.7-1.3,0.4-2.1l-0.6-1.9h2.2c0.8,0,1.5-0.4,1.9-1.1c2.4-4.3,3.8-9.2,3.8-14.1v-3.8C203.3,116.1,203,115.5,202.6,115.1z"
		/>
	<path class="st0" d="M202.6,115.1c0.5,0.4,0.8,1,0.8,1.6v3.8c0,5-1.3,9.8-3.8,14.1c-0.4,0.6-1.1,1.1-1.9,1.1h-2.2l0.6,1.9
		c0.3,0.8,0.1,1.6-0.4,2.1c-2.2,2.3-4.6,4.3-7.3,5.7c-2.5,1.4-5.2,2.4-8,2.9c-0.1,0-0.3,0-0.4,0v-16.6c1.8-4.5,4.7-8.4,8.4-11.3
		c3.5-2.8,7.8-4.9,12.4-5.8C201.4,114.5,202.1,114.7,202.6,115.1z"/>
</g>
<g id="_x34_">
	<path class="st0" d="M141.9,110.4h-25.5c-3.4,0-6.5,1.7-8.4,4.3c-1.9-2.6-5-4.3-8.4-4.3H74.1c-1.2,0-2.1,0.9-2.1,2.1v42.2
		c0,1.2,0.9,2.1,2.1,2.1h23.7c3.2,0,6.4,1.3,8.7,3.6c0.4,0.4,0.9,0.6,1.5,0.6s1.1-0.2,1.5-0.6c2.3-2.3,5.5-3.6,8.7-3.6h23.7
		c1.2,0,2.1-0.9,2.1-2.1v-42.2C144,111.3,143.1,110.4,141.9,110.4z"/>
	<path class="st0" d="M144,112.5v42.2c0,1.2-0.9,2.1-2.1,2.1h-23.7c-3.2,0-6.4,1.3-8.7,3.6c-0.4,0.4-0.9,0.6-1.5,0.6v-46.4
		c1.9-2.6,5-4.3,8.4-4.3h25.5C143.1,110.4,144,111.3,144,112.5z"/>
	<path class="st3" d="M108,156.1c2.9-2.2,6.5-3.5,10.2-3.5h21.6v-42.2h-23.3c-3.4,0-6.5,1.7-8.4,4.3c-1.9-2.6-5-4.3-8.4-4.3H76.2
		v42.2h21.6C101.5,152.6,105.1,153.8,108,156.1z"/>
	<path class="st4" d="M118.2,152.6h21.6v-42.2h-23.3c-3.2,0-6.1,1.5-8.1,3.8c-0.1,0.2-0.3,0.3-0.4,0.5v41.4
		C110.9,153.8,114.5,152.6,118.2,152.6z"/>
	<path class="st5" d="M95.3,139.9H82.5c-1.2,0-2.1-0.9-2.1-2.1c0-1.2,0.9-2.1,2.1-2.1h12.8c1.2,0,2.1,0.9,2.1,2.1
		C97.5,139,96.5,139.9,95.3,139.9z"/>
	<path class="st5" d="M95.3,148.3H82.5c-1.2,0-2.1-0.9-2.1-2.1c0-1.2,0.9-2.1,2.1-2.1h12.8c1.2,0,2.1,0.9,2.1,2.1
		C97.5,147.4,96.5,148.3,95.3,148.3z"/>
	<path class="st6" d="M133.5,148.3h-12.8c-1.2,0-2.1-0.9-2.1-2.1c0-1.2,0.9-2.1,2.1-2.1h12.8c1.2,0,2.1,0.9,2.1,2.1
		C135.6,147.4,134.6,148.3,133.5,148.3z"/>
	<path class="st6" d="M133.5,139.9h-12.8c-1.2,0-2.1-0.9-2.1-2.1c0-1.2,0.9-2.1,2.1-2.1h12.8c1.2,0,2.1,0.9,2.1,2.1
		S134.6,139.9,133.5,139.9z"/>
	<path class="st5" d="M95.3,131.5H82.5c-1.2,0-2.1-0.9-2.1-2.1c0-1.2,0.9-2.1,2.1-2.1h12.8c1.2,0,2.1,0.9,2.1,2.1
		C97.5,130.5,96.5,131.5,95.3,131.5z"/>
	<path class="st6" d="M133.5,131.5h-12.8c-1.2,0-2.1-0.9-2.1-2.1c0-1.2,0.9-2.1,2.1-2.1h12.8c1.2,0,2.1,0.9,2.1,2.1
		C135.6,130.5,134.6,131.5,133.5,131.5z"/>
	<path class="st6" d="M133.5,123h-12.8c-1.2,0-2.1-0.9-2.1-2.1s0.9-2.1,2.1-2.1h12.8c1.2,0,2.1,0.9,2.1,2.1S134.6,123,133.5,123z"/>
	<path class="st5" d="M95.3,123H82.5c-1.2,0-2.1-0.9-2.1-2.1s0.9-2.1,2.1-2.1h12.8c1.2,0,2.1,0.9,2.1,2.1
		C97.5,122.1,96.5,123,95.3,123z"/>
	<path class="st15" d="M112.2,139.9c0,0.2,0,0.5-0.1,0.7l-2.1,6.3c-0.3,0.8-1.1,1.4-2,1.4s-1.7-0.6-2-1.4l-2.1-6.3
		c-0.1-0.2-0.1-0.5-0.1-0.7l4.2-4.2L112.2,139.9z"/>
	<path class="st16" d="M108,135.7l4.2,4.2c0,0.2,0,0.5-0.1,0.7l-2.1,6.3c-0.3,0.8-1.1,1.4-2,1.4V135.7z"/>
	<path class="st12" d="M112.2,91.1v6.3l-4.2,4.2l-4.2-4.2v-6.3c0-1.2,0.9-2.1,2.1-2.1h4.2C111.3,89,112.2,89.9,112.2,91.1z"/>
	<path class="st0" d="M112.2,91.1v6.3l-4.2,4.2V89h2.1C111.3,89,112.2,89.9,112.2,91.1z"/>
	<path class="st17" d="M103.8,97.4h8.4v42.5h-8.4V97.4z"/>
	<path class="st7" d="M108,97.4h4.2v42.5H108V97.4z"/>
	<g id="Layer_4">
	</g>
</g>
<g id="_x33_">
	<path class="st0" d="M67.8,110.2v40.1H4.2v-40.1c0-3.5,2.8-6.3,6.3-6.3h50.9C65,103.9,67.8,106.7,67.8,110.2z"/>
	<path class="st0" d="M67.8,110.2v40.1H35.9v-46.4h25.6C65,103.9,67.8,106.7,67.8,110.2z"/>
	<path class="st17" d="M63.6,110.2v40.1H8.4v-40.1c0-1.2,0.9-2.1,2.1-2.1h50.9C62.6,108.1,63.6,109.1,63.6,110.2z"/>
	<path class="st7" d="M63.6,110.2v40.1H35.9v-42.2h25.6C62.6,108.1,63.6,109.1,63.6,110.2z"/>
	<path class="st5" d="M50.8,129.2v21.1H12.7v-46.4c0-2.3,1.9-4.2,4.2-4.2s8.4,1.9,8.4,4.2L50.8,129.2z"/>
	<path class="st6" d="M50.8,129.2v21.1H35.9v-35.9L50.8,129.2z"/>
	<path class="st12" d="M72,148.2c0,3.5-2.8,6.3-6.3,6.3H6.3c-3.5,0-6.3-2.8-6.3-6.3c0-1.2,0.9-2.1,2.1-2.1h67.8
		C71.1,146.1,72,147,72,148.2z"/>
	<path class="st0" d="M72,148.2c0,3.5-2.8,6.3-6.3,6.3H35.9v-8.4h34C71.1,146.1,72,147,72,148.2z"/>
	<path class="st4" d="M33.8,99.7v29.5c0,2.3-6.1,4.2-8.4,4.2s-4.2-1.9-4.2-4.2v-25.3c0-2.3-1.9-4.2-4.2-4.2H33.8z"/>
	<path class="st3" d="M59.2,97.6v29.5c0,3.5-2.8,6.3-6.3,6.3H25.3c2.3,0,4.2-1.9,4.2-4.2V97.6c0-1.2,0.9-2.1,2.1-2.1h25.5
		C58.3,95.5,59.2,96.4,59.2,97.6z"/>
	<path class="st4" d="M59.2,97.6v29.5c0,3.5-2.8,6.3-6.3,6.3h-17v-38h21.2C58.3,95.5,59.2,96.4,59.2,97.6z"/>
	<path class="st5" d="M48.7,108.1h-8.6c-1.2,0-2.1-0.9-2.1-2.1s0.9-2.1,2.1-2.1h8.6c1.2,0,2.1,0.9,2.1,2.1
		C50.8,107.2,49.8,108.1,48.7,108.1z"/>
	<path class="st5" d="M48.7,116.6h-8.6c-1.2,0-2.1-0.9-2.1-2.1s0.9-2.1,2.1-2.1h8.6c1.2,0,2.1,0.9,2.1,2.1
		C50.8,115.6,49.8,116.6,48.7,116.6z"/>
	<path class="st5" d="M48.7,125h-8.6c-1.2,0-2.1-0.9-2.1-2.1s0.9-2.1,2.1-2.1h8.6c1.2,0,2.1,0.9,2.1,2.1
		C50.8,124.1,49.8,125,48.7,125z"/>
</g>
<g id="_x32_">
	<path class="st0" d="M89,31.6c0,2.9,2.3,5.2,5.2,5.2h10.4V21.2H94.2C91.3,21.2,89,28.8,89,31.6z"/>
	<path class="st0" d="M178,78.6c0,2.9-2.3,5.2-5.2,5.2h-10.4V68.1h10.4C175.7,68.1,178,75.7,178,78.6z"/>
	<path class="st3" d="M167.6,21.2v65.2c0,1.5-1.1,2.6-2.6,2.6h-63c-1.5,0-2.6-1.1-2.6-2.6V2.6c0-1.5,1.1-2.6,2.6-2.6h44.7
		L167.6,21.2z"/>
	<path class="st4" d="M167.6,21.2v65.2c0,1.5-1.1,2.6-2.6,2.6h-31.5V0h13.2L167.6,21.2z"/>
	<path class="st6" d="M146.7,18.6V0h2.6c0.7,0,1.4,0.3,1.8,0.8l15.6,16c0.5,0.5,0.8,1.2,0.8,1.8v2.6h-18.3
		C147.9,21.2,146.7,20,146.7,18.6z"/>
	<path class="st5" d="M151.9,29c0,1.5-1.1,2.6-2.6,2.6h-15.8c-1.5,0-2.6-1.1-2.6-2.6s1.1-2.6,2.6-2.6h15.8
		C150.8,26.4,151.9,27.6,151.9,29z"/>
	<path class="st5" d="M151.9,39.5c0,1.5-1.1,2.6-2.6,2.6h-15.8c-1.5,0-2.6-1.1-2.6-2.6s1.1-2.6,2.6-2.6h15.8
		C150.8,36.9,151.9,38,151.9,39.5z"/>
	<path class="st5" d="M128.3,62.9h-15.8c-1.4,0-2.6-1.2-2.6-2.6c0-1.4,1.2-2.6,2.6-2.6h15.8c1.4,0,2.6,1.2,2.6,2.6
		C130.9,61.8,129.7,62.9,128.3,62.9z"/>
	<path class="st5" d="M128.3,73.4h-15.8c-1.4,0-2.6-1.2-2.6-2.6s1.2-2.6,2.6-2.6h15.8c1.4,0,2.6,1.2,2.6,2.6
		C130.9,72.2,129.7,73.4,128.3,73.4z"/>
	<path class="st5" d="M151.9,49.9c0,1.5-1.1,2.6-2.6,2.6h-36.9c-1.5,0-2.6-1.1-2.6-2.6s1.1-2.6,2.6-2.6h36.9
		C150.8,47.3,151.9,48.4,151.9,49.9z"/>
	<path class="st20" d="M170.2,62.9h-13v-2.6c0-1-0.5-1.8-1.4-2.3c-0.8-0.5-1.9-0.4-2.7,0.1L142.7,66c-0.7,0.5-1.2,1.3-1.2,2.2
		c0,0.9,0.4,1.7,1.2,2.2l10.4,7.8c0.8,0.5,1.8,0.6,2.7,0.1c0.8-0.5,1.4-1.3,1.4-2.3v-2.6h15.6c2.9,0,5.2,2.3,5.2,5.2v-7.8
		C178,66.4,174.5,62.9,170.2,62.9z"/>
	<path class="st6" d="M151.9,49.9c0,1.5-1.1,2.6-2.6,2.6h-15.8v-5.2h15.8C150.8,47.3,151.9,48.4,151.9,49.9z"/>
	<path class="st6" d="M151.9,39.5c0,1.5-1.1,2.6-2.6,2.6h-15.8v-5.2h15.8C150.8,36.9,151.9,38,151.9,39.5z"/>
	<path class="st6" d="M149.3,31.6h-15.8v-5.2h15.8c1.5,0,2.6,1.1,2.6,2.6C151.9,30.5,150.8,31.6,149.3,31.6z"/>
	<path class="st20" d="M96.8,16h13v-2.6c0-1,0.5-1.8,1.4-2.3c0.8-0.5,1.9-0.4,2.7,0.1l10.6,7.8c0.7,0.5,1.2,1.3,1.2,2.2
		c0,0.9-0.4,1.7-1.2,2.2l-10.6,7.8c-0.8,0.5-1.8,0.6-2.7,0.1c-0.8-0.5-1.4-1.3-1.4-2.3v-2.6H94.2c-2.9,0-5.2,2.3-5.2,5.2v-7.8
		C89,19.5,92.5,16,96.8,16z"/>
</g>
<g id="_x31_">
	<g>
		<g>
			<g>
				<defs>
					<rect id="SVGID_7_" width="89" height="89"/>
				</defs>
				<clipPath id="SVGID_8_">
					<use xlink:href="#SVGID_7_"  style="overflow:visible;"/>
				</clipPath>
				<g class="st33">
					<path class="st3" d="M68.1,31.3v55.1c0,1.5-1.1,2.6-2.6,2.6H2.6C1.1,89,0,87.9,0,86.4V31.3l5.2-5.2h58.6L68.1,31.3z"/>
					<path class="st4" d="M68.1,31.3v55.1c0,1.5-1.1,2.6-2.6,2.6H34.2V26.1h29.6L68.1,31.3z"/>
					<path class="st17" d="M68.1,18.3v13H0v-13c0-4.3,3.5-7.8,7.8-7.8h49.6l2.9-1c0.8,0,1.7,1.2,2.5,1.5
						C65.9,11.8,68.1,14.8,68.1,18.3z"/>
					<path class="st7" d="M68.1,18.3v13H34.2V10.4h23.2l2.9-1c0.8,0,1.7,1.2,2.5,1.5C65.9,11.8,68.1,14.8,68.1,18.3z"/>
					<path class="st5" d="M41.7,75.8c0,1.5-1.1,2.6-2.6,2.6H13.4c-1.5,0-2.6-1.1-2.6-2.6s1.1-2.6,2.6-2.6h25.7
						C40.6,73.2,41.7,74.3,41.7,75.8z"/>
					<path class="st6" d="M41.7,75.8c0,1.5-1.1,2.6-2.6,2.6h-4.8v-5.2h4.8C40.6,73.2,41.7,74.3,41.7,75.8z"/>
					<path class="st15" d="M48.7,73.9c-0.2,0.2-0.4,0.4-0.7,0.5l-7.4,3.7c-1,0.5-2.2,0.3-3-0.5s-1-2-0.5-3l3.7-7.4
						c0.1-0.3,0.3-0.5,0.5-0.7h7.4V73.9z"/>
					<path class="st16" d="M48.7,66.6V74c-0.2,0.2-0.4,0.4-0.7,0.5l-7.4,3.7c-1,0.5-2.2,0.3-3-0.5L48.7,66.6z"/>
					<path class="st20" d="M88.2,34.4l-5.5,5.5h-7.4v-7.4l5.5-5.5c1-1,2.7-1,3.7,0l3.7,3.7C89.3,31.7,89.3,33.4,88.2,34.4z"/>
					<path class="st0" d="M88.2,34.4l-5.5,5.5h-7.4l11.1-11.1l1.8,1.8C89.3,31.7,89.3,33.4,88.2,34.4z"/>
					<path class="st17" d="M41.3,66.6l34-34l7.4,7.4l-34,34L41.3,66.6z"/>
					<path class="st7" d="M45,70.3l34-34l3.7,3.7l-34,34L45,70.3z"/>
					<path class="st20" d="M62.8,10.8c-0.8-0.3-1.6-0.4-2.5-0.4h-2.9c-0.7-3-2.7-5.2-4.9-5.2s-4.2,2.2-4.9,5.2
						c-0.2,0.8-0.3,1.7-0.3,2.6c0,4.2,2.4,7.8,5.2,7.8c1.5,0,2.6,1.1,2.6,2.6S54,26,52.5,26c-5.7,0-10.4-5.8-10.4-13
						c0-4.2-2.4-7.8-5.2-7.8c-0.9,0-1.8,0.4-2.6,1.1c-1.6,1.3-2.6,3.9-2.6,6.7s1,5.4,2.6,6.7c0.8,0.7,1.7,1.1,2.6,1.1
						c1.5,0,2.6,1.1,2.6,2.6S38.4,26,36.9,26c-0.9,0-1.8-0.2-2.6-0.4c-4.5-1.5-7.8-6.6-7.8-12.6c0-4.2-2.4-7.8-5.2-7.8
						C18.4,5.2,16,8.8,16,13s2.4,7.8,5.2,7.8c1.5,0,2.6,1.1,2.6,2.6S22.7,26,21.2,26c-5.7,0-10.4-5.8-10.4-13S15.5,0,21.2,0
						c3.1,0,5.9,1.8,7.8,4.5c1.4-1.9,3.2-3.4,5.2-4.1C35.1,0.2,36,0,36.9,0c3.1,0,5.9,1.8,7.8,4.5C46.6,1.7,49.4,0,52.5,0
						C57.7,0,61.9,4.7,62.8,10.8z"/>
					<path class="st0" d="M39.5,23.5c0,1.5-1.1,2.6-2.6,2.6c-0.9,0-1.8-0.2-2.6-0.4v-5.9c0.8,0.7,1.7,1.1,2.6,1.1
						C38.3,20.9,39.5,22,39.5,23.5z"/>
					<path class="st0" d="M62.8,10.8c-0.8-0.3-1.6-0.4-2.5-0.4h-2.9c-0.7-3-2.7-5.2-4.9-5.2s-4.2,2.2-4.9,5.2
						c-0.2,0.8-0.3,1.7-0.3,2.6c0,4.2,2.4,7.8,5.2,7.8c1.5,0,2.6,1.1,2.6,2.6S54,26,52.5,26c-5.7,0-10.4-5.8-10.4-13
						c0-4.2-2.4-7.8-5.2-7.8c-0.9,0-1.8,0.4-2.6,1.1V0.4C35.1,0.2,36,0,36.9,0c3.1,0,5.9,1.8,7.8,4.5C46.6,1.7,49.4,0,52.5,0
						C57.7,0,61.9,4.7,62.8,10.8z"/>
				</g>
			</g>
		</g>
	</g>
</g>
</svg>
