<?xml version="1.0" encoding="utf-8"?>
<!-- Generator: Adobe Illustrator 19.1.0, SVG Export Plug-In . SVG Version: 6.00 Build 0)  -->
<svg version="1.1" id="Layer_1" xmlns="http://www.w3.org/2000/svg" xmlns:xlink="http://www.w3.org/1999/xlink" x="0px" y="0px"
	 viewBox="-225.5 229 1110 335" style="enable-background:new -225.5 229 1110 335;" xml:space="preserve">
<style type="text/css">
	.st0{fill:#F1F2F2;}
	.st1{fill:#D1D3D4;}
	.st2{fill:#3333CC;}
	.st3{fill:#FF643B;}
	.st4{fill:#E6E7E8;}
	.st5{fill:#FFFFFF;}
	.st6{fill:#FFAB3B;}
	.st7{fill:none;stroke:#FFFFFF;stroke-width:4.0424;stroke-miterlimit:10;}
	.st8{fill:#D45430;}
	.st9{fill:#F7D5A0;}
	.st10{fill:#2582B5;}
	.st11{fill:#20709C;}
	.st12{fill:#154965;}
	.st13{fill:#FF653B;}
	.st14{fill:#4545FF;}
	.st15{fill:#939598;}
	.st16{fill:#A7A9AC;}
	.st17{fill:#BCBEC0;}
	.st18{fill:#2173A1;}
	.st19{fill:#6161D1;}
	.st20{fill:#8F8FF9;}
	.st21{fill:#0E3144;}
	.st22{fill:#FF933B;}
	.st23{fill:none;stroke:#FFFFFF;stroke-width:2.7214;stroke-miterlimit:10;}
	.st24{fill:none;stroke:#FFFFFF;stroke-width:2;stroke-miterlimit:10;}
	.st25{fill:#0C2838;}
	.st26{fill:#1F6C96;}
	.st27{fill:#FF802C;}
	.st28{fill:#FFDDB1;}
</style>
<path class="st0" d="M580.4,357.1c0,0,34.2,1.9,31.7,18.4c-2.5,16.4-55.2,14.5-83.9,14.2c-28.7-0.3-193,1.1-220.9-9.1
	c-25.5-9.3,3.7-46.6,52.7-29.2c0,0,28.1-40.7,79.9-51c80.2-15.9,88.2,36.5,88.2,36.5s22-21.6,46.6-5.3
	C586.6,339.5,580.4,357.1,580.4,357.1z"/>
<path class="st1" d="M386.2,312.9c0,0-8.3,0.8-8.4,9.1c0,6.1,9,6.4,19.9,7.4c7.5,0.7,50.8,2.4,60-3.5c7.7-5,6.9-18.9-13-20
	c-1.2-0.1,11.2-22.8-20.7-28.5c-22.3-4-25.1,15.2-25.1,15.2s-11.8-1.7-15.9,8.7C379.9,309.2,386.2,312.9,386.2,312.9z"/>
<path class="st2" d="M322.7,376.8c-4.2,0-8.7-0.4-13.4-1.1l0.2-1.5c14.6,2.4,27.1,0.9,36.1-4c7.4-4.1,12.3-10.6,13.9-18.2
	c2.4-11.3-3.3-22.2-12.9-24.6c-4.1-1.1-7.5-0.6-10.3,0.5c4.5,6.3,8.3,13.7,7.2,19.3c-0.7,3.3-2.9,5.7-6.7,7.1
	c-7,2.7-10.4,0.3-11.8-1.4c-3.3-4-2.7-12,1.6-18.5c2-3.1,4.6-5.5,7.4-7.1c-4.9-6.6-10.2-11.7-10.3-11.8l1.1-1.1
	c0.4,0.4,5.7,5.6,10.6,12.3c3.5-1.5,7.5-1.8,11.5-0.7c5.2,1.3,9.5,4.9,12,9.9c2.5,4.9,3.2,10.7,2,16.5c-1.7,8.1-6.9,14.9-14.7,19.3
	C340,375,331.9,376.8,322.7,376.8z M335,328.5c-3.6,1.9-5.9,4.9-7,6.6c-3.8,5.9-4.5,13.3-1.6,16.8c2,2.4,5.4,2.7,10,1
	c3.3-1.3,5.2-3.2,5.7-6C343.1,341.7,339.3,334.6,335,328.5z"/>
<path class="st3" d="M319.1,301.2c1.7,2.4,10.2,3,12.8,0.8c2.5-2.2-0.1-5.2,4.2-12c4.3-6.8,8.7-5.4,9.2-19.2
	c0.5-12.9-10.6-18-19.8-18.1c-6.1-0.1-19.4,4.1-19.7,19.5c-0.2,8.5,6.9,12.6,11,17.8C320.6,295,317.2,298.5,319.1,301.2z"/>
<path class="st4" d="M318.4,302.7c0,0.2,8.6,2.7,14.1,0.6c0,0,1.2,12-3.7,13.1c-4.9,1.1-9.6,0-10-2.4
	C318.5,311.7,318.4,302.7,318.4,302.7z"/>
<path class="st5" d="M333.8,274.1c-1.4,0.5-2.9,4.2-4,7.7c-1.6-0.1-2.6-0.9-3.4-2c4.2-4.3,4.7-11.9,3.7-15.4
	c-0.6-1.9-1.5-2.1-2.1-2.1c-2.6,0.3-4.4,6.3-4.3,11.4c0,2.4,0.5,4.4,1.3,5.9c-0.5,0.4-0.9,0.8-1.5,1c-0.1,0.1-0.2,0.1-0.3,0.2
	c-0.4-5.3-1.3-9.9-2.9-11.5c-0.5-0.5-1.1-0.7-1.7-0.6c-1,0.1-1.7,0.8-2.1,1.9c-0.9,2.9,1.1,8.4,3.7,10.5c0.7,0.5,1.4,0.9,2.1,0.9
	c0.5,7.4,0.3,16.2,0,20.8c0.2,0,0.4,0.1,0.5,0.1l0.6,0c0-0.7,0.6-11.7,0-21c0.3-0.1,0.5-0.2,0.8-0.3c0.6-0.3,1.1-0.6,1.6-1.1
	c0.9,1.3,2.3,2.1,3.9,2.3c-0.3,0.9-0.5,1.7-0.6,2.4c-0.8,3.3-2.5,11.5-1.5,18c0.4,0,0.8-0.1,1.1-0.1c-0.7-4.4-0.2-10.8,1.5-17.6
	c0.2-1,0.5-1.9,0.8-2.8c2-0.5,3.3-3.1,3.8-3.9c0.8-1.6,1.4-3.7,0.6-4.6C334.9,274.2,334.5,273.9,333.8,274.1z M320.8,280.3
	c-2.3-1.9-4.1-6.8-3.3-9.3c0.3-1,0.9-1.1,1.1-1.1c0,0,0.1,0,0.1,0c0.3,0,0.5,0.1,0.8,0.3c1.4,1.3,2.2,5.6,2.6,10.7
	C321.7,280.9,321.2,280.6,320.8,280.3z M325.9,278.9c-0.8-1.7-1-3.8-1-5.1c-0.1-5.1,1.7-10.2,3.3-10.3c0,0,0,0,0,0
	c0.2,0,0.6,0.4,0.8,1.3C330,268,329.6,274.9,325.9,278.9z M333.2,278.9c-0.5,1-1.3,2-2.1,2.5c1.3-3.8,2.5-6,3.1-6.3c0,0,0.1,0,0.1,0
	C334.4,275.5,334.2,277,333.2,278.9z"/>
<path class="st2" d="M327,309.5c-6.3-0.2-10.2-2.2-10.4-2.3c-0.3-0.2-0.4-0.5-0.2-0.8c0.2-0.3,0.5-0.4,0.8-0.2c0.1,0,6.5,3.4,16,1.7
	c0.3,0,0.6,0.2,0.6,0.5c0,0.3-0.2,0.6-0.5,0.6C331,309.4,328.9,309.5,327,309.5z"/>
<path class="st2" d="M327.5,313.5c-6-0.1-9.9-1.4-10.1-1.4c-0.3-0.1-0.5-0.4-0.3-0.7c0.1-0.3,0.4-0.5,0.7-0.3
	c0.1,0,6.5,2.1,15.3,1.2c0.3,0,0.6,0.2,0.6,0.5c0,0.3-0.2,0.6-0.5,0.6C331.2,313.5,329.3,313.6,327.5,313.5z"/>
<path class="st0" d="M329.5,553.8c175.4,0,317.5-12.6,317.5-28.1c0-15.5-142.1-28.1-317.5-28.1S12,510.1,12,525.7
	C12,541.2,154.1,553.8,329.5,553.8z"/>
<path class="st6" d="M181.1,516.5c6.9-1.9,28.1-10.2,20.3-19.5c-8.2-9.7-23.8,1.9-23.8,1.9s51.9-42.8,35.4-59
	c-13.1-12.8-41.2,8.8-41.2,8.8s86.6-135.4,3.4-171.1C86.7,239.7,82,408.3,107.6,436.3c0,0-32.3-21.3-45.9-11.1
	c-21.2,15.9,13.2,82.2,69.1,93C144,520.7,165.7,520.8,181.1,516.5z"/>
<path class="st7" d="M163,313.2c0,0-40.6,134.1-5.1,206.7"/>
<path class="st7" d="M172.3,369c0,0-6.9,41.5-28.7,65.8"/>
<path class="st7" d="M126.4,374.7c0,0-13.5,78.1,20.2,107.3"/>
<path class="st7" d="M187.9,463.8c0,0-14.7,26.1-37.2,36.5"/>
<path class="st7" d="M89.1,457.6c0,0,25.2,45.1,65,52.6"/>
<path class="st7" d="M181.7,507.8c0,0-7.7,5.2-25.4,7.9"/>
<path class="st2" d="M215.4,335.9c0,0,9.6-7.8,19.6-10.2c10-2.4,18.6,0.1,18.6,0.1l10.6-2.5c0,0,19.3,4,28.3,13l0,19.8
	c0,0-1.8,16.9-2.1,17.2c-0.3,0.3-8.7,4.9-8.7,4.9l-3.4,11.1l-0.9,5.2l-2,14.8l-23.2,0.6l-31.3-8.6l-9.2-35.8L215.4,335.9z"/>
<path class="st8" d="M218.6,405.5c-0.4-0.2-18.6-9.6-31.1-2.2c-12.5,7.4-6.6,24.2-6.6,24.2l20.5,2.5c0,0,26.5-0.5,28-1.1
	c1.6-0.6,8.5-14.3,8.5-14.3l-14.8-8.8L218.6,405.5z"/>
<path class="st9" d="M214.1,424.9c0,0-6,0.7-12.2-0.8l0.5,12.5l11.1-0.4L214.1,424.9z"/>
<path class="st10" d="M179.9,414.4c0,0-9.3,10.3-0.7,23.9l25.8-1.8c0,0-3.3-4.2-1.6-12.1C203.5,424.4,190.4,411.5,179.9,414.4z"/>
<path class="st11" d="M186.5,414.4c-4.3,3.3-9.2,10.4-4.5,23.7l-2.8,0.2c-8.7-13.6,0.7-23.9,0.7-23.9
	C182,413.8,184.3,413.9,186.5,414.4z"/>
<path class="st9" d="M263.2,322.2c0,0,3.4,2.5,2.5,6.6c-0.9,4.1-8.5,17.7-17.7,20c0,0-17.2-12.9-12.6-24.3c4.5-11.4,11.2-6,11.2-6
	L263.2,322.2z"/>
<path class="st9" d="M235.3,324.5c4.5-11.4,11.2-6,11.2-6l16.7,3.7c0,0,0.5,0.3,1,1c0,0-2,13-15.3,14.4
	C237,339,234.6,326.3,235.3,324.5z"/>
<path class="st5" d="M247.2,337.9c-5.1,0-8.1-2.7-9.6-5c-2.4-3.5-2.8-7.4-2.4-8.3c2.4-6.1,5.4-7.4,7.6-7.4c2.1,0,3.6,1.1,3.8,1.3
	l16.7,3.7c0,0,0.5,0.4,1,1l0,0v0.1c0,0.1-2.2,13.1-15.4,14.5C248.4,337.9,247.8,337.9,247.2,337.9z M242.8,317.4
	c-2.9,0-5.5,2.5-7.3,7.2c-0.3,0.8,0.1,4.7,2.4,8.1c1.5,2.2,4.4,4.9,9.4,4.9c0.5,0,1.1,0,1.7-0.1c12.5-1.4,15-13.3,15.2-14.3
	c-0.5-0.5-0.8-0.8-0.9-0.9l-16.7-3.7C246.4,318.6,244.9,317.4,242.8,317.4z"/>
<path class="st9" d="M264.3,295.9c0,0,10.9,32.6-14.1,37.1c-24.9,4.5-16.6-37-16.6-37l19-3.9L264.3,295.9z"/>
<path class="st9" d="M233.4,311.5c0,0-1.9-3-5.2-1.9c-3.3,1.1,2.2,15.2,7.2,13C240.5,320.5,233.4,311.5,233.4,311.5z"/>
<path class="st12" d="M262,298.2c0,0-10,17.5-29.7,12.2c-19.7-5.3-9-17.4-9-17.4s2,2.5,3.6,2.5c1.6-0.1,9.4-18.4,26.8-16.2
	c17.4,2.3,12.1,7.8,12.1,7.8s3.6-1,6.8,3.6c3.2,4.6,3.5,17.7-3.3,21.4l-2.9-3.1C266.6,308.9,265.6,303.7,262,298.2z"/>
<path class="st9" d="M265.5,310.3c0,0,1.7-3.1,5-2.3c3.3,0.8-1,15.3-6.2,13.5C259.1,319.8,265.5,310.3,265.5,310.3z"/>
<path class="st13" d="M209.9,423.7c0,0-1,9.1,0.5,13.8c0,0,61.3,5.2,85.9-3.3c24.5-8.5,27.9-19.2,18.8-27.2
	C306,398.9,270.9,396.6,209.9,423.7z"/>
<path class="st9" d="M291.2,425.1c0,0-10.6,12.3-14,12.7l13.4-0.5l4.4-2.5l0.5-5.8L291.2,425.1z"/>
<path class="st10" d="M314,413.4c0,0,10.1,9.6,2.5,23.8l-25.9,0.2c0,0,3-4.4,0.6-12.1C291.2,425.1,303.3,411.3,314,413.4z"/>
<path class="st11" d="M307.4,413.9c4.5,3,10,9.7,6.3,23.3h2.8c7.6-14.2-2.5-23.8-2.5-23.8C311.8,412.9,309.6,413.2,307.4,413.9z"/>
<path class="st5" d="M297.5,435.6c0.1-0.2,1.4-5.5-0.9-10.2l-0.6,0.3c2.2,4.4,0.9,9.6,0.8,9.7L297.5,435.6z"/>
<path class="st5" d="M301.6,435.5c0.1-0.3,1.6-6.8-1.9-11.9l-0.6,0.4c3.3,4.9,1.8,11.3,1.8,11.3L301.6,435.5z"/>
<path class="st5" d="M200.5,435.2l0.7-0.2c-1.8-6.6-0.3-9.6-0.3-9.6l-0.6-0.3C200.3,425.1,198.6,428.3,200.5,435.2z"/>
<path class="st5" d="M196.4,435.3l0.7-0.2c-2.5-7.1,1.5-11,1.6-11.1l-0.5-0.5C198,423.5,193.7,427.7,196.4,435.3z"/>
<path class="st14" d="M292.5,336.2c0,0,22.1,25.1,27.2,50.3c5.2,25.3-40.9,31.1-59,25.9l-1.8-11.9c0,0,24.4-11,24-15.7
	c-0.4-4.7-1.1-6.6-1.1-6.6S274.7,356.3,292.5,336.2z"/>
<path class="st14" d="M215.4,335.9c0,0-39.5,36-34.3,54c4.6,16.3,42.9,26.7,54.7,24.9v-9.4c0,0-25.4-14.1-23.9-20.3
	c0.9-3.7,3.4-6.3,3.4-6.3S227.5,343.9,215.4,335.9z"/>
<path class="st15" d="M214.1,415.2v1.4l18.2-0.1v-1.3H214.1z"/>
<path class="st15" d="M263,415.2v1.4l18.2-0.1v-1.3H263z"/>
<path class="st16" d="M203.7,420.3h90v-4.1l-90.8,0.4L203.7,420.3z"/>
<path class="st1" d="M204.1,415.2h87.8l1.9-58.2l-92.1-0.3L204.1,415.2z"/>
<path class="st5" d="M246.9,377.7c5.2-0.5,11.2,1.6,11.4,9.4c0.2,7.8-15.8,10.5-16.8,1.7C240.4,379.9,245.1,377.9,246.9,377.7z"/>
<path class="st2" d="M120.9,318.4c-3-1.8-6.2-3.6-9-5.7c-3-2.2-6.4-5.2-7.1-9c-0.3-1.3,0-2.5,0.6-3.6c0.8-1.2,1.6-1.6,2.9-1.4
	c2,0.3,4,1.4,5.8,2.2c3.5,1.7,6.8,3.7,10.1,5.7c3.3,1.9,6.7,3.8,9.9,6c0.9,0.6,1.9,1.3,2.8,2c1.1,0.9,1.6,1.3,1.4,3
	c-0.1,1-0.5,2.2-1,3c-1,1.5-2.3,1.6-3.8,0.8c-3.5-1.8-7-4-10.3-6.1c-3.4-2.1-7.1-4.2-10.1-6.7c-0.9-0.8-2.3-2-2.5-3.3
	c-0.4-2,2.9-0.6,3.9-0.2c4.1,1.6,7.6,4.4,11.2,6.7c0.8,0.5,1.6-0.8,0.8-1.3c-4.2-2.7-8.2-6-13.1-7.4c-2.4-0.7-5.2-0.2-4.1,2.9
	c1.4,3.8,5.9,5.9,9,7.9c4.6,3,9.2,5.7,13.9,8.4c1.6,0.9,3.2,1.6,5,0.6s2.5-3.3,2.8-5.2c0.3-1.8-0.2-2.8-1.6-3.9
	c-2.2-1.7-4.5-3.2-6.8-4.6c-4.7-2.8-9.5-5.7-14.4-8.3c-2.1-1.1-4.1-2.1-6.3-2.8c-1.8-0.6-3.7-1.6-5.3-0.1c-4.1,3.8-1.5,9,1.6,12.4
	c3.6,4,8.7,6.6,13.2,9.4C120.9,320.2,121.7,318.9,120.9,318.4z"/>
<path class="st1" d="M501.4,443c34.4,19.8,30.8,61.8-14.1,77.9c-44.8,16.1-76.4-16.2-66.7-37.9C430.2,461.3,459.7,419,501.4,443z"/>
<path class="st17" d="M424.5,475.1c-0.3,12.2,2.1,23.2,11.7,23.3c21.6,0.3,15.7-9.5,41-7.1c25.3,2.4,44.7-16.8,45.8-23.1
	c5.8,19.5-5.7,41.8-35.7,52.6c-44.8,16.1-76.4-16.2-66.7-37.9C421.6,480.6,423,477.9,424.5,475.1z"/>
<path class="st2" d="M441.4,545.7c-2.8,0-5.6,1.1-5.6,2.9c0,3.7,11.4,2.3,11-0.8C446.6,546.3,443.6,545.7,441.4,545.7z"/>
<path class="st3" d="M169.5,558.7c-3,0.1-6.1,1.1-6.1,2.7c-0.1,3.3,12.3,1.7,11.9-1C175.1,559.1,171.8,558.7,169.5,558.7z"/>
<path class="st2" d="M143.4,542.9c5.1,0.5,12.7,3,10.9,7.8c-1.8,4.8-21.2,3.7-22.1-2.3C131.2,542.4,139.4,542.5,143.4,542.9z"/>
<path class="st2" d="M103.8,245.2c1.9-1.5,4.2-3.1,6.8-3c1.1,0.1,2.2,0.5,2.9,1.3c0.6,0.7,1,1.6,1.8,2.3c3.5,2.9,5.8-2.7,8.3-3.9
	c1.1-0.6,0.2-2.3-0.9-1.7c-1.9,1-2.7,3.3-4.5,4.2c-1.5,0.7-2.2-0.7-3-1.7c-0.5-0.7-1.2-1.3-2-1.7c-3.8-1.9-7.7,0.6-10.7,2.9
	C101.5,244.5,102.8,245.9,103.8,245.2z"/>
<path class="st2" d="M46.2,387.2c3.9,0.2,7.8,0,11.7-0.6c1.2-0.2,0.7-2-0.5-1.9c-3.7,0.6-7.4,0.8-11.2,0.5
	C45,385.2,45,387.1,46.2,387.2z"/>
<path class="st2" d="M539.6,262.4c-3.7,2.3-7,5.1-10,8.2c0.5,0.2,1,0.5,1.4,0.7c0.6-3.5,1.3-6.9,2.1-10.3c0.2-1.1-1.4-1.7-1.7-0.6
	c-0.8,3.6-1.5,7.2-2.1,10.7c-0.1,0.7,0.9,1.3,1.4,0.7c2.8-3.1,6.1-5.7,9.6-8C541.4,263.3,540.6,261.7,539.6,262.4z"/>
<path class="st2" d="M339.4,245.9c2.1-4.3,4.4-8.5,6.9-12.7c0.5-0.8-0.7-1.5-1.2-0.7c-2.5,4.1-4.8,8.3-6.9,12.7
	C337.8,246,339,246.7,339.4,245.9z"/>
<path class="st2" d="M345,251.9c4.1-2.4,8.4-4.6,12.8-6.5c0.8-0.4,0.1-1.6-0.7-1.2c-4.4,1.9-8.6,4.1-12.8,6.5
	C343.5,251.1,344.2,252.3,345,251.9z"/>
<path class="st2" d="M332.4,243.9c-2.4-4.2-3-9.4-3.3-14.2c-0.1-0.9-1.4-0.9-1.4,0c0.3,5,1,10.4,3.5,14.9
	C331.6,245.4,332.8,244.7,332.4,243.9z"/>
<path class="st2" d="M92.5,307.6c-1-5.8-0.5-17.5,7.6-17.9c0.6,0,0.5-0.9-0.1-0.9c-8.7,0.4-9.5,12.5-8.4,18.8
	C91.7,308.2,92.6,308.1,92.5,307.6z"/>
<path class="st2" d="M100.7,289c0.1,0.3,0.1,0.5-0.1,0.8c-0.2,0.2-0.3,0.3-0.6,0.3c-2,0.1-3.6,0.9-4.9,2.4c-3.2,4-3,11.6-2.4,15
	c0.1,0.4-0.2,0.8-0.5,0.8c-0.4,0.1-0.9-0.1-1.1-0.6c-0.9-5.1-0.4-12.3,2.8-16.2c1.5-1.9,3.5-2.9,6-3
	C100.3,288.4,100.6,288.6,100.7,289z M92.1,307.6c-0.6-3.6-0.9-11.4,2.5-15.6c1.4-1.7,3.2-2.6,5.4-2.7c0,0,0,0,0,0c0,0,0-0.1,0-0.1
	c0-0.1-0.1-0.1-0.1-0.1c-2.2,0.1-4.1,1-5.4,2.7c-3,3.8-3.5,10.7-2.6,15.7c0,0.1,0,0.1,0.1,0.1C92.1,307.7,92.1,307.7,92.1,307.6z"/>
<path class="st2" d="M88.3,298.3c-0.4-4.1,1.6-7.6,4.6-10.2c0.4-0.4-0.1-1.1-0.5-0.8c-3.2,2.8-5.4,6.6-4.9,11
	C87.4,299,88.3,298.9,88.3,298.3z"/>
<path class="st2" d="M93.3,287.5c0.1,0.3,0,0.7-0.2,0.9c-3.2,2.8-4.8,6.4-4.4,9.9c0,0.4-0.2,0.8-0.6,0.8c-0.5,0.1-0.9-0.2-1-0.7
	c-0.5-5.2,2.4-9,5.1-11.3c0.2-0.2,0.4-0.2,0.6-0.2C93,287,93.2,287.2,93.3,287.5z M87.7,298.4c0,0.1,0.1,0.1,0.2,0
	c0.1,0,0.1,0,0.1-0.1c-0.4-3.8,1.3-7.5,4.7-10.5c0,0,0.1-0.1,0-0.2c0,0,0-0.1-0.1-0.1c0,0,0,0,0,0C90,289.8,87.2,293.5,87.7,298.4z"
	/>
<path class="st2" d="M600.5,315.2c-0.1,2.6,2.6,4.2,5,3.3c2.9-1.1,4-4.8,3.4-7.7c-1.3-6.1-11.6-0.1-7.9,5c0.3,0.5,1.1,0,0.8-0.5
	c-1.4-1.9-0.3-4.2,1.6-5.3c0.6-0.3,1.2-0.7,1.9-0.8c1.9-0.5,2.8,1.2,2.9,2.8c0.1,1.7-0.3,3.6-1.6,4.8c-1.7,1.7-5.2,1.3-5.1-1.6
	C601.4,314.6,600.5,314.7,600.5,315.2z"/>
<path class="st2" d="M604.1,319.1c-1.1,0-2.2-0.4-2.9-1.2c-0.7-0.7-1.1-1.7-1-2.7c-0.6-1.3-0.4-2.8,0.5-4.2c1.1-1.8,3.4-3.1,5.3-3.1
	c1.7,0,2.9,1,3.3,2.8c0.6,3-0.6,6.9-3.6,8C605.1,319,604.6,319.1,604.1,319.1z M601.1,316.4c0.2,0.4,0.4,0.8,0.6,1.1
	c0.9,0.9,2.4,1.2,3.6,0.8c2.7-1,3.8-4.5,3.2-7.2c-0.4-1.9-1.6-2.3-2.6-2.3c-1.7,0-3.7,1.2-4.7,2.8c-0.5,0.7-0.9,1.8-0.5,3.1
	c0.1,0,0.2,0,0.2-0.1c-0.2-0.5-0.2-1-0.1-1.6c0.2-1.2,1.1-2.4,2.3-3.1c0.5-0.3,1.2-0.7,2-0.9c0.2-0.1,0.5-0.1,0.7-0.1
	c1.7,0,2.6,1.6,2.7,3.2c0.1,2-0.5,3.9-1.7,5.1c-0.7,0.7-1.7,1.1-2.7,1.1c-1.3,0-2.3-0.6-2.7-1.6h0l0-0.1
	C601.2,316.4,601.1,316.4,601.1,316.4z M601.9,316.2c0.3,0.8,1.1,1.3,2.1,1.3c0.8,0,1.7-0.3,2.2-0.9c1-1,1.6-2.7,1.5-4.6
	c-0.1-1.3-0.7-2.5-1.9-2.5c-0.2,0-0.3,0-0.5,0.1c-0.7,0.2-1.3,0.5-1.8,0.8c-1.1,0.7-1.8,1.7-2,2.7c-0.2,0.8,0,1.5,0.5,2.2
	c0.2,0.2,0.2,0.4,0.1,0.6C602.1,315.9,602,316.1,601.9,316.2z M600.9,315.1c0,0.1,0.1,0.2,0.2,0.3c0-0.1,0-0.2,0-0.3c0,0,0,0,0,0
	S601,315.1,600.9,315.1C601,315.1,600.9,315.1,600.9,315.1z"/>
<path class="st2" d="M30.2,331.1c-2,1.7-1.3,4.7,0.9,5.9c2.8,1.4,6.3-0.3,8-2.7c3.7-5-7.8-8.6-9.1-2.5c-0.1,0.6,0.8,0.8,0.9,0.2
	c0.5-2.4,2.9-3,5-2.4c0.6,0.2,1.3,0.5,1.9,0.8c1.6,1.1,1.1,2.9-0.1,4c-1.2,1.2-2.9,2.2-4.6,2c-2.4-0.2-4.4-2.9-2.2-4.9
	C31.3,331.3,30.6,330.7,30.2,331.1z"/>
<path class="st2" d="M33.3,337.8c-0.8,0-1.6-0.2-2.4-0.5c-1.3-0.6-2.1-1.8-2.3-3.2c-0.2-1.3,0.3-2.4,1.3-3.3
	c0.7-1.6,2.4-2.6,4.5-2.6c2.3,0,4.6,1.1,5.4,2.7c0.4,0.8,0.6,2-0.5,3.5C37.9,336.5,35.5,337.8,33.3,337.8z M29.7,332.3
	c-0.3,0.5-0.4,1.1-0.3,1.7c0.2,1.1,0.8,2.1,1.9,2.7c0.6,0.3,1.3,0.5,2.1,0.5c2,0,4.2-1.2,5.5-3c0.7-1,0.8-1.9,0.4-2.8
	c-0.7-1.4-2.7-2.4-4.8-2.4c-1.6,0-2.9,0.6-3.6,1.7c0.1,0,0.2,0.1,0.2,0.1c0.7-1.1,1.9-1.7,3.5-1.7c0.5,0,1,0.1,1.5,0.2
	c0.5,0.2,1.3,0.4,2,0.9c0.7,0.5,1.1,1.1,1.1,1.8c0.1,0.9-0.3,1.9-1.2,2.8c-1.4,1.4-3,2.2-4.6,2.2c-0.1,0-0.2,0-0.3,0
	c-1.3-0.1-2.6-0.9-3.2-2.1c-0.4-0.8-0.4-1.6-0.1-2.3h0l0-0.1C29.8,332.4,29.7,332.3,29.7,332.3z M30.5,332.7c-0.3,0.5-0.3,1.2,0,1.7
	c0.5,0.9,1.5,1.6,2.6,1.7c0.1,0,0.2,0,0.3,0c1.3,0,2.9-0.7,4.1-2c0.7-0.7,1.1-1.5,1-2.2c0-0.5-0.3-0.9-0.8-1.3
	c-0.6-0.4-1.3-0.6-1.8-0.8c-0.5-0.1-0.9-0.2-1.3-0.2c-1.7,0-2.9,0.9-3.3,2.4C31.1,332.5,30.8,332.8,30.5,332.7z M30.5,331.3
	c0,0.1-0.1,0.2-0.1,0.3c0.1-0.1,0.1-0.1,0.2-0.2c0,0,0,0,0,0C30.6,331.4,30.6,331.3,30.5,331.3z"/>
<path class="st2" d="M257.8,245.8c3.2-0.8,6.3-1.8,9.2-3.2c0.5-0.3,0.1-1-0.5-0.8c-2.8,1.4-5.9,2.4-9,3.1
	C257,245.1,257.3,246,257.8,245.8z"/>
<path class="st2" d="M257.7,246.2c-0.4,0-0.7-0.3-0.8-0.7s0.2-0.8,0.6-0.9c3.5-0.9,6.4-1.9,8.9-3.1c0.5-0.2,1.1,0.1,1.2,0.6
	c0.1,0.3-0.1,0.7-0.4,0.8c-2.6,1.3-5.7,2.3-9.3,3.3C257.8,246.2,257.8,246.2,257.7,246.2z M266.8,242.1L266.8,242.1
	c-2.6,1.2-5.5,2.2-9.1,3.2c0,0-0.1,0-0.1,0.1c0,0,0,0.1,0.1,0.1c3.6-0.9,6.5-2,9.2-3.2c0,0,0,0,0,0
	C266.9,242.2,266.8,242.1,266.8,242.1z"/>
<path class="st2" d="M258.1,240.5c2.2,2.7,5,4.9,6.9,7.9c0.3,0.5,1.1,0,0.8-0.5c-1.9-3-4.8-5.2-7-8
	C258.4,239.4,257.7,240.1,258.1,240.5z"/>
<path class="st2" d="M265.3,248.9c-0.3,0-0.5-0.2-0.6-0.4c-1.1-1.7-2.5-3.1-3.9-4.6c-1-1-2.1-2.1-3-3.3c-0.2-0.3-0.2-0.6-0.1-0.9
	c0.2-0.3,0.4-0.5,0.7-0.5c0.2,0,0.4,0.1,0.6,0.3c0.9,1.1,2,2.2,3,3.3c1.4,1.5,2.9,3,4.1,4.8c0.2,0.3,0.2,0.5,0,0.8
	C265.9,248.8,265.6,248.9,265.3,248.9z M258.5,240.1C258.5,240.1,258.4,240.1,258.5,240.1c-0.1,0.2-0.1,0.2-0.1,0.2
	c0.9,1.1,1.9,2.2,2.9,3.2c1.4,1.4,2.8,2.9,3.9,4.7c0.1,0.1,0.2,0,0.2,0c0,0,0,0,0-0.1c-1.1-1.7-2.5-3.2-4-4.7
	C260.5,242.4,259.4,241.3,258.5,240.1z"/>
<path class="st2" d="M260.7,248.8c1.3-3,2.5-6,3.2-9.1c0.2-0.6-0.7-0.8-0.9-0.3c-0.8,3.1-1.9,6.1-3.2,9.1
	C259.6,249.1,260.4,249.3,260.7,248.8z"/>
<path class="st2" d="M260.2,249.4c-0.3,0-0.5-0.2-0.7-0.3c-0.1-0.2-0.2-0.5,0-0.7c1.3-3,2.5-5.9,3.2-9c0.1-0.4,0.4-0.6,0.8-0.6
	c0.3,0,0.5,0.1,0.7,0.3c0.2,0.2,0.2,0.4,0.2,0.7c-0.8,3.2-2,6.1-3.2,9.1C260.8,249.2,260.5,249.4,260.2,249.4z M260.1,248.7
	c0,0,0,0,0.1,0c0.1,0,0.1-0.1,0.2-0.1c1.3-3,2.5-5.9,3.2-9c0,0,0-0.1,0-0.1c0,0-0.1,0-0.1,0c0,0,0,0,0,0
	C262.6,242.7,261.4,245.7,260.1,248.7z"/>
<path class="st2" d="M598.5,474.1c-0.9,2.6-1.7,5.2-2.6,7.9c-0.2,0.6,0.7,0.8,0.9,0.2c0.9-2.6,1.7-5.2,2.6-7.9
	C599.6,473.8,598.7,473.6,598.5,474.1z"/>
<path class="st2" d="M596.4,482.9c-0.3,0-0.5-0.1-0.7-0.3c-0.2-0.2-0.2-0.5-0.1-0.7l2.6-7.9c0.1-0.3,0.4-0.6,0.8-0.6
	c0.3,0,0.5,0.1,0.7,0.3c0.2,0.2,0.2,0.5,0.1,0.7l-2.6,7.9C597,482.7,596.7,482.9,596.4,482.9z M599,474.2c-0.1,0-0.1,0-0.1,0.1
	l-2.6,7.9v0c0,0,0,0,0.1,0s0.1,0,0.1-0.1l2.6-7.9v0C599.1,474.2,599,474.2,599,474.2z"/>
<path class="st2" d="M593.2,477.7c2.9,0.7,5.8,1.4,8.7,2.1c0.6,0.2,0.8-0.7,0.2-0.9c-2.9-0.7-5.8-1.4-8.7-2.1
	C592.9,476.7,592.7,477.6,593.2,477.7z"/>
<path class="st2" d="M602.1,480c-0.1,0-0.1,0-0.2,0l-8.7-1.7c-0.4-0.1-0.7-0.4-0.6-0.8c0.1-0.5,0.5-0.9,1-0.8l8.7,1.7
	c0.4,0.1,0.7,0.4,0.6,0.8C602.8,479.6,602.5,480,602.1,480z M593.3,477.4c-0.1,0-0.1,0.1-0.1,0.1c0,0.1,0,0.1,0,0.1l8.7,1.7
	c0.1,0,0.1-0.1,0.1-0.1c0-0.1,0-0.1,0-0.1L593.3,477.4C593.3,477.4,593.3,477.4,593.3,477.4z"/>
<path class="st2" d="M440.6,246.7c0.2,2.8,0.3,5.5,0.5,8.3c0,0.6,0.9,0.6,0.9,0c-0.2-2.8-0.3-5.5-0.5-8.3
	C441.4,246.1,440.5,246.2,440.6,246.7z"/>
<path class="st2" d="M441.2,255.7c-0.2-0.2-0.4-0.4-0.4-0.6l-0.5-8.3c0-0.3,0.1-0.5,0.3-0.7c0.3-0.2,0.6-0.2,0.9,0
	c0.2,0.2,0.4,0.4,0.4,0.6l0.5,8.3c0,0.3-0.1,0.5-0.3,0.7C441.8,255.8,441.4,255.8,441.2,255.7z M441.1,246.6c0,0-0.1,0-0.2,0
	c0,0,0,0,0,0l0.5,8.3c0,0.2,0.2,0.1,0.2,0.1c0,0,0,0,0,0L441.1,246.6C441.1,246.7,441.1,246.6,441.1,246.6z"/>
<path class="st2" d="M437.1,252.1c2.9-0.5,5.9-0.9,8.8-1.3c0.6-0.1,0.3-0.9-0.2-0.9c-2.9,0.5-5.9,0.9-8.8,1.3
	C436.2,251.3,436.5,252.1,437.1,252.1z"/>
<path class="st2" d="M436.6,252.3c-0.3-0.2-0.5-0.6-0.4-0.9c0-0.3,0.3-0.5,0.6-0.6l8.8-1.3c0.2,0,0.4,0,0.5,0.1
	c0.3,0.2,0.5,0.6,0.4,0.9c0,0.3-0.3,0.5-0.6,0.6l-8.8,1.3C436.9,252.5,436.7,252.4,436.6,252.3z M445.8,250.2
	C445.8,250.2,445.7,250.2,445.8,250.2l-8.9,1.3c0,0,0,0,0,0c0,0,0,0.1,0.1,0.2c0,0,0,0,0.1,0l8.8-1.3c0,0,0,0,0,0
	C445.9,250.4,445.9,250.3,445.8,250.2z"/>
<path class="st9" d="M477,473.2l-0.9,1.7l4.1,1.7c0,0,3.3-3.4,4.1-4.1l-2.8-2.2l-3.5,2.5L477,473.2z"/>
<path class="st9" d="M477,473.2l-0.9,1.7l4.1,1.7c0,0,3.3-3.4,4.1-4.1l-2.8-2.2l-3.5,2.5L477,473.2z"/>
<path class="st6" d="M473.1,475.8c0,0,1.5-1.4,3.5-1.8c0,0,2.5,2.2,3.7,2.7c0,0-0.5,2.4,0.1,5.5c0.6,3.1,2,9.1,1.7,9.4
	c-0.3,0.3-1,0.7-1.9,0.6C480.1,492.2,474,485.6,473.1,475.8z"/>
<path class="st13" d="M481.1,492.1c-2.6-2.4-6.6-13.3-7.4-16.7c-0.4,0.3-0.6,0.5-0.6,0.5c0.9,9.9,7.1,16.4,7.1,16.4
	C480.5,492.2,480.8,492.1,481.1,492.1z"/>
<path class="st2" d="M460.4,431.1c0,0-16.9,12.2-15.3,20.7c1.6,8.5,13.1,17.9,32,21.2l2.6-4.3c0,0-18-12.4-15.5-18.2
	c2.5-5.8,10.6-9.6,13.1-9.8c2.4-0.2,11.8,4.8,12.2,7.2c0.3,2.4-8.5,20.5-8.5,20.5l0.3,4.5l4.9-0.9c0,0,21.3-22.2,20.4-28
	c-0.9-5.8-16.1-13.9-16.1-13.9l-16.8-0.6L460.4,431.1z"/>
<path class="st9" d="M478.3,472.1l0.8-2c0,0,7.1,1.8,6.8,2.2c-0.3,0.4-3.1,3.1-3.1,3.1L478.3,472.1z"/>
<path class="st6" d="M488.7,471.6c0,0-2-0.6-4-0.1c0,0-1.3,3-2.1,4c0,0,1.5,1.9,2.3,5c0.8,3.1,2.2,9.1,2.6,9.2
	c0.4,0.1,1.2,0.2,1.9-0.3C489.5,489.4,492.2,480.8,488.7,471.6z"/>
<path class="st13" d="M487.5,471.3c2.1,6.4,1.8,15.4,1,18.4c0.3,0,0.6-0.1,1-0.3c0,0,2.7-8.6-0.8-17.8
	C488.7,471.6,488.2,471.4,487.5,471.3z"/>
<path class="st5" d="M477.9,472.4c-1.1-0.5-26.6-11.3-28.5-19.4c-1.9-8.1,12.2-20.3,12.8-20.8l0.2,0.2c-0.2,0.1-14.5,12.6-12.7,20.5
	c1.9,7.9,28.1,19.1,28.3,19.2L477.9,472.4z"/>
<path class="st5" d="M483.4,471.4l-0.2-0.3c2.8-1.6,20-24,20-27c0-3-12.2-11.5-13.1-12l0.2-0.3c0.1,0.1,13.3,9,13.3,12.3
	C503.5,447.3,486.3,469.7,483.4,471.4z"/>
<path class="st18" d="M475.7,473.7c0,0,5,1.8,5.2,1.7s3.3-3.5,3.5-5l-5.2-2.8C479.3,467.6,476,473.2,475.7,473.7z"/>
<path class="st19" d="M488.6,393.4c0.6,0.2,4.1,1.8,5.7,3.1l0.3,21.2l-3.9,5.6l3.3,4.5c0,0,0.2,3.1-0.4,4.3
	c-0.6,1.1-30.6,1.8-34.4,0c0,0-0.6-1.1,2.1-8.5l-0.3-2.6l1.6-9.3l-5.2-3.7l1.1-11.9c0,0,3.2-2.4,8.9-3.7c5.7-1.3,14.8,1.1,14.8,1.1
	H488.6z"/>
<path class="st20" d="M469,426.2c0,0-1.6-2.4-0.5-5.5c0,0-7.1,0.5-6.8-1.9c0.3-2.4,1.6-3.1,1.4-6.3c-0.2-3.2-2.4-15-4.9-16.5
	c0,0-13.4,11.3-13.3,23.1C445.2,430.8,457.3,430.8,469,426.2z"/>
<path class="st9" d="M485.3,422.5c-0.6,0-2.4-0.5-2.4-0.5s-0.1-2.1-2.3-4.1c-2.2-2-5.4-1-5.4-1l0.9,4.2l3,3.9l5.5,0.7l2-0.7
	L485.3,422.5z"/>
<path class="st9" d="M485.3,422.5c-0.6,0-2.4-0.5-2.4-0.5s-0.1-2.1-2.3-4.1c-2.2-2-5.4-1-5.4-1l0.9,4.2l3,3.9l5.5,0.7l2-0.7
	L485.3,422.5z"/>
<path class="st21" d="M470.5,427.8c0.6,1.2,8.8,1,9,0.3c0.2-0.7,2.5-11.8,1.7-12.6c-0.8-0.7-10.1-1-10.7-0.5
	C469.9,415.6,470.2,427,470.5,427.8z"/>
<path class="st9" d="M467.5,421.5l1.1-0.8c0,0,0-2.8,1.6-3.5v3.2c0,0,5-2.2,7.8-2.3s2.6,2-0.2,2.5c0,0,3.1-0.9,3.3,0.7
	s-3.9,1.2-3.9,1.2s3.2,0.5,3,1.5c-0.2,1.1-3.5,0.5-3.5,0.5s2.9,1.6,2.4,2.2c-0.5,0.6-2.7-0.2-4.2-0.6c-1.4-0.4-5.6-0.3-6.6-0.5
	C467.2,425.5,467.5,421.5,467.5,421.5z"/>
<path class="st20" d="M494.3,396.5c0,0,8.3,5.9,10.6,18.1c2.2,12.2-7.9,17.5-21.6,11.7c0,0,0.6-3.1,0.5-4.5c0,0,7.1-2,8.1-3.5
	C492.9,416.6,487.7,403.5,494.3,396.5z"/>
<path class="st13" d="M477,398.1c0,0-0.9,10.2,0,12.6h1.9c0,0-0.2-10.3,0.5-12.6H477z"/>
<path class="st12" d="M469.9,409.8c-2.5-5.5,0.3-12.9,0.4-13.2l0.6,0.2c0,0.1-2.8,7.4-0.4,12.7L469.9,409.8z"/>
<path class="st12" d="M486.1,409.4l-0.6-0.2c1.5-5.2-1.5-12.5-1.5-12.6l0.6-0.2C484.8,396.7,487.7,404,486.1,409.4z"/>
<path class="st10" d="M484.5,410.2c0.2-0.8,0.9-1.1,1.5-0.9c0.6,0.2,0.8,0.6,0.7,1.1c-0.1,0.5-0.4,0.9-1.3,0.9
	C484.6,411.3,484.4,410.5,484.5,410.2z"/>
<path class="st10" d="M469.4,410.5c0.2-0.8,0.9-1.1,1.5-0.9c0.6,0.2,0.8,0.6,0.7,1.1c-0.1,0.5-0.4,0.9-1.3,0.9
	C469.5,411.6,469.3,410.8,469.4,410.5z"/>
<path class="st2" d="M480.3,387c1.8-0.6,10.3,1.8,11.1,6.4c0.8,4.6-10.9,6.4-12.8,6.5c0,0-17,1.3-17.3-5c-0.3-6.4,10.7-8.6,10.7-8.6
	l5.7,1.6L480.3,387z"/>
<path class="st20" d="M485,387.4c0,0,2.7,8.8-5.8,12.1c0,0-16.6-4.3-9.3-11.1C477.3,381.5,485,387.4,485,387.4z"/>
<path class="st9" d="M471.6,380.1c-1,1.2-2,6.9-0.2,11.2c1.8,4.3,8.7,6.5,12,0.5c3.2-6.1,0.4-11.7,0.4-11.7H471.6z"/>
<path class="st9" d="M484.2,387c0.2-0.2,0.8-1.6,1.8-1.1c1,0.5-0.6,4.4-1.9,4.1l-0.6-1.9L484.2,387z"/>
<path class="st9" d="M471.2,387c-0.2-0.2-0.8-1.6-1.8-1.1c-1,0.5,0.6,4.4,1.9,4.1l0.6-1.9L471.2,387z"/>
<path class="st12" d="M471,381.3c0,0,1.4,4.6,14.5,3.2c12-1.3-3.8-12.9-11.7-9.3c0,0-2.7-1.2-4.5,1.1c-1.9,2.3-1.6,7.2,1.1,10
	C470.4,384.6,470.6,382.9,471,381.3z"/>
<path class="st5" d="M477.8,402.9c0,0-0.1,0-0.2,0c-0.4-0.1-0.6-0.5-0.5-0.9c0.1-0.5,0.5-0.8,1.2-0.6c0.3,0.1,0.4,0.3,0.3,0.6
	C478.6,402.4,478.2,402.9,477.8,402.9z M477.9,401.6c-0.4,0-0.5,0.3-0.5,0.4c0,0.2,0.1,0.5,0.3,0.6c0.3,0.1,0.6-0.3,0.6-0.6
	c0-0.1,0-0.3-0.1-0.3C478.1,401.6,478,401.6,477.9,401.6z"/>
<path class="st5" d="M477.6,406c0,0-0.1,0-0.2,0c-0.4-0.1-0.6-0.5-0.5-0.9c0.1-0.5,0.5-0.8,1.2-0.6c0.3,0.1,0.4,0.3,0.3,0.6
	C478.4,405.6,478.1,406,477.6,406z M477.8,404.7c-0.4,0-0.5,0.3-0.5,0.4c0,0.2,0.1,0.5,0.3,0.6c0.3,0.1,0.6-0.3,0.6-0.6
	c0-0.1,0-0.3-0.1-0.3C477.9,404.8,477.9,404.7,477.8,404.7z"/>
<path class="st5" d="M477.6,409.3c0,0-0.1,0-0.2,0c-0.4-0.1-0.6-0.5-0.5-0.9c0.1-0.5,0.5-0.8,1.2-0.6c0.3,0.1,0.4,0.3,0.3,0.6
	C478.4,408.8,478.1,409.3,477.6,409.3z M477.8,408c-0.4,0-0.5,0.3-0.5,0.4c0,0.2,0.1,0.5,0.3,0.6c0.3,0.1,0.6-0.3,0.6-0.6
	c0-0.1,0-0.3-0.1-0.3C477.9,408,477.9,408,477.8,408z"/>
<path class="st2" d="M63.2,532.9c-1,0-2,0-3-0.2c-8.2-0.9-13-8.3-12.9-15c0-6,4.2-12.9,15.8-14c0.6,0,1.3-0.1,1.9-0.1
	c3.1,0,13.5,0.8,15.8,11.8c0.9,4.6,0.2,8.4-2.3,11.5C75.4,530.6,69.7,532.9,63.2,532.9z M64.9,505.2c-0.6,0-1.2,0-1.7,0.1
	c-9,0.8-14.4,5.5-14.4,12.4c0,5.9,4.4,12.7,11.6,13.5c0.9,0.1,1.9,0.2,2.8,0.2c6,0,11.3-2,14.1-5.4c2.2-2.7,2.8-6.1,2-10.2
	C77.2,506.2,68.6,505.2,64.9,505.2z"/>
<path class="st2" d="M104.4,532.9c-1,0-2,0-3-0.2c-8.2-0.9-13-8.3-12.9-15c0-6,4.2-12.9,15.8-14c0.6,0,1.3-0.1,1.9-0.1
	c3.1,0,13.5,0.8,15.8,11.8c0.9,4.6,0.2,8.4-2.3,11.5C116.7,530.6,111,532.9,104.4,532.9z M106.2,505.2c-0.6,0-1.2,0-1.7,0.1
	c-9,0.8-14.4,5.5-14.4,12.4c0,5.9,4.4,12.7,11.6,13.5c0.9,0.1,1.9,0.2,2.8,0.2c6,0,11.3-2,14.1-5.4c2.2-2.7,2.8-6.1,2-10.2
	C118.5,506.2,109.8,505.2,106.2,505.2z"/>
<path class="st2" d="M80.5,519l-0.3-1.5c0.2,0,4.7-0.8,9.2,0l-0.3,1.5C84.9,518.2,80.5,519,80.5,519z"/>
<path class="st2" d="M121.1,514.9l2.7,0.6v5.8l-2.7,1.4C121.1,522.7,122.2,519.2,121.1,514.9z"/>
<path class="st2" d="M48.3,514.9c0,0-1,3.8,0.5,7.7l-2.8-1v-4.9L48.3,514.9z"/>
<path class="st2" d="M85.4,495.6c-2.9-3.2-7.4-4.6-11.7-4.5c-4.8,0.1-8.8,3.5-12.6,6C54,502,44.7,509.4,45.3,519c0.1,1,1.6,1,1.6,0
	c-0.5-8.8,8.1-15.7,14.5-20.2c1.6-1.1,3.2-2.2,4.9-3.2c1.9-1.2,3.8-2.5,6.1-2.8c4.2-0.6,9.1,0.8,12,3.9
	C85,497.4,86.1,496.3,85.4,495.6z"/>
<path class="st2" d="M86.4,490.7c0.4-2,3.8-2.9,5.5-3c2.1-0.1,4,0.9,5.7,2c3.6,2.5,7,5.5,10.5,8.3c3.2,2.5,6.5,5.1,9.3,8.1
	c1.4,1.5,2.7,3.1,4,4.7c1.3,1.6,3.3,3.9,1.7,6c-0.6,0.8,0.7,1.6,1.3,0.8c2.8-3.6-2.2-8.2-4.4-10.7c-3.7-4.3-8.1-7.7-12.5-11.2
	c-2.3-1.9-4.6-3.7-6.9-5.5c-1.8-1.4-3.6-2.8-5.8-3.6c-2.3-0.8-4.5-0.3-6.7,0.5c-1.5,0.6-3,1.4-3.3,3.1
	C84.7,491.3,86.2,491.7,86.4,490.7z"/>
<path class="st2" d="M476.8,347.2c-0.2-1.2-1.5-7.8-1.5-8.4c0-0.6,21.2,1.8,21.2,1.8l30.8,15.4l4.2,2.6l-18.9-2.2
	c0,0-21.7-3.9-22.6-3.9C489.1,352.4,476.8,347.2,476.8,347.2z"/>
<path class="st2" d="M476.8,347.2c-0.2-1.2-1.5-7.8-1.5-8.4c0-0.6,21.2,1.8,21.2,1.8l30.8,15.4l4.2,2.6l-18.9-2.2
	c0,0-21.7-3.9-22.6-3.9C489.1,352.4,476.8,347.2,476.8,347.2z"/>
<path class="st2" d="M456.9,358.8c0,0,14.2-15.1,15.5-15.2c1.3-0.2,57.8,14.9,59,15.1C532.7,358.8,456.9,358.8,456.9,358.8z"/>
<path class="st2" d="M475.2,338.8c-0.5-0.3,5.1-17.1,6.3-17.1c1.3,0,52.7,37.7,49.8,36.9C528.6,357.9,476,339.3,475.2,338.8z"/>
<path class="st2" d="M575,448.3c-1.3,0-2.5-0.1-3.8-0.2c-4.6-0.5-8.8-2.8-11.8-6.6c-2.8-3.5-4.5-8-4.4-12.4
	c0.1-7.6,5.3-16.2,19.9-17.5c0.8-0.1,1.6-0.1,2.4-0.1c3.9,0,17,1.1,19.9,14.8c1.2,5.7,0.2,10.6-2.9,14.4
	C590.5,445.5,583.3,448.3,575,448.3z M577.3,413.1c-0.8,0-1.5,0-2.2,0.1c-11.5,1.1-18.4,7.1-18.5,16c-0.1,7.6,5.6,16.4,14.9,17.4
	c1.2,0.1,2.4,0.2,3.6,0.2c7.8,0,14.5-2.6,18.1-7c2.8-3.5,3.6-7.9,2.5-13.1C593.1,414.4,582,413.1,577.3,413.1z"/>
<path class="st2" d="M584.8,420.3c-4.5-1.4-9.9-2-14.1,0.3c-3.8,2.1-6.3,6.4-5.7,10.7c0.6,4.4,4.2,7.1,8.4,8.2
	c2.4,0.6,4.6,0.6,7,0.2c2-0.3,3.9-0.6,5.4-2.2c0.8-0.8-0.5-2-1.3-1.3c-1.3,1.4-3.2,1.6-5,1.7c-1.9,0.2-3.6,0.2-5.5-0.2
	c-3.8-0.9-7.1-3.3-7.4-7.5c-0.2-3.8,2.4-7.2,5.7-8.7c3.7-1.6,8.2-0.9,11.9,0.3C585.4,422.4,585.9,420.7,584.8,420.3z"/>
<path class="st2" d="M171.5,292.1c0,0-6.2-2-11-8.4c-5-6.6-10.4-28.4,5-40.8c11-8.8,34.9-10.8,48.6-2.5c14.2,8.5,18.1,36.4,3.9,45.9
	c-14.2,9.5-33.6,7.1-33.6,7.1s-3.5,9.4-2.8,20.2C181.5,313.7,171.3,310.3,171.5,292.1z"/>
<path class="st22" d="M522,520.8c-9.6-4.4-14.4-18.9-14.4-18.9s-0.6-15.2,4.9-15.1c5.5,0,6.4,9.3,6.4,9.3s6.6-49,22.4-38.3
	c18.6,12.7,0.9,39.9,0.9,39.9s14.9-6.9,16.7,1.9C560.9,509.3,542.5,530.1,522,520.8z"/>
<path class="st23" d="M516.6,514.7c0,0,18.4-14.1,22.8-49.6"/>
<path class="st23" d="M514.2,494.4c0,0-0.3,8.2,6.7,16"/>
<path class="st23" d="M546.8,507.7c0,0-13.3,7.3-23.7,0.1"/>
<path class="st6" d="M371.5,470.4c0,0-11.5,33.4-1.8,52.6c0,0-107.3,2.7-127,0.3c-19.7-2.5-22.7-34.6-22.7-34.6l9.5-14.7l16.7-6.6
	L371.5,470.4z"/>
<path class="st2" d="M139.7,522.3l102.9,0.9c0,0-31.1-30.9,3.5-55.9L145.4,466C145.4,466,116.4,486.3,139.7,522.3z"/>
<path class="st3" d="M185.8,523c-12-16.6-11.4-31.1-8.6-40.5c2.9-10.1,8.8-16.3,8.9-16.4l0.6,0.6c-0.1,0.1-5.8,6.2-8.7,16.1
	c-2.7,9.1-3.3,23.4,8.5,39.8L185.8,523z"/>
<path class="st3" d="M197.1,523.3c-17.5-26.4-1.3-56.4-1.1-56.7l0.7,0.4c-0.2,0.3-16.1,29.9,1.1,55.9L197.1,523.3z"/>
<path class="st2" d="M240.7,471.8l133.1,1.4l1-3.2l-128.7-2.6l-10.7,4.3L240.7,471.8z"/>
<path class="st2" d="M238.1,519.4l136.1-0.2l-0.2,4c0,0-118.9,3.6-131.4,0C230.1,519.7,238.1,519.4,238.1,519.4z"/>
<path class="st4" d="M361.9,438.5c0,0-11.1,19.2-0.9,30.3c0,0-108.2,0.4-128.2-1.2c-20-1.6-23.5-20.2-23.5-20.2l9.3-8.4l16.7-3.6
	L361.9,438.5z"/>
<path class="st13" d="M129,466l103.9,1.6c0,0-31.9-18.2,2.6-32.2l-101.7-1.9C133.7,433.5,104.8,444.9,129,466z"/>
<path class="st2" d="M161.1,467c-7.7-6-11.4-12.2-11.1-18.4c0.6-9.3,10-15,10.4-15.2l0.7,1.1c-0.1,0-9.2,5.7-9.7,14.2
	c-0.3,5.7,3.2,11.5,10.6,17.3L161.1,467z"/>
<path class="st2" d="M167.6,467.2c-5.5-4.7-8.5-10.1-8.8-16c-0.5-9.7,6.4-17.2,6.7-17.5l1,0.9c-0.1,0.1-6.9,7.4-6.4,16.5
	c0.3,5.5,3.1,10.5,8.4,15L167.6,467.2z"/>
<path class="st3" d="M230,437.9l134.3,2.2l1-1.9l-129.8-2.8l-10.8,2.4L230,437.9z"/>
<path class="st3" d="M228.2,465.4l137.3,1.4l-0.1,2.3c0,0-119.8,0.8-132.6-1.4C220.1,465.4,228.2,465.4,228.2,465.4z"/>
<path class="st0" d="M368.2,482.9l0-1.3l-133.6-3.4l0,1.3L368.2,482.9z"/>
<path class="st0" d="M368.1,487.6l0-1.3L231,486l0,1.3L368.1,487.6z"/>
<path class="st0" d="M366,498.1l0-1.3l-136.2-0.9l0,1.3L366,498.1z"/>
<path class="st0" d="M365.8,504.7l0-1.3l-133.4,3.3l0,1.3L365.8,504.7z"/>
<path class="st0" d="M366.3,512.6l0-1.3L235,512.1l0,1.3L366.3,512.6z"/>
<path class="st0" d="M367.1,516.2l0-1.3l-129.5,1.5l0,1.3L367.1,516.2z"/>
<path class="st3" d="M257.4,485.5h20.8c0,0,15.4,17.6,9.4,47.8L275,521.7c0,0-6.4,13-10.2,17.4C264.8,539.1,269.4,497.7,257.4,485.5
	z"/>
<path class="st24" d="M232.3,326.4c0,0-6.2,13.9,15.4,25.8c0,0,23.7-8.3,21.6-27.7"/>
<path class="st1" d="M522.1,517.2c-6.3-7.9-11.1-16.9-21.8-18.2c-10.7-1.4-32.7,0.1-36.6,4.1c-3.9,4.1-18.6,18.7-4.7,25.8
	C473,536,539.3,539,522.1,517.2z"/>
<path class="st17" d="M474.5,514.2c11,3.4,15.9,5.9,26,7.6c10.1,1.7,16.9-8.4,17-10.6c1.5,2,3,4,4.5,6c17.2,21.7-49.1,18.8-63,11.7
	c-8.2-4.1-6.5-10.9-2.9-16.6C459.6,511.1,463.5,510.9,474.5,514.2z"/>
<path class="st9" d="M409.8,396.7c0,0-0.2-5,0.7-8.2c0.8-3.2-2.7-1.3-2.7-1.3l-1.4,7.5c0,0-1.3,4.7,0.1,5c1.3,0.2,2.8-2.1,2.8-2.1
	L409.8,396.7z"/>
<path class="st25" d="M404.2,382.9c0,0,6.2,1.1,6.5,1.8c0.3,0.7-3.8,15.1-4.5,15.4c-0.7,0.3-6.4-2.4-6.4-2.4s-0.6-7,0-7.8
	C400.3,389.3,404.2,382.9,404.2,382.9z"/>
<path class="st9" d="M399.3,520.1l-0.8,2.3l0.4,1.3l2.3,0.3l1.5-0.1l-0.2-1.1l-0.2-2.2L399.3,520.1z"/>
<path class="st26" d="M398.5,522.4c0,0-2.8,4.5-2.2,8.8c0,0,13.6,2.8,20.4,0.3c0,0,1.1-2.1,0.3-3.3c-0.8-1.2-9.8-2.9-14.4-5.2
	C402.5,522.9,402.1,524.9,398.5,522.4z"/>
<path class="st26" d="M398.5,522.4c0,0-2.8,4.5-2.2,8.8c0,0,13.6,2.8,20.4,0.3c0,0,1.1-2.1,0.3-3.3c-0.8-1.2-9.8-2.9-14.4-5.2
	C402.5,522.9,402.1,524.9,398.5,522.4z"/>
<path class="st9" d="M390.7,522.6l1.4-6.3l1.8,1.9l0.8,4.9l-0.1,2l-3-0.2L390.7,522.6z"/>
<path class="st27" d="M411.9,443.4c0,0,3.5,8.9,0.2,20.4c-2.9,10.1-4.4,16.9-4.6,17.7c-0.2,0.8-3.3,33.7-5.1,40.2c0,0-2.2,0-3.6-0.9
	c0,0-0.6-13.2,0-25.1c0.6-11.8,1.5-27.5,1.5-27.5l-0.3-6.7l3-11.4L411.9,443.4z"/>
<path class="st6" d="M390.3,441.8c0,0-6.3,5.8-3.7,15.9c1.6,6.1,8.5,21.7,8.5,21.7s-8.3,10.4-4.3,41.3c0,0,0.7,1.5,4,0.7
	c0,0,4.5-29.3,11.5-38.6c0,0-4-22.2-1.7-31.1c0,0,4.6-2.2,6.1-6.2c1.6-4-3.2-4.2-3.2-4.2l-16.3,0.6H390.3z"/>
<path class="st17" d="M417.1,530.3c-7.2,0.4-14.1-0.6-14.1-0.6l1.1,2.6c4.2,0.4,9.2,0.4,12.5-0.8C416.6,531.5,416.9,531,417.1,530.3
	z"/>
<path class="st10" d="M390.7,522.4c0,0-2.8,4.5-2.2,8.8c0,0,13.6,2.8,20.4,0.3c0,0,1.1-2.1,0.3-3.3c-0.8-1.2-9.8-2.9-14.4-5.2
	C394.7,522.9,394.4,524.8,390.7,522.4z"/>
<path class="st4" d="M409.3,530.3c-7.3,1.4-16.7-0.2-20.9-1c0,0.6,0,1.3,0,2c0,0,13.6,2.8,20.4,0.3
	C408.9,531.5,409.2,530.9,409.3,530.3z"/>
<path class="st5" d="M392.3,520.9c-0.1,0-0.2-0.1-0.2-0.1c-2.4-14.4,6.1-40.1,6.6-41.6c-10.3-16.3-8.5-35.4-8.5-35.6
	c0-0.1,0.1-0.2,0.2-0.2c0.1,0,0.2,0.1,0.2,0.2c0,0.2-1.7,19.2,8.5,35.5l0,0.1l0,0.1c-0.1,0.3-9.1,26.9-6.6,41.5
	C392.5,520.8,392.5,520.9,392.3,520.9z"/>
<path class="st5" d="M390.6,452.4c-0.1,0-0.1,0-0.2-0.1s0-0.2,0.1-0.2c7.6-2.1,6.4-7,6.3-7.2c0-0.1,0-0.2,0.1-0.2
	c0.1,0,0.2,0,0.2,0.1C397.2,444.8,398.5,450.1,390.6,452.4L390.6,452.4z"/>
<path class="st5" d="M394.4,525.6C394.4,525.6,394.3,525.6,394.4,525.6c-0.1-0.1-0.1-0.2,0-0.2c0.1,0,1.9-1.3,4.1-1.1
	c0.1,0,0.1,0,0.1,0.1s-0.1,0.1-0.1,0.1c0,0,0,0,0,0C396.3,524.4,394.5,525.6,394.4,525.6C394.4,525.6,394.4,525.6,394.4,525.6z"/>
<path class="st5" d="M396.1,526.1C396.1,526.1,396.1,526.1,396.1,526.1c-0.1-0.1-0.1-0.2,0-0.2c0,0,1.9-1,4-1.1c0,0,0.1,0,0.1,0.1
	c0,0.1,0,0.1-0.1,0.1C398,525.2,396.2,526.1,396.1,526.1C396.2,526.1,396.2,526.1,396.1,526.1z"/>
<path class="st5" d="M398,526.3C398,526.3,398,526.2,398,526.3c-0.1-0.1-0.1-0.2,0-0.2c0,0,1.9-0.6,3.6-0.8c0.1,0,0.1,0,0.1,0.1
	c0,0.1,0,0.1-0.1,0.1C400,525.6,398.1,526.2,398,526.3C398.1,526.3,398.1,526.3,398,526.3z"/>
<path class="st5" d="M403.1,524.9C403,524.9,403,524.9,403.1,524.9c-0.1-0.1-0.1-0.2,0-0.2c0,0,1.4-0.5,2.8-0.5c0.1,0,0.1,0,0.1,0.1
	c0,0.1,0,0.1-0.1,0.1C404.5,524.4,403.2,524.9,403.1,524.9C403.1,524.9,403.1,524.9,403.1,524.9z"/>
<path class="st5" d="M404.6,525.4c0,0-0.1,0-0.1-0.1c0-0.1,0-0.1,0.1-0.1c0,0,2-0.4,3.1-0.5c0.1,0,0.1,0,0.1,0.1
	c0,0.1,0,0.1-0.1,0.1C406.6,525.1,404.7,525.4,404.6,525.4C404.6,525.4,404.6,525.4,404.6,525.4z"/>
<path class="st5" d="M406.6,526c0,0-0.1,0-0.1-0.1c0-0.1,0-0.1,0.1-0.1c0,0,1.6-0.4,2.6-0.5c0.1,0,0.1,0,0.1,0.1
	c0,0.1,0,0.1-0.1,0.1C408.3,525.6,406.7,526,406.6,526C406.7,526,406.6,526,406.6,526z"/>
<path class="st9" d="M399.5,397.3c-0.6,1.3-0.8,3.5,1.4,6.1l4.6,5.2c0,0-0.3,7.3,0,7.8c0.3,0.5-4.9,3.5-4.9,3.5l-6.5-6.3l-3.2-8.5
	c0,0,1-5.8,1-6.1c0-0.3,3.3-3.6,3.3-3.6L399.5,397.3z"/>
<path class="st13" d="M400.7,403.1c0,0,4.8,1.1,7.1,2.4c2.4,1.2,7.6,7.9,8.2,7c0.7-0.8-6.9-12.6-8.2-13.4c0.8-0.7,1.4-1.5,1.9-2.4
	c0,0,12.6,7.6,15.5,14.1c2.8,6.3,0.5,12.9-9.4,12.7l-8.5-1.7l-0.4,18.8l-7.3,2.5c0,0-3.9,1.1-9.5-1.3c0,0,6.1-9.3-6.4-21
	c0,0-2,6.2,0,7.2c2,1,9.8,2.9,9.8,2.9l0.4,3c0,0-13.9,5.4-20.2-0.7c-6.3-6.1,4.6-22.9,8.5-25.6c3.9-2.7,10.3-3.4,10.3-3.4
	s5.4,5.7,7.6,9.6C400.2,413.8,402.7,409.3,400.7,403.1z"/>
<path class="st9" d="M399.1,399.9c-1.1,0.3-3.4,0.6-7.2-0.9c0-0.3,3.3-3.6,3.3-3.6l4.3,1.9C399.1,398,399,398.8,399.1,399.9z"/>
<path class="st9" d="M399.8,379.5c0,0,6,2.3,7.3,10.4l-1.9,0.3c0,0,3,11-9.6,7.9c-12.6-3.1-4.6-16.9-4.6-16.9l7.2-1.7L399.8,379.5
	L399.8,379.5z"/>
<path class="st28" d="M399.8,423.4c0,0-0.8,0.1-1.9,0.2c-0.3,0-0.5,0-0.8,0.1c-0.3,0-0.6,0-0.9,0.1c-0.3,0-0.6,0-1,0.1
	c-0.2,0-0.3,0-0.5,0h-0.5c-0.3,0-0.7,0-1,0c-0.3,0-0.6,0-1,0c-0.3,0-0.6,0-0.9,0c-0.3,0-0.6,0-0.8,0c-0.3,0-0.5,0-0.8,0
	c-0.2,0-0.4,0-0.6,0c-0.3,0-0.5,0-0.5,0s0.1,0.2,0.4,0.4c0.1,0.1,0.3,0.3,0.5,0.4c0.2,0.2,0.4,0.3,0.7,0.4c0.1,0.1,0.3,0.2,0.4,0.2
	c0.2,0.1,0.3,0.1,0.5,0.2c0.3,0.1,0.6,0.3,1,0.3c0.2,0,0.4,0.1,0.5,0.1c0.1,0,0.2,0,0.3,0l0.3,0c0.4,0,0.8,0.1,1.2,0l0.6,0
	c0.2,0,0.4,0,0.6-0.1c0.2,0,0.4-0.1,0.6-0.1s0.4-0.1,0.5-0.2c0.3-0.1,0.7-0.2,1-0.4c0.3-0.2,0.6-0.3,0.8-0.5
	c0.5-0.3,0.9-0.6,1.1-0.9C399.7,423.5,399.8,423.4,399.8,423.4z"/>
<path class="st5" d="M383.7,434.2c4.7,0,9.4-1,9.8-1.1l0-0.2c-0.2,0-15.9,3.4-19.3-2.2c-3.5-5.6,8.8-21.2,9-21.4l-0.2-0.1
	c-0.5,0.6-12.5,15.9-9,21.6C375.6,433.5,379.7,434.2,383.7,434.2z"/>
<path class="st5" d="M415.7,421.8c2.8,0,5.9-0.9,7.7-4.2c1.7-3-0.2-7.4-5.4-13c-3.9-4.2-8.4-7.5-8.4-7.5l-0.1,0.2
	c0.2,0.1,17.7,13.3,13.8,20.3c-3.9,7-13.6,2.9-13.7,2.8l-0.1,0.2C409.5,420.6,412.4,421.8,415.7,421.8z"/>
<path class="st0" d="M412.1,447.5c0,0-6.8-3.5-12.2-3c0,0-6-25.2,1.9-29.4c0,0,11.9-0.5,19.2,6.8C421,422,410.5,421.7,412.1,447.5z"
	/>
<path class="st9" d="M393.7,431.3c0,0,1.4-2.3,2.2-3.4c0.8-1.1,2.2-2.3,2.5-1.7c0.2,0.6-0.9,2.5-0.9,2.5s4.4-0.6,6-0.2
	s4.3,1.6,4.3,1.9c0,0.4-1,0.8-2.5,0.6c0,0,3.3,0.9-0.3,1.6c0,0,1.5,1.1-1.8,1.3c0,0,1.4,0.2,0,0.8c-1.4,0.6-8.1-0.3-9.8-1.6
	C393.4,432.4,393.4,431.8,393.7,431.3z"/>
<path class="st12" d="M399.8,379.5c0,0,0.6,7.3-5.5,9.2l0.5,2.9c0,0,4.1,8.8-2.1,12.6c0,0,2.9,10.3-7.3,7.9
	c-7.3-1.7-4.8-11.9,0-12.8c0,0,1.8-4.4-1.9-8.7c-3.7-4.3-4.4-11.8,1.7-14.9c6.1-3.1,13.4-2.1,13.4-2.1s4.4-4.5,8.6-0.2
	s0.1,9.6-2.1,10.6C405,384.2,403.3,381.3,399.8,379.5z"/>
<path class="st9" d="M396.2,388.1c0-0.2-1.2-2.5-2.9-1.9c-1.7,0.7-1.4,6.1,2.2,5.7C399.1,391.5,396.2,388.1,396.2,388.1z"/>
<path class="st6" d="M579.6,515.9l1.3,14.5c0,0-75.4,5.2-85.4,7.1l-20.5-5.8l17.1-10.4C492.2,521.3,574.9,516.7,579.6,515.9z"/>
<path class="st3" d="M579.6,515.9c-4.6,0.8-83,5.2-87.2,5.4l8.2,5.8l-7.7,4.1l5.4,2.8l-2.7,3.5c10-2,85.4-7.1,85.4-7.1L579.6,515.9z
	"/>
<path class="st3" d="M475.1,531.7l9.1,2.5l-1.2-7.3L475.1,531.7z"/>
<path class="st5" d="M580.1,520.8l0-0.3l-79.5,6.4l0,0.3L580.1,520.8z"/>
<path class="st5" d="M580.5,525.9l0-0.3l-82.2,8.4l0,0.3L580.5,525.9z"/>
<path class="st5" d="M173.9,272.1c2.2-0.2,4.7,0.6,4.7,3.9c0.1,3.3-6.6,4.4-7,0.7C171.2,273,173.2,272.2,173.9,272.1z"/>
<path class="st5" d="M189.9,272.1c2.2-0.2,4.7,0.6,4.7,3.9c0.1,3.3-6.6,4.4-7,0.7C187.2,273,189.1,272.2,189.9,272.1z"/>
<path class="st5" d="M205.8,272.1c2.2-0.2,4.7,0.6,4.7,3.9c0.1,3.3-6.6,4.4-7,0.7C203.1,273,205.1,272.2,205.8,272.1z"/>
<path class="st0" d="M-9.3,298c-9.8-25.2-38.5-21.1-38.5-21.1s-6.7-46.5-60.6-36.8c-77.1,13.9-47.1,68.8-50,69
	c-48.2,2.8-50.3,36.3-31.5,48.4c22.2,14.3,127,10.1,145.2,8.4c26.2-2.4,48.1-3.3,48.1-18C3.2,328-16.9,326-16.9,326
	S-1.7,317.1-9.3,298z"/>
<path class="st0" d="M711.5,275.8c11.5-9.6,21.9,3.1,21.9,3.1s3.7-30.8,41.4-21.5c24.3,6,37.5,30,37.5,30
	c23-10.2,36.7,11.7,24.8,17.2c-13.1,6-90.2,5.2-103.7,5.3c-13.5,0.2-38.2,1.3-39.4-8.4c-1.2-9.7,14.9-10.8,14.9-10.8
	S705.9,280.4,711.5,275.8z"/>
<g>
	<g>
		<path class="st13" d="M-102.7,310.2l-2.2-0.5c-1.2-0.3-2-1.5-1.8-2.7c0.3-1.2,1.5-2,2.7-1.8l4.3,0.9c0.6,0.1,1.1-0.2,1.2-0.8
			s-0.2-1.1-0.8-1.2l-2.2-0.5l0.5-2.2c0.1-0.6-0.2-1.1-0.8-1.2c-0.6-0.1-1.1,0.2-1.2,0.8l-0.5,2.2l-0.1,0c-2.3-0.5-4.6,1-5.1,3.4
			s1,4.6,3.4,5.1l2.2,0.5c1.2,0.3,2,1.5,1.8,2.7s-1.5,2-2.7,1.8l-4.3-0.9c-0.6-0.1-1.1,0.2-1.2,0.8s0.2,1.1,0.8,1.2l2.2,0.5
			l-0.5,2.2c-0.1,0.6,0.2,1.1,0.8,1.2c0.6,0.1,1.1-0.2,1.2-0.8l0.5-2.2l0.1,0c2.3,0.5,4.6-1,5.1-3.4
			C-98.9,313-100.4,310.7-102.7,310.2z"/>
	</g>
</g>
<g>
	<g>
		<path class="st13" d="M653.6,371.5l-1.2-0.9c-0.7-0.5-0.8-1.6-0.2-2.3c0.6-0.7,1.6-0.9,2.3-0.4l2.4,1.9c0.3,0.2,0.8,0.2,1-0.2
			c0.3-0.3,0.2-0.8-0.1-1l-1.3-1l1-1.3c0.3-0.3,0.2-0.8-0.1-1c-0.3-0.2-0.8-0.2-1,0.2l-1,1.3l0,0c-1.3-1-3.3-0.7-4.4,0.7
			s-0.9,3.4,0.4,4.4l1.2,0.9c0.7,0.5,0.8,1.6,0.2,2.3c-0.6,0.7-1.6,0.9-2.3,0.4l-2.4-1.9c-0.3-0.2-0.8-0.2-1,0.2
			c-0.3,0.3-0.2,0.8,0.1,1l1.3,1l-1,1.3c-0.3,0.3-0.2,0.8,0.1,1c0.3,0.2,0.8,0.2,1-0.2l1-1.3l0,0c1.3,1,3.3,0.7,4.4-0.7
			S655,372.6,653.6,371.5z"/>
	</g>
</g>
<g>
	<g>
		<path class="st13" d="M-10.7,445.4l-1.1,0.2c-0.6,0.1-1.2-0.3-1.3-0.9c-0.1-0.6,0.3-1.2,0.9-1.3l2.2-0.4c0.3-0.1,0.5-0.3,0.4-0.6
			c-0.1-0.3-0.3-0.5-0.6-0.4l-1.1,0.2l-0.2-1.1c-0.1-0.3-0.3-0.5-0.6-0.4c-0.3,0.1-0.5,0.3-0.4,0.6l0.2,1.1l0,0
			c-1.2,0.2-2,1.4-1.7,2.5s1.4,2,2.5,1.7l1.1-0.2c0.6-0.1,1.2,0.3,1.3,0.9c0.1,0.6-0.3,1.2-0.9,1.3l-2.2,0.4
			c-0.3,0.1-0.5,0.3-0.4,0.6c0.1,0.3,0.3,0.5,0.6,0.4l1.1-0.2l0.2,1.1c0.1,0.3,0.3,0.5,0.6,0.4c0.3-0.1,0.5-0.3,0.4-0.6l-0.2-1.1
			l0,0c1.2-0.2,2-1.4,1.7-2.5C-8.3,446-9.5,445.2-10.7,445.4z"/>
	</g>
</g>
<g>
	<g>
		<path class="st13" d="M860.1,299.8l-2.3-0.5c-1.3-0.3-2.2-1.6-1.9-2.9c0.3-1.3,1.6-2.2,2.9-1.9l4.7,1c0.6,0.1,1.2-0.3,1.3-0.9
			c0.1-0.6-0.3-1.2-0.9-1.3l-2.4-0.5l0.5-2.4c0.1-0.6-0.3-1.2-0.9-1.3c-0.6-0.1-1.2,0.3-1.3,0.9l-0.5,2.4l-0.1,0
			c-2.5-0.5-5,1.1-5.6,3.6c-0.5,2.5,1.1,5,3.6,5.6l2.3,0.5c1.3,0.3,2.2,1.6,1.9,2.9c-0.3,1.3-1.6,2.2-2.9,1.9l-4.7-1
			c-0.6-0.1-1.2,0.3-1.3,0.9c-0.1,0.6,0.3,1.2,0.9,1.3l2.4,0.5l-0.5,2.4c-0.1,0.6,0.3,1.2,0.9,1.3c0.6,0.1,1.2-0.3,1.3-0.9l0.5-2.4
			l0.1,0c2.5,0.5,5-1.1,5.6-3.6C864.2,302.8,862.6,300.3,860.1,299.8z"/>
	</g>
</g>
<g>
	<g>
		<path class="st13" d="M416.7,355.1l-1.1,0.2c-0.7,0.1-1.3-0.3-1.4-1c-0.1-0.7,0.3-1.3,1-1.4l2.3-0.4c0.3-0.1,0.5-0.3,0.4-0.6
			c-0.1-0.3-0.3-0.5-0.6-0.4l-1.2,0.2l-0.2-1.2c-0.1-0.3-0.3-0.5-0.6-0.4c-0.3,0.1-0.5,0.3-0.4,0.6l0.2,1.2l0,0
			c-1.2,0.2-2.1,1.4-1.8,2.7c0.2,1.2,1.4,2.1,2.7,1.8l1.1-0.2c0.7-0.1,1.3,0.3,1.4,1c0.1,0.7-0.3,1.3-1,1.4L415,359
			c-0.3,0.1-0.5,0.3-0.4,0.6c0.1,0.3,0.3,0.5,0.6,0.4l1.2-0.2l0.2,1.2c0.1,0.3,0.3,0.5,0.6,0.4c0.3-0.1,0.5-0.3,0.4-0.6l-0.2-1.2
			l0,0c1.2-0.2,2.1-1.4,1.8-2.7S417.9,354.9,416.7,355.1z"/>
	</g>
</g>
<g>
	<g>
		<path class="st13" d="M701.8,245.3l-1.1,0.2c-0.6,0.1-1.2-0.3-1.3-0.9c-0.1-0.6,0.3-1.2,0.9-1.3l2.1-0.4c0.3-0.1,0.5-0.3,0.4-0.6
			c-0.1-0.3-0.3-0.5-0.6-0.4l-1.1,0.2l-0.2-1.1c-0.1-0.3-0.3-0.5-0.6-0.4c-0.3,0.1-0.5,0.3-0.4,0.6l0.2,1.1l0,0
			c-1.2,0.2-1.9,1.3-1.7,2.5c0.2,1.2,1.3,1.9,2.5,1.7l1.1-0.2c0.6-0.1,1.2,0.3,1.3,0.9c0.1,0.6-0.3,1.2-0.9,1.3l-2.1,0.4
			c-0.3,0.1-0.5,0.3-0.4,0.6c0.1,0.3,0.3,0.5,0.6,0.4l1.1-0.2l0.2,1.1c0.1,0.3,0.3,0.5,0.6,0.4s0.5-0.3,0.4-0.6l-0.2-1.1l0,0
			c1.2-0.2,1.9-1.3,1.7-2.5C704.1,245.8,702.9,245,701.8,245.3z"/>
	</g>
</g>
<g>
	<g>
		<path class="st13" d="M-27.1,243.3l-1.3,0.2c-0.7,0.1-1.4-0.3-1.5-1.1c-0.1-0.7,0.3-1.4,1.1-1.5l2.5-0.5c0.3-0.1,0.5-0.4,0.5-0.7
			c-0.1-0.3-0.4-0.5-0.7-0.5l-1.3,0.2l-0.2-1.3c-0.1-0.3-0.4-0.5-0.7-0.5c-0.3,0.1-0.5,0.4-0.5,0.7l0.2,1.3l0,0
			c-1.4,0.3-2.3,1.6-2,2.9c0.3,1.4,1.6,2.3,2.9,2l1.3-0.2c0.7-0.1,1.4,0.3,1.5,1.1c0.1,0.7-0.3,1.4-1.1,1.5l-2.5,0.5
			c-0.3,0.1-0.5,0.4-0.5,0.7c0.1,0.3,0.4,0.5,0.7,0.5l1.3-0.2l0.2,1.3c0.1,0.3,0.4,0.5,0.7,0.5c0.3-0.1,0.5-0.4,0.5-0.7l-0.2-1.3
			l0,0c1.4-0.3,2.3-1.6,2-2.9S-25.7,243-27.1,243.3z"/>
	</g>
</g>
<g>
	<g>
		<path class="st13" d="M-196.5,539.3l-1.1-1.7c-0.6-0.9-0.3-2.2,0.6-2.8c0.9-0.6,2.2-0.3,2.8,0.6l2.2,3.3c0.3,0.4,0.8,0.5,1.3,0.3
			s0.5-0.8,0.3-1.3l-1.1-1.7l1.7-1.1c0.4-0.3,0.5-0.8,0.3-1.3c-0.3-0.4-0.8-0.5-1.3-0.3l-1.7,1.1l0-0.1c-1.2-1.8-3.6-2.3-5.4-1.1
			c-1.8,1.2-2.3,3.6-1.1,5.4l1.1,1.7c0.6,0.9,0.3,2.2-0.6,2.8c-0.9,0.6-2.2,0.3-2.8-0.6l-2.2-3.3c-0.3-0.4-0.8-0.5-1.3-0.3
			s-0.5,0.8-0.3,1.3l1.1,1.7l-1.7,1.1c-0.4,0.3-0.5,0.8-0.3,1.3c0.3,0.4,0.8,0.5,1.3,0.3l1.7-1.1l0,0.1c1.2,1.8,3.6,2.3,5.4,1.1
			C-195.8,543.5-195.3,541.1-196.5,539.3z"/>
	</g>
</g>
<g>
	<g>
		<path class="st13" d="M-182.5,417l-1.2,1.4c-0.7,0.8-1.9,0.8-2.7,0.1c-0.8-0.7-0.8-1.9-0.1-2.7l2.5-2.7c0.3-0.4,0.3-0.9-0.1-1.2
			c-0.4-0.3-0.9-0.3-1.2,0.1l-1.3,1.4l-1.4-1.3c-0.4-0.3-0.9-0.3-1.2,0.1c-0.3,0.4-0.3,0.9,0.1,1.2l1.4,1.3l0,0
			c-1.3,1.5-1.2,3.8,0.3,5.1c1.5,1.3,3.8,1.2,5.1-0.3l1.2-1.4c0.7-0.8,1.9-0.8,2.7-0.1c0.8,0.7,0.8,1.9,0.1,2.7l-2.5,2.7
			c-0.3,0.4-0.3,0.9,0.1,1.2c0.4,0.3,0.9,0.3,1.2-0.1l1.3-1.4l1.4,1.3c0.4,0.3,0.9,0.3,1.2-0.1c0.3-0.4,0.3-0.9-0.1-1.2l-1.4-1.3
			l0,0c1.3-1.5,1.2-3.8-0.3-5.1C-178.8,415.4-181.1,415.5-182.5,417z"/>
	</g>
</g>
<g>
	<g>
		<path class="st13" d="M-49.1,544.4l-0.9-0.6c-0.5-0.3-0.6-1-0.3-1.5c0.3-0.5,1-0.6,1.5-0.3l1.8,1.2c0.2,0.2,0.5,0.1,0.7-0.1
			c0.2-0.2,0.1-0.5-0.1-0.7l-0.9-0.6l0.6-0.9c0.2-0.2,0.1-0.5-0.1-0.7c-0.2-0.2-0.5-0.1-0.7,0.1l-0.6,0.9l0,0
			c-1-0.7-2.3-0.4-2.9,0.5c-0.7,1-0.4,2.3,0.5,2.9l0.9,0.6c0.5,0.3,0.6,1,0.3,1.5s-1,0.6-1.5,0.3l-1.8-1.2c-0.2-0.2-0.5-0.1-0.7,0.1
			c-0.2,0.2-0.1,0.5,0.1,0.7l0.9,0.6l-0.6,0.9c-0.2,0.2-0.1,0.5,0.1,0.7c0.2,0.2,0.5,0.1,0.7-0.1l0.6-0.9l0,0c1,0.7,2.3,0.4,2.9-0.5
			C-47.9,546.4-48.1,545-49.1,544.4z"/>
	</g>
</g>
<path class="st2" d="M-103.1,253.2c-0.9,2.6-1.7,5.2-2.6,7.9c-0.2,0.6,0.7,0.8,0.9,0.2c0.9-2.6,1.7-5.2,2.6-7.9
	C-102.1,252.9-102.9,252.7-103.1,253.2z"/>
<path class="st2" d="M-105.3,262c-0.3,0-0.5-0.1-0.7-0.3c-0.2-0.2-0.2-0.5-0.1-0.7l2.6-7.9c0.1-0.3,0.4-0.6,0.8-0.6
	c0.3,0,0.5,0.1,0.7,0.3c0.2,0.2,0.2,0.5,0.1,0.7l-2.6,7.9C-104.6,261.8-104.9,262-105.3,262z M-102.7,253.3c-0.1,0-0.1,0-0.1,0.1
	l-2.6,7.9v0c0,0,0,0,0.1,0s0.1,0,0.1-0.1l2.6-7.9v0C-102.6,253.3-102.6,253.3-102.7,253.3z"/>
<path class="st2" d="M-108.4,256.8c2.9,0.7,5.8,1.4,8.7,2.1c0.6,0.2,0.8-0.7,0.2-0.9c-2.9-0.7-5.8-1.4-8.7-2.1
	C-108.7,255.8-109,256.7-108.4,256.8z"/>
<path class="st2" d="M-99.6,259.1c-0.1,0-0.1,0-0.2,0l-8.7-1.7c-0.4-0.1-0.7-0.4-0.6-0.8c0.1-0.5,0.5-0.9,1-0.8l8.7,1.7
	c0.4,0.1,0.7,0.4,0.6,0.8C-98.9,258.8-99.2,259.1-99.6,259.1z M-108.4,256.5c-0.1,0-0.1,0.1-0.1,0.1c0,0.1,0,0.1,0,0.1l8.7,1.7
	c0.1,0,0.1-0.1,0.1-0.1c0-0.1,0-0.1,0-0.1L-108.4,256.5C-108.3,256.5-108.3,256.5-108.4,256.5z"/>
<path class="st2" d="M-178.3,346.8c3.9,0.2,7.8,0,11.7-0.6c1.2-0.2,0.7-2-0.5-1.9c-3.7,0.6-7.4,0.8-11.2,0.5
	C-179.5,344.8-179.5,346.7-178.3,346.8z"/>
<g>
	<g>
		<path class="st13" d="M364,554l-1.5-0.3c-0.9-0.2-1.4-1-1.2-1.9s1-1.4,1.9-1.2l3,0.6c0.4,0.1,0.8-0.2,0.8-0.6
			c0.1-0.4-0.2-0.8-0.6-0.8l-1.6-0.3l0.3-1.6c0.1-0.4-0.2-0.8-0.6-0.8c-0.4-0.1-0.8,0.2-0.8,0.6l-0.3,1.6l0,0
			c-1.6-0.3-3.2,0.7-3.6,2.3c-0.3,1.6,0.7,3.2,2.3,3.6l1.5,0.3c0.9,0.2,1.4,1,1.2,1.9s-1,1.4-1.9,1.2l-3-0.6
			c-0.4-0.1-0.8,0.2-0.8,0.6c-0.1,0.4,0.2,0.8,0.6,0.8l1.6,0.3l-0.3,1.6c-0.1,0.4,0.2,0.8,0.6,0.8c0.4,0.1,0.8-0.2,0.8-0.6l0.3-1.6
			l0,0c1.6,0.3,3.2-0.7,3.6-2.3C366.7,556,365.6,554.4,364,554z"/>
	</g>
</g>
<path class="st2" d="M-55.2,402.4c-3.7,2.3-7,5.1-10,8.2c0.5,0.2,1,0.5,1.4,0.7c0.6-3.5,1.3-6.9,2.1-10.3c0.2-1.1-1.4-1.7-1.7-0.6
	c-0.8,3.6-1.5,7.2-2.1,10.7c-0.1,0.7,0.9,1.3,1.4,0.7c2.8-3.1,6.1-5.7,9.6-8C-53.5,403.4-54.3,401.8-55.2,402.4z"/>
<path class="st2" d="M-84,526.7c-2.4-4.2-3-9.4-3.3-14.2c-0.1-0.9-1.4-0.9-1.4,0c0.3,5,1,10.4,3.5,14.9
	C-84.7,528.2-83.5,527.5-84,526.7z"/>
<g>
	<g>
		<path class="st13" d="M684.4,542l-1,1.1c-0.6,0.6-1.6,0.7-2.2,0.1c-0.6-0.6-0.7-1.6-0.1-2.2l2-2.3c0.3-0.3,0.2-0.7-0.1-1
			c-0.3-0.3-0.7-0.2-1,0.1L681,539l-1.2-1.1c-0.3-0.3-0.7-0.2-1,0.1c-0.3,0.3-0.2,0.7,0.1,1l1.2,1.1l0,0c-1.1,1.2-1,3.1,0.2,4.2
			c1.2,1.1,3.1,1,4.2-0.2l1-1.1c0.6-0.6,1.6-0.7,2.2-0.1s0.7,1.6,0.1,2.2l-2,2.3c-0.3,0.3-0.2,0.7,0.1,1c0.3,0.3,0.7,0.2,1-0.1
			l1.1-1.2l1.2,1.1c0.3,0.3,0.7,0.2,1-0.1c0.3-0.3,0.2-0.7-0.1-1l-1.2-1.1l0,0c1.1-1.2,1-3.1-0.2-4.2
			C687.4,540.7,685.5,540.8,684.4,542z"/>
	</g>
</g>
<g>
	<g>
		<path class="st13" d="M757.3,401.3l-1.7,0.3c-1,0.2-1.9-0.5-2.1-1.4c-0.2-1,0.5-1.9,1.4-2.1l3.4-0.6c0.4-0.1,0.7-0.5,0.6-0.9
			c-0.1-0.4-0.5-0.7-0.9-0.6l-1.7,0.3l-0.3-1.7c-0.1-0.4-0.5-0.7-0.9-0.6c-0.4,0.1-0.7,0.5-0.6,0.9l0.3,1.7l-0.1,0
			c-1.8,0.3-3,2.1-2.7,3.9s2.1,3,3.9,2.7l1.7-0.3c1-0.2,1.9,0.5,2.1,1.4c0.2,1-0.5,1.9-1.4,2.1l-3.4,0.6c-0.4,0.1-0.7,0.5-0.6,0.9
			s0.5,0.7,0.9,0.6l1.7-0.3l0.3,1.7c0.1,0.4,0.5,0.7,0.9,0.6c0.4-0.1,0.7-0.5,0.6-0.9l-0.3-1.7l0.1,0c1.8-0.3,3-2.1,2.7-3.9
			C760.9,402.1,759.2,400.9,757.3,401.3z"/>
	</g>
</g>
<g>
	<g>
		<path class="st13" d="M847.6,471.4l-1.7,0.9c-0.9,0.5-2.1,0.2-2.7-0.8c-0.5-0.9-0.2-2.1,0.8-2.7l3.3-1.8c0.4-0.2,0.6-0.8,0.4-1.2
			c-0.2-0.4-0.8-0.6-1.2-0.4l-1.7,0.9l-0.9-1.7c-0.2-0.4-0.8-0.6-1.2-0.4c-0.4,0.2-0.6,0.8-0.4,1.2l0.9,1.7l-0.1,0
			c-1.8,1-2.5,3.2-1.5,5.1c1,1.8,3.2,2.5,5.1,1.5l1.7-0.9c0.9-0.5,2.1-0.2,2.7,0.8c0.5,0.9,0.2,2.1-0.8,2.7l-3.3,1.8
			c-0.4,0.2-0.6,0.8-0.4,1.2c0.2,0.4,0.8,0.6,1.2,0.4l1.7-0.9l0.9,1.7c0.2,0.4,0.8,0.6,1.2,0.4c0.4-0.2,0.6-0.8,0.4-1.2l-0.9-1.7
			l0.1,0c1.8-1,2.5-3.2,1.5-5.1C851.7,471,849.4,470.4,847.6,471.4z"/>
	</g>
</g>
<path class="st2" d="M835.1,264.7c5.4,2.2,15.1,8.8,11.2,15.9c-0.3,0.5,0.5,1,0.8,0.4c4.3-7.5-5.6-14.6-11.5-17.1
	C834.9,263.7,834.5,264.5,835.1,264.7z"/>
<path class="st2" d="M846.5,281.6c-0.3-0.1-0.5-0.2-0.6-0.5c-0.1-0.2-0.1-0.5,0-0.7c1-1.7,1.1-3.5,0.5-5.4
	c-1.7-4.9-8.2-8.6-11.5-9.9c-0.4-0.1-0.6-0.5-0.4-0.9c0.1-0.4,0.6-0.7,1.1-0.6c4.8,1.9,10.7,6.2,12.3,10.9c0.8,2.3,0.6,4.5-0.6,6.6
	C847.2,281.5,846.8,281.7,846.5,281.6z M835.2,264.4c3.3,1.4,10.1,5.3,11.9,10.4c0.7,2.1,0.5,4.1-0.5,6c0,0,0,0,0,0.1
	c0,0,0,0.1,0.1,0.1c0.1,0,0.1,0,0.1-0.1c1.1-2,1.3-4,0.6-6.1c-1.6-4.5-7.3-8.6-11.9-10.5c-0.1,0-0.1,0-0.2,0
	C835.2,264.4,835.2,264.4,835.2,264.4z"/>
<path class="st2" d="M845.1,266c3.7,1.8,5.6,5.4,6.2,9.3c0.1,0.6,1,0.5,0.9,0c-0.7-4.2-2.8-8.1-6.8-10
	C845,265,844.6,265.8,845.1,266z"/>
<path class="st2" d="M851.7,276.1c-0.3-0.1-0.6-0.3-0.7-0.7c-0.7-4.2-2.9-7.4-6.1-9c-0.4-0.2-0.5-0.6-0.4-1c0.2-0.5,0.7-0.7,1.1-0.5
	c4.7,2.3,6.4,6.8,7,10.3c0.1,0.3,0,0.5-0.2,0.6C852.3,276,852,276.1,851.7,276.1z M845.4,265.5c-0.1,0-0.1,0.1-0.1,0.1
	c0,0.1,0,0.1,0,0.1c3.4,1.7,5.7,5,6.4,9.5c0,0,0,0.1,0.1,0.1c0.1,0,0.1,0,0.1,0c0,0,0,0,0-0.1C851.4,272.1,849.8,267.7,845.4,265.5z
	"/>
<path class="st2" d="M704.5,465.5c3.2-0.8,6.3-1.8,9.2-3.2c0.5-0.3,0.1-1-0.5-0.8c-2.8,1.4-5.9,2.4-9,3.1
	C703.7,464.8,703.9,465.6,704.5,465.5z"/>
<path class="st2" d="M704.3,465.9c-0.4,0-0.7-0.3-0.8-0.7c0-0.4,0.2-0.8,0.6-0.9c3.5-0.9,6.4-1.9,8.9-3.1c0.5-0.2,1.1,0.1,1.2,0.6
	c0.1,0.3-0.1,0.7-0.4,0.8c-2.6,1.3-5.7,2.3-9.3,3.3C704.5,465.9,704.4,465.9,704.3,465.9z M713.4,461.8L713.4,461.8
	c-2.6,1.2-5.5,2.2-9.1,3.2c0,0-0.1,0-0.1,0.1c0,0,0,0.1,0.1,0.1c3.6-0.9,6.5-2,9.2-3.2c0,0,0,0,0,0
	C713.5,461.8,713.5,461.8,713.4,461.8z"/>
<path class="st2" d="M704.7,460.2c2.2,2.7,5,4.9,6.9,7.9c0.3,0.5,1.1,0,0.8-0.5c-1.9-3-4.8-5.2-7-8
	C705,459.1,704.3,459.8,704.7,460.2z"/>
<path class="st2" d="M711.9,468.6c-0.3,0-0.5-0.2-0.6-0.4c-1.1-1.7-2.5-3.1-3.9-4.6c-1-1-2.1-2.1-3-3.3c-0.2-0.3-0.2-0.6-0.1-0.9
	c0.2-0.3,0.4-0.5,0.7-0.5c0.2,0,0.4,0.1,0.6,0.3c0.9,1.1,2,2.2,3,3.3c1.4,1.5,2.9,3,4.1,4.8c0.2,0.3,0.2,0.5,0,0.8
	C712.5,468.4,712.2,468.6,711.9,468.6z M705.1,459.8C705.1,459.8,705,459.8,705.1,459.8c-0.1,0.2-0.1,0.2-0.1,0.2
	c0.9,1.1,1.9,2.2,2.9,3.2c1.4,1.4,2.8,2.9,3.9,4.7c0.1,0.1,0.2,0,0.2,0c0,0,0,0,0-0.1c-1.1-1.7-2.5-3.2-4-4.7
	C707.1,462.1,706,461,705.1,459.8z"/>
<path class="st2" d="M707.3,468.4c1.3-3,2.5-6,3.2-9.1c0.2-0.6-0.7-0.8-0.9-0.3c-0.8,3.1-1.9,6.1-3.2,9.1
	C706.2,468.7,707,469,707.3,468.4z"/>
<path class="st2" d="M706.8,469.1c-0.3,0-0.5-0.2-0.7-0.3c-0.1-0.2-0.2-0.5,0-0.7c1.3-3,2.5-5.9,3.2-9c0.1-0.4,0.4-0.6,0.8-0.6
	c0.3,0,0.5,0.1,0.7,0.3c0.2,0.2,0.2,0.4,0.2,0.7c-0.8,3.2-2,6.1-3.2,9.1C707.5,468.9,707.2,469.1,706.8,469.1z M706.7,468.4
	c0,0,0,0,0.1,0c0.1,0,0.1-0.1,0.2-0.1c1.3-3,2.5-5.9,3.2-9c0,0,0-0.1,0-0.1c0,0-0.1,0-0.1,0s0,0,0,0
	C709.2,462.4,708,465.3,706.7,468.4z"/>
<path class="st2" d="M825.1,515.4c1.9-1.5,4.2-3.1,6.8-3c1.1,0.1,2.2,0.5,2.9,1.3c0.6,0.7,1,1.6,1.8,2.3c3.5,2.9,5.8-2.7,8.3-3.9
	c1.1-0.6,0.2-2.3-0.9-1.7c-1.9,1-2.7,3.3-4.5,4.2c-1.5,0.7-2.2-0.7-3-1.7c-0.5-0.7-1.2-1.3-2-1.7c-3.8-1.9-7.7,0.6-10.7,2.9
	C822.9,514.7,824.2,516.1,825.1,515.4z"/>
<path class="st2" d="M750.3,292.3c3.1-2.5,5.8-5.2,8.3-8.3c0.8-1-0.9-2-1.6-1c-2.4,2.9-5,5.6-7.9,7.9
	C748,291.7,749.3,293.1,750.3,292.3z"/>
<path class="st2" d="M820.8,405.8c2,1.7,4.9,0.7,5.7-1.7c1-3-1.1-6.1-3.7-7.5c-5.5-2.9-7.5,8.9-1.2,9.3c0.6,0,0.7-0.8,0.1-0.9
	c-2.4-0.2-3.4-2.5-3.1-4.6c0.1-0.7,0.3-1.4,0.6-2c0.9-1.8,2.7-1.4,4-0.5c1.3,1,2.5,2.6,2.7,4.3c0.2,2.4-2.3,4.8-4.5,2.9
	C820.9,404.7,820.4,405.4,820.8,405.8z"/>
<path class="st2" d="M826,405.5c-0.7,0.8-1.7,1.4-2.8,1.5c-1,0.1-2-0.3-2.7-0.9c-1.4-0.4-2.4-1.5-2.9-3c-0.7-2-0.2-4.6,1-6.1
	c1.1-1.3,2.7-1.6,4.3-0.7c2.7,1.5,4.9,4.9,3.9,7.9C826.6,404.7,826.4,405.1,826,405.5z M822,406.1c0.4,0.1,0.8,0.2,1.2,0.2
	c1.3-0.1,2.5-1.1,2.9-2.3c0.9-2.7-1.1-5.8-3.5-7.1c-1.7-0.9-2.8-0.2-3.4,0.6c-1.1,1.3-1.5,3.6-0.9,5.4c0.3,0.8,0.8,1.9,2,2.4
	c0-0.1,0.1-0.1,0.1-0.2c-0.5-0.2-0.9-0.5-1.2-0.9c-0.8-0.9-1.1-2.4-0.9-3.8c0.1-0.5,0.3-1.4,0.6-2.1c0.1-0.2,0.3-0.4,0.4-0.6
	c1.1-1.3,2.9-1,4.1,0c1.6,1.2,2.7,2.9,2.8,4.6c0.1,1-0.2,2-0.9,2.8c-0.8,1-1.9,1.4-3,1l0,0l-0.1,0C822.1,406,822.1,406.1,822,406.1z
	 M822.4,405.3c0.8,0.3,1.6,0,2.3-0.8c0.5-0.6,0.8-1.5,0.8-2.3c-0.1-1.4-1-2.9-2.5-4.1c-1-0.7-2.4-1.1-3.2-0.1
	c-0.1,0.1-0.2,0.3-0.3,0.5c-0.3,0.6-0.4,1.4-0.5,1.9c-0.2,1.3,0.1,2.4,0.8,3.2c0.5,0.6,1.2,0.9,2,1c0.2,0,0.4,0.1,0.6,0.3
	C822.3,405,822.4,405.2,822.4,405.3z M821,405.4c0.1,0,0.2,0,0.3,0.1c-0.1,0-0.1-0.1-0.2-0.2c0,0,0,0,0,0S821,405.3,821,405.4
	C821,405.3,821,405.4,821,405.4z"/>
</svg>
