<?xml version="1.0" encoding="utf-8"?>
<!-- Generator: Adobe Illustrator 19.1.0, SVG Export Plug-In . SVG Version: 6.00 Build 0)  -->
<svg version="1.1" id="Layer_1" xmlns="http://www.w3.org/2000/svg" xmlns:xlink="http://www.w3.org/1999/xlink" x="0px" y="0px"
	 viewBox="4 279.7 406.6 241.1" style="enable-background:new 4 279.7 406.6 241.1;" xml:space="preserve">
<style type="text/css">
	.st0{fill:#ECEDED;}
	.st1{fill:#FFFFFF;}
	.st2{fill:#3333CC;}
	.st3{fill:#FF643B;}
	.st4{fill:#D1D3D4;}
	.st5{fill:#BCBEC0;}
	.st6{fill:#FF7C3B;}
	.st7{fill:#FFAB3B;}
	.st8{fill:#FF5426;}
	.st9{fill:#78CEFF;}
	.st10{fill:#F7D5A0;}
	.st11{fill:#FF503B;}
</style>
<path class="st0" d="M197,520.8c95.2,0,172.4-13.5,172.4-30.2s-77.2-30.2-172.4-30.2S24.6,474,24.6,490.6S101.8,520.8,197,520.8z"/>
<path class="st1" d="M358.6,452.3c3.5,0.2,6.9,0,10.4-0.5c0.8-0.1,0.5-1.4-0.3-1.3c-3.3,0.5-6.7,0.7-10,0.5
	C357.8,450.9,357.8,452.2,358.6,452.3z"/>
<path class="st1" d="M362.9,446.6c-0.2,3.5,0,6.9,0.5,10.4c0.1,0.8,1.4,0.5,1.3-0.3c-0.5-3.3-0.7-6.7-0.5-10
	C364.2,445.7,362.9,445.8,362.9,446.6z"/>
<path class="st1" d="M383.8,371.9c-2.1-1.4-5.2-0.6-6.2,1.8c-1,2.5-1,6.2,2.2,6.9c2.8,0.7,5-1.7,5.9-4.2c0.5-1.4,0.6-3-0.6-4.1
	c-1.3-1.2-3.1-1.1-4.7-1.8c-0.8-0.3-1.4,0.8-0.7,1.1c1.8,0.8,5.5,0.7,4.9,3.6c-0.4,1.8-1.6,3.9-3.6,4.1c-4.9,0.5-2.5-9.5,2.2-6.4
	C383.9,373.4,384.5,372.3,383.8,371.9z"/>
<path class="st1" d="M20.7,382.3c-0.3,4-0.1,8,0.6,12c0.1,0.8,1.4,0.5,1.3-0.3c-0.6-3.8-0.8-7.7-0.5-11.6
	C22.1,381.4,20.7,381.4,20.7,382.3z"/>
<path class="st1" d="M26,384c-3.4,2.1-6.6,4.5-9.5,7.3c-0.6,0.6,0.3,1.5,0.9,0.9c2.8-2.7,5.9-5.1,9.2-7.1
	C27.4,384.7,26.7,383.6,26,384z"/>
<path class="st1" d="M16.2,385.6c3.1,2.4,6.5,4.4,10.1,6.1c0.8,0.3,1.4-0.8,0.7-1.1c-3.6-1.6-7-3.7-10.1-6.1
	C16.2,384,15.5,385.1,16.2,385.6z"/>
<path class="st1" d="M401.4,421.2c2.9,0.2,5.8,0,8.7-0.4c0.8-0.1,0.5-1.4-0.3-1.3c-2.8,0.4-5.5,0.6-8.3,0.4
	C400.5,419.8,400.6,421.1,401.4,421.2z"/>
<path class="st1" d="M100.2,293.8c3.2,0.4,6.3,0.4,9.5,0c-0.2-0.4-0.3-0.7-0.5-1.1c-2,1.7-4.1,3.4-6.2,5c-0.7,0.5,0.3,1.4,0.9,0.9
	c2.1-1.6,4.2-3.3,6.2-5c0.4-0.3,0.1-1.2-0.5-1.1c-3.2,0.4-6.3,0.4-9.5,0C99.4,292.4,99.4,293.7,100.2,293.8z"/>
<path class="st1" d="M9.8,303.6c1.7,0,3.7,0,5.1,1c0.8,0.5,1.4,1.3,1.5,2.3c0.1,0.7-0.1,1.4,0,2.1c0.2,1.1,1,1.7,2,1.9
	c1.6,0.3,3-0.7,4.6-0.5c0.8,0.1,1.2-1.1,0.3-1.3c-0.7-0.1-1.4-0.1-2.1,0.1c-0.8,0.2-1.8,0.6-2.6,0.4c-1.5-0.4-0.7-3-1.3-4.2
	c-1.4-2.8-4.8-3.1-7.5-3.1C9,302.3,9,303.6,9.8,303.6z"/>
<path class="st2" d="M84.4,464.9c-5.7,2.9-14.4,4.2-25.4,0c-3.4-1.3-9-6.5-7.8-10c1.2-3.5,5.8-2.1,5.8-2.1s-18.1-13.4-12.3-19.6
	c4.7-5,15.2,6.8,15.2,6.8s-23.7-31.7-9.6-39.8c16.2-9.3,28.7,30.6,28.7,30.6s-2.9-13.2,2.8-14C87.5,415.9,106,440.3,84.4,464.9z"/>
<path class="st1" d="M73.8,465l-0.8,0c0.8-17.7-4.4-32.7-8.9-42.1c-4.9-10.3-10-16.5-10.1-16.5l0.6-0.5c0.1,0.1,5.2,6.3,10.2,16.7
	C69.3,432,74.6,447.2,73.8,465z"/>
<path class="st1" d="M73.2,455.6c-8.9-2.2-23.6-16.9-24.2-17.5l0.5-0.5c0.2,0.2,15.1,15.1,23.8,17.3L73.2,455.6z"/>
<path class="st1" d="M72.7,462.4c-7.2,0-14.5-3.4-14.5-3.4l0.3-0.7c0.1,0,7.7,3.6,15,3.3l0,0.8C73.3,462.4,73,462.4,72.7,462.4z"/>
<path class="st1" d="M73.6,459l-0.2-0.7c5.3-1.1,9.1-3.7,11.3-7.7c5.6-10.2-0.7-26.5-0.7-26.7l0.7-0.3c0.3,0.7,6.4,16.8,0.7,27.3
	C83,455.1,79.1,457.9,73.6,459z"/>
<path class="st3" d="M79.3,464c2.5,2.9,6.1,4.5,14.9,2.3c2.9-0.8,9.1-3.8,7.7-9.2c-1.4-5.4-7.4,0.9-7.4,0.9s16.9-26.6,4.7-30.9
	c-12.9-4.5-14.2,23.7-14.2,23.7s-1.1-3.8-3.8-3.3C78,448.1,72.9,456.6,79.3,464z"/>
<path class="st1" d="M86.7,464.7l-0.8-0.5c0.1-0.1,7.9-11.8,10.7-30.8l0.9,0.1C94.7,452.7,86.8,464.6,86.7,464.7z"/>
<path class="st1" d="M90.3,462.9c-0.8,0-1.7-0.1-2.8-0.2l0.1-0.9c6.1,0.8,8.4-1.3,8.4-1.3l0.7,0.7C96.6,461.2,94.8,462.9,90.3,462.9
	z"/>
<path class="st1" d="M87,463.5c-7.3-3.3-6.1-11.7-6-11.8l0.9,0.1c-0.1,0.3-1.1,7.8,5.5,10.8L87,463.5z"/>
<path class="st4" d="M88.6,466.2c-1.9-1.8-3.4-4-6.2-4c-2.8,0-8.4,1.1-9.3,2.3c-0.9,1.2-4.2,5.4-0.4,6.8
	C76.5,472.7,93.7,471.3,88.6,466.2z"/>
<path class="st5" d="M76.2,467.1c2.9,0.5,4.3,1,7,1.1c2.7,0.1,4.1-2.7,4-3.3c0.4,0.5,0.9,0.9,1.4,1.4c5.1,5-12,6.4-15.8,5.1
	c-2.2-0.8-2-2.6-1.3-4.2C72.3,466.7,73.3,466.5,76.2,467.1z"/>
<path class="st4" d="M71.3,458.5c7,7.2,3.1,17.2-8.9,17.9c-12,0.8-17.4-9.3-13.5-13.9C52.8,458,62.9,449.8,71.3,458.5z"/>
<path class="st5" d="M50.5,461c-0.9,2.9-1.1,5.8,1.2,6.5c5.2,1.6,4.5-1.2,10.4,1.1c6,2.4,12-1,12.7-2.4c0.1,5.1-4.3,9.8-12.3,10.3
	c-12,0.8-17.4-9.3-13.5-13.9C49.4,462.1,49.9,461.5,50.5,461z"/>
<path class="st6" d="M72.3,484.3c0,0,1.2,6,6.5,7.7c5.3,1.8,248.6,0.3,253.6-1.5c5-1.7,4.7-6.2,4.7-6.2l-54-13.4l-92.1-1.5
	L72.3,484.3z"/>
<path class="st7" d="M104.2,323.1l1.7,125.8c66.2,3.4,132.7,4.5,199.7,3.4l-2.3-131.4L104.2,323.1z"/>
<path class="st7" d="M72.3,484.3l33.6-35.5l199.7,3.4l31.5,32.1H72.3z"/>
<path class="st1" d="M110.8,329.4v113.8l187.5,2.5V327.4L110.8,329.4z"/>
<path class="st1" d="M176.5,472.3c0,0-6.2,6.8-3.3,7.5c2.8,0.7,50,2.7,50.3,0.6c0.3-2.1-2.8-8.1-2.8-8.1S179,471.1,176.5,472.3z"/>
<path class="st1" d="M208.4,460.7l-0.5-5.1l-10.2-0.1l0.5,5.2L208.4,460.7z"/>
<path class="st1" d="M192.8,460.6l0.3-5.2l-16.5-0.2l-0.4,5.3L192.8,460.6z"/>
<path class="st1" d="M171.4,460.4l2.2-5.3l-15.6-0.2l-2.2,5.3L171.4,460.4z"/>
<path class="st1" d="M226,460.8l-1.7-5.1l-11.8-0.1l1.2,5.1L226,460.8z"/>
<path class="st1" d="M246.1,461l-2.3-5l-14.4-0.2l1.9,5L246.1,461z"/>
<path class="st1" d="M151.7,460.2l3.1-5.4l-15.1-0.2l-2.6,5.4L151.7,460.2z"/>
<path class="st1" d="M267.1,461.2l-3.2-4.9l-14.2-0.2l3,5L267.1,461.2z"/>
<path class="st1" d="M118.6,454.4l-5.9,5.5l18.1,0.2l4.6-5.4L118.6,454.4z"/>
<path class="st1" d="M293,461.4l-5.2-4.8l-16.9-0.2l4.9,4.9L293,461.4z"/>
<path class="st1" d="M155.2,461.9l-2.3,5.8l15.4,0.2l2.4-5.8L155.2,461.9z"/>
<path class="st1" d="M176.1,462.1l-0.4,5.8l16.8,0.2l0.3-5.9L176.1,462.1z"/>
<path class="st1" d="M232,462.8l2.2,6l15.5,0.2l-2.7-6L232,462.8z"/>
<path class="st1" d="M214.1,462.6l1.4,5.9l13.2,0.2l-2-6L214.1,462.6z"/>
<path class="st1" d="M111.5,461.3l-5.9,5.7l19,0.3l4.9-5.7L111.5,461.3z"/>
<path class="st1" d="M253.9,463.1l3.6,6l14.8,0.2l-3.9-6L253.9,463.1z"/>
<path class="st1" d="M295.4,469.6l-2.8-6l-14.8-0.2l6.1,6.1L295.4,469.6z"/>
<path class="st1" d="M198.4,462.4l0.5,5.9l10.2,0.1l-0.6-5.9L198.4,462.4z"/>
<path class="st1" d="M136.3,461.6l-2.8,5.8l14,0.2l3.3-5.8L136.3,461.6z"/>
<path class="st3" d="M234.7,355.8c0,0,9.4,67.6,9.2,70.8c-0.3,3.2-15.9,10.7-19.1,2.3c-3.2-8.5-10.4-74.5-10.4-74.5L234.7,355.8z"/>
<path class="st7" d="M289.3,284.5l-3.5-4.6c0,0-35.6,29.6-61.5,35.1c-25.9,5.5-30.7,3.5-31.6,8.4c-0.8,5,1.3,29.7,6.9,42
	c0,0,21.2-4.9,30.7-5.5c9.5-0.5,61.2,8.6,71.5,10.8l-5.5-45.9L289.3,284.5z"/>
<path class="st8" d="M224.3,315c1.1-0.2,2.3-0.5,3.5-0.9c-7.4,14.1-2.8,39.5,8.1,46.1c-2.5-0.2-4.4-0.3-5.6-0.2
	c-9.5,0.5-30.7,5.5-30.7,5.5c-5.6-12.3-7.7-37.1-6.9-42C193.6,318.5,198.4,320.4,224.3,315z"/>
<path class="st9" d="M286.3,279.8c-7.5,1.3-10,22.7-5.5,47.8c4.5,25.1,14.1,44.3,21.6,43c7.5-1.3,10-22.7,5.5-47.8
	C303.5,297.7,293.8,278.4,286.3,279.8z"/>
<path class="st3" d="M286.3,279.8c-7.5,1.3-10,22.7-5.5,47.8c4.5,25.1,14.1,44.3,21.6,43c7.5-1.3,10-22.7,5.5-47.8
	C303.5,297.7,293.8,278.4,286.3,279.8z"/>
<path class="st1" d="M281.6,330.8c-0.1,0-0.1,0-0.2,0.1c-0.2-1.1-0.4-2.1-0.6-3.2c-0.4-2.6-0.8-5.1-1.1-7.5
	C284.4,319,300.8,324.9,281.6,330.8z"/>
<path class="st1" d="M313.1,307.1c5.3-4.4,10.3-9.2,15.8-13.3c0.7-0.5,0-1.7-0.7-1.2c-5.6,4.2-10.7,9-16,13.6
	C311.5,306.7,312.5,307.6,313.1,307.1z"/>
<path class="st1" d="M318.5,324.4c8.5-1.4,17.2-2.2,25.8-2.7c0.9-0.1,0.9-1.4,0-1.4c-8.7,0.4-17.5,1.2-26.1,2.7
	C317.3,323.2,317.7,324.5,318.5,324.4z"/>
<path class="st1" d="M318.2,349.4c3.5,0,6.7,1.5,10,2.2c1.6,0.3,3.1,0.4,4.7,0.6c1.9,0.2,3.8,0.5,5.7,1c0.9,0.2,1.2-1.1,0.4-1.3
	c-1.8-0.4-3.5-0.7-5.3-1c-1.9-0.2-3.7-0.3-5.5-0.7c-3.3-0.8-6.5-2.2-10-2.1C317.4,348,317.4,349.4,318.2,349.4z"/>
<path class="st10" d="M165.6,398.1l32.5-10.3c0,0-0.2-11.7,6.7-14.5c6.9-2.8,12.4,3,12.4,3s6.3-5.6,15.4-6.5
	c9.1-0.9,16.2,2.9,13.2,10.4c0,0,5.6-0.8,5.6,6.1c0,6.8-3.4,8.1-3.4,8.1s5.8-0.4,5.4,5.8c-0.4,6.3-5.7,7.1-5.7,7.1s3.5,2.7,0.3,6.5
	c-3.1,3.8-28.5,13.5-43.5-4.3l-31.3,13.3C173.4,422.9,156.2,417.7,165.6,398.1z"/>
<path class="st10" d="M203.5,407.5l-35.9,12c2.8,2.5,5.8,3.4,5.8,3.4l31.3-13.4L203.5,407.5z"/>
<path class="st10" d="M233.6,401.8c0,0,9.7-4.3,14.5-7.4c0.4-0.2,0.7-0.5,1.1-0.8c1-1,2.3-3.1,2.3-7.3c0-2-0.5-3.4-1.2-4.3
	c1.1,3-0.9,8.1-8,12.9C235.5,399.5,233.6,401.8,233.6,401.8z"/>
<path class="st10" d="M226.4,388.1c0,0,14.3-2.9,19.5-7.9c1.5-3.8,0.4-6.7-2.2-8.5C245.3,373.4,236.6,384.2,226.4,388.1z"/>
<path class="st10" d="M210.6,372.7c-0.9,2,1.4,6.4,3.3,5.6c2.3-1,3.5-2,3.5-2S214.6,373.4,210.6,372.7z"/>
<path class="st10" d="M239.2,409.3l8.6-2.1c0,0,5.3-0.8,5.7-7.1c0-0.5,0-0.9,0-1.4C251.8,402.7,243.7,408.2,239.2,409.3z"/>
<path class="st11" d="M125.6,318.7c-22.8-2.6-54.7,6.9-54.7,27.5c0,37.5,54.7,41.4,74.8,27.2C165.8,359.2,165,323.3,125.6,318.7z"/>
<path class="st11" d="M129.3,367.4c0,0,18.8,13.1,47.1,8.3c0,0-21.7-10.5-26.6-25.7L129.3,367.4z"/>
<path class="st1" d="M120.8,337.4c-17,0-33.4-0.3-33.7-0.3l0-1.3c0.4,0,37.3,0.6,57.8,0l0,1.3C138.1,337.3,129.4,337.4,120.8,337.4z
	"/>
<path class="st1" d="M120.9,351.1c-16.1,0-33.4-0.4-34.6-0.4l0-1.3c0.5,0,48.5,1.1,59.6-0.3l0.2,1.3
	C141.6,350.9,131.5,351.1,120.9,351.1z"/>
<path class="st1" d="M103.7,364.2c-5.8,0-11.8-0.1-16.6-0.3l0.1-1.3c14.4,0.6,38.8,0,39.1,0l0,1.3
	C126.1,363.9,115.2,364.2,103.7,364.2z"/>
<path class="st1" d="M93.3,331.9c-0.2-1.2-1-8-1.2-8.6c-0.2-0.6-19.9,8.5-19.9,8.5l-24.9,24.7l-3.2,3.9l17.6-8.1
	c0,0,19.7-10.6,20.5-11C83.1,340.9,93.3,331.9,93.3,331.9z"/>
<path class="st4" d="M93.3,331.9c-0.2-1.2-1-8-1.2-8.6c-0.2-0.6-19.9,8.5-19.9,8.5l-24.9,24.7l-3.2,3.9l17.6-8.1
	c0,0,19.7-10.6,20.5-11C83.1,340.9,93.3,331.9,93.3,331.9z"/>
<path class="st1" d="M116.1,336.8c0,0-18.5-10.1-19.8-9.8c-1.3,0.3-51.1,32.8-52.2,33.4C43,360.9,116.1,336.8,116.1,336.8z"/>
<path class="st1" d="M92.1,323.3c0.4-0.5-10.3-15-11.6-14.6c-1.3,0.4-38.9,53.2-36.4,51.6C46.7,358.7,91.5,324.1,92.1,323.3z"/>
<path class="st4" d="M304.1,492.5c2.1-2.5,3.7-5.2,7.1-5.6c3.4-0.3,10.4,0.4,11.6,1.7c1.2,1.3,5.7,6.1,1.2,8.3
	C319.5,499,298.4,499.2,304.1,492.5z"/>
<path class="st5" d="M319.3,492c-3.5,1-5.1,1.7-8.4,2.1c-3.2,0.4-5.3-2.8-5.3-3.6c-0.5,0.6-1,1.3-1.5,1.9
	c-5.7,6.7,15.4,6.5,19.9,4.4c2.6-1.2,2.2-3.4,1.1-5.2C324,491.2,322.8,491.1,319.3,492z"/>
<path class="st4" d="M324.2,481.1c-7.6,9.6-1.8,21.2,12.9,20.8c14.7-0.4,20.1-13.3,14.9-18.4S333.4,469.5,324.2,481.1z"/>
<path class="st5" d="M349.9,481.7c1.5,3.5,2,6.9-0.7,8c-6.2,2.5-5.6-1-12.6,2.6c-7,3.6-14.7,0.2-15.7-1.5
	c0.5,6.3,6.4,11.4,16.2,11.1c14.7-0.4,20.1-13.3,14.9-18.4C351.3,482.9,350.6,482.3,349.9,481.7z"/>
<path class="st4" d="M312.5,500.3c1.6,2.1,0.4,4.6-2.8,4.5c-3.2-0.1-4.3-2.9-3.2-4C307.6,499.7,310.5,497.8,312.5,500.3z"/>
<path class="st5" d="M306.9,500.4c-0.3,0.8-0.4,1.5,0.2,1.7c1.3,0.5,1.2-0.2,2.7,0.5c1.5,0.8,3.2,0.1,3.4-0.3
	c-0.1,1.4-1.4,2.5-3.5,2.4c-3.2-0.1-4.3-2.9-3.2-4C306.6,500.7,306.8,500.6,306.9,500.4z"/>
<path class="st2" d="M329,425.7c0,0,18.9,0.2,25.9-7c4.7-5,9.4-23.1-2.8-33.7c-8.7-7.6-28.3-10-39.9-3.5
	c-11.9,6.6-15.9,29.3-4.6,37.7c4.1,3.1,11,5.1,11,5.1s4.7,7.3,1.7,16.7C320.2,441,328.5,440.7,329,425.7z"/>
<path class="st1" d="M332.8,409.7c0.1-0.4,0.4-23.5,0.4-23.5l-8.7,0.4l4.9,23L332.8,409.7L332.8,409.7z"/>
<path class="st1" d="M332.1,412.7c-1.1-0.3-3.4,0.1-3.7,1.6c-0.3,1.5,1.2,3.7,3.7,3.1C334.2,416.8,335,413.5,332.1,412.7z"/>
</svg>
