<svg width="386" height="151" viewBox="0 0 386 151" fill="none" xmlns="http://www.w3.org/2000/svg">
<path d="M17.5596 66.9357C17.5596 66.9357 0.923197 68.4615 2.05526 83.769C3.18733 99.0765 24.352 95.7787 38.3305 95.7787C52.3091 95.7787 133.178 102.079 150.159 91.152C164.531 81.8986 163.005 56.1072 125.992 53.9908C123.777 53.8431 146.763 11.7106 87.6984 1.02986C46.3534 -6.45161 41.1853 29.2823 41.1853 29.2823C41.1853 29.2823 19.1839 26.1321 11.6532 45.4757C5.99289 60.094 17.5596 66.9357 17.5596 66.9357Z" fill="#E6E7E8"/>
<path d="M199.249 150.464C302.112 150.464 385.498 136.251 385.498 118.717C385.498 101.184 302.112 86.9701 199.249 86.9701C96.3866 86.9701 13 101.184 13 118.717C13 136.251 96.3866 150.464 199.249 150.464Z" fill="#F7F7F7"/>
<path d="M48.7772 133.891L0 109.921L53.2562 90.5775L209.284 86L209.432 134.187L48.7772 133.891Z" fill="#FFF2E0"/>
<path d="M24.0194 101.209L0 109.921L22.6905 121.045C23.035 115.68 23.5272 108.297 24.0194 101.209Z" fill="#FFAB3B"/>
<path d="M53.4045 90.5775L55.8163 99.6832L46.2676 107.805L55.2749 119.519L47.8426 133.399L48.7778 133.891L209.432 134.187L209.285 86L53.4045 90.5775Z" fill="#FFBC62"/>
<path d="M53.4045 90.5775L55.8163 99.6832L46.2676 107.805L55.2749 119.519L47.8426 133.399L48.7778 133.891L209.432 134.187L209.285 86L53.4045 90.5775Z" fill="#FFAB3B"/>
<path d="M209.285 86L53.4045 90.5775L55.8163 99.6832L46.2676 107.805L209.334 106.033L209.285 86Z" fill="#FFBC62"/>
<path d="M167.231 52.9887C167.231 52.9887 174.909 53.6778 174.417 60.7655C173.876 67.8532 164.081 66.3274 157.633 66.3274C151.185 66.3274 113.778 69.2314 105.902 64.1617C99.2577 59.8795 99.9468 47.9682 117.075 46.9838C118.109 46.9346 107.478 27.4435 134.795 22.4722C153.941 19.0268 156.304 35.5648 156.304 35.5648C156.304 35.5648 166.493 34.0882 169.987 43.0462C172.596 49.7894 167.231 52.9887 167.231 52.9887Z" fill="#C5C6C7"/>
<path d="M94.6285 80.4677C94.6285 80.4677 72.7747 78.2528 78.2381 77.9082C120.666 75.1519 306.521 78.8926 311.493 80.3692C314.2 81.1568 329.458 119.795 309.918 132.592C302.141 137.711 119.682 133.97 83.0125 129.934C64.0135 127.867 91.2323 127.768 91.2323 127.768C111.806 112.51 111.806 96.7103 94.6285 80.4677Z" fill="#FF643B"/>
<path d="M87.1465 127.818C87.1465 127.818 105.555 105.078 90.5427 80.4678L211.231 81.6491L305.143 82.7319C305.143 82.7319 314.741 95.9229 311.344 111.673C307.948 127.375 304.552 131.165 304.552 131.165L87.1465 127.818Z" fill="#E4F5FF"/>
<path d="M87.1465 127.818C87.1465 127.818 105.555 105.078 90.5427 80.4678L211.231 81.6491L305.143 82.7319C305.143 82.7319 314.741 95.9229 311.344 111.673C307.948 127.375 304.552 131.165 304.552 131.165L87.1465 127.818Z" fill="#F4FBFF"/>
<path d="M95.0215 90.9517V90.2134L307.899 87.1125V87.9001L95.0215 90.9517Z" fill="#ABB8BF"/>
<path d="M311.444 97.7441H96.3516V98.4824H311.444V97.7441Z" fill="#ABB8BF"/>
<path d="M315.628 109.852L96.1055 106.161L96.1547 105.422L315.628 109.114V109.852Z" fill="#ABB8BF"/>
<path d="M312.082 116.842L94.1348 114.774V113.987L312.082 116.103V116.842Z" fill="#ABB8BF"/>
<path d="M312.084 126.292L91.4297 121.222L91.4789 120.484L312.084 125.554V126.292Z" fill="#ABB8BF"/>
<path d="M335.07 59.1554C335.07 59.1554 339.155 59.4999 338.86 63.2899C338.564 67.0306 333.396 66.2431 330 66.2431C326.604 66.2431 306.817 67.769 302.634 65.1111C299.139 62.8469 299.484 56.5467 308.54 56.0053C309.081 55.9561 303.47 45.6691 317.892 43.0604C327.982 41.2392 329.262 50.0004 329.262 50.0004C329.262 50.0004 334.627 49.213 336.497 53.9873C337.875 57.4819 335.07 59.1554 335.07 59.1554Z" fill="#F1F2F2"/>
<path d="M322.121 34.5813C321.974 34.3844 321.974 34.0399 322.22 33.8923C322.417 33.7446 322.761 33.7446 322.909 33.9907C323.696 34.9751 324.582 35.9103 325.665 36.747C325.862 36.9439 325.911 37.2392 325.714 37.4361C325.518 37.633 325.222 37.6822 325.025 37.4853C324.582 37.0916 324.139 36.7471 323.746 36.3533C323.155 35.8119 322.614 35.2212 322.121 34.5813ZM327.683 38.765C327.831 38.5189 328.126 38.4698 328.372 38.5682C329.455 39.2081 330.636 39.7987 331.916 40.2909C332.162 40.3894 332.31 40.6846 332.211 40.9307C332.113 41.1768 331.818 41.3245 331.572 41.226C330.243 40.6846 329.012 40.094 327.88 39.4049C327.831 39.4049 327.831 39.3557 327.782 39.3557C327.585 39.2573 327.536 39.0111 327.683 38.765ZM320.349 31.6774C319.759 30.4469 319.365 29.1179 319.119 27.7398C319.07 27.4444 319.267 27.1983 319.513 27.1491C319.808 27.0999 320.054 27.2968 320.103 27.5429C320.3 28.8226 320.694 30.1023 321.235 31.2344C321.334 31.4805 321.235 31.7758 320.989 31.9235C320.792 32.0219 320.595 31.9727 320.448 31.825C320.399 31.7758 320.349 31.7266 320.349 31.6774ZM334.377 41.7675C334.476 41.5214 334.722 41.3737 335.017 41.4229C337.232 42.0628 338.856 42.3089 338.856 42.3089C339.152 42.3581 339.299 42.6042 339.299 42.8503C339.25 43.1457 339.004 43.2933 338.758 43.2933C338.709 43.2933 337.084 43.0472 334.771 42.3581C334.672 42.3581 334.623 42.3089 334.574 42.2597C334.377 42.1613 334.328 41.9644 334.377 41.7675ZM318.922 24.2943C318.922 23.8021 318.971 23.2607 319.02 22.7193C319.07 22.1286 319.168 21.5872 319.267 21.0458C318.774 20.4551 318.282 19.8153 317.839 19.1754C317.692 18.9293 317.741 18.634 317.987 18.4863C318.233 18.3387 318.528 18.3879 318.676 18.634C318.971 19.077 319.316 19.52 319.66 19.9629C319.759 19.8645 319.906 19.8645 320.054 19.8645C320.3 19.9138 320.497 20.2091 320.448 20.4552C320.448 20.5536 320.399 20.652 320.399 20.7505C320.694 21.0458 320.94 21.2919 321.235 21.5872C321.432 21.7841 321.481 22.0794 321.285 22.2763C321.088 22.4732 320.792 22.5224 320.595 22.3255C320.448 22.2271 320.349 22.0794 320.202 21.981C320.153 22.2763 320.103 22.5716 320.103 22.867C320.054 23.3592 320.005 23.8514 320.005 24.3436C320.005 24.6389 319.759 24.8358 319.463 24.8358C319.316 24.8358 319.217 24.7865 319.119 24.6881C318.971 24.5404 318.922 24.442 318.922 24.2943ZM323.155 23.556C323.303 23.3099 323.598 23.2115 323.844 23.3592C325.025 23.9498 326.256 24.3435 327.486 24.4912C327.782 24.5404 327.979 24.7866 327.929 25.0327C327.88 25.328 327.634 25.5248 327.388 25.4756C326.01 25.3279 324.681 24.8849 323.401 24.2451C323.352 24.2451 323.303 24.1959 323.303 24.1467C323.106 23.999 323.057 23.8021 323.155 23.556ZM316.215 16.1238C315.673 14.9425 315.28 13.6136 314.886 12.2354C314.837 11.9893 314.984 11.6939 315.231 11.6447C315.477 11.5955 315.772 11.7432 315.821 11.9893C316.166 13.3182 316.559 14.5487 317.052 15.73C317.15 15.9761 317.052 16.2714 316.806 16.3699C316.609 16.4683 316.412 16.4191 316.264 16.2714C316.313 16.2222 316.264 16.173 316.215 16.1238ZM320.546 16.9113C321.137 15.6316 321.924 14.4995 322.81 13.5643L322.909 13.4659C323.106 13.269 323.401 13.269 323.598 13.4659C323.795 13.6628 323.795 13.9581 323.598 14.1549L323.499 14.2534C322.663 15.0902 321.974 16.1238 321.432 17.305C321.334 17.5511 321.038 17.6496 320.743 17.5511C320.694 17.5019 320.645 17.502 320.595 17.4527C320.497 17.3543 320.448 17.1574 320.546 16.9113ZM330.243 24.9834C330.193 24.6881 330.341 24.442 330.636 24.3928C331.916 24.1467 333.097 23.6053 334.082 22.867C334.328 22.7193 334.623 22.7685 334.771 22.9654C334.919 23.2115 334.869 23.5068 334.672 23.6545C333.59 24.4912 332.261 25.0819 330.833 25.328C330.686 25.3772 330.489 25.3279 330.39 25.1803C330.341 25.1803 330.292 25.0818 330.243 24.9834ZM314.295 8.88841C314.148 7.80556 314.049 6.72269 314 5.54141C314 5.24609 314.197 5.04922 314.492 5C314.788 5 314.984 5.19688 315.034 5.4922C315.083 6.62427 315.181 7.7071 315.329 8.74072C315.378 9.03604 315.181 9.28218 314.886 9.3314C314.738 9.3314 314.591 9.28216 314.443 9.18372C314.345 9.1345 314.295 9.03607 314.295 8.88841ZM325.518 12.1369C325.419 11.8908 325.518 11.5955 325.764 11.4478C327.043 10.8572 328.422 10.5619 329.849 10.5619C330.144 10.5619 330.341 10.808 330.341 11.0541C330.341 11.3494 330.095 11.5463 329.849 11.5463C328.569 11.5463 327.289 11.7924 326.157 12.3338C325.961 12.4323 325.764 12.3831 325.616 12.2354C325.567 12.2354 325.518 12.1861 325.518 12.1369ZM336.198 20.5536C336.592 19.8645 336.887 19.077 337.084 18.2402C337.183 17.8465 337.232 17.4035 337.183 17.0097C337.183 16.7144 337.38 16.5175 337.675 16.4683C337.97 16.4683 338.167 16.6652 338.216 16.9605C338.266 17.4527 338.216 17.9449 338.069 18.4371C337.872 19.3723 337.527 20.2582 337.084 21.0458C336.937 21.2919 336.641 21.3903 336.395 21.2427C336.346 21.2427 336.346 21.1935 336.297 21.1442C336.1 21.0458 336.051 20.7504 336.198 20.5536ZM332.654 11.5463C332.753 11.3002 333.048 11.1526 333.294 11.251C334.722 11.7924 335.952 12.6291 336.789 13.6627C336.986 13.8596 336.937 14.2042 336.74 14.3518C336.543 14.5487 336.198 14.4995 336.051 14.3026C335.312 13.4167 334.229 12.6783 332.999 12.1861C332.95 12.1369 332.851 12.1369 332.802 12.0877C332.654 11.9401 332.605 11.7432 332.654 11.5463Z" fill="#FF903B"/>
<path d="M344.422 51.4637C344.717 50.6762 345.997 46.0003 346.194 45.6557C346.391 45.262 359.139 53.6786 359.139 53.6786L373.757 73.5144L375.578 76.566L364.208 69.0353C364.208 69.0353 351.657 59.5358 351.116 59.1913C350.574 58.7975 344.422 51.4637 344.422 51.4637Z" fill="#FFAB3B"/>
<path d="M344.422 51.4637C344.717 50.6762 345.997 46.0003 346.194 45.6557C346.391 45.262 359.139 53.6786 359.139 53.6786L373.757 73.5144L375.578 76.566L364.208 69.0353C364.208 69.0353 351.657 59.5358 351.116 59.1913C350.574 58.7975 344.422 51.4637 344.422 51.4637Z" fill="#FFAB3B"/>
<path d="M328.029 52.3989C328.029 52.3989 341.959 47.3785 342.845 47.723C343.731 48.0676 374.788 75.9754 375.478 76.5168C376.265 77.0582 328.029 52.3989 328.029 52.3989Z" fill="#FFAB3B"/>
<path d="M346.191 45.6558C345.994 45.2621 354.952 36.4024 355.838 36.7962C356.675 37.19 377.15 77.9443 375.575 76.5169C373.951 75.1388 346.535 46.2465 346.191 45.6558Z" fill="#FFBC62"/>
<path d="M206.434 8.46291C208.107 7.38007 279.772 8.90588 282.873 12.2036C286.023 15.5014 280.904 112.268 275.293 116.747C269.682 121.226 204.121 117.387 202.693 113.499C201.266 109.561 202.546 11.0224 206.434 8.46291Z" fill="#FFAB3B"/>
<path d="M225.284 60.4404C221.888 62.1631 223.758 99.2752 226.17 99.6689C228.582 100.063 262.298 100.555 264.513 98.3892C266.728 96.1743 269.73 63.5413 268.352 62.7046C266.974 61.8186 228.188 58.9146 225.284 60.4404Z" fill="#FFDAA9"/>
<path d="M221.495 8.11944C212.98 8.021 206.926 8.11941 206.434 8.46395C202.546 11.0234 201.266 109.562 202.693 113.451C203.087 114.533 208.452 115.616 216.13 116.502C215.589 99.6197 219.871 33.2217 221.495 8.11944Z" fill="#FFB03B"/>
<path d="M221.495 8.11944C212.98 8.021 206.926 8.11941 206.434 8.46395C202.546 11.0234 201.266 109.562 202.693 113.451C203.087 114.533 208.452 115.616 216.13 116.502C215.589 99.6197 219.871 33.2217 221.495 8.11944Z" fill="#FFB03B"/>
<path d="M199.152 30.9082C196.395 30.0222 194.82 27.8566 194.82 24.8541C194.82 22.6884 195.509 20.9657 196.937 19.8336C199.792 17.4711 204.467 18.3078 204.664 18.357C205.157 18.4555 205.452 18.8985 205.353 19.3907C205.255 19.8829 204.812 20.1782 204.32 20.0797C204.271 20.0797 200.235 19.3415 198.069 21.1626C197.084 21.9994 196.592 23.1807 196.592 24.8049C196.592 28.4472 199.447 29.2839 201.121 29.4316C204.812 29.8253 209.783 27.7581 210.472 24.608C210.571 24.1158 211.063 23.8205 211.506 23.9189C211.998 24.0174 212.294 24.5096 212.195 24.9525C211.309 29.087 205.501 31.6465 200.924 31.2035C200.284 31.2035 199.693 31.1051 199.152 30.9082Z" fill="black"/>
<path d="M198.807 51.4823C196.149 50.6456 194.328 48.5784 193.934 45.7236C193.54 43.2134 194.082 41.2937 195.46 40.014C198.167 37.4545 203.286 38.5374 203.483 38.5867C203.975 38.6851 204.27 39.1773 204.172 39.6203C204.073 40.1125 203.581 40.4078 203.138 40.3094C203.04 40.3094 198.757 39.4234 196.69 41.2938C195.755 42.1797 195.41 43.5578 195.706 45.4282C196.247 49.0705 199.397 50.2518 202.154 50.1041C205.205 49.9565 208.454 48.1845 208.601 45.4282C208.651 44.936 209.044 44.5423 209.537 44.5915C210.029 44.6407 210.423 45.0345 210.373 45.5267C210.127 49.4151 205.993 51.6792 202.203 51.8761C200.972 51.9745 199.791 51.8269 198.807 51.4823Z" fill="black"/>
<path d="M196.934 69.9398C196.392 69.743 195.851 69.5461 195.408 69.2507C193.291 68.0695 192.159 66.0514 192.209 63.6396C192.307 60.9325 193.193 58.9145 194.916 57.7825C198.066 55.6168 202.742 57.1918 202.939 57.2903C203.382 57.4379 203.628 57.9793 203.48 58.4223C203.332 58.8653 202.791 59.1114 202.348 58.9637C202.299 58.9637 198.312 57.5856 195.9 59.2591C194.719 60.0958 194.079 61.5724 193.981 63.7381C193.931 65.51 194.67 66.839 196.245 67.7249C198.903 69.2015 203.332 68.9554 206.138 67.085C207.467 66.1991 208.993 64.6241 208.747 62.0154C208.697 61.5232 209.042 61.0802 209.534 61.031C210.026 60.9818 210.469 61.3263 210.518 61.8185C210.814 64.5256 209.583 66.9374 207.122 68.5124C204.268 70.432 200.133 70.9242 196.934 69.9398Z" fill="black"/>
<path d="M195.36 90.2679C194.572 90.0218 193.834 89.6772 193.145 89.185C191.767 88.2006 190.241 86.3303 190.733 82.9833C191.176 79.9316 192.456 77.8152 194.474 76.6339C197.968 74.6158 202.349 76.2893 202.497 76.3386C202.94 76.5354 203.186 77.0277 202.989 77.4707C202.792 77.9136 202.3 78.1597 201.857 77.9629C201.808 77.9629 198.067 76.5354 195.311 78.1105C193.785 78.9964 192.8 80.7192 192.407 83.1802C192.111 85.149 192.653 86.6748 194.08 87.6592C196.344 89.2835 200.577 89.3327 203.481 87.8069C204.466 87.3147 206.139 86.1334 206.09 84.263C206.09 83.7708 206.484 83.3771 206.976 83.3771C207.468 83.3771 207.862 83.7708 207.862 84.263C207.862 86.3795 206.631 88.2006 204.269 89.4311C202.005 90.7601 198.313 91.2031 195.36 90.2679Z" fill="black"/>
<path d="M196.689 106.953C196.147 106.806 195.655 106.56 195.212 106.314C193.342 105.231 192.407 103.41 192.505 101.195C192.604 98.7337 193.44 96.9125 195.015 95.7805C197.919 93.7132 202.201 94.8945 202.398 94.993C202.841 95.1406 203.137 95.6328 202.989 96.0758C202.841 96.568 202.349 96.8141 201.906 96.6665C201.857 96.6665 198.264 95.6328 196.049 97.2079C194.966 97.9954 194.375 99.3735 194.277 101.244C194.228 102.819 194.818 104 196.147 104.739C198.313 106.018 202.152 105.871 204.613 104.345C205.647 103.705 206.828 102.622 206.73 100.949C206.68 100.456 207.074 100.063 207.566 100.013C208.059 100.013 208.452 100.358 208.502 100.85C208.6 102.819 207.517 104.591 205.499 105.821C202.989 107.495 199.396 107.839 196.689 106.953Z" fill="black"/>
<path d="M264.503 74.4529L230.246 74.3545C230 74.3545 229.803 74.1576 229.803 73.9115C229.803 73.6654 230 73.4685 230.246 73.4685L264.503 73.567C264.749 73.567 264.946 73.7638 264.946 74.0099C264.946 74.256 264.749 74.4529 264.503 74.4529Z" fill="#979FEF"/>
<path d="M230.196 82.7219C229.95 82.7219 229.803 82.525 229.803 82.2789C229.803 82.0328 230 81.8359 230.246 81.8852L263.223 82.3281C263.469 82.3281 263.617 82.525 263.617 82.7711C263.617 83.0172 263.42 83.2141 263.174 83.1649L230.196 82.7219Z" fill="#979FEF"/>
<path d="M228.82 90.7943C228.573 90.7943 228.426 90.5974 228.426 90.3513C228.426 90.1052 228.623 89.9575 228.869 89.9575L263.224 92.1724C263.471 92.1724 263.618 92.3693 263.618 92.6154C263.618 92.8615 263.421 93.0092 263.175 93.0092L228.82 90.7943Z" fill="#979FEF"/>
<path d="M309.258 83.4264L320.037 84.903L316.149 104.197L303.844 105.822L309.258 83.4264Z" fill="#FFBC62"/>
<path d="M309.258 83.4264L320.037 84.903L316.149 104.197L303.844 105.822L309.258 83.4264Z" fill="#FF8D2E"/>
<path d="M340.906 125.706C340.906 125.706 340.217 127.971 340.66 129.742C340.66 129.742 354.885 131.711 355.279 130.579C355.672 129.447 355.869 128.266 353.753 127.823C351.587 127.38 345.09 127.626 340.709 124.033L340.906 125.706Z" fill="#F7D5A0"/>
<path d="M340.659 129.743C340.462 129.004 340.462 128.167 340.561 127.478C347.599 129.398 350.454 128.561 351.586 127.528C352.521 127.626 353.26 127.675 353.801 127.774C355.967 128.217 355.721 129.447 355.327 130.53C354.884 131.711 340.659 129.743 340.659 129.743Z" fill="#FF8D2E"/>
<path d="M312.949 94.5008C313.343 93.4672 313.835 89.628 314.475 89.185C315.115 88.7421 314.278 92.1875 314.869 91.8922C315.509 91.6461 318.068 85.9857 319.495 87.6592C320.923 89.3327 318.314 94.993 312.9 95.8298C307.436 96.6665 312.949 94.5008 312.949 94.5008Z" fill="#F7D5A0"/>
<path d="M306.944 64.4767C306.944 64.4767 308.962 64.772 308.223 71.0229C307.485 77.2739 306.993 78.3568 306.993 78.3568L305.123 77.1263C305.123 77.1263 300.201 85.5429 294.393 77.6185C294.393 77.6185 290.849 81.1131 290.258 84.9523C289.667 88.7915 281.891 79.6857 281.891 79.6857C281.891 79.6857 288.142 83.771 288.486 71.1214L294.737 63.7876C294.688 63.7876 306.894 66.79 306.944 64.4767Z" fill="#F7D5A0"/>
<path d="M285.533 81.5559C285.533 81.5559 280.316 85.3951 277.067 95.2884C273.818 105.182 270.471 128.266 288.683 129.053C306.944 129.841 321.759 110.891 321.759 110.891C321.759 110.891 339.724 126.445 340.216 126.002C340.709 125.559 341.644 124.476 341.841 124.131C342.038 123.787 327.862 101.195 320.775 99.669C313.638 98.1431 300.89 114.484 292.03 114.189C283.17 113.844 294.934 99.226 294.934 99.226C294.934 99.226 297.493 98.2416 296.017 95.0423C294.54 91.7937 292.03 88.2006 290.061 85.5427C290.061 85.4935 288.585 86.4287 285.533 81.5559Z" fill="#979FEF"/>
<path d="M288.093 87.2163C288.093 87.2163 285.041 107.544 313.195 93.8118L314.081 95.7806C314.081 95.7806 302.613 110.448 291.144 106.215C279.676 101.933 281.104 92.9751 281.104 92.9751L288.093 87.2163Z" fill="#177A96"/>
<path d="M288.142 86.9209C288.142 86.9209 285.041 107.544 313.195 93.8117L314.081 95.7805C314.081 95.7805 302.613 110.448 291.145 106.215C279.676 101.933 279.184 92.1382 279.184 92.1382C278.446 82.8356 288.831 83.0325 288.142 86.9209Z" fill="#3333CC"/>
<path d="M289.029 112.663C289.472 113.549 290.407 114.09 292.031 114.189C300.891 114.533 313.639 98.1431 320.776 99.6689C327.912 101.195 342.039 123.787 341.842 124.131C341.645 124.476 340.71 125.559 340.218 126.002C339.725 126.445 321.76 110.891 321.76 110.891C321.76 110.891 306.895 129.792 288.684 129.053C279.135 128.66 275.493 122.113 274.656 114.533C282.335 116.847 287.158 114.14 289.029 112.663Z" fill="#3333CC"/>
<path d="M290.947 68.1681L290.061 69.2017C289.52 70.7767 288.979 73.287 288.979 73.287L292.965 79.1934C293.753 78.209 294.343 77.5691 294.343 77.5691C293.507 75.305 291.735 72.7455 291.193 69.0048C291.144 68.611 291.046 68.3158 290.947 68.1681Z" fill="#F7D5A0"/>
<path d="M307.141 70.4322C309.159 71.3674 315.509 71.1705 314.032 65.4118C312.801 60.539 310.242 62.9507 306.255 60.096C302.268 57.2904 302.219 54.4849 296.214 54.6325C287.158 54.8786 286.764 65.7071 282.383 70.1861C277.954 74.6651 257.035 86.7733 271.949 92.2368C293.999 100.309 284.5 74.3698 295.919 67.479C299.512 65.3133 304.532 69.2509 307.141 70.4322Z" fill="black"/>
</svg>
