<svg width="538" height="277" viewBox="0 0 538 277" fill="none" xmlns="http://www.w3.org/2000/svg">
<g clip-path="url(#clip0)">
<path d="M473.215 6.51123C411.956 -5.40749 379.454 47.8957 322.491 53.9654C265.529 60.0351 275.886 -2.86926 196.888 0.220784C117.891 3.20046 83.1845 51.9789 83.1845 51.9789C83.1845 51.9789 70.7343 2.42794 30.96 25.3825C-0.220409 43.4813 -14.9843 119.298 21.1542 153.288C21.1542 153.288 0.771192 225.132 65.6661 253.604C140.918 286.601 184.548 236.498 230.162 251.728C286.023 270.489 354.664 288.367 431.237 268.061C514.642 245.879 506.159 175.36 506.159 175.36C506.159 175.36 533.813 157.592 537.559 109.145C541.636 55.5104 515.413 14.6778 473.215 6.51123Z" fill="#979FEF"/>
<path d="M201.075 194.893L140.257 177.346L260.351 176.353L340.12 197.1L201.075 194.893Z" fill="#A1D5D9"/>
<path d="M36.469 115.325C33.2739 113.78 29.9685 112.345 26.553 111.131L26.8835 110.359C30.2991 111.573 33.6044 113.007 36.9097 114.552L36.469 115.325ZM16.1962 108.151C12.6705 107.379 9.14484 106.717 5.61914 106.386L5.72932 105.503C9.25502 105.834 12.8909 106.496 16.4166 107.269L16.1962 108.151Z" fill="white"/>
<path d="M67.2086 211.999C65.0051 211.889 62.6913 210.895 60.7081 209.35L61.259 208.688C63.132 210.123 65.2254 211.006 67.3188 211.226C68.5308 211.337 69.7427 211.116 70.9547 210.785L71.2852 211.557C69.8529 211.889 68.5308 211.999 67.2086 211.999ZM78.9977 203.943L78.2264 203.501C79.6588 200.742 80.6504 197.321 81.3114 193.348L82.1929 193.459C81.5318 197.542 80.43 201.073 78.9977 203.943ZM54.3178 200.411C52.9956 197.321 52.1142 193.79 51.6735 189.927L52.5549 189.817C52.9956 193.679 53.8771 197.101 55.089 200.08L54.3178 200.411ZM81.8623 182.754C81.7521 179.553 81.5318 176.243 80.9809 172.711C80.9809 172.491 80.8707 172.27 80.8707 172.159L81.7521 172.049C81.7521 172.27 81.8623 172.491 81.8623 172.711C82.303 176.243 82.6336 179.664 82.7437 182.864H81.8623V182.754ZM52.4447 179.112L51.5633 179.002C51.8939 175.47 52.5549 171.828 53.5465 168.297L54.428 168.518C53.4363 172.049 52.7753 175.581 52.4447 179.112ZM78.4468 161.565C77.345 158.144 76.0229 154.833 74.4804 151.633L75.2516 151.302C76.9043 154.502 78.2264 157.923 79.3282 161.344L78.4468 161.565ZM58.3944 158.696L57.6231 158.254C59.386 154.944 61.3692 151.964 63.6829 149.205L64.344 149.757C62.1404 152.516 60.1572 155.385 58.3944 158.696ZM69.0816 142.473C67.0984 139.604 64.7847 136.845 62.3608 134.196L63.0218 133.644C65.5559 136.293 67.7595 139.162 69.8529 142.032L69.0816 142.473ZM72.1666 142.694L71.7259 142.032C74.7007 139.935 78.0061 138.279 81.4216 137.176L81.7521 137.948C78.3366 139.052 75.1415 140.597 72.1666 142.694ZM123.179 142.694C119.764 141.149 116.458 139.824 113.153 138.831L113.373 137.948C116.679 139.052 120.094 140.376 123.399 141.921L123.179 142.694ZM92.1089 135.851L91.9987 134.969C94.2023 134.858 96.4058 134.858 98.7196 134.969C100.042 135.079 101.474 135.189 102.906 135.41L102.796 136.293C101.474 136.072 100.042 135.962 98.7196 135.851C96.4058 135.741 94.2023 135.631 92.1089 135.851ZM54.428 126.802C51.6735 124.595 48.8089 122.498 45.7239 120.512L46.1646 119.849C49.2496 121.836 52.2244 123.933 54.9788 126.25L54.428 126.802Z" fill="white"/>
<path d="M137.613 150.64C135.96 149.536 134.307 148.653 132.765 147.66L133.205 146.887C134.858 147.77 136.511 148.874 138.163 149.867L137.613 150.64Z" fill="white"/>
<path d="M402.921 159.468C401.489 156.268 400.938 154.171 400.938 154.061L401.82 153.84C401.82 153.84 402.371 155.937 403.693 159.027L402.921 159.468Z" fill="white"/>
<path d="M433.551 184.851C430.136 184.078 426.83 182.864 423.855 181.43L424.186 180.657C427.161 182.092 430.356 183.195 433.772 184.078L433.551 184.851ZM415.262 175.801C412.617 173.594 410.304 171.056 408.21 168.297L408.871 167.855C410.854 170.614 413.278 173.042 415.812 175.25L415.262 175.801Z" fill="white"/>
<path d="M480.267 172.049C480.597 170.945 480.707 169.842 480.597 168.849C480.377 166.421 479.055 164.214 476.961 162.558L476.521 163.22C478.394 164.655 479.605 166.641 479.826 168.849C479.936 169.842 479.826 170.835 479.495 171.828L480.267 172.049Z" fill="white"/>
<path d="M442.035 197.763C441.484 195.886 441.043 193.9 440.823 192.024C440.713 190.589 440.713 189.265 440.713 187.83L439.831 187.72C439.721 189.155 439.721 190.589 439.941 192.024C440.162 194.01 440.492 195.997 441.153 197.983L442.035 197.763Z" fill="white"/>
<path d="M449.307 170.173L448.756 169.511C446.111 172.049 444.128 174.808 442.586 177.788L443.357 178.119C444.789 175.36 446.772 172.601 449.307 170.173Z" fill="white"/>
<path d="M452.722 214.868L453.273 214.206C450.629 211.888 448.315 209.461 446.442 206.812L445.781 207.253C447.654 210.012 449.968 212.551 452.722 214.868Z" fill="white"/>
<path d="M454.044 185.844L453.934 184.961C453.714 184.961 453.493 185.071 453.273 185.071C450.078 185.402 446.772 185.513 443.798 185.402V186.285C446.883 186.396 450.078 186.285 453.383 185.954C453.603 185.954 453.824 185.844 454.044 185.844Z" fill="white"/>
<path d="M470.901 224.138C467.596 223.035 464.511 221.71 461.647 220.055L461.206 220.828C464.181 222.483 467.266 223.807 470.571 225.021L470.901 224.138Z" fill="white"/>
<path d="M488.089 227.559C485.555 227.339 483.131 227.118 480.707 226.677L480.597 227.559C482.911 228.001 485.225 228.222 487.649 228.442C487.759 228.111 487.979 227.78 488.089 227.559Z" fill="white"/>
<path d="M457.129 163.551L457.57 164.324C460.765 162.558 464.07 161.455 467.045 161.124L466.935 160.241C463.74 160.572 460.434 161.675 457.129 163.551Z" fill="white"/>
<path d="M464.181 184.078C467.927 183.085 471.122 181.65 473.656 179.995L473.215 179.333C470.681 180.988 467.596 182.312 463.96 183.306L464.181 184.078Z" fill="white"/>
<path d="M46.7156 82.6587C46.7156 82.6587 33.7146 77.5822 33.7146 87.2937C33.7146 99.1021 56.0808 100.206 67.5393 100.095C78.8876 100.095 135.96 104.399 154.47 92.5909C164.606 86.0798 149.291 60.2559 129.239 78.134C129.239 78.134 130.12 48.5578 103.788 34.763C69.9632 17.1057 67.4291 61.8009 67.4291 61.8009C67.4291 61.8009 57.8436 43.8124 48.809 56.2829C40.5456 67.7602 46.7156 82.6587 46.7156 82.6587Z" fill="#E6E7E8"/>
<path d="M79.1079 74.3817C72.387 58.3797 84.727 32.1144 90.6766 30.7901C69.1919 29.4658 67.3188 61.9112 67.3188 61.9112C74.811 97.7777 101.254 90.8251 101.254 90.8251C101.254 90.8251 86.1593 91.1562 79.1079 74.3817Z" fill="#D1D3D4"/>
<path d="M134.638 93.9152C134.638 93.9152 128.247 91.2666 131.553 84.0933C134.858 76.92 142.02 73.2782 149.071 73.3885C143.893 70.9606 136.952 71.2917 129.129 78.2443C129.129 78.2443 123.95 83.983 124.942 91.1563C125.934 98.2192 134.638 93.9152 134.638 93.9152Z" fill="#D1D3D4"/>
<path d="M52.665 78.465C47.5968 66.8774 52.8854 52.6411 54.4279 52.0894C52.5549 52.4204 50.5717 53.7447 48.6986 56.3933C40.5454 67.7603 46.7154 82.6587 46.7154 82.6587C55.75 95.3499 68.7511 90.8252 68.7511 90.8252C68.7511 90.8252 57.7332 89.9423 52.665 78.465Z" fill="#D1D3D4"/>
<path d="M413.168 78.465C413.168 78.465 398.735 70.0777 398.735 80.6721C398.735 88.3972 410.193 88.949 423.966 90.163C433.551 91.0458 488.75 93.253 500.429 85.7486C510.235 79.3478 505.938 57.2761 483.021 70.8502C481.699 71.6227 507.481 32.6661 467.045 25.3825C438.619 20.306 428.703 51.7582 428.703 51.7582C428.703 51.7582 410.634 41.1638 405.456 54.4068C401.379 64.4494 413.168 78.465 413.168 78.465Z" fill="#F1F2F2"/>
<path d="M442.696 44.8056C451.4 31.2315 473.876 27.1482 478.063 28.914C475.088 27.3689 471.342 26.155 466.825 25.3825C438.399 20.306 428.483 51.7582 428.483 51.7582C429.254 89.1698 456.799 80.6721 456.799 80.6721C440.052 79.4582 434.102 58.3797 442.696 44.8056Z" fill="#D1D3D4"/>
<path d="M482.911 70.9606C482.911 70.9606 477.292 74.7128 476.851 80.2307C476.52 85.6383 482.911 85.859 482.911 85.859C482.911 85.859 476.741 80.7825 484.123 74.7128C490.623 69.4156 500.429 70.0777 504.726 72.7263C502.853 66.8773 495.802 63.2355 482.911 70.9606Z" fill="#D1D3D4"/>
<path d="M413.939 70.7398C409.532 64.5597 408.871 49.4406 419.448 48.2267C414.16 47.0127 407.99 47.5645 405.235 54.4068C401.379 64.4494 413.168 78.4649 413.168 78.4649C422.093 84.7554 428.483 79.0167 428.483 79.0167C428.483 79.0167 421.542 81.4446 413.939 70.7398Z" fill="#D1D3D4"/>
<path d="M231.815 20.8578L336.594 28.8036L340.12 197.1L201.075 194.893L197.88 64.4494L231.815 20.8578Z" fill="#E7F2EA"/>
<path d="M231.815 20.8578L233.688 66.9877L197.77 64.4494L231.815 20.8578Z" fill="#E7F2EA"/>
<path d="M235.781 118.415L233.798 117.642C243.824 91.1562 255.944 74.3817 256.054 74.2714L257.817 75.4853C257.707 75.706 245.808 92.2598 235.781 118.415Z" fill="#E63950"/>
<path d="M259.58 100.978C245.697 88.9491 233.468 84.7555 233.357 84.6451L234.018 82.6587C234.569 82.8794 246.689 87.073 261.012 99.3228L259.58 100.978Z" fill="#E63950"/>
<path d="M308.168 103.185C293.294 81.9965 272.801 67.6499 272.581 67.5395L273.793 65.7738C274.013 65.8842 294.837 80.3412 309.931 101.971L308.168 103.185Z" fill="#E63950"/>
<path d="M279.963 113.559L277.759 113.449C277.869 112.676 279.191 93.9153 309.38 59.7041L311.033 61.1388C281.395 94.7981 279.963 113.338 279.963 113.559Z" fill="#E63950"/>
<path d="M227.738 165.648L225.645 165.207C225.755 164.876 227.518 156.82 233.688 148.101C239.417 139.935 249.994 129.782 268.284 127.133C287.565 124.374 299.905 130.996 306.956 137.065C314.999 143.908 319.517 153.178 320.618 159.247L318.525 159.579C317.533 153.95 313.236 145.232 305.634 138.721C298.913 132.982 287.014 126.581 268.614 129.34C251.096 131.879 240.96 141.7 235.451 149.426C229.501 157.702 227.738 165.648 227.738 165.648Z" fill="#E63950"/>
<path d="M195.125 39.1774C195.125 39.1774 205.813 32.887 205.813 38.9567C205.813 43.5918 192.701 44.0332 186.091 43.9228C179.48 43.9228 146.316 45.5782 135.519 40.9431C129.569 38.4049 138.494 28.2519 150.283 35.3148C150.283 35.3148 151.495 23.8375 165.708 18.7611C183.667 12.3603 186.421 28.3623 186.421 28.3623C186.421 28.3623 191.71 21.9615 197.109 26.8173C203.279 32.3352 195.125 39.1774 195.125 39.1774Z" fill="#F1F2F2"/>
<path d="M157.885 35.8666C155.572 31.3419 158.656 20.7475 172.539 17.3264C170.556 17.4368 168.352 17.8782 165.708 18.7611C151.495 23.8376 150.283 35.3148 150.283 35.3148C150.503 45.7989 171.547 37.9635 171.547 37.9635C171.547 37.9635 160.419 40.7224 157.885 35.8666Z" fill="#E6E7E8"/>
<path d="M190.608 38.0738C190.608 38.0738 185.76 35.3148 189.286 30.2383C192.812 25.1618 197.88 28.0312 199.312 30.2383C198.982 29.1347 198.431 28.0311 197.219 27.0379C191.82 22.1821 186.532 28.5829 186.532 28.5829C185.209 30.6798 184.328 36.0873 190.608 38.0738Z" fill="#E6E7E8"/>
<path d="M341.662 193.348C341.662 193.348 341.442 198.094 341.883 199.418C341.883 199.418 338.688 200.522 338.577 199.639C338.467 198.756 338.688 192.686 338.688 192.686L341.662 193.348Z" fill="#F7D5A0"/>
<path d="M341.002 189.486L343.866 190.92L341.993 194.452L338.247 192.576L341.002 189.486Z" fill="#3333CC"/>
<path d="M347.392 129.561C347.392 129.561 356.206 155.826 355.765 160.572C355.545 163.551 342.544 191.914 342.544 191.914L340.23 191.141L345.298 160.792C345.298 160.792 340.12 142.142 340.451 141.59C340.891 141.038 347.392 129.561 347.392 129.561Z" fill="#3333CC"/>
<path d="M337.035 198.756C337.035 198.756 338.357 199.97 341.883 199.528C341.883 199.528 350.807 202.067 351.909 202.398C352.901 202.729 353.341 204.053 353.011 204.715C352.57 205.377 339.349 205.377 336.043 202.618C336.043 202.508 335.933 200.301 337.035 198.756Z" fill="#F2411D"/>
<path d="M352.901 204.605C352.46 205.267 339.238 205.267 335.933 202.508C335.933 202.508 335.933 202.177 335.933 201.736C341.662 204.053 350.917 204.053 353.011 203.943C353.121 204.163 353.121 204.384 352.901 204.605Z" fill="white"/>
<path d="M336.264 191.693C336.374 192.355 336.925 196.549 335.272 199.308L335.713 202.618C335.713 202.618 338.357 201.515 338.467 201.515C338.578 201.515 340.23 200.08 340.23 200.08C340.23 200.08 339.679 196.107 340.34 191.141L336.264 191.693Z" fill="#F7D5A0"/>
<path d="M335.272 199.308C335.272 199.308 336.594 200.522 340.12 200.08C340.12 200.08 349.044 202.618 350.146 202.949C351.138 203.281 351.578 204.605 351.248 205.267C350.807 205.929 337.586 205.929 334.28 203.17C334.17 203.17 334.17 200.963 335.272 199.308Z" fill="#F26144"/>
<path d="M347.392 129.561C346.841 130.444 345.519 159.137 345.739 164.103C346.069 169.069 340.12 193.238 340.12 193.238L336.043 192.907C336.043 192.907 333.84 176.132 337.255 164.103C337.255 164.103 330.534 145.453 330.534 138.831L331.526 135.3L332.628 130.223L341.332 129.009L347.392 129.561Z" fill="#4141F4"/>
<path d="M359.511 106.275C359.291 106.055 358.63 105.724 357.969 106.165C357.308 106.606 358.299 107.931 359.401 107.931L359.511 106.275Z" fill="#F7D5A0"/>
<path d="M359.511 106.275C359.291 106.055 358.63 105.724 357.969 106.165C357.308 106.606 358.299 107.931 359.401 107.931L359.511 106.275Z" fill="#F7D5A0"/>
<path d="M363.147 108.262C363.147 108.151 364.139 102.413 363.808 102.192C363.478 102.082 360.282 101.53 359.621 101.751C358.96 101.861 358.74 109.145 358.74 109.145L362.045 108.814L363.147 108.262Z" fill="#031C3D"/>
<path d="M337.476 92.1494C337.586 92.2598 337.696 95.6809 336.484 97.6673L335.823 99.6538L337.806 101.64C337.916 101.751 340.781 102.413 340.781 102.413L342.764 100.537L342.874 99.4331C342.874 99.4331 341.993 97.4466 342.874 94.798L337.476 92.1494Z" fill="#F7D5A0"/>
<path d="M350.036 102.082C350.477 101.971 351.909 111.241 351.689 114.883L349.595 116.649L347.281 116.87L345.078 116.208C345.078 116.097 347.392 102.854 350.036 102.082Z" fill="#FF643B"/>
<path d="M361.935 112.676C362.045 113.338 355.104 125.919 347.832 127.795L344.858 126.581L345.078 122.939L346.29 120.732L348.494 118.084L351.799 118.525C351.799 118.525 358.41 113.78 359.291 112.235L360.393 111.352L361.935 112.676Z" fill="#F7D5A0"/>
<path d="M364.58 107.489C364.359 107.048 361.715 107.379 360.062 108.041C358.41 108.703 357.418 109.365 357.638 109.917C357.859 110.469 359.291 109.807 359.291 109.807C359.291 109.807 357.418 110.138 357.418 111.131C357.308 112.124 359.071 111.242 359.071 111.242C359.071 111.242 357.638 112.124 358.189 112.455C358.74 112.787 362.156 113.338 363.478 112.455C364.69 111.573 364.91 108.372 364.58 107.489Z" fill="#F7D5A0"/>
<path d="M341.332 102.854C341.332 102.854 342.434 110.579 341.662 113.449L339.569 113.669C339.569 113.669 339.899 106.938 339.018 104.068L340.781 102.413L341.332 102.854Z" fill="#78CEFF"/>
<path d="M351.909 118.635C351.909 118.635 352.46 114.111 352.24 114C352.019 113.89 348.053 114.111 346.29 115.545C345.959 117.311 345.959 119.077 346.29 120.843C346.29 120.843 350.366 118.856 351.909 118.635Z" fill="#C6381C"/>
<path d="M351.138 205.267C350.697 205.929 337.476 205.929 334.17 203.17C334.17 203.17 334.17 202.839 334.17 202.398C339.9 204.715 349.155 204.715 351.248 204.605C351.358 204.826 351.248 205.046 351.138 205.267Z" fill="white"/>
<path d="M342.544 97.4466C341.332 97.9984 339.349 98.5502 337.365 95.5705C337.696 93.9152 337.696 92.2598 337.586 92.1494L342.985 94.9084C342.654 95.9016 342.544 96.6741 342.544 97.4466Z" fill="#F7D5A0"/>
<path d="M349.705 82.7689C349.705 82.7689 351.689 88.3972 349.705 93.0323L347.832 92.7012C347.832 92.7012 345.078 101.42 337.476 92.1494L335.933 86.9626L341.662 82.7689H349.705Z" fill="#F7D5A0"/>
<path d="M350.587 87.2936C350.587 87.2936 353.782 84.7554 351.578 80.341C349.375 76.0371 341.112 76.3681 338.137 79.6789C338.137 79.6789 336.154 78.796 334.831 81.2239C333.509 83.6518 333.399 91.3769 337.476 92.039C337.476 92.039 337.366 89.0593 338.578 87.735L340.34 86.6315C340.34 86.6315 346.07 87.6247 349.816 83.3207C349.816 83.3207 350.477 85.5279 350.587 87.2936Z" fill="#031C3D"/>
<path d="M340.561 87.6248C340.561 87.4041 340.451 85.4176 338.688 85.8591C336.925 86.1902 338.027 90.3838 339.018 90.1631C340.12 89.9423 340.561 87.6248 340.561 87.6248Z" fill="#F7D5A0"/>
<path d="M338.467 192.134H338.247C338.357 190.92 339.349 186.396 340.561 181.098C342.213 173.704 344.307 164.545 343.976 163.662C343.536 162.117 341.993 132.872 341.883 131.658H342.103C342.103 131.989 343.756 162.117 344.197 163.662C344.417 164.545 342.434 173.373 340.781 181.209C339.679 186.396 338.578 190.92 338.467 192.134Z" fill="white"/>
<path d="M341.663 190.037L340.23 194.341C340.23 194.341 336.374 194.121 335.493 193.679L335.272 189.927L341.663 190.037Z" fill="#3333CC"/>
<path d="M326.127 100.978C326.127 100.978 317.093 108.703 315.33 119.408L319.406 118.525L322.381 118.746C322.381 118.746 326.788 112.455 327.229 111.683C327.229 111.573 329.543 104.951 326.127 100.978Z" fill="#FF643B"/>
<path d="M342.544 97.3363L350.036 101.971C350.036 101.971 345.959 113.228 346.29 119.629C346.621 126.03 348.604 129.34 348.273 129.671C347.943 130.002 336.594 134.969 330.755 133.534L329.102 130.996C329.102 130.996 329.212 123.602 329.433 123.16C329.543 122.719 326.678 113.007 326.458 111.131C326.238 109.145 326.238 100.868 326.238 100.868L336.264 97.557C336.264 97.557 337.145 101.64 341.001 102.413C340.891 102.523 343.425 99.9849 342.544 97.3363Z" fill="#FF643B"/>
<path d="M316.101 118.636C316.101 118.636 314.889 121.726 314.999 122.388C315.109 123.05 324.364 130.334 329.873 133.313C329.873 133.313 329.322 136.734 330.645 138.721C330.645 138.721 333.73 137.728 335.603 136.403C335.603 136.403 334.831 134.417 334.941 134.417C335.052 134.417 336.374 135.41 337.255 135.741C338.137 136.183 339.238 135.3 337.916 134.417C336.594 133.534 334.611 131.989 333.399 131.879C332.187 131.658 331.416 131.768 331.416 131.768C331.416 131.768 322.602 122.167 321.279 119.849L318.635 117.863L316.101 118.636Z" fill="#F7D5A0"/>
<path d="M325.136 116.097C325.136 116.097 318.855 113.89 315.33 114.883L314.669 120.401L321.5 120.291L325.136 116.097Z" fill="#C6381C"/>
<path d="M344.637 131.327C341.112 127.795 340.671 103.516 340.671 102.523H340.891C340.891 102.744 341.332 127.685 344.747 131.216L344.637 131.327Z" fill="white"/>
<path d="M337.255 96.012C337.255 96.012 333.95 97.8881 333.95 97.9984C333.95 98.1088 335.823 103.516 340.01 104.841L340.891 102.413C340.891 102.523 337.476 98.8813 337.255 96.012Z" fill="#C6381C"/>
<path d="M342.544 96.4535C342.544 96.4535 342.434 100.206 340.891 102.523L341.883 104.841C341.883 104.841 344.858 102.082 343.976 98.3296L342.544 96.4535Z" fill="#C6381C"/>
<path d="M339.128 108.814C339.018 108.814 338.908 108.814 338.798 108.703C338.577 108.593 338.577 108.262 338.688 107.931C338.798 107.71 339.018 107.379 339.239 107.379C339.349 107.379 339.349 107.379 339.459 107.489C339.9 107.82 339.9 108.151 339.789 108.372C339.679 108.593 339.349 108.814 339.128 108.814ZM339.239 107.6C339.128 107.6 338.908 107.71 338.908 107.931C338.908 108.041 338.798 108.262 339.018 108.372L339.128 108.482C339.349 108.482 339.569 108.372 339.569 108.151C339.679 108.041 339.569 107.82 339.239 107.6Z" fill="white"/>
<path d="M339.569 116.759C339.459 116.759 339.349 116.759 339.238 116.649C339.018 116.539 339.018 116.208 339.128 115.876C339.238 115.656 339.459 115.325 339.679 115.325C339.789 115.325 339.789 115.325 339.9 115.435C340.34 115.766 340.34 116.097 340.23 116.318C340.12 116.539 339.9 116.759 339.569 116.759ZM339.679 115.656C339.569 115.656 339.349 115.766 339.349 115.987C339.349 116.097 339.238 116.318 339.459 116.428L339.569 116.539C339.789 116.539 340.01 116.428 340.01 116.208C340.12 115.987 340.01 115.877 339.679 115.656C339.789 115.656 339.789 115.656 339.679 115.656Z" fill="white"/>
<path d="M340.781 125.478C340.671 125.478 340.561 125.478 340.451 125.367C340.23 125.257 340.23 124.926 340.34 124.595C340.451 124.374 340.671 124.043 340.891 124.043C341.001 124.043 341.002 124.043 341.112 124.153C341.552 124.484 341.552 124.816 341.442 125.036C341.442 125.257 341.112 125.478 340.781 125.478ZM340.891 124.374C340.781 124.374 340.561 124.484 340.561 124.705C340.561 124.816 340.451 125.036 340.671 125.147L340.781 125.257C341.002 125.257 341.222 125.147 341.222 124.926C341.332 124.705 341.222 124.595 340.891 124.374C340.891 124.374 341.001 124.374 340.891 124.374Z" fill="white"/>
<path d="M133.977 170.504C133.977 170.504 139.045 166.421 144.333 165.097C149.622 163.883 154.139 165.207 154.139 165.207L159.758 163.883C159.758 163.883 169.895 165.979 174.632 170.725V181.209C174.632 181.209 173.641 190.148 173.531 190.258C173.42 190.369 169.013 192.907 169.013 192.907L167.251 198.756L166.81 201.515L165.708 209.35L153.478 209.681L137.062 205.157L132.214 186.285L133.977 170.504Z" fill="#FF802C"/>
<path d="M135.629 207.143C135.409 207.033 125.823 202.067 119.323 205.929C112.712 209.902 115.797 218.731 115.797 218.731L126.595 220.055C126.595 220.055 140.477 219.834 141.358 219.503C142.24 219.172 145.766 211.999 145.766 211.999L137.943 207.364L135.629 207.143Z" fill="#4141F4"/>
<path d="M133.316 217.406C133.316 217.406 130.12 217.737 126.925 216.965L127.146 223.586L132.985 223.366L133.316 217.406Z" fill="#F7D5A0"/>
<path d="M115.356 211.889C115.356 211.889 110.398 217.296 115.026 224.469L128.578 223.476C128.578 223.476 126.815 221.269 127.807 217.075C127.696 217.186 120.865 210.344 115.356 211.889Z" fill="#F26144"/>
<path d="M118.772 211.889C116.568 213.654 113.924 217.406 116.458 224.359L114.916 224.469C110.398 217.296 115.246 211.889 115.246 211.889C116.458 211.557 117.67 211.668 118.772 211.889Z" fill="#F2411D"/>
<path d="M160.86 188.603C160.75 188.603 157.555 186.727 157.555 186.727C157.555 186.727 156.343 190.148 156.233 190.479C156.122 190.92 158.436 192.355 158.436 192.355L160.86 188.603Z" fill="#F7D5A0"/>
<path d="M156.343 195.776C156.233 196.107 148.63 196.218 148.41 196.107C148.079 195.997 146.537 179.664 146.757 179.553C147.088 179.443 156.343 178.891 156.783 179.222C157.114 179.333 156.453 194.673 156.343 195.776Z" fill="#133046"/>
<path d="M158.436 187.941C158.546 187.83 159.318 183.195 156.784 180.988L156.673 185.292C156.673 185.292 150.724 185.292 146.647 183.637C142.681 181.981 145.215 185.402 147.749 186.175C147.749 186.175 144.884 185.733 144.554 186.727C144.223 187.72 151.385 193.9 156.453 191.141L157.996 188.823L158.436 187.941Z" fill="#F7D5A0"/>
<path d="M159.097 163.331C159.097 163.331 160.86 164.655 160.419 166.752C159.979 168.849 156.012 176.132 151.054 177.236C151.054 177.236 142.02 170.504 144.444 164.434C146.868 158.475 150.283 161.234 150.283 161.234L159.097 163.331Z" fill="#F7D5A0"/>
<path d="M144.443 164.545C146.867 158.585 150.283 161.344 150.283 161.344L159.097 163.331C159.097 163.331 159.318 163.551 159.648 163.882C159.648 163.882 158.546 170.725 151.605 171.497C145.325 172.159 144.113 165.428 144.443 164.545Z" fill="#F7D5A0"/>
<path d="M159.648 149.536C159.648 149.536 165.377 166.752 152.266 169.069C139.155 171.497 143.562 149.536 143.562 149.536L153.588 147.549L159.648 149.536Z" fill="#F7D5A0"/>
<path d="M143.452 157.702C143.452 157.702 142.46 156.157 140.697 156.709C139.045 157.261 141.799 164.655 144.444 163.551C147.198 162.448 143.452 157.702 143.452 157.702Z" fill="#F7D5A0"/>
<path d="M158.436 150.639C158.436 150.639 153.147 159.799 142.791 157.04C132.434 154.281 138.053 147.88 138.053 147.88C138.053 147.88 139.155 149.205 139.926 149.205C140.807 149.205 144.884 139.493 154.029 140.707C163.174 141.921 160.419 144.79 160.419 144.79C160.419 144.79 162.292 144.239 164.055 146.667C165.708 149.094 165.928 155.937 162.292 157.923L160.75 156.268C160.97 156.378 160.419 153.619 158.436 150.639Z" fill="#133046"/>
<path d="M160.309 157.04C160.309 157.04 161.191 155.385 162.953 155.826C164.716 156.268 162.402 163.883 159.758 162.889C157.004 162.006 160.309 157.04 160.309 157.04Z" fill="#F7D5A0"/>
<path d="M131.112 216.744C131.112 216.744 130.561 221.49 131.442 223.918C131.442 223.918 163.725 226.677 176.505 222.152C189.396 217.627 191.159 211.999 186.421 207.805C181.574 203.722 163.174 202.508 131.112 216.744Z" fill="#3333CC"/>
<path d="M173.861 217.517C173.861 217.517 168.242 223.918 166.479 224.138L173.53 223.807L175.844 222.483L176.065 219.393L173.861 217.517Z" fill="#F7D5A0"/>
<path d="M185.76 211.337C185.76 211.337 191.049 216.413 187.083 223.807L173.42 223.918C173.42 223.918 174.963 221.6 173.751 217.517C173.861 217.517 180.251 210.233 185.76 211.337Z" fill="#F26144"/>
<path d="M182.345 211.557C184.769 213.102 187.633 216.634 185.65 223.807H187.193C191.159 216.303 185.87 211.337 185.87 211.337C184.658 211.116 183.447 211.226 182.345 211.557Z" fill="#F2411D"/>
<path d="M157.885 208.247C157.885 208.247 160.86 210.012 162.402 212.44C163.835 214.868 164.496 217.627 164.276 219.834C164.055 222.042 163.064 224.359 162.513 224.58C161.962 224.8 161.852 223.807 161.852 223.807C161.852 223.807 161.411 226.897 159.979 227.228C158.546 227.559 159.097 224.69 159.097 224.69C159.097 224.69 159.207 227.228 158.216 227.339C157.334 227.449 154.69 220.938 156.122 212.771C156.232 212.771 155.902 209.461 157.885 208.247Z" fill="#F7D5A0"/>
<path d="M162.403 214.316C162.403 214.316 165.157 216.855 166.589 217.075C166.589 217.075 166.149 219.172 162.843 217.517C159.428 215.861 162.403 214.316 162.403 214.316Z" fill="#F7D5A0"/>
<path d="M156.232 212.771L154.91 212.44L151.936 210.233L154.8 208.357L156.122 207.695L157.114 207.584L157.995 208.247L160.64 211.999L156.232 212.771Z" fill="#F7D5A0"/>
<path d="M157.885 207.364C157.885 207.364 155.131 208.688 155.461 212.882C155.461 212.882 129.019 213.544 122.518 202.729C116.018 192.024 131.883 172.38 133.977 170.504C133.977 170.504 142.571 188.382 139.155 196.769C139.155 196.769 156.673 206.481 157.885 207.364Z" fill="#FFAB3B"/>
<path d="M160.419 187.389C160.419 187.389 157.885 190.589 157.665 192.686C157.665 192.686 167.801 207.364 179.15 206.591C190.388 205.929 184.108 179.774 174.522 170.614C174.522 170.614 167.03 179.553 169.564 190.92C169.564 191.031 164.386 189.486 160.419 187.389Z" fill="#FFAB3B"/>
<path d="M177.167 223.035C177.167 222.924 177.938 220.165 176.726 217.627L176.395 217.848C177.607 220.165 176.836 222.924 176.836 222.924L177.167 223.035Z" fill="white"/>
<path d="M179.26 223.035C179.26 222.924 180.141 219.503 178.268 216.744L177.938 216.965C179.701 219.503 178.929 222.924 178.819 222.924L179.26 223.035Z" fill="white"/>
<path d="M126.154 222.814L126.485 222.704C125.493 219.282 126.374 217.627 126.374 217.627L126.044 217.406C126.044 217.517 125.162 219.172 126.154 222.814Z" fill="white"/>
<path d="M123.95 222.814L124.281 222.704C122.959 218.951 125.052 216.855 125.162 216.855L124.832 216.524C124.832 216.634 122.518 218.841 123.95 222.814Z" fill="white"/>
<path d="M155.351 212.109L155.461 211.778C155.131 211.668 127.807 205.598 125.823 199.308C123.84 193.017 135.409 174.036 135.519 173.815L135.189 173.594C134.748 174.367 123.289 193.017 125.383 199.418C127.586 205.819 154.139 211.778 155.351 212.109Z" fill="white"/>
<path d="M178.158 204.053C179.039 204.053 179.811 203.832 180.472 203.391C186.201 199.639 174.522 172.601 174.081 171.387L173.751 171.497C173.861 171.828 185.76 199.418 180.251 202.95C179.7 203.281 178.929 203.501 178.158 203.501C171.437 203.501 158.106 191.803 157.885 191.693L157.665 192.024C158.326 192.686 171.327 204.053 178.158 204.053Z" fill="white"/>
<path d="M387.056 98.5503C387.056 98.5503 383.53 99.9849 384.852 105.282L389.81 107.269C389.81 107.269 397.743 106.055 397.743 100.868C397.743 100.868 395.76 99.9849 394.768 97.1156C393.777 94.2463 390.692 95.6809 390.692 95.6809L387.056 98.5503Z" fill="#F7D5A0"/>
<path d="M387.056 98.5503L390.582 95.7913C390.582 95.7913 393.667 94.3566 394.658 97.2259C395.209 98.8813 396.201 99.8745 396.862 100.426C393.116 102.634 386.615 105.172 385.403 100.095C386.064 98.8813 387.056 98.5503 387.056 98.5503Z" fill="#F7D5A0"/>
<path d="M393.116 234.953L393.997 237.602L393.556 239.147L390.802 239.478L389.039 239.257L389.37 237.933L389.7 235.285L393.116 234.953Z" fill="#F7D5A0"/>
<path d="M393.997 237.712C393.997 237.712 396.972 243.12 396.09 248.196C396.09 248.196 380.005 250.624 372.292 247.314C372.292 247.314 371.08 244.775 372.182 243.451C373.284 242.016 383.861 240.582 389.37 238.154C389.37 238.043 389.59 240.251 393.997 237.712Z" fill="#1F6C96"/>
<path d="M393.997 237.712C393.997 237.712 396.972 243.12 396.09 248.196C396.09 248.196 380.005 250.624 372.292 247.314C372.292 247.314 371.08 244.775 372.182 243.451C373.284 242.016 383.861 240.582 389.37 238.154C389.37 238.043 389.59 240.251 393.997 237.712Z" fill="#F26144"/>
<path d="M403.142 238.154L401.71 230.76L399.616 232.967L398.514 238.595L398.625 241.023L402.04 240.913L403.142 238.154Z" fill="#F7D5A0"/>
<path d="M379.564 145.894C379.564 145.894 377.25 156.599 379.564 168.628C381.767 180.657 384.301 188.603 384.522 189.486C384.742 190.369 387.497 229.104 389.37 236.719C389.37 236.719 391.904 236.719 393.556 235.616C393.556 235.616 394.658 220.165 394.217 206.15C393.887 192.245 393.226 173.925 393.226 173.925L393.777 166.09L390.582 152.736L379.564 145.894Z" fill="#3333CC"/>
<path d="M379.013 90.9356C379.013 90.9356 366.342 89.1698 374.055 77.1407L382.759 81.6654L379.013 90.9356Z" fill="#133046"/>
<path d="M378.792 79.0168C376.258 82.1069 377.14 92.2599 379.454 95.681L381.877 95.5706C381.877 95.5706 385.624 105.724 395.87 98.44L399.836 91.4874L396.641 81.6654L387.827 80.0101L378.792 79.0168Z" fill="#F7D5A0"/>
<path d="M392.345 86.0798C392.345 86.0798 377.03 89.0595 374.055 77.2511C374.055 77.2511 380.776 77.1408 388.158 74.4922C395.54 71.8435 403.803 74.4922 404.244 86.742C404.684 97.9985 428.483 104.179 426.059 116.428C424.517 124.264 417.796 122.829 416.804 131.327C415.592 141.149 430.687 153.619 408.981 158.916L401.599 144.791L405.786 127.244L399.506 109.255L397.413 100.647C397.413 100.647 392.675 99.8746 393.667 90.2734L392.345 86.0798Z" fill="#133046"/>
<path d="M409.202 145.122C409.202 145.122 412.176 153.509 408.871 166.421C406.337 176.794 399.065 187.389 399.065 187.389C399.065 187.389 408.541 199.749 402.921 235.947C402.921 235.947 402.04 237.712 398.184 236.609C398.184 236.609 393.777 202.067 385.734 191.141C385.734 191.141 391.022 165.207 388.598 154.723C388.598 154.723 380.665 151.191 379.013 146.556C377.25 141.811 385.513 142.473 385.513 142.473L404.574 143.577L409.202 145.122Z" fill="#4141F4"/>
<path d="M391.463 87.6247C391.463 87.6247 391.793 84.8658 394.217 85.4176C396.751 85.9694 396.421 92.0391 393.226 92.3701L391.793 90.8251L391.463 87.6247Z" fill="#F7D5A0"/>
<path d="M376.699 141.259L373.945 138.279L377.25 135.079L378.792 137.396L377.14 140.487L376.699 141.259Z" fill="#F7D5A0"/>
<path d="M377.25 103.627C375.707 104.289 364.8 119.518 364.8 125.698C364.8 131.878 375.157 140.597 375.157 140.597C375.157 140.597 376.148 137.396 378.792 136.624C378.792 136.624 374.385 128.237 377.36 121.284L377.14 115.435L378.792 107.158L377.25 103.627Z" fill="#FF802C"/>
<path d="M406.447 136.183C406.447 136.183 408.871 144.349 409.202 145.011C409.202 145.011 394.768 151.522 381.327 144.57C381.327 144.57 380.225 141.7 380.225 141.149C380.225 140.597 383.64 134.858 380.335 123.602C380.335 123.602 376.589 122.388 375.377 119.518C375.377 119.518 377.911 108.593 377.25 103.627L384.852 100.868C384.852 100.868 383.2 104.179 388.819 104.399C394.548 104.51 397.523 100.978 397.523 100.978L408.761 106.055L408.1 117.532L406.447 136.183Z" fill="#FFAB3B"/>
<path d="M378.903 137.507C380.445 136.403 384.742 137.728 384.742 139.162C384.742 140.597 381.877 139.935 381.877 139.935C381.877 139.935 385.513 140.597 385.073 142.363C384.632 144.128 381.216 142.473 381.216 142.473C381.216 142.473 383.971 143.797 382.759 145.122C381.547 146.446 380.004 144.68 380.004 144.68C380.004 144.68 381.437 146.004 380.776 146.556C380.004 147.218 376.919 145.894 376.258 142.914C375.597 139.824 378.131 137.948 378.903 137.507Z" fill="#F7D5A0"/>
<path d="M380.776 134.858C380.445 133.203 382.428 131.658 383.31 133.092C384.191 134.417 381.106 137.176 380.776 134.858Z" fill="#F7D5A0"/>
<path d="M392.344 117.973L394.658 119.629L394.768 123.602L392.675 123.712C392.675 123.712 392.234 122.608 391.022 121.394C389.81 120.07 389.37 119.187 389.37 119.187L392.344 117.973Z" fill="#F7D5A0"/>
<path d="M408.761 105.944C409.532 105.724 412.948 112.235 412.287 120.401C411.736 128.568 409.863 142.032 402.261 140.376C394.658 138.721 391.904 123.491 391.904 123.491C391.904 123.491 393.887 121.284 393.777 118.636C393.777 118.636 397.633 121.063 399.396 123.491C399.396 123.381 400.277 107.82 408.761 105.944Z" fill="#FF802C"/>
<path d="M371.741 245.769C380.115 246.651 388.268 245.989 388.268 245.989L386.836 248.969C381.878 249.19 376.038 248.859 372.182 247.203C372.292 247.203 371.962 246.651 371.741 245.769Z" fill="#E6E7E8"/>
<path d="M403.142 238.154C403.142 238.154 406.117 243.561 405.235 248.638C405.235 248.638 389.149 251.066 381.437 247.755C381.437 247.755 380.225 245.217 381.327 243.892C382.428 242.458 393.006 241.023 398.514 238.595C398.404 238.485 398.625 240.692 403.142 238.154Z" fill="#F26144"/>
<path d="M380.776 246.21C389.259 248.307 400.387 246.982 405.235 246.21C405.235 246.982 405.235 247.755 405.015 248.528C405.015 248.528 388.929 250.955 381.216 247.645C381.327 247.645 380.996 246.982 380.776 246.21Z" fill="white"/>
<path d="M386.064 110.469C386.064 110.469 384.632 106.055 384.301 105.724C383.971 105.503 376.479 105.834 376.479 105.944C376.479 106.165 378.903 112.676 378.903 112.676C378.903 112.676 383.089 123.491 383.31 123.602C383.53 123.712 390.582 125.036 390.802 124.705C391.022 124.374 388.378 116.87 388.378 116.87L386.064 110.469Z" fill="#0E3144"/>
<path d="M392.345 117.973C392.345 117.973 391.573 109.034 388.598 109.696C387.276 110.028 389.48 114.331 389.48 114.331C389.48 114.331 385.183 112.014 380.996 111.573C376.809 111.241 376.259 113.118 378.242 113.449C380.115 113.78 381.437 114.331 381.437 114.331C381.437 114.331 378.242 114.221 377.691 114.994C377.14 115.766 379.123 116.539 379.894 117.753C380.666 118.967 380.445 120.07 381.657 120.291C382.869 120.512 391.243 121.063 391.243 121.063L392.345 117.973Z" fill="#F7D5A0"/>
<path d="M401.159 237.05C401.269 237.05 401.269 236.94 401.379 236.94C404.574 220.165 395.319 189.817 394.768 187.941C407.218 169.069 405.676 146.667 405.676 146.446C405.676 146.336 405.566 146.336 405.456 146.336C405.345 146.336 405.235 146.446 405.345 146.556C405.345 146.777 406.888 169.18 394.438 187.941L394.328 188.051V188.161C394.438 188.493 404.244 219.945 401.048 237.05C400.938 236.94 401.049 237.05 401.159 237.05C401.159 237.05 401.049 237.05 401.159 237.05Z" fill="white"/>
<path d="M405.015 156.82C405.125 156.82 405.125 156.709 405.125 156.709C405.125 156.599 405.125 156.488 405.015 156.488C396.201 153.84 397.743 148.101 397.743 147.88C397.743 147.77 397.743 147.66 397.633 147.66C397.523 147.66 397.413 147.66 397.413 147.77C397.523 147.77 395.76 154.061 405.015 156.82Z" fill="white"/>
<path d="M398.625 241.685C398.735 241.575 398.735 241.465 398.735 241.465C398.625 241.354 396.531 239.809 393.997 239.92C393.887 239.92 393.887 240.03 393.887 240.03L393.997 240.14C396.421 240.03 398.514 241.575 398.625 241.685C398.625 241.685 398.514 241.685 398.625 241.685Z" fill="white"/>
<path d="M396.531 242.127C396.531 242.127 396.641 242.127 396.531 242.127C396.641 242.016 396.641 241.906 396.641 241.906C396.641 241.906 394.548 240.582 392.124 240.471C392.014 240.471 392.014 240.471 392.014 240.582C392.014 240.692 392.014 240.692 392.124 240.692C394.328 240.913 396.421 242.127 396.531 242.127Z" fill="white"/>
<path d="M394.328 242.237C394.438 242.237 394.438 242.237 394.438 242.127C394.438 242.016 394.438 242.016 394.328 242.016C394.328 242.016 392.124 241.134 390.141 240.913C390.031 240.913 390.031 240.913 390.031 241.023C390.031 241.134 390.031 241.134 390.141 241.134C392.014 241.354 394.218 242.237 394.328 242.237C394.218 242.237 394.218 242.237 394.328 242.237Z" fill="white"/>
<path d="M388.488 240.361C388.598 240.361 388.598 240.361 388.598 240.251C388.598 240.14 388.598 240.14 388.488 240.14C388.378 240.14 386.836 239.478 385.183 239.368C385.073 239.368 385.073 239.478 385.073 239.478L385.183 239.588C386.946 239.699 388.488 240.361 388.488 240.361Z" fill="white"/>
<path d="M386.615 240.913C386.725 240.913 386.725 240.913 386.725 240.802C386.725 240.692 386.725 240.692 386.615 240.692C386.615 240.692 384.301 240.14 382.979 239.92C382.869 239.92 382.869 239.92 382.869 240.03C382.869 240.14 382.869 240.14 382.979 240.14C384.301 240.251 386.615 240.913 386.615 240.913Z" fill="white"/>
<path d="M384.301 241.354C384.412 241.354 384.411 241.354 384.411 241.244C384.411 241.134 384.412 241.134 384.301 241.134C384.301 241.134 382.428 240.582 381.216 240.361C381.106 240.361 381.106 240.361 381.106 240.471C381.106 240.582 381.106 240.582 381.216 240.582C382.318 240.913 384.191 241.354 384.301 241.354C384.301 241.354 384.191 241.354 384.301 241.354Z" fill="white"/>
</g>
<defs>
<clipPath id="clip0">
<rect width="538" height="277" fill="white"/>
</clipPath>
</defs>
</svg>
