<?xml version="1.0" encoding="utf-8"?>
<!-- Generator: Adobe Illustrator 18.0.0, SVG Export Plug-In . SVG Version: 6.00 Build 0)  -->
<!DOCTYPE svg PUBLIC "-//W3C//DTD SVG 1.1//EN" "http://www.w3.org/Graphics/SVG/1.1/DTD/svg11.dtd">
<svg version="1.1" id="Layer_1" xmlns="http://www.w3.org/2000/svg" xmlns:xlink="http://www.w3.org/1999/xlink" x="0px" y="0px"
	 viewBox="0 0 327 86" enable-background="new 0 0 327 86" xml:space="preserve">
<g id="Page-1_9_">
	<g id="Desktop-HD_9_" transform="translate(-50.000000, -31.000000)">
		<g id="logo-dark_7_" transform="translate(50.000000, 31.000000)">
			<path id="Path_39_" fill="#1A2B35" d="M0,29h16.2v6.6c2.3-2.8,4.7-4.7,7-5.9c2.4-1.2,5.2-1.7,8.6-1.7c3.6,0,6.5,0.6,8.6,1.9
				c2.1,1.3,3.8,3.2,5.1,5.7c2.7-3,5.2-5,7.4-6c2.2-1.1,5-1.6,8.3-1.6c4.9,0,8.6,1.4,11.4,4.3c2.7,2.9,4.1,7.4,4.1,13.5v28.4H59.3
				V48.5c0-2-0.4-3.6-1.2-4.6c-1.2-1.6-2.6-2.3-4.3-2.3c-2,0-3.7,0.7-4.9,2.2c-1.2,1.5-1.9,3.8-1.9,7.1v23.3H29.6V49.3
				c0-2-0.1-3.3-0.3-4c-0.4-1.1-1-2-1.9-2.7c-0.9-0.7-2-1-3.2-1c-2,0-3.6,0.8-4.9,2.3c-1.3,1.5-1.9,4-1.9,7.4v23.1H0V29z"/>
			<path id="Combined-Shape_19_" fill="#1A2B35" d="M81.5,51.7c0-6.9,2.3-12.6,7-17c4.7-4.5,10.9-6.7,18.9-6.7
				c9,0,15.9,2.6,20.5,7.9c3.7,4.2,5.6,9.4,5.6,15.6c0,7-2.3,12.6-6.9,17.1c-4.6,4.4-11,6.7-19.1,6.7c-7.3,0-13.1-1.8-17.6-5.5
				C84.3,65.1,81.5,59.1,81.5,51.7z M98.9,51.7c0,4,0.8,7,2.4,8.9c1.6,1.9,3.7,2.9,6.1,2.9c2.5,0,4.5-1,6.1-2.9
				c1.6-1.9,2.4-5,2.4-9.1c0-3.9-0.8-6.8-2.4-8.7c-1.6-1.9-3.6-2.9-6-2.9c-2.5,0-4.6,1-6.3,2.9C99.7,44.8,98.9,47.7,98.9,51.7z"/>
			<path id="Path_38_" fill="#1A2B35" d="M138.4,29h16.1v7.4c2.4-3,4.9-5.2,7.3-6.4c2.5-1.3,5.5-1.9,9-1.9c4.8,0,8.5,1.4,11.3,4.3
				c2.7,2.9,4.1,7.3,4.1,13.2v28.7h-17.4V49.4c0-2.8-0.5-4.8-1.6-6c-1-1.2-2.5-1.8-4.4-1.8c-2.1,0-3.8,0.8-5.1,2.4
				c-1.3,1.6-2,4.4-2,8.6v21.7h-17.3V29z"/>
			<path id="Path_37_" fill="#00AA80" d="M212.4,29h8.3v12.7h-8.3v32.5H195V41.7h-6.5V29h6.5v-2c0-1.8,0.2-3.9,0.6-6.1
				c0.4-2.2,1.1-4,2.2-5.4c1.1-1.4,2.6-2.5,4.6-3.4c2-0.9,4.9-1.3,8.7-1.3c3,0,7.4,0.4,13.2,1.1l-1.9,10.5c-2.1-0.3-3.7-0.5-5-0.5
				c-1.6,0-2.7,0.3-3.4,0.8c-0.7,0.5-1.2,1.4-1.4,2.5C212.4,25.7,212.4,27,212.4,29z"/>
			<path id="Combined-Shape_18_" fill="#00AA80" d="M272.3,55.9h-34.7c0.3,2.8,1.1,4.9,2.3,6.2c1.7,2,3.9,2.9,6.6,2.9
				c1.7,0,3.3-0.4,4.9-1.3c0.9-0.5,1.9-1.5,3-2.9l17.1,1.6c-2.6,4.5-5.8,7.8-9.4,9.8c-3.7,2-9,3-15.9,3c-6,0-10.7-0.8-14.1-2.5
				c-3.4-1.7-6.3-4.4-8.5-8c-2.3-3.7-3.4-8-3.4-13c0-7.1,2.3-12.8,6.8-17.1s10.8-6.6,18.7-6.6c6.5,0,11.6,1,15.3,2.9
				c3.7,2,6.6,4.8,8.6,8.5c2,3.7,2.9,8.6,2.9,14.5V55.9z M254.7,47.6c-0.3-3.3-1.2-5.7-2.7-7.2s-3.4-2.2-5.8-2.2
				c-2.8,0-5,1.1-6.6,3.3c-1,1.4-1.7,3.4-2,6.1H254.7z"/>
			<polygon id="Path_36_" fill="#00AA80" points="270.7,29 291.3,29 298.4,41.6 306.8,29 325.9,29 310.5,50.6 327,74.2 306.8,74.2 
				298.4,59.7 288.6,74.2 269.9,74.2 286.3,50.6 			"/>
		</g>
	</g>
</g>
</svg>
