<svg width="350" height="202" viewBox="0 0 350 202" fill="none" xmlns="http://www.w3.org/2000/svg">
<path d="M40.1006 85C40.1006 85 28.4006 86 28.5006 95.3C28.5006 102.1 41.3006 102.4 56.6006 103.3C67.2006 103.9 128.401 105 141.201 98.2C152.001 92.5 150.701 76.9 122.501 76C120.801 76 138.001 50.3 92.9006 44.4C61.4006 40.3 57.7006 62 57.7006 62C57.7006 62 41.0006 60.3 35.4006 72.1C31.2006 81 40.1006 85 40.1006 85Z" fill="#F1F2F2"/>
<path d="M62.2996 46.5C62.2996 46.5 59.0996 46.9 59.0996 51C59.0996 54 62.5996 54.1 66.8996 54.5C69.7996 54.8 86.6996 55.4 90.1996 52.5C93.1996 50 92.7996 43.2 84.9996 42.8C84.4996 42.8 89.1996 31.6 76.7996 29C68.0996 27.1 67.1996 36.6 67.1996 36.6C67.1996 36.6 62.5996 35.8 61.0996 40.9C59.8996 44.8 62.2996 46.5 62.2996 46.5Z" fill="#D1D3D4"/>
<path d="M139.801 90.4C136.101 90.4 133.401 89.3 131.701 87.2C125.801 79.8 135.101 62.1 135.501 61.4L136.701 62C136.601 62.2 127.401 79.6 132.801 86.4C135.101 89.3 140.001 89.9 147.201 88L147.501 89.2C144.601 90 142.001 90.4 139.801 90.4Z" fill="#3333CC"/>
<path d="M131.099 51.8C132.299 53.5 138.399 53.9 140.199 52.2C141.999 50.6 140.099 48.5 143.099 43.6C146.099 38.7 149.199 39.6 149.399 29.7C149.599 20.4 141.599 17 135.099 17C130.799 17 121.299 20.1 121.199 31.1C121.199 37.1 126.199 40 129.199 43.7C132.099 47.4 129.699 49.8 131.099 51.8Z" fill="#FFD83B"/>
<path d="M130.699 52.9C130.699 53.1 136.899 54.8 140.799 53.1C140.799 53.1 141.799 61.7 138.299 62.5C134.799 63.3 131.499 62.6 131.099 60.9C130.799 59.3 130.699 52.9 130.699 52.9Z" fill="#D1D3D4"/>
<path d="M141.301 32.3C140.301 32.7 139.301 35.4 138.501 37.9C137.401 37.8 136.601 37.3 136.101 36.5C139.001 33.4 139.401 27.9 138.501 25.4C138.101 24 137.401 23.9 137.001 24C135.201 24.2 133.901 28.5 134.101 32.2C134.201 33.9 134.501 35.3 135.101 36.4C134.801 36.7 134.401 36.9 134.001 37.2C133.901 37.2 133.801 37.3 133.801 37.3C133.401 33.5 132.801 30.2 131.601 29.1C131.201 28.7 130.801 28.6 130.301 28.7C129.601 28.8 129.101 29.3 128.801 30.1C128.201 32.2 129.601 36.1 131.501 37.5C132.001 37.9 132.501 38.1 133.001 38.1C133.401 43.4 133.401 49.7 133.201 53C133.301 53 133.501 53.1 133.601 53.1H134.001C134.001 52.6 134.301 44.7 133.801 38.1C134.001 38.1 134.201 38 134.401 37.9C134.801 37.7 135.201 37.4 135.501 37.1C136.201 38 137.101 38.6 138.301 38.7C138.101 39.3 138.001 39.9 137.901 40.4C137.401 42.7 136.201 48.6 137.001 53.3C137.301 53.3 137.501 53.3 137.801 53.2C137.201 50 137.601 45.4 138.701 40.6C138.901 39.9 139.001 39.2 139.201 38.6C140.601 38.2 141.601 36.4 141.901 35.7C142.401 34.6 142.901 33 142.301 32.4C142.101 32.3 141.801 32.1 141.301 32.3ZM132.101 36.8C130.501 35.5 129.101 32 129.601 30.2C129.801 29.5 130.201 29.4 130.401 29.4H130.501C130.701 29.4 130.901 29.5 131.001 29.6C132.001 30.5 132.601 33.6 133.001 37.2C132.701 37.2 132.401 37.1 132.101 36.8ZM135.701 35.8C135.101 34.6 135.001 33.1 134.901 32.2C134.801 28.5 136.101 24.9 137.101 24.8C137.301 24.8 137.501 25.1 137.701 25.7C138.601 27.9 138.301 32.9 135.701 35.8ZM140.901 35.7C140.501 36.4 140.001 37.1 139.401 37.6C140.201 34.8 141.101 33.3 141.501 33.1C141.501 33.1 141.501 33.1 141.601 33.1C141.801 33.3 141.601 34.3 140.901 35.7Z" fill="white"/>
<path d="M136.8 57.6C132.3 57.6 129.5 56.2 129.3 56.1C129.1 56 129 55.8 129.1 55.6C129.2 55.4 129.4 55.3 129.6 55.4C129.6 55.4 134.3 57.8 141 56.4C141.2 56.4 141.4 56.5 141.5 56.7C141.5 56.9 141.4 57.1 141.2 57.2C139.7 57.5 138.2 57.6 136.8 57.6Z" fill="#3333CC"/>
<path d="M137.199 60.5C132.899 60.5 130.099 59.6 129.999 59.6C129.799 59.5 129.699 59.3 129.699 59.1C129.799 58.9 129.999 58.8 130.199 58.8C130.199 58.8 134.799 60.2 141.099 59.5C141.299 59.5 141.499 59.6 141.499 59.9C141.499 60.1 141.399 60.3 141.099 60.3C139.799 60.4 138.499 60.5 137.199 60.5Z" fill="#3333CC"/>
<path d="M204.301 91.1C204.301 91.1 191.301 92.5 191.401 105.5C191.501 115 205.701 115.4 222.601 116.8C234.301 117.7 302.101 119.5 316.301 110C328.301 102 326.701 80.2 295.501 78.9C293.701 78.8 312.501 42.9 262.601 34.6C227.701 28.8 223.701 59.1 223.701 59.1C223.701 59.1 205.101 56.7 199.001 73.2C194.501 85.5 204.301 91.1 204.301 91.1Z" fill="#F1F2F2"/>
<path d="M177.7 196.7C266.9 196.7 339.3 187.9 339.3 177.1C339.3 166.3 267 157.5 177.7 157.5C88.4996 157.5 16.0996 166.3 16.0996 177.1C16.1996 188 88.4996 196.7 177.7 196.7Z" fill="#F1F2F2"/>
<path d="M0.599775 74C2.19977 74.1 3.69977 74 5.29977 73.8C6.09977 73.7 5.69977 72.6 4.99977 72.7C3.59977 72.9 2.09977 73 0.699766 72.9C-0.200234 72.7 -0.200225 73.9 0.599775 74Z" fill="#3333CC"/>
<path d="M12.3004 124.4C11.1004 123.4 9.90041 122.4 9.30041 120.9C9.00041 120.1 9.00041 119.2 9.40041 118.5C9.70041 117.9 10.3004 117.6 10.6004 117C11.2004 116.1 11.0004 115 10.3004 114.2C9.30041 113.1 7.80041 113 6.80041 111.9C6.30041 111.3 5.40041 112.2 5.90041 112.8C6.80041 113.9 8.40041 114 9.30041 115.1C10.1004 116.1 9.10041 116.7 8.50041 117.5C8.20041 117.9 7.90041 118.4 7.80041 118.9C7.20041 121.6 9.40041 123.8 11.3004 125.4C12.0004 125.9 12.9004 125 12.3004 124.4Z" fill="#3333CC"/>
<path d="M33.7996 37.5C31.4996 37.5 29.0996 35.8 29.0996 32.6C29.0996 31.2 29.5996 30 30.4996 29.1C31.3996 28.2 32.5996 27.7 33.7996 27.7C35.1996 27.7 36.4996 28.2 37.3996 29.2C38.2996 30.2 38.7996 31.5 38.6996 33C38.4996 36.1 36.0996 37.5 33.7996 37.5ZM33.7996 28.9C32.8996 28.9 31.9996 29.3 31.2996 29.9C30.5996 30.6 30.2996 31.5 30.2996 32.6C30.2996 35.3 32.3996 36.3 33.7996 36.3V36.9V36.3C35.3996 36.3 37.2996 35.4 37.4996 32.8C37.5996 31.7 37.2996 30.7 36.4996 29.9C35.8996 29.3 34.8996 28.9 33.7996 28.9Z" fill="#3333CC"/>
<path d="M34.2996 29.9C34.2996 27.7 34.2996 25.6 34.2996 23.4C34.2996 22.6 33.0996 22.6 33.0996 23.4C33.0996 25.6 33.0996 27.7 33.0996 29.9C33.1996 30.7 34.2996 30.7 34.2996 29.9Z" fill="#3333CC"/>
<path d="M36.3004 33C38.7004 32.8 41.2004 32.7 43.7004 32.7C44.5004 32.7 44.5004 31.5 43.7004 31.5C41.3004 31.5 38.8004 31.6 36.3004 31.8C35.6004 31.8 35.6004 33 36.3004 33Z" fill="#3333CC"/>
<path d="M33.3 35.7C32.6 38.6 32.5 41.5 32.9 44.4C33 45.2 34.1 44.8 34 44.1C33.6 41.4 33.7 38.7 34.4 36.1C34.7 35.3 33.5 34.9 33.3 35.7Z" fill="#3333CC"/>
<path d="M31.0996 32.2C28.7996 32.1 26.4996 32.1 24.1996 32.4C23.3996 32.5 23.3996 33.7 24.1996 33.6C26.4996 33.4 28.7996 33.3 31.0996 33.4C31.8996 33.4 31.7996 32.2 31.0996 32.2Z" fill="#3333CC"/>
<path d="M343.701 139.4C344.701 142 345.901 144.5 347.601 146.8C347.801 146.5 348.001 146.2 348.201 146C346.101 145.1 344.001 144.2 342.001 143.3C341.301 143 340.801 144 341.401 144.3C343.601 145.3 345.701 146.2 347.901 147.1C348.301 147.3 348.801 146.7 348.501 146.3C347.001 144.1 345.701 141.7 344.801 139.1C344.501 138.4 343.401 138.8 343.701 139.4Z" fill="#3333CC"/>
<path d="M93.3996 8.40002C90.5996 8.90002 87.9996 9.80002 85.3996 11C85.6996 11.3 85.8996 11.5 86.1996 11.8C87.3996 9.80001 88.6996 7.90002 89.9996 6.00002C90.3996 5.40002 89.3996 4.80002 88.9996 5.40002C87.6996 7.30002 86.3996 9.30003 85.1996 11.2C84.8996 11.7 85.4996 12.2 85.9996 12C88.3996 10.8 90.9996 10 93.6996 9.50002C94.3996 9.40002 94.0996 8.30002 93.3996 8.40002Z" fill="#3333CC"/>
<path d="M215.6 19.9C217.8 20.5 220 21.3 222.1 22.2C222.8 22.5 223.3 21.5 222.7 21.2C220.5 20.2 218.2 19.3999 215.9 18.7999C215.1 18.5999 214.9 19.7 215.6 19.9Z" fill="#3333CC"/>
<path d="M219.899 17.3C218.799 19.5 217.699 21.8 216.599 24C216.299 24.6 217.199 25.2 217.599 24.6C218.699 22.4 219.799 20.1 220.899 17.9C221.199 17.3 220.199 16.7 219.899 17.3Z" fill="#3333CC"/>
<path d="M348.099 68.8C346.299 67.6 343.599 68.3 342.699 70.4C341.799 72.6 341.799 75.8 344.599 76.4C347.099 77 348.999 74.9 349.699 72.8C350.099 71.6 350.199 70.2 349.199 69.3C348.099 68.3 346.499 68.3 345.199 67.7C344.499 67.4 343.999 68.4 344.599 68.7C346.199 69.4 349.299 69.3 348.899 71.8C348.599 73.4 347.499 75.2 345.799 75.4C341.599 75.8 343.599 67.1 347.699 69.8C348.099 70.2 348.699 69.2 348.099 68.8Z" fill="#3333CC"/>
<path d="M129.401 10.1C128.201 8.7 126.901 7.19998 125.701 5.79998C125.201 5.19998 124.301 6.1 124.801 6.7C126.001 8.1 127.301 9.59999 128.501 11C129.001 11.5 129.901 10.7 129.401 10.1Z" fill="#3333CC"/>
<path d="M136.6 9.99999C136.3 6.89999 136.1 3.7 135.8 0.6C135.7 -0.2 134.5 -0.2 134.6 0.6C134.9 3.7 135.1 6.89999 135.4 9.99999C135.4 10.8 136.6 10.8 136.6 9.99999Z" fill="#3333CC"/>
<path d="M142.7 10.6C144.3 8.6 145.7 6.4 146.8 4.1C147.1 3.4 146.1 2.7 145.7 3.5C144.7 5.8 143.4 7.89998 141.8 9.79998C141.4 10.3 142.2 11.2 142.7 10.6Z" fill="#3333CC"/>
<path d="M326.9 37.2C326.9 37.2 322.5 37.5 317.6 40.1C317.6 40.1 308.1 35.8 303.9 36.3C303.9 36.3 311.9 40.4 317.4 45.2C317.4 45.2 322 40 326.9 37.2Z" fill="#3333CC"/>
<path d="M309.6 55.8C309.6 55.8 305.9 56.1 301.8 58.3C301.8 58.3 293.9 54.8 290.4 55.1C290.4 55.1 297.1 58.6 301.6 62.5C301.6 62.4 305.5 58.1 309.6 55.8Z" fill="#3333CC"/>
<path d="M294.9 61.1C294.9 61.1 292.2 61.3 289.3 62.9C289.3 62.9 283.6 60.3 281 60.6C281 60.6 285.8 63.1 289.2 66C289.1 66 291.9 62.8 294.9 61.1Z" fill="#3333CC"/>
<path d="M321.201 61.3C321.201 61.3 319.301 61.4 317.201 62.6C317.201 62.6 313.101 60.8 311.301 60.9C311.301 60.9 314.801 62.7 317.101 64.7C317.101 64.8 319.101 62.5 321.201 61.3Z" fill="#3333CC"/>
<path d="M292.3 47.4C292.3 47.4 290.4 47.5 288.3 48.7C288.3 48.7 284.2 46.9 282.4 47C282.4 47 285.9 48.8 288.2 50.8C288.2 50.8 290.2 48.6 292.3 47.4Z" fill="#3333CC"/>
<path d="M103.199 139.6C103.799 130.6 115.699 69.7 115.699 69.7L101.699 68.2C98.1992 75.3 89.6992 137 89.6992 137C92.1992 137.5 103.199 139.6 103.199 139.6ZM108.699 74.1C108.499 75.6 107.299 76.2 106.399 76.1C105.399 76 104.399 75.3 104.499 73.8C104.499 72.5 105.499 71.5 106.899 71.7C107.799 71.9 108.799 72.7 108.699 74.1Z" fill="#FFAB3B"/>
<path d="M113.599 80.8C113.599 80.8 113.499 80.8 113.599 80.8C113.499 80.8 110.099 80.2 108.099 80.2C107.899 80.2 107.699 80 107.699 79.8C107.699 79.6 107.899 79.4 108.099 79.4C110.099 79.4 113.499 80 113.699 80C113.899 80 114.099 80.2 113.999 80.4C113.899 80.7 113.799 80.8 113.599 80.8Z" fill="#3333CC"/>
<path d="M112.7 85.6999C112.6 85.6999 112.6 85.6999 112.7 85.6999C110.9 85.2999 107.3 84.4999 106.6 84.3999C106.4 84.3999 106.2 84.1999 106.3 83.9999C106.3 83.7999 106.5 83.5999 106.7 83.6999C107.6 83.7999 112.6 84.9999 112.8 84.9999C113 84.9999 113.1 85.1999 113.1 85.4999C113 85.4999 112.8 85.6999 112.7 85.6999Z" fill="#3333CC"/>
<path d="M111.699 90.8C111.699 90.8 111.599 90.8 111.699 90.8L105.999 89.7C105.799 89.7 105.699 89.5 105.699 89.3C105.699 89.1 105.899 89 106.099 89L111.699 90.1C111.899 90.1 111.999 90.3 111.999 90.5C111.999 90.7 111.899 90.8 111.699 90.8Z" fill="#3333CC"/>
<path d="M110.5 96.4999C110.5 96.4999 107.4 95.8999 105.4 95.3999C105.2 95.3999 105.1 95.1999 105.1 94.9999C105.1 94.7999 105.3 94.7 105.5 94.7C107.5 95.1 110.6 95.7999 110.6 95.7999L110.5 96.4999Z" fill="#3333CC"/>
<path d="M109.5 102.6C109.5 102.6 109.4 102.6 109.5 102.6C109 102.5 105.6 102 104.7 101.5C104.5 101.4 104.4 101.2 104.5 101C104.6 100.8 104.8 100.7 105 100.8C105.7 101.1 108.5 101.6 109.5 101.8C109.7 101.8 109.9 102 109.8 102.2C109.8 102.5 109.7 102.6 109.5 102.6Z" fill="#3333CC"/>
<path d="M108.7 106.8H108.6L103.2 105.3C103 105.2 102.9 105 102.9 104.8C103 104.6 103.2 104.5 103.4 104.5L108.8 106C109 106.1 109.1 106.3 109.1 106.5C109 106.7 108.9 106.8 108.7 106.8Z" fill="#3333CC"/>
<path d="M107.801 111.7C106.601 111.5 103.501 111.1 102.701 111.2C102.501 111.2 102.301 111.1 102.301 110.8C102.301 110.6 102.401 110.4 102.701 110.4C103.701 110.3 107.701 110.9 107.901 110.9C108.101 110.9 108.301 111.1 108.201 111.3C108.201 111.6 108.001 111.7 107.801 111.7Z" fill="#3333CC"/>
<path d="M106.901 116.9C106.801 116.9 106.801 116.9 106.901 116.9C106.601 116.9 102.601 116 101.601 115.6C101.401 115.5 101.301 115.3 101.401 115.1C101.501 114.9 101.701 114.8 101.901 114.9C102.901 115.3 107.001 116.2 107.001 116.2C107.201 116.2 107.301 116.4 107.301 116.6C107.201 116.8 107.001 116.9 106.901 116.9Z" fill="#3333CC"/>
<path d="M105.8 123.1C105.7 123.1 105.7 123.1 105.8 123.1C105.6 123.1 101.8 122.4 100.7 121.9C100.5 121.8 100.4 121.6 100.5 121.4C100.6 121.2 100.8 121.1 101 121.2C102.1 121.6 105.9 122.3 105.9 122.3C106.1 122.3 106.2 122.5 106.2 122.7C106.1 123 105.9 123.1 105.8 123.1Z" fill="#3333CC"/>
<path d="M105.001 127.3C104.901 127.3 102.301 126.7 99.5009 125.8C99.3009 125.7 99.2009 125.5 99.3009 125.3C99.4009 125.1 99.6009 125 99.8009 125.1C102.501 126 105.101 126.5 105.101 126.5C105.301 126.5 105.401 126.7 105.401 126.9C105.401 127.2 105.201 127.3 105.001 127.3Z" fill="#3333CC"/>
<path d="M104.3 131.7L99.0004 131.2C98.8004 131.2 98.6004 131 98.7004 130.8C98.7004 130.6 98.9004 130.4 99.1004 130.5L104.3 131C104.5 131 104.7 131.2 104.6 131.4C104.7 131.6 104.5 131.7 104.3 131.7Z" fill="#3333CC"/>
<path d="M101.8 135.8C100.8 135.8 99.5 135.8 98.6 135.6C98.4 135.6 98.2 135.4 98.3 135.2C98.3 135 98.5 134.8 98.7 134.9C100.5 135.1 103.6 135 103.6 135C103.8 135 104 135.2 104 135.4C104 135.6 103.8 135.8 103.6 135.8C103.6 135.7 102.8 135.8 101.8 135.8Z" fill="#3333CC"/>
<path d="M71.0996 88.4C70.9996 90.3 70.6996 108.2 71.8996 117.8C71.8996 117.8 82.0996 115.6 81.9996 115.3C81.8996 115 74.8996 92.6 73.0996 88.4H71.0996Z" fill="#6072F4"/>
<path d="M68 70.2C68 70.2 60.5 93.2 72.4 90.9C84.2 88.7 69.7 71.2 68 70.2Z" fill="#3333CC"/>
<path d="M93.1004 123.6L83.3004 124.1C83.3004 124.1 82.4004 82 81.4004 75.2L85.8004 61.6L92.3004 73.4C92.3004 73.4 92.7004 120.4 93.1004 123.6Z" fill="#FFAB3B"/>
<path d="M93.1004 123.6C92.7004 120.5 92.4004 76.4 92.3004 73.6L88.2004 79L85.7004 73.7L83.6004 77.2L81.4004 75.3C82.4004 82.1 83.3004 124.2 83.3004 124.2L93.1004 123.6Z" fill="#FFD83B"/>
<path d="M85.8008 61.6L83.8008 67.6L88.7008 67L85.8008 61.6Z" fill="#FF863B"/>
<path d="M67.5996 124C67.5996 124.6 73.6996 175.6 73.6996 175.6H103.7L111 124H67.5996Z" fill="#FF643B"/>
<path d="M62.5 114.6C62.5 114.6 110.6 112.3 115.4 113.5V128L62.5 127.6V114.6Z" fill="#FF863B"/>
<path d="M250.299 190.3C249.099 190.1 247.799 190.5 247.699 191.2C247.499 192.8 252.499 192.8 252.499 191.5C252.499 190.9 251.199 190.5 250.299 190.3Z" fill="#3333CC"/>
<path d="M237.5 199.7C236.6 199.7 235.6 199.9 235.6 200.4C235.5 201.4 239.3 201.2 239.3 200.4C239.2 199.9 238.2 199.7 237.5 199.7Z" fill="#FF653B"/>
<path d="M264.499 192.7C266.699 192.6 269.999 193.3 269.499 195.4C268.999 197.5 260.799 198.1 260.099 195.6C259.399 193.1 262.899 192.7 264.499 192.7Z" fill="#3333CC"/>
<path d="M301.299 180.4C300.499 180.4 299.199 180.1 299.499 179.3C299.699 178.5 302.899 178.5 303.099 179.4C303.299 180.3 301.899 180.5 301.299 180.4Z" fill="#3333CC"/>
<path d="M40.2996 181.4C38.6996 181.4 37.0996 182 37.0996 183.1C37.0996 185.3 43.6996 184.4 43.3996 182.7C43.2996 181.8 41.4996 181.4 40.2996 181.4Z" fill="#3333CC"/>
<path d="M11.4004 191.6C10.4004 191.6 9.40039 192 9.40039 192.6C9.40039 193.9 13.5004 193.4 13.3004 192.3C13.2004 191.8 12.1004 191.6 11.4004 191.6Z" fill="#3333CC"/>
<path d="M289.601 170.9C284.901 172.8 284.701 177.5 290.301 179.8C295.801 182.1 300.301 178.8 299.401 176.2C298.501 173.7 295.301 168.7 289.601 170.9Z" fill="#D1D3D4"/>
<path d="M298.999 175.4C298.899 176.8 297.999 177.1 297.099 177.1C294.299 177.3 295.299 179.1 291.699 178.6C286.799 178 286.599 174.3 286.499 173.6C285.499 175.7 286.599 178.4 290.299 179.9C295.799 182.2 300.299 178.9 299.399 176.3C299.299 176 299.199 175.7 298.999 175.4Z" fill="#BCBEC0"/>
<path d="M93.9991 198.2C92.2991 198.1 90.4991 198.5 90.2991 199.4C90.0991 201.3 97.1991 201 97.1991 199.5C97.1991 198.7 95.3991 198.3 93.9991 198.2Z" fill="#FF643B"/>
<path d="M49.2997 187.3C51.6997 187.5 55.3997 188.7 54.4997 191C53.6997 193.3 44.3997 192.8 43.8997 189.9C43.4997 187.1 47.3997 187.1 49.2997 187.3Z" fill="#3333CC"/>
<path d="M195.901 28.6H170.601L108.801 179.5L150.401 179.6L161.501 127.5H190.101L207.601 179.7L243.601 178.3L195.901 28.6ZM168.101 105.4L176.301 78.9L187.101 108.1L168.101 105.4Z" fill="#FF643B"/>
<path d="M97.701 178.2C102.701 180.7 110.201 181.8 119.901 178.2C122.901 177.1 127.701 172.5 126.701 169.5C125.701 166.5 121.701 167.7 121.701 167.7C121.701 167.7 133.301 160.3 129.201 155.1C126.601 151.8 121.301 153.2 121.301 153.2C121.301 153.2 139.701 128.8 127.401 121.7C113.301 113.5 102.401 148.4 102.401 148.4C102.401 148.4 105.001 136.9 100.001 136.2C95.001 135.4 78.901 156.7 97.701 178.2Z" fill="#6072F4"/>
<path d="M106.899 178.2C106.199 162.7 110.799 149.5 114.699 141.1C118.999 132.1 123.499 126.6 123.599 126.6L124.099 127C124.099 127 119.599 132.4 115.299 141.4C111.399 149.7 106.799 162.8 107.499 178.2H106.899Z" fill="white"/>
<path d="M107.399 170L107.199 169.4C114.799 167.5 125.199 157 125.299 156.9L125.799 157.3C125.399 157.8 115.299 168.1 107.399 170Z" fill="white"/>
<path d="M107.8 175.9C107.6 175.9 107.4 175.9 107.1 175.9V175.3C113.4 175.5 120.1 172.4 120.2 172.4L120.5 173C120.5 173 114.1 175.9 107.8 175.9Z" fill="white"/>
<path d="M107.1 173C102.3 172 98.9004 169.6 96.8004 165.9C91.8004 156.7 97.2004 142.7 97.4004 142.1L98.0004 142.3C98.0004 142.4 92.5004 156.7 97.4004 165.6C99.3004 169.1 102.6 171.4 107.2 172.3L107.1 173Z" fill="white"/>
<path d="M102.6 177.2C100.8 179.3 98.2996 180.4 92.0996 178.8C90.0996 178.3 85.6996 176.1 86.6996 172.3C87.6996 168.5 91.8996 172.9 91.8996 172.9C91.8996 172.9 79.9996 154.2 88.5996 151.2C97.6996 148 98.5996 167.9 98.5996 167.9C98.5996 167.9 99.3996 165.2 101.3 165.6C103.5 166.1 107.2 172 102.6 177.2Z" fill="#4664F2"/>
<path d="M97.4008 177.7C97.3008 177.6 91.8008 169.3 89.8008 155.7L90.4008 155.6C92.4008 169 97.9008 177.2 97.9008 177.3L97.4008 177.7Z" fill="white"/>
<path d="M94.9004 176.5C91.7004 176.5 90.4004 175.3 90.4004 175.3L90.8004 174.8C90.8004 174.8 92.4004 176.3 96.7004 175.7L96.8004 176.3C96.1004 176.5 95.5004 176.5 94.9004 176.5Z" fill="white"/>
<path d="M97.2004 176.9L96.9004 176.3C101.6 174.2 100.8 168.8 100.8 168.7L101.4 168.6C101.5 168.7 102.4 174.6 97.2004 176.9Z" fill="white"/>
<path d="M93.9992 179.3C95.5992 177.7 96.9992 175.8 99.3992 175.8C101.799 175.8 106.699 176.8 107.499 177.8C108.299 178.8 111.099 182.6 107.799 183.7C104.499 185 89.5992 183.7 93.9992 179.3Z" fill="#D1D3D4"/>
<path d="M104.799 180C102.199 180.4 101.099 180.9 98.699 181C96.399 181.1 95.199 178.6 95.199 178.1C94.799 178.5 94.399 178.9 93.999 179.3C89.499 183.7 104.499 184.9 107.799 183.7C109.699 183 109.599 181.4 108.899 180C108.199 179.7 107.399 179.6 104.799 180Z" fill="#BCBEC0"/>
<path d="M108.7 173.3C102.8 179.4 106.1 187.7 116.2 188.4C126.3 189 130.8 180.6 127.6 176.7C124.3 172.9 115.8 165.9 108.7 173.3Z" fill="#D1D3D4"/>
<path d="M126.301 175.4C127.101 177.9 127.201 180.3 125.301 180.9C120.901 182.2 121.501 179.9 116.501 181.9C111.501 183.9 106.401 181.1 105.801 179.9C105.801 184.2 109.401 188.1 116.201 188.6C126.301 189.2 130.801 180.8 127.601 176.9C127.201 176.3 126.801 175.8 126.301 175.4Z" fill="#BCBEC0"/>
<path d="M156.7 186.4L155.4 186.1C163.3 154.1 176.4 56.2 176.5 55.2L177.8 55.4C177.7 56.4 164.6 154.4 156.7 186.4Z" fill="#3333CC"/>
<path d="M135.999 185.9L134.699 185.6C142.599 153.6 155.699 55.7 155.799 54.7L157.099 54.9C156.999 55.8 143.899 153.9 135.999 185.9Z" fill="#3333CC"/>
<path d="M154.901 67.4L154.801 66.1C160.201 65.7 175.601 65 175.801 65V66.3C175.701 66.3 160.201 67 154.901 67.4Z" fill="#3333CC"/>
<path d="M152 86.3L151.9 85C157.3 84.6 172.7 83.9 172.9 83.9V85.2C172.8 85.2 157.4 85.9 152 86.3Z" fill="#3333CC"/>
<path d="M149.2 105.2L149.1 103.9C154.5 103.5 169.9 102.8 170.1 102.8V104.1C170 104.1 154.6 104.8 149.2 105.2Z" fill="#3333CC"/>
<path d="M146.401 124.1L146.301 122.8C151.701 122.4 167.101 121.7 167.301 121.7V123C167.101 123.1 151.701 123.7 146.401 124.1Z" fill="#3333CC"/>
<path d="M143.5 143L143.4 141.7C148.8 141.3 164.2 140.6 164.4 140.6V141.9C164.3 142 148.9 142.6 143.5 143Z" fill="#3333CC"/>
<path d="M140.7 162L140.6 160.7C146 160.3 161.4 159.6 161.6 159.6V160.9C161.5 160.9 146 161.5 140.7 162Z" fill="#3333CC"/>
<path d="M136.799 180L136.699 178.7C142.099 178.3 157.499 177.6 157.699 177.6V178.9C157.599 179 142.199 179.6 136.799 180Z" fill="#3333CC"/>
<path d="M311.599 119.7C311.099 119.1 307.999 116.1 307.799 115.8C307.599 115.5 319.699 109.1 319.699 109.1L341.599 106.2L344.799 106.1L333.899 111.8C333.899 111.8 320.999 117.6 320.499 117.8C320.099 118 311.599 119.7 311.599 119.7Z" fill="#8AD4FF"/>
<path d="M311.599 119.7C311.099 119.1 307.999 116.1 307.799 115.8C307.599 115.5 319.699 109.1 319.699 109.1L341.599 106.2L344.799 106.1L333.899 111.8C333.899 111.8 320.999 117.6 320.499 117.8C320.099 118 311.599 119.7 311.599 119.7Z" fill="#4664F2"/>
<path d="M305.199 133C305.199 133 307.299 119.8 307.999 119.3C308.599 118.7 344.099 106.5 344.799 106.1C345.499 105.8 305.199 133 305.199 133Z" fill="#3333CC"/>
<path d="M307.801 115.7C307.401 115.7 304.301 104.7 305.001 104.3C305.701 103.8 346.601 105.4 344.801 106.1C343.001 106.7 308.401 115.7 307.801 115.7Z" fill="#3333CC"/>
<path d="M143.5 37.5C143.5 36.9 146.8 34.4 146.3 34.2C145.6 33.9 144.8 34.4 144.8 34.4C144.8 34.4 146.2 31.8 145.7 31.7C145.1 31.5 144.9 32.6 144.9 32.6C144.9 32.6 145.6 30.9 145.2 30.9C144.8 30.9 144 32.3 144 32.3C144 32.3 144.6 31.1 144.2 31C143.8 30.9 143.1 32.4 143.1 32.4C143.1 32.4 143.7 31.6 143.2 31.5C142.7 31.5 142.3 32.9 142.2 33.4C142.2 33.7 141.9 35 142.4 35.8C142.5 36 142.1 37.5 142.1 37.5H143.5Z" fill="#F7CD8D"/>
<path d="M156 37.8C155.6 37.3 151.5 37.4 151.7 37C152.1 36.4 153 36.2 153 36.2C153 36.2 150.3 35 150.6 34.6C151 34.1 151.8 34.8 151.8 34.8C151.8 34.8 150.2 34 150.5 33.6C150.8 33.3 152.3 34 152.3 34C152.3 34 151.1 33.5 151.3 33.2C151.5 32.9 153.1 33.6 153.1 33.6C153.1 33.6 152.1 33.3 152.5 33C152.8 32.7 154 33.5 154.4 33.9C154.6 34.1 155.6 35 155.7 36C155.7 36.3 156.9 37.1 156.9 37.1L156 37.8Z" fill="#F7CD8D"/>
<path d="M152.901 119.5C152.901 119.5 153.901 86.1001 152.501 81.3001C151.101 76.5001 146.801 81.8001 146.801 81.8001C146.801 81.8001 147.701 92.8001 147.901 95.1001C148.101 97.4001 147.101 105.4 151.201 119.5C151.201 119.5 149.501 122.3 150.301 122.8C150.901 123.2 153.101 123 153.301 122.7C153.601 122 153.301 120.7 152.901 119.5Z" fill="#F7D5A0"/>
<path d="M154.299 119.5C154.299 119.5 153.299 86.1001 154.699 81.3001C156.099 76.5001 160.399 81.8001 160.399 81.8001C160.399 81.8001 159.499 92.8001 159.299 95.1001C159.099 97.4001 160.099 105.4 155.999 119.5C155.999 119.5 157.699 122.3 156.899 122.8C156.299 123.2 154.099 123 153.899 122.7C153.599 122 153.899 120.7 154.299 119.5Z" fill="#F7D5A0"/>
<path d="M156.3 49.7C156.3 49.8 155.9 54.6 156.1 55.1L152.5 54.5C152.5 54.5 153.7 50.0999 153.7 49.2999C153.8 48.5999 156.3 49.7 156.3 49.7Z" fill="#F7D5A0"/>
<path d="M156.3 49.7C156.3 49.7 156.3 50.2 156.2 50.9C155 51.2 154.2 51.2 153.4 50.9C153.6 50.2 153.7 49.6 153.7 49.4V49.3C154 49.3 154.3 49.2 154.6 49.2C155.4 49.3 156.3 49.7 156.3 49.7Z" fill="#F7D5A0"/>
<path d="M156.799 42.6C157.599 43.3 159.899 50 155.299 50.6C150.799 51.2 150.499 41.7 153.499 41.7C156.599 41.8 156.799 42.6 156.799 42.6Z" fill="#F7D5A0"/>
<path d="M157.199 71.3C157.599 72.5 161.099 75.6 161.299 82.6C161.499 89.6 160.899 94.1 160.899 94.1C160.899 94.1 151.899 96 146.499 93.6C146.499 93.6 142.799 80.6 149.099 72.8L157.199 71.3Z" fill="#77C4D3"/>
<path d="M157.199 71.3C157.599 72.5 161.099 75.6 161.299 82.6C161.499 89.6 160.899 94.1 160.899 94.1C160.899 94.1 151.899 96 146.499 93.6C146.499 93.6 142.799 80.6 149.099 72.8L157.199 71.3Z" fill="#333745"/>
<path d="M157.199 71.3C157.599 72.5 161.099 75.6 161.299 82.6C161.499 89.6 160.899 94.1 160.899 94.1C160.899 94.1 151.899 96 146.499 93.6C146.499 93.6 142.799 80.6 149.099 72.8L157.199 71.3Z" fill="#3333CC"/>
<path d="M156.001 35.7C159.301 39.1 166.901 42.7 165.401 50.7C164.401 55.9 161.001 57.8 159.401 60.7C157.801 63.6 157.401 70.3 158.401 73C158.401 73 153.001 74.9 148.801 73C148.801 73 150.601 68.4 149.101 64.9C147.701 61.4 146.901 61.4 147.101 60.1C147.301 58.7 147.701 58.4 146.501 56.1C145.301 53.8 140.001 44.1 142.201 36.9C142.201 36.9 143.901 37.3 144.301 37.2C144.301 37.2 144.301 52 153.001 54.1C161.801 56.2 161.501 44.2 155.101 37.8L156.001 35.7Z" fill="#979FEF"/>
<path d="M157.6 46.2999C157.6 46.1999 157.4 45.3 158.2 45.4C159 45.4 158.4 47.7 157.6 47.2C156.8 46.7 157.6 46.2999 157.6 46.2999Z" fill="#F7D5A0"/>
<path d="M152.999 52.6L151.699 53.7C151.699 53.7 151.999 56 153.199 56.6L153.999 54.3L152.999 52.6Z" fill="#AEE2FF"/>
<path d="M156.1 52.9L154 54.3L154.8 56.6C154.8 56.6 156.2 54.9 156.6 54.1L156.1 52.9Z" fill="#AEE2FF"/>
<path d="M153.3 39.2C150.2 39.3 148 42.9 148.7 46.2C149.4 49.5 148.1 53.1 147.1 54.6C145.8 56.5 143.1 60.5 146.4 65.2C148.6 68.3 152.2 66.8 155.3 67.8C159.3 69.1 164.3 68.1 164.3 60.7C164.3 55.1 161.4 54.1 161.2 51.8C160.7 46.2 162.3 39 153.3 39.2Z" fill="black"/>
<path d="M153.2 122.6C153.6 122 153.2 120.7 152.9 119.5C152.4 119.4 151.7 119.3 151.1 119.4C151.1 119.4 149.4 122.2 150.2 122.7C150.9 123.1 153 122.9 153.2 122.6Z" fill="#3333CC"/>
<path d="M156.9 122.7C157.7 122.2 156 119.4 156 119.4C155.2 119.3 154.6 119.4 154.2 119.4C153.8 120.6 153.5 121.9 153.9 122.5C154.1 122.9 156.3 123.1 156.9 122.7Z" fill="#3333CC"/>
<path d="M148.101 94.2C145.401 83.7 149.301 73.4 149.301 73.3L149.501 73.4C149.501 73.5 145.601 83.7 148.301 94.2H148.101Z" fill="white"/>
<path d="M159 94.4H158.8C160.3 85.1 157.1 73.5 157 73.4L157.2 73.3C157.3 73.4 160.6 85 159 94.4Z" fill="white"/>
<path d="M222.6 171.7C222.6 171.7 211.7 166.9 214.9 163.2C218.8 158.6 227.4 165.3 227.4 165.3C227.4 165.3 204 146.2 210.7 139.6C216 134.4 227.2 143.1 227.2 143.1C227.2 143.1 192.4 88.5 225.8 74.2C261.3 58.9 263.2 126.9 252.9 138.1C252.9 138.1 265.9 129.5 271.3 133.6C279.8 140 265.3 163 244 171.4L222.6 171.7Z" fill="#FFAB3B"/>
<path d="M233.1 171.7L232.5 171.4C239.8 156.4 238.9 134.7 236.8 119.1C234.6 102.2 230.5 88.7 230.5 88.6L231.1 88.4C231.1 88.5 235.2 102 237.5 119C238.8 128.9 239.3 138.1 238.9 146.2C238.2 156.5 236.3 165 233.1 171.7Z" fill="white"/>
<path d="M238.401 137.8C229.701 128.1 226.801 111.3 226.801 111.1L227.401 111C227.401 111.2 230.301 127.8 238.901 137.3L238.401 137.8Z" fill="white"/>
<path d="M237.599 156.8L237.199 156.3C244.099 150.3 245.899 138.9 246.199 130.5C246.499 121.3 245.199 113.4 245.199 113.4L245.799 113.3C245.799 113.4 247.199 121.3 246.799 130.6C246.499 139.1 244.599 150.7 237.599 156.8Z" fill="white"/>
<path d="M235.6 164.2C226.6 160.1 220.6 149.5 220.5 149.4L221 149.1C221.1 149.2 227 159.6 235.8 163.7L235.6 164.2Z" fill="white"/>
<path d="M234.401 168.3L234.301 167.7C250.001 164.7 260.101 146.8 260.201 146.6L260.701 146.9C260.701 146.9 258.101 151.5 253.601 156.4C249.501 161 242.701 166.7 234.401 168.3Z" fill="white"/>
<path d="M233.4 170.4C226.3 169.3 223.2 167.3 223 167.2L223.4 166.7C223.4 166.7 226.5 168.8 233.5 169.8L233.4 170.4Z" fill="white"/>
<path d="M245.4 164.2C254.1 167.6 254.4 176.4 244.2 180.6C234 184.8 225.6 178.7 227.3 174C229 169.4 234.8 160.1 245.4 164.2Z" fill="#D1D3D4"/>
<path d="M228 172.4C228.2 174.9 229.1 177.2 231.4 177C236.5 176.7 234.9 174.7 240.9 174.7C247 174.7 251.1 170.4 251.1 169C253 172.9 250.9 177.8 244.1 180.6C233.9 184.8 225.5 178.7 227.2 174C227.5 173.6 227.7 173 228 172.4Z" fill="#BCBEC0"/>
<path d="M196.399 150C196.499 150.8 196.999 153.5 196.399 154.6C195.799 155.7 192.699 156.4 192.699 156.4L196.099 160.6L203.099 160.5L205.799 157.2L204.499 156C204.499 156 201.099 156.4 201.799 149.8C202.299 143.2 196.399 150 196.399 150Z" fill="#F7D5A0"/>
<path d="M194.1 155.6C194.1 155.6 188.6 157 183.3 161.9C178 166.7 172.2 181.1 189.8 173L191 170.7L191.3 167.8L204.8 170.5L208.6 174.2L210.5 174.1C210.5 174.1 217 172.7 217.7 168.7C218.5 164.6 206.6 156.4 204.4 155.9C204.4 155.9 202.4 156.7 198.9 156.8C195.4 156.9 194.1 155.6 194.1 155.6Z" fill="#979FEF"/>
<path d="M207.3 175.1L208 179.2L200.5 183.3L193.6 183.1L188 180.5C188 180.5 190.2 178 191 173.8C191.8 169.5 207.3 175.1 207.3 175.1Z" fill="#979FEF"/>
<path d="M196.4 150.5C196.5 151.1 196.6 151.9 196.6 152.7C198.1 153.2 200 153.3 201.6 153.2C201.4 152.4 201.4 151.3 201.6 149.9C201.6 149.5 201.7 149.1 201.6 148.9L197 150L196.4 150.5Z" fill="#F7D5A0"/>
<path d="M202.7 150.1C203.2 150.3 206.2 146.9 206.2 141.5C206.3 136.1 202.2 136.5 202.2 136.5C202.2 136.5 198.8 135.8 198.7 135.8C198.6 135.8 193.1 137.3 193.1 137.3C193.1 137.3 189.9 147.9 196.5 149.4L197.6 144.9L202.9 142.4C202.9 142.4 202.5 149.9 202.5 150.1C202.7 150.2 202.7 150.1 202.7 150.1Z" fill="black"/>
<path d="M194.999 139.6C194.699 139.8 193.099 141.4 192.999 144.8C192.899 148.3 195.199 152.5 199.099 152.3C202.999 152.1 205.499 147.6 205.099 142.3C204.599 137 200.399 138.2 200.399 138.2L194.999 139.6Z" fill="#F7D5A0"/>
<path d="M204.3 145.1C204.3 145.1 204.4 145.1 204.5 145.1C204.8 145 205.5 145 206.2 145.2C207.1 145.5 205.3 148.9 204.1 147.6C202.8 146.2 204.3 145.1 204.3 145.1Z" fill="#F7D5A0"/>
<path d="M193.8 144.8C193.8 144.8 193.7 144.8 193.6 144.8C193.3 144.7 192.6 144.6 191.9 144.8C191 145 192.5 148.5 193.9 147.3C195.2 146 193.8 144.8 193.8 144.8Z" fill="#F7D5A0"/>
<path d="M197.4 134.2C195.6 133.8 192.1 135.3 193.2 138.7C194.5 142.6 202.3 142.9 204.9 140.8C207.5 138.7 206.7 136.6 205.6 136.3C204.5 136 202.9 136.3 201.5 135.9C200.1 135.5 198.5 134.4 197.4 134.2Z" fill="black"/>
<path d="M186.2 161.6C186.2 161.6 212.7 162.2 212.8 162.4C213 163 210.4 179.8 210.3 179.8C210.2 179.8 187.6 179.4 187.4 179.2C187 178.9 185.9 161.7 186.2 161.6Z" fill="#FF7A3B"/>
<path d="M198.6 172.3C199.5 172.3 200.2 171.6 200.2 170.7C200.2 169.8 199.5 169.1 198.6 169.1C197.7 169.1 197 169.8 197 170.7C197 171.6 197.7 172.3 198.6 172.3Z" fill="white"/>
<path d="M210.801 179.2L186.901 178.4C186.601 178.4 186.301 178.6 186.301 179C186.301 179.3 186.501 179.6 186.901 179.6L210.801 180.4C211.101 180.4 211.401 180.2 211.401 179.8C211.401 179.5 211.101 179.2 210.801 179.2Z" fill="#FF653B"/>
<path d="M193.199 184.8C193.199 184.8 191.599 185.6 192.199 187.2C192.699 188.8 196.899 188.3 198.499 184.6C199.999 181 193.199 184.8 193.199 184.8Z" fill="#001618"/>
<path d="M198.2 185.1H197.8C197.8 185.1 195.9 187.3 194.6 187.6C193.5 187.9 192.4 187.2 192 186.4C192 186.6 192 186.9 192.1 187.2C192.7 188.7 196.5 188.4 198.2 185.1Z" fill="#99A2A3"/>
<path d="M216.7 186.6C216.7 186.6 227.4 183.4 223.3 177.3C219.2 171.2 197.9 182 197.9 182L205.2 186.6L212.5 187.1L216.7 186.6Z" fill="#223FA8"/>
<path d="M200.899 183L202.899 184.2L202.799 186.1L200.199 185.4L200.899 183Z" fill="#F7D5A0"/>
<path d="M201.301 182.8C201.301 182.8 190.901 176.9 183.401 176.7C175.901 176.5 174.801 180 174.401 181.7C174.001 183.5 176.601 187.3 184.101 187.1C191.601 186.9 200.701 185.7 200.701 185.7L201.301 182.8Z" fill="#3333CC"/>
<path d="M202.9 184.2C202.9 184.2 202.9 185.2 202.6 186C202.6 186 205.4 188.3 208.2 188.5C211 188.7 212.7 185 209 184.4C205.4 183.7 202.9 184.2 202.9 184.2Z" fill="#001618"/>
<path d="M209.2 184.4C209.4 184.4 211.2 185.1 210.2 187.1C209.6 188.2 208.2 188.4 207.1 188.4C207.4 188.5 207.8 188.5 208.1 188.6C211 188.7 212.7 185.2 209.2 184.4Z" fill="#99A2A3"/>
<path d="M193 156C193 156 196.2 154 196.6 154.2C196.9 154.5 199 156.7 199 156.7C199 156.7 197.5 158.9 197 159.6C196.9 159.7 194.2 157.2 193 156Z" fill="#4664F2"/>
<path d="M202.1 154.4L199 156.8L200.8 159.7C200.8 159.7 203.7 157.9 204.5 155.9L202.1 154.4Z" fill="#4664F2"/>
<path d="M243.5 90.6C245.3 87.5 247.2 83 250.8 81.7C251.7 81.4 253 81.4 253.7 82.2C254.5 83.1 253.6 84.8 253.3 85.8C252.5 87.7 251.6 89.4 250.6 91.2C249.6 93 248.7 94.8 247.6 96.6C247.1 97.5 246.5 98.4 245.9 99.3C245.5 99.9 245.1 100.2 244.3 100.1C243.7 100 242.9 99.9 242.4 99.4C241.2 98.4 242.2 97.2 242.8 96.2C243.3 95.3 243.8 94.4 244.2 93.5C245.2 91.6 246.2 89.8 247.4 88C248 87.1 248.6 86.1 249.4 85.3C249.7 85 251.2 83.9 251.3 85C251.3 85.5 250.9 86.3 250.7 86.7C249.8 88.9 248.8 91 247.6 93C247.4 93.4 248 93.7 248.2 93.3C249.6 90.9 250.9 88.3 251.8 85.7C252 85.1 252.1 84.3 251.5 83.8C250.7 83.3 249.7 84 249.1 84.5C248.2 85.3 247.6 86.3 247 87.2C246.2 88.4 245.5 89.6 244.8 90.8C244.1 92 243.5 93.2 242.8 94.5C242.5 95.1 242.2 95.7 241.8 96.3C241.5 96.9 241.1 97.4 241.1 98.1C241.1 98.9 241.7 99.6 242.3 100C243.1 100.4 244.4 100.8 245.3 100.5C246.2 100.2 246.9 98.8 247.4 98C248.1 96.8 248.8 95.7 249.5 94.4C250.8 91.9 252.3 89.5 253.4 87C254 85.8 254.4 84.6 254.7 83.3C255 82.2 254.6 81.6 253.7 81C251.5 79.6 249.1 81.2 247.5 82.8C245.5 84.8 244.2 87.5 242.9 89.9C242.7 90.7 243.3 91 243.5 90.6Z" fill="#3333CC"/>
<path d="M284.5 23.2L251.8 23.1C250.6 23.1 249.6 22.1 249.6 20.9C249.6 19.7 250.6 18.7 251.8 18.7L284.5 18.8C285.7 18.8 286.7 19.8 286.7 21C286.7 22.2 285.7 23.2 284.5 23.2Z" fill="#3333CC"/>
<path d="M286.6 180.5H259.8C258.6 180.5 257.6 179.5 257.6 178.3C257.6 177.1 258.6 176.1 259.8 176.1H286.6C287.8 176.1 288.8 177.1 288.8 178.3C288.8 179.5 287.8 180.5 286.6 180.5Z" fill="#3333CC"/>
<path d="M270.2 180.5C269 180.5 268 179.5 268 178.3L265.9 21C265.9 19.8 266.9 18.8 268.1 18.7C269.3 18.7 270.3 19.7 270.3 20.9L272.4 178.2C272.5 179.5 271.5 180.5 270.2 180.5C270.3 180.5 270.3 180.5 270.2 180.5Z" fill="#3333CC"/>
<path d="M283.1 130.4C283.1 130.4 297.3 139.8 298 142.7C298.7 145.6 294.9 148.4 292.4 149.4C285.7 152 279 152.9 279 152.9L279.8 149.9C279.8 149.9 287.7 144.7 287.4 143.4C287.1 142.1 280.2 139.3 280.2 139.3C280.2 139.3 279.2 135.9 279.2 135.6C279.2 135.3 282.5 130.6 282.5 130.6L283.1 130.4Z" fill="#FF4F3B"/>
<path d="M275.8 175.7C275.9 176.1 276.1 179.2 275 181.2L275.4 182.4C275.4 182.4 277.5 182.5 277.6 182.5L278.5 182.1C278.5 182.1 278.2 178.6 278.5 175.2L275.8 175.7Z" fill="#F7D5A0"/>
<path d="M274.999 181.2C274.999 181.2 275.899 182.2 278.399 182.1C278.399 182.1 284.599 184.6 285.299 184.9C285.999 185.2 286.199 186.2 285.899 186.6C285.499 187 276.099 186.1 273.999 183.9C273.899 183.9 273.999 182.3 274.999 181.2Z" fill="#303087"/>
<path d="M275 150.9C275 150.9 274.5 151 273.6 150.8L272.5 152.1L273.1 153.5L273.8 154.3C273.8 154.3 274.6 153.6 275.6 153.3L275 150.9Z" fill="#F7D5A0"/>
<path d="M273.899 150.8C273.899 150.8 273.199 151.9 273.899 154.3C273.899 154.3 272.999 160.9 272.799 161.7C272.699 162.5 271.799 162.9 271.299 162.7C270.799 162.4 269.499 153.1 271.099 150.5C271.099 150.4 272.599 150.1 273.899 150.8Z" fill="#303087"/>
<path d="M282.9 130.7C282.5 131.3 282 151.9 282.3 155.5C282.6 159.1 278.7 176.5 278.7 176.5L275.8 176.3C275.8 176.3 274 164.3 276.3 155.6C276.3 155.6 271.2 142.3 271.1 137.6L271.8 135L272.6 131.4L278.9 130.4L282.9 130.7Z" fill="#FF653B"/>
<path d="M291.201 113.8C291.001 113.7 290.501 113.4 290.101 113.7C289.701 114 290.301 115 291.201 114.9V113.8Z" fill="#F7D5A0"/>
<path d="M291.201 113.8C291.001 113.7 290.501 113.4 290.101 113.7C289.701 114 290.301 115 291.201 114.9V113.8Z" fill="#F7D5A0"/>
<path d="M293.901 115.2C293.901 115.1 294.501 110.9 294.301 110.9C294.101 110.8 291.701 110.5 291.301 110.6C290.801 110.7 290.801 115.9 290.801 115.9L293.101 115.7L293.901 115.2Z" fill="#0E3144"/>
<path d="M275.2 104C275.3 104.1 275.4 106.5 274.6 108L274.1 109.5C274.1 109.5 275.5 110.9 275.6 110.9C275.6 111 277.8 111.4 277.8 111.4L279.2 110.1L279.3 109.3C279.3 109.3 278.7 107.9 279.2 106L275.2 104Z" fill="#F7D5A0"/>
<path d="M284.3 110.9C284.6 110.8 285.8 117.5 285.7 120.1L284.2 121.4L282.6 121.6L281 121.2C281 121.1 282.5 111.6 284.3 110.9Z" fill="#8B93CC"/>
<path d="M293 118.4C293 118.9 288.3 128 283.2 129.5L281.1 128.7L281.2 126.1L282 124.5L283.5 122.5L285.9 122.8C285.9 122.8 290.5 119.3 291.2 118.1L291.9 117.5L293 118.4Z" fill="#F7D5A0"/>
<path d="M294.8 114.6C294.7 114.3 292.7 114.6 291.6 115.1C290.5 115.6 289.7 116.1 289.8 116.5C290 116.9 291 116.4 291 116.4C291 116.4 289.7 116.7 289.6 117.4C289.6 118.1 290.8 117.5 290.8 117.5C290.8 117.5 289.8 118.1 290.2 118.4C290.6 118.6 293.1 119 294 118.3C295 117.5 295.1 115.3 294.8 114.6Z" fill="#F7D5A0"/>
<path d="M278.2 111.7C278.2 111.7 279.1 117.2 278.6 119.3L277.1 119.5C277.1 119.5 277.2 114.6 276.6 112.6L277.8 111.4L278.2 111.7Z" fill="#979FEF"/>
<path d="M285.9 122.8C285.9 122.8 286.2 119.6 286.1 119.5C286 119.4 283.1 119.7 281.9 120.7C281.7 121.9 281.7 123.2 281.9 124.5C282 124.5 284.8 123 285.9 122.8Z" fill="#4664F2"/>
<path d="M285.8 186.6C285.4 187 276 186.1 273.9 183.9C273.9 183.9 273.9 183.7 274 183.3C277.9 185.4 284.5 186.1 286 186.1C286 186.3 285.9 186.5 285.8 186.6Z" fill="#5D5D5D"/>
<path d="M271.8 150.3C271.2 151.8 270.8 156.4 271.7 162.7C271.5 162.7 271.3 162.7 271.2 162.6C270.7 162.3 269.4 153 271 150.4C271.1 150.4 271.4 150.3 271.8 150.3Z" fill="#5D5D5D"/>
<path d="M278.9 107.7C278.1 108.1 276.7 108.5 275.1 106.4C275.3 105.2 275.2 104 275.2 104L279.1 105.9C278.9 106.6 278.9 107.2 278.9 107.7Z" fill="#F7D5A0"/>
<path d="M283.8 97.1C283.8 97.1 285.3 101.1 283.9 104.5L282.6 104.3C282.6 104.3 280.8 110.6 275.2 104.1L274 100.4L278 97.3L283.8 97.1Z" fill="#F7D5A0"/>
<path d="M284.5 100.3C284.5 100.3 286.7 98.4 285.1 95.3C283.5 92.2 277.5 92.6 275.5 95.1C275.5 95.1 274.1 94.5 273.2 96.3C272.3 98.1 272.3 103.6 275.3 104C275.3 104 275.2 101.9 276 100.9L277.2 100.1C277.2 100.1 281.4 100.7 284 97.6C284 97.5 284.5 99.1 284.5 100.3Z" fill="black"/>
<path d="M277.4 100.7C277.4 100.5 277.3 99.2 276.1 99.5C274.8 99.8 275.7 102.8 276.4 102.6C277.1 102.4 277.4 100.7 277.4 100.7Z" fill="#F7D5A0"/>
<path d="M277.399 175.7H277.199C277.299 174.9 277.899 171.6 278.699 167.8C279.799 162.5 281.099 155.9 280.899 155.2C280.599 154.1 278.999 133.1 278.999 132.2H279.199C279.199 132.4 280.799 154.1 281.099 155.1C281.299 155.8 279.999 162.1 278.899 167.7C278.199 171.6 277.499 174.9 277.399 175.7Z" fill="white"/>
<path d="M279.7 174.1L278.7 177.2C278.7 177.2 275.9 177.1 275.3 176.8L275.1 174.1H279.7Z" fill="#FF5121"/>
<path d="M267.199 110.5C267.199 110.5 260.799 116.2 259.699 123.9L262.599 123.2L264.699 123.3C264.699 123.3 267.799 118.7 268.099 118.2C268.199 118.1 269.699 113.4 267.199 110.5Z" fill="#979FEF"/>
<path d="M278.901 107.7L284.301 110.9C284.301 110.9 281.601 119 281.901 123.6C282.201 128.1 283.701 130.5 283.501 130.8C283.201 131.1 275.201 134.8 271.001 133.9L269.801 132.1C269.801 132.1 269.801 126.8 269.901 126.5C270.001 126.2 267.701 119.3 267.601 117.9C267.401 116.5 267.301 110.5 267.301 110.5L274.401 108C274.401 108 275.101 110.9 277.901 111.4C277.801 111.4 279.601 109.5 278.901 107.7Z" fill="#979FEF"/>
<path d="M260.2 123.4C260.2 123.4 259.3 125.6 259.4 126.1C259.5 126.5 266.3 131.7 270.3 133.7C270.3 133.7 269.9 136.2 270.9 137.6C270.9 137.6 273.1 136.8 274.4 135.8C274.4 135.8 273.8 134.4 273.9 134.4C274 134.4 274.9 135.1 275.6 135.3C276.3 135.6 277 134.9 276.1 134.3C275.2 133.7 273.7 132.6 272.8 132.5C271.9 132.4 271.3 132.4 271.3 132.4C271.3 132.4 264.8 125.7 263.8 124L261.9 122.6L260.2 123.4Z" fill="#F7D5A0"/>
<path d="M266.701 121.4C266.701 121.4 262.201 119.9 259.701 120.7L259.301 124.7L264.201 124.5L266.701 121.4Z" fill="#4664F2"/>
<path d="M280.999 132C278.399 129.5 277.799 112.1 277.699 111.4H277.899C277.899 111.6 278.499 129.4 281.099 131.9L280.999 132Z" fill="white"/>
<path d="M275.101 106.8C275.101 106.8 272.801 108.2 272.801 108.3C272.801 108.4 274.201 112.2 277.301 113.2L277.901 111.4C277.801 111.4 275.301 108.9 275.101 106.8Z" fill="#4664F2"/>
<path d="M278.901 107C278.901 107 278.901 109.7 277.801 111.3L278.601 113C278.601 113 280.701 110.9 280.001 108.3L278.901 107Z" fill="#4664F2"/>
<path d="M276.599 115.9C276.499 115.9 276.399 115.9 276.399 115.8C276.299 115.7 276.199 115.5 276.299 115.3C276.399 115.1 276.499 114.9 276.699 114.9C276.799 114.9 276.799 114.9 276.899 114.9C277.199 115.1 277.199 115.4 277.199 115.5C277.099 115.7 276.799 115.9 276.599 115.9ZM276.699 115.1C276.599 115.1 276.499 115.2 276.499 115.4C276.499 115.4 276.399 115.6 276.499 115.7H276.599C276.699 115.7 276.899 115.6 276.899 115.5C276.999 115.4 276.899 115.2 276.699 115.1Z" fill="white"/>
<path d="M277.099 121.6C276.999 121.6 276.899 121.6 276.899 121.5C276.799 121.4 276.699 121.2 276.799 121C276.899 120.8 276.999 120.6 277.199 120.6C277.299 120.6 277.299 120.6 277.399 120.6C277.699 120.8 277.699 121.1 277.699 121.2C277.499 121.5 277.299 121.6 277.099 121.6ZM277.099 120.8C276.999 120.8 276.899 120.9 276.899 121.1C276.899 121.1 276.799 121.3 276.899 121.4H276.999C277.099 121.4 277.299 121.3 277.299 121.2C277.399 121.1 277.399 121 277.099 120.8C277.199 120.8 277.199 120.8 277.099 120.8Z" fill="white"/>
<path d="M278.099 127.9C277.999 127.9 277.899 127.9 277.899 127.8C277.799 127.7 277.699 127.5 277.799 127.3C277.899 127.1 277.999 126.9 278.199 126.9C278.299 126.9 278.299 126.9 278.399 126.9C278.699 127.1 278.699 127.4 278.699 127.5C278.499 127.7 278.299 127.9 278.099 127.9ZM278.199 127.1C278.099 127.1 277.999 127.2 277.999 127.4C277.999 127.4 277.899 127.6 277.999 127.7H278.099C278.199 127.7 278.399 127.6 278.399 127.5C278.499 127.3 278.399 127.2 278.199 127.1Z" fill="white"/>
<path d="M245.3 175.5C242.4 178.4 243.8 182 248.6 182C253.5 181.9 255.8 178 254.3 176.4C252.8 174.8 248.8 172 245.3 175.5Z" fill="#D1D3D4"/>
<path d="M253.699 175.8C253.999 176.9 254.099 177.9 253.099 178.3C250.999 179.1 251.299 178 248.799 179C246.299 180 243.899 179 243.699 178.5C243.599 180.4 245.299 182 248.599 182C253.499 181.9 255.799 178 254.299 176.4C254.199 176.2 253.999 176 253.699 175.8Z" fill="#BCBEC0"/>
<path d="M28.0008 164.7L27.3008 166.3L28.3008 167.2H28.9008L29.9008 165.5L28.0008 164.7Z" fill="#F7D5A0"/>
<path d="M27.3004 166.3C27.3004 166.3 26.3004 166.7 25.9004 168.8C25.9004 168.8 27.5004 170.3 30.2004 171.4C32.9004 172.4 35.3004 172 35.3004 171.6C35.3004 171.1 35.1004 170.4 32.5004 169.5C29.8004 168.7 29.2004 167.8 28.9004 167.2C28.9004 167.2 28.1004 167.2 27.3004 166.3Z" fill="#303087"/>
<path d="M50.6992 167.4L51.5992 169.5L53.3992 168.7L52.3992 166.1L50.6992 167.4Z" fill="#F7D5A0"/>
<path d="M33.7 130.5C33.7 132.8 33.3 156.2 27 164.7C27 164.7 28.3 166.1 30.4 166.7C30.4 166.7 41.8 146.1 41.8 138.1C41.8 130.2 33.7 130.5 33.7 130.5Z" fill="#3C6D8A"/>
<path d="M33.7 130.5C33.7 132.8 33.3 156.2 27 164.7C27 164.7 28.3 166.1 30.4 166.7C30.4 166.7 41.8 146.1 41.8 138.1C41.8 130.2 33.7 130.5 33.7 130.5Z" fill="#223FA8"/>
<path d="M53.2002 168.2C53.2002 168.2 52.1002 168.8 51.3002 168.8C51.3002 168.8 51.1002 170.3 52.0002 171.4C52.0002 171.4 55.9002 172.4 61.1002 170.1C61.1002 170.1 61.2002 169.2 59.7002 168.9C58.2002 168.7 56.0002 169.8 53.2002 168.2Z" fill="#303087"/>
<path d="M33.1992 125C32.7992 125.8 31.8992 131.4 34.9992 136.8C38.0992 142.2 46.0992 148.6 46.2992 149.7C46.4992 150.8 49.5992 165.4 50.1992 167.5C50.1992 167.5 52.6992 167.7 53.8992 166.4C53.8992 166.4 52.0992 153.4 51.6992 147.5C51.6992 147.5 43.9992 130.3 42.3992 127C40.7992 123.6 33.1992 125 33.1992 125Z" fill="#3333CC"/>
<path d="M42.4999 101.5C42.4999 101.5 41.9999 104 40.6999 105C39.2999 106 32.3999 106.6 32.7999 126.3C32.7999 126.3 42.0999 132.4 44.8999 131.7C44.8999 131.7 46.4999 125.4 46.8999 120.8C46.8999 120.8 54.0999 123.7 58.8999 124.1L60.5999 121.6C60.5999 121.6 61.1999 121.8 62.4999 122.2V120.8C62.4999 120.8 48.4999 113.3 43.6999 107C43.6999 107 44.4999 104.9 45.2999 103.8C46.0999 102.7 42.8999 101.4 42.8999 101.4L42.4999 101.5Z" fill="#979FEF"/>
<path d="M40.8008 104.9C42.1008 103.8 42.6008 101.4 42.6008 101.4H43.0008C43.0008 101.4 46.3008 102.6 45.4008 103.8C44.6008 104.9 43.8008 107 43.8008 107C42.8008 107.5 41.5008 106.8 40.8008 104.9Z" fill="#F7D5A0"/>
<path d="M44.6008 105.1C43.8008 104.6 42.8008 103.6 42.3008 102.4C42.5008 101.9 42.5008 101.5 42.5008 101.5H42.9008C42.9008 101.5 43.3008 101.7 43.9008 101.9L44.1008 102.5L45.1008 104.1C45.0008 104.4 44.8008 104.8 44.6008 105.1Z" fill="#F7D5A0"/>
<path d="M50.0006 94.2C50.0006 94.9 51.0006 98.2 50.5006 102.1L49.3006 101.7C49.3006 101.7 45.4006 110.4 42.2006 100.4C38.9006 90.5 47.8006 93.7 47.8006 93.7L50.0006 94.2Z" fill="#F7D5A0"/>
<path d="M47.7993 92.1C48.4993 92.3 51.4993 90 52.5993 91.8C53.5993 93.7 53.1993 98.1 48.0993 96.4C42.9993 94.7 42.5993 101.6 42.4993 101.2C42.4993 101.2 40.3993 101.2 40.6993 96.5C40.9993 91.9 43.4993 90.9 47.7993 92.1Z" fill="black"/>
<path d="M44.5995 98.3C43.9995 97.6 43.4995 96.8001 42.5995 97.7001C41.6995 98.6001 42.9995 100.5 43.6995 100.1C44.3995 99.6001 44.5995 98.3 44.5995 98.3Z" fill="#F7D5A0"/>
<path d="M41.1992 104.5C41.1992 104.5 41.1992 105.8 43.6992 107L44.2992 108.7C44.2992 108.7 41.7992 108.6 40.1992 105.2L41.1992 104.5Z" fill="#4664F2"/>
<path d="M43.9992 106.4L45.0992 108.6L43.6992 107L43.9992 106.4Z" fill="#AEE2FF"/>
<path d="M60.4996 121.7C60.4996 121.7 62.6996 122.4 63.4996 122.5C64.6996 122.6 66.3996 122.5 66.3996 122.8C66.4996 123.1 65.3996 123.2 65.3996 123.2C65.3996 123.2 66.7996 123.1 66.8996 123.5C66.8996 123.9 65.4996 123.9 65.4996 123.9C65.4996 123.9 66.7996 123.9 66.6996 124.3C66.5996 124.8 63.9996 124.5 63.9996 124.5C63.9996 124.5 65.6996 125 65.4996 125.3C65.2996 125.6 62.1996 125.5 60.9996 125.1C59.9996 124.7 59.0996 123.7 59.0996 123.7L60.4996 121.7Z" fill="#F7D5A0"/>
<path d="M61.0996 170.1C61.0996 170.1 61.0996 169.9 60.8996 169.6C59.3996 170.5 52.6996 171.4 51.5996 171C51.6996 171.2 51.7996 171.3 51.8996 171.5C51.9996 171.4 55.8996 172.4 61.0996 170.1Z" fill="#1C6287"/>
<path d="M30.2008 171.4C32.9008 172.4 35.3008 172 35.3008 171.6C35.3008 171.6 35.3008 171.5 35.3008 171.4C30.2008 172.2 26.0008 168.3 26.0008 168.2C25.9008 168.4 25.9008 168.6 25.8008 168.8C25.8008 168.9 27.5008 170.4 30.2008 171.4Z" fill="#1C6287"/>
</svg>
