<?xml version="1.0" encoding="utf-8"?>
<!-- Generator: Adobe Illustrator 19.1.0, SVG Export Plug-In . SVG Version: 6.00 Build 0)  -->
<svg version="1.1" id="Layer_1" xmlns="http://www.w3.org/2000/svg" xmlns:xlink="http://www.w3.org/1999/xlink" x="0px" y="0px"
	 viewBox="778 -152 646 335" style="enable-background:new 778 -152 646 335;" xml:space="preserve">
<style type="text/css">
	.st0{fill:#F1F2F2;}
	.st1{fill:#D1D3D4;}
	.st2{fill:#3333CC;}
	.st3{fill:#FF643B;}
	.st4{fill:#E6E7E8;}
	.st5{fill:#FFFFFF;}
	.st6{fill:#FFAB3B;}
	.st7{fill:none;stroke:#FFFFFF;stroke-width:4.0424;stroke-miterlimit:10;}
	.st8{fill:#D45430;}
	.st9{fill:#F7D5A0;}
	.st10{fill:#2582B5;}
	.st11{fill:#20709C;}
	.st12{fill:#154965;}
	.st13{fill:#FF653B;}
	.st14{fill:#4545FF;}
	.st15{fill:#939598;}
	.st16{fill:#A7A9AC;}
	.st17{fill:#BCBEC0;}
	.st18{fill:#2173A1;}
	.st19{fill:#6161D1;}
	.st20{fill:#8F8FF9;}
	.st21{fill:#0E3144;}
	.st22{fill:#FF933B;}
	.st23{fill:none;stroke:#FFFFFF;stroke-width:2.7214;stroke-miterlimit:10;}
	.st24{fill:none;stroke:#FFFFFF;stroke-width:2;stroke-miterlimit:10;}
	.st25{fill:#0C2838;}
	.st26{fill:#1F6C96;}
	.st27{fill:#FF802C;}
	.st28{fill:#FFDDB1;}
</style>
<g>
	<path class="st0" d="M1352-23.5c0,0,34.2,1.9,31.7,18.4c-2.5,16.4-55.2,14.5-83.9,14.2c-28.7-0.3-193,1.1-220.9-9.1
		c-25.5-9.3,3.7-46.6,52.7-29.2c0,0,28.1-40.7,79.9-51c80.2-15.9,88.2,36.5,88.2,36.5s22-21.6,46.6-5.3
		C1358.2-41.1,1352-23.5,1352-23.5z"/>
	<path class="st1" d="M1157.8-67.7c0,0-8.3,0.8-8.4,9.1c0,6.1,9,6.4,19.9,7.4c7.5,0.7,50.8,2.4,60-3.5c7.7-5,6.9-18.9-13-20
		c-1.2-0.1,11.2-22.8-20.7-28.5c-22.3-4-25.1,15.2-25.1,15.2s-11.8-1.7-15.9,8.7C1151.5-71.4,1157.8-67.7,1157.8-67.7z"/>
	<path class="st2" d="M1094.3-3.8c-4.2,0-8.7-0.4-13.4-1.1l0.2-1.5c14.6,2.4,27.1,0.9,36.1-4c7.4-4.1,12.3-10.6,13.9-18.2
		c2.4-11.3-3.3-22.2-12.9-24.6c-4.1-1.1-7.5-0.6-10.3,0.5c4.5,6.3,8.3,13.7,7.2,19.3c-0.7,3.3-2.9,5.7-6.7,7.1
		c-7,2.7-10.4,0.3-11.8-1.4c-3.3-4-2.7-12,1.6-18.5c2-3.1,4.6-5.5,7.4-7.1c-4.9-6.6-10.2-11.7-10.3-11.8l1.1-1.1
		c0.4,0.4,5.7,5.6,10.6,12.3c3.5-1.5,7.5-1.8,11.5-0.7c5.2,1.3,9.5,4.9,12,9.9c2.5,4.9,3.2,10.7,2,16.5c-1.7,8.1-6.9,14.9-14.7,19.3
		C1111.6-5.6,1103.5-3.8,1094.3-3.8z M1106.6-52.1c-3.6,1.9-5.9,4.9-7,6.6c-3.8,5.9-4.5,13.3-1.6,16.8c2,2.4,5.4,2.7,10,1
		c3.3-1.3,5.2-3.2,5.7-6C1114.7-38.9,1110.9-46,1106.6-52.1z"/>
	<path class="st3" d="M1090.7-79.4c1.7,2.4,10.2,3,12.8,0.8c2.5-2.2-0.1-5.2,4.2-12c4.3-6.8,8.7-5.4,9.2-19.2
		c0.5-12.9-10.6-18-19.8-18.1c-6.1-0.1-19.4,4.1-19.7,19.5c-0.2,8.5,6.9,12.6,11,17.8C1092.2-85.6,1088.8-82.1,1090.7-79.4z"/>
	<path class="st4" d="M1090-77.9c0,0.2,8.6,2.7,14.1,0.6c0,0,1.2,12-3.7,13.1c-4.9,1.1-9.6,0-10-2.4
		C1090.1-68.9,1090-77.9,1090-77.9z"/>
	<path class="st5" d="M1105.4-106.5c-1.4,0.5-2.9,4.2-4,7.7c-1.6-0.1-2.6-0.9-3.4-2c4.2-4.3,4.7-11.9,3.7-15.4
		c-0.6-1.9-1.5-2.1-2.1-2.1c-2.6,0.3-4.4,6.3-4.3,11.4c0,2.4,0.5,4.4,1.3,5.9c-0.5,0.4-0.9,0.8-1.5,1c-0.1,0.1-0.2,0.1-0.3,0.2
		c-0.4-5.3-1.3-9.9-2.9-11.5c-0.5-0.5-1.1-0.7-1.7-0.6c-1,0.1-1.7,0.8-2.1,1.9c-0.9,2.9,1.1,8.4,3.7,10.5c0.7,0.5,1.4,0.9,2.1,0.9
		c0.5,7.4,0.3,16.2,0,20.8c0.2,0,0.4,0.1,0.5,0.1h0.6c0-0.7,0.6-11.7,0-21c0.3-0.1,0.5-0.2,0.8-0.3c0.6-0.3,1.1-0.6,1.6-1.1
		c0.9,1.3,2.3,2.1,3.9,2.3c-0.3,0.9-0.5,1.7-0.6,2.4c-0.8,3.3-2.5,11.5-1.5,18c0.4,0,0.8-0.1,1.1-0.1c-0.7-4.4-0.2-10.8,1.5-17.6
		c0.2-1,0.5-1.9,0.8-2.8c2-0.5,3.3-3.1,3.8-3.9c0.8-1.6,1.4-3.7,0.6-4.6C1106.5-106.4,1106.1-106.7,1105.4-106.5z M1092.4-100.3
		c-2.3-1.9-4.1-6.8-3.3-9.3c0.3-1,0.9-1.1,1.1-1.1h0.1c0.3,0,0.5,0.1,0.8,0.3c1.4,1.3,2.2,5.6,2.6,10.7
		C1093.3-99.7,1092.8-100,1092.4-100.3z M1097.5-101.7c-0.8-1.7-1-3.8-1-5.1c-0.1-5.1,1.7-10.2,3.3-10.3l0,0c0.2,0,0.6,0.4,0.8,1.3
		C1101.6-112.6,1101.2-105.7,1097.5-101.7z M1104.8-101.7c-0.5,1-1.3,2-2.1,2.5c1.3-3.8,2.5-6,3.1-6.3h0.1
		C1106-105.1,1105.8-103.6,1104.8-101.7z"/>
	<path class="st2" d="M1098.6-71.1c-6.3-0.2-10.2-2.2-10.4-2.3c-0.3-0.2-0.4-0.5-0.2-0.8c0.2-0.3,0.5-0.4,0.8-0.2
		c0.1,0,6.5,3.4,16,1.7c0.3,0,0.6,0.2,0.6,0.5s-0.2,0.6-0.5,0.6C1102.6-71.2,1100.5-71.1,1098.6-71.1z"/>
	<path class="st2" d="M1099.1-67.1c-6-0.1-9.9-1.4-10.1-1.4c-0.3-0.1-0.5-0.4-0.3-0.7c0.1-0.3,0.4-0.5,0.7-0.3
		c0.1,0,6.5,2.1,15.3,1.2c0.3,0,0.6,0.2,0.6,0.5s-0.2,0.6-0.5,0.6C1102.8-67.1,1100.9-67,1099.1-67.1z"/>
	<path class="st0" d="M1101.1,173.2c175.4,0,317.5-12.6,317.5-28.1S1276.5,117,1101.1,117s-317.5,12.5-317.5,28.1
		C783.6,160.6,925.7,173.2,1101.1,173.2z"/>
	<path class="st6" d="M952.7,135.9c6.9-1.9,28.1-10.2,20.3-19.5c-8.2-9.7-23.8,1.9-23.8,1.9s51.9-42.8,35.4-59
		c-13.1-12.8-41.2,8.8-41.2,8.8S1030-67.3,946.8-103c-88.5-37.9-93.2,130.7-67.6,158.7c0,0-32.3-21.3-45.9-11.1
		c-21.2,15.9,13.2,82.2,69.1,93C915.6,140.1,937.3,140.2,952.7,135.9z"/>
	<path class="st7" d="M934.6-67.4c0,0-40.6,134.1-5.1,206.7"/>
	<path class="st7" d="M943.9-11.6c0,0-6.9,41.5-28.7,65.8"/>
	<path class="st7" d="M898-5.9c0,0-13.5,78.1,20.2,107.3"/>
	<path class="st7" d="M959.5,83.2c0,0-14.7,26.1-37.2,36.5"/>
	<path class="st7" d="M860.7,77c0,0,25.2,45.1,65,52.6"/>
	<path class="st7" d="M953.3,127.2c0,0-7.7,5.2-25.4,7.9"/>
	<path class="st2" d="M987-44.7c0,0,9.6-7.8,19.6-10.2c10-2.4,18.6,0.1,18.6,0.1l10.6-2.5c0,0,19.3,4,28.3,13v19.8
		c0,0-1.8,16.9-2.1,17.2c-0.3,0.3-8.7,4.9-8.7,4.9l-3.4,11.1l-0.9,5.2l-2,14.8l-23.2,0.6l-31.3-8.6l-9.2-35.8L987-44.7z"/>
	<path class="st8" d="M990.2,24.9c-0.4-0.2-18.6-9.6-31.1-2.2s-6.6,24.2-6.6,24.2l20.5,2.5c0,0,26.5-0.5,28-1.1
		c1.6-0.6,8.5-14.3,8.5-14.3l-14.8-8.8L990.2,24.9z"/>
	<path class="st9" d="M985.7,44.3c0,0-6,0.7-12.2-0.8L974,56l11.1-0.4L985.7,44.3z"/>
	<path class="st10" d="M951.5,33.8c0,0-9.3,10.3-0.7,23.9l25.8-1.8c0,0-3.3-4.2-1.6-12.1C975.1,43.8,962,30.9,951.5,33.8z"/>
	<path class="st11" d="M958.1,33.8c-4.3,3.3-9.2,10.4-4.5,23.7l-2.8,0.2c-8.7-13.6,0.7-23.9,0.7-23.9
		C953.6,33.2,955.9,33.3,958.1,33.8z"/>
	<path class="st9" d="M1034.8-58.4c0,0,3.4,2.5,2.5,6.6s-8.5,17.7-17.7,20c0,0-17.2-12.9-12.6-24.3c4.5-11.4,11.2-6,11.2-6
		L1034.8-58.4z"/>
	<path class="st9" d="M1006.9-56.1c4.5-11.4,11.2-6,11.2-6l16.7,3.7c0,0,0.5,0.3,1,1c0,0-2,13-15.3,14.4
		C1008.6-41.6,1006.2-54.3,1006.9-56.1z"/>
	<path class="st5" d="M1018.8-42.7c-5.1,0-8.1-2.7-9.6-5c-2.4-3.5-2.8-7.4-2.4-8.3c2.4-6.1,5.4-7.4,7.6-7.4c2.1,0,3.6,1.1,3.8,1.3
		l16.7,3.7c0,0,0.5,0.4,1,1l0,0v0.1c0,0.1-2.2,13.1-15.4,14.5C1020-42.7,1019.4-42.7,1018.8-42.7z M1014.4-63.2
		c-2.9,0-5.5,2.5-7.3,7.2c-0.3,0.8,0.1,4.7,2.4,8.1c1.5,2.2,4.4,4.9,9.4,4.9c0.5,0,1.1,0,1.7-0.1c12.5-1.4,15-13.3,15.2-14.3
		c-0.5-0.5-0.8-0.8-0.9-0.9l-16.7-3.7C1018-62,1016.5-63.2,1014.4-63.2z"/>
	<path class="st9" d="M1035.9-84.7c0,0,10.9,32.6-14.1,37.1c-24.9,4.5-16.6-37-16.6-37l19-3.9L1035.9-84.7z"/>
	<path class="st9" d="M1005-69.1c0,0-1.9-3-5.2-1.9c-3.3,1.1,2.2,15.2,7.2,13C1012.1-60.1,1005-69.1,1005-69.1z"/>
	<path class="st12" d="M1033.6-82.4c0,0-10,17.5-29.7,12.2s-9-17.4-9-17.4s2,2.5,3.6,2.5c1.6-0.1,9.4-18.4,26.8-16.2
		c17.4,2.3,12.1,7.8,12.1,7.8s3.6-1,6.8,3.6c3.2,4.6,3.5,17.7-3.3,21.4l-2.9-3.1C1038.2-71.7,1037.2-76.9,1033.6-82.4z"/>
	<path class="st9" d="M1037.1-70.3c0,0,1.7-3.1,5-2.3c3.3,0.8-1,15.3-6.2,13.5C1030.7-60.8,1037.1-70.3,1037.1-70.3z"/>
	<path class="st13" d="M981.5,43.1c0,0-1,9.1,0.5,13.8c0,0,61.3,5.2,85.9-3.3c24.5-8.5,27.9-19.2,18.8-27.2
		C1077.6,18.3,1042.5,16,981.5,43.1z"/>
	<path class="st9" d="M1062.8,44.5c0,0-10.6,12.3-14,12.7l13.4-0.5l4.4-2.5l0.5-5.8L1062.8,44.5z"/>
	<path class="st10" d="M1085.6,32.8c0,0,10.1,9.6,2.5,23.8l-25.9,0.2c0,0,3-4.4,0.6-12.1C1062.8,44.5,1074.9,30.7,1085.6,32.8z"/>
	<path class="st11" d="M1079,33.3c4.5,3,10,9.7,6.3,23.3h2.8c7.6-14.2-2.5-23.8-2.5-23.8C1083.4,32.3,1081.2,32.6,1079,33.3z"/>
	<path class="st5" d="M1069.1,55c0.1-0.2,1.4-5.5-0.9-10.2l-0.6,0.3c2.2,4.4,0.9,9.6,0.8,9.7L1069.1,55z"/>
	<path class="st5" d="M1073.2,54.9c0.1-0.3,1.6-6.8-1.9-11.9l-0.6,0.4c3.3,4.9,1.8,11.3,1.8,11.3L1073.2,54.9z"/>
	<path class="st5" d="M972.1,54.6l0.7-0.2c-1.8-6.6-0.3-9.6-0.3-9.6l-0.6-0.3C971.9,44.5,970.2,47.7,972.1,54.6z"/>
	<path class="st5" d="M968,54.7l0.7-0.2c-2.5-7.1,1.5-11,1.6-11.1l-0.5-0.5C969.6,42.9,965.3,47.1,968,54.7z"/>
	<path class="st14" d="M1064.1-44.4c0,0,22.1,25.1,27.2,50.3c5.2,25.3-40.9,31.1-59,25.9l-1.8-11.9c0,0,24.4-11,24-15.7
		c-0.4-4.7-1.1-6.6-1.1-6.6S1046.3-24.3,1064.1-44.4z"/>
	<path class="st14" d="M987-44.7c0,0-39.5,36-34.3,54c4.6,16.3,42.9,26.7,54.7,24.9v-9.4c0,0-25.4-14.1-23.9-20.3
		c0.9-3.7,3.4-6.3,3.4-6.3S999.1-36.7,987-44.7z"/>
	<path class="st15" d="M985.7,34.6V36l18.2-0.1v-1.3H985.7z"/>
	<path class="st15" d="M1034.6,34.6V36l18.2-0.1v-1.3H1034.6z"/>
	<path class="st16" d="M975.3,39.7h90v-4.1L974.5,36L975.3,39.7z"/>
	<path class="st1" d="M975.7,34.6h87.8l1.9-58.2l-92.1-0.3L975.7,34.6z"/>
	<path class="st5" d="M1018.5-2.9c5.2-0.5,11.2,1.6,11.4,9.4s-15.8,10.5-16.8,1.7C1012-0.7,1016.7-2.7,1018.5-2.9z"/>
	<path class="st2" d="M892.5-62.2c-3-1.8-6.2-3.6-9-5.7c-3-2.2-6.4-5.2-7.1-9c-0.3-1.3,0-2.5,0.6-3.6c0.8-1.2,1.6-1.6,2.9-1.4
		c2,0.3,4,1.4,5.8,2.2c3.5,1.7,6.8,3.7,10.1,5.7c3.3,1.9,6.7,3.8,9.9,6c0.9,0.6,1.9,1.3,2.8,2c1.1,0.9,1.6,1.3,1.4,3
		c-0.1,1-0.5,2.2-1,3c-1,1.5-2.3,1.6-3.8,0.8c-3.5-1.8-7-4-10.3-6.1c-3.4-2.1-7.1-4.2-10.1-6.7c-0.9-0.8-2.3-2-2.5-3.3
		c-0.4-2,2.9-0.6,3.9-0.2c4.1,1.6,7.6,4.4,11.2,6.7c0.8,0.5,1.6-0.8,0.8-1.3c-4.2-2.7-8.2-6-13.1-7.4c-2.4-0.7-5.2-0.2-4.1,2.9
		c1.4,3.8,5.9,5.9,9,7.9c4.6,3,9.2,5.7,13.9,8.4c1.6,0.9,3.2,1.6,5,0.6c1.8-1,2.5-3.3,2.8-5.2c0.3-1.8-0.2-2.8-1.6-3.9
		c-2.2-1.7-4.5-3.2-6.8-4.6c-4.7-2.8-9.5-5.7-14.4-8.3c-2.1-1.1-4.1-2.1-6.3-2.8c-1.8-0.6-3.7-1.6-5.3-0.1c-4.1,3.8-1.5,9,1.6,12.4
		c3.6,4,8.7,6.6,13.2,9.4C892.5-60.4,893.3-61.7,892.5-62.2z"/>
	<path class="st1" d="M1273,62.4c34.4,19.8,30.8,61.8-14.1,77.9c-44.8,16.1-76.4-16.2-66.7-37.9C1201.8,80.7,1231.3,38.4,1273,62.4z
		"/>
	<path class="st17" d="M1196.1,94.5c-0.3,12.2,2.1,23.2,11.7,23.3c21.6,0.3,15.7-9.5,41-7.1c25.3,2.4,44.7-16.8,45.8-23.1
		c5.8,19.5-5.7,41.8-35.7,52.6c-44.8,16.1-76.4-16.2-66.7-37.9C1193.2,100,1194.6,97.3,1196.1,94.5z"/>
	<path class="st2" d="M1213,165.1c-2.8,0-5.6,1.1-5.6,2.9c0,3.7,11.4,2.3,11-0.8C1218.2,165.7,1215.2,165.1,1213,165.1z"/>
	<path class="st3" d="M941.1,178.1c-3,0.1-6.1,1.1-6.1,2.7c-0.1,3.3,12.3,1.7,11.9-1C946.7,178.5,943.4,178.1,941.1,178.1z"/>
	<path class="st2" d="M915,162.3c5.1,0.5,12.7,3,10.9,7.8s-21.2,3.7-22.1-2.3C902.8,161.8,911,161.9,915,162.3z"/>
	<path class="st2" d="M875.4-135.4c1.9-1.5,4.2-3.1,6.8-3c1.1,0.1,2.2,0.5,2.9,1.3c0.6,0.7,1,1.6,1.8,2.3c3.5,2.9,5.8-2.7,8.3-3.9
		c1.1-0.6,0.2-2.3-0.9-1.7c-1.9,1-2.7,3.3-4.5,4.2c-1.5,0.7-2.2-0.7-3-1.7c-0.5-0.7-1.2-1.3-2-1.7c-3.8-1.9-7.7,0.6-10.7,2.9
		C873.1-136.1,874.4-134.7,875.4-135.4z"/>
	<path class="st2" d="M817.8,6.6c3.9,0.2,7.8,0,11.7-0.6c1.2-0.2,0.7-2-0.5-1.9c-3.7,0.6-7.4,0.8-11.2,0.5
		C816.6,4.6,816.6,6.5,817.8,6.6z"/>
	<path class="st2" d="M1311.2-118.2c-3.7,2.3-7,5.1-10,8.2c0.5,0.2,1,0.5,1.4,0.7c0.6-3.5,1.3-6.9,2.1-10.3c0.2-1.1-1.4-1.7-1.7-0.6
		c-0.8,3.6-1.5,7.2-2.1,10.7c-0.1,0.7,0.9,1.3,1.4,0.7c2.8-3.1,6.1-5.7,9.6-8C1313-117.3,1312.2-118.9,1311.2-118.2z"/>
	<path class="st2" d="M1111-134.7c2.1-4.3,4.4-8.5,6.9-12.7c0.5-0.8-0.7-1.5-1.2-0.7c-2.5,4.1-4.8,8.3-6.9,12.7
		C1109.4-134.6,1110.6-133.9,1111-134.7z"/>
	<path class="st2" d="M1116.6-128.7c4.1-2.4,8.4-4.6,12.8-6.5c0.8-0.4,0.1-1.6-0.7-1.2c-4.4,1.9-8.6,4.1-12.8,6.5
		C1115.1-129.5,1115.8-128.3,1116.6-128.7z"/>
	<path class="st2" d="M1104-136.7c-2.4-4.2-3-9.4-3.3-14.2c-0.1-0.9-1.4-0.9-1.4,0c0.3,5,1,10.4,3.5,14.9
		C1103.2-135.2,1104.4-135.9,1104-136.7z"/>
	<path class="st2" d="M864.1-73c-1-5.8-0.5-17.5,7.6-17.9c0.6,0,0.5-0.9-0.1-0.9c-8.7,0.4-9.5,12.5-8.4,18.8
		C863.3-72.4,864.2-72.5,864.1-73z"/>
	<path class="st2" d="M872.3-91.6c0.1,0.3,0.1,0.5-0.1,0.8c-0.2,0.2-0.3,0.3-0.6,0.3c-2,0.1-3.6,0.9-4.9,2.4c-3.2,4-3,11.6-2.4,15
		c0.1,0.4-0.2,0.8-0.5,0.8c-0.4,0.1-0.9-0.1-1.1-0.6c-0.9-5.1-0.4-12.3,2.8-16.2c1.5-1.9,3.5-2.9,6-3
		C871.9-92.2,872.2-92,872.3-91.6z M863.7-73c-0.6-3.6-0.9-11.4,2.5-15.6c1.4-1.7,3.2-2.6,5.4-2.7l0,0v-0.1c0-0.1-0.1-0.1-0.1-0.1
		c-2.2,0.1-4.1,1-5.4,2.7c-3,3.8-3.5,10.7-2.6,15.7C863.5-73,863.5-73,863.7-73C863.7-72.9,863.7-72.9,863.7-73z"/>
	<path class="st2" d="M859.9-82.3c-0.4-4.1,1.6-7.6,4.6-10.2c0.4-0.4-0.1-1.1-0.5-0.8c-3.2,2.8-5.4,6.6-4.9,11
		C859-81.6,859.9-81.7,859.9-82.3z"/>
	<path class="st2" d="M864.9-93.1c0.1,0.3,0,0.7-0.2,0.9c-3.2,2.8-4.8,6.4-4.4,9.9c0,0.4-0.2,0.8-0.6,0.8c-0.5,0.1-0.9-0.2-1-0.7
		c-0.5-5.2,2.4-9,5.1-11.3c0.2-0.2,0.4-0.2,0.6-0.2C864.6-93.6,864.8-93.4,864.9-93.1z M859.3-82.2c0,0.1,0.1,0.1,0.2,0
		c0.1,0,0.1,0,0.1-0.1c-0.4-3.8,1.3-7.5,4.7-10.5c0,0,0.1-0.1,0-0.2c0,0,0-0.1-0.1-0.1l0,0C861.6-90.8,858.8-87.1,859.3-82.2z"/>
	<path class="st2" d="M1372.1-65.4c-0.1,2.6,2.6,4.2,5,3.3c2.9-1.1,4-4.8,3.4-7.7c-1.3-6.1-11.6-0.1-7.9,5c0.3,0.5,1.1,0,0.8-0.5
		c-1.4-1.9-0.3-4.2,1.6-5.3c0.6-0.3,1.2-0.7,1.9-0.8c1.9-0.5,2.8,1.2,2.9,2.8c0.1,1.7-0.3,3.6-1.6,4.8c-1.7,1.7-5.2,1.3-5.1-1.6
		C1373-66,1372.1-65.9,1372.1-65.4z"/>
	<path class="st2" d="M1375.7-61.5c-1.1,0-2.2-0.4-2.9-1.2c-0.7-0.7-1.1-1.7-1-2.7c-0.6-1.3-0.4-2.8,0.5-4.2
		c1.1-1.8,3.4-3.1,5.3-3.1c1.7,0,2.9,1,3.3,2.8c0.6,3-0.6,6.9-3.6,8C1376.7-61.6,1376.2-61.5,1375.7-61.5z M1372.7-64.2
		c0.2,0.4,0.4,0.8,0.6,1.1c0.9,0.9,2.4,1.2,3.6,0.8c2.7-1,3.8-4.5,3.2-7.2c-0.4-1.9-1.6-2.3-2.6-2.3c-1.7,0-3.7,1.2-4.7,2.8
		c-0.5,0.7-0.9,1.8-0.5,3.1c0.1,0,0.2,0,0.2-0.1c-0.2-0.5-0.2-1-0.1-1.6c0.2-1.2,1.1-2.4,2.3-3.1c0.5-0.3,1.2-0.7,2-0.9
		c0.2-0.1,0.5-0.1,0.7-0.1c1.7,0,2.6,1.6,2.7,3.2c0.1,2-0.5,3.9-1.7,5.1c-0.7,0.7-1.7,1.1-2.7,1.1c-1.3,0-2.3-0.6-2.7-1.6l0,0V-64
		C1372.8-64.2,1372.7-64.2,1372.7-64.2z M1373.5-64.4c0.3,0.8,1.1,1.3,2.1,1.3c0.8,0,1.7-0.3,2.2-0.9c1-1,1.6-2.7,1.5-4.6
		c-0.1-1.3-0.7-2.5-1.9-2.5c-0.2,0-0.3,0-0.5,0.1c-0.7,0.2-1.3,0.5-1.8,0.8c-1.1,0.7-1.8,1.7-2,2.7c-0.2,0.8,0,1.5,0.5,2.2
		c0.2,0.2,0.2,0.4,0.1,0.6C1373.7-64.7,1373.6-64.5,1373.5-64.4z M1372.5-65.5c0,0.1,0.1,0.2,0.2,0.3c0-0.1,0-0.2,0-0.3l0,0
		C1372.7-65.5,1372.6-65.5,1372.5-65.5C1372.6-65.5,1372.5-65.5,1372.5-65.5z"/>
	<path class="st2" d="M801.8-49.5c-2,1.7-1.3,4.7,0.9,5.9c2.8,1.4,6.3-0.3,8-2.7c3.7-5-7.8-8.6-9.1-2.5c-0.1,0.6,0.8,0.8,0.9,0.2
		c0.5-2.4,2.9-3,5-2.4c0.6,0.2,1.3,0.5,1.9,0.8c1.6,1.1,1.1,2.9-0.1,4c-1.2,1.2-2.9,2.2-4.6,2c-2.4-0.2-4.4-2.9-2.2-4.9
		C802.9-49.3,802.2-49.9,801.8-49.5z"/>
	<path class="st2" d="M804.9-42.8c-0.8,0-1.6-0.2-2.4-0.5c-1.3-0.6-2.1-1.8-2.3-3.2c-0.2-1.3,0.3-2.4,1.3-3.3
		c0.7-1.6,2.4-2.6,4.5-2.6c2.3,0,4.6,1.1,5.4,2.7c0.4,0.8,0.6,2-0.5,3.5C809.5-44.1,807.1-42.8,804.9-42.8z M801.3-48.3
		c-0.3,0.5-0.4,1.1-0.3,1.7c0.2,1.1,0.8,2.1,1.9,2.7c0.6,0.3,1.3,0.5,2.1,0.5c2,0,4.2-1.2,5.5-3c0.7-1,0.8-1.9,0.4-2.8
		c-0.7-1.4-2.7-2.4-4.8-2.4c-1.6,0-2.9,0.6-3.6,1.7c0.1,0,0.2,0.1,0.2,0.1c0.7-1.1,1.9-1.7,3.5-1.7c0.5,0,1,0.1,1.5,0.2
		c0.5,0.2,1.3,0.4,2,0.9c0.7,0.5,1.1,1.1,1.1,1.8c0.1,0.9-0.3,1.9-1.2,2.8c-1.4,1.4-3,2.2-4.6,2.2c-0.1,0-0.2,0-0.3,0
		c-1.3-0.1-2.6-0.9-3.2-2.1c-0.4-0.8-0.4-1.6-0.1-2.3l0,0v-0.1C801.4-48.2,801.3-48.3,801.3-48.3z M802.1-47.9
		c-0.3,0.5-0.3,1.2,0,1.7c0.5,0.9,1.5,1.6,2.6,1.7c0.1,0,0.2,0,0.3,0c1.3,0,2.9-0.7,4.1-2c0.7-0.7,1.1-1.5,1-2.2
		c0-0.5-0.3-0.9-0.8-1.3c-0.6-0.4-1.3-0.6-1.8-0.8c-0.5-0.1-0.9-0.2-1.3-0.2c-1.7,0-2.9,0.9-3.3,2.4
		C802.7-48.1,802.4-47.8,802.1-47.9z M802.1-49.3c0,0.1-0.1,0.2-0.1,0.3C802.1-49.1,802.1-49.1,802.1-49.3L802.1-49.3
		C802.2-49.2,802.2-49.3,802.1-49.3z"/>
	<path class="st2" d="M1029.4-134.8c3.2-0.8,6.3-1.8,9.2-3.2c0.5-0.3,0.1-1-0.5-0.8c-2.8,1.4-5.9,2.4-9,3.1
		C1028.6-135.5,1028.9-134.6,1029.4-134.8z"/>
	<path class="st2" d="M1029.3-134.4c-0.4,0-0.7-0.3-0.8-0.7s0.2-0.8,0.6-0.9c3.5-0.9,6.4-1.9,8.9-3.1c0.5-0.2,1.1,0.1,1.2,0.6
		c0.1,0.3-0.1,0.7-0.4,0.8c-2.6,1.3-5.7,2.3-9.3,3.3C1029.4-134.4,1029.4-134.4,1029.3-134.4z M1038.4-138.5L1038.4-138.5
		c-2.6,1.2-5.5,2.2-9.1,3.2c0,0-0.1,0-0.1,0.1c0,0,0,0.1,0.1,0.1c3.6-0.9,6.5-2,9.2-3.2l0,0C1038.5-138.4,1038.4-138.5,1038.4-138.5
		z"/>
	<path class="st2" d="M1029.7-140.1c2.2,2.7,5,4.9,6.9,7.9c0.3,0.5,1.1,0,0.8-0.5c-1.9-3-4.8-5.2-7-8
		C1030-141.2,1029.3-140.5,1029.7-140.1z"/>
	<path class="st2" d="M1036.9-131.7c-0.3,0-0.5-0.2-0.6-0.4c-1.1-1.7-2.5-3.1-3.9-4.6c-1-1-2.1-2.1-3-3.3c-0.2-0.3-0.2-0.6-0.1-0.9
		c0.2-0.3,0.4-0.5,0.7-0.5c0.2,0,0.4,0.1,0.6,0.3c0.9,1.1,2,2.2,3,3.3c1.4,1.5,2.9,3,4.1,4.8c0.2,0.3,0.2,0.5,0,0.8
		C1037.5-131.8,1037.2-131.7,1036.9-131.7z M1030.1-140.5C1030.1-140.5,1030-140.5,1030.1-140.5c-0.1,0.2-0.1,0.2-0.1,0.2
		c0.9,1.1,1.9,2.2,2.9,3.2c1.4,1.4,2.8,2.9,3.9,4.7c0.1,0.1,0.2,0,0.2,0s0,0,0-0.1c-1.1-1.7-2.5-3.2-4-4.7
		C1032.1-138.2,1031-139.3,1030.1-140.5z"/>
	<path class="st2" d="M1032.3-131.8c1.3-3,2.5-6,3.2-9.1c0.2-0.6-0.7-0.8-0.9-0.3c-0.8,3.1-1.9,6.1-3.2,9.1
		C1031.2-131.5,1032-131.3,1032.3-131.8z"/>
	<path class="st2" d="M1031.8-131.2c-0.3,0-0.5-0.2-0.7-0.3c-0.1-0.2-0.2-0.5,0-0.7c1.3-3,2.5-5.9,3.2-9c0.1-0.4,0.4-0.6,0.8-0.6
		c0.3,0,0.5,0.1,0.7,0.3c0.2,0.2,0.2,0.4,0.2,0.7c-0.8,3.2-2,6.1-3.2,9.1C1032.4-131.4,1032.1-131.2,1031.8-131.2z M1031.7-131.9
		C1031.7-131.9,1031.7-131.9,1031.7-131.9c0.2,0,0.2-0.1,0.3-0.1c1.3-3,2.5-5.9,3.2-9v-0.1h-0.1l0,0
		C1034.2-137.9,1033-134.9,1031.7-131.9z"/>
	<path class="st2" d="M1370.1,93.5c-0.9,2.6-1.7,5.2-2.6,7.9c-0.2,0.6,0.7,0.8,0.9,0.2c0.9-2.6,1.7-5.2,2.6-7.9
		C1371.2,93.2,1370.3,93,1370.1,93.5z"/>
	<path class="st2" d="M1368,102.3c-0.3,0-0.5-0.1-0.7-0.3c-0.2-0.2-0.2-0.5-0.1-0.7l2.6-7.9c0.1-0.3,0.4-0.6,0.8-0.6
		c0.3,0,0.5,0.1,0.7,0.3c0.2,0.2,0.2,0.5,0.1,0.7l-2.6,7.9C1368.6,102.1,1368.3,102.3,1368,102.3z M1370.6,93.6
		c-0.1,0-0.1,0-0.1,0.1l-2.6,7.9l0,0c0,0,0,0,0.1,0s0.1,0,0.1-0.1L1370.6,93.6L1370.6,93.6L1370.6,93.6z"/>
	<path class="st2" d="M1364.8,97.1c2.9,0.7,5.8,1.4,8.7,2.1c0.6,0.2,0.8-0.7,0.2-0.9c-2.9-0.7-5.8-1.4-8.7-2.1
		C1364.5,96.1,1364.3,97,1364.8,97.1z"/>
	<path class="st2" d="M1373.7,99.4c-0.1,0-0.1,0-0.2,0l-8.7-1.7c-0.4-0.1-0.7-0.4-0.6-0.8c0.1-0.5,0.5-0.9,1-0.8l8.7,1.7
		c0.4,0.1,0.7,0.4,0.6,0.8S1374.1,99.4,1373.7,99.4z M1364.9,96.8c-0.1,0-0.1,0.1-0.1,0.1c0,0.1,0,0.1,0,0.1l8.7,1.7
		c0.1,0,0.1-0.1,0.1-0.1c0-0.1,0-0.1,0-0.1L1364.9,96.8L1364.9,96.8z"/>
	<path class="st2" d="M1212.2-133.9c0.2,2.8,0.3,5.5,0.5,8.3c0,0.6,0.9,0.6,0.9,0c-0.2-2.8-0.3-5.5-0.5-8.3
		C1213-134.5,1212.1-134.4,1212.2-133.9z"/>
	<path class="st2" d="M1212.8-124.9c-0.2-0.2-0.4-0.4-0.4-0.6l-0.5-8.3c0-0.3,0.1-0.5,0.3-0.7c0.3-0.2,0.6-0.2,0.9,0
		c0.2,0.2,0.4,0.4,0.4,0.6l0.5,8.3c0,0.3-0.1,0.5-0.3,0.7C1213.4-124.8,1213-124.8,1212.8-124.9z M1212.7-134c0,0-0.1,0-0.2,0l0,0
		l0.5,8.3c0,0.2,0.2,0.1,0.2,0.1l0,0L1212.7-134C1212.7-133.9,1212.7-134,1212.7-134z"/>
	<path class="st2" d="M1208.7-128.5c2.9-0.5,5.9-0.9,8.8-1.3c0.6-0.1,0.3-0.9-0.2-0.9c-2.9,0.5-5.9,0.9-8.8,1.3
		C1207.8-129.3,1208.1-128.5,1208.7-128.5z"/>
	<path class="st2" d="M1208.2-128.3c-0.3-0.2-0.5-0.6-0.4-0.9c0-0.3,0.3-0.5,0.6-0.6l8.8-1.3c0.2,0,0.4,0,0.5,0.1
		c0.3,0.2,0.5,0.6,0.4,0.9c0,0.3-0.3,0.5-0.6,0.6l-8.8,1.3C1208.5-128.1,1208.3-128.2,1208.2-128.3z M1217.4-130.4
		C1217.4-130.4,1217.3-130.4,1217.4-130.4l-8.9,1.3l0,0c0,0,0,0.1,0.1,0.2c0,0,0,0,0.1,0l8.8-1.3l0,0
		C1217.5-130.2,1217.5-130.3,1217.4-130.4z"/>
	<path class="st9" d="M1248.6,92.6l-0.9,1.7l4.1,1.7c0,0,3.3-3.4,4.1-4.1l-2.8-2.2l-3.5,2.5L1248.6,92.6z"/>
	<path class="st9" d="M1248.6,92.6l-0.9,1.7l4.1,1.7c0,0,3.3-3.4,4.1-4.1l-2.8-2.2l-3.5,2.5L1248.6,92.6z"/>
	<path class="st6" d="M1244.7,95.2c0,0,1.5-1.4,3.5-1.8c0,0,2.5,2.2,3.7,2.7c0,0-0.5,2.4,0.1,5.5c0.6,3.1,2,9.1,1.7,9.4
		c-0.3,0.3-1,0.7-1.9,0.6C1251.7,111.6,1245.6,105,1244.7,95.2z"/>
	<path class="st13" d="M1252.7,111.5c-2.6-2.4-6.6-13.3-7.4-16.7c-0.4,0.3-0.6,0.5-0.6,0.5c0.9,9.9,7.1,16.4,7.1,16.4
		C1252.1,111.6,1252.4,111.5,1252.7,111.5z"/>
	<path class="st2" d="M1232,50.5c0,0-16.9,12.2-15.3,20.7c1.6,8.5,13.1,17.9,32,21.2l2.6-4.3c0,0-18-12.4-15.5-18.2
		c2.5-5.8,10.6-9.6,13.1-9.8c2.4-0.2,11.8,4.8,12.2,7.2c0.3,2.4-8.5,20.5-8.5,20.5l0.3,4.5l4.9-0.9c0,0,21.3-22.2,20.4-28
		c-0.9-5.8-16.1-13.9-16.1-13.9l-16.8-0.6L1232,50.5z"/>
	<path class="st9" d="M1249.9,91.5l0.8-2c0,0,7.1,1.8,6.8,2.2c-0.3,0.4-3.1,3.1-3.1,3.1L1249.9,91.5z"/>
	<path class="st6" d="M1260.3,91c0,0-2-0.6-4-0.1c0,0-1.3,3-2.1,4c0,0,1.5,1.9,2.3,5c0.8,3.1,2.2,9.1,2.6,9.2
		c0.4,0.1,1.2,0.2,1.9-0.3C1261.1,108.8,1263.8,100.2,1260.3,91z"/>
	<path class="st13" d="M1259.1,90.7c2.1,6.4,1.8,15.4,1,18.4c0.3,0,0.6-0.1,1-0.3c0,0,2.7-8.6-0.8-17.8
		C1260.3,91,1259.8,90.8,1259.1,90.7z"/>
	<path class="st5" d="M1249.5,91.8c-1.1-0.5-26.6-11.3-28.5-19.4s12.2-20.3,12.8-20.8l0.2,0.2c-0.2,0.1-14.5,12.6-12.7,20.5
		c1.9,7.9,28.1,19.1,28.3,19.2L1249.5,91.8z"/>
	<path class="st5" d="M1255,90.8l-0.2-0.3c2.8-1.6,20-24,20-27c0-3-12.2-11.5-13.1-12l0.2-0.3c0.1,0.1,13.3,9,13.3,12.3
		C1275.1,66.7,1257.9,89.1,1255,90.8z"/>
	<path class="st18" d="M1247.3,93.1c0,0,5,1.8,5.2,1.7c0.2-0.1,3.3-3.5,3.5-5l-5.2-2.8C1250.9,87,1247.6,92.6,1247.3,93.1z"/>
	<path class="st19" d="M1260.2,12.8c0.6,0.2,4.1,1.8,5.7,3.1l0.3,21.2l-3.9,5.6l3.3,4.5c0,0,0.2,3.1-0.4,4.3
		c-0.6,1.1-30.6,1.8-34.4,0c0,0-0.6-1.1,2.1-8.5l-0.3-2.6l1.6-9.3l-5.2-3.7l1.1-11.9c0,0,3.2-2.4,8.9-3.7c5.7-1.3,14.8,1.1,14.8,1.1
		h6.4V12.8z"/>
	<path class="st20" d="M1240.6,45.6c0,0-1.6-2.4-0.5-5.5c0,0-7.1,0.5-6.8-1.9c0.3-2.4,1.6-3.1,1.4-6.3c-0.2-3.2-2.4-15-4.9-16.5
		c0,0-13.4,11.3-13.3,23.1C1216.8,50.2,1228.9,50.2,1240.6,45.6z"/>
	<path class="st9" d="M1256.9,41.9c-0.6,0-2.4-0.5-2.4-0.5s-0.1-2.1-2.3-4.1c-2.2-2-5.4-1-5.4-1l0.9,4.2l3,3.9l5.5,0.7l2-0.7
		L1256.9,41.9z"/>
	<path class="st9" d="M1256.9,41.9c-0.6,0-2.4-0.5-2.4-0.5s-0.1-2.1-2.3-4.1c-2.2-2-5.4-1-5.4-1l0.9,4.2l3,3.9l5.5,0.7l2-0.7
		L1256.9,41.9z"/>
	<path class="st21" d="M1242.1,47.2c0.6,1.2,8.8,1,9,0.3c0.2-0.7,2.5-11.8,1.7-12.6c-0.8-0.7-10.1-1-10.7-0.5
		C1241.5,35,1241.8,46.4,1242.1,47.2z"/>
	<path class="st9" d="M1239.1,40.9l1.1-0.8c0,0,0-2.8,1.6-3.5v3.2c0,0,5-2.2,7.8-2.3c2.8-0.1,2.6,2-0.2,2.5c0,0,3.1-0.9,3.3,0.7
		c0.2,1.6-3.9,1.2-3.9,1.2s3.2,0.5,3,1.5c-0.2,1.1-3.5,0.5-3.5,0.5s2.9,1.6,2.4,2.2s-2.7-0.2-4.2-0.6c-1.4-0.4-5.6-0.3-6.6-0.5
		C1238.8,44.9,1239.1,40.9,1239.1,40.9z"/>
	<path class="st20" d="M1265.9,15.9c0,0,8.3,5.9,10.6,18.1c2.2,12.2-7.9,17.5-21.6,11.7c0,0,0.6-3.1,0.5-4.5c0,0,7.1-2,8.1-3.5
		C1264.5,36,1259.3,22.9,1265.9,15.9z"/>
	<path class="st13" d="M1248.6,17.5c0,0-0.9,10.2,0,12.6h1.9c0,0-0.2-10.3,0.5-12.6H1248.6z"/>
	<path class="st12" d="M1241.5,29.2c-2.5-5.5,0.3-12.9,0.4-13.2l0.6,0.2c0,0.1-2.8,7.4-0.4,12.7L1241.5,29.2z"/>
	<path class="st12" d="M1257.7,28.8l-0.6-0.2c1.5-5.2-1.5-12.5-1.5-12.6l0.6-0.2C1256.4,16.1,1259.3,23.4,1257.7,28.8z"/>
	<path class="st10" d="M1256.1,29.6c0.2-0.8,0.9-1.1,1.5-0.9c0.6,0.2,0.8,0.6,0.7,1.1s-0.4,0.9-1.3,0.9
		C1256.2,30.7,1256,29.9,1256.1,29.6z"/>
	<path class="st10" d="M1241,29.9c0.2-0.8,0.9-1.1,1.5-0.9s0.8,0.6,0.7,1.1c-0.1,0.5-0.4,0.9-1.3,0.9
		C1241.1,31,1240.9,30.2,1241,29.9z"/>
	<path class="st2" d="M1251.9,6.4c1.8-0.6,10.3,1.8,11.1,6.4s-10.9,6.4-12.8,6.5c0,0-17,1.3-17.3-5c-0.3-6.4,10.7-8.6,10.7-8.6
		l5.7,1.6L1251.9,6.4z"/>
	<path class="st20" d="M1256.6,6.8c0,0,2.7,8.8-5.8,12.1c0,0-16.6-4.3-9.3-11.1C1248.9,0.9,1256.6,6.8,1256.6,6.8z"/>
	<path class="st9" d="M1243.2-0.5c-1,1.2-2,6.9-0.2,11.2c1.8,4.3,8.7,6.5,12,0.5c3.2-6.1,0.4-11.7,0.4-11.7H1243.2z"/>
	<path class="st9" d="M1255.8,6.4c0.2-0.2,0.8-1.6,1.8-1.1s-0.6,4.4-1.9,4.1l-0.6-1.9L1255.8,6.4z"/>
	<path class="st9" d="M1242.8,6.4c-0.2-0.2-0.8-1.6-1.8-1.1s0.6,4.4,1.9,4.1l0.6-1.9L1242.8,6.4z"/>
	<path class="st12" d="M1242.6,0.7c0,0,1.4,4.6,14.5,3.2c12-1.3-3.8-12.9-11.7-9.3c0,0-2.7-1.2-4.5,1.1c-1.9,2.3-1.6,7.2,1.1,10
		C1242,4,1242.2,2.3,1242.6,0.7z"/>
	<path class="st5" d="M1249.4,22.3c0,0-0.1,0-0.2,0c-0.4-0.1-0.6-0.5-0.5-0.9c0.1-0.5,0.5-0.8,1.2-0.6c0.3,0.1,0.4,0.3,0.3,0.6
		C1250.2,21.8,1249.8,22.3,1249.4,22.3z M1249.5,21c-0.4,0-0.5,0.3-0.5,0.4c0,0.2,0.1,0.5,0.3,0.6c0.3,0.1,0.6-0.3,0.6-0.6
		c0-0.1,0-0.3-0.1-0.3C1249.7,21,1249.6,21,1249.5,21z"/>
	<path class="st5" d="M1249.2,25.4c0,0-0.1,0-0.2,0c-0.4-0.1-0.6-0.5-0.5-0.9c0.1-0.5,0.5-0.8,1.2-0.6c0.3,0.1,0.4,0.3,0.3,0.6
		C1250,25,1249.7,25.4,1249.2,25.4z M1249.4,24.1c-0.4,0-0.5,0.3-0.5,0.4c0,0.2,0.1,0.5,0.3,0.6c0.3,0.1,0.6-0.3,0.6-0.6
		c0-0.1,0-0.3-0.1-0.3C1249.5,24.2,1249.5,24.1,1249.4,24.1z"/>
	<path class="st5" d="M1249.2,28.7c0,0-0.1,0-0.2,0c-0.4-0.1-0.6-0.5-0.5-0.9c0.1-0.5,0.5-0.8,1.2-0.6c0.3,0.1,0.4,0.3,0.3,0.6
		C1250,28.2,1249.7,28.7,1249.2,28.7z M1249.4,27.4c-0.4,0-0.5,0.3-0.5,0.4c0,0.2,0.1,0.5,0.3,0.6c0.3,0.1,0.6-0.3,0.6-0.6
		c0-0.1,0-0.3-0.1-0.3C1249.5,27.4,1249.5,27.4,1249.4,27.4z"/>
	<path class="st2" d="M834.8,152.3c-1,0-2,0-3-0.2c-8.2-0.9-13-8.3-12.9-15c0-6,4.2-12.9,15.8-14c0.6,0,1.3-0.1,1.9-0.1
		c3.1,0,13.5,0.8,15.8,11.8c0.9,4.6,0.2,8.4-2.3,11.5C847,150,841.3,152.3,834.8,152.3z M836.5,124.6c-0.6,0-1.2,0-1.7,0.1
		c-9,0.8-14.4,5.5-14.4,12.4c0,5.9,4.4,12.7,11.6,13.5c0.9,0.1,1.9,0.2,2.8,0.2c6,0,11.3-2,14.1-5.4c2.2-2.7,2.8-6.1,2-10.2
		C848.8,125.6,840.2,124.6,836.5,124.6z"/>
	<path class="st2" d="M876,152.3c-1,0-2,0-3-0.2c-8.2-0.9-13-8.3-12.9-15c0-6,4.2-12.9,15.8-14c0.6,0,1.3-0.1,1.9-0.1
		c3.1,0,13.5,0.8,15.8,11.8c0.9,4.6,0.2,8.4-2.3,11.5C888.3,150,882.6,152.3,876,152.3z M877.8,124.6c-0.6,0-1.2,0-1.7,0.1
		c-9,0.8-14.4,5.5-14.4,12.4c0,5.9,4.4,12.7,11.6,13.5c0.9,0.1,1.9,0.2,2.8,0.2c6,0,11.3-2,14.1-5.4c2.2-2.7,2.8-6.1,2-10.2
		C890.1,125.6,881.4,124.6,877.8,124.6z"/>
	<path class="st2" d="M852.1,138.4l-0.3-1.5c0.2,0,4.7-0.8,9.2,0l-0.3,1.5C856.5,137.6,852.1,138.4,852.1,138.4z"/>
	<path class="st2" d="M892.7,134.3l2.7,0.6v5.8l-2.7,1.4C892.7,142.1,893.8,138.6,892.7,134.3z"/>
	<path class="st2" d="M819.9,134.3c0,0-1,3.8,0.5,7.7l-2.8-1v-4.9L819.9,134.3z"/>
	<path class="st2" d="M857,115c-2.9-3.2-7.4-4.6-11.7-4.5c-4.8,0.1-8.8,3.5-12.6,6c-7.1,4.9-16.4,12.3-15.8,21.9c0.1,1,1.6,1,1.6,0
		c-0.5-8.8,8.1-15.7,14.5-20.2c1.6-1.1,3.2-2.2,4.9-3.2c1.9-1.2,3.8-2.5,6.1-2.8c4.2-0.6,9.1,0.8,12,3.9
		C856.6,116.8,857.7,115.7,857,115z"/>
	<path class="st2" d="M858,110.1c0.4-2,3.8-2.9,5.5-3c2.1-0.1,4,0.9,5.7,2c3.6,2.5,7,5.5,10.5,8.3c3.2,2.5,6.5,5.1,9.3,8.1
		c1.4,1.5,2.7,3.1,4,4.7c1.3,1.6,3.3,3.9,1.7,6c-0.6,0.8,0.7,1.6,1.3,0.8c2.8-3.6-2.2-8.2-4.4-10.7c-3.7-4.3-8.1-7.7-12.5-11.2
		c-2.3-1.9-4.6-3.7-6.9-5.5c-1.8-1.4-3.6-2.8-5.8-3.6c-2.3-0.8-4.5-0.3-6.7,0.5c-1.5,0.6-3,1.4-3.3,3.1
		C856.3,110.7,857.8,111.1,858,110.1z"/>
	<path class="st2" d="M1248.4-33.4c-0.2-1.2-1.5-7.8-1.5-8.4s21.2,1.8,21.2,1.8l30.8,15.4l4.2,2.6l-18.9-2.2c0,0-21.7-3.9-22.6-3.9
		C1260.7-28.2,1248.4-33.4,1248.4-33.4z"/>
	<path class="st2" d="M1248.4-33.4c-0.2-1.2-1.5-7.8-1.5-8.4s21.2,1.8,21.2,1.8l30.8,15.4l4.2,2.6l-18.9-2.2c0,0-21.7-3.9-22.6-3.9
		C1260.7-28.2,1248.4-33.4,1248.4-33.4z"/>
	<path class="st2" d="M1228.5-21.8c0,0,14.2-15.1,15.5-15.2c1.3-0.2,57.8,14.9,59,15.1C1304.3-21.8,1228.5-21.8,1228.5-21.8z"/>
	<path class="st2" d="M1246.8-41.8c-0.5-0.3,5.1-17.1,6.3-17.1c1.3,0,52.7,37.7,49.8,36.9C1300.2-22.7,1247.6-41.3,1246.8-41.8z"/>
	<path class="st2" d="M1346.6,67.7c-1.3,0-2.5-0.1-3.8-0.2c-4.6-0.5-8.8-2.8-11.8-6.6c-2.8-3.5-4.5-8-4.4-12.4
		c0.1-7.6,5.3-16.2,19.9-17.5c0.8-0.1,1.6-0.1,2.4-0.1c3.9,0,17,1.1,19.9,14.8c1.2,5.7,0.2,10.6-2.9,14.4
		C1362.1,64.9,1354.9,67.7,1346.6,67.7z M1348.9,32.5c-0.8,0-1.5,0-2.2,0.1c-11.5,1.1-18.4,7.1-18.5,16c-0.1,7.6,5.6,16.4,14.9,17.4
		c1.2,0.1,2.4,0.2,3.6,0.2c7.8,0,14.5-2.6,18.1-7c2.8-3.5,3.6-7.9,2.5-13.1C1364.7,33.8,1353.6,32.5,1348.9,32.5z"/>
	<path class="st2" d="M1356.4,39.7c-4.5-1.4-9.9-2-14.1,0.3c-3.8,2.1-6.3,6.4-5.7,10.7c0.6,4.4,4.2,7.1,8.4,8.2
		c2.4,0.6,4.6,0.6,7,0.2c2-0.3,3.9-0.6,5.4-2.2c0.8-0.8-0.5-2-1.3-1.3c-1.3,1.4-3.2,1.6-5,1.7c-1.9,0.2-3.6,0.2-5.5-0.2
		c-3.8-0.9-7.1-3.3-7.4-7.5c-0.2-3.8,2.4-7.2,5.7-8.7c3.7-1.6,8.2-0.9,11.9,0.3C1357,41.8,1357.5,40.1,1356.4,39.7z"/>
	<path class="st2" d="M943.1-88.5c0,0-6.2-2-11-8.4c-5-6.6-10.4-28.4,5-40.8c11-8.8,34.9-10.8,48.6-2.5c14.2,8.5,18.1,36.4,3.9,45.9
		S956-87.2,956-87.2s-3.5,9.4-2.8,20.2C953.1-66.9,942.9-70.3,943.1-88.5z"/>
	<path class="st22" d="M1293.6,140.2c-9.6-4.4-14.4-18.9-14.4-18.9s-0.6-15.2,4.9-15.1c5.5,0,6.4,9.3,6.4,9.3s6.6-49,22.4-38.3
		c18.6,12.7,0.9,39.9,0.9,39.9s14.9-6.9,16.7,1.9C1332.5,128.7,1314.1,149.5,1293.6,140.2z"/>
	<path class="st23" d="M1288.2,134.1c0,0,18.4-14.1,22.8-49.6"/>
	<path class="st23" d="M1285.8,113.8c0,0-0.3,8.2,6.7,16"/>
	<path class="st23" d="M1318.4,127.1c0,0-13.3,7.3-23.7,0.1"/>
	<path class="st6" d="M1143.1,89.8c0,0-11.5,33.4-1.8,52.6c0,0-107.3,2.7-127,0.3c-19.7-2.5-22.7-34.6-22.7-34.6l9.5-14.7l16.7-6.6
		L1143.1,89.8z"/>
	<path class="st2" d="M911.3,141.7l102.9,0.9c0,0-31.1-30.9,3.5-55.9L917,85.4C917,85.4,888,105.7,911.3,141.7z"/>
	<path class="st3" d="M957.4,142.4c-12-16.6-11.4-31.1-8.6-40.5c2.9-10.1,8.8-16.3,8.9-16.4l0.6,0.6c-0.1,0.1-5.8,6.2-8.7,16.1
		c-2.7,9.1-3.3,23.4,8.5,39.8L957.4,142.4z"/>
	<path class="st3" d="M968.7,142.7c-17.5-26.4-1.3-56.4-1.1-56.7l0.7,0.4c-0.2,0.3-16.1,29.9,1.1,55.9L968.7,142.7z"/>
	<path class="st2" d="M1012.3,91.2l133.1,1.4l1-3.2l-128.7-2.6l-10.7,4.3L1012.3,91.2z"/>
	<path class="st2" d="M1009.7,138.8l136.1-0.2l-0.2,4c0,0-118.9,3.6-131.4,0C1001.7,139.1,1009.7,138.8,1009.7,138.8z"/>
	<path class="st4" d="M1133.5,57.9c0,0-11.1,19.2-0.9,30.3c0,0-108.2,0.4-128.2-1.2s-23.5-20.2-23.5-20.2l9.3-8.4l16.7-3.6
		L1133.5,57.9z"/>
	<path class="st13" d="M900.6,85.4l103.9,1.6c0,0-31.9-18.2,2.6-32.2l-101.7-1.9C905.3,52.9,876.4,64.3,900.6,85.4z"/>
	<path class="st2" d="M932.7,86.4c-7.7-6-11.4-12.2-11.1-18.4c0.6-9.3,10-15,10.4-15.2l0.7,1.1c-0.1,0-9.2,5.7-9.7,14.2
		c-0.3,5.7,3.2,11.5,10.6,17.3L932.7,86.4z"/>
	<path class="st2" d="M939.2,86.6c-5.5-4.7-8.5-10.1-8.8-16c-0.5-9.7,6.4-17.2,6.7-17.5l1,0.9c-0.1,0.1-6.9,7.4-6.4,16.5
		c0.3,5.5,3.1,10.5,8.4,15L939.2,86.6z"/>
	<path class="st3" d="M1001.6,57.3l134.3,2.2l1-1.9l-129.8-2.8l-10.8,2.4L1001.6,57.3z"/>
	<path class="st3" d="M999.8,84.8l137.3,1.4l-0.1,2.3c0,0-119.8,0.8-132.6-1.4C991.7,84.8,999.8,84.8,999.8,84.8z"/>
	<path class="st0" d="M1139.8,102.3V101l-133.6-3.4v1.3L1139.8,102.3z"/>
	<path class="st0" d="M1139.7,107v-1.3l-137.1-0.3v1.3L1139.7,107z"/>
	<path class="st0" d="M1137.6,117.5v-1.3l-136.2-0.9v1.3L1137.6,117.5z"/>
	<path class="st0" d="M1137.4,124.1v-1.3l-133.4,3.3v1.3L1137.4,124.1z"/>
	<path class="st0" d="M1137.9,132v-1.3l-131.3,0.8v1.3L1137.9,132z"/>
	<path class="st0" d="M1138.7,135.6v-1.3l-129.5,1.5v1.3L1138.7,135.6z"/>
	<path class="st3" d="M1029,104.9h20.8c0,0,15.4,17.6,9.4,47.8l-12.6-11.6c0,0-6.4,13-10.2,17.4C1036.4,158.5,1041,117.1,1029,104.9
		z"/>
	<path class="st24" d="M1003.9-54.2c0,0-6.2,13.9,15.4,25.8c0,0,23.7-8.3,21.6-27.7"/>
	<path class="st1" d="M1293.7,136.6c-6.3-7.9-11.1-16.9-21.8-18.2c-10.7-1.4-32.7,0.1-36.6,4.1c-3.9,4.1-18.6,18.7-4.7,25.8
		C1244.6,155.4,1310.9,158.4,1293.7,136.6z"/>
	<path class="st17" d="M1246.1,133.6c11,3.4,15.9,5.9,26,7.6c10.1,1.7,16.9-8.4,17-10.6c1.5,2,3,4,4.5,6
		c17.2,21.7-49.1,18.8-63,11.7c-8.2-4.1-6.5-10.9-2.9-16.6C1231.2,130.5,1235.1,130.3,1246.1,133.6z"/>
	<path class="st9" d="M1181.4,16.1c0,0-0.2-5,0.7-8.2c0.8-3.2-2.7-1.3-2.7-1.3l-1.4,7.5c0,0-1.3,4.7,0.1,5c1.3,0.2,2.8-2.1,2.8-2.1
		L1181.4,16.1z"/>
	<path class="st25" d="M1175.8,2.3c0,0,6.2,1.1,6.5,1.8c0.3,0.7-3.8,15.1-4.5,15.4c-0.7,0.3-6.4-2.4-6.4-2.4s-0.6-7,0-7.8
		C1171.9,8.7,1175.8,2.3,1175.8,2.3z"/>
	<path class="st9" d="M1170.9,139.5l-0.8,2.3l0.4,1.3l2.3,0.3l1.5-0.1l-0.2-1.1l-0.2-2.2L1170.9,139.5z"/>
	<path class="st26" d="M1170.1,141.8c0,0-2.8,4.5-2.2,8.8c0,0,13.6,2.8,20.4,0.3c0,0,1.1-2.1,0.3-3.3c-0.8-1.2-9.8-2.9-14.4-5.2
		C1174.1,142.3,1173.7,144.3,1170.1,141.8z"/>
	<path class="st26" d="M1170.1,141.8c0,0-2.8,4.5-2.2,8.8c0,0,13.6,2.8,20.4,0.3c0,0,1.1-2.1,0.3-3.3c-0.8-1.2-9.8-2.9-14.4-5.2
		C1174.1,142.3,1173.7,144.3,1170.1,141.8z"/>
	<path class="st9" d="M1162.3,142l1.4-6.3l1.8,1.9l0.8,4.9l-0.1,2l-3-0.2L1162.3,142z"/>
	<path class="st27" d="M1183.5,62.8c0,0,3.5,8.9,0.2,20.4c-2.9,10.1-4.4,16.9-4.6,17.7c-0.2,0.8-3.3,33.7-5.1,40.2
		c0,0-2.2,0-3.6-0.9c0,0-0.6-13.2,0-25.1c0.6-11.8,1.5-27.5,1.5-27.5l-0.3-6.7l3-11.4L1183.5,62.8z"/>
	<path class="st6" d="M1161.9,61.2c0,0-6.3,5.8-3.7,15.9c1.6,6.1,8.5,21.7,8.5,21.7s-8.3,10.4-4.3,41.3c0,0,0.7,1.5,4,0.7
		c0,0,4.5-29.3,11.5-38.6c0,0-4-22.2-1.7-31.1c0,0,4.6-2.2,6.1-6.2c1.6-4-3.2-4.2-3.2-4.2l-16.3,0.6h-0.9V61.2z"/>
	<path class="st17" d="M1188.7,149.7c-7.2,0.4-14.1-0.6-14.1-0.6l1.1,2.6c4.2,0.4,9.2,0.4,12.5-0.8
		C1188.2,150.9,1188.5,150.4,1188.7,149.7z"/>
	<path class="st10" d="M1162.3,141.8c0,0-2.8,4.5-2.2,8.8c0,0,13.6,2.8,20.4,0.3c0,0,1.1-2.1,0.3-3.3c-0.8-1.2-9.8-2.9-14.4-5.2
		C1166.3,142.3,1166,144.2,1162.3,141.8z"/>
	<path class="st4" d="M1180.9,149.7c-7.3,1.4-16.7-0.2-20.9-1c0,0.6,0,1.3,0,2c0,0,13.6,2.8,20.4,0.3
		C1180.5,150.9,1180.8,150.3,1180.9,149.7z"/>
	<path class="st5" d="M1163.9,140.3c-0.1,0-0.2-0.1-0.2-0.1c-2.4-14.4,6.1-40.1,6.6-41.6c-10.3-16.3-8.5-35.4-8.5-35.6
		c0-0.1,0.1-0.2,0.2-0.2s0.2,0.1,0.2,0.2c0,0.2-1.7,19.2,8.5,35.5v0.1v0.1c-0.1,0.3-9.1,26.9-6.6,41.5
		C1164.1,140.2,1164.1,140.3,1163.9,140.3z"/>
	<path class="st5" d="M1162.2,71.8c-0.1,0-0.1,0-0.2-0.1s0-0.2,0.1-0.2c7.6-2.1,6.4-7,6.3-7.2c0-0.1,0-0.2,0.1-0.2s0.2,0,0.2,0.1
		C1168.8,64.2,1170.1,69.5,1162.2,71.8L1162.2,71.8z"/>
	<path class="st5" d="M1166,145C1166,145,1165.9,145,1166,145c-0.1-0.1-0.1-0.2,0-0.2s1.9-1.3,4.1-1.1c0.1,0,0.1,0,0.1,0.1
		s-0.1,0.1-0.1,0.1l0,0C1167.9,143.8,1166.1,145,1166,145L1166,145z"/>
	<path class="st5" d="M1167.7,145.5L1167.7,145.5c-0.1-0.1-0.1-0.2,0-0.2c0,0,1.9-1,4-1.1c0,0,0.1,0,0.1,0.1s0,0.1-0.1,0.1
		C1169.6,144.6,1167.8,145.5,1167.7,145.5C1167.8,145.5,1167.8,145.5,1167.7,145.5z"/>
	<path class="st5" d="M1169.6,145.7C1169.6,145.7,1169.6,145.6,1169.6,145.7c-0.1-0.1-0.1-0.2,0-0.2c0,0,1.9-0.6,3.6-0.8
		c0.1,0,0.1,0,0.1,0.1s0,0.1-0.1,0.1C1171.6,145,1169.7,145.6,1169.6,145.7C1169.7,145.7,1169.7,145.7,1169.6,145.7z"/>
	<path class="st5" d="M1174.7,144.3C1174.6,144.3,1174.6,144.3,1174.7,144.3c-0.1-0.1-0.1-0.2,0-0.2c0,0,1.4-0.5,2.8-0.5
		c0.1,0,0.1,0,0.1,0.1s0,0.1-0.1,0.1C1176.1,143.8,1174.8,144.3,1174.7,144.3L1174.7,144.3z"/>
	<path class="st5" d="M1176.2,144.8c0,0-0.1,0-0.1-0.1s0-0.1,0.1-0.1c0,0,2-0.4,3.1-0.5c0.1,0,0.1,0,0.1,0.1s0,0.1-0.1,0.1
		C1178.2,144.5,1176.3,144.8,1176.2,144.8L1176.2,144.8z"/>
	<path class="st5" d="M1178.2,145.4c0,0-0.1,0-0.1-0.1s0-0.1,0.1-0.1c0,0,1.6-0.4,2.6-0.5c0.1,0,0.1,0,0.1,0.1s0,0.1-0.1,0.1
		C1179.9,145,1178.3,145.4,1178.2,145.4C1178.3,145.4,1178.2,145.4,1178.2,145.4z"/>
	<path class="st9" d="M1171.1,16.7c-0.6,1.3-0.8,3.5,1.4,6.1l4.6,5.2c0,0-0.3,7.3,0,7.8c0.3,0.5-4.9,3.5-4.9,3.5l-6.5-6.3l-3.2-8.5
		c0,0,1-5.8,1-6.1c0-0.3,3.3-3.6,3.3-3.6L1171.1,16.7z"/>
	<path class="st13" d="M1172.3,22.5c0,0,4.8,1.1,7.1,2.4c2.4,1.2,7.6,7.9,8.2,7c0.7-0.8-6.9-12.6-8.2-13.4c0.8-0.7,1.4-1.5,1.9-2.4
		c0,0,12.6,7.6,15.5,14.1c2.8,6.3,0.5,12.9-9.4,12.7l-8.5-1.7l-0.4,18.8l-7.3,2.5c0,0-3.9,1.1-9.5-1.3c0,0,6.1-9.3-6.4-21
		c0,0-2,6.2,0,7.2s9.8,2.9,9.8,2.9l0.4,3c0,0-13.9,5.4-20.2-0.7s4.6-22.9,8.5-25.6s10.3-3.4,10.3-3.4s5.4,5.7,7.6,9.6
		C1171.8,33.2,1174.3,28.7,1172.3,22.5z"/>
	<path class="st9" d="M1170.7,19.3c-1.1,0.3-3.4,0.6-7.2-0.9c0-0.3,3.3-3.6,3.3-3.6l4.3,1.9C1170.7,17.4,1170.6,18.2,1170.7,19.3z"
		/>
	<path class="st9" d="M1171.4-1.1c0,0,6,2.3,7.3,10.4l-1.9,0.3c0,0,3,11-9.6,7.9c-12.6-3.1-4.6-16.9-4.6-16.9l7.2-1.7L1171.4-1.1
		L1171.4-1.1z"/>
	<path class="st28" d="M1171.4,42.8c0,0-0.8,0.1-1.9,0.2c-0.3,0-0.5,0-0.8,0.1c-0.3,0-0.6,0-0.9,0.1c-0.3,0-0.6,0-1,0.1
		c-0.2,0-0.3,0-0.5,0h-0.5c-0.3,0-0.7,0-1,0c-0.3,0-0.6,0-1,0c-0.3,0-0.6,0-0.9,0c-0.3,0-0.6,0-0.8,0c-0.3,0-0.5,0-0.8,0
		c-0.2,0-0.4,0-0.6,0c-0.3,0-0.5,0-0.5,0s0.1,0.2,0.4,0.4c0.1,0.1,0.3,0.3,0.5,0.4c0.2,0.2,0.4,0.3,0.7,0.4c0.1,0.1,0.3,0.2,0.4,0.2
		c0.2,0.1,0.3,0.1,0.5,0.2c0.3,0.1,0.6,0.3,1,0.3c0.2,0,0.4,0.1,0.5,0.1s0.2,0,0.3,0h0.3c0.4,0,0.8,0.1,1.2,0h0.6
		c0.2,0,0.4,0,0.6-0.1c0.2,0,0.4-0.1,0.6-0.1c0.2,0,0.4-0.1,0.5-0.2c0.3-0.1,0.7-0.2,1-0.4c0.3-0.2,0.6-0.3,0.8-0.5
		c0.5-0.3,0.9-0.6,1.1-0.9C1171.3,42.9,1171.4,42.8,1171.4,42.8z"/>
	<path class="st5" d="M1155.3,53.6c4.7,0,9.4-1,9.8-1.1v-0.2c-0.2,0-15.9,3.4-19.3-2.2c-3.5-5.6,8.8-21.2,9-21.4l-0.2-0.1
		c-0.5,0.6-12.5,15.9-9,21.6C1147.2,52.9,1151.3,53.6,1155.3,53.6z"/>
	<path class="st5" d="M1187.3,41.2c2.8,0,5.9-0.9,7.7-4.2c1.7-3-0.2-7.4-5.4-13c-3.9-4.2-8.4-7.5-8.4-7.5l-0.1,0.2
		c0.2,0.1,17.7,13.3,13.8,20.3s-13.6,2.9-13.7,2.8l-0.1,0.2C1181.1,40,1184,41.2,1187.3,41.2z"/>
	<path class="st0" d="M1183.7,66.9c0,0-6.8-3.5-12.2-3c0,0-6-25.2,1.9-29.4c0,0,11.9-0.5,19.2,6.8
		C1192.6,41.4,1182.1,41.1,1183.7,66.9z"/>
	<path class="st9" d="M1165.3,50.7c0,0,1.4-2.3,2.2-3.4c0.8-1.1,2.2-2.3,2.5-1.7c0.2,0.6-0.9,2.5-0.9,2.5s4.4-0.6,6-0.2
		c1.6,0.4,4.3,1.6,4.3,1.9c0,0.4-1,0.8-2.5,0.6c0,0,3.3,0.9-0.3,1.6c0,0,1.5,1.1-1.8,1.3c0,0,1.4,0.2,0,0.8
		c-1.4,0.6-8.1-0.3-9.8-1.6C1165,51.8,1165,51.2,1165.3,50.7z"/>
	<path class="st12" d="M1171.4-1.1c0,0,0.6,7.3-5.5,9.2l0.5,2.9c0,0,4.1,8.8-2.1,12.6c0,0,2.9,10.3-7.3,7.9
		c-7.3-1.7-4.8-11.9,0-12.8c0,0,1.8-4.4-1.9-8.7c-3.7-4.3-4.4-11.8,1.7-14.9s13.4-2.1,13.4-2.1s4.4-4.5,8.6-0.2
		c4.2,4.3,0.1,9.6-2.1,10.6C1176.6,3.6,1174.9,0.7,1171.4-1.1z"/>
	<path class="st9" d="M1167.8,7.5c0-0.2-1.2-2.5-2.9-1.9c-1.7,0.7-1.4,6.1,2.2,5.7C1170.7,10.9,1167.8,7.5,1167.8,7.5z"/>
	<path class="st6" d="M1351.2,135.3l1.3,14.5c0,0-75.4,5.2-85.4,7.1l-20.5-5.8l17.1-10.4C1263.8,140.7,1346.5,136.1,1351.2,135.3z"
		/>
	<path class="st3" d="M1351.2,135.3c-4.6,0.8-83,5.2-87.2,5.4l8.2,5.8l-7.7,4.1l5.4,2.8l-2.7,3.5c10-2,85.4-7.1,85.4-7.1
		L1351.2,135.3z"/>
	<path class="st3" d="M1246.7,151.1l9.1,2.5l-1.2-7.3L1246.7,151.1z"/>
	<path class="st5" d="M1351.7,140.2v-0.3l-79.5,6.4v0.3L1351.7,140.2z"/>
	<path class="st5" d="M1352.1,145.3V145l-82.2,8.4v0.3L1352.1,145.3z"/>
	<path class="st5" d="M945.5-108.5c2.2-0.2,4.7,0.6,4.7,3.9c0.1,3.3-6.6,4.4-7,0.7C942.8-107.6,944.8-108.4,945.5-108.5z"/>
	<path class="st5" d="M961.5-108.5c2.2-0.2,4.7,0.6,4.7,3.9c0.1,3.3-6.6,4.4-7,0.7C958.8-107.6,960.7-108.4,961.5-108.5z"/>
	<path class="st5" d="M977.4-108.5c2.2-0.2,4.7,0.6,4.7,3.9c0.1,3.3-6.6,4.4-7,0.7C974.7-107.6,976.7-108.4,977.4-108.5z"/>
	<g>
		<g>
			<path class="st13" d="M804.9,52.8l-2.2-0.5c-1.2-0.3-2-1.5-1.8-2.7c0.3-1.2,1.5-2,2.7-1.8l4.3,0.9c0.6,0.1,1.1-0.2,1.2-0.8
				s-0.2-1.1-0.8-1.2l-2.2-0.5l0.5-2.2c0.1-0.6-0.2-1.1-0.8-1.2c-0.6-0.1-1.1,0.2-1.2,0.8l-0.5,2.2H804c-2.3-0.5-4.6,1-5.1,3.4
				s1,4.6,3.4,5.1l2.2,0.5c1.2,0.3,2,1.5,1.8,2.7s-1.5,2-2.7,1.8l-4.3-0.9c-0.6-0.1-1.1,0.2-1.2,0.8c-0.1,0.6,0.2,1.1,0.8,1.2
				l2.2,0.5l-0.5,2.2c-0.1,0.6,0.2,1.1,0.8,1.2c0.6,0.1,1.1-0.2,1.2-0.8l0.5-2.2h0.1c2.3,0.5,4.6-1,5.1-3.4
				C808.7,55.6,807.2,53.3,804.9,52.8z"/>
		</g>
	</g>
	<g>
		<g>
			<path class="st13" d="M1331.7-80.1l-1.2-0.9c-0.7-0.5-0.8-1.6-0.2-2.3c0.6-0.7,1.6-0.9,2.3-0.4l2.4,1.9c0.3,0.2,0.8,0.2,1-0.2
				c0.3-0.3,0.2-0.8-0.1-1l-1.3-1l1-1.3c0.3-0.3,0.2-0.8-0.1-1c-0.3-0.2-0.8-0.2-1,0.2l-1,1.3l0,0c-1.3-1-3.3-0.7-4.4,0.7
				c-1.1,1.4-0.9,3.4,0.4,4.4l1.2,0.9c0.7,0.5,0.8,1.6,0.2,2.3c-0.6,0.7-1.6,0.9-2.3,0.4l-2.4-1.9c-0.3-0.2-0.8-0.2-1,0.2
				c-0.3,0.3-0.2,0.8,0.1,1l1.3,1l-1,1.3c-0.3,0.3-0.2,0.8,0.1,1c0.3,0.2,0.8,0.2,1-0.2l1-1.3l0,0c1.3,1,3.3,0.7,4.4-0.7
				C1333.2-77.1,1333.1-79,1331.7-80.1z"/>
		</g>
	</g>
	<g>
		<g>
			<path class="st13" d="M1188.3-25.5l-1.1,0.2c-0.7,0.1-1.3-0.3-1.4-1s0.3-1.3,1-1.4l2.3-0.4c0.3-0.1,0.5-0.3,0.4-0.6
				c-0.1-0.3-0.3-0.5-0.6-0.4l-1.2,0.2l-0.2-1.2c-0.1-0.3-0.3-0.5-0.6-0.4c-0.3,0.1-0.5,0.3-0.4,0.6l0.2,1.2l0,0
				c-1.2,0.2-2.1,1.4-1.8,2.7c0.2,1.2,1.4,2.1,2.7,1.8l1.1-0.2c0.7-0.1,1.3,0.3,1.4,1c0.1,0.7-0.3,1.3-1,1.4l-2.5,0.4
				c-0.3,0.1-0.5,0.3-0.4,0.6c0.1,0.3,0.3,0.5,0.6,0.4l1.2-0.2l0.2,1.2c0.1,0.3,0.3,0.5,0.6,0.4s0.5-0.3,0.4-0.6L1189-21l0,0
				c1.2-0.2,2.1-1.4,1.8-2.7S1189.5-25.7,1188.3-25.5z"/>
		</g>
	</g>
	<g>
		<g>
			<path class="st13" d="M800.6-115.3l-1.3,0.2c-0.7,0.1-1.4-0.3-1.5-1.1c-0.1-0.7,0.3-1.4,1.1-1.5l2.5-0.5c0.3-0.1,0.5-0.4,0.5-0.7
				c-0.1-0.3-0.4-0.5-0.7-0.5l-1.3,0.2l-0.2-1.3c-0.1-0.3-0.4-0.5-0.7-0.5c-0.3,0.1-0.5,0.4-0.5,0.7l0.2,1.3l0,0
				c-1.4,0.3-2.3,1.6-2,2.9c0.3,1.4,1.6,2.3,2.9,2l1.3-0.2c0.7-0.1,1.4,0.3,1.5,1.1c0.1,0.7-0.3,1.4-1.1,1.5l-2.5,0.5
				c-0.3,0.1-0.5,0.4-0.5,0.7c0.1,0.3,0.4,0.5,0.7,0.5l1.3-0.2l0.2,1.3c0.1,0.3,0.4,0.5,0.7,0.5c0.3-0.1,0.5-0.4,0.5-0.7l-0.2-1.3
				l0,0c1.4-0.3,2.3-1.6,2-2.9S802-115.6,800.6-115.3z"/>
		</g>
	</g>
	<g>
		<g>
			<path class="st13" d="M1135.6,173.4l-1.5-0.3c-0.9-0.2-1.4-1-1.2-1.9s1-1.4,1.9-1.2l3,0.6c0.4,0.1,0.8-0.2,0.8-0.6
				c0.1-0.4-0.2-0.8-0.6-0.8l-1.6-0.3l0.3-1.6c0.1-0.4-0.2-0.8-0.6-0.8c-0.4-0.1-0.8,0.2-0.8,0.6l-0.3,1.6l0,0
				c-1.6-0.3-3.2,0.7-3.6,2.3c-0.3,1.6,0.7,3.2,2.3,3.6l1.5,0.3c0.9,0.2,1.4,1,1.2,1.9c-0.2,0.9-1,1.4-1.9,1.2l-3-0.6
				c-0.4-0.1-0.8,0.2-0.8,0.6c-0.1,0.4,0.2,0.8,0.6,0.8l1.6,0.3l-0.3,1.6c-0.1,0.4,0.2,0.8,0.6,0.8c0.4,0.1,0.8-0.2,0.8-0.6l0.3-1.6
				l0,0c1.6,0.3,3.2-0.7,3.6-2.3S1137.2,173.8,1135.6,173.4z"/>
		</g>
	</g>
	<g>
		<g>
			<path class="st13" d="M1396.6,155.8l-1,1.1c-0.6,0.6-1.6,0.7-2.2,0.1c-0.6-0.6-0.7-1.6-0.1-2.2l2-2.3c0.3-0.3,0.2-0.7-0.1-1
				c-0.3-0.3-0.7-0.2-1,0.1l-1,1.2l-1.2-1.1c-0.3-0.3-0.7-0.2-1,0.1c-0.3,0.3-0.2,0.7,0.1,1l1.2,1.1l0,0c-1.1,1.2-1,3.1,0.2,4.2
				c1.2,1.1,3.1,1,4.2-0.2l1-1.1c0.6-0.6,1.6-0.7,2.2-0.1c0.6,0.6,0.7,1.6,0.1,2.2l-2,2.3c-0.3,0.3-0.2,0.7,0.1,1
				c0.3,0.3,0.7,0.2,1-0.1l1.1-1.2l1.2,1.1c0.3,0.3,0.7,0.2,1-0.1c0.3-0.3,0.2-0.7-0.1-1l-1.2-1.1l0,0c1.1-1.2,1-3.1-0.2-4.2
				C1399.6,154.5,1397.7,154.6,1396.6,155.8z"/>
		</g>
	</g>
</g>
</svg>
