<svg width="445" height="248" viewBox="0 0 445 248" fill="none" xmlns="http://www.w3.org/2000/svg">
<path d="M386.416 80.7955C386.416 80.7955 395.693 81.6121 394.997 90.2446C394.417 98.7606 382.589 96.894 374.819 96.894C367.049 96.894 322.171 100.394 312.778 94.3276C304.776 89.1947 305.704 74.7293 326.23 73.5627C327.389 73.4461 314.749 49.9982 347.451 44.0487C370.412 39.849 373.312 59.7973 373.312 59.7973C373.312 59.7973 385.488 58.0474 389.663 68.8965C392.794 77.0624 386.416 80.7955 386.416 80.7955Z" fill="#F1F2F2"/>
<path d="M154.834 99.1105C154.834 99.1105 169.909 99.9271 168.866 107.276C167.822 114.626 144.513 113.693 131.873 113.576C119.233 113.459 46.7546 114.042 34.4623 109.493C23.2137 105.41 36.0858 88.8447 57.6553 96.544C57.6553 96.544 70.0635 78.4624 92.9086 73.9128C128.278 66.9134 131.757 90.128 131.757 90.128C131.757 90.128 141.498 80.5622 152.283 87.7948C157.617 91.2945 154.834 99.1105 154.834 99.1105Z" fill="#F1F2F2"/>
<path d="M67.3996 75.7794C67.3996 75.7794 62.877 76.246 62.877 80.6789C62.877 83.9453 67.7475 84.1787 73.5457 84.7619C77.6045 85.1119 100.913 86.0452 105.9 82.8954C110.075 80.2123 109.611 72.6296 98.942 72.0463C98.2462 72.0463 104.972 59.6807 87.8094 56.531C75.749 54.3145 74.2415 64.8136 74.2415 64.8136C74.2415 64.8136 67.8634 63.8803 65.6601 69.5965C64.0366 73.7962 67.3996 75.7794 67.3996 75.7794Z" fill="#D1D3D4"/>
<path d="M147.53 59.9137C147.298 63.0634 148.805 66.3298 150.313 69.0129C151.704 71.5794 154.024 74.9624 157.271 74.7291C159.706 74.6125 161.909 71.4627 159.822 69.4795C157.619 67.263 153.56 67.3797 151.472 69.8295C149.153 72.5127 149.965 75.5457 151.356 78.4622C152.748 81.2619 154.487 83.9451 156.923 85.9282C161.445 89.428 168.867 90.1279 173.738 87.0948C177.912 84.5283 179.304 79.6287 180.348 75.0791C180.464 74.7291 179.884 74.6125 179.884 74.9624C179.188 78.1122 178.492 81.262 176.521 83.8284C173.506 88.0281 168.055 89.078 163.185 88.1447C157.966 87.2115 154.372 83.4784 152.052 78.8121C150.545 75.8957 149.501 72.5127 152.284 69.9462C153.676 68.5463 155.531 68.4296 157.387 68.8963C158.314 69.1296 159.358 69.5962 159.822 70.4128C160.518 71.4627 160.054 72.6293 159.242 73.4459C155.995 76.5957 152.284 71.696 150.777 69.1296C149.385 66.5631 147.762 63.18 147.993 60.1469C148.109 59.5637 147.53 59.5637 147.53 59.9137Z" fill="#3333CC"/>
<path d="M151.472 52.0978C150.544 53.4977 145.673 53.731 144.282 52.4478C142.89 51.1645 144.398 49.5313 141.962 45.565C139.527 41.7153 136.976 42.6486 136.396 34.7159C135.816 26.7833 144.746 24.4502 148.109 24.3335C151.587 24.3335 159.357 27.0166 159.473 35.7658C159.473 42.0653 155.182 42.4153 153.211 45.565C151.24 48.7147 152.631 50.5812 151.472 52.0978Z" fill="#FFC13B"/>
<path d="M151.818 53.8474C151.818 53.9641 146.947 55.364 143.816 54.0807C143.816 54.0807 143.12 60.9638 145.788 61.5471C148.571 62.2471 151.238 61.5471 151.47 60.2638C151.702 58.9805 151.818 53.8474 151.818 53.8474Z" fill="#BDC3EF"/>
<path d="M142.658 36.8156C142.195 37.2822 142.543 38.4488 143.006 39.382C143.238 39.8487 144.05 41.3652 145.094 41.5985C145.21 42.0651 145.326 42.6484 145.442 43.1151C146.369 46.9647 146.601 50.5811 146.137 53.1475C146.369 53.1475 146.485 53.1475 146.717 53.2642C147.297 49.5312 146.369 44.8649 146.021 42.9984C145.906 42.6484 145.79 42.0651 145.674 41.5985C146.601 41.4819 147.297 41.1319 147.877 40.3153C148.109 40.5486 148.457 40.7819 148.805 40.8986C148.921 41.0152 149.153 41.0152 149.269 41.1319C148.805 46.3814 149.153 52.6809 149.153 53.0309H149.384C149.5 53.0309 149.616 53.0309 149.732 52.9142C149.616 50.3478 149.616 45.3315 149.848 41.1319C150.196 41.1319 150.66 40.8986 151.008 40.6653C152.516 39.4987 153.559 36.349 153.211 34.7158C152.979 34.1325 152.632 33.6659 152.052 33.6659C151.704 33.6659 151.356 33.7825 151.008 34.0158C150.08 34.8324 149.5 37.5155 149.269 40.5486C149.269 40.5486 149.153 40.5486 149.037 40.4319C148.689 40.3153 148.457 40.082 148.225 39.8487C148.689 39.0321 148.921 37.8655 148.921 36.4656C149.037 33.5492 147.993 30.1662 146.601 29.9329C146.253 29.9329 145.79 30.0495 145.442 31.0994C144.746 33.0826 145.094 37.3989 147.413 39.8487C146.949 40.4319 146.369 40.8986 145.558 40.8986C144.978 38.9154 144.166 36.8156 143.354 36.4656C143.006 36.4656 142.658 36.6989 142.658 36.8156ZM149.964 40.6653C150.196 37.7489 150.66 35.2991 151.472 34.5991C151.588 34.4825 151.704 34.3658 151.936 34.3658C151.936 34.3658 151.936 34.3658 152.052 34.3658C152.168 34.3658 152.516 34.3658 152.747 34.9491C153.095 36.349 152.052 39.1487 150.776 40.1987C150.428 40.432 150.196 40.5486 149.964 40.6653ZM146.137 31.3328C146.253 30.8661 146.485 30.6328 146.601 30.6328C147.413 30.7495 148.457 33.5492 148.457 36.5823C148.457 37.2822 148.341 38.4488 147.877 39.4987C145.79 37.1656 145.558 33.1993 146.137 31.3328ZM143.122 37.2822C143.47 37.3989 144.166 38.6821 144.862 40.8986C144.398 40.5486 144.05 39.9653 143.702 39.382C143.122 38.3321 143.006 37.3989 143.122 37.2822Z" fill="white"/>
<path d="M146.948 57.6973C150.543 57.6973 152.746 56.5309 152.862 56.4142C152.978 56.2976 153.094 56.181 152.978 55.9477C152.862 55.831 152.746 55.7144 152.514 55.831C152.514 55.831 148.803 57.6972 143.469 56.6475C143.353 56.6475 143.121 56.7641 143.121 56.8808C143.121 56.9974 143.237 57.2307 143.353 57.2307C144.629 57.5806 145.904 57.6973 146.948 57.6973Z" fill="#3333CC"/>
<path d="M146.6 59.9138C149.963 59.9138 152.166 59.2139 152.282 59.2139C152.398 59.2139 152.514 58.9806 152.514 58.8639C152.514 58.7473 152.282 58.6306 152.166 58.6306C152.166 58.6306 148.456 59.7972 143.469 59.2139C143.353 59.2139 143.121 59.3306 143.121 59.4472C143.121 59.5639 143.237 59.7972 143.353 59.7972C144.629 59.9138 145.672 59.9138 146.6 59.9138Z" fill="#3333CC"/>
<path d="M154.252 22.467C155.411 19.6673 156.687 16.9843 158.195 14.3012C158.311 13.9512 157.847 13.7179 157.731 14.0679C156.223 16.6343 154.948 19.434 153.788 22.2337C153.672 22.5837 154.136 22.817 154.252 22.467Z" fill="#3333CC"/>
<path d="M148.107 20.8337C147.759 17.2174 146.716 13.4844 145.44 10.1014C145.324 9.75148 144.744 9.86814 144.976 10.2181C146.136 13.6011 147.179 17.2174 147.643 20.8337C147.527 21.1837 148.107 21.1837 148.107 20.8337Z" fill="#3333CC"/>
<path d="M139.875 22.4669C138.484 19.7839 136.744 17.3341 134.657 15.2344C134.425 15.0011 134.077 15.3511 134.309 15.5844C136.396 17.6841 138.136 20.0172 139.411 22.7002C139.527 23.0501 139.991 22.8168 139.875 22.4669Z" fill="#3333CC"/>
<path d="M223.255 235.482C333.538 235.482 423.062 220.9 423.062 202.935C423.062 184.97 333.653 170.388 223.255 170.388C112.856 170.388 23.4473 184.97 23.4473 202.935C23.4473 221.017 112.856 235.482 223.255 235.482Z" fill="#F1F2F2"/>
<path d="M180.461 65.0469L172.691 66.6801V175.171L262.1 173.188C262.1 173.188 267.551 177.504 271.957 173.188L351.625 175.171L346.059 70.2964L335.274 66.3301L242.502 97.594L180.461 65.0469Z" fill="#FF643B"/>
<path d="M262.449 172.254C262.449 172.254 263.145 168.871 267.784 168.638C272.422 168.405 272.19 171.788 272.19 171.788C272.19 171.788 327.622 166.305 342.001 171.321L345.944 170.621L330.521 146.123L260.246 146.823L262.449 172.254Z" fill="#D1D3D4"/>
<path d="M178.721 168.638L182.432 170.738C182.432 170.738 242.733 162.922 262.331 172.371C262.331 172.371 262.795 169.221 267.666 168.754L245.98 144.723L192.173 148.69L178.721 168.638Z" fill="#D1D3D4"/>
<path d="M264.189 56.414C264.189 56.414 298.979 36.5823 340.726 63.5301L345.945 170.738C345.945 170.738 308.14 146.24 267.784 168.638L264.189 56.414Z" fill="#FFC13B"/>
<path d="M178.721 59.214C178.721 59.214 227.89 22.4671 264.187 56.4142L267.782 168.638C267.782 168.638 243.429 149.39 178.721 168.638V59.214Z" fill="#FFAB3B"/>
<path d="M186.262 70.1798L185.334 80.2124C185.334 80.2124 216.297 62.1304 255.609 76.7127V67.2633C255.609 67.1467 220.355 50.4646 186.262 70.1798Z" fill="#FF883B"/>
<path d="M184.637 88.8448V98.6438C184.637 98.6438 236.589 85.1118 254.1 95.3775V87.5615C253.984 87.5615 235.545 71.8131 184.637 88.8448Z" fill="#FF883B"/>
<path d="M184.636 105.993L183.824 114.276C183.824 114.276 220.701 98.4105 255.607 113.693L254.795 105.293C254.679 105.293 231.022 90.2445 184.636 105.993Z" fill="#FF883B"/>
<path d="M184.636 119.059L183.824 128.158C183.824 128.158 224.064 115.326 255.607 127.341L255.027 119.059C255.027 119.059 216.642 106.694 184.636 119.059Z" fill="#FF883B"/>
<path d="M270.912 68.663L272.188 78.6956C272.188 78.6956 297.7 65.6298 335.389 86.9783L334.925 78.3456C335.041 78.3456 315.791 58.3971 270.912 68.663Z" fill="#FF883B"/>
<path d="M273.119 86.3947V94.2107C273.119 94.2107 314.055 88.0279 336.32 101.677L335.392 94.0941C335.392 94.0941 301.183 79.162 273.119 86.3947Z" fill="#FF883B"/>
<path d="M273.697 104.71V111.826C273.697 111.826 309.182 104.244 337.478 118.126V110.776C337.478 110.776 301.413 96.5441 273.697 104.71Z" fill="#FF883B"/>
<path d="M261.056 156.039C260.708 156.039 260.477 155.806 260.477 155.456C260.477 155.106 260.708 154.872 261.056 154.872C261.172 154.872 261.636 154.756 261.984 154.639C263.956 154.056 268.71 152.539 275.204 153.006C275.552 153.006 275.784 153.356 275.784 153.706C275.784 154.056 275.436 154.289 275.088 154.289C268.826 153.822 264.187 155.222 262.216 155.806C261.636 156.039 261.288 156.039 261.056 156.039Z" fill="#3333CC"/>
<path d="M261.173 144.84C264.768 144.14 268.479 143.907 272.19 143.907C273.117 143.907 273.117 142.507 272.19 142.507C268.363 142.507 264.536 142.857 260.825 143.557C259.897 143.673 260.245 145.073 261.173 144.84Z" fill="#3333CC"/>
<path d="M260.015 134.341C261.986 133.174 264.19 132.358 266.393 132.008C268.481 131.658 271.148 131.191 273.003 132.474C273.699 132.941 274.395 131.774 273.699 131.308C271.728 129.908 269.06 130.258 266.741 130.608C264.074 130.958 261.523 131.774 259.203 133.174C258.508 133.524 259.203 134.807 260.015 134.341Z" fill="#3333CC"/>
<path d="M259.782 119.526C261.985 119.059 264.189 118.826 266.392 118.826C268.48 118.826 270.799 118.592 272.654 119.526C273.466 119.876 274.162 118.709 273.35 118.359C271.379 117.426 269.059 117.426 266.856 117.426C264.305 117.426 261.754 117.776 259.318 118.242C258.507 118.359 258.854 119.642 259.782 119.526Z" fill="#3333CC"/>
<path d="M259.782 104.944C263.261 103.31 267.204 103.077 270.799 104.244C271.611 104.477 272.075 103.077 271.147 102.843C267.088 101.677 262.913 102.027 259.086 103.777C258.275 104.127 258.97 105.294 259.782 104.944Z" fill="#3333CC"/>
<path d="M259.782 93.861C262.681 92.811 265.696 92.6943 268.596 93.3943C269.407 93.6276 269.871 92.2277 268.943 91.9943C265.696 91.1777 262.449 91.2943 259.318 92.461C258.507 92.811 258.854 94.0943 259.782 93.861Z" fill="#3333CC"/>
<path d="M258.39 82.3121C262.217 81.7288 266.044 81.8454 269.87 82.4288C270.798 82.5455 271.146 81.2621 270.218 81.0288C266.159 80.4454 262.101 80.3287 258.042 80.9121C257.114 81.1454 257.462 82.4288 258.39 82.3121Z" fill="#3333CC"/>
<path d="M259.204 72.2795C262.799 71.6961 266.51 71.5795 270.105 72.1628C271.033 72.2795 271.38 70.9961 270.453 70.7628C266.626 70.1794 262.683 70.1794 258.856 70.8795C257.929 70.9961 258.276 72.3961 259.204 72.2795Z" fill="#3333CC"/>
<path d="M257.927 62.247C261.87 60.8471 266.16 60.4971 270.219 61.4304C271.147 61.6637 271.495 60.2638 270.567 60.0305C266.16 59.0972 261.754 59.3305 257.463 60.8471C256.651 61.1971 256.999 62.597 257.927 62.247Z" fill="#3333CC"/>
<path d="M233.228 40.1987L243.317 41.9486C243.317 41.9486 228.125 131.541 234.272 169.921L227.314 161.638L222.675 173.188C222.559 173.188 207.6 100.16 233.228 40.1987Z" fill="#3333CC"/>
<path d="M189.971 159.305C189.971 159.305 185.564 173.771 189.971 181.937C189.971 181.937 144.281 184.737 135.931 183.92C127.466 183.103 125.727 169.455 125.727 169.455L129.553 163.038L136.511 160.005L189.971 159.305Z" fill="#FFAB3B"/>
<path d="M91.9806 184.97L135.815 183.803C135.815 183.803 122.132 170.971 136.511 159.772L93.6041 160.705C93.6041 160.705 81.5438 169.804 91.9806 184.97Z" fill="#3333CC"/>
<path d="M111.694 184.503C106.36 177.62 106.36 171.321 107.403 167.238C108.563 162.805 110.882 160.122 110.998 160.122L111.23 160.355C111.23 160.355 108.795 163.155 107.751 167.355C106.708 171.321 106.708 177.504 111.926 184.27L111.694 184.503Z" fill="#FF643B"/>
<path d="M116.45 184.503C108.681 173.421 115.059 160.355 115.175 160.239L115.523 160.355C115.523 160.472 109.144 173.421 116.798 184.27L116.45 184.503Z" fill="#FF643B"/>
<path d="M134.31 161.755L191.016 160.355L191.364 158.956L136.513 159.655L131.99 161.638H134.31V161.755Z" fill="#3333CC"/>
<path d="M133.845 182.287L191.827 180.187V181.937C191.827 181.937 141.267 185.203 135.816 183.803C130.482 182.52 133.845 182.287 133.845 182.287Z" fill="#3333CC"/>
<path d="M182.897 145.657C182.897 145.657 178.49 153.939 182.897 158.605C182.897 158.605 137.207 160.122 128.857 159.772C120.392 159.305 118.652 151.49 118.652 151.49L122.479 147.757L129.437 146.007L182.897 145.657Z" fill="#BDC3EF"/>
<path d="M85.0216 160.355L128.856 159.655C128.856 159.655 115.173 152.306 129.552 145.89L86.6452 146.357C86.6452 146.473 74.5848 151.723 85.0216 160.355Z" fill="#FF643B"/>
<path d="M98.5912 160.355C95.2282 157.905 93.6047 155.339 93.7206 152.656C93.8366 148.689 97.7794 146.123 97.8954 146.006L98.2433 146.473C98.2433 146.473 94.4164 149.039 94.3005 152.656C94.1845 155.106 95.808 157.555 98.9391 159.889L98.5912 160.355Z" fill="#3333CC"/>
<path d="M101.372 160.355C98.9369 158.372 97.6613 156.156 97.4294 153.706C97.0815 149.623 99.9806 146.357 99.9806 146.123L100.444 146.473C100.444 146.473 97.6613 149.74 98.0092 153.589C98.2411 155.922 99.5167 158.022 101.72 159.889L101.372 160.355Z" fill="#3333CC"/>
<path d="M127.351 147.173L184.057 146.356L184.405 145.54L129.554 146.006L125.031 147.173H127.351Z" fill="#FF643B"/>
<path d="M126.886 158.839L184.868 157.672V158.606C184.868 158.606 134.308 160.472 128.857 159.656C123.523 158.956 126.886 158.839 126.886 158.839Z" fill="#FF643B"/>
<path d="M365.08 153.356C365.08 153.239 365.196 153.006 365.312 152.773C367.632 145.19 375.169 107.86 398.13 115.443C421.787 123.142 396.623 161.405 396.623 161.405C396.623 161.405 415.061 148.923 421.207 162.689C427.353 176.454 408.799 188.236 408.799 188.236C408.799 188.236 424.106 185.32 422.483 193.369C420.859 201.419 386.766 196.869 386.766 196.869C386.766 196.869 378.416 178.321 378.532 177.504C378.532 176.687 359.746 165.488 359.862 165.138C359.978 164.788 365.428 153.006 365.428 153.006L365.08 153.356Z" fill="#BDC3EF"/>
<path d="M375.632 171.321C375.632 171.321 375.516 171.321 375.632 171.321C375.168 171.321 374.82 170.854 374.82 170.388C374.82 170.154 378.647 145.656 389.084 129.908C389.316 129.558 389.896 129.441 390.244 129.674C390.592 129.908 390.708 130.491 390.476 130.841C380.271 146.356 376.56 170.271 376.56 170.504C376.444 170.971 375.98 171.321 375.632 171.321Z" fill="white"/>
<path d="M380.501 151.256C380.269 151.256 380.037 151.139 379.921 151.023C379.573 150.673 379.573 150.09 379.921 149.74C383.98 145.54 396.736 140.524 397.316 140.291C397.78 140.057 398.243 140.29 398.475 140.757C398.707 141.224 398.475 141.69 398.012 141.924C397.896 141.924 385.139 146.94 381.313 150.906C380.965 151.139 380.733 151.256 380.501 151.256Z" fill="white"/>
<path d="M351.858 201.652C353.365 201.302 388.387 206.901 392.562 193.486C396.852 180.187 378.414 160.589 370.064 166.072C370.064 166.072 376.326 141.574 349.655 137.374C322.983 133.291 336.782 150.906 336.782 150.906C336.782 150.906 323.33 135.974 313.705 155.223C304.08 174.471 329.361 185.67 329.361 185.67C329.361 185.67 311.386 189.403 320.779 197.802C330.056 206.435 351.858 201.652 351.858 201.652Z" fill="#979FEF"/>
<path d="M352.67 201.652C353.946 175.638 343.857 154.173 343.741 154.056C343.509 153.589 343.045 153.473 342.581 153.706C342.117 153.939 342.001 154.406 342.233 154.873C342.349 155.106 352.206 176.104 350.931 201.652C350.931 201.769 350.931 201.769 350.931 201.885C351.51 201.769 351.742 201.769 351.742 201.769C351.974 201.652 352.206 201.652 352.67 201.652Z" fill="white"/>
<path d="M351.513 188.586C351.397 188.586 351.165 188.586 351.049 188.469C350.701 188.236 350.469 187.653 350.701 187.303C357.659 175.754 371.343 173.654 371.922 173.538C372.386 173.421 372.85 173.771 372.966 174.237C373.082 174.704 372.734 175.171 372.27 175.287C372.154 175.287 358.818 177.387 352.324 188.236C352.092 188.469 351.744 188.586 351.513 188.586Z" fill="white"/>
<path d="M350.349 180.304C350.001 180.304 349.77 180.187 349.654 179.837C343.507 169.571 324.141 168.755 323.909 168.755C323.446 168.755 323.098 168.288 323.098 167.821C323.098 167.355 323.562 167.005 324.025 167.005C324.837 167.005 344.551 167.821 351.161 178.904C351.393 179.37 351.277 179.837 350.813 180.07C350.697 180.187 350.581 180.304 350.349 180.304Z" fill="white"/>
<path d="M231.718 226.967C231.718 226.967 236.937 236.416 243.779 227.783L245.402 222.534L235.197 217.167L231.139 223.934L231.718 226.967Z" fill="#FF643B"/>
<path d="M231.719 226.966L149.268 220.667L191.363 179.487L198.785 179.02L224.297 190.453L231.719 226.966Z" fill="#3333CC"/>
<path d="M243.779 227.783L320.2 238.982L294.804 190.569L263.493 188.353L243.779 227.783Z" fill="#3333CC"/>
<path d="M231.719 226.966L237.749 222.067L236.589 208.185L197.393 198.852L157.269 216.467L154.254 218.917C154.138 218.8 227.08 208.301 231.719 226.966Z" fill="#F1F2F2"/>
<path d="M243.778 227.783L237.748 221.95L245.17 207.135L279.727 209.118L306.051 221.6L312.082 231.166L313.473 233.849C313.589 233.849 253.403 217.167 243.778 227.783Z" fill="#F1F2F2"/>
<path d="M248.883 184.387C248.883 184.387 241.577 174.704 227.546 174.238C213.514 173.771 194.496 178.321 194.496 178.321L157.039 216.351C157.039 216.351 230.329 196.636 237.635 222.067L248.883 184.387Z" fill="#979FEF"/>
<path d="M312.082 231.166C312.082 231.166 253.867 203.402 237.748 222.067L248.881 184.386C248.881 184.386 260.941 169.921 292.136 189.286L312.082 231.166Z" fill="#BDC3EF"/>
<path d="M206.322 212.267C206.322 212.267 191.826 226.266 191.479 238.049C191.479 238.049 196.117 231.982 200.408 227.783C200.408 227.783 200.176 235.132 200.872 239.215C200.872 239.215 210.845 216.584 215.251 212.267C215.251 212.384 210.265 212.034 206.322 212.267Z" fill="#FFAB3B"/>
<path d="M196.814 185.087L202.149 180.537C202.149 180.537 238.446 177.037 243.2 188.353L241.809 192.319C241.693 192.319 236.127 180.304 196.814 185.087Z" fill="#3333CC"/>
<path d="M191.015 191.153L184.984 195.586C184.984 195.586 211.076 189.986 219.542 195.469L223.021 190.92C223.021 190.92 211.424 186.137 191.015 191.153Z" fill="#3333CC"/>
<path d="M216.877 198.852L213.862 202.935C213.862 202.935 205.397 197.569 175.594 205.852L180.232 201.885C180.116 201.885 200.526 194.536 216.877 198.852Z" fill="#3333CC"/>
<path d="M226.617 191.386C230.559 190.803 239.837 195.002 239.721 196.286C239.721 197.569 237.865 207.601 234.386 207.601C230.791 207.601 217.339 205.385 217.571 203.518C217.803 201.535 224.181 191.736 226.617 191.386Z" fill="#FFAB3B"/>
<path d="M271.494 184.154C271.494 184.154 285.062 187.537 287.845 189.286L291.44 202.235L274.045 197.102L271.494 184.154Z" fill="#FF643B"/>
<path d="M251.432 188.586L250.736 192.786C250.736 192.786 258.506 187.886 268.479 190.803L268.363 185.786C268.363 185.903 256.419 183.92 251.432 188.586Z" fill="#3333CC"/>
<path d="M250.158 195.236C250.158 195.236 258.855 190.803 268.828 193.019L269.756 197.336C269.756 197.336 255.26 196.169 248.998 199.785L250.158 195.236Z" fill="#3333CC"/>
<path d="M248.882 201.768C248.882 201.768 277.178 194.302 297.008 208.185L299.443 213.784C299.443 213.784 277.874 197.219 247.723 205.618L248.882 201.768Z" fill="#3333CC"/>
<path d="M247.373 207.601L246.213 211.568C246.213 211.568 281.93 202.235 302.688 224.283L300.484 217.517C300.484 217.517 285.641 200.135 247.373 207.601Z" fill="#3333CC"/>
<path d="M351.627 165.372L368.906 157.206L369.138 158.372L367.862 161.055L363.339 169.571L354.178 168.638L351.627 167.005V165.372Z" fill="#FF643B"/>
<path d="M383.75 158.489C383.75 158.489 372.385 161.055 368.442 157.906L351.859 165.838L356.382 169.571L366.703 167.821L379.459 163.039L383.75 158.489Z" fill="#FFAB3B"/>
<path d="M384.095 158.139V208.184L368.672 222.417L361.83 196.635C361.83 196.635 366.005 174.237 366.005 173.771C366.005 173.304 369.368 164.438 369.368 164.438L384.095 158.139Z" fill="#FF643B"/>
<path d="M351.624 165.371C351.624 165.371 359.742 169.454 369.367 164.438L368.671 222.417C368.671 222.417 356.843 228.483 348.029 222.417C348.029 222.417 349.421 171.088 351.624 165.371Z" fill="#EB5C37"/>
<path d="M357.193 180.187C352.902 180.187 349.771 178.787 349.771 178.787C349.655 178.787 349.539 178.554 349.655 178.437C349.655 178.32 349.887 178.204 350.003 178.32C350.119 178.32 359.744 182.637 368.906 175.754C369.022 175.637 369.138 175.754 369.254 175.754C369.369 175.871 369.254 175.987 369.254 176.104C364.963 179.37 360.672 180.187 357.193 180.187Z" fill="#FFAB3B"/>
<path d="M355.804 183.453C351.745 183.453 349.774 182.287 349.542 182.17C349.426 182.054 349.426 181.937 349.426 181.82C349.542 181.704 349.658 181.704 349.774 181.704C349.774 181.704 355.92 185.436 368.908 179.72C369.024 179.72 369.14 179.72 369.256 179.837C369.256 179.954 369.256 180.07 369.14 180.187C363.342 182.753 358.935 183.453 355.804 183.453Z" fill="#FFAB3B"/>
<path d="M372.152 173.771C373.428 170.621 380.386 168.521 381.545 169.921C382.705 171.321 383.169 180.887 381.545 183.337C379.922 185.903 373.776 191.736 371.573 189.053C369.485 186.37 371.109 176.104 372.152 173.771Z" fill="#3333CC"/>
<path d="M131.757 112.876C131.757 112.876 134.888 110.193 138.135 109.376C141.382 108.56 144.281 109.26 144.281 109.26L147.76 108.326C147.76 108.326 154.138 109.493 157.153 112.526L157.269 119.059C157.269 119.059 156.805 124.659 156.689 124.775C156.573 124.892 153.906 126.408 153.906 126.408L152.862 130.141L152.514 131.891L151.934 136.791L144.281 137.141L133.96 134.458L130.713 122.559L131.757 112.876Z" fill="#FFAB3B"/>
<path d="M133.148 135.974C133.032 135.857 127.002 132.824 122.943 135.391C118.884 137.957 120.856 143.44 120.856 143.44L127.582 144.14C127.582 144.14 136.279 143.79 136.743 143.673C137.207 143.44 139.41 138.89 139.41 138.89L134.423 136.091L133.148 135.974Z" fill="#D45430"/>
<path d="M131.873 142.39C131.873 142.39 129.902 142.624 127.814 142.157L128.046 146.24L131.641 146.006L131.873 142.39Z" fill="#F7D5A0"/>
<path d="M120.51 139.007C120.51 139.007 117.495 142.507 120.394 146.94L128.859 146.24C128.859 146.24 127.7 144.84 128.279 142.274C128.279 142.274 123.873 138.074 120.51 139.007Z" fill="#FF933B"/>
<path d="M122.713 139.007C121.322 140.174 119.698 142.507 121.322 146.94L120.394 147.056C117.495 142.623 120.51 139.124 120.51 139.124C121.206 138.89 121.901 138.89 122.713 139.007Z" fill="#FFAB3B"/>
<path d="M148.805 123.842L146.718 122.675C146.718 122.675 146.022 124.775 145.906 125.008C145.906 125.242 147.298 126.175 147.298 126.175L148.805 123.842Z" fill="#F7D5A0"/>
<path d="M146.02 128.508C146.02 128.741 141.266 128.858 141.034 128.741C140.802 128.625 139.642 118.359 139.874 118.359C140.106 118.359 145.904 117.892 146.136 118.009C146.368 118.126 146.136 127.808 146.02 128.508Z" fill="black"/>
<path d="M147.182 123.608C147.298 123.492 147.646 120.692 146.138 119.292V121.975C146.138 121.975 142.427 121.975 139.876 121.042C137.325 120.109 138.948 122.092 140.572 122.558C140.572 122.558 138.716 122.325 138.6 122.908C138.368 123.608 143.007 127.341 146.022 125.592L146.95 124.075L147.182 123.608Z" fill="#F7D5A0"/>
<path d="M147.414 108.093C147.414 108.093 148.573 108.91 148.226 110.309C147.994 111.709 145.558 116.259 142.543 117.075C142.543 117.075 136.861 112.876 138.253 109.143C139.644 105.293 141.964 107.043 141.964 107.043L147.414 108.093Z" fill="#F7D5A0"/>
<path d="M138.251 108.91C139.642 105.06 141.962 106.81 141.962 106.81L147.528 107.976C147.528 107.976 147.644 108.093 147.876 108.326C147.876 108.326 147.296 112.643 142.889 113.226C138.831 113.693 138.019 109.493 138.251 108.91Z" fill="#F7D5A0"/>
<path d="M147.646 99.3438C147.646 99.3438 151.357 110.076 143.239 111.709C135.006 113.343 137.557 99.4604 137.557 99.4604L143.819 98.0605L147.646 99.3438Z" fill="#F7D5A0"/>
<path d="M137.553 104.593C137.553 104.593 136.857 103.66 135.813 104.01C134.769 104.36 136.625 109.026 138.248 108.327C139.872 107.627 137.553 104.593 137.553 104.593Z" fill="#F7D5A0"/>
<path d="M146.949 100.044C146.949 100.044 143.702 105.877 137.208 104.243C130.714 102.61 134.192 98.5273 134.192 98.5273C134.192 98.5273 134.888 99.3439 135.352 99.3439C135.932 99.3439 138.367 93.1612 144.049 93.8611C149.848 94.5611 148.108 96.4275 148.108 96.4275C148.108 96.4275 149.268 96.0776 150.428 97.5941C151.471 99.1106 151.703 103.427 149.5 104.71L148.572 103.66C148.456 103.66 148.108 101.91 146.949 100.044Z" fill="#000005"/>
<path d="M148.106 104.01C148.106 104.01 148.686 102.96 149.73 103.193C150.89 103.427 149.498 108.327 147.759 107.743C146.019 107.277 148.106 104.01 148.106 104.01Z" fill="#F7D5A0"/>
<path d="M130.482 141.924C130.482 141.924 130.25 144.957 130.714 146.473C130.714 146.473 151.008 147.873 159.009 144.957C167.011 142.04 168.054 138.424 165.039 135.857C161.908 133.174 150.312 132.591 130.482 141.924Z" fill="#FF653B"/>
<path d="M157.271 142.04C157.271 142.04 153.908 146.123 152.748 146.356L157.155 146.123L158.662 145.306L158.778 143.323L157.271 142.04Z" fill="#F7D5A0"/>
<path d="M164.69 137.957C164.69 137.957 168.053 141.107 165.618 145.773L157.152 146.006C157.152 146.006 158.08 144.49 157.268 141.923C157.268 142.04 161.095 137.374 164.69 137.957Z" fill="#FFAB3B"/>
<path d="M162.486 138.191C163.994 139.124 165.849 141.34 164.69 145.89H165.617C168.053 141.107 164.69 138.074 164.69 138.074C163.878 137.841 163.182 137.957 162.486 138.191Z" fill="#20709C"/>
<path d="M147.065 136.324C147.065 136.324 148.92 137.374 149.964 138.891C150.892 140.407 151.356 142.157 151.24 143.557C151.124 144.957 150.544 146.473 150.196 146.59C149.848 146.706 149.848 146.123 149.848 146.123C149.848 146.123 149.616 148.106 148.804 148.339C147.877 148.573 148.224 146.706 148.224 146.706C148.224 146.706 148.34 148.223 147.761 148.339C147.181 148.456 145.441 144.257 146.253 139.241C146.137 139.241 145.905 137.141 147.065 136.324Z" fill="#F7D5A0"/>
<path d="M149.963 140.057C149.963 140.057 151.702 141.573 152.63 141.807C152.63 141.807 152.398 143.206 150.311 142.157C148.223 141.107 149.963 140.057 149.963 140.057Z" fill="#F7D5A0"/>
<path d="M146.136 139.24L145.324 139.007L143.469 137.607L145.208 136.441L146.02 135.974H146.716L147.296 136.324L148.919 138.657L146.136 139.24Z" fill="#F7D5A0"/>
<path d="M147.064 135.741C147.064 135.741 145.325 136.674 145.557 139.241C145.557 139.241 128.974 139.94 124.799 133.291C120.624 126.642 130.365 114.043 131.641 112.876C131.641 112.876 137.207 124.075 135.236 129.325C135.236 129.325 146.368 135.158 147.064 135.741Z" fill="#FFBC62"/>
<path d="M148.456 123.142C148.456 123.142 146.948 125.242 146.832 126.525C146.832 126.525 153.326 135.624 160.4 135.041C167.474 134.458 163.183 118.009 157.153 112.409C157.153 112.409 152.514 118.126 154.254 125.242C154.254 125.358 151.007 124.425 148.456 123.142Z" fill="#FFBC62"/>
<path d="M159.357 145.423C159.357 145.306 159.821 143.557 159.009 142.04L158.777 142.157C159.473 143.673 159.125 145.306 159.125 145.423H159.357Z" fill="white"/>
<path d="M160.746 145.423C160.746 145.306 161.21 143.207 160.05 141.457L159.818 141.574C160.978 143.207 160.514 145.306 160.514 145.306L160.746 145.423Z" fill="white"/>
<path d="M127.467 145.773L127.699 145.657C127.003 143.44 127.583 142.507 127.583 142.507L127.351 142.39C127.235 142.507 126.771 143.557 127.467 145.773Z" fill="white"/>
<path d="M126.075 145.89L126.307 145.773C125.379 143.44 126.771 142.04 126.771 142.04L126.655 141.923C126.539 141.923 125.147 143.44 126.075 145.89Z" fill="white"/>
<path d="M145.557 138.774V138.54C145.441 138.54 128.279 134.924 126.887 131.074C125.495 127.108 132.685 115.092 132.685 114.859L132.453 114.742C132.105 115.209 125.264 127.108 126.539 131.074C128.047 135.157 144.862 138.657 145.557 138.774Z" fill="white"/>
<path d="M159.821 133.407C160.401 133.407 160.865 133.291 161.329 133.058C164.808 130.608 157.27 113.693 156.922 112.993L156.69 113.109C156.806 113.226 164.46 130.608 161.097 132.824C160.749 133.058 160.285 133.174 159.821 133.174C155.647 133.291 147.181 126.058 147.065 125.942L146.949 126.175C147.181 126.525 155.531 133.524 159.821 133.407Z" fill="white"/>
<path d="M350.003 240.032C348.495 240.032 347.104 240.615 347.104 241.548C347.104 243.532 353.134 242.715 352.902 241.199C352.67 240.265 351.046 240.032 350.003 240.032Z" fill="#3333CC"/>
<path d="M128.975 218.567C126.308 218.684 123.64 219.617 123.524 220.9C123.408 223.817 134.425 222.417 134.077 219.967C133.961 218.917 131.062 218.45 128.975 218.567Z" fill="#FFAB3B"/>
<path d="M109.374 225.333C112.389 225.567 116.912 227.083 115.868 229.999C114.825 232.916 103.344 232.216 102.764 228.6C102.185 224.983 107.055 225.1 109.374 225.333Z" fill="#3333CC"/>
<path d="M304.543 77.0623C304.543 77.0623 304.312 74.1459 305.123 70.7629L301.064 73.096C301.064 73.096 301.76 74.6126 301.412 76.9457L303.152 79.1621L304.543 78.2288V77.0623Z" fill="#F7D5A0"/>
<path d="M289.467 81.7285C289.467 81.7285 289.931 78.6955 290.395 76.9457L287.38 76.7124C287.38 76.7124 287.032 79.1621 286.568 80.3287L287.728 83.595L289.351 82.6618L289.467 81.7285Z" fill="#F7D5A0"/>
<path d="M293.644 53.4978C293.76 53.6144 302.109 52.5645 302.225 53.0312C302.457 53.4978 300.37 68.5465 301.066 73.796L303.269 75.4292L305.356 74.0293C305.356 74.0293 308.835 56.0642 309.879 51.2813C310.923 46.4984 297.471 44.0486 297.471 44.0486L291.672 47.6649L290.049 50.5814L293.644 53.4978Z" fill="#3333CC"/>
<path d="M290.976 47.6648C292.251 49.998 299.209 55.8308 299.325 56.9974C299.441 58.1639 290.976 77.7623 290.976 79.3955L287.613 78.2289L286.801 76.8291C286.801 76.8291 288.656 63.9968 290.976 60.2638C290.976 60.2638 282.162 56.5308 280.307 53.031C278.452 49.5313 279.495 44.0484 280.771 42.9985L291.208 45.4483L290.976 47.6648Z" fill="#2929B2"/>
<path d="M300.484 70.4128C300.484 70.4128 303.383 71.8128 306.63 71.1128L306.051 75.7792C306.051 75.7792 303.615 76.1292 300.716 75.0792L300.484 70.4128Z" fill="#2929B2"/>
<path d="M284.484 82.0787C284.484 82.0787 285.296 80.9121 286.572 80.3289C286.572 80.3289 288.543 81.4954 289.471 81.6121C289.471 81.6121 289.471 83.2453 290.283 85.3451C291.094 87.4449 292.834 91.2946 292.718 91.5279C292.602 91.7612 292.138 92.1111 291.558 92.2278C291.558 92.2278 286.456 88.6115 284.484 82.0787Z" fill="#FF653B"/>
<path d="M285.064 81.4954C286.572 85.9283 290.515 90.7113 292.254 91.9945C292.022 92.1111 291.906 92.2278 291.558 92.2278C291.558 92.2278 286.456 88.6114 284.484 82.0786C284.484 82.0786 284.716 81.8453 285.064 81.4954Z" fill="#D65532"/>
<path d="M300.139 79.3954C300.139 79.3954 300.487 77.9955 301.414 76.9456C301.414 76.9456 303.734 77.1788 304.545 77.0622C304.545 77.0622 305.125 78.5788 306.749 80.212C308.256 81.7285 311.387 84.645 311.387 84.995C311.271 85.2283 311.039 85.8116 310.576 86.0449C310.46 85.9283 304.429 84.645 300.139 79.3954Z" fill="#FF653B"/>
<path d="M300.371 78.5789C303.502 82.0786 308.952 84.995 311.039 85.4616C310.923 85.5783 310.692 85.8116 310.46 85.9282C310.46 85.9282 304.429 84.645 300.139 79.2788C300.139 79.3955 300.139 79.0455 300.371 78.5789Z" fill="#D65532"/>
<path d="M287.961 75.8958C287.961 75.8958 287.845 75.8958 287.961 75.8958C288.193 72.746 292.484 60.2637 292.832 59.0972C286.454 56.2974 283.902 52.7977 282.859 50.3479C281.699 47.7815 282.047 45.7983 282.047 45.7983C282.047 45.7983 282.047 45.6816 282.163 45.6816C282.163 45.6816 282.279 45.6816 282.279 45.7983C282.279 45.915 281.003 53.4976 293.064 58.9805H293.18V59.0972C293.18 59.2138 288.541 72.6294 288.193 75.7791C288.077 75.8958 288.077 75.8958 287.961 75.8958Z" fill="white"/>
<path d="M287.614 14.4177C287.614 14.4177 288.078 17.2175 286.918 19.6673C286.918 19.6673 287.846 25.7334 292.6 27.5999L294.804 24.1002L293.412 19.3173L290.165 17.1008L288.773 14.8844L289.353 13.0179L287.614 12.4346V14.4177Z" fill="#F7D5A0"/>
<path d="M287.148 18.9672C288.424 20.1338 290.627 20.9504 293.643 20.6004L293.759 20.4837V20.2504L293.527 19.3172L290.28 17.1007L290.048 16.7508L288.888 15.001V14.8843L289.004 14.5343L287.728 13.6011L287.612 14.5343C287.612 14.4177 287.96 16.7508 287.148 18.9672Z" fill="#F7D5A0"/>
<path d="M296.777 21.3003C296.777 21.3003 301.299 24.45 300.024 33.5493L300.836 38.9156L298.516 39.3822L293.762 41.1321C293.762 41.1321 294.458 35.7658 294.573 35.2992C294.573 34.8326 296.313 24.4501 296.313 24.4501L296.777 21.3003Z" fill="#FF8462"/>
<path d="M293.761 19.4338C293.761 19.4338 295.385 20.4838 296.776 21.1837C296.776 21.1837 297.936 34.8326 294.341 39.9655L285.296 41.0154L283.44 32.4994L279.498 24.1001L279.266 21.767C279.266 21.767 282.977 20.1338 287.035 19.6672C287.035 19.6672 290.746 26.4333 292.718 26.5499C292.718 26.5499 293.993 22.9336 293.761 20.1338V19.4338Z" fill="#FF653B"/>
<path d="M288.425 47.8982C288.425 47.8982 287.033 48.7148 286.453 49.4147C285.874 50.1147 284.598 53.4977 284.598 55.2476C284.482 57.1141 284.946 57.814 285.526 57.6973C285.99 57.6973 285.758 56.9974 285.758 56.9974C285.758 56.9974 285.642 58.2806 286.337 58.3973C287.033 58.6306 287.033 57.464 287.033 57.464C287.033 57.464 287.033 58.5139 287.845 58.5139C288.657 58.5139 289.352 53.1477 288.889 51.0479L290.512 49.0648L288.425 47.8982Z" fill="#F7D5A0"/>
<path d="M299.209 40.8986C299.093 41.9485 298.629 44.1651 298.05 45.0983C297.354 46.1483 289.932 50.5813 289.932 50.5813C289.932 50.5813 287.613 48.8314 287.381 48.1315L289.932 43.9317L298.397 40.082L299.209 40.8986Z" fill="#FF8462"/>
<path d="M298.981 35.2994C298.981 35.2994 299.677 32.733 299.909 32.6163C300.141 32.4996 304.432 32.4996 304.432 32.6163C304.432 32.733 303.156 36.5826 303.156 36.5826C303.156 36.5826 300.953 42.8819 300.837 42.9986C300.721 43.1153 296.662 43.9318 296.546 43.6985C296.43 43.4652 297.822 39.149 297.822 39.149L298.981 35.2994Z" fill="black"/>
<path d="M295.847 39.3824C295.847 39.3824 297.239 35.416 298.978 35.416L298.167 38.2158C298.167 38.2158 302.109 37.5159 303.269 36.5826C303.269 36.5826 305.241 39.9657 301.298 41.3656C297.471 42.7655 295.268 41.7155 295.268 41.7155L295.847 39.3824Z" fill="#F7D5A0"/>
<path d="M279.147 21.7671C279.147 21.7671 273.929 28.6498 277.176 39.8489C280.307 51.0479 292.947 44.6318 296.194 42.7653C296.194 42.7653 296.31 40.5488 295.498 39.3823C295.498 39.3823 286.917 39.6156 285.293 39.9655C285.293 39.9655 284.481 35.066 284.249 31.2163C284.018 27.25 281.466 21.7671 279.147 21.7671Z" fill="#FF8462"/>
<path d="M299.676 12.0846C300.372 12.7846 298.284 17.3341 296.545 18.2674L295.849 17.6841C295.849 17.6841 295.037 20.0172 293.53 20.1339C292.022 20.2505 286.572 17.6841 288.311 13.2512L289.471 11.7347L290.979 11.1514C291.095 11.268 297.589 9.98484 299.676 12.0846Z" fill="#F7D5A0"/>
<path d="M290.166 11.1512C290.166 11.1512 291.79 13.601 299.56 12.3178C299.56 12.3178 300.371 14.7676 299.907 16.0508C299.907 16.0508 302.691 13.951 300.719 7.76812C298.748 1.58524 292.37 3.80173 291.79 4.735C291.79 4.735 290.978 3.33512 289.587 3.80175C288.195 4.26838 283.672 9.28469 287.383 16.2842C287.383 16.1675 288.311 12.0845 290.166 11.1512Z" fill="#000005"/>
<path d="M290.516 11.9679C290.516 11.9679 290.747 10.8013 290.052 10.4513C289.356 10.1014 287.384 13.2511 289.008 14.0676C290.631 14.8842 290.516 11.9679 290.516 11.9679Z" fill="#F7D5A0"/>
<path d="M286.107 77.7625C286.107 77.7625 287.267 79.7457 291.21 80.0957L292.37 76.7125C292.37 76.7125 289.007 75.7793 286.571 73.446L286.107 77.7625Z" fill="#2929B2"/>
<path d="M288.657 25.2666C288.425 25.2666 288.193 25.15 288.193 24.9167C288.193 24.8001 288.193 24.5668 288.425 24.3335H288.541C288.773 24.3335 288.889 24.5668 288.889 24.6834C289.005 24.9167 288.889 25.0333 288.773 25.2666C288.889 25.15 288.773 25.2666 288.657 25.2666ZM288.657 24.4501C288.541 24.4501 288.541 24.4501 288.657 24.4501C288.425 24.5668 288.309 24.6834 288.425 24.8C288.425 24.9167 288.773 25.15 288.889 25.0333C289.005 24.9167 288.889 24.8 288.889 24.6834C288.773 24.5668 288.657 24.4501 288.657 24.4501Z" fill="white"/>
<path d="M290.63 27.25C290.398 27.25 290.166 27.1333 290.166 26.9C290.166 26.7833 290.166 26.55 290.398 26.3167H290.514C290.746 26.3167 290.862 26.55 290.862 26.6667C290.978 26.9 290.862 27.0167 290.746 27.25C290.862 27.25 290.746 27.25 290.63 27.25ZM290.63 26.55C290.514 26.55 290.514 26.55 290.63 26.55C290.398 26.6667 290.282 26.7833 290.398 26.9C290.398 27.0166 290.746 27.25 290.862 27.1333C290.978 27.0167 290.862 26.9 290.862 26.7833C290.746 26.55 290.63 26.55 290.63 26.55Z" fill="white"/>
<path d="M225.803 166.655C225.803 166.655 242.039 187.77 236.936 191.853L228.819 187.653L225.572 179.72L224.76 171.204L225.803 166.655Z" fill="#FF8462"/>
<path d="M220.701 234.432L221.281 236.532L223.484 236.299L223.252 233.616L220.701 234.432Z" fill="#F7D5A0"/>
<path d="M221.166 235.949C221.166 235.949 221.282 236.532 222.441 236.415C223.485 236.299 223.485 235.365 223.485 235.365C223.485 235.365 224.645 237.232 224.877 238.632C225.109 240.032 223.485 248.781 219.89 246.915C216.411 245.048 221.166 235.949 221.166 235.949Z" fill="#FFAB3B"/>
<path d="M224.878 238.632C224.878 238.282 224.762 238.049 224.646 237.699C224.066 240.265 222.559 244.815 221.747 245.748C221.051 246.565 220.355 246.448 218.848 245.748C219.08 246.332 219.427 246.682 219.891 247.032C223.486 248.782 225.11 240.032 224.878 238.632Z" fill="#FF653B"/>
<path d="M236.357 220.9L237.285 222.067C238.677 222.767 239.256 222.533 238.909 221.25L238.213 219.267L236.357 220.9Z" fill="#F7D5A0"/>
<path d="M237.169 222.067C237.169 222.067 236.357 223.933 237.517 226.267C237.517 226.267 245.286 229.766 247.722 227.9C250.273 226.033 243.779 221.95 238.792 221.25C238.792 221.25 239.14 222.067 237.169 222.067Z" fill="#FFAB3B"/>
<path d="M237.519 226.266C237.519 226.266 245.288 229.766 247.723 227.9C248.303 227.433 248.419 226.966 248.187 226.266C247.839 226.733 247.376 227.083 246.68 227.433C244.824 228.25 239.142 226.266 237.055 225.1C237.171 225.566 237.403 225.916 237.519 226.266Z" fill="#FF653B"/>
<path d="M218.152 161.172C218.152 161.172 217.92 163.388 218.268 163.738C218.616 164.088 220.703 165.022 220.703 165.022L218.964 167.122H214.673L212.122 166.422L211.658 165.372C211.658 165.372 213.746 164.322 213.978 164.088C214.209 163.855 214.093 160.355 214.093 160.355L218.152 161.172Z" fill="#F7D5A0"/>
<path d="M221.515 157.089C221.515 157.089 221.747 163.505 223.718 166.655C225.69 169.804 219.311 166.888 219.311 166.888L216.992 163.972V160.005L220.007 156.389L221.515 157.089Z" fill="#000005"/>
<path d="M210.615 157.672L207.6 163.038L210.963 165.372H213.63C213.63 165.372 215.021 163.738 214.905 163.738L214.557 160.472L210.615 157.672Z" fill="black"/>
<path d="M218.152 161.172C218.152 161.172 217.92 163.388 218.268 163.738C218.616 164.088 220.703 165.022 220.703 165.022L218.964 167.122H214.673L212.122 166.422L211.658 165.372C211.658 165.372 213.746 164.322 213.978 164.088C214.209 163.855 214.093 160.355 214.093 160.355L218.152 161.172Z" fill="#F7D5A0"/>
<path d="M218.151 161.172L214.092 160.472C214.092 160.472 214.092 161.989 214.092 163.038C215.135 163.505 216.527 163.855 218.151 163.622C217.919 162.922 218.151 161.172 218.151 161.172Z" fill="#F7D5A0"/>
<path d="M221.05 152.889C221.05 152.889 222.094 162.222 216.064 162.338C210.033 162.572 208.758 154.289 208.758 154.289L212.005 149.856L216.527 148.689L221.05 152.889Z" fill="#F7D5A0"/>
<path d="M220.587 155.106C220.587 155.106 221.63 152.656 222.79 153.356C223.834 154.056 223.254 157.789 220.355 157.789C217.34 157.555 220.587 155.106 220.587 155.106Z" fill="#F7D5A0"/>
<path d="M210.961 146.007C211.657 144.373 213.744 143.44 217.107 144.49C220.47 145.54 225.921 151.606 221.05 154.173C216.18 156.622 208.99 150.09 210.961 146.007Z" fill="#000005"/>
<path d="M211.656 145.773C211.656 145.773 210.149 145.307 208.062 147.756C205.51 150.789 201.22 163.622 205.626 171.788L212.12 165.721C212.12 165.721 210.613 159.189 211.888 150.906L211.656 145.773Z" fill="#000005"/>
<path d="M206.437 167.821C207.365 167.005 212.583 165.022 212.583 165.022C212.583 165.022 213.743 167.121 216.642 166.655C219.541 166.188 219.193 164.438 219.193 164.438L225.803 166.771C225.803 166.771 225.803 171.788 228.934 175.637C228.934 175.637 227.891 179.72 225.571 181.704C225.571 181.704 225.108 187.886 226.615 189.87C228.123 191.736 229.746 196.519 228.934 201.419L226.383 199.902L221.165 195.469L213.511 196.402L205.857 199.552C205.857 199.552 210.38 188.936 210.844 186.603C211.308 184.27 207.017 178.67 207.017 178.67L206.437 167.821Z" fill="#FF653B"/>
<path d="M216.41 176.337L214.787 178.67L214.555 179.837L216.062 180.187L217.57 178.204L216.41 176.337Z" fill="#F7D5A0"/>
<path d="M214.904 177.854C214.904 177.854 215.6 179.371 216.528 179.954C216.528 179.954 210.498 193.019 203.076 192.32C195.654 191.62 201.337 171.788 206.439 167.822C206.439 167.822 212.121 169.688 208.99 179.021C207.251 184.037 207.831 184.62 207.831 184.62L214.904 177.854Z" fill="#FF8462"/>
<path d="M236.823 190.803L236.939 191.853C236.939 191.853 235.431 193.719 223.603 191.853C223.603 191.853 222.095 190.57 221.863 189.17C221.863 189.17 226.734 188.236 228.705 187.653C230.677 187.187 234.156 187.187 234.156 187.187L236.011 189.753L236.823 190.803Z" fill="#FF8462"/>
<path d="M220.239 202.235C220.239 202.235 215.021 213.317 207.599 209.234C199.25 204.568 208.991 191.503 221.863 189.053C221.863 189.053 233.807 203.635 238.794 220.434C238.794 220.434 236.938 221.95 236.242 221.6C236.358 221.6 221.631 205.268 220.239 202.235Z" fill="#2929B2"/>
<path d="M215.251 208.418C215.251 208.418 215.947 225.333 220.701 235.366C220.701 235.366 222.325 236.183 223.6 234.549C223.6 234.549 225.108 209.001 223.6 203.052C222.209 197.569 217.686 198.269 216.411 200.485C214.671 203.752 215.251 208.418 215.251 208.418Z" fill="#3333CC"/>
<path d="M216.761 169.688C216.414 169.688 216.182 169.455 216.066 169.221C216.066 169.105 215.95 168.755 216.414 168.405C216.414 168.405 216.529 168.288 216.645 168.288C216.877 168.288 217.109 168.521 217.225 168.755C217.341 169.105 217.225 169.338 217.109 169.455C216.877 169.571 216.761 169.688 216.761 169.688ZM216.645 168.521C216.529 168.521 216.529 168.521 216.645 168.521C216.298 168.755 216.298 168.871 216.298 169.105C216.414 169.338 216.761 169.455 216.877 169.338C216.993 169.221 216.993 168.988 216.877 168.871C216.877 168.755 216.761 168.521 216.645 168.521Z" fill="white"/>
<path d="M220.007 183.337C219.66 183.337 219.428 183.104 219.312 182.87C219.312 182.754 219.196 182.404 219.66 182.054C219.66 182.054 219.776 181.937 219.892 181.937C220.123 181.937 220.355 182.17 220.471 182.404C220.587 182.754 220.471 182.987 220.355 183.104C220.355 183.337 220.239 183.337 220.007 183.337ZM220.007 182.287C219.892 182.287 219.892 182.287 220.007 182.287C219.66 182.52 219.66 182.637 219.66 182.87C219.776 183.104 220.123 183.22 220.239 183.104C220.355 182.987 220.355 182.754 220.239 182.637C220.239 182.404 220.123 182.287 220.007 182.287Z" fill="white"/>
<path d="M218.963 188.12C218.615 188.12 218.383 187.886 218.267 187.653C218.267 187.536 218.151 187.186 218.615 186.836C218.615 186.836 218.731 186.72 218.847 186.72C219.079 186.72 219.31 186.953 219.426 187.186C219.542 187.536 219.426 187.77 219.31 187.886C219.194 188.003 219.079 188.12 218.963 188.12ZM218.847 186.953C218.731 186.953 218.731 186.953 218.847 186.953C218.499 187.186 218.499 187.303 218.499 187.536C218.615 187.77 218.963 187.886 219.079 187.77C219.194 187.653 219.194 187.42 219.079 187.303C219.079 187.186 218.963 186.953 218.847 186.953Z" fill="white"/>
<path d="M220.123 189.986L219.891 189.869C219.891 189.869 221.398 185.786 221.514 179.37C221.63 172.954 216.876 166.538 216.76 166.422L216.992 166.305C216.992 166.305 221.862 172.838 221.746 179.37C221.63 186.02 220.123 189.986 220.123 189.986Z" fill="white"/>
<path d="M220.704 189.286C219.892 188.936 218.384 189.053 217.225 189.753C216.065 190.453 213.862 192.436 214.674 192.786C215.253 193.136 216.181 192.202 216.181 192.202C216.181 192.202 214.442 193.602 215.253 194.186C216.181 194.769 217.457 192.436 217.457 192.436C217.457 192.436 216.181 194.886 216.877 195.002C217.573 195.119 218.964 192.202 218.964 192.202C218.964 192.202 218.384 194.419 219.196 194.536C220.008 194.536 220.704 189.286 220.704 189.286Z" fill="#F7D5A0"/>
<path d="M217.455 182.403C217.455 182.637 222.325 182.52 222.441 182.403C222.673 182.287 223.253 172.021 223.021 171.904C222.789 171.787 216.991 171.787 216.759 171.904C216.643 172.021 217.339 181.703 217.455 182.403Z" fill="black"/>
<path d="M215.948 177.504C215.832 177.387 215.253 174.588 216.76 173.071L216.876 175.754C216.876 175.754 220.587 175.637 223.138 174.471C225.573 173.304 224.066 175.521 222.442 176.104C222.442 176.104 224.298 175.754 224.414 176.337C224.646 177.037 220.587 180.537 217.34 178.904L216.064 177.971L215.948 177.504Z" fill="#F7D5A0"/>
<path d="M222.905 238.399C221.513 238.399 220.701 238.049 220.701 238.049L220.817 237.815C220.817 237.815 221.513 238.165 223.021 238.165V238.399H222.905Z" fill="white"/>
<path d="M222.673 239.682C220.933 239.565 220.354 239.215 220.354 239.215L220.469 238.982V239.099V238.982C220.469 238.982 221.049 239.332 222.673 239.332V239.682Z" fill="white"/>
<path d="M240.995 222.183L240.879 221.95L239.023 223.467L239.139 223.7L240.995 222.183Z" fill="white"/>
<path d="M240.532 224.167L240.416 223.933C240.416 223.933 241.692 222.883 242.156 222.3L242.387 222.417C241.924 223.117 240.648 224.167 240.532 224.167Z" fill="white"/>
<path d="M246.33 3.8019C249.229 3.91852 252.245 4.03516 255.144 4.03516C255.608 4.03516 255.608 3.33543 255.144 3.33543C252.129 3.2188 249.229 3.10217 246.33 3.10217C245.866 2.98555 245.866 3.68528 246.33 3.8019Z" fill="#3333CC"/>
<path d="M406.595 70.9963C406.943 70.413 408.798 67.0299 408.914 66.6799C409.03 66.3299 397.086 63.7634 397.086 63.7634L377.603 66.5632L374.82 67.2632L385.489 69.5964C385.489 69.5964 397.897 71.4629 398.361 71.5796C398.941 71.5796 406.595 70.9963 406.595 70.9963Z" fill="#FFC13B"/>
<path d="M406.595 70.9963C406.943 70.413 408.798 67.0299 408.914 66.6799C409.03 66.3299 397.086 63.7634 397.086 63.7634L377.603 66.5632L374.82 67.2632L385.489 69.5964C385.489 69.5964 397.897 71.4629 398.361 71.5796C398.941 71.5796 406.595 70.9963 406.595 70.9963Z" fill="#979FEF"/>
<path d="M415.177 80.9121C415.177 80.9121 410.307 70.063 409.611 69.8297C408.915 69.4797 375.749 67.3798 374.938 67.2632C374.126 67.1465 415.177 80.9121 415.177 80.9121Z" fill="#3333CC"/>
<path d="M408.914 66.6798C409.262 66.5631 409.262 56.4142 408.566 56.1809C407.87 55.9476 373.313 67.0297 374.936 67.1464C376.676 67.3797 408.334 66.9131 408.914 66.6798Z" fill="#3333CC"/>
<path d="M432.571 51.5147C432.223 55.481 429.903 59.214 426.424 61.0804C424.569 62.1303 422.366 62.4803 420.278 62.3637C418.307 62.247 415.756 61.6637 414.364 60.2638C412.741 58.6307 413.32 56.0643 415.06 54.7811C416.915 53.4979 419.467 53.7312 421.322 54.6644C424.917 56.4142 427.004 60.7305 425.613 64.5801C423.757 69.8296 417.263 70.6462 412.972 67.9631C412.625 67.7298 412.277 68.313 412.625 68.5464C416.915 71.1128 423.177 70.7628 425.729 65.9799C427.932 61.897 426.424 56.9975 422.714 54.4311C419.351 52.2147 412.972 52.3313 412.625 57.4641C412.277 62.3636 419.582 63.2969 422.945 62.7136C428.628 61.7804 432.802 56.9975 433.266 51.2814C433.266 51.0481 432.571 51.0481 432.571 51.5147Z" fill="#3333CC"/>
<path d="M336.783 2.16877C335.623 3.21862 335.971 5.08503 337.246 5.78493C338.986 6.83479 341.073 5.78492 342.117 4.38512C344.668 1.23556 337.478 -1.33074 336.551 2.63537C336.435 3.10197 337.13 3.33528 337.246 2.86868C337.594 1.46888 338.986 1.11891 340.146 1.46886C340.609 1.58551 341.305 1.81883 341.653 2.28543C342.349 3.10198 341.653 3.91852 341.073 4.38512C340.261 5.08502 339.334 5.66826 338.174 5.43496C336.898 5.20166 335.971 3.68522 337.13 2.75202C337.594 2.40207 337.13 1.81882 336.783 2.16877Z" fill="#3333CC"/>
<path d="M90.5883 17.4508C89.0807 18.734 89.5446 21.1837 91.1681 22.117C93.3714 23.2835 95.8067 22.1169 97.3143 20.4838C101.141 16.2842 91.4 12.9013 90.3563 18.0341C90.2404 18.5007 90.9362 18.734 91.0521 18.2674C91.4 16.2843 93.6034 15.8176 95.3429 16.4009C96.3865 16.7509 97.0823 17.1008 97.3143 18.1507C97.5462 19.2006 96.9664 19.9005 96.2706 20.4838C95.2269 21.417 93.7193 22.117 92.3278 21.767C90.5883 21.3004 89.5446 19.2006 91.0521 17.9174C91.4 17.6841 90.9362 17.1008 90.5883 17.4508Z" fill="#3333CC"/>
<path d="M196.003 21.5338C198.554 20.8339 200.989 20.0173 203.425 18.8507C203.889 18.6174 203.425 18.0341 203.077 18.2674C200.757 19.434 198.322 20.2506 195.887 20.8339C195.307 20.9505 195.539 21.6505 196.003 21.5338Z" fill="#3333CC"/>
<path d="M196.118 17.2173C197.857 19.4339 200.177 21.1839 201.684 23.5171C201.916 23.8671 202.612 23.5171 202.264 23.1672C200.756 20.7172 198.321 18.9673 196.582 16.7507C196.35 16.4007 195.886 16.8673 196.118 17.2173Z" fill="#3333CC"/>
<path d="M198.321 23.867C199.364 21.4171 200.292 19.0839 200.872 16.5174C200.988 16.0508 200.292 15.8175 200.176 16.2841C199.596 18.8506 198.668 21.3005 197.625 23.6337C197.393 24.1003 198.089 24.3336 198.321 23.867Z" fill="#3333CC"/>
<path d="M4.54372 55.9475C3.84793 58.0473 3.15214 60.1472 2.45634 62.3637C2.34038 62.8303 3.03617 63.0636 3.15214 62.597C3.84793 60.4971 4.54372 58.3973 5.23951 56.1808C5.47145 55.7141 4.77565 55.4808 4.54372 55.9475Z" fill="#3333CC"/>
<path d="M0.252844 58.8638C2.57214 59.4471 4.89143 60.0303 7.21073 60.4969C7.67459 60.6136 7.90651 59.9137 7.44265 59.797C5.12336 59.2138 2.80406 58.6305 0.48477 58.1639C0.0209107 58.0473 -0.211015 58.7472 0.252844 58.8638Z" fill="#3333CC"/>
<path d="M385.142 17.451C386.301 19.3174 387.577 21.1839 388.852 23.0504C389.084 23.4003 389.78 23.0504 389.432 22.7004C388.273 20.8339 386.997 18.9675 385.721 17.101C385.49 16.751 384.91 17.101 385.142 17.451Z" fill="#3333CC"/>
<path d="M384.794 22.7003C386.65 21.1838 388.505 19.7839 390.476 18.2673C390.824 17.9174 390.36 17.4507 390.013 17.8007C388.157 19.3173 386.302 20.7171 384.33 22.2337C383.982 22.467 384.446 22.9336 384.794 22.7003Z" fill="#3333CC"/>
<path d="M9.6452 137.724C12.5443 137.841 15.3275 138.074 18.1106 138.424C18.4585 138.424 18.6905 138.191 18.4585 137.841C16.951 135.624 14.8636 133.524 12.7762 131.891C12.4284 131.541 11.8485 132.124 12.3124 132.358C14.3998 133.991 16.4871 135.974 17.8787 138.191C17.9947 137.957 18.1106 137.841 18.2266 137.607C15.3275 137.257 12.4284 136.907 9.52923 136.791C9.18134 136.907 9.18134 137.724 9.6452 137.724Z" fill="#3333CC"/>
<path d="M443.239 120.459C441.151 118.476 438.948 116.609 436.745 114.743C436.745 114.976 436.629 115.093 436.629 115.326C439.18 114.859 441.963 114.976 444.514 115.326C444.978 115.326 445.21 114.626 444.746 114.626C442.079 114.276 439.064 114.159 436.397 114.626C436.165 114.626 436.049 115.093 436.281 115.209C438.484 116.959 440.687 118.942 442.775 120.925C443.123 121.275 443.586 120.809 443.239 120.459Z" fill="#3333CC"/>
<path d="M43.2746 43.1153C43.1586 48.4815 46.2897 53.7311 51.2762 55.9475C53.5955 56.9975 56.2627 57.3474 58.9299 56.9975C61.1332 56.6475 64.0323 55.8309 64.8441 53.3811C65.4239 51.3979 64.6122 49.0648 62.8727 47.7816C60.9013 46.3817 58.2341 46.265 56.0308 46.965C51.3922 48.4815 48.1451 53.2644 49.3048 58.164C50.6964 64.6968 58.2341 66.68 63.8004 63.9969C64.3802 63.7635 63.9164 62.9469 63.3366 63.1803C59.0458 65.2801 53.0157 64.3468 50.8123 59.6805C48.9569 55.5976 50.8123 50.9313 54.5232 48.7148C56.3786 47.6649 58.698 47.1983 60.7853 47.7816C62.9887 48.4815 64.6122 50.698 64.0323 53.0311C63.3366 55.4809 60.2055 56.0642 58.0022 56.2975C55.7988 56.4142 53.5955 56.0642 51.6241 55.1309C46.9855 53.0311 44.2023 48.2482 44.3183 43.2319C44.2023 42.532 43.2746 42.532 43.2746 43.1153Z" fill="#3333CC"/>
<path d="M66.7011 204.335C64.8456 203.985 20.1991 210.984 14.7488 193.953C9.29844 176.921 32.8393 151.956 43.5081 159.072C43.5081 159.072 35.5065 127.808 69.6002 122.442C103.694 117.192 86.0672 139.707 86.0672 139.707C86.0672 139.707 103.23 120.692 115.522 145.307C127.815 169.921 95.5763 184.27 95.5763 184.27C95.5763 184.27 118.537 189.053 106.593 199.785C94.5326 210.401 66.7011 204.335 66.7011 204.335Z" fill="#FF933B"/>
<path d="M102.302 160.006C101.374 160.006 80.848 160.822 70.6431 171.438C74.0061 155.456 78.9926 144.724 79.1086 144.49C79.3405 143.907 79.1086 143.207 78.5287 142.974C77.9489 142.74 77.2531 142.974 77.0212 143.557C76.9052 143.79 70.875 156.623 67.628 175.404C67.628 175.521 67.5121 175.754 67.5121 175.871C67.1642 178.204 66.7003 180.77 66.4684 183.337C57.3072 170.855 41.8838 168.521 41.188 168.405C40.6082 168.288 40.0284 168.755 39.9124 169.338C39.7965 169.921 40.2603 170.505 40.8401 170.621C40.9561 170.621 57.655 173.304 66.1205 186.837C65.6566 192.436 65.4247 198.269 65.7726 204.335C66.3524 204.335 66.8163 204.335 66.9322 204.335C66.9322 204.335 67.2801 204.452 68.0919 204.568C68.0919 204.452 68.0919 204.335 68.0919 204.335C67.628 194.186 68.4398 184.62 69.9473 176.337C77.9489 163.389 102.417 162.455 102.649 162.455C103.229 162.455 103.693 161.872 103.693 161.289C103.461 160.472 102.881 160.006 102.302 160.006Z" fill="white"/>
<path d="M43.8574 204.452L45.4809 202.469L47.4523 202.818H50.0036L50.9313 204.452C50.9313 204.452 49.3078 205.385 49.1918 205.385C49.0758 205.385 44.2053 204.918 44.2053 204.918L43.8574 204.452Z" fill="#FF643B"/>
<path d="M47.4512 202.819C48.7268 203.052 49.4226 203.635 49.4226 203.635C49.4226 203.635 64.1501 199.202 64.382 199.085C64.498 198.969 69.4845 197.452 69.4845 197.452L62.9905 194.419C56.7284 197.219 51.394 200.019 47.4512 202.819Z" fill="#979FEF"/>
<path d="M45.7106 203.285C45.7106 203.285 46.0585 203.052 47.4501 202.935C47.4501 202.935 40.1443 196.985 31.6789 194.419C31.6789 194.419 28.1999 195.586 26.2285 197.685L36.4334 201.885L38.5208 203.402L43.6232 202.935L45.7106 203.285Z" fill="#979FEF"/>
<path d="M44.089 236.065C44.089 236.065 45.1327 205.268 45.7125 203.168C45.7125 203.168 34.9278 198.385 25.3027 196.986C25.3027 196.986 24.1431 229.066 23.4473 231.283C23.4473 231.283 38.4067 232.332 44.089 236.065Z" fill="#3333CC"/>
<path d="M27.2715 227.55C27.2715 227.55 38.0563 229.533 40.4915 230.116C40.4915 230.116 40.6075 221.834 40.7234 221.017C40.7234 221.017 30.8664 217.401 27.9673 217.401C27.9673 217.517 27.5034 226.383 27.2715 227.55Z" fill="#FF643B"/>
<path d="M49.5359 235.249C49.5359 235.249 61.5963 229.766 68.6701 229.766C68.6701 229.766 69.8298 197.919 70.4096 196.869C70.4096 196.869 56.3778 197.336 49.4199 203.518L49.5359 235.249Z" fill="#2929B2"/>
<path d="M49.5383 235.249C49.5383 235.249 47.4509 238.748 44.0879 236.065C44.0879 236.065 44.4358 205.735 45.7114 203.168C45.7114 203.168 46.987 204.685 49.4223 203.518C49.4223 203.635 49.7702 232.332 49.5383 235.249Z" fill="#2B2B99"/>
<path d="M39.3319 222.65C33.6496 220.084 29.2429 219.851 29.2429 219.851C29.127 219.851 29.127 219.85 29.127 219.734C29.127 219.617 29.127 219.617 29.2429 219.617C29.2429 219.617 33.7656 219.85 39.4479 222.417C39.4479 222.533 39.4479 222.533 39.3319 222.65C39.4479 222.65 39.3319 222.65 39.3319 222.65Z" fill="#FFAB3B"/>
<path d="M39.1021 224.4C39.1021 224.4 38.9862 224.4 39.1021 224.4C35.6232 222.417 28.8972 221.833 28.8972 221.833C28.7813 221.833 28.7812 221.833 28.7812 221.717C28.7812 221.6 28.7813 221.6 28.8972 221.6C29.0132 221.6 35.7392 222.183 39.2181 224.167C39.2181 224.167 39.3341 224.283 39.2181 224.283C39.1021 224.4 39.1021 224.4 39.1021 224.4Z" fill="#FFAB3B"/>
<path d="M406.13 221.367L406.478 217.401L403.231 217.051L402.999 220.783L402.188 221.6L403.115 222.417L405.55 221.717L406.13 221.367Z" fill="#F7D5A0"/>
<path d="M372.732 159.539C372.732 160.939 373.312 162.689 374.24 163.972C374.936 165.138 373.544 165.372 372.153 164.088C371.225 163.272 370.761 162.105 370.761 162.105C370.761 162.105 369.138 163.738 366.818 164.672C364.615 165.488 362.064 166.071 360.904 165.372C359.628 164.672 362.064 164.088 362.064 164.088C362.064 164.088 359.164 165.372 358.469 164.438C357.773 163.388 367.63 161.522 370.065 158.022L372.732 159.539Z" fill="#F7D5A0"/>
<path d="M388.04 116.959C387.808 116.959 384.677 121.159 381.546 128.858C378.531 136.557 369.021 157.906 369.021 157.906C369.021 157.906 369.833 159.889 372.964 160.239C372.964 160.239 386.88 146.123 388.967 136.907L388.04 116.959Z" fill="#FF883B"/>
<path d="M406.131 221.367C406.131 221.367 407.058 223.467 405.667 226.033C405.667 226.033 397.085 229.883 394.302 227.783C391.519 225.683 397.317 221.717 402.884 220.9C403 220.9 402.072 222.533 406.131 221.367Z" fill="#FFAB3B"/>
<path d="M405.669 226.033C405.669 226.033 397.087 229.883 394.304 227.783C393.608 227.316 393.376 226.616 393.724 225.916C394.072 226.383 394.768 226.85 395.464 227.2C397.435 228.016 403.813 225.8 406.132 224.633C406.132 225.217 405.901 225.683 405.669 226.033Z" fill="#FF653B"/>
<path d="M398.246 115.559C398.246 115.559 397.898 117.426 397.086 118.359L397.434 122.325L400.681 122.675L402.188 119.526L402.42 116.492L398.246 115.559Z" fill="#F7D5A0"/>
<path d="M390.474 151.14C392.794 152.656 404.97 151.606 407.173 150.323C407.173 150.323 408.681 135.857 411.116 132.474V123.025L402.187 119.525L401.375 123.025L399.056 121.859L397.084 118.359C397.084 118.359 389.663 116.492 388.039 116.842L386.531 127.225C385.836 132.358 387.807 145.19 390.474 151.14Z" fill="#FF883B"/>
<path d="M407.173 151.256C407.173 151.256 409.725 156.856 410.188 163.505C410.652 170.155 407.985 189.403 408.101 194.886C408.217 200.252 407.405 218.334 407.405 218.334C407.405 218.334 404.39 218.567 402.883 218.334C401.375 218.1 401.491 201.185 401.491 201.185L399.984 172.721L392.562 161.405L389.895 153.123L407.173 151.256Z" fill="#2929B2"/>
<path d="M409.725 213.784C409.725 213.784 409.029 212.968 407.986 211.684L405.898 213.784L408.566 217.167L410.305 215.534L409.725 213.784Z" fill="#F7D5A0"/>
<path d="M412.971 213.901C412.971 213.901 411.347 213.434 409.724 213.784C409.724 213.784 408.68 216.351 407.984 217.167C407.984 217.167 409.26 218.684 409.956 221.367C410.652 223.933 411.811 228.95 412.159 229.066C412.507 229.183 413.087 229.183 413.783 228.833C413.551 228.716 415.87 221.6 412.971 213.901Z" fill="#FFAB3B"/>
<path d="M412.047 213.667C413.786 219.034 413.554 226.617 412.859 228.95C413.091 228.95 413.438 228.833 413.67 228.716C413.67 228.716 415.874 221.6 412.975 213.901C412.975 213.901 412.627 213.784 412.047 213.667Z" fill="#FF653B"/>
<path d="M397.549 117.659C398.013 118.592 399.404 119.759 402.187 119.409L402.419 116.492L400.564 116.142H399.752H398.245C398.013 116.492 397.897 117.076 397.549 117.659Z" fill="#F7D5A0"/>
<path d="M400.563 103.31C400.215 103.427 397.664 105.06 396.388 110.193C395.113 115.326 398.128 117.776 400.679 118.359C403.23 118.942 407.869 116.609 408.681 108.91L404.97 104.827L400.563 103.31Z" fill="#F7D5A0"/>
<path d="M407.753 111.943C407.753 111.943 408.797 111.009 409.493 111.476C410.189 112.059 407.173 116.142 406.13 115.676L406.014 113.693L407.753 111.943Z" fill="#F7D5A0"/>
<path d="M399.985 102.027C399.521 103.077 398.477 108.093 404.508 110.543C410.654 112.993 410.77 111.36 410.886 108.443C410.886 105.527 408.798 101.444 405.783 100.277C402.072 98.8772 400.565 100.86 399.985 102.027Z" fill="#000005"/>
<path d="M401.956 100.86C401.376 100.627 396.737 98.994 396.621 107.043L397.549 108.91C397.549 108.91 399.752 107.626 400.564 106.227C400.68 105.993 401.84 103.66 401.84 103.66L401.956 100.86Z" fill="#000005"/>
<path d="M397.781 107.86C397.781 107.86 397.666 106.343 396.854 106.343C396.042 106.227 395.346 111.359 396.39 111.709L397.781 110.309V107.86Z" fill="#F7D5A0"/>
<path d="M372.965 158.605C372.617 158.605 372.385 158.372 372.269 158.139C372.269 158.022 372.153 157.672 372.617 157.322C372.617 157.322 372.733 157.206 372.849 157.206C373.081 157.206 373.312 157.439 373.428 157.789C373.544 158.139 373.428 158.372 373.312 158.489C373.196 158.605 373.08 158.605 372.965 158.605ZM372.849 157.439C372.501 157.672 372.501 157.789 372.501 158.022C372.617 158.256 372.965 158.372 373.08 158.256C373.196 158.139 373.196 157.906 373.08 157.789C373.196 157.556 373.081 157.439 372.849 157.439Z" fill="white"/>
<path d="M403.23 202.002H402.998C402.998 202.002 403.693 197.219 403.925 189.053C404.273 174.121 400.91 154.639 399.635 153.123L399.867 153.006C401.142 154.523 404.621 173.771 404.273 189.053C404.041 197.219 403.23 202.002 403.23 202.002Z" fill="white"/>
<path d="M403.694 218.334C403.346 216.701 402.998 210.634 402.998 210.401H403.23C403.23 210.401 403.578 216.584 403.926 218.334H403.694Z" fill="white"/>
<path d="M389.893 153.006C389.893 153.006 384.907 177.387 388.849 190.22C392.908 203.052 406.012 214.601 406.012 214.601C406.012 214.601 408.1 213.668 408.332 212.034C408.332 212.034 398.359 192.203 398.359 186.953C398.359 181.704 399.982 172.488 399.982 172.488C399.054 163.389 395.343 157.322 389.893 153.006Z" fill="#3333CC"/>
<path d="M401.491 159.539L401.375 159.305C401.375 159.305 405.55 156.622 405.434 152.423H405.666C405.782 156.739 401.491 159.539 401.491 159.539Z" fill="white"/>
<path d="M390.358 150.906L389.895 153.123C389.895 153.123 397.896 155.689 407.405 151.956L407.173 150.44C407.173 150.323 396.736 152.773 390.358 150.906Z" fill="#FFAB3B"/>
<path d="M399.404 122.092H399.172L397.896 129.208H398.128L399.404 122.092Z" fill="white"/>
<path d="M395.694 132.474C395.694 132.474 396.969 128.975 397.201 128.975C397.433 128.975 402.768 131.074 402.884 131.308C403 131.541 401.608 134.807 401.608 134.807L398.593 141.924C398.593 141.924 393.143 139.94 393.143 139.474C393.375 138.89 395.694 132.474 395.694 132.474Z" fill="black"/>
<path d="M402.767 139.124C402.071 138.891 403.115 136.091 401.723 134.808L400.911 136.674C400.911 136.674 398.012 134.458 396.273 132.008C394.533 129.558 395.113 133.291 396.505 134.924C396.505 134.924 394.881 133.058 394.301 133.291C393.606 133.524 392.214 137.374 396.041 139.241C399.752 141.107 402.187 140.874 402.187 140.874L402.767 139.124Z" fill="#F7D5A0"/>
<path d="M411.119 123.142C411.119 123.142 417.265 124.775 421.44 144.14C421.904 146.473 407.408 144.607 400.914 142.04C400.914 142.04 400.914 139.24 402.654 138.424C402.654 138.424 409.727 138.774 411.351 138.424L410.307 134.224C410.307 134.341 407.408 127.225 411.119 123.142Z" fill="#FF883B"/>
<path d="M397.317 118.009C397.317 118.009 398.709 121.625 399.289 122.092C399.289 122.092 397.085 125.358 396.853 125.358C396.506 125.358 394.07 119.875 394.07 117.776L397.317 118.009Z" fill="#FF653B"/>
<path d="M402.186 119.176C402.186 119.176 405.085 120.225 405.317 120.809C405.317 120.809 401.954 125.242 400.911 125.825L399.287 121.975C399.287 122.092 401.259 120.692 402.186 119.176Z" fill="#FF653B"/>
<path d="M403.349 223.35C402.19 222.883 400.914 222.067 400.914 222.067L401.03 221.95C401.03 221.95 402.306 222.767 403.465 223.233L403.349 223.35Z" fill="white"/>
<path d="M409.261 219.384L409.145 219.267C409.145 219.267 409.956 217.517 410.188 216.817H410.42C410.072 217.634 409.261 219.267 409.261 219.384Z" fill="white"/>
<path d="M188.695 164.672V164.088L131.756 164.555V165.138L188.695 164.672Z" fill="#F1F2F2"/>
<path d="M188.698 166.655V166.072L130.367 167.938V168.521L188.698 166.655Z" fill="#F1F2F2"/>
<path d="M188 171.205V170.621L130.018 172.254V172.838L188 171.205Z" fill="#F1F2F2"/>
<path d="M188.002 174.121V173.537L131.295 176.921V177.504L188.002 174.121Z" fill="#F1F2F2"/>
<path d="M188.348 177.387V176.804L132.453 179.137V179.72L188.348 177.387Z" fill="#F1F2F2"/>
<path d="M188.697 179.02V178.437L133.613 181.004V181.587L188.697 179.02Z" fill="#F1F2F2"/>
<path d="M141.613 167.471L150.427 167.121C150.427 167.121 157.269 174.471 155.181 187.536L149.615 182.753C149.615 182.753 147.064 188.469 145.556 190.336C145.556 190.336 146.832 172.488 141.613 167.471Z" fill="#FF643B"/>
<path d="M68.0923 135.274C68.0923 135.274 65.5411 136.207 66.3528 140.057L69.7158 141.573C69.7158 141.573 75.2822 140.874 75.5141 137.141C75.5141 137.141 74.1225 136.441 73.4267 134.457C72.7309 132.358 70.5276 133.408 70.5276 133.408L68.0923 135.274Z" fill="#F7D5A0"/>
<path d="M68.0925 135.274L70.6437 133.408C70.6437 133.408 72.8471 132.474 73.5429 134.458C73.8908 135.624 74.5866 136.441 75.0504 136.791C72.3832 138.307 67.7446 139.94 67.0488 136.324C67.3967 135.624 68.0925 135.274 68.0925 135.274Z" fill="#F7D5A0"/>
<path d="M69.3659 232.333L69.9457 234.199L69.5978 235.249L67.7424 235.482L66.4668 235.249L66.6987 234.316L66.9307 232.449L69.3659 232.333Z" fill="#F7D5A0"/>
<path d="M69.9489 234.199C69.9489 234.199 71.9203 238.049 71.2245 241.665C71.2245 241.665 59.744 243.065 54.4096 240.498C54.4096 240.498 53.5979 238.632 54.4096 237.699C55.2214 236.765 62.6431 235.949 66.7019 234.316C66.7019 234.432 66.8178 236.066 69.9489 234.199Z" fill="#1F6C96"/>
<path d="M69.9489 234.199C69.9489 234.199 71.9203 238.049 71.2245 241.665C71.2245 241.665 59.744 243.065 54.4096 240.498C54.4096 240.498 53.5979 238.632 54.4096 237.699C55.2214 236.765 62.6431 235.949 66.7019 234.316C66.7019 234.432 66.8178 236.066 69.9489 234.199Z" fill="#FF933B"/>
<path d="M76.3252 234.782L75.5134 229.416L74.0059 230.933L73.0781 234.899V236.649H75.5134L76.3252 234.782Z" fill="#F7D5A0"/>
<path d="M61.833 168.755C61.833 168.755 59.9775 176.221 61.3691 184.853C62.7607 193.486 64.2682 199.086 64.3842 199.785C64.5002 200.485 65.6598 228.016 66.8195 233.499C66.8195 233.499 68.6749 233.616 69.8346 232.799C69.8346 232.799 70.8782 221.833 70.9942 211.918C70.9942 202.002 70.9942 189.053 70.9942 189.053L71.574 183.454L69.3707 174.004L61.833 168.755Z" fill="#D65531"/>
<path d="M62.6413 129.791C62.6413 129.791 53.712 128.274 59.5103 119.875L65.5405 123.258L62.6413 129.791Z" fill="#000005"/>
<path d="M62.7563 121.275C60.9009 123.375 61.2487 130.725 62.8723 133.174H64.6117C64.6117 133.174 67.047 140.524 74.4687 135.507L77.3679 130.725L75.2805 123.725L69.0184 122.442L62.7563 121.275Z" fill="#F7D5A0"/>
<path d="M72.1519 126.641C72.1519 126.641 61.3672 128.391 59.5117 119.992C59.5117 119.992 64.2663 120.109 69.4847 118.359C74.7031 116.726 80.5014 118.709 80.6173 127.458C80.6173 135.507 97.3163 140.407 95.3449 149.04C94.0693 154.522 89.4307 153.473 88.503 159.422C87.4593 166.305 97.8961 175.521 82.3568 178.787L77.4863 168.638L80.8493 156.272L76.7905 143.323L75.5149 137.257C75.5149 137.257 72.1519 136.674 73.0796 129.791L72.1519 126.641Z" fill="#000005"/>
<path d="M82.7026 168.871C82.7026 168.871 84.558 174.821 82.0068 184.037C79.9194 191.386 74.585 198.619 74.585 198.619C74.585 198.619 80.9631 207.601 76.2085 233.149C76.2085 233.149 75.5127 234.316 72.8455 233.499C72.8455 233.499 70.4103 208.885 65.0759 200.952C65.0759 200.952 69.3666 182.753 67.859 175.171C67.859 175.171 62.2927 172.488 61.249 169.105C60.0894 165.722 65.8876 166.422 65.8876 166.422L79.3396 167.588L82.7026 168.871Z" fill="#FF653B"/>
<path d="M71.4551 127.691C71.4551 127.691 71.687 125.708 73.4265 126.175C75.1659 126.641 74.818 130.958 72.6147 131.074L71.687 129.908L71.4551 127.691Z" fill="#F7D5A0"/>
<path d="M59.8593 165.488L58.0039 163.272L60.4392 161.055L61.4828 162.805L60.3232 165.021L59.8593 165.488Z" fill="#F7D5A0"/>
<path d="M61.1341 138.774C60.0904 139.124 51.9728 149.74 51.8569 154.172C51.7409 158.605 58.8148 165.021 58.8148 165.021C58.8148 165.021 59.6265 162.805 61.4819 162.222C61.4819 162.222 58.5828 156.156 60.7862 151.256V147.056L62.1777 141.224L61.1341 138.774Z" fill="#979FEF"/>
<path d="M80.9652 162.572C80.9652 162.572 82.4728 168.405 82.7047 168.871C82.7047 168.871 72.3838 173.188 63.1066 167.938C63.1066 167.938 62.4108 165.838 62.4108 165.488C62.4108 165.138 64.9621 161.055 62.8747 153.006C62.8747 153.006 60.2075 152.073 59.5117 149.973C59.5117 149.973 61.4831 142.273 61.1352 138.774L66.5856 136.907C66.5856 136.907 65.31 139.24 69.3687 139.474C73.4275 139.707 75.5149 137.257 75.5149 137.257L83.2845 141.107L82.5888 149.273L80.9652 162.572Z" fill="#BDC3EF"/>
<path d="M61.4806 162.805C62.6403 161.989 65.5394 163.155 65.5394 164.088C65.5394 165.138 63.452 164.555 63.452 164.555C63.452 164.555 66.0033 165.138 65.6554 166.421C65.3075 167.705 62.9882 166.421 62.9882 166.421C62.9882 166.421 64.8436 167.471 64.0319 168.288C63.1041 169.221 62.1764 167.821 62.1764 167.821C62.1764 167.821 63.2201 168.755 62.6403 169.221C62.0605 169.688 59.9731 168.638 59.5092 166.538C59.0454 164.438 60.9008 163.155 61.4806 162.805Z" fill="#F7D5A0"/>
<path d="M62.876 160.939C62.76 159.772 64.1516 158.722 64.7314 159.772C65.3112 160.822 63.1079 162.689 62.876 160.939Z" fill="#F7D5A0"/>
<path d="M71.4565 149.273L73.08 150.439V153.239H71.5725C71.5725 153.239 71.3405 152.539 70.5288 151.489C69.717 150.556 69.3691 149.973 69.3691 149.973L71.4565 149.273Z" fill="#F7D5A0"/>
<path d="M83.2845 141.107C83.8643 140.99 86.0676 145.657 85.4878 151.489C84.908 157.322 83.2845 166.772 77.9501 165.372C72.6157 164.089 70.9922 153.123 70.9922 153.123C70.9922 153.123 72.3838 151.606 72.3838 149.74C72.3838 149.74 75.051 151.606 76.2106 153.356C76.3266 153.239 77.2543 142.273 83.2845 141.107Z" fill="#979FEF"/>
<path d="M54.0605 239.565C59.9748 240.382 65.773 240.032 65.773 240.032L64.6134 242.132C61.1344 242.132 56.9597 241.899 54.2925 240.615C54.4084 240.499 54.1765 240.149 54.0605 239.565Z" fill="#BCBEC0"/>
<path d="M76.3259 234.782C76.3259 234.782 78.2973 238.632 77.6015 242.248C77.6015 242.248 66.121 243.648 60.7866 241.082C60.7866 241.082 59.9748 239.215 60.7866 238.282C61.5983 237.349 69.0201 236.532 73.0789 234.899C73.0789 234.899 73.1948 236.532 76.3259 234.782Z" fill="#FFAB3B"/>
<path d="M60.4395 240.032C66.3537 241.665 74.2393 240.965 77.7182 240.615C77.7182 241.198 77.7182 241.782 77.6022 242.248C77.6022 242.248 66.1217 243.648 60.7873 241.082C60.7873 241.082 60.5554 240.615 60.4395 240.032Z" fill="#E6E7E8"/>
<path d="M67.1654 143.79C67.1654 143.79 66.2377 140.64 66.0058 140.407C65.7738 140.174 60.4395 140.29 60.4395 140.407C60.4395 140.524 61.947 145.19 61.947 145.19C61.947 145.19 64.6142 153.006 64.7301 153.006C64.8461 153.123 69.8326 154.173 69.9486 153.939C70.1805 153.706 68.441 148.34 68.441 148.34L67.1654 143.79Z" fill="black"/>
<path d="M71.4561 149.273C71.4561 149.273 71.1082 142.857 68.9048 143.324C67.9771 143.557 69.3687 146.59 69.3687 146.59C69.3687 146.59 66.4696 144.84 63.4545 144.49C60.5554 144.14 60.0915 145.54 61.4831 145.773C62.7587 146.007 63.6864 146.473 63.6864 146.473C63.6864 146.473 61.3671 146.357 61.0193 146.94C60.5554 147.523 61.947 148.107 62.5268 149.04C63.1066 149.973 62.8747 150.673 63.6864 150.906C64.4982 151.14 70.4124 151.723 70.4124 151.723L71.4561 149.273Z" fill="#F7D5A0"/>
<path d="M75.0507 233.966C75.0507 233.966 75.1667 233.966 75.1667 233.849C77.7179 221.95 71.9197 200.252 71.5718 198.969C80.733 185.903 80.1531 169.921 80.1531 169.688C80.1531 169.571 80.1531 169.571 80.0372 169.571C79.9212 169.571 79.9212 169.571 79.9212 169.688C79.9212 169.805 80.501 185.787 71.3398 198.852C71.3398 199.085 77.6019 221.6 74.9347 233.732C74.8188 233.849 74.9347 233.849 75.0507 233.966C74.9347 233.966 74.9347 233.966 75.0507 233.966Z" fill="white"/>
<path d="M79.5714 177.037C79.5714 177.037 79.6874 177.037 79.6874 176.92C79.6874 176.804 79.6874 176.804 79.5714 176.804C73.4253 174.704 74.585 170.738 74.7009 170.505C74.7009 170.388 74.7009 170.388 74.585 170.388C74.469 170.388 74.469 170.388 74.469 170.505C74.469 170.505 73.0774 174.937 79.5714 177.037Z" fill="white"/>
<path d="M73.081 237.115C73.197 237.115 73.197 237.115 73.081 237.115C73.197 237.115 73.197 236.999 73.197 236.999C73.197 236.999 71.6894 235.832 69.9499 235.832C69.9499 235.832 69.834 235.832 69.834 235.949C69.834 235.949 69.834 236.066 69.9499 236.066C71.6894 235.949 73.081 237.115 73.081 237.115Z" fill="white"/>
<path d="M71.6872 237.466C71.8032 237.349 71.8032 237.349 71.6872 237.232C71.6872 237.232 70.1797 236.299 68.4402 236.065C68.4402 236.065 68.3242 236.065 68.3242 236.182C68.3242 236.182 68.3242 236.299 68.4402 236.299C70.1797 236.532 71.5712 237.466 71.6872 237.466C71.5712 237.466 71.5712 237.466 71.6872 237.466Z" fill="#FFAB3B"/>
<path d="M70.0639 237.466C70.0639 237.466 70.1799 237.466 70.0639 237.466C70.1799 237.349 70.1799 237.349 70.0639 237.349C70.0639 237.349 68.5564 236.649 67.1648 236.416C67.1648 236.416 67.0488 236.416 67.0488 236.532C67.0488 236.649 67.0488 236.649 67.1648 236.649C68.5564 236.766 70.0639 237.466 70.0639 237.466Z" fill="white"/>
<path d="M66.0056 236.065C66.0056 236.065 66.1215 236.065 66.0056 236.065C66.1215 235.949 66.1215 235.949 66.0056 235.949C66.0056 235.949 64.8459 235.365 63.6863 235.365C63.6863 235.365 63.5703 235.365 63.5703 235.482C63.5703 235.482 63.5703 235.599 63.6863 235.599C64.8459 235.599 66.0056 236.065 66.0056 236.065Z" fill="white"/>
<path d="M64.7297 236.416C64.7297 236.416 64.8456 236.299 64.7297 236.416C64.8456 236.299 64.8456 236.299 64.7297 236.299C64.7297 236.299 63.1062 235.832 62.1785 235.716C62.1785 235.716 62.0625 235.716 62.0625 235.832C62.0625 235.832 62.0625 235.949 62.1785 235.949C63.1062 235.832 64.6137 236.299 64.7297 236.416Z" fill="white"/>
<path d="M62.9892 236.649C63.1052 236.649 63.1052 236.649 62.9892 236.649C63.1052 236.532 63.1052 236.532 62.9892 236.532C62.9892 236.532 61.7136 236.065 60.7859 235.949C60.7859 235.949 60.6699 235.949 60.6699 236.065C60.6699 236.065 60.6699 236.182 60.7859 236.182C61.7136 236.299 62.9892 236.649 62.9892 236.649Z" fill="#FFAB3B"/>
</svg>
