<svg width="351" height="149" viewBox="0 0 351 149" fill="none" xmlns="http://www.w3.org/2000/svg">
<path d="M236.267 72.4836C233.923 72.4836 231.463 72.2705 228.867 71.8637L229.003 71.0114C237.08 72.3092 243.976 71.5344 248.935 68.7837C253.023 66.5173 255.754 62.9337 256.645 58.6915C257.962 52.4154 254.824 46.4491 249.517 45.0738C247.25 44.4927 245.371 44.7251 243.841 45.345C246.32 48.8511 248.432 52.919 247.793 56.0571C247.424 57.8586 246.185 59.1952 244.093 60.0087C240.219 61.5003 238.359 60.1637 237.584 59.2145C235.763 56.9869 236.112 52.5703 238.436 48.948C239.541 47.2046 240.955 45.9067 242.524 45.0544C239.831 41.4321 236.906 38.5652 236.848 38.5071L237.448 37.8872C237.681 38.1197 240.625 41.0059 243.318 44.667C245.274 43.8534 247.463 43.6791 249.71 44.2602C252.577 44.9963 254.94 46.9528 256.374 49.7615C257.749 52.4735 258.137 55.7084 257.459 58.8852C256.529 63.3599 253.643 67.1566 249.323 69.5392C245.817 71.4957 241.381 72.4836 236.267 72.4836ZM243.047 45.7324C241.071 46.7784 239.792 48.425 239.172 49.4129C237.08 52.6865 236.693 56.7544 238.262 58.6915C239.347 60.0281 241.265 60.2218 243.802 59.2339C245.623 58.5365 246.65 57.4518 246.96 55.9215C247.541 53.0159 245.468 49.1223 243.047 45.7324Z" fill="#3333CC"/>
<path d="M175.5 139.003C272.426 139.003 351 132.724 351 124.979C351 117.233 272.426 110.954 175.5 110.954C78.574 110.954 0 117.233 0 124.979C0 132.724 78.574 139.003 175.5 139.003Z" fill="#F1F2F2"/>
<path d="M265.769 142.064C264.239 142.064 262.67 142.684 262.67 143.652C262.689 145.725 268.985 144.931 268.752 143.226C268.655 142.412 266.97 142.083 265.769 142.064Z" fill="#3333CC"/>
<path d="M91.9723 146.209C90.3064 146.248 88.6018 146.848 88.5824 147.681C88.5243 149.483 95.3816 148.592 95.1685 147.139C95.0716 146.403 93.2701 146.17 91.9723 146.209Z" fill="#FF643B"/>
<path d="M65.9962 133.657C68.805 133.909 73.0278 135.303 72.0399 137.977C71.052 140.65 60.3205 140.03 59.7975 136.718C59.2745 133.386 63.8073 133.463 65.9962 133.657Z" fill="#3333CC"/>
<path d="M150.008 28.1435C151.345 27.9111 152.856 27.6399 154.095 28.3566C154.618 28.6665 155.045 29.1121 155.2 29.7126C155.335 30.2356 155.277 30.778 155.49 31.2816C156.478 33.5867 159.035 31.4559 160.546 31.4172C161.224 31.3978 161.224 30.3518 160.546 30.3518C159.384 30.3712 158.396 31.3397 157.272 31.2816C156.342 31.2429 156.381 30.3712 156.265 29.6738C156.187 29.1895 156.013 28.7634 155.723 28.3566C154.309 26.4583 151.771 26.7294 149.737 27.0781C149.04 27.2525 149.33 28.2597 150.008 28.1435Z" fill="#3333CC"/>
<path d="M35.6613 24.1728C37.8309 24.3084 39.981 24.1922 42.1118 23.8435C42.7898 23.7273 42.4992 22.72 41.8212 22.8169C39.7679 23.1462 37.7146 23.243 35.6419 23.1074C34.9833 23.0687 34.9834 24.1147 35.6613 24.1728Z" fill="#3333CC"/>
<path d="M306.99 22.5456C307.262 24.9282 307.804 27.2527 308.676 29.4997C308.908 29.3254 309.141 29.1316 309.392 28.9573C307.823 27.8144 306.293 26.6328 304.763 25.4318C304.279 25.0444 303.581 25.7224 304.085 26.1098C305.673 27.3689 307.281 28.5893 308.908 29.7903C309.237 30.0421 309.76 29.6353 309.625 29.2479C308.792 27.0783 308.23 24.8507 307.978 22.5456C307.882 21.9451 306.913 21.9257 306.99 22.5456Z" fill="#3333CC"/>
<path d="M55.6144 120.097C53.3287 119.458 46.3358 116.727 48.9121 113.647C51.624 110.431 56.7767 114.286 56.7767 114.286C56.7767 114.286 39.6141 100.126 45.096 94.7601C49.4157 90.5179 58.6944 97.6657 58.6944 97.6657C58.6944 97.6657 29.6768 51.873 57.5903 41.0834C86.046 30.0614 88.3705 84.3192 79.9055 93.5785C79.9055 93.5785 89.8427 82.0141 96.4482 87.0505C103.402 92.3387 90.7144 117.075 72.2346 120.64C67.8762 121.473 60.7283 121.531 55.6144 120.097Z" fill="#FFAB3B"/>
<path d="M64.0409 119.904L63.576 119.69C69.6003 107.332 68.903 89.6075 67.2371 76.9002C65.4356 63.1275 62.1813 52.1249 62.1426 52.028L62.6268 51.873C62.6656 51.9893 65.9392 63.0113 67.7407 76.8227C68.8061 84.9391 69.1548 92.4356 68.7674 99.0605C68.3412 107.39 66.7335 114.402 64.0409 119.904Z" fill="white"/>
<path d="M68.3418 93.6754C60.0899 86.547 56.1188 66.1688 56.0801 65.9557L56.5837 65.8589C56.6225 66.0526 60.5547 86.2564 68.6711 93.288L68.3418 93.6754Z" fill="white"/>
<path d="M67.5468 108.552L67.2949 108.107C73.358 104.523 74.7527 94.0241 74.8689 85.8496C74.9852 76.939 73.6098 68.8032 73.6098 68.7064L74.1135 68.6289C74.1329 68.7064 75.4888 76.9003 75.392 85.8496C75.2176 97.937 72.5832 105.569 67.5468 108.552Z" fill="white"/>
<path d="M65.5516 114.925C58.1326 111.516 53.193 102.838 53.1543 102.76L53.5998 102.509C53.6386 102.586 58.5007 111.129 65.7841 114.46L65.5516 114.925Z" fill="white"/>
<path d="M64.6008 118.257L64.5039 117.753C77.4049 115.313 85.7344 100.61 85.8119 100.475L86.2574 100.726C86.238 100.765 84.1266 104.523 80.4074 108.552C76.9788 112.271 71.458 116.959 64.6008 118.257Z" fill="white"/>
<path d="M63.789 120.058C57.9196 119.167 55.382 117.482 55.2852 117.405L55.5757 116.979C55.5951 116.998 58.1327 118.683 63.8858 119.535L63.789 120.058Z" fill="white"/>
<path d="M234.251 30.6231C235.181 31.9597 239.888 32.3083 241.302 31.0686C242.716 29.8289 241.244 28.1823 243.627 24.4438C246.009 20.7052 248.411 21.4413 248.702 13.8092C248.973 6.64194 242.833 3.87191 237.777 3.79442C234.406 3.75568 227.045 6.06081 226.871 14.584C226.774 19.2717 230.668 21.5575 232.934 24.4438C235.123 27.2332 233.205 29.1121 234.251 30.6231Z" fill="#FF643B"/>
<path d="M233.922 31.4949C233.922 31.6111 238.687 32.9864 241.748 31.8048C241.748 31.8048 242.406 38.4684 239.714 39.0689C237.021 39.6694 234.425 39.0689 234.174 37.7517C233.941 36.4344 233.922 31.4949 233.922 31.4949Z" fill="#E6E7E8"/>
<path d="M242.406 15.6688C241.631 15.94 240.798 18.0126 240.198 19.9303C239.326 19.8722 238.745 19.4461 238.338 18.8456C240.643 16.4823 240.973 12.2401 240.372 10.3224C240.043 9.257 239.52 9.14078 239.249 9.17952C237.815 9.33449 236.808 12.6469 236.885 15.5138C236.905 16.831 237.157 17.9351 237.583 18.7487C237.331 18.9618 237.04 19.1555 236.75 19.3299C236.692 19.3686 236.634 19.388 236.576 19.4073C236.343 16.463 235.859 13.9254 234.948 13.0731C234.658 12.8019 234.328 12.6856 233.98 12.705C233.418 12.7631 233.011 13.1312 232.837 13.751C232.372 15.3395 233.437 18.3807 234.871 19.5623C235.239 19.8722 235.626 20.0466 236.014 20.0853C236.285 24.1726 236.169 29.054 236.033 31.5722C236.13 31.5916 236.227 31.6304 236.343 31.6497L236.653 31.6691C236.672 31.2623 236.982 25.1992 236.634 20.0466C236.769 20.0078 236.924 19.9497 237.06 19.8722C237.37 19.6979 237.66 19.5042 237.932 19.2911C238.455 20.0272 239.191 20.4534 240.062 20.5502C239.927 21.0345 239.791 21.48 239.694 21.8868C239.249 23.6883 238.28 28.2404 238.861 31.8434C239.074 31.8241 239.268 31.8047 239.481 31.7853C239.074 29.3252 239.384 25.7803 240.314 22.0418C240.45 21.4994 240.585 20.9957 240.721 20.5115C241.806 20.2209 242.58 18.8068 242.794 18.3226C243.22 17.4509 243.568 16.2886 243.142 15.8044C243.026 15.7075 242.794 15.5332 242.406 15.6688ZM235.22 19.078C233.96 18.0514 232.973 15.3007 233.379 13.9254C233.554 13.3636 233.902 13.3249 233.999 13.3055C234.019 13.3055 234.038 13.3055 234.077 13.3055C234.232 13.3055 234.367 13.3636 234.503 13.4992C235.278 14.2353 235.704 16.5986 235.936 19.4267C235.704 19.388 235.471 19.2717 235.22 19.078ZM238.028 18.2838C237.583 17.3153 237.486 16.153 237.486 15.4751C237.428 12.6469 238.454 9.8575 239.307 9.78002C239.307 9.78002 239.307 9.78002 239.326 9.78002C239.442 9.78002 239.636 10.0125 239.791 10.4967C240.333 12.2595 240.062 16.0949 238.028 18.2838ZM242.077 18.2838C241.786 18.8262 241.36 19.388 240.915 19.6979C241.612 17.5671 242.29 16.3467 242.6 16.2305C242.619 16.2305 242.639 16.2111 242.639 16.2111C242.735 16.4242 242.619 17.2572 242.077 18.2838Z" fill="white"/>
<path d="M238.647 35.2334C235.16 35.1559 233.01 34.013 232.894 33.9549C232.739 33.8774 232.681 33.6837 232.778 33.5481C232.855 33.3931 233.049 33.335 233.185 33.4319C233.223 33.4512 236.788 35.3108 242.037 34.3617C242.211 34.3229 242.366 34.4392 242.386 34.6135C242.425 34.7878 242.308 34.9428 242.134 34.9622C240.875 35.1753 239.713 35.2527 238.647 35.2334Z" fill="#3333CC"/>
<path d="M238.94 37.4418C235.608 37.3643 233.458 36.6669 233.342 36.6282C233.187 36.5701 233.09 36.3958 233.148 36.2408C233.206 36.0858 233.38 35.989 233.535 36.0471C233.574 36.0664 237.1 37.19 242 36.7057C242.175 36.6863 242.31 36.8025 242.33 36.9769C242.349 37.1512 242.233 37.2868 242.059 37.3062C240.954 37.4418 239.889 37.4612 238.94 37.4418Z" fill="#3333CC"/>
<path d="M38.1408 91.4282C36.9398 90.4597 35.7388 89.7236 34.5378 89.2587C33.3368 88.7938 32.1746 88.5614 31.0511 88.5614C29.6176 88.5614 28.4554 88.8907 27.5643 89.5686C26.6733 90.2466 26.2084 91.1183 26.2084 92.2031C26.2084 92.9585 26.4408 93.5784 26.8863 94.0627C27.3319 94.5469 27.9323 94.9731 28.6491 95.3218C29.3851 95.6705 30.1987 95.9804 31.1285 96.2516C32.039 96.5228 32.9494 96.794 33.8598 97.1039C37.4628 98.3049 40.0973 99.9127 41.7632 101.908C43.4291 103.922 44.262 106.538 44.262 109.753C44.262 111.923 43.8939 113.898 43.1579 115.661C42.4218 117.424 41.3563 118.935 39.9423 120.194C38.5282 121.453 36.8042 122.422 34.7703 123.119C32.717 123.816 30.4118 124.165 27.8161 124.165C22.4504 124.165 17.4914 122.577 12.9199 119.38L17.6464 110.489C19.293 111.942 20.9201 113.046 22.5472 113.743C24.155 114.46 25.7628 114.809 27.3319 114.809C29.1334 114.809 30.4699 114.402 31.361 113.569C32.2327 112.736 32.6782 111.806 32.6782 110.76C32.6782 110.121 32.562 109.579 32.3489 109.094C32.1165 108.63 31.7484 108.203 31.2254 107.797C30.7024 107.409 30.0244 107.041 29.1721 106.692C28.3198 106.363 27.3125 105.976 26.1115 105.569C24.6781 105.123 23.2833 104.62 21.9274 104.077C20.552 103.535 19.3317 102.818 18.2663 101.908C17.2009 101.017 16.3292 99.8739 15.6706 98.4986C15.012 97.1233 14.6827 95.3993 14.6827 93.2878C14.6827 91.1958 15.0313 89.2781 15.7287 87.5734C16.426 85.8688 17.3946 84.3966 18.6537 83.1956C19.9128 81.9753 21.4431 81.0261 23.264 80.3481C25.0849 79.6701 27.1188 79.3408 29.3658 79.3408C31.4579 79.3408 33.6661 79.6314 35.9519 80.2125C38.2377 80.7936 40.4266 81.646 42.538 82.7695L38.1408 91.4282Z" fill="#3333CC"/>
<path d="M62.2173 80.5806V122.983H51.1953V80.5806H62.2173Z" fill="#3333CC"/>
<path d="M69.1914 122.983L76.3974 80.5806H87.3032L95.7876 103.186L104.233 80.5806H115.139L122.345 122.983H111.381L107.72 98.5761L97.7053 122.983H93.3275L83.8164 98.5761L80.1553 122.983H69.1914Z" fill="#3333CC"/>
<path d="M140.342 122.983H129.32V80.5806H146.87C151.636 80.5806 155.277 81.8203 157.815 84.2998C160.352 86.7792 161.612 90.266 161.612 94.76C161.612 99.2541 160.352 102.741 157.815 105.22C155.277 107.7 151.636 108.94 146.87 108.94H140.342V122.983ZM140.342 100.048H144.003C148.052 100.048 150.086 98.2855 150.086 94.76C150.086 91.2345 148.052 89.4718 144.003 89.4718H140.342V100.048Z" fill="#3333CC"/>
<path d="M178.483 80.5806V113.647H191.694V122.983H167.461V80.5806H178.483Z" fill="#3333CC"/>
<path d="M208.411 80.5806V122.983H197.389V80.5806H208.411Z" fill="#3333CC"/>
<path d="M247.831 94.7601C245.274 91.6414 242.136 90.0917 238.378 90.0917C236.731 90.0917 235.201 90.4017 233.787 90.9828C232.373 91.5833 231.172 92.3969 230.165 93.4235C229.157 94.4502 228.363 95.6899 227.782 97.104C227.201 98.5374 226.91 100.068 226.91 101.714C226.91 103.4 227.201 104.949 227.782 106.383C228.363 107.816 229.177 109.036 230.203 110.102C231.23 111.148 232.45 111.981 233.826 112.581C235.22 113.182 236.712 113.472 238.32 113.472C241.845 113.472 245.022 111.981 247.831 108.978V122.034L246.707 122.422C245.022 123.022 243.453 123.468 241.981 123.739C240.528 124.029 239.075 124.165 237.642 124.165C234.717 124.165 231.908 123.603 229.235 122.499C226.562 121.395 224.198 119.845 222.145 117.831C220.092 115.816 218.465 113.453 217.225 110.683C215.985 107.932 215.365 104.91 215.365 101.656C215.365 98.4018 215.966 95.3993 217.186 92.6874C218.406 89.9755 220.034 87.6316 222.087 85.6558C224.121 83.68 226.503 82.1497 229.196 81.0455C231.889 79.9414 234.736 79.3796 237.68 79.3796C239.366 79.3796 241.032 79.554 242.659 79.922C244.286 80.2707 246.01 80.8325 247.811 81.5879V94.7601H247.831Z" fill="#3333CC"/>
<path d="M265.825 80.5806V122.983H254.803V80.5806H265.825Z" fill="#3333CC"/>
<path d="M290.795 89.9173V122.983H279.773V89.9173H270.727V80.5806H299.86V89.9173H290.795Z" fill="#3333CC"/>
<path d="M317.739 102.625L302.281 80.5806H315.434L323.318 92.1643L331.144 80.5806H344.297L328.781 102.625V122.983H317.759V102.625H317.739Z" fill="#3333CC"/>
<path d="M110.007 14.2354C111.189 11.8528 112.467 9.50893 113.862 7.22317C114.114 6.79701 113.455 6.4096 113.203 6.83575C111.828 9.12152 110.53 11.446 109.349 13.848C109.135 14.2935 109.794 14.681 110.007 14.2354Z" fill="#3333CC"/>
<path d="M113.127 17.5285C115.413 16.2113 117.776 14.991 120.178 13.9256C120.623 13.7319 120.236 13.0732 119.791 13.267C117.369 14.3517 115.025 15.5527 112.74 16.8699C112.313 17.1217 112.701 17.7804 113.127 17.5285Z" fill="#3333CC"/>
<path d="M106.153 13.1119C104.855 10.7486 104.526 7.88176 104.332 5.22795C104.293 4.74368 103.538 4.74368 103.557 5.22795C103.751 8.01735 104.119 11.0005 105.475 13.4993C105.746 13.9255 106.405 13.5574 106.153 13.1119Z" fill="#3333CC"/>
<path d="M242.968 1.17953C246.165 1.72192 252.189 4.14327 250.872 8.40486C250.775 8.7148 251.259 8.85039 251.356 8.54046C252.77 3.96893 246.571 1.29576 243.104 0.69526C242.794 0.637148 242.658 1.12142 242.968 1.17953Z" fill="#3333CC"/>
<path d="M251.124 8.90834C250.969 8.90834 250.834 8.83085 250.756 8.734C250.679 8.61777 250.66 8.50155 250.698 8.36595C251.028 7.31993 250.892 6.31264 250.33 5.38284C248.839 2.96148 244.848 1.70238 242.95 1.37307C242.737 1.33433 242.582 1.15999 242.601 0.927544C242.621 0.695094 242.834 0.443273 243.144 0.501386C245.952 0.985657 249.652 2.57407 251.105 4.93731C251.802 6.08019 251.957 7.30056 251.57 8.59841C251.492 8.79212 251.338 8.90834 251.124 8.90834ZM242.989 0.985657C244.964 1.33433 249.091 2.63218 250.66 5.16976C251.299 6.19642 251.434 7.30056 251.066 8.46281C251.066 8.48218 251.066 8.50155 251.066 8.50155C251.066 8.52092 251.105 8.52092 251.124 8.52092C251.163 8.52092 251.163 8.50155 251.183 8.48218C251.551 7.30056 251.396 6.17705 250.756 5.15039C249.362 2.884 245.797 1.3537 243.066 0.888803C243.027 0.888803 243.008 0.908173 242.989 0.927544C242.989 0.946915 242.989 0.966287 242.989 0.985657Z" fill="#3333CC"/>
<path d="M248.568 0.675743C250.757 1.19876 252.229 2.90339 253.062 4.93733C253.178 5.22789 253.663 5.11167 253.546 4.80174C252.655 2.61283 251.086 0.753226 248.704 0.191471C248.394 0.113988 248.258 0.598259 248.568 0.675743Z" fill="#3333CC"/>
<path d="M253.313 5.30546C253.119 5.30546 252.945 5.18924 252.887 5.0149C251.996 2.80662 250.446 1.33443 248.528 0.869533C248.315 0.811421 248.18 0.617713 248.199 0.404634C248.238 0.133442 248.49 -0.0602669 248.741 0.0172166C251.55 0.695197 252.984 2.96159 253.72 4.74371C253.778 4.8793 253.759 5.0149 253.681 5.11175C253.604 5.22798 253.468 5.30546 253.313 5.30546ZM248.645 0.385262C248.606 0.385262 248.587 0.424004 248.587 0.443375C248.587 0.482117 248.606 0.482116 248.625 0.482116C250.659 0.966388 252.306 2.53543 253.255 4.85993C253.255 4.8793 253.274 4.89867 253.332 4.89867C253.371 4.89867 253.391 4.8793 253.391 4.8793C253.391 4.8793 253.391 4.8793 253.391 4.85993C252.713 3.1553 251.337 1.00513 248.683 0.365893C248.645 0.385264 248.645 0.385262 248.645 0.385262Z" fill="#3333CC"/>
<path d="M191.848 17.8384C191.809 19.2912 193.301 20.1435 194.599 19.6399C196.207 19.02 196.807 16.9667 196.478 15.3977C195.78 12.0271 190.047 15.3589 192.081 18.1871C192.274 18.4389 192.701 18.1871 192.507 17.9159C191.732 16.8505 192.371 15.6107 193.378 14.9521C193.688 14.7584 194.056 14.5841 194.425 14.4872C195.471 14.2354 195.994 15.1458 196.052 16.0369C196.09 16.9667 195.858 18.0321 195.161 18.6907C194.192 19.6011 192.313 19.4074 192.352 17.7996C192.352 17.4897 191.868 17.5091 191.848 17.8384Z" fill="#3333CC"/>
<path d="M193.845 19.9691C193.244 19.9691 192.644 19.7366 192.237 19.3105C191.85 18.9231 191.656 18.3807 191.656 17.8189C191.327 17.0828 191.424 16.2693 191.908 15.5138C192.547 14.5065 193.787 13.7898 194.852 13.7898C195.801 13.7898 196.479 14.3709 196.673 15.3588C197.022 17.0441 196.363 19.1749 194.678 19.8141C194.407 19.9304 194.116 19.9691 193.845 19.9691ZM192.14 18.4582C192.218 18.6713 192.334 18.865 192.508 19.0393C193.012 19.5429 193.826 19.7173 194.542 19.4461C196.034 18.865 196.615 16.9472 196.305 15.4363C196.092 14.3903 195.395 14.1772 194.852 14.1772C193.922 14.1772 192.799 14.8358 192.237 15.7269C191.985 16.1337 191.734 16.7342 191.927 17.4315C191.966 17.4121 192.005 17.4121 192.043 17.3928C191.966 17.1216 191.947 16.831 192.005 16.5405C192.14 15.8819 192.605 15.2426 193.283 14.8165C193.535 14.6421 193.942 14.429 194.387 14.3322C194.523 14.2934 194.659 14.2741 194.775 14.2741C195.724 14.2741 196.189 15.1651 196.247 16.0368C196.305 17.1797 195.956 18.2257 195.298 18.8456C194.891 19.233 194.349 19.4461 193.787 19.4461C193.089 19.4461 192.528 19.0974 192.295 18.5357H192.276L192.257 18.4775C192.218 18.4969 192.179 18.4775 192.14 18.4582ZM192.625 18.3613C192.799 18.8068 193.225 19.0587 193.787 19.0587C194.252 19.0587 194.717 18.8843 195.027 18.5744C195.588 18.032 195.898 17.1022 195.86 16.0562C195.821 15.3588 195.472 14.6615 194.775 14.6615C194.678 14.6615 194.581 14.6809 194.484 14.7002C194.097 14.7971 193.748 14.9908 193.516 15.1458C192.935 15.5138 192.528 16.0756 192.412 16.6179C192.334 17.0441 192.431 17.4509 192.683 17.8189C192.76 17.9352 192.78 18.0514 192.76 18.1676C192.721 18.2451 192.683 18.3032 192.625 18.3613ZM192.082 17.7996C192.102 17.8577 192.14 17.8964 192.179 17.9545C192.179 17.9158 192.179 17.8577 192.179 17.8189C192.179 17.7996 192.179 17.7996 192.179 17.7996C192.179 17.7996 192.16 17.7996 192.14 17.7996C192.121 17.7802 192.102 17.7802 192.082 17.7996Z" fill="#3333CC"/>
<path d="M71.8473 8.05622C70.7431 9.00539 71.1306 10.6713 72.3703 11.3105C73.92 12.0854 75.8183 11.1556 76.7675 9.85771C78.8015 7.06831 72.4672 5.07311 71.7504 8.48238C71.6923 8.79231 72.1766 8.92791 72.2347 8.61798C72.5059 7.32013 73.8425 6.95208 75.0047 7.28138C75.3534 7.37824 75.7409 7.53321 76.0508 7.72692C76.9419 8.32741 76.6319 9.3347 75.9927 9.95457C75.3341 10.6132 74.3849 11.1556 73.4357 11.0974C72.0991 11.0006 70.995 9.4703 72.196 8.42427C72.4478 8.19182 72.0991 7.84314 71.8473 8.05622Z" fill="#3333CC"/>
<path d="M73.5902 11.7753C73.1253 11.7753 72.6992 11.6785 72.2924 11.4654C71.5951 11.1167 71.1302 10.4581 71.0333 9.70262C70.9558 9.00527 71.2077 8.34666 71.7307 7.90113C72.1375 6.9907 73.0285 6.48706 74.1908 6.48706C75.4692 6.48706 76.7283 7.1263 77.1739 7.99799C77.3869 8.42415 77.5226 9.1215 76.9221 9.95445C76.1279 11.0392 74.7912 11.7753 73.5902 11.7753ZM71.5951 8.69534C71.4401 8.9859 71.382 9.31521 71.4207 9.66388C71.4982 10.2838 71.8856 10.8261 72.4668 11.1361C72.8154 11.3104 73.1835 11.4073 73.5902 11.4073C74.675 11.4073 75.8954 10.7293 76.6315 9.74137C77.0189 9.19898 77.0964 8.67597 76.8446 8.1917C76.4571 7.43623 75.353 6.89385 74.2102 6.89385C73.2997 6.89385 72.6024 7.24252 72.2149 7.86239C72.2537 7.88176 72.2924 7.90114 72.3311 7.92051C72.6992 7.32001 73.3966 6.97133 74.2489 6.97133C74.5201 6.97133 74.8106 7.01007 75.0818 7.08756C75.3724 7.16504 75.8179 7.32001 76.186 7.57183C76.554 7.82365 76.7865 8.17232 76.8252 8.55974C76.864 9.06338 76.6315 9.62514 76.1666 10.09C75.4111 10.8455 74.4813 11.291 73.629 11.291C73.5709 11.291 73.5128 11.291 73.4547 11.291C72.7186 11.2329 72.0019 10.768 71.6919 10.1288C71.4789 9.70262 71.4788 9.25709 71.6532 8.85031H71.6338L71.6532 8.81157C71.6144 8.77283 71.5951 8.73408 71.5951 8.69534ZM72.0018 8.9859C71.8469 9.29584 71.8469 9.62514 72.0212 9.95445C72.2731 10.4775 72.8542 10.8455 73.474 10.9036C73.5322 10.9036 73.5709 10.9036 73.629 10.9036C74.3651 10.9036 75.2174 10.4968 75.8954 9.81885C76.2828 9.43143 76.4765 8.9859 76.4378 8.59849C76.4184 8.30792 76.2634 8.07547 75.9729 7.88176C75.6436 7.66868 75.2562 7.53309 74.985 7.45561C74.7332 7.39749 74.5007 7.35875 74.2489 7.35875C73.2997 7.35875 72.6217 7.84302 72.4474 8.6566C72.3893 8.85031 72.2149 9.00527 72.0018 8.9859ZM72.0406 8.1917C72.0212 8.24981 72.0019 8.30792 71.9825 8.36603C72.0212 8.32729 72.0406 8.30792 72.0794 8.26918C72.0987 8.24981 72.0987 8.24981 72.0987 8.24981C72.0793 8.21107 72.0599 8.1917 72.0406 8.1917Z" fill="#3333CC"/>
<path d="M280.684 11.5233C282.408 11.0584 284.151 10.4773 285.759 9.68308C286.05 9.54748 285.798 9.10195 285.507 9.25692C283.938 10.0318 282.253 10.5935 280.548 11.0584C280.239 11.1165 280.374 11.6008 280.684 11.5233Z" fill="#3333CC"/>
<path d="M280.607 11.7367C280.394 11.7367 280.2 11.5624 280.18 11.3493C280.142 11.1168 280.277 10.9231 280.49 10.865C282.427 10.342 284.035 9.76089 285.411 9.08291C285.682 8.94731 285.992 9.12165 286.069 9.39284C286.108 9.58655 286.03 9.76089 285.837 9.85774C284.384 10.5745 282.718 11.175 280.723 11.7173C280.684 11.7173 280.645 11.7367 280.607 11.7367ZM285.604 9.41221C285.604 9.41221 285.585 9.41221 285.566 9.41221C284.171 10.1096 282.544 10.6907 280.587 11.2137C280.568 11.2137 280.548 11.2331 280.548 11.2718C280.548 11.2912 280.568 11.3493 280.607 11.3299C282.563 10.8069 284.21 10.2064 285.643 9.4897C285.662 9.47033 285.662 9.47033 285.662 9.45095C285.682 9.45095 285.643 9.41221 285.604 9.41221Z" fill="#3333CC"/>
<path d="M280.799 8.59832C282 10.1092 283.588 11.2715 284.654 12.8986C284.828 13.1698 285.254 12.918 285.08 12.6468C283.995 10.9809 282.387 9.77994 281.147 8.24964C280.954 7.97845 280.586 8.3465 280.799 8.59832Z" fill="#3333CC"/>
<path d="M284.849 13.2087C284.694 13.2087 284.559 13.1312 284.481 12.9957C283.881 12.0659 283.086 11.2716 282.311 10.4968C281.75 9.93506 281.169 9.35394 280.646 8.7147C280.529 8.5791 280.51 8.38539 280.588 8.23043C280.665 8.07546 280.82 7.95923 280.994 7.95923C281.111 7.95923 281.227 8.01734 281.304 8.1142C281.808 8.75344 282.408 9.33456 282.97 9.91569C283.764 10.7293 284.597 11.5622 285.237 12.5308C285.333 12.6663 285.333 12.8213 285.256 12.9569C285.178 13.1119 285.023 13.2087 284.849 13.2087ZM280.975 8.34665C280.975 8.34665 280.936 8.36602 280.936 8.40476C280.917 8.4435 280.936 8.46287 280.956 8.48224C281.459 9.10211 282.04 9.68324 282.583 10.245C283.377 11.0392 284.19 11.8334 284.81 12.8019C284.849 12.8601 284.907 12.8213 284.927 12.7826C284.927 12.7826 284.927 12.7632 284.927 12.7438C284.307 11.7947 283.493 10.9811 282.699 10.1869C282.118 9.60575 281.517 9.00526 280.975 8.34665C280.994 8.34665 280.994 8.34665 280.975 8.34665Z" fill="#3333CC"/>
<path d="M282.252 13.1508C282.93 11.5042 283.569 9.83835 283.976 8.09498C284.054 7.78504 283.569 7.64944 283.492 7.95938C283.104 9.70276 282.446 11.3493 281.768 13.0152C281.652 13.3057 282.136 13.4413 282.252 13.1508Z" fill="#3333CC"/>
<path d="M282 13.4994C281.845 13.4994 281.69 13.4219 281.613 13.3057C281.536 13.1895 281.536 13.0539 281.574 12.9377C282.252 11.2718 282.891 9.64462 283.279 7.92062C283.318 7.72691 283.492 7.59131 283.686 7.59131C283.821 7.59131 283.976 7.64942 284.054 7.76565C284.131 7.8625 284.17 7.9981 284.131 8.1337C283.744 9.89644 283.085 11.543 282.407 13.2089C282.368 13.3832 282.194 13.4994 282 13.4994ZM281.942 13.0926C281.942 13.0926 281.962 13.112 282 13.112C282.059 13.112 282.078 13.0733 282.078 13.0733C282.756 11.4074 283.395 9.78021 283.783 8.05621C283.783 8.03684 283.783 8.01747 283.783 8.01747C283.763 7.9981 283.744 7.97873 283.705 7.97873C283.686 7.97873 283.686 7.97873 283.666 7.9981C283.279 9.76085 282.64 11.4074 281.942 13.0926Z" fill="#3333CC"/>
<path d="M310.69 63.6698C310.206 65.1226 309.722 66.5755 309.237 68.0283C309.14 68.3382 309.625 68.4738 309.722 68.1639C310.206 66.711 310.69 65.2582 311.174 63.8054C311.271 63.4955 310.787 63.3599 310.69 63.6698Z" fill="#3333CC"/>
<path d="M309.469 68.5319C309.314 68.5319 309.178 68.4544 309.101 68.3382C309.023 68.222 309.004 68.1057 309.043 67.9701L310.496 63.6117C310.554 63.418 310.728 63.3018 310.922 63.3018C311.077 63.3018 311.212 63.3792 311.29 63.4955C311.367 63.6117 311.387 63.7279 311.348 63.8635L309.895 68.222C309.837 68.4157 309.682 68.5319 309.469 68.5319ZM310.922 63.6892C310.883 63.6892 310.864 63.7085 310.864 63.7279L309.411 68.0864V68.1057C309.411 68.1251 309.45 68.1251 309.469 68.1251C309.508 68.1251 309.527 68.1057 309.527 68.0864L310.98 63.7279V63.7085C310.98 63.7085 310.961 63.6892 310.922 63.6892Z" fill="#3333CC"/>
<path d="M307.746 65.6457C309.334 66.0331 310.942 66.4206 312.53 66.7886C312.84 66.8661 312.976 66.3818 312.666 66.3043C311.078 65.9169 309.47 65.5295 307.881 65.1614C307.571 65.084 307.436 65.5682 307.746 65.6457Z" fill="#3333CC"/>
<path d="M312.607 67.0015C312.568 67.0015 312.529 67.0015 312.491 66.9821L307.706 65.8393C307.493 65.7811 307.357 65.5874 307.377 65.3744C307.416 65.1032 307.667 64.9095 307.919 64.9869L312.704 66.1298C312.917 66.1879 313.052 66.3816 313.033 66.5947C313.014 66.8272 312.82 67.0015 312.607 67.0015ZM307.822 65.355C307.784 65.355 307.764 65.3937 307.764 65.4131C307.764 65.4518 307.784 65.4518 307.803 65.4518L312.588 66.5947C312.646 66.6141 312.665 66.556 312.665 66.5366C312.665 66.4979 312.646 66.4979 312.626 66.4979L307.842 65.355C307.822 65.355 307.822 65.355 307.822 65.355Z" fill="#3333CC"/>
<path d="M26.3623 57.8781C27.1953 59.1565 28.0476 60.435 28.8805 61.7135C29.0549 61.9847 29.5004 61.7329 29.3067 61.4617C28.4737 60.1832 27.6214 58.9047 26.7885 57.6262C26.6141 57.355 26.1686 57.6069 26.3623 57.8781Z" fill="#3333CC"/>
<path d="M29.0748 62.0425C28.9199 62.0425 28.7842 61.965 28.7067 61.8488L26.1885 58.0134C26.0917 57.8778 26.0917 57.7228 26.1692 57.5872C26.2467 57.4322 26.4016 57.3547 26.5759 57.3547C26.7309 57.3547 26.8665 57.4322 26.944 57.5484L29.4622 61.3839C29.5591 61.5195 29.5591 61.6744 29.4816 61.81C29.4235 61.9456 29.2492 62.0425 29.0748 62.0425ZM26.5759 57.7034C26.5372 57.7034 26.5179 57.7228 26.4985 57.7422C26.4985 57.7422 26.4985 57.7422 26.4985 57.7809L29.0167 61.6163C29.0554 61.6744 29.1135 61.6357 29.1329 61.597C29.1329 61.597 29.1329 61.597 29.1329 61.5582L26.6147 57.7228C26.6147 57.7228 26.5953 57.7034 26.5759 57.7034Z" fill="#3333CC"/>
<path d="M26.1312 61.4226C27.429 60.3959 28.7075 59.3887 30.0053 58.362C30.2572 58.1683 29.9085 57.8003 29.6567 58.0133C28.3589 59.04 27.0804 60.0473 25.7825 61.0739C25.5307 61.2676 25.8793 61.6163 26.1312 61.4226Z" fill="#3333CC"/>
<path d="M25.9758 61.6746C25.7821 61.6746 25.5884 61.539 25.5303 61.3647C25.4721 61.2097 25.5302 61.0354 25.6658 60.9192L29.54 57.8586C29.6175 57.8005 29.7143 57.7617 29.8306 57.7617C30.0243 57.7617 30.218 57.8973 30.2761 58.0716C30.3342 58.2266 30.2761 58.401 30.1405 58.5172L26.2664 61.5778C26.1695 61.6359 26.0726 61.6746 25.9758 61.6746ZM29.8112 58.1491C29.8112 58.1491 29.7918 58.1491 29.7725 58.1685L25.8983 61.2291L25.8789 61.2485C25.8789 61.2678 25.9177 61.3066 25.9564 61.3066C25.9564 61.3066 25.9758 61.3066 25.9951 61.2872L29.8693 58.2266L29.8887 58.2072C29.8887 58.1879 29.8499 58.1491 29.8112 58.1491Z" fill="#3333CC"/>
<path d="M41.1058 107.39L39.9629 122.596L67.1014 125.153L68.6124 110.896C68.593 110.896 45.1155 107.274 41.1058 107.39Z" fill="#979FEF"/>
<path d="M53.5409 116.649C52.921 116.572 50.8871 115.254 45.4827 111.651C43.4875 110.315 41.5891 109.056 40.8143 108.61C40.6399 108.513 40.6012 108.3 40.6787 108.145C40.7755 107.971 40.9886 107.932 41.1436 108.01C41.9378 108.455 43.7393 109.676 45.8507 111.07C48.6788 112.949 52.9211 115.797 53.5603 115.952C53.8509 115.894 55.3037 115.409 56.8533 114.867C60.8437 113.511 66.8875 111.458 68.4953 111.516C68.689 111.535 68.8246 111.69 68.8246 111.884C68.8246 112.078 68.6502 112.213 68.4565 112.213C66.9649 112.155 60.7663 114.267 57.0664 115.526C54.7032 116.339 53.8509 116.61 53.599 116.63C53.599 116.649 53.5797 116.649 53.5409 116.649Z" fill="#4545FF"/>
<path d="M40.1162 120.291C40.0194 120.271 39.9225 120.233 39.8644 120.136C39.7675 119.981 39.8063 119.768 39.9806 119.652C40.3099 119.458 47.8645 114.673 50.0147 113.976C50.189 113.918 50.3827 114.015 50.4409 114.189C50.499 114.363 50.4021 114.557 50.2278 114.615C48.1551 115.293 40.4068 120.175 40.3293 120.213C40.2712 120.271 40.1937 120.291 40.1162 120.291Z" fill="#4545FF"/>
<path d="M67.4865 121.376C67.409 121.356 67.3509 121.337 67.2928 121.279C67.0991 121.085 65.3363 119.884 63.7673 118.838C61.559 117.347 59.0795 115.661 58.2466 114.983C58.0916 114.867 58.0916 114.635 58.2079 114.499C58.3241 114.344 58.5565 114.325 58.6921 114.46C59.4863 115.138 61.9658 116.804 64.1547 118.276C66.3242 119.749 67.564 120.582 67.7964 120.814C67.932 120.95 67.932 121.163 67.7964 121.298C67.6996 121.376 67.5833 121.395 67.4865 121.376Z" fill="#4545FF"/>
<path d="M266.951 58.4399C266.951 58.4399 269.043 56.7352 271.232 56.2122C273.42 55.6892 275.299 56.2316 275.299 56.2316L277.624 55.6892C277.624 55.6892 281.827 56.5609 283.803 58.5367V62.8758C283.803 62.8758 283.396 66.5563 283.338 66.6337C283.28 66.6919 281.44 67.6991 281.44 67.6991L280.704 70.1205L280.491 71.2634L280.065 74.4983L275.009 74.6339L268.171 72.7356L266.176 64.9097L266.951 58.4399Z" fill="#FFAB3B"/>
<path d="M267.649 73.6652C267.571 73.6071 263.6 71.5538 260.869 73.181C258.138 74.8081 259.416 78.4499 259.416 78.4499L263.891 78.9922C263.891 78.9922 269.663 78.8954 270.012 78.7598C270.361 78.6242 271.872 75.6411 271.872 75.6411L268.637 73.7234L267.649 73.6652Z" fill="#D45430"/>
<path d="M266.679 77.888C266.679 77.888 265.362 78.0429 264.025 77.7136L264.122 80.4449L266.544 80.3481L266.679 77.888Z" fill="#F7D5A0"/>
<path d="M259.202 75.6024C259.202 75.6024 257.168 77.8494 259.047 80.8131L264.684 80.4257C264.684 80.4257 263.948 79.5153 264.354 77.7913C264.354 77.7913 261.487 74.9631 259.202 75.6024Z" fill="#8F8FF9"/>
<path d="M260.655 75.6024C259.725 76.3385 258.641 77.8881 259.667 80.7744L259.048 80.8132C257.149 77.8494 259.202 75.6024 259.202 75.6024C259.667 75.4668 260.171 75.4862 260.655 75.6024Z" fill="#4545FF"/>
<path d="M277.391 55.4565C277.391 55.4565 278.127 55.9989 277.934 56.8899C277.74 57.781 276.093 60.7641 274.059 61.2677C274.059 61.2677 270.321 58.459 271.309 55.9601C272.297 53.4613 273.749 54.6623 273.749 54.6623L277.391 55.4565Z" fill="#F7D5A0"/>
<path d="M271.307 55.9601C272.295 53.4806 273.747 54.6623 273.747 54.6623L277.389 55.4758C277.389 55.4758 277.486 55.5533 277.602 55.6889C277.602 55.6889 277.157 58.5171 274.27 58.8464C271.655 59.1176 271.152 56.3475 271.307 55.9601Z" fill="#F7D5A0"/>
<path d="M273.904 58.8853C272.781 58.8853 272.141 58.2848 271.793 57.7812C271.27 57.0257 271.192 56.154 271.27 55.9603C271.793 54.6431 272.451 54.3525 272.916 54.3525C273.362 54.3525 273.691 54.6044 273.749 54.6431L277.391 55.4567C277.391 55.4567 277.488 55.5342 277.623 55.6698V55.6891V55.7085C277.623 55.7279 277.139 58.5754 274.272 58.8853C274.156 58.866 274.02 58.8853 273.904 58.8853ZM272.936 54.4107C272.296 54.4107 271.735 54.953 271.347 55.9797C271.27 56.1734 271.367 57.0063 271.87 57.7424C272.2 58.2267 272.839 58.8272 273.924 58.8272C274.04 58.8272 274.175 58.8272 274.292 58.8078C277.023 58.4979 277.565 55.9022 277.585 55.6891C277.488 55.5729 277.41 55.5148 277.391 55.4954L273.749 54.6818C273.73 54.6818 273.381 54.4107 272.936 54.4107Z" fill="white"/>
<path d="M277.623 49.7227C277.623 49.7227 280.006 56.8512 274.543 57.8197C269.1 58.8076 270.94 49.7227 270.94 49.7227L275.085 48.8704L277.623 49.7227Z" fill="#F7D5A0"/>
<path d="M270.883 53.1126C270.883 53.1126 270.457 52.454 269.74 52.7058C269.023 52.9383 270.205 56.0182 271.309 55.5533C272.433 55.0884 270.883 53.1126 270.883 53.1126Z" fill="#F7D5A0"/>
<path d="M277.12 50.2071C277.12 50.2071 274.931 54.0232 270.631 52.8803C266.331 51.7374 268.675 49.0642 268.675 49.0642C268.675 49.0642 269.101 49.626 269.469 49.6066C269.837 49.5872 271.522 45.5775 275.319 46.0811C279.116 46.5654 277.953 47.7857 277.953 47.7857C277.953 47.7857 278.748 47.5727 279.445 48.5606C280.142 49.5679 280.2 52.4154 278.728 53.229L278.108 52.551C278.128 52.551 277.915 51.4081 277.12 50.2071Z" fill="black"/>
<path d="M277.877 52.8414C277.877 52.8414 278.245 52.1634 278.981 52.3377C279.698 52.5315 278.768 55.6695 277.625 55.3015C276.502 54.9334 277.877 52.8414 277.877 52.8414Z" fill="#F7D5A0"/>
<path d="M265.749 77.617C265.749 77.617 265.536 79.5928 265.866 80.6194C265.866 80.6194 279.251 81.7623 284.597 79.9027C289.944 78.0431 290.68 75.6992 288.704 73.9559C286.709 72.2125 279.057 71.7088 265.749 77.617Z" fill="#FF653B"/>
<path d="M283.512 77.946C283.512 77.946 281.187 80.6386 280.451 80.7161L283.376 80.5999L284.345 80.0575L284.442 78.779L283.512 77.946Z" fill="#F7D5A0"/>
<path d="M288.473 75.3698C288.473 75.3698 290.682 77.4618 289.016 80.5612L283.359 80.5999C283.359 80.5999 284.018 79.6314 283.495 77.9461C283.514 77.9461 286.149 74.9243 288.473 75.3698Z" fill="#8F8FF9"/>
<path d="M287.02 75.4861C288.007 76.1447 289.208 77.6169 288.395 80.5806H289.015C290.681 77.4813 288.472 75.3892 288.472 75.3892C287.988 75.273 287.504 75.3311 287.02 75.4861Z" fill="#4545FF"/>
<path d="M284.868 80.2318C284.888 80.1737 285.178 79.0114 284.675 78.0042L284.539 78.0816C285.023 79.0502 284.733 80.1931 284.733 80.1931L284.868 80.2318Z" fill="white"/>
<path d="M285.781 80.2127C285.8 80.1546 286.129 78.7212 285.374 77.5977L285.238 77.6945C285.955 78.7599 285.626 80.1546 285.626 80.174L285.781 80.2127Z" fill="white"/>
<path d="M263.717 80.135L263.871 80.0963C263.465 78.6629 263.813 78.0042 263.813 78.0042L263.678 77.9268C263.658 77.9461 263.29 78.6241 263.717 80.135Z" fill="white"/>
<path d="M262.805 80.1543L262.96 80.0962C262.399 78.5465 263.29 77.6942 263.309 77.6748L263.193 77.5586C263.174 77.578 262.205 78.5078 262.805 80.1543Z" fill="white"/>
<path d="M283.785 58.5171C283.785 58.5171 288.589 63.999 289.713 69.5004C290.836 75.0404 280.783 76.2995 276.85 75.176L276.463 72.561C276.463 72.561 281.771 70.159 281.693 69.1323C281.596 68.1057 281.461 67.6795 281.461 67.6795C281.461 67.6795 279.911 62.8949 283.785 58.5171Z" fill="#FFAB3B"/>
<path d="M266.95 58.4397C266.95 58.4397 258.349 66.2849 259.453 70.2365C260.461 73.8008 268.829 76.0672 271.386 75.6798V73.6071C271.386 73.6071 265.826 70.5271 266.156 69.1905C266.349 68.3769 266.911 67.8152 266.911 67.8152C266.911 67.8152 269.604 60.1831 266.95 58.4397Z" fill="#FFAB3B"/>
<path d="M266.682 75.7766V76.0672L270.653 76.0478V75.7766H266.682Z" fill="#939598"/>
<path d="M277.355 75.7766V76.0672L281.326 76.0478V75.7766H277.355Z" fill="#939598"/>
<path d="M264.395 76.8808H284.057V75.9897L264.24 76.0866L264.395 76.8808Z" fill="#A7A9AC"/>
<path d="M264.492 75.7767H283.63L284.056 63.0694L263.949 62.9919L264.492 75.7767Z" fill="#D1D3D4"/>
<path d="M273.829 67.5827C274.972 67.4665 276.269 67.9121 276.308 69.6361C276.347 71.3407 272.86 71.9412 272.647 70.0041C272.415 68.0476 273.441 67.6215 273.829 67.5827Z" fill="white"/>
<path d="M205.795 98.4985L205.33 99.4283L207.616 100.397C207.616 100.397 209.437 98.4985 209.863 98.1111L208.313 96.8713L206.357 98.266L205.795 98.4985Z" fill="#F7D5A0"/>
<path d="M205.795 98.4985L205.33 99.4283L207.616 100.397C207.616 100.397 209.437 98.4985 209.863 98.1111L208.313 96.8713L206.357 98.266L205.795 98.4985Z" fill="#F7D5A0"/>
<path d="M203.645 99.9321C203.645 99.9321 204.477 99.1573 205.601 98.9248C205.601 98.9248 206.996 100.126 207.635 100.416C207.635 100.416 207.344 101.714 207.674 103.458C208.003 105.201 208.758 108.513 208.603 108.668C208.429 108.823 208.061 109.056 207.577 108.998C207.538 108.978 204.129 105.375 203.645 99.9321Z" fill="#FFAB3B"/>
<path d="M208.08 108.92C206.647 107.584 204.439 101.579 203.974 99.6609C203.761 99.8159 203.645 99.9127 203.645 99.9127C204.129 105.356 207.557 108.978 207.557 108.978C207.751 108.998 207.925 108.978 208.08 108.92Z" fill="#FF653B"/>
<path d="M196.614 75.1955C196.614 75.1955 187.257 81.9559 188.168 86.663C189.078 91.3702 195.413 96.6003 205.853 98.4018L207.306 96.0385C207.306 96.0385 197.35 89.1813 198.725 85.9851C200.12 82.7889 204.594 80.6581 205.931 80.5806C207.268 80.5031 212.44 83.2344 212.633 84.571C212.827 85.9076 207.926 95.9417 207.926 95.9417L208.062 98.4212L210.754 97.9175C210.754 97.9175 222.512 85.617 222.048 82.4015C221.583 79.1665 213.156 74.7306 213.156 74.7306L203.858 74.3625L196.614 75.1955Z" fill="#FF653B"/>
<path d="M206.531 97.8594L206.996 96.7747C206.996 96.7747 210.909 97.7819 210.773 97.995C210.619 98.2081 209.088 99.719 209.088 99.719L206.531 97.8594Z" fill="#F7D5A0"/>
<path d="M212.283 97.5881C212.283 97.5881 211.198 97.2588 210.094 97.53C210.094 97.53 209.358 99.2152 208.912 99.7576C208.912 99.7576 209.745 100.804 210.21 102.508C210.675 104.232 211.43 107.545 211.643 107.603C211.856 107.661 212.302 107.7 212.709 107.448C212.709 107.448 214.22 102.702 212.283 97.5881Z" fill="#FFAB3B"/>
<path d="M211.627 97.4719C212.77 101.036 212.615 106.014 212.15 107.642C212.324 107.622 212.518 107.564 212.692 107.448C212.692 107.448 214.203 102.702 212.266 97.5881C212.286 97.5881 212.014 97.5107 211.627 97.4719Z" fill="#FF653B"/>
<path d="M206.281 98.0532C205.68 97.8014 191.578 91.777 190.532 87.3217C189.486 82.8664 197.273 76.0866 197.603 75.8154L197.719 75.951C197.641 76.0285 189.68 82.9439 190.687 87.3024C191.714 91.6802 206.203 97.8595 206.339 97.9176L206.281 98.0532Z" fill="white"/>
<path d="M209.339 97.4914L209.262 97.3365C210.792 96.4842 220.322 84.0674 220.322 82.3628C220.322 80.7163 213.562 76.0092 213.058 75.7186L213.136 75.583C213.213 75.6217 220.477 80.5419 220.477 82.3628C220.477 84.203 210.966 96.5616 209.339 97.4914Z" fill="white"/>
<path d="M205.078 98.7699C205.078 98.7699 207.848 99.7578 207.964 99.6997C208.081 99.6609 209.805 97.782 209.901 96.9103L207.035 95.3606C207.054 95.38 205.272 98.4987 205.078 98.7699Z" fill="#E63950"/>
<path d="M212.245 54.3525C212.555 54.4494 214.492 55.3598 215.383 56.0572L215.519 67.7572L213.368 70.8372L215.17 73.336C215.17 73.336 215.286 75.0794 214.957 75.6992C214.628 76.3191 198.046 76.7065 195.935 75.6992C195.935 75.6992 195.586 75.0794 197.078 70.9727L196.884 69.5587L197.775 64.3867L194.889 62.3527L195.509 55.7666C195.509 55.7666 197.271 54.4107 200.448 53.6939C203.606 52.9772 208.623 54.3332 208.623 54.3332H212.245V54.3525Z" fill="#6161D1"/>
<path d="M201.397 72.5223C201.397 72.5223 200.526 71.1857 201.146 69.4617C201.146 69.4617 197.213 69.7523 197.407 68.4351C197.601 67.0985 198.298 66.7111 198.221 64.9289C198.143 63.1468 196.884 56.6382 195.528 55.7859C195.528 55.7859 188.09 62.0427 188.186 68.5319C188.264 75.0212 194.908 75.0405 201.397 72.5223Z" fill="#8F8FF9"/>
<path d="M210.405 70.4302C210.076 70.4302 209.108 70.1203 209.108 70.1203C209.108 70.1203 209.049 68.958 207.829 67.8733C206.609 66.7691 204.885 67.3309 204.885 67.3309L205.408 69.6748L207.074 71.8443L210.096 72.2511L211.18 71.8443L210.405 70.4302Z" fill="#F7D5A0"/>
<path d="M210.405 70.4302C210.076 70.4302 209.108 70.1203 209.108 70.1203C209.108 70.1203 209.049 68.958 207.829 67.8733C206.609 66.7691 204.885 67.3309 204.885 67.3309L205.408 69.6748L207.074 71.8443L210.096 72.2511L211.18 71.8443L210.405 70.4302Z" fill="#F7D5A0"/>
<path d="M202.231 73.3745C202.561 74.0332 207.113 73.9169 207.229 73.5489C207.345 73.1808 208.604 67.0015 208.14 66.5947C207.675 66.2073 202.58 66.0524 202.231 66.3429C201.863 66.6335 202.018 72.9484 202.231 73.3745Z" fill="black"/>
<path d="M200.545 69.8877L201.146 69.481C201.146 69.481 201.146 67.9506 202.017 67.5632V69.326C202.017 69.326 204.787 68.125 206.318 68.0669C207.848 67.9894 207.77 69.2098 206.201 69.4228C206.201 69.4228 207.906 68.9386 208.022 69.8296C208.138 70.7207 205.833 70.4882 205.833 70.4882C205.833 70.4882 207.615 70.7594 207.519 71.3406C207.422 71.9217 205.562 71.5924 205.562 71.5924C205.562 71.5924 207.17 72.4641 206.879 72.7934C206.608 73.1227 205.368 72.6965 204.574 72.4641C203.78 72.2316 201.494 72.3285 200.933 72.2122C200.371 72.096 200.545 69.8877 200.545 69.8877Z" fill="#F7D5A0"/>
<path d="M215.383 56.0571C215.383 56.0571 219.974 59.3114 221.233 66.0331C222.492 72.7548 216.894 75.7379 209.301 72.5224C209.301 72.5224 209.63 70.8177 209.553 70.0235C209.553 70.0235 213.485 68.9388 214.047 68.0864C214.608 67.2341 211.703 59.8926 215.383 56.0571Z" fill="#8F8FF9"/>
<path d="M205.835 56.9482C205.835 56.9482 205.332 62.5852 205.835 63.9218H206.901C206.901 63.9218 206.823 58.2073 207.152 56.9482H205.835Z" fill="#3333CC"/>
<path d="M201.863 63.3988C200.487 60.3188 202.018 56.2703 202.076 56.0959L202.386 56.2122C202.366 56.2509 200.856 60.3188 202.173 63.2632L201.863 63.3988Z" fill="black"/>
<path d="M210.869 63.1661L210.54 63.0692C211.392 60.2023 209.726 56.1538 209.707 56.1151L210.017 55.9795C210.094 56.1538 211.76 60.183 210.869 63.1661Z" fill="black"/>
<path d="M209.922 63.6118C210.019 63.1857 210.465 63.0113 210.755 63.0695C211.065 63.1469 211.22 63.3988 211.162 63.7087C211.104 63.9993 210.93 64.2123 210.465 64.2123C210.019 64.2317 209.884 63.8249 209.922 63.6118Z" fill="#3333CC"/>
<path d="M201.61 63.7862C201.707 63.36 202.153 63.1857 202.443 63.2438C202.753 63.3213 202.908 63.5731 202.85 63.883C202.792 64.1736 202.618 64.3866 202.153 64.3866C201.688 64.406 201.552 63.9992 201.61 63.7862Z" fill="#3333CC"/>
<path d="M207.596 50.7881C208.584 50.4782 213.291 51.7954 213.736 54.3524C214.182 56.9093 207.693 57.9166 206.666 57.936C206.666 57.936 197.232 58.6721 197.097 55.1466C196.942 51.6211 203.005 50.3813 203.005 50.3813L206.143 51.2337L207.596 50.7881Z" fill="#979FEF"/>
<path d="M210.25 51.0013C210.25 51.0013 211.722 55.8827 207.054 57.7036C207.054 57.7036 197.853 55.321 201.921 51.5436C205.969 47.7857 210.25 51.0013 210.25 51.0013Z" fill="#3333CC"/>
<path d="M202.851 46.9915C202.289 47.6501 201.766 50.8075 202.773 53.2095C203.78 55.6115 207.596 56.8125 209.379 53.4613C211.18 50.1102 209.611 46.9915 209.611 46.9915H202.851Z" fill="#F7D5A0"/>
<path d="M209.786 50.7689C209.863 50.6526 210.212 49.8778 210.774 50.149C211.336 50.4202 210.464 52.5897 209.728 52.396L209.418 51.35L209.786 50.7689Z" fill="#F7D5A0"/>
<path d="M202.599 50.7689C202.521 50.6526 202.173 49.8778 201.611 50.149C201.049 50.4202 201.921 52.5897 202.657 52.396L202.967 51.35L202.599 50.7689Z" fill="#F7D5A0"/>
<path d="M202.522 47.6695C202.522 47.6695 203.297 50.2071 210.561 49.4323C217.224 48.7349 208.43 42.3232 204.11 44.2796C204.11 44.2796 202.638 43.621 201.611 44.8995C200.585 46.178 200.74 48.9093 202.212 50.4008C202.173 49.4323 202.27 48.5219 202.522 47.6695Z" fill="black"/>
<path d="M206.261 59.602C206.242 59.602 206.203 59.602 206.184 59.602C205.971 59.5439 205.874 59.3115 205.893 59.1177C205.932 58.8272 206.184 58.6722 206.532 58.7691C206.668 58.8078 206.745 58.9434 206.707 59.1177C206.687 59.3502 206.494 59.602 206.261 59.602ZM206.319 58.8853C206.106 58.8853 206.067 59.0596 206.048 59.1177C206.029 59.2533 206.087 59.3889 206.203 59.4277C206.358 59.4664 206.513 59.2533 206.532 59.079C206.532 59.0209 206.552 58.924 206.474 58.9047C206.435 58.8853 206.377 58.8853 206.319 58.8853Z" fill="white"/>
<path d="M206.163 61.3259C206.144 61.3259 206.105 61.3259 206.086 61.3259C205.873 61.2678 205.776 61.0353 205.795 60.8416C205.834 60.551 206.086 60.3961 206.435 60.4929C206.57 60.5317 206.648 60.6673 206.609 60.8416C206.59 61.0741 206.396 61.3259 206.163 61.3259ZM206.222 60.6092C206.009 60.6092 205.97 60.7835 205.95 60.8416C205.931 60.9772 205.989 61.1128 206.105 61.1516C206.26 61.1903 206.415 60.9772 206.435 60.8029C206.435 60.7448 206.454 60.6479 206.377 60.6285C206.338 60.6285 206.28 60.6092 206.222 60.6092Z" fill="white"/>
<path d="M206.163 63.1467C206.144 63.1467 206.105 63.1467 206.086 63.1467C205.873 63.0886 205.776 62.8561 205.795 62.6624C205.834 62.3718 206.086 62.2169 206.435 62.3137C206.57 62.3525 206.648 62.4881 206.609 62.6624C206.59 62.8949 206.396 63.1467 206.163 63.1467ZM206.222 62.43C206.009 62.43 205.97 62.6043 205.95 62.6624C205.931 62.798 205.989 62.9336 206.105 62.9723C206.26 63.0111 206.415 62.798 206.435 62.6237C206.435 62.5656 206.454 62.4687 206.377 62.4493C206.338 62.43 206.28 62.43 206.222 62.43Z" fill="white"/>
<path d="M119.421 61.4615C119.421 61.4615 119.344 58.8271 119.789 57.1612C120.235 55.4759 118.375 56.4832 118.375 56.4832L117.658 60.3961C117.658 60.3961 117 62.8756 117.697 62.9918C118.395 63.1081 119.15 61.9071 119.15 61.9071L119.421 61.4615Z" fill="#F7D5A0"/>
<path d="M116.497 54.2751C116.497 54.2751 119.732 54.8563 119.868 55.2243C120.004 55.6117 117.853 63.1276 117.505 63.2826C117.156 63.4569 114.173 62.0622 114.173 62.0622C114.173 62.0622 113.863 58.4011 114.173 57.9943C114.463 57.5876 116.497 54.2751 116.497 54.2751Z" fill="black"/>
<path d="M113.92 125.928L113.475 127.129L113.688 127.807L114.889 128L115.664 127.942L115.567 127.342L115.45 126.18L113.92 125.928Z" fill="#F7D5A0"/>
<path d="M113.493 127.129C113.493 127.129 112.04 129.473 112.35 131.739C112.35 131.739 119.478 133.211 122.965 131.875C122.965 131.875 123.546 130.79 123.101 130.151C122.655 129.511 117.968 128.62 115.566 127.419C115.585 127.419 115.391 128.407 113.493 127.129Z" fill="#1F6C96"/>
<path d="M113.493 127.129C113.493 127.129 112.04 129.473 112.35 131.739C112.35 131.739 119.478 133.211 122.965 131.875C122.965 131.875 123.546 130.79 123.101 130.151C122.655 129.511 117.968 128.62 115.566 127.419C115.585 127.419 115.391 128.407 113.493 127.129Z" fill="#8F8FF9"/>
<path d="M109.445 127.226L110.162 123.913L111.092 124.921L111.537 127.439L111.479 128.504L109.93 128.427L109.445 127.226Z" fill="#F7D5A0"/>
<path d="M120.505 85.8689C120.505 85.8689 122.346 90.5179 120.621 96.5035C119.111 101.772 118.316 105.356 118.22 105.763C118.123 106.17 116.476 123.39 115.566 126.78C115.566 126.78 114.423 126.761 113.706 126.277C113.706 126.277 113.396 119.361 113.706 113.162C113.997 106.964 114.481 98.828 114.481 98.828L114.326 95.3413L115.856 89.4138L120.505 85.8689Z" fill="#FF802C"/>
<path d="M109.214 85.036C109.214 85.036 105.921 88.0966 107.277 93.3074C108.11 96.5036 111.732 104.639 111.732 104.639C111.732 104.639 107.393 110.063 109.504 126.218C109.504 126.218 109.872 126.993 111.577 126.587C111.577 126.587 113.921 111.264 117.582 106.441C117.582 106.441 115.49 94.857 116.691 90.1886C116.691 90.1886 119.054 89.0458 119.887 86.9731C120.72 84.9004 118.221 84.7842 118.221 84.7842L109.717 85.0747L109.214 85.036Z" fill="#FFAB3B"/>
<path d="M123.218 131.255C119.48 131.468 115.857 130.964 115.857 130.964L116.439 132.32C118.647 132.514 121.243 132.533 122.967 131.875C122.967 131.875 123.121 131.604 123.218 131.255Z" fill="#BCBEC0"/>
<path d="M109.446 127.129C109.446 127.129 107.993 129.473 108.303 131.739C108.303 131.739 115.432 133.211 118.918 131.875C118.918 131.875 119.499 130.79 119.054 130.151C118.608 129.511 113.921 128.62 111.519 127.419C111.538 127.4 111.364 128.388 109.446 127.129Z" fill="#CBD0FF"/>
<path d="M119.171 131.235C115.355 131.991 110.454 131.138 108.284 130.693C108.265 131.042 108.265 131.39 108.304 131.739C108.304 131.739 115.432 133.211 118.919 131.874C118.919 131.874 119.074 131.584 119.171 131.235Z" fill="#E6E7E8"/>
<path d="M110.298 126.354C110.259 126.354 110.221 126.315 110.221 126.277C108.981 118.761 113.417 105.337 113.688 104.542C108.342 96.0193 109.252 86.0433 109.252 85.9271C109.252 85.8883 109.291 85.8496 109.349 85.8496C109.388 85.8496 109.426 85.8884 109.426 85.9465C109.407 86.0433 108.516 95.9999 113.843 104.484L113.862 104.523L113.843 104.562C113.804 104.697 109.117 118.606 110.376 126.257C110.395 126.296 110.356 126.354 110.298 126.354C110.318 126.354 110.298 126.354 110.298 126.354Z" fill="white"/>
<path d="M109.368 90.5567C109.329 90.5567 109.31 90.5373 109.29 90.4986C109.271 90.4598 109.31 90.4017 109.348 90.4017C113.319 89.2976 112.68 86.76 112.661 86.6438C112.641 86.605 112.68 86.5469 112.719 86.5469C112.758 86.5275 112.816 86.5663 112.816 86.605C112.816 86.6244 113.513 89.4138 109.387 90.5567H109.368Z" fill="white"/>
<path d="M111.364 128.795C111.345 128.795 111.325 128.775 111.325 128.775C111.306 128.756 111.306 128.717 111.345 128.698C111.383 128.678 112.352 128.02 113.475 128.117C113.514 128.117 113.553 128.136 113.534 128.175C113.534 128.214 113.495 128.233 113.475 128.233C113.475 128.233 113.475 128.233 113.456 128.233C112.371 128.136 111.403 128.795 111.403 128.795C111.383 128.795 111.383 128.795 111.364 128.795Z" fill="white"/>
<path d="M112.273 129.066C112.254 129.066 112.235 129.047 112.235 129.027C112.215 129.008 112.235 128.969 112.254 128.95C112.273 128.95 113.242 128.427 114.327 128.388C114.365 128.388 114.385 128.407 114.385 128.446C114.385 128.485 114.365 128.504 114.327 128.504C113.261 128.543 112.312 129.047 112.312 129.047C112.312 129.066 112.293 129.066 112.273 129.066Z" fill="white"/>
<path d="M113.281 129.143C113.261 129.143 113.242 129.124 113.222 129.105C113.203 129.066 113.222 129.047 113.261 129.027C113.281 129.027 114.268 128.698 115.14 128.62C115.179 128.62 115.198 128.64 115.198 128.678C115.198 128.717 115.179 128.737 115.14 128.737C114.288 128.814 113.3 129.143 113.281 129.143C113.281 129.143 113.3 129.143 113.281 129.143Z" fill="white"/>
<path d="M115.898 128.446C115.879 128.446 115.859 128.427 115.859 128.407C115.84 128.369 115.859 128.349 115.898 128.33C115.937 128.31 116.634 128.059 117.37 128.059C117.409 128.059 117.428 128.078 117.428 128.117C117.428 128.155 117.409 128.175 117.37 128.175C116.634 128.175 115.937 128.446 115.937 128.446C115.917 128.446 115.898 128.446 115.898 128.446Z" fill="white"/>
<path d="M116.709 128.717C116.689 128.717 116.67 128.698 116.65 128.678C116.65 128.64 116.67 128.62 116.689 128.62C116.708 128.62 117.716 128.407 118.316 128.349C118.355 128.349 118.374 128.368 118.374 128.407C118.374 128.446 118.355 128.465 118.316 128.465C117.735 128.504 116.728 128.717 116.709 128.717Z" fill="white"/>
<path d="M117.755 129.008C117.736 129.008 117.717 128.988 117.697 128.969C117.697 128.93 117.717 128.911 117.736 128.892C117.736 128.892 118.569 128.698 119.111 128.62C119.15 128.62 119.169 128.64 119.169 128.678C119.169 128.717 119.15 128.737 119.111 128.737C118.608 128.814 117.775 129.008 117.755 129.008Z" fill="white"/>
<path d="M114.018 61.791C113.688 62.469 113.611 63.5925 114.773 64.9678L117.156 67.7185C117.156 67.7185 117.02 71.5345 117.156 71.7863C117.291 72.0382 114.579 73.5878 114.579 73.5878L111.189 70.2948L109.543 65.8782C109.543 65.8782 110.066 62.8564 110.085 62.7014C110.105 62.5658 111.79 60.8418 111.79 60.8418L114.018 61.791Z" fill="#F7D5A0"/>
<path d="M114.676 64.8127C114.676 64.8127 117.175 65.4132 118.414 66.0525C119.635 66.6917 122.347 70.1591 122.695 69.733C123.044 69.3068 119.092 63.1469 118.434 62.7207C118.821 62.372 119.15 61.9459 119.422 61.481C119.422 61.481 125.988 65.452 127.519 68.8613C128.991 72.1156 127.771 75.5636 122.618 75.5055L118.201 74.595L117.988 84.3967L114.172 85.7139C114.172 85.7139 112.158 86.3144 109.213 85.0166C109.213 85.0166 112.371 80.1545 105.862 74.0333C105.862 74.0333 104.816 77.2876 105.862 77.8106C106.908 78.353 110.976 79.3215 110.976 79.3215L111.189 80.8906C111.189 80.8906 103.944 83.7381 100.632 80.5031C97.3195 77.2876 103.034 68.532 105.087 67.1373C107.141 65.7425 110.453 65.3551 110.453 65.3551C110.453 65.3551 113.3 68.2995 114.385 70.3528C114.385 70.3916 115.702 68.0283 114.676 64.8127Z" fill="#FF653B"/>
<path d="M113.842 63.1276C113.28 63.302 112.079 63.4763 110.084 62.6821C110.103 62.5465 111.789 60.8225 111.789 60.8225L114.016 61.7911C113.842 62.1204 113.745 62.5853 113.842 63.1276Z" fill="#F7D5A0"/>
<path d="M114.153 52.4929C114.153 52.4929 117.271 53.6745 117.988 57.9361L116.961 58.1105C116.961 58.1105 118.55 63.8249 111.964 62.1977C105.397 60.5706 109.581 53.384 109.581 53.384L113.32 52.5123H114.153V52.4929Z" fill="#F7D5A0"/>
<path d="M114.211 75.3892C114.211 75.3892 113.824 75.4279 113.243 75.486C113.107 75.5054 112.952 75.5054 112.797 75.5247C112.642 75.5441 112.487 75.5441 112.313 75.5635C112.138 75.5635 111.983 75.6022 111.809 75.6022C111.732 75.6022 111.635 75.6022 111.557 75.6216H111.286C111.112 75.641 110.937 75.6216 110.763 75.6216C110.589 75.6216 110.414 75.6022 110.259 75.6216C110.085 75.6216 109.93 75.6022 109.775 75.6022C109.62 75.6022 109.465 75.5829 109.33 75.5829C109.194 75.5635 109.058 75.5829 108.942 75.5635C108.826 75.5441 108.729 75.5441 108.632 75.5441C108.458 75.5248 108.342 75.5441 108.342 75.5441C108.342 75.5441 108.4 75.6216 108.536 75.7378C108.594 75.7959 108.69 75.8734 108.787 75.9509C108.884 76.0284 109 76.1059 109.136 76.1834C109.194 76.2221 109.272 76.2608 109.349 76.2996C109.427 76.3383 109.504 76.3577 109.582 76.3964C109.736 76.4545 109.911 76.532 110.105 76.5708C110.201 76.5901 110.298 76.6095 110.395 76.6289C110.453 76.6289 110.492 76.6483 110.55 76.6483L110.705 76.6676C110.899 76.687 111.112 76.7064 111.325 76.687L111.635 76.6676C111.732 76.6483 111.829 76.6289 111.945 76.6289C112.042 76.6095 112.138 76.5901 112.235 76.5708C112.332 76.5514 112.429 76.532 112.526 76.4933C112.7 76.4352 112.875 76.3771 113.049 76.2996C113.204 76.2221 113.359 76.1446 113.475 76.0671C113.727 75.9122 113.94 75.7378 114.056 75.6216C114.153 75.4666 114.211 75.3892 114.211 75.3892Z" fill="#FFDDB1"/>
<path d="M105.804 81.0844C108.283 81.0844 110.705 80.5614 110.898 80.5226L110.879 80.4258C110.802 80.4451 102.608 82.2079 100.787 79.2829C98.9853 76.3579 105.397 68.2027 105.475 68.1253L105.397 68.0671C105.126 68.3964 98.8691 76.3579 100.709 79.341C101.542 80.7163 103.692 81.0844 105.804 81.0844Z" fill="white"/>
<path d="M122.502 74.5757C123.955 74.5757 125.563 74.1108 126.512 72.4062C127.384 70.8371 126.434 68.5514 123.684 65.6264C121.65 63.4568 119.306 61.6941 119.287 61.6941L119.229 61.7716C119.325 61.8491 128.468 68.7257 126.434 72.3674C124.401 76.0092 119.325 73.8784 119.287 73.859L119.248 73.9365C119.267 73.9365 120.798 74.5757 122.502 74.5757Z" fill="white"/>
<path d="M120.603 87.9804C120.603 87.9804 117.039 86.1789 114.211 86.4501C114.211 86.4501 111.073 73.2973 115.199 71.1278C115.199 71.1278 121.397 70.8953 125.233 74.6727C125.233 74.6727 119.77 74.4983 120.603 87.9804Z" fill="#F1F2F2"/>
<path d="M111.016 79.5539C111.016 79.5539 111.772 78.3529 112.178 77.7718C112.585 77.1906 113.36 76.5708 113.476 76.8613C113.592 77.1519 113.031 78.1979 113.031 78.1979C113.031 78.1979 115.336 77.9074 116.13 78.1011C116.944 78.2948 118.396 78.9146 118.377 79.1084C118.358 79.3021 117.893 79.5539 117.079 79.457C117.079 79.457 118.784 79.9413 116.924 80.2706C116.924 80.2706 117.718 80.8517 115.994 80.9486C115.994 80.9486 116.75 81.0648 115.994 81.3554C115.239 81.6459 111.791 81.2004 110.88 80.5031C110.842 80.135 110.861 79.8057 111.016 79.5539Z" fill="#F7D5A0"/>
<path d="M114.151 52.4929C114.151 52.4929 114.461 56.309 111.285 57.3163L111.536 58.8272C111.536 58.8272 113.667 63.4181 110.432 65.3939C110.432 65.3939 111.943 70.7597 106.655 69.5393C102.878 68.6676 104.156 63.3406 106.655 62.8757C106.655 62.8757 107.585 60.5512 105.648 58.3042C103.711 56.0572 103.362 52.1636 106.519 50.5558C109.696 48.9481 113.493 49.4711 113.493 49.4711C113.493 49.4711 115.817 47.1272 117.987 49.3936C120.156 51.6406 118.026 54.4106 116.883 54.9337C116.883 54.9337 116.03 53.4421 114.151 52.4929Z" fill="black"/>
<path d="M112.313 56.9676C112.293 56.8514 111.693 55.6504 110.802 55.9991C109.911 56.3477 110.066 59.1953 111.964 58.9822C113.862 58.7691 112.313 56.9676 112.313 56.9676Z" fill="#F7D5A0"/>
<path d="M147.258 80.4837C146.715 80.4837 146.154 80.445 145.611 80.3869C141.098 79.9026 138.425 75.7766 138.463 72.0574C138.483 68.7063 140.788 64.929 147.2 64.3478C147.548 64.3091 147.897 64.3091 148.246 64.3091C149.97 64.3091 155.723 64.774 156.982 70.8177C157.505 73.3359 157.079 75.4667 155.723 77.152C153.999 79.244 150.841 80.4837 147.258 80.4837ZM148.226 65.1614C147.897 65.1614 147.568 65.1808 147.258 65.2001C142.299 65.6457 139.335 68.222 139.296 72.0768C139.277 75.3311 141.698 79.1084 145.689 79.5346C146.192 79.5927 146.715 79.6121 147.238 79.6121C150.589 79.6121 153.495 78.4886 155.025 76.6096C156.226 75.1374 156.594 73.239 156.11 70.992C155.025 65.7425 150.241 65.1614 148.226 65.1614Z" fill="#3333CC"/>
<path d="M170.056 80.4837C169.514 80.4837 168.952 80.445 168.41 80.3869C163.897 79.9026 161.223 75.7766 161.262 72.0574C161.282 68.7063 163.587 64.929 169.998 64.3478C170.347 64.3091 170.696 64.3091 171.044 64.3091C172.768 64.3091 178.522 64.774 179.781 70.8177C180.304 73.3359 179.878 75.4667 178.522 77.152C176.817 79.244 173.659 80.4837 170.056 80.4837ZM171.025 65.1614C170.696 65.1614 170.366 65.1808 170.056 65.2001C165.098 65.6457 162.134 68.222 162.095 72.0768C162.076 75.3311 164.497 79.1084 168.487 79.5346C168.991 79.5927 169.514 79.6121 170.037 79.6121C173.388 79.6121 176.294 78.4886 177.824 76.6096C179.025 75.1374 179.393 73.239 178.909 70.992C177.824 65.7425 173.04 65.1614 171.025 65.1614Z" fill="#3333CC"/>
<path d="M156.827 72.813L156.672 71.98C156.769 71.9607 159.248 71.5151 161.766 71.98L161.611 72.813C159.248 72.3868 156.846 72.813 156.827 72.813Z" fill="#3333CC"/>
<path d="M179.258 70.5464L180.749 70.8563V74.0525L179.258 74.8467C179.258 74.8467 179.858 72.9096 179.258 70.5464Z" fill="#3333CC"/>
<path d="M139.064 70.5271C139.064 70.5271 138.522 72.5998 139.354 74.8081L137.824 74.2269V71.515L139.064 70.5271Z" fill="#3333CC"/>
<path d="M159.558 59.8539C157.931 58.0912 155.452 57.3357 153.088 57.3745C150.454 57.4132 148.187 59.2728 146.095 60.7062C142.163 63.3794 137.049 67.5054 137.359 72.813C137.398 73.3554 138.25 73.3554 138.211 72.813C137.921 67.9509 142.667 64.1155 146.25 61.6361C147.141 61.0356 148.032 60.4351 148.943 59.8733C150.008 59.1953 151.054 58.4786 152.313 58.3043C154.638 57.975 157.33 58.7304 158.938 60.4738C159.326 60.8612 159.926 60.2607 159.558 59.8539Z" fill="#3333CC"/>
<path d="M160.081 57.1808C160.294 56.096 162.192 55.5923 163.141 55.5342C164.303 55.4567 165.369 56.0379 166.299 56.6771C168.313 58.0718 170.192 59.7377 172.11 61.268C173.892 62.6821 175.674 64.0768 177.224 65.7427C177.999 66.5756 178.735 67.4667 179.451 68.3577C180.168 69.2682 181.292 70.5273 180.42 71.6702C180.091 72.1157 180.827 72.5418 181.156 72.0963C182.686 70.1011 179.955 67.5635 178.754 66.1495C176.72 63.7862 174.26 61.8879 171.839 59.9508C170.56 58.9241 169.282 57.8975 168.003 56.8902C167.015 56.1154 166.008 55.3211 164.807 54.9144C163.548 54.4882 162.328 54.7206 161.107 55.2049C160.274 55.5342 159.441 55.9991 159.267 56.9483C159.151 57.4907 159.984 57.7231 160.081 57.1808Z" fill="#3333CC"/>
<path d="M257.478 116.707C257.4 116.048 256.626 112.407 256.645 112.077C256.664 111.748 268.364 113.046 268.364 113.046L285.391 121.569L287.696 123.022L277.217 121.821C277.217 121.821 265.226 119.69 264.761 119.632C264.296 119.613 257.478 116.707 257.478 116.707Z" fill="#979FEF"/>
<path d="M257.478 116.707C257.4 116.048 256.626 112.407 256.645 112.077C256.664 111.748 268.364 113.046 268.364 113.046L285.391 121.569L287.696 123.022L277.217 121.821C277.217 121.821 265.226 119.69 264.761 119.632C264.296 119.613 257.478 116.707 257.478 116.707Z" fill="#979FEF"/>
<path d="M246.514 123.1C246.514 123.1 254.359 114.751 255.095 114.654C255.812 114.557 287.018 122.906 287.696 123.022C288.374 123.138 246.514 123.1 246.514 123.1Z" fill="#979FEF"/>
<path d="M256.644 112.078C256.373 111.903 259.433 102.605 260.15 102.586C260.886 102.567 289.264 123.429 287.695 123.042C286.126 122.635 257.07 112.349 256.644 112.078Z" fill="#979FEF"/>
<path d="M193.885 114.79L194.602 122.79C194.602 122.79 152.915 125.638 147.395 126.742L136.102 123.546L145.555 117.812C145.555 117.812 191.25 115.274 193.885 114.79Z" fill="#FFAB3B"/>
<path d="M193.882 114.79C191.344 115.254 148.031 117.695 145.668 117.792L150.201 120.988L145.939 123.255L148.903 124.843L147.411 126.741C152.932 125.657 194.618 122.79 194.618 122.79L193.882 114.79Z" fill="#FF643B"/>
<path d="M136.1 123.545L141.097 124.959L140.439 120.911L136.1 123.545Z" fill="#FF643B"/>
<path d="M194.121 117.552L194.105 117.359L150.178 120.899L150.193 121.092L194.121 117.552Z" fill="white"/>
<path d="M194.369 120.284L194.35 120.091L148.891 124.725L148.911 124.917L194.369 120.284Z" fill="white"/>
<path d="M100.651 38.1778C99.9534 38.1778 99.256 38.139 98.5781 38.0616C96.0405 37.7904 93.716 36.4925 92.0308 34.4392C90.4617 32.5021 89.5512 30.0033 89.5706 27.6013C89.6094 23.3978 92.515 18.6326 100.573 17.8965C100.999 17.8578 101.445 17.8384 101.891 17.8384C104.06 17.8384 111.305 18.4389 112.893 26.0323C113.552 29.2091 113.029 31.8823 111.305 33.9937C109.174 36.6087 105.203 38.1778 100.651 38.1778ZM101.891 18.6907C101.464 18.6907 101.058 18.7101 100.651 18.7488C94.2778 19.3299 90.4617 22.6424 90.423 27.6013C90.3842 31.8048 93.5223 36.6669 98.6556 37.2092C99.3142 37.2867 99.9728 37.3061 100.651 37.3061C104.951 37.3061 108.67 35.8727 110.646 33.4513C112.196 31.5529 112.661 29.1122 112.06 26.2066C110.646 19.4268 104.486 18.6907 101.891 18.6907Z" fill="#3333CC"/>
<path d="M106.035 22.7005C103.556 21.9256 100.573 21.5769 98.2093 22.8942C96.1366 24.0564 94.7419 26.4197 95.0905 28.8216C95.4586 31.243 97.4344 32.7733 99.7008 33.3544C101.018 33.6837 102.258 33.6644 103.594 33.49C104.699 33.3544 105.764 33.1413 106.558 32.3084C106.984 31.8629 106.306 31.1655 105.88 31.6304C105.163 32.3859 104.117 32.4827 103.129 32.599C102.103 32.7152 101.134 32.7152 100.108 32.4827C98.0349 31.9791 96.1559 30.6425 96.0203 28.3374C95.8847 26.2453 97.3182 24.347 99.1972 23.5334C101.231 22.6423 103.73 23.0298 105.783 23.669C106.384 23.824 106.636 22.8942 106.035 22.7005Z" fill="#3333CC"/>
</svg>
